<svg xmlns="http://www.w3.org/2000/svg" xmlns:xlink="http://www.w3.org/1999/xlink" width="1080" zoomAndPan="magnify" viewBox="0 0 810 809.999993" height="1080" preserveAspectRatio="xMidYMid meet" version="1.0"><defs><clipPath id="6a4b6807fd"><path d="M 181 451 L 190 451 L 190 483.828125 L 181 483.828125 Z M 181 451 " clip-rule="nonzero"/></clipPath><clipPath id="117c1696da"><path d="M 196 451 L 203 451 L 203 483.828125 L 196 483.828125 Z M 196 451 " clip-rule="nonzero"/></clipPath><clipPath id="eb545169a5"><path d="M 209 460 L 234 460 L 234 483.828125 L 209 483.828125 Z M 209 460 " clip-rule="nonzero"/></clipPath><clipPath id="e71b73713a"><path d="M 242 460 L 255 460 L 255 483.828125 L 242 483.828125 Z M 242 460 " clip-rule="nonzero"/></clipPath><clipPath id="0b0bbe0f6b"><path d="M 260 460 L 288 460 L 288 483.828125 L 260 483.828125 Z M 260 460 " clip-rule="nonzero"/></clipPath><clipPath id="d30e449f5f"><path d="M 295 451 L 301 451 L 301 483.828125 L 295 483.828125 Z M 295 451 " clip-rule="nonzero"/></clipPath><clipPath id="30a110ec08"><path d="M 309 460 L 327 460 L 327 483.828125 L 309 483.828125 Z M 309 460 " clip-rule="nonzero"/></clipPath><clipPath id="cd12da9041"><path d="M 334 460 L 359 460 L 359 483.828125 L 334 483.828125 Z M 334 460 " clip-rule="nonzero"/></clipPath><clipPath id="0b4ddf1945"><path d="M 368 460 L 393 460 L 393 483.828125 L 368 483.828125 Z M 368 460 " clip-rule="nonzero"/></clipPath><clipPath id="685fdb4659"><path d="M 414 451 L 441 451 L 441 483.828125 L 414 483.828125 Z M 414 451 " clip-rule="nonzero"/></clipPath><clipPath id="9786e8dff4"><path d="M 448 460 L 473 460 L 473 483.828125 L 448 483.828125 Z M 448 460 " clip-rule="nonzero"/></clipPath><clipPath id="ca78d109ad"><path d="M 495 450 L 526 450 L 526 483.828125 L 495 483.828125 Z M 495 450 " clip-rule="nonzero"/></clipPath><clipPath id="6ade278d52"><path d="M 531 460 L 556 460 L 556 483.828125 L 531 483.828125 Z M 531 460 " clip-rule="nonzero"/></clipPath><clipPath id="32bbee010e"><path d="M 564 460 L 588 460 L 588 483.828125 L 564 483.828125 Z M 564 460 " clip-rule="nonzero"/></clipPath><clipPath id="fe20eeee15"><path d="M 596 460 L 610 460 L 610 483.828125 L 596 483.828125 Z M 596 460 " clip-rule="nonzero"/></clipPath><clipPath id="66230734ac"><path d="M 615 460 L 634 460 L 634 483.828125 L 615 483.828125 Z M 615 460 " clip-rule="nonzero"/></clipPath><clipPath id="8136300d47"><path d="M 750 392 L 809.988281 392 L 809.988281 430 L 750 430 Z M 750 392 " clip-rule="nonzero"/></clipPath><clipPath id="df3d7f10b0"><path d="M 0.0117188 326.023438 L 156 326.023438 L 156 479 L 0.0117188 479 Z M 0.0117188 326.023438 " clip-rule="nonzero"/></clipPath></defs><rect x="-81" width="972" fill="#ffffff" y="-80.999999" height="971.999992" fill-opacity="1"/><rect x="-81" width="972" fill="#ffffff" y="-80.999999" height="971.999992" fill-opacity="1"/><g clip-path="url(#6a4b6807fd)"><path fill="#4c685d" d="M 181.371094 477.503906 L 181.371094 451.214844 L 185.195312 451.214844 L 185.195312 476.699219 C 185.195312 478.484375 186.308594 479.597656 188.128906 479.597656 L 189.421875 479.597656 L 189.421875 483.292969 L 187.550781 483.292969 C 183.550781 483.292969 181.371094 481.199219 181.371094 477.503906 Z M 181.371094 477.503906 " fill-opacity="1" fill-rule="nonzero"/></g><g clip-path="url(#117c1696da)"><path fill="#4c685d" d="M 196.980469 453.710938 C 196.980469 452.285156 198.089844 451.171875 199.558594 451.171875 C 200.984375 451.171875 202.09375 452.285156 202.09375 453.710938 C 202.09375 455.179688 200.984375 456.25 199.558594 456.25 C 198.09375 456.25 196.980469 455.179688 196.980469 453.710938 Z M 197.648438 460.570312 L 201.472656 460.570312 L 201.472656 483.292969 L 197.648438 483.292969 Z M 197.648438 460.570312 " fill-opacity="1" fill-rule="nonzero"/></g><g clip-path="url(#eb545169a5)"><path fill="#4c685d" d="M 209.875 460.570312 L 214.234375 460.570312 L 221.882812 478.703125 L 229.53125 460.570312 L 233.800781 460.570312 L 223.839844 483.292969 L 219.835938 483.292969 Z M 209.875 460.570312 " fill-opacity="1" fill-rule="nonzero"/></g><g clip-path="url(#e71b73713a)"><path fill="#4c685d" d="M 242.164062 460.570312 L 245.988281 460.570312 L 245.988281 464.894531 C 247.722656 461.953125 250.566406 460.214844 254.125 460.214844 L 254.835938 460.214844 L 254.835938 464.179688 L 254.125 464.179688 C 249.054688 464.179688 245.988281 467.210938 245.988281 471.890625 L 245.988281 483.292969 L 242.164062 483.292969 Z M 242.164062 460.570312 " fill-opacity="1" fill-rule="nonzero"/></g><g clip-path="url(#0b0bbe0f6b)"><path fill="#4c685d" d="M 260.753906 471.933594 C 260.753906 465.160156 265.601562 460.035156 272.09375 460.035156 C 275.871094 460.035156 278.984375 461.820312 280.898438 464.671875 L 280.898438 460.570312 L 284.722656 460.570312 L 284.722656 477.324219 C 284.722656 478.703125 285.609375 479.597656 286.988281 479.597656 L 287.433594 479.597656 L 287.433594 483.292969 L 286.234375 483.292969 C 283.164062 483.292969 281.34375 481.824219 280.984375 479.105469 C 279.074219 482.003906 275.917969 483.828125 272.09375 483.828125 C 265.601562 483.828125 260.753906 478.703125 260.753906 471.933594 Z M 280.898438 471.933594 C 280.898438 467.253906 277.429688 463.734375 272.804688 463.734375 C 268.136719 463.734375 264.667969 467.253906 264.667969 471.933594 C 264.667969 476.613281 268.136719 480.128906 272.804688 480.128906 C 277.429688 480.128906 280.898438 476.613281 280.898438 471.933594 Z M 280.898438 471.933594 " fill-opacity="1" fill-rule="nonzero"/></g><g clip-path="url(#d30e449f5f)"><path fill="#4c685d" d="M 295.351562 453.710938 C 295.351562 452.285156 296.464844 451.171875 297.929688 451.171875 C 299.355469 451.171875 300.464844 452.285156 300.464844 453.710938 C 300.464844 455.179688 299.355469 456.25 297.929688 456.25 C 296.464844 456.25 295.351562 455.179688 295.351562 453.710938 Z M 296.019531 460.570312 L 299.84375 460.570312 L 299.84375 483.292969 L 296.019531 483.292969 Z M 296.019531 460.570312 " fill-opacity="1" fill-rule="nonzero"/></g><g clip-path="url(#30a110ec08)"><path fill="#4c685d" d="M 309.316406 476.832031 L 313.230469 476.832031 C 313.230469 478.972656 315.183594 480.355469 318.121094 480.355469 C 320.878906 480.355469 322.699219 479.0625 322.699219 477.234375 C 322.699219 472.335938 309.671875 474.917969 309.671875 466.898438 C 309.671875 462.753906 312.960938 460.035156 317.898438 460.035156 C 322.96875 460.035156 326.257812 462.710938 326.257812 466.765625 L 322.34375 466.765625 C 322.34375 464.804688 320.566406 463.511719 317.851562 463.511719 C 315.273438 463.511719 313.585938 464.714844 313.585938 466.453125 C 313.585938 471.21875 326.613281 468.679688 326.613281 476.832031 C 326.613281 481.023438 323.234375 483.828125 318.074219 483.828125 C 312.785156 483.828125 309.316406 481.023438 309.316406 476.832031 Z M 309.316406 476.832031 " fill-opacity="1" fill-rule="nonzero"/></g><g clip-path="url(#cd12da9041)"><path fill="#4c685d" d="M 334.574219 471.933594 C 334.574219 465.160156 339.777344 460.035156 346.671875 460.035156 C 353.519531 460.035156 358.722656 465.160156 358.722656 471.933594 C 358.722656 478.703125 353.519531 483.828125 346.671875 483.828125 C 339.777344 483.828125 334.574219 478.703125 334.574219 471.933594 Z M 354.765625 471.933594 C 354.765625 467.253906 351.296875 463.734375 346.671875 463.734375 C 342.003906 463.734375 338.535156 467.253906 338.535156 471.933594 C 338.535156 476.613281 342.003906 480.128906 346.671875 480.128906 C 351.296875 480.128906 354.765625 476.613281 354.765625 471.933594 Z M 354.765625 471.933594 " fill-opacity="1" fill-rule="nonzero"/></g><g clip-path="url(#0b4ddf1945)"><path fill="#4c685d" d="M 368.195312 460.570312 L 372.019531 460.570312 L 372.019531 464.003906 C 373.800781 461.460938 376.644531 460.035156 380.203125 460.035156 C 385.71875 460.035156 389.40625 463.691406 389.40625 469.257812 L 389.40625 477.324219 C 389.40625 478.703125 390.296875 479.597656 391.675781 479.597656 L 392.074219 479.597656 L 392.074219 483.292969 L 390.921875 483.292969 C 387.496094 483.292969 385.582031 481.46875 385.582031 478.125 L 385.582031 470.460938 C 385.582031 466.40625 383.003906 463.734375 378.957031 463.734375 C 374.777344 463.734375 372.019531 466.453125 372.019531 470.550781 L 372.019531 483.292969 L 368.195312 483.292969 Z M 368.195312 460.570312 " fill-opacity="1" fill-rule="nonzero"/></g><g clip-path="url(#685fdb4659)"><path fill="#4c685d" d="M 414.226562 471.933594 C 414.226562 465.160156 419.070312 460.035156 425.566406 460.035156 C 429.34375 460.035156 432.457031 461.820312 434.371094 464.671875 L 434.371094 451.214844 L 438.195312 451.214844 L 438.195312 477.324219 C 438.195312 478.703125 439.082031 479.597656 440.460938 479.597656 L 440.90625 479.597656 L 440.90625 483.292969 L 439.707031 483.292969 C 436.636719 483.292969 434.8125 481.824219 434.457031 479.105469 C 432.546875 482.003906 429.386719 483.828125 425.566406 483.828125 C 419.070312 483.828125 414.226562 478.703125 414.226562 471.933594 Z M 434.367188 471.933594 C 434.367188 467.253906 430.902344 463.734375 426.277344 463.734375 C 421.605469 463.734375 418.136719 467.253906 418.136719 471.933594 C 418.136719 476.613281 421.605469 480.128906 426.277344 480.128906 C 430.902344 480.128906 434.367188 476.613281 434.367188 471.933594 Z M 434.367188 471.933594 " fill-opacity="1" fill-rule="nonzero"/></g><g clip-path="url(#9786e8dff4)"><path fill="#4c685d" d="M 448.15625 471.933594 C 448.15625 465.160156 453.359375 460.035156 460.207031 460.035156 C 467.101562 460.035156 472.257812 465.160156 472.257812 471.933594 C 472.257812 472.46875 472.214844 473.046875 472.167969 473.535156 L 452.246094 473.535156 C 452.914062 477.546875 456.117188 480.308594 460.386719 480.308594 C 463.542969 480.308594 466.300781 478.792969 467.589844 476.523438 L 471.859375 476.523438 C 470.078125 480.890625 465.675781 483.828125 460.339844 483.828125 C 453.359375 483.828125 448.15625 478.703125 448.15625 471.933594 Z M 452.292969 470.105469 L 468.210938 470.105469 C 467.542969 466.320312 464.34375 463.554688 460.207031 463.554688 C 456.160156 463.554688 453.046875 466.230469 452.292969 470.105469 Z M 452.292969 470.105469 " fill-opacity="1" fill-rule="nonzero"/></g><g clip-path="url(#ca78d109ad)"><path fill="#4c685d" d="M 499.609375 464.269531 L 495.472656 464.269531 L 495.472656 460.75 L 499.609375 460.75 L 499.609375 457.183594 C 499.609375 453.265625 502.410156 450.679688 506.589844 450.679688 C 510.816406 450.679688 513.527344 453.265625 513.527344 457.230469 L 510.105469 457.230469 C 510.105469 455.402344 508.816406 454.199219 506.859375 454.199219 C 504.769531 454.199219 503.433594 455.535156 503.433594 457.542969 L 503.433594 460.75 L 510.328125 460.75 L 510.328125 464.269531 L 503.433594 464.269531 L 503.433594 483.292969 L 499.609375 483.292969 Z M 517.085938 477.503906 L 517.085938 451.214844 L 520.910156 451.214844 L 520.910156 476.699219 C 520.910156 478.484375 522.023438 479.597656 523.84375 479.597656 L 525.136719 479.597656 L 525.136719 483.292969 L 523.265625 483.292969 C 519.265625 483.292969 517.085938 481.199219 517.085938 477.503906 Z M 517.085938 477.503906 " fill-opacity="1" fill-rule="nonzero"/></g><g clip-path="url(#6ade278d52)"><path fill="#4c685d" d="M 531.628906 471.933594 C 531.628906 465.160156 536.832031 460.035156 543.679688 460.035156 C 550.574219 460.035156 555.734375 465.160156 555.734375 471.933594 C 555.734375 472.46875 555.6875 473.046875 555.644531 473.535156 L 535.722656 473.535156 C 536.386719 477.546875 539.589844 480.308594 543.859375 480.308594 C 547.015625 480.308594 549.773438 478.792969 551.0625 476.523438 L 555.332031 476.523438 C 553.554688 480.890625 549.152344 483.828125 543.816406 483.828125 C 536.832031 483.828125 531.628906 478.703125 531.628906 471.933594 Z M 535.765625 470.105469 L 551.6875 470.105469 C 551.019531 466.320312 547.816406 463.554688 543.679688 463.554688 C 539.632812 463.554688 536.519531 466.230469 535.765625 470.105469 Z M 535.765625 470.105469 " fill-opacity="1" fill-rule="nonzero"/></g><g clip-path="url(#32bbee010e)"><path fill="#4c685d" d="M 564.761719 474.875 L 564.761719 460.570312 L 568.585938 460.570312 L 568.585938 473.761719 C 568.585938 477.589844 571.03125 480.128906 574.8125 480.128906 C 578.769531 480.128906 581.4375 477.546875 581.4375 473.671875 L 581.4375 460.570312 L 585.261719 460.570312 L 585.261719 477.324219 C 585.261719 478.707031 586.105469 479.597656 587.53125 479.597656 L 587.929688 479.597656 L 587.929688 483.292969 L 586.773438 483.292969 C 583.929688 483.292969 582.148438 482.046875 581.617188 479.730469 C 579.882812 482.359375 577.125 483.828125 573.609375 483.828125 C 568.320312 483.828125 564.761719 480.265625 564.761719 474.875 Z M 564.761719 474.875 " fill-opacity="1" fill-rule="nonzero"/></g><g clip-path="url(#fe20eeee15)"><path fill="#4c685d" d="M 596.425781 460.570312 L 600.25 460.570312 L 600.25 464.894531 C 601.984375 461.953125 604.828125 460.214844 608.386719 460.214844 L 609.097656 460.214844 L 609.097656 464.179688 L 608.386719 464.179688 C 603.316406 464.179688 600.25 467.210938 600.25 471.890625 L 600.25 483.292969 L 596.425781 483.292969 Z M 596.425781 460.570312 " fill-opacity="1" fill-rule="nonzero"/></g><g clip-path="url(#66230734ac)"><path fill="#4c685d" d="M 615.726562 476.832031 L 619.640625 476.832031 C 619.640625 478.972656 621.597656 480.355469 624.53125 480.355469 C 627.289062 480.355469 629.113281 479.0625 629.113281 477.234375 C 629.113281 472.335938 616.082031 474.917969 616.082031 466.898438 C 616.082031 462.753906 619.375 460.035156 624.3125 460.035156 C 629.378906 460.035156 632.671875 462.710938 632.671875 466.765625 L 628.757812 466.765625 C 628.757812 464.804688 626.980469 463.511719 624.265625 463.511719 C 621.6875 463.511719 619.996094 464.714844 619.996094 466.453125 C 619.996094 471.21875 633.027344 468.679688 633.027344 476.832031 C 633.027344 481.023438 629.648438 483.828125 624.488281 483.828125 C 619.195312 483.828125 615.726562 481.023438 615.726562 476.832031 Z M 615.726562 476.832031 " fill-opacity="1" fill-rule="nonzero"/></g><path fill="#4c685d" d="M 216.488281 351.304688 L 184.804688 351.304688 C 182.910156 351.304688 181.371094 352.84375 181.371094 354.746094 L 181.371094 425.640625 C 181.371094 427.542969 182.910156 429.085938 184.804688 429.085938 C 186.703125 429.085938 188.238281 427.542969 188.238281 425.640625 L 188.238281 391.566406 L 213.824219 391.566406 C 215.722656 391.566406 217.257812 390.023438 217.257812 388.125 C 217.257812 386.222656 215.722656 384.683594 213.824219 384.683594 L 188.238281 384.683594 L 188.238281 358.1875 L 216.488281 358.1875 C 218.386719 358.1875 219.921875 356.648438 219.921875 354.746094 C 219.921875 352.84375 218.386719 351.304688 216.488281 351.304688 Z M 216.488281 351.304688 " fill-opacity="1" fill-rule="nonzero"/><path fill="#4c685d" d="M 265.503906 420.210938 L 240 420.210938 L 240 354.746094 C 240 352.84375 238.460938 351.304688 236.566406 351.304688 C 234.667969 351.304688 233.128906 352.84375 233.128906 354.746094 L 233.128906 423.652344 C 233.128906 425.550781 234.667969 427.09375 236.566406 427.09375 L 265.503906 427.09375 C 267.402344 427.09375 268.9375 425.550781 268.9375 423.652344 C 268.9375 421.75 267.402344 420.210938 265.503906 420.210938 Z M 265.503906 420.210938 " fill-opacity="1" fill-rule="nonzero"/><path fill="#4c685d" d="M 309.550781 349.988281 C 287.984375 349.988281 270.4375 367.566406 270.4375 389.175781 C 270.4375 410.789062 287.984375 428.367188 309.550781 428.367188 C 331.117188 428.367188 348.664062 410.785156 348.664062 389.175781 C 348.664062 367.570312 331.117188 349.988281 309.550781 349.988281 Z M 309.550781 421.484375 C 291.769531 421.484375 277.304688 406.992188 277.304688 389.175781 C 277.304688 371.363281 291.769531 356.871094 309.550781 356.871094 C 327.332031 356.871094 341.796875 371.363281 341.796875 389.175781 C 341.796875 406.992188 327.332031 421.484375 309.550781 421.484375 Z M 309.550781 421.484375 " fill-opacity="1" fill-rule="nonzero"/><path fill="#4c685d" d="M 475.679688 409.792969 C 475.671875 409.765625 475.660156 409.746094 475.652344 409.722656 L 451.867188 353.40625 C 451.328125 352.132812 450.085938 351.304688 448.703125 351.304688 C 447.324219 351.304688 446.078125 352.132812 445.539062 353.40625 L 421.746094 409.742188 C 421.742188 409.75 421.738281 409.761719 421.734375 409.769531 L 418.582031 417.234375 C 417.242188 420.402344 414.160156 422.449219 410.726562 422.449219 C 407.667969 422.449219 404.828125 420.792969 403.3125 418.125 C 403.296875 418.097656 403.273438 418.074219 403.253906 418.042969 C 403.238281 418.015625 403.226562 417.980469 403.210938 417.953125 C 402.648438 417.085938 402.015625 416.019531 401.34375 414.890625 C 399.292969 411.421875 396.773438 407.179688 393.515625 403.917969 C 396.46875 402.707031 399.070312 401.097656 401.25 399.09375 C 406.515625 394.261719 409.296875 387.308594 409.296875 378.988281 C 409.296875 361.652344 397.871094 351.304688 378.738281 351.304688 L 367.273438 351.304688 C 365.375 351.304688 363.835938 352.84375 363.835938 354.746094 L 363.835938 425.644531 C 363.835938 427.542969 365.375 429.085938 367.273438 429.085938 C 369.167969 429.085938 370.707031 427.542969 370.707031 425.644531 L 370.707031 406.5625 L 378.738281 406.5625 C 380.902344 406.5625 382.976562 406.417969 384.960938 406.148438 C 389.1875 407.859375 392.78125 413.914062 395.4375 418.402344 C 396.144531 419.59375 396.808594 420.71875 397.449219 421.703125 C 397.449219 421.703125 397.453125 421.707031 397.453125 421.707031 C 400.210938 426.414062 405.273438 429.332031 410.726562 429.332031 C 416.925781 429.332031 422.492188 425.636719 424.90625 419.917969 L 427.179688 414.535156 L 470.226562 414.535156 L 475.179688 426.265625 C 475.734375 427.578125 477.007812 428.367188 478.34375 428.367188 C 478.789062 428.367188 479.242188 428.28125 479.679688 428.09375 C 481.429688 427.355469 482.246094 425.335938 481.507812 423.585938 Z M 370.707031 399.679688 L 370.707031 358.1875 L 378.738281 358.1875 C 386.476562 358.1875 392.460938 360.035156 396.515625 363.679688 C 400.4375 367.207031 402.425781 372.355469 402.425781 378.988281 C 402.425781 390.375 396.296875 397.390625 385.007812 399.203125 C 384.882812 399.21875 384.757812 399.234375 384.636719 399.261719 C 382.800781 399.535156 380.835938 399.679688 378.738281 399.679688 Z M 430.085938 407.652344 L 448.703125 363.578125 L 467.320312 407.652344 Z M 430.085938 407.652344 " fill-opacity="1" fill-rule="nonzero"/><path fill="#4c685d" d="M 507.894531 348.027344 C 505.996094 348.027344 504.457031 349.570312 504.457031 351.46875 L 504.457031 407.875 C 504.457031 413.777344 501.058594 420.070312 493.464844 420.824219 C 491.574219 421.011719 490.195312 422.695312 490.382812 424.589844 C 490.558594 426.363281 492.050781 427.691406 493.796875 427.691406 C 493.910156 427.691406 494.023438 427.683594 494.140625 427.671875 C 504.257812 426.671875 511.328125 418.527344 511.328125 407.875 L 511.328125 351.46875 C 511.328125 349.570312 509.789062 348.027344 507.894531 348.027344 Z M 507.894531 348.027344 " fill-opacity="1" fill-rule="nonzero"/><path fill="#4c685d" d="M 565.109375 349.988281 C 543.539062 349.988281 525.996094 367.566406 525.996094 389.175781 C 525.996094 410.789062 543.539062 428.367188 565.109375 428.367188 C 578.921875 428.367188 591.445312 421.289062 598.601562 409.433594 C 599.582031 407.804688 599.0625 405.691406 597.4375 404.707031 C 595.816406 403.722656 593.703125 404.246094 592.722656 405.871094 C 586.820312 415.648438 576.496094 421.484375 565.109375 421.484375 C 547.808594 421.484375 533.644531 407.761719 532.894531 390.609375 L 600.761719 390.609375 C 601.707031 390.609375 602.605469 390.222656 603.257812 389.535156 C 603.90625 388.847656 604.242188 387.921875 604.191406 386.980469 C 603.042969 366.234375 585.878906 349.988281 565.109375 349.988281 Z M 533.320312 383.726562 C 535.914062 368.5 549.183594 356.871094 565.109375 356.871094 C 581 356.871094 594.332031 368.402344 596.925781 383.726562 Z M 533.320312 383.726562 " fill-opacity="1" fill-rule="nonzero"/><path fill="#4c685d" d="M 649.09375 351.332031 L 608.386719 351.332031 C 606.492188 351.332031 604.953125 352.871094 604.953125 354.773438 C 604.953125 356.671875 606.492188 358.214844 608.386719 358.214844 L 625.308594 358.214844 L 625.308594 424.925781 C 625.308594 426.828125 626.84375 428.367188 628.742188 428.367188 C 630.636719 428.367188 632.175781 426.828125 632.175781 424.925781 L 632.175781 358.214844 L 649.09375 358.214844 C 650.992188 358.214844 652.53125 356.671875 652.53125 354.773438 C 652.53125 352.871094 650.992188 351.332031 649.09375 351.332031 Z M 649.09375 351.332031 " fill-opacity="1" fill-rule="nonzero"/><path fill="#76c19f" d="M 651.828125 429.027344 C 648.445312 429.027344 645.816406 426.390625 645.816406 423 C 645.816406 419.519531 648.445312 416.882812 651.828125 416.882812 C 655.207031 416.882812 657.839844 419.519531 657.839844 423 C 657.839844 426.390625 655.207031 429.027344 651.828125 429.027344 Z M 651.828125 429.027344 " fill-opacity="1" fill-rule="nonzero"/><path fill="#76c19f" d="M 662.421875 410.4375 C 662.421875 399.855469 670.550781 391.851562 681.320312 391.851562 C 690.28125 391.851562 697.4375 397.492188 699.035156 405.566406 L 692.714844 405.566406 C 691.253906 400.832031 686.808594 397.628906 681.320312 397.628906 C 674.023438 397.628906 668.605469 403.128906 668.605469 410.4375 C 668.605469 417.75 674.023438 423.246094 681.320312 423.246094 C 686.808594 423.246094 691.253906 420.046875 692.714844 415.3125 L 699.035156 415.3125 C 697.4375 423.386719 690.28125 429.027344 681.320312 429.027344 C 670.550781 429.027344 662.421875 421.019531 662.421875 410.4375 Z M 662.421875 410.4375 " fill-opacity="1" fill-rule="nonzero"/><path fill="#76c19f" d="M 704.523438 410.4375 C 704.523438 399.855469 712.652344 391.851562 723.421875 391.851562 C 734.121094 391.851562 742.25 399.855469 742.25 410.4375 C 742.25 421.019531 734.121094 429.027344 723.421875 429.027344 C 712.652344 429.027344 704.523438 421.019531 704.523438 410.4375 Z M 736.066406 410.4375 C 736.066406 403.128906 730.644531 397.628906 723.421875 397.628906 C 716.125 397.628906 710.707031 403.128906 710.707031 410.4375 C 710.707031 417.75 716.125 423.246094 723.421875 423.246094 C 730.644531 423.246094 736.066406 417.746094 736.066406 410.4375 Z M 736.066406 410.4375 " fill-opacity="1" fill-rule="nonzero"/><g clip-path="url(#8136300d47)"><path fill="#76c19f" d="M 750.097656 393.523438 L 756.070312 393.523438 L 756.070312 398.324219 C 758.644531 394.707031 762.671875 392.6875 767.675781 392.6875 C 773.300781 392.6875 777.679688 395.402344 779.695312 399.855469 C 782.265625 395.261719 786.710938 392.6875 792.550781 392.6875 C 800.539062 392.6875 805.820312 397.976562 805.820312 406.121094 L 805.820312 419.695312 C 805.820312 421.855469 807.140625 423.246094 809.363281 423.246094 L 809.988281 423.246094 L 809.988281 429.027344 L 808.183594 429.027344 C 802.832031 429.027344 799.84375 426.171875 799.84375 420.949219 L 799.84375 407.792969 C 799.84375 402.15625 796.230469 398.464844 790.671875 398.464844 C 784.835938 398.464844 780.945312 402.222656 780.945312 407.933594 L 780.945312 429.027344 L 774.96875 429.027344 L 774.96875 407.792969 C 774.96875 402.15625 771.355469 398.464844 765.800781 398.464844 C 759.964844 398.464844 756.070312 402.222656 756.070312 407.933594 L 756.070312 429.027344 L 750.097656 429.027344 Z M 750.097656 393.523438 " fill-opacity="1" fill-rule="nonzero"/></g><g clip-path="url(#df3d7f10b0)"><path fill="#76c19f" d="M 151.558594 326.023438 L 94.921875 326.023438 C 77.515625 326.023438 61.152344 332.816406 48.84375 345.148438 C 36.539062 357.476562 29.761719 373.871094 29.761719 391.3125 L 29.761719 456.222656 C 23.195312 465.636719 15.214844 472.207031 3.382812 472.207031 C 1.519531 472.207031 0.0117188 473.71875 0.0117188 475.585938 C 0.0117188 477.449219 1.519531 478.960938 3.382812 478.960938 C 18.3125 478.960938 27.972656 470.765625 35.578125 459.679688 C 35.988281 459.304688 36.308594 458.835938 36.5 458.300781 C 40.632812 452.023438 44.171875 444.921875 47.667969 437.90625 C 48.871094 435.492188 50.066406 433.097656 51.277344 430.742188 L 74.746094 430.742188 C 76.605469 430.742188 78.117188 429.230469 78.117188 427.363281 C 78.117188 425.5 76.605469 423.988281 74.746094 423.988281 L 54.882812 423.988281 C 63.445312 408.710938 73.652344 396.6875 92.402344 396.6875 C 94.261719 396.6875 95.773438 395.175781 95.773438 393.308594 C 95.773438 391.445312 94.261719 389.933594 92.402344 389.933594 C 64.039062 389.933594 52.136719 413.816406 41.636719 434.886719 C 40.003906 438.167969 38.382812 441.410156 36.722656 444.542969 L 36.722656 391.3125 C 36.722656 375.738281 42.777344 361.09375 53.769531 350.082031 C 64.761719 339.070312 79.375 333.003906 94.921875 333.003906 L 148.078125 333.003906 L 148.078125 395.308594 C 148.078125 410.882812 142.023438 425.527344 131.03125 436.539062 C 120.039062 447.550781 105.425781 453.617188 89.882812 453.617188 L 74.746094 453.617188 C 72.820312 453.617188 71.265625 455.179688 71.265625 457.105469 C 71.265625 459.035156 72.820312 460.597656 74.746094 460.597656 L 89.882812 460.597656 C 107.285156 460.597656 123.648438 453.804688 135.957031 441.472656 C 148.265625 429.140625 155.042969 412.746094 155.042969 395.308594 L 155.042969 329.515625 C 155.042969 327.585938 153.484375 326.023438 151.558594 326.023438 Z M 151.558594 326.023438 " fill-opacity="1" fill-rule="nonzero"/></g></svg>