<svg xmlns="http://www.w3.org/2000/svg" xmlns:xlink="http://www.w3.org/1999/xlink" width="1080" zoomAndPan="magnify" viewBox="0 0 810 809.999993" height="1080" preserveAspectRatio="xMidYMid meet" version="1.0"><defs><clipPath id="095fb4f0c9"><path d="M 368 299.226562 L 442 299.226562 L 442 395 L 368 395 Z M 368 299.226562 " clip-rule="nonzero"/></clipPath><clipPath id="ed7b99cd3b"><path d="M 412 440 L 420 440 L 420 510.726562 L 412 510.726562 Z M 412 440 " clip-rule="nonzero"/></clipPath><clipPath id="8deb9922c6"><path d="M 391 440 L 399 440 L 399 510.726562 L 391 510.726562 Z M 391 440 " clip-rule="nonzero"/></clipPath></defs><rect x="-81" width="972" fill="#ffffff" y="-80.999999" height="971.999992" fill-opacity="1"/><rect x="-81" width="972" fill="#ffffff" y="-80.999999" height="971.999992" fill-opacity="1"/><path fill="#194165" d="M 51.382812 328.613281 C 51.382812 328.613281 50.824219 328.472656 48.320312 330.699219 L 46.507812 332.648438 L 45.8125 333.484375 L 45.117188 334.460938 L 27.433594 364.253906 C 27.015625 364.671875 26.875 365.089844 26.457031 364.671875 L 26.179688 364.394531 C 26.457031 364.949219 5.847656 331.953125 5.847656 331.953125 C 3.898438 329.167969 1.390625 328.613281 0.976562 328.335938 C -0.417969 327.5 -0.140625 327.21875 1.390625 327.21875 L 18.378906 327.21875 C 19.632812 327.21875 19.773438 327.917969 19.496094 328.195312 C 18.9375 328.75 16.570312 330.003906 16.570312 330.003906 C 15.316406 330.839844 15.457031 331.816406 16.011719 333.066406 L 28.824219 353.953125 C 29.101562 354.648438 29.519531 354.648438 29.9375 354.230469 L 30.214844 353.953125 L 42.050781 334.042969 C 43.027344 332.511719 42.191406 330.699219 42.191406 330.699219 C 41.636719 329.585938 38.292969 328.195312 38.570312 327.777344 C 38.710938 327.359375 40.242188 327.359375 40.242188 327.359375 L 51.800781 327.359375 C 51.800781 327.359375 52.355469 327.359375 52.636719 327.777344 C 52.773438 328.195312 52.21875 328.195312 51.660156 328.613281 Z M 51.382812 328.613281 " fill-opacity="1" fill-rule="nonzero"/><path fill="#194165" d="M 59.039062 327.21875 L 81.179688 327.21875 C 86.195312 327.359375 88.839844 328.890625 88.839844 328.890625 C 93.015625 331.535156 92.878906 334.738281 92.878906 334.738281 C 93.296875 338.359375 91.066406 340.308594 91.066406 340.308594 C 89.257812 342.535156 82.296875 344.066406 82.296875 344.066406 C 81.320312 344.902344 82.992188 345.875 82.992188 345.875 L 99.003906 361.191406 C 100.398438 362.027344 100.953125 362.027344 100.953125 362.027344 C 102.765625 362.863281 101.648438 363.277344 101.648438 363.277344 L 93.015625 363.277344 C 91.765625 363.140625 91.347656 362.582031 91.347656 362.582031 C 90.789062 362.304688 71.015625 343.089844 71.015625 343.089844 C 70.738281 342.8125 71.433594 342.257812 71.433594 342.257812 C 75.75 342.535156 78.953125 341.28125 78.953125 341.28125 C 83.128906 339.609375 83.964844 337.660156 83.964844 337.660156 C 84.523438 336.269531 84.800781 334.878906 84.382812 333.765625 C 83.6875 331.398438 82.574219 330.699219 81.179688 330.28125 C 79.789062 329.726562 78.8125 329.867188 78.8125 329.867188 L 71.710938 329.867188 C 69.207031 330.144531 69.625 332.371094 69.625 332.371094 L 69.625 356.597656 C 69.34375 360.496094 72.546875 361.609375 72.546875 361.609375 L 73.941406 362.445312 C 75.054688 363 74.21875 363.277344 74.21875 363.277344 L 57.089844 363.277344 C 55.558594 363.277344 55.558594 362.445312 57.925781 361.746094 C 57.925781 361.746094 61.546875 360.632812 61.546875 356.734375 L 61.546875 333.902344 C 61.546875 329.867188 57.089844 328.335938 57.089844 328.335938 C 56.117188 326.800781 57.925781 327.21875 57.925781 327.21875 Z M 59.039062 327.21875 " fill-opacity="1" fill-rule="nonzero"/><path fill="#194165" d="M 127.96875 336.128906 C 128.523438 336.269531 128.941406 337.246094 128.941406 337.246094 L 132.5625 343.648438 C 132.5625 343.648438 132.703125 344.207031 132.144531 344.207031 L 123.789062 344.207031 C 123.789062 344.207031 122.539062 344.207031 123.234375 343.230469 L 126.992188 336.964844 C 127.273438 336.964844 127.550781 335.992188 127.96875 336.128906 Z M 130.058594 326.523438 L 110.703125 357.710938 C 108.75 360.214844 107.777344 360.914062 107.777344 360.914062 C 105.6875 362.164062 105.269531 362.027344 105.269531 362.027344 C 103.738281 362.722656 104.296875 363.140625 104.851562 363.140625 L 117.804688 363.140625 C 118.777344 363.140625 118.5 362.582031 118.5 362.582031 C 118.5 362.027344 116.828125 361.609375 116.828125 361.609375 C 114.460938 360.496094 114.320312 358.40625 114.320312 358.40625 C 114.320312 357.292969 115.019531 356.597656 115.019531 356.597656 L 120.03125 347.824219 C 120.449219 347.128906 121.144531 347.269531 121.144531 347.269531 L 134.792969 347.269531 C 135.625 347.546875 135.90625 348.242188 135.90625 348.242188 L 140.917969 356.457031 C 142.308594 358.964844 141.753906 359.242188 141.613281 359.9375 C 141.476562 360.632812 138.96875 361.746094 138.96875 361.746094 C 137.160156 362.722656 137.992188 363 138.410156 363.140625 L 155.398438 363.140625 C 156.652344 363.140625 155.679688 362.164062 155.679688 362.164062 C 155.679688 362.164062 153.03125 360.496094 152.753906 360.214844 C 150.945312 358.683594 150.804688 357.847656 150.804688 357.847656 L 131.867188 327.21875 C 130.890625 324.992188 130.472656 325.828125 130.472656 325.828125 Z M 130.058594 326.523438 " fill-opacity="1" fill-rule="nonzero"/><path fill="#194165" d="M 162.363281 327.21875 L 170.300781 327.21875 C 173.085938 327.21875 172.25 327.5 173.917969 328.335938 L 177.402344 330.839844 L 196.757812 343.230469 C 198.289062 344.066406 198.425781 343.789062 198.566406 342.394531 C 198.566406 342.394531 198.566406 332.371094 198.566406 332.230469 C 198.566406 330.421875 194.527344 328.335938 194.527344 328.335938 C 193.136719 327.636719 193.691406 327.082031 194.804688 327.21875 L 206.226562 327.21875 C 207.339844 327.21875 207.339844 327.917969 206.640625 328.195312 C 206.640625 328.195312 203.996094 329.308594 203.578125 329.726562 C 203.578125 329.726562 202.1875 330.421875 202.1875 331.675781 L 202.1875 356.457031 C 202.324219 359.242188 202.742188 359.796875 203.300781 360.214844 C 204.832031 361.746094 206.085938 361.886719 206.363281 362.027344 C 207.757812 362.722656 206.363281 363 206.363281 363 C 207.339844 363 195.222656 363 195.222656 363 C 194.109375 363 193.554688 362.445312 194.25 362.027344 L 196.339844 361.191406 C 197.589844 360.773438 198.148438 359.9375 198.566406 358.824219 L 198.566406 353.8125 C 198.148438 352.835938 197.171875 352.28125 197.171875 352.28125 L 170.019531 334.878906 C 167.933594 333.347656 167.792969 335.015625 167.792969 335.015625 L 167.792969 358.964844 C 167.792969 360.496094 169.324219 361.050781 169.324219 361.050781 C 172.804688 362.722656 172.109375 363.140625 170.4375 363.140625 L 160.414062 363.140625 C 158.882812 362.304688 161.804688 361.746094 162.222656 361.46875 C 163.753906 360.914062 164.171875 360.496094 164.449219 358.824219 L 164.449219 332.789062 C 164.449219 331.953125 165.007812 331.953125 163.335938 330.839844 L 161.109375 329.449219 C 158.882812 328.472656 159.855469 327.21875 160.550781 327.359375 Z M 162.363281 327.21875 " fill-opacity="1" fill-rule="nonzero"/><path fill="#194165" d="M 318.039062 327.21875 L 325.976562 327.21875 C 328.761719 327.21875 327.925781 327.5 329.597656 328.335938 L 333.078125 330.839844 L 352.433594 343.230469 C 353.964844 344.066406 354.105469 343.789062 354.246094 342.394531 C 354.246094 342.394531 354.246094 332.371094 354.246094 332.230469 C 354.246094 330.421875 350.207031 328.335938 350.207031 328.335938 C 348.8125 327.636719 349.371094 327.082031 350.484375 327.21875 L 361.902344 327.21875 C 363.015625 327.21875 363.015625 327.917969 362.320312 328.195312 C 362.320312 328.195312 359.675781 329.308594 359.257812 329.726562 C 359.257812 329.726562 357.863281 330.421875 357.863281 331.675781 L 357.863281 356.457031 C 358.003906 359.242188 358.421875 359.796875 358.980469 360.214844 C 360.511719 361.746094 361.765625 361.886719 362.042969 362.027344 C 363.433594 362.722656 362.042969 363 362.042969 363 C 363.015625 363 350.902344 363 350.902344 363 C 349.789062 363 349.230469 362.445312 349.925781 362.027344 L 352.15625 361.191406 C 353.410156 360.773438 353.964844 359.9375 354.382812 358.824219 L 354.382812 353.8125 C 353.964844 352.835938 352.992188 352.28125 352.992188 352.28125 L 325.839844 334.878906 C 323.75 333.347656 323.609375 335.015625 323.609375 335.015625 L 323.609375 358.964844 C 323.609375 360.496094 325.140625 361.050781 325.140625 361.050781 C 328.621094 362.722656 327.925781 363.140625 326.253906 363.140625 L 316.230469 363.140625 C 314.699219 362.304688 317.621094 361.746094 318.039062 361.46875 C 319.570312 360.914062 319.988281 360.496094 320.269531 358.824219 L 320.269531 332.789062 C 320.269531 331.953125 320.824219 331.953125 319.152344 330.839844 L 316.925781 329.449219 C 314.699219 328.472656 315.671875 327.21875 316.371094 327.359375 Z M 318.039062 327.21875 " fill-opacity="1" fill-rule="nonzero"/><path fill="#194165" d="M 301.46875 363.417969 L 268.886719 363.417969 C 267.355469 363 269.164062 362.445312 269.164062 362.445312 C 272.089844 361.050781 271.949219 360.773438 271.949219 360.773438 C 272.785156 359.9375 272.785156 359.101562 272.785156 359.101562 L 272.785156 333.347656 C 272.507812 330.28125 270.695312 329.449219 270.695312 329.449219 C 269.582031 328.890625 268.746094 328.472656 268.746094 328.472656 C 267.773438 327.777344 268.050781 327.21875 269.722656 327.21875 L 308.710938 327.21875 C 310.660156 327.082031 309.824219 329.585938 309.824219 329.585938 L 309.269531 333.765625 C 308.988281 335.433594 308.433594 334.597656 308.433594 334.597656 L 305.230469 331.816406 C 303.835938 331.117188 303.558594 330.28125 300.214844 330.421875 L 281.417969 330.421875 C 280.304688 330.421875 280.304688 331.257812 280.304688 331.257812 C 280.304688 330.144531 280.304688 332.789062 280.304688 332.789062 L 280.304688 341.003906 C 280.304688 342.535156 281.695312 342.394531 281.695312 342.394531 L 295.203125 342.394531 C 297.710938 342.117188 297.847656 341.421875 298.265625 340.863281 C 298.824219 340.167969 299.242188 339.890625 299.242188 339.890625 C 299.796875 339.054688 299.796875 339.609375 299.9375 341.003906 L 299.9375 346.988281 C 299.9375 347.964844 299.660156 348.242188 299.660156 348.242188 L 296.457031 346.15625 L 295.203125 345.738281 L 281.835938 345.738281 C 280.445312 345.738281 280.582031 346.988281 280.582031 346.988281 L 280.582031 359.519531 C 280.582031 360.496094 281.277344 360.214844 281.277344 360.214844 L 297.015625 360.214844 C 300.632812 360.214844 303.140625 359.101562 305.367188 357.433594 C 307.179688 356.039062 307.316406 354.648438 308.015625 353.953125 C 308.570312 353.253906 309.40625 353.253906 309.40625 353.253906 C 309.824219 354.089844 309.683594 354.367188 309.683594 354.367188 L 308.570312 363 C 308.015625 363.835938 307.039062 363.695312 307.039062 363.695312 L 301.46875 363.695312 Z M 301.46875 363.417969 " fill-opacity="1" fill-rule="nonzero"/><path fill="#194165" d="M 230.035156 327.359375 C 231.148438 327.5 230.035156 328.335938 230.035156 328.335938 L 229.339844 328.75 C 227.25 329.867188 225.996094 330.839844 225.71875 331.535156 L 225.71875 344.34375 C 225.859375 346.574219 225.996094 346.988281 226.695312 346.988281 C 227.53125 346.988281 229.480469 345.738281 229.480469 345.738281 L 246.328125 332.371094 C 246.328125 332.371094 248 331.257812 247.582031 330.5625 C 246.886719 328.890625 245.632812 328.75 245.632812 328.75 C 245.632812 328.75 244.378906 328.613281 244.378906 327.777344 C 244.378906 327.5 244.933594 327.5 244.933594 327.5 L 259.417969 327.5 C 261.089844 327.777344 259.554688 328.195312 259.554688 328.195312 C 256.773438 328.890625 255.378906 329.867188 255.378906 329.867188 C 250.644531 332.371094 248 334.878906 248 334.878906 L 241.734375 340.167969 C 241.035156 340.863281 242.011719 342.394531 242.011719 342.394531 L 254.402344 357.015625 C 257.1875 360.214844 258.441406 360.632812 259.140625 361.050781 C 259.140625 361.050781 260.949219 362.027344 261.644531 362.304688 C 262.339844 362.445312 263.039062 363.140625 262.621094 363.417969 C 261.785156 363.835938 261.089844 363.695312 261.089844 363.695312 L 244.101562 363.695312 C 242.984375 363.695312 242.429688 363.558594 242.707031 363 C 243.125 362.304688 244.519531 361.886719 245.214844 361.609375 C 245.769531 361.332031 247.023438 361.191406 246.605469 359.660156 C 246.1875 358.265625 245.214844 357.570312 245.214844 357.570312 L 237.832031 348.523438 C 235.464844 346.015625 235.746094 346.574219 235.746094 346.574219 C 234.910156 345.738281 234.769531 346.15625 233.65625 346.710938 L 226.554688 352.003906 C 225.71875 353.117188 225.996094 353.953125 225.996094 353.953125 L 225.996094 359.796875 C 226.277344 361.46875 228.226562 361.886719 228.644531 362.164062 C 230.175781 362.863281 230.730469 363.140625 230.730469 363.558594 C 230.59375 364.113281 229.898438 363.976562 229.898438 363.976562 L 214.023438 363.976562 C 212.492188 363.558594 214.160156 362.863281 214.160156 362.863281 C 217.085938 361.886719 216.945312 361.46875 216.945312 361.46875 C 217.78125 360.632812 218.0625 359.796875 218.0625 359.796875 L 218.0625 333.484375 C 217.78125 330.421875 215.972656 329.585938 215.972656 329.585938 C 214.441406 328.335938 214.859375 329.03125 214.300781 328.613281 C 213.464844 327.917969 213.1875 328.054688 213.1875 328.054688 C 213.046875 327.082031 214.160156 327.359375 214.160156 327.359375 C 230.035156 327.359375 230.035156 327.359375 230.035156 327.359375 Z M 230.035156 327.359375 " fill-opacity="1" fill-rule="nonzero"/><path fill="#194165" d="M 724.640625 327.21875 L 746.78125 327.21875 C 751.792969 327.359375 754.441406 328.890625 754.441406 328.890625 C 758.617188 331.535156 758.480469 334.738281 758.480469 334.738281 C 758.894531 338.359375 756.667969 340.308594 756.667969 340.308594 C 754.859375 342.535156 747.894531 344.066406 747.894531 344.066406 C 746.921875 344.902344 748.59375 345.875 748.59375 345.875 L 764.605469 361.191406 C 765.996094 362.027344 766.554688 362.027344 766.554688 362.027344 C 768.363281 363 767.25 363.277344 767.25 363.277344 L 758.617188 363.277344 C 757.363281 363.140625 756.945312 362.582031 756.945312 362.582031 C 756.390625 362.304688 736.617188 343.089844 736.617188 343.089844 C 736.339844 342.8125 737.035156 342.257812 737.035156 342.257812 C 741.351562 342.535156 744.554688 341.28125 744.554688 341.28125 C 748.730469 339.609375 749.566406 337.660156 749.566406 337.660156 C 750.125 336.269531 750.402344 334.878906 749.984375 333.765625 C 749.289062 331.398438 748.175781 330.699219 746.78125 330.28125 C 745.390625 329.726562 744.414062 329.867188 744.414062 329.867188 L 737.3125 329.867188 C 734.808594 330.144531 735.222656 332.371094 735.222656 332.371094 L 735.222656 356.597656 C 734.945312 360.496094 738.148438 361.609375 738.148438 361.609375 L 739.542969 362.445312 C 740.65625 363 739.820312 363.277344 739.820312 363.277344 L 722.691406 363.277344 C 721.160156 363.277344 721.160156 362.445312 723.527344 361.746094 C 723.527344 361.746094 727.148438 360.632812 727.148438 356.734375 L 727.148438 333.902344 C 727.148438 329.867188 722.691406 328.335938 722.691406 328.335938 C 721.71875 326.800781 723.527344 327.21875 723.527344 327.21875 Z M 724.640625 327.21875 " fill-opacity="1" fill-rule="nonzero"/><path fill="#194165" d="M 448.933594 327.21875 L 474.273438 327.21875 C 479.289062 327.359375 481.933594 328.890625 481.933594 328.890625 C 486.113281 331.535156 485.972656 334.738281 485.972656 334.738281 C 486.113281 336.410156 485.695312 340.308594 480.125 342.8125 C 474.554688 345.179688 460.90625 345.320312 460.90625 345.320312 C 460.628906 345.039062 461.742188 342.675781 461.742188 342.675781 C 466.476562 342.953125 472.046875 341.558594 472.046875 341.558594 C 476.226562 339.890625 477.058594 337.941406 477.058594 337.941406 C 477.617188 336.546875 477.894531 335.15625 477.476562 334.042969 C 476.78125 331.675781 475.667969 330.980469 474.273438 330.5625 C 472.882812 330.003906 471.90625 330.144531 471.90625 330.144531 L 461.605469 330.144531 C 459.097656 330.421875 459.515625 332.648438 459.515625 332.648438 L 459.515625 356.875 C 459.238281 360.773438 462.4375 361.886719 462.4375 361.886719 L 463.832031 362.722656 C 464.945312 363.277344 464.109375 363.558594 464.109375 363.558594 L 446.984375 363.558594 C 445.453125 363.558594 445.453125 362.722656 447.820312 362.027344 C 447.820312 362.027344 451.4375 360.914062 451.4375 357.015625 L 451.4375 333.902344 C 451.4375 329.867188 446.984375 328.335938 446.984375 328.335938 C 446.007812 326.800781 447.820312 327.21875 447.820312 327.21875 Z M 448.933594 327.21875 " fill-opacity="1" fill-rule="nonzero"/><path fill="#194165" d="M 705.007812 363.417969 L 672.5625 363.417969 C 671.03125 363 672.839844 362.445312 672.839844 362.445312 C 675.765625 361.050781 675.625 360.773438 675.625 360.773438 C 676.460938 359.9375 676.460938 359.101562 676.460938 359.101562 L 676.460938 333.347656 C 676.183594 330.28125 674.375 329.449219 674.375 329.449219 C 673.257812 328.890625 672.425781 328.472656 672.425781 328.472656 C 671.449219 327.777344 671.726562 327.21875 673.398438 327.21875 L 712.386719 327.21875 C 714.335938 327.082031 713.5 329.585938 713.5 329.585938 L 712.945312 333.765625 C 712.667969 335.433594 712.109375 334.597656 712.109375 334.597656 L 708.90625 331.816406 C 707.515625 331.117188 707.234375 330.28125 703.894531 330.421875 L 685.09375 330.421875 C 683.980469 330.421875 683.980469 331.257812 683.980469 331.257812 C 683.980469 330.144531 683.980469 332.789062 683.980469 332.789062 L 683.980469 341.003906 C 683.980469 342.535156 685.375 342.394531 685.375 342.394531 L 698.878906 342.394531 C 701.386719 342.117188 701.527344 341.421875 701.945312 340.863281 C 702.5 340.167969 702.917969 339.890625 702.917969 339.890625 C 703.476562 339.054688 703.476562 339.609375 703.617188 341.003906 L 703.617188 346.988281 C 703.617188 347.964844 703.335938 348.242188 703.335938 348.242188 L 700.132812 346.15625 L 698.882812 345.738281 L 685.511719 345.738281 C 684.121094 345.738281 684.261719 346.988281 684.261719 346.988281 L 684.261719 359.519531 C 684.261719 360.496094 684.957031 360.214844 684.957031 360.214844 L 700.414062 360.214844 C 704.03125 360.214844 706.539062 359.101562 708.765625 357.433594 C 710.578125 356.039062 710.714844 354.648438 711.414062 353.953125 C 711.96875 353.253906 712.804688 353.253906 712.804688 353.253906 C 713.222656 354.089844 713.082031 354.367188 713.082031 354.367188 L 711.96875 363 C 711.414062 363.835938 710.4375 363.695312 710.4375 363.695312 L 705.007812 363.695312 Z M 705.007812 363.417969 " fill-opacity="1" fill-rule="nonzero"/><path fill="#194165" d="M 512.984375 363.695312 C 524.683594 363.695312 537.074219 356.039062 537.074219 344.902344 C 537.074219 334.179688 524.125 326.664062 513.125 326.664062 C 501.984375 326.664062 488.894531 334.320312 488.894531 345.179688 C 489.035156 356.316406 501.429688 363.695312 512.984375 363.695312 Z M 512.984375 361.191406 C 504.632812 361.191406 497.667969 352.699219 497.667969 345.457031 C 497.667969 337.941406 504.632812 329.449219 513.265625 329.449219 C 521.203125 329.449219 528.441406 337.800781 528.441406 345.039062 C 528.441406 352.28125 521.621094 361.191406 512.984375 361.191406 Z M 512.984375 361.191406 " fill-opacity="1" fill-rule="evenodd"/><path fill="#194165" d="M 574.394531 344.484375 L 581.21875 328.75 C 581.636719 327.777344 582.191406 327.082031 583.585938 327.082031 L 592.496094 327.082031 C 594.722656 327.082031 594.445312 328.335938 592.355469 328.472656 C 590.128906 328.75 589.988281 329.867188 590.269531 331.398438 L 595.699219 358.128906 C 595.976562 359.9375 596.117188 361.191406 598.761719 361.609375 C 601.40625 362.027344 600.574219 363 598.761719 363 L 586.089844 363 C 584.417969 363 583.863281 362.582031 586.648438 361.46875 C 588.179688 360.914062 588.320312 359.796875 588.179688 358.546875 L 583.585938 332.789062 L 573.699219 354.648438 C 573.699219 354.648438 573 356.316406 572.164062 356.316406 C 571.332031 356.316406 569.382812 352.835938 569.382812 352.835938 L 556.847656 333.066406 L 552.253906 358.824219 C 551.976562 360.078125 552.253906 361.191406 553.785156 361.746094 C 556.570312 362.863281 556.011719 363.277344 554.34375 363.277344 L 541.671875 363.277344 C 539.859375 363.277344 539.164062 362.445312 541.671875 361.886719 C 544.175781 361.332031 544.316406 360.078125 544.734375 358.40625 L 550.164062 331.675781 C 550.445312 330.144531 550.304688 329.03125 548.078125 328.75 C 545.988281 328.472656 545.710938 327.359375 547.9375 327.359375 L 561.722656 327.359375 C 563.113281 327.359375 563.671875 328.054688 564.089844 329.03125 Z M 574.394531 344.484375 " fill-opacity="1" fill-rule="nonzero"/><path fill="#194165" d="M 792.175781 346.292969 L 792.175781 356.597656 C 791.898438 360.496094 795.101562 361.609375 795.101562 361.609375 L 796.492188 362.445312 C 797.605469 363 796.769531 363.277344 796.769531 363.277344 L 779.644531 363.277344 C 778.113281 363.277344 778.113281 362.445312 780.480469 361.746094 C 780.480469 361.746094 784.101562 360.632812 784.101562 356.734375 L 784.101562 346.433594 Z M 792.175781 346.292969 " fill-opacity="1" fill-rule="nonzero"/><path fill="#194165" d="M 808.746094 328.613281 C 808.746094 328.613281 808.191406 328.472656 805.683594 330.699219 L 803.59375 332.789062 L 802.203125 334.460938 L 788.277344 352.140625 C 787.859375 352.558594 787.71875 353.117188 787.300781 352.835938 L 787.023438 352.558594 C 787.300781 353.117188 769.480469 332.09375 769.480469 332.09375 C 767.53125 329.308594 765.023438 328.75 764.605469 328.472656 C 763.214844 327.636719 763.492188 327.359375 765.023438 327.359375 L 782.011719 327.359375 C 783.265625 327.359375 783.402344 328.054688 783.125 328.335938 C 782.566406 328.890625 780.199219 330.144531 780.199219 330.144531 C 778.949219 330.980469 779.085938 331.953125 779.644531 333.207031 L 788.277344 343.648438 C 789.667969 345.457031 791.480469 343.089844 791.480469 343.089844 L 799.417969 334.179688 C 800.390625 332.648438 799.835938 330.839844 799.835938 330.839844 C 799.277344 329.726562 795.9375 328.335938 796.214844 327.917969 C 796.355469 327.5 797.886719 327.5 797.886719 327.5 L 809.441406 327.5 C 809.441406 327.5 810 327.5 810.277344 327.917969 C 810.417969 328.335938 809.859375 328.335938 809.304688 328.75 Z M 808.746094 328.613281 " fill-opacity="1" fill-rule="nonzero"/><path fill="#194165" d="M 641.09375 344.484375 L 647.917969 328.75 C 648.335938 327.777344 648.890625 327.082031 650.285156 327.082031 L 659.195312 327.082031 C 661.421875 327.082031 661.144531 328.335938 659.054688 328.472656 C 656.828125 328.75 656.6875 329.867188 656.96875 331.398438 L 662.398438 358.128906 C 662.675781 359.9375 662.816406 361.191406 665.460938 361.609375 C 668.105469 362.027344 667.273438 363 665.460938 363 L 652.789062 363 C 651.117188 363 650.5625 362.582031 653.347656 361.46875 C 654.878906 360.914062 655.019531 359.796875 654.878906 358.546875 L 650.285156 332.929688 L 640.398438 354.648438 C 640.398438 354.648438 639.699219 356.316406 638.867188 356.316406 C 638.03125 356.316406 636.082031 352.835938 636.082031 352.835938 L 623.546875 333.066406 L 618.953125 358.824219 C 618.675781 360.078125 618.953125 361.191406 620.484375 361.746094 C 623.269531 362.863281 622.710938 363.277344 621.042969 363.277344 L 608.371094 363.277344 C 606.558594 363.277344 605.863281 362.445312 608.371094 361.886719 C 610.875 361.332031 611.015625 360.078125 611.433594 358.40625 L 616.863281 331.675781 C 617.144531 330.144531 617.003906 329.03125 614.777344 328.75 C 612.6875 328.472656 612.410156 327.359375 614.636719 327.359375 L 628.421875 327.359375 C 629.8125 327.359375 630.371094 328.054688 630.789062 329.03125 Z M 641.09375 344.484375 " fill-opacity="1" fill-rule="nonzero"/><path fill="#9e8857" d="M 378.054688 440.269531 L 374.015625 461.152344 L 375.96875 466.027344 L 380.839844 440.269531 Z M 378.054688 440.269531 " fill-opacity="1" fill-rule="nonzero"/><g clip-path="url(#095fb4f0c9)"><path fill="#9e8857" d="M 375.132812 394.046875 L 378.054688 394.046875 L 386.6875 365.367188 L 392.816406 361.191406 L 386.550781 394.046875 L 389.335938 394.046875 L 395.878906 359.101562 L 400.753906 355.898438 L 398.246094 394.046875 L 401.03125 394.046875 L 403.675781 354.089844 C 403.675781 353.953125 404.929688 353.117188 404.929688 353.117188 L 406.183594 353.953125 L 408.828125 394.046875 L 411.335938 394.046875 L 408.691406 355.621094 L 413.703125 358.964844 L 420.386719 394.1875 L 422.894531 394.1875 L 416.488281 360.914062 L 423.3125 365.367188 L 431.945312 394.1875 L 434.730469 394.1875 L 419.132812 343.230469 L 441.132812 327.359375 L 414.398438 327.359375 L 405.207031 299.234375 L 395.878906 327.359375 L 368.585938 327.359375 L 391.003906 342.953125 Z M 376.382812 329.726562 L 398.246094 329.726562 L 405.207031 306.199219 L 412.308594 329.726562 L 434.449219 329.726562 L 416.628906 342.117188 C 416.628906 342.117188 420.386719 354.367188 423.03125 361.886719 L 405.488281 350.332031 C 399.640625 353.953125 393.929688 357.710938 387.941406 361.886719 L 394.207031 342.117188 Z M 376.382812 329.726562 " fill-opacity="1" fill-rule="nonzero"/></g><path fill="#9e8857" d="M 429.714844 440.269531 L 434.589844 466.027344 L 436.261719 461.570312 L 432.082031 440.269531 Z M 429.714844 440.269531 " fill-opacity="1" fill-rule="nonzero"/><g clip-path="url(#ed7b99cd3b)"><path fill="#9e8857" d="M 412.171875 440.269531 L 416.765625 510.019531 L 419.273438 503.617188 L 414.957031 440.269531 Z M 412.171875 440.269531 " fill-opacity="1" fill-rule="nonzero"/></g><g clip-path="url(#8deb9922c6)"><path fill="#9e8857" d="M 395.460938 440.269531 L 391.144531 504.453125 L 393.652344 510.71875 L 398.246094 440.269531 Z M 395.460938 440.269531 " fill-opacity="1" fill-rule="nonzero"/></g><path fill="#194165" d="M 578.988281 440.964844 L 230.730469 440.964844 L 230.730469 393.351562 L 578.988281 393.351562 Z M 232.125 439.574219 L 577.597656 439.574219 L 577.597656 394.742188 L 232.125 394.742188 Z M 232.125 439.574219 " fill-opacity="1" fill-rule="nonzero"/><path fill="#194165" d="M 263.59375 425.375 C 262.339844 421.613281 259.695312 415.210938 255.796875 405.1875 L 252.039062 405.1875 L 252.039062 427.878906 L 254.40625 427.878906 C 254.40625 417.578125 254.40625 410.753906 254.265625 407.136719 L 254.40625 407.136719 C 255.796875 410.753906 258.441406 417.714844 262.480469 427.878906 L 264.847656 427.878906 C 269.023438 417.4375 271.671875 410.753906 272.925781 407.136719 L 273.0625 407.136719 C 272.925781 410.753906 272.925781 417.714844 272.925781 427.878906 L 275.292969 427.878906 L 275.292969 405.1875 L 271.53125 405.1875 C 267.632812 415.210938 264.988281 421.613281 263.59375 425.375 Z M 263.59375 425.375 " fill-opacity="1" fill-rule="evenodd"/><path fill="#194165" d="M 297.433594 416.601562 C 297.433594 424.816406 302.582031 428.4375 308.851562 428.4375 C 315.117188 428.4375 320.269531 424.816406 320.269531 416.601562 C 320.269531 408.386719 315.117188 404.769531 308.851562 404.769531 C 302.582031 404.769531 297.433594 408.386719 297.433594 416.601562 Z M 308.851562 406.4375 C 313.445312 406.4375 317.761719 409.363281 317.761719 416.601562 C 317.761719 423.703125 313.445312 426.765625 308.851562 426.765625 C 304.253906 426.765625 299.9375 423.839844 299.9375 416.601562 C 299.9375 409.363281 304.253906 406.4375 308.851562 406.4375 Z M 308.851562 406.4375 " fill-opacity="1" fill-rule="evenodd"/><path fill="#194165" d="M 358.980469 425.789062 C 357.03125 422.308594 352.851562 415.347656 346.726562 405.324219 L 343.105469 405.324219 L 343.105469 428.019531 L 345.472656 428.019531 C 345.472656 417.996094 345.472656 411.03125 345.332031 407.550781 L 345.472656 407.550781 C 347.421875 411.03125 351.597656 417.855469 357.726562 428.019531 L 361.347656 428.019531 L 361.347656 405.1875 L 358.980469 405.1875 C 358.980469 415.347656 358.980469 422.171875 358.980469 425.789062 Z M 358.980469 425.789062 " fill-opacity="1" fill-rule="evenodd"/><path fill="#194165" d="M 384.183594 416.601562 C 384.183594 424.816406 389.335938 428.4375 395.601562 428.4375 C 401.867188 428.4375 407.019531 424.816406 407.019531 416.601562 C 407.019531 408.386719 401.867188 404.769531 395.601562 404.769531 C 389.472656 404.769531 384.183594 408.386719 384.183594 416.601562 Z M 395.601562 406.4375 C 400.195312 406.4375 404.511719 409.363281 404.511719 416.601562 C 404.511719 423.703125 400.195312 426.765625 395.601562 426.765625 C 391.003906 426.765625 386.6875 423.839844 386.6875 416.601562 C 386.828125 409.363281 391.144531 406.4375 395.601562 406.4375 Z M 395.601562 406.4375 " fill-opacity="1" fill-rule="evenodd"/><path fill="#194165" d="M 431.527344 428.019531 L 431.527344 418.691406 L 434.589844 418.691406 C 440.300781 418.691406 443.222656 416.742188 443.222656 411.867188 C 443.222656 407.691406 440.996094 405.1875 435.007812 405.1875 L 429.019531 405.1875 L 429.019531 427.878906 L 431.527344 427.878906 Z M 431.527344 416.878906 L 431.527344 406.996094 L 435.007812 406.996094 C 439.046875 406.996094 440.71875 408.667969 440.71875 411.867188 C 440.71875 415.488281 438.90625 416.878906 434.589844 416.878906 Z M 431.527344 416.878906 " fill-opacity="1" fill-rule="evenodd"/><path fill="#194165" d="M 463.972656 416.601562 C 463.972656 424.816406 469.125 428.4375 475.390625 428.4375 C 481.65625 428.4375 486.808594 424.816406 486.808594 416.601562 C 486.808594 408.386719 481.65625 404.769531 475.390625 404.769531 C 469.125 404.769531 463.972656 408.386719 463.972656 416.601562 Z M 475.390625 406.4375 C 479.984375 406.4375 484.300781 409.363281 484.300781 416.601562 C 484.300781 423.703125 479.984375 426.765625 475.390625 426.765625 C 470.792969 426.765625 466.476562 423.839844 466.476562 416.601562 C 466.476562 409.363281 470.792969 406.4375 475.390625 406.4375 Z M 475.390625 406.4375 " fill-opacity="1" fill-rule="evenodd"/><path fill="#194165" d="M 521.480469 426.207031 L 511.453125 426.207031 L 511.453125 405.1875 L 508.949219 405.1875 L 508.949219 428.019531 L 521.480469 428.019531 Z M 521.480469 426.207031 " fill-opacity="1" fill-rule="evenodd"/><path fill="#194165" d="M 545.011719 415.210938 L 545.011719 406.996094 L 554.0625 406.996094 L 554.0625 405.1875 L 542.507812 405.1875 L 542.507812 428.019531 L 554.34375 428.019531 L 554.34375 426.207031 L 545.011719 426.207031 L 545.011719 417.019531 L 552.113281 417.019531 L 552.113281 415.210938 Z M 545.011719 415.210938 " fill-opacity="1" fill-rule="evenodd"/></svg>