<svg xmlns="http://www.w3.org/2000/svg" xmlns:xlink="http://www.w3.org/1999/xlink" width="1080" zoomAndPan="magnify" viewBox="0 0 810 809.999993" height="1080" preserveAspectRatio="xMidYMid meet" version="1.0"><defs><clipPath id="4b1ef20eab"><path d="M 0 223.449219 L 810 223.449219 L 810 586.449219 L 0 586.449219 Z M 0 223.449219 " clip-rule="nonzero"/></clipPath></defs><rect x="-81" width="972" fill="#ffffff" y="-80.999999" height="971.999992" fill-opacity="1"/><rect x="-81" width="972" fill="#ffffff" y="-80.999999" height="971.999992" fill-opacity="1"/><g clip-path="url(#4b1ef20eab)"><path fill="#00ccc0" d="M 174.109375 223.449219 C 229.96875 223.449219 275.589844 269.523438 275.589844 325.367188 C 275.589844 357.480469 260.695312 386.332031 237.417969 404.949219 C 260.695312 423.5625 275.589844 452.417969 275.589844 484.527344 C 275.589844 540.839844 229.96875 586.449219 174.109375 586.449219 L 0.0117188 586.449219 L 0.0117188 245.785156 C 0.0117188 233.6875 9.785156 223.914062 21.890625 223.914062 L 174.109375 223.914062 Z M 174.109375 426.820312 C 157.816406 426.820312 144.316406 440.316406 144.316406 456.605469 L 144.316406 511.988281 C 144.316406 522.691406 141.988281 532.464844 137.800781 541.773438 L 174.109375 541.773438 C 205.765625 541.773438 231.367188 516.175781 231.367188 484.0625 C 231.367188 452.882812 206.695312 427.285156 175.972656 426.355469 C 175.507812 427.285156 174.574219 427.285156 174.109375 426.820312 Z M 174.109375 267.660156 L 44.234375 267.660156 L 44.234375 542.238281 L 69.835938 542.238281 C 86.128906 542.238281 99.628906 528.742188 99.628906 512.453125 L 99.628906 456.605469 C 99.628906 416.117188 132.679688 382.609375 173.179688 382.609375 L 175.039062 382.609375 C 205.765625 381.679688 230.4375 356.082031 230.4375 324.902344 C 231.367188 293.722656 205.765625 267.660156 174.109375 267.660156 Z M 663.820312 471.5 C 671.269531 471.5 677.785156 473.359375 683.371094 477.082031 C 684.769531 478.015625 686.164062 479.875 686.164062 482.667969 C 686.164062 486.390625 683.371094 488.71875 679.648438 488.71875 C 678.25 488.71875 677.320312 488.253906 676.390625 487.785156 C 671.734375 484.996094 667.542969 483.597656 663.355469 483.597656 C 658.234375 483.597656 655.441406 485.925781 655.441406 489.183594 C 655.441406 493.371094 658.234375 494.769531 668.476562 497.09375 C 681.042969 500.351562 688.027344 505.007812 688.027344 515.710938 C 688.027344 527.808594 678.71875 534.789062 665.683594 534.789062 C 657.769531 534.789062 649.390625 532.464844 642.40625 527.34375 C 641.011719 526.414062 640.078125 524.550781 640.078125 522.226562 C 640.078125 518.503906 642.871094 516.175781 646.597656 516.175781 C 648.460938 516.175781 649.390625 516.640625 650.320312 517.570312 C 654.976562 520.828125 660.097656 523.15625 666.148438 523.15625 C 671.734375 523.15625 674.992188 520.828125 674.992188 517.570312 C 674.992188 514.3125 672.664062 512.453125 662.425781 509.660156 C 649.855469 506.402344 641.941406 503.144531 641.941406 491.042969 C 641.941406 478.945312 651.253906 471.5 663.820312 471.5 Z M 619.597656 471.964844 C 623.320312 471.964844 626.582031 474.757812 626.582031 478.945312 L 626.582031 528.273438 C 626.582031 532 623.789062 535.257812 619.597656 535.257812 C 615.410156 535.257812 612.613281 532.464844 612.613281 528.273438 L 612.613281 478.480469 C 612.613281 474.757812 615.875 471.964844 619.597656 471.964844 Z M 574.445312 472.429688 C 582.355469 472.429688 588.410156 474.757812 592.132812 478.480469 C 595.390625 481.738281 597.253906 486.855469 597.253906 492.441406 C 597.253906 502.214844 592.597656 508.265625 585.148438 511.054688 L 594.460938 522.691406 C 595.855469 524.550781 596.789062 525.949219 596.789062 527.808594 C 596.789062 531.53125 593.53125 533.859375 590.269531 533.859375 C 587.011719 533.859375 585.152344 532.464844 583.753906 530.136719 L 570.71875 513.382812 L 560.011719 513.382812 L 560.011719 526.878906 C 560.011719 530.601562 557.21875 533.859375 553.03125 533.859375 C 549.304688 533.859375 546.046875 531.066406 546.046875 526.878906 L 546.046875 478.945312 C 546.046875 475.222656 548.839844 471.964844 553.03125 471.964844 L 574.445312 471.964844 Z M 503.6875 471.5 C 507.410156 471.5 510.203125 473.359375 511.601562 477.082031 L 533.015625 525.949219 C 533.480469 526.878906 533.480469 527.808594 533.480469 528.742188 C 533.480469 532.464844 530.6875 535.257812 526.960938 535.257812 C 523.703125 535.257812 521.839844 533.394531 520.445312 530.601562 L 516.253906 520.828125 L 489.257812 520.828125 L 485.066406 531.066406 C 484.136719 533.859375 481.808594 535.257812 479.015625 535.257812 C 475.292969 535.257812 472.964844 532.464844 472.964844 528.742188 C 472.964844 527.808594 473.429688 526.878906 473.894531 525.949219 L 495.308594 477.082031 C 496.703125 473.824219 499.496094 471.5 503.222656 471.5 Z M 445.5 472.429688 C 460.394531 472.429688 469.238281 481.273438 469.238281 493.835938 C 469.238281 508.265625 458.066406 515.246094 444.566406 515.246094 L 434.328125 515.246094 L 434.328125 527.34375 C 434.328125 531.066406 431.535156 534.324219 427.34375 534.324219 C 423.621094 534.324219 420.363281 531.53125 420.363281 527.34375 L 420.363281 478.945312 C 420.363281 475.222656 423.15625 471.964844 427.34375 471.964844 Z M 375.207031 489.648438 C 382.191406 489.648438 388.242188 495.234375 388.242188 502.679688 C 388.242188 509.660156 382.191406 515.710938 375.207031 515.710938 C 368.226562 515.710938 362.171875 510.125 362.171875 502.679688 C 362.171875 495.699219 368.226562 489.648438 375.207031 489.648438 Z M 503.222656 487.785156 L 494.84375 508.265625 L 512.066406 508.265625 C 511.601562 507.796875 503.222656 487.785156 503.222656 487.785156 Z M 444.566406 484.527344 L 434.328125 484.527344 L 434.328125 503.144531 L 445.035156 503.144531 C 452.015625 503.144531 455.738281 498.957031 455.738281 493.835938 C 455.738281 487.785156 451.085938 484.527344 444.566406 484.527344 Z M 573.511719 484.527344 L 560.011719 484.527344 L 560.011719 502.214844 L 573.511719 502.214844 C 580.03125 502.214844 583.753906 498.492188 583.753906 493.371094 C 584.21875 487.320312 580.03125 484.527344 573.511719 484.527344 Z M 803.007812 365.855469 C 806.730469 365.855469 809.988281 368.648438 809.988281 372.835938 L 809.988281 401.226562 C 809.988281 419.839844 799.75 429.148438 782.988281 429.148438 C 766.695312 429.148438 756.457031 419.839844 756.457031 401.691406 L 756.457031 372.835938 C 756.457031 369.113281 759.25 365.855469 763.4375 365.855469 C 767.164062 365.855469 770.421875 368.648438 770.421875 372.835938 L 770.421875 401.226562 C 770.421875 411 775.542969 416.582031 783.921875 416.582031 C 792.300781 416.582031 796.953125 411.464844 796.953125 401.691406 L 796.953125 372.835938 C 796.488281 369.113281 799.28125 365.855469 803.007812 365.855469 Z M 453.414062 365.390625 C 457.136719 365.390625 459.929688 367.253906 461.324219 370.976562 L 482.738281 419.839844 C 483.203125 420.773438 483.671875 421.703125 483.671875 422.632812 C 483.671875 426.355469 480.878906 429.148438 477.152344 429.148438 C 473.894531 429.148438 472.03125 427.285156 470.636719 424.496094 L 466.445312 414.722656 L 439.449219 414.722656 L 435.257812 424.960938 C 434.328125 427.753906 432 429.148438 429.207031 429.148438 C 425.480469 429.148438 423.15625 426.355469 423.15625 422.632812 C 423.15625 421.703125 423.621094 420.773438 424.085938 419.839844 L 445.5 370.976562 C 446.894531 367.71875 449.6875 365.390625 453.414062 365.390625 Z M 524.632812 366.320312 C 532.546875 366.320312 538.601562 368.648438 542.324219 372.371094 C 545.582031 375.628906 547.445312 380.75 547.445312 386.332031 C 547.445312 396.105469 542.789062 402.15625 535.339844 404.949219 L 544.652344 416.582031 C 546.046875 418.445312 546.980469 419.839844 546.980469 421.703125 C 546.980469 425.425781 543.71875 427.753906 540.460938 427.753906 C 537.203125 427.753906 535.339844 426.355469 533.945312 424.027344 L 520.910156 407.273438 L 510.203125 407.273438 L 510.203125 421.703125 C 510.203125 425.425781 507.410156 428.683594 503.222656 428.683594 C 499.496094 428.683594 496.238281 425.890625 496.238281 421.703125 L 496.238281 373.300781 C 496.238281 369.578125 499.03125 366.320312 503.222656 366.320312 Z M 590.269531 366.320312 C 598.183594 366.320312 604.234375 368.648438 608.425781 372.371094 C 611.683594 375.628906 613.546875 380.75 613.546875 386.332031 C 613.546875 396.105469 608.890625 402.15625 601.441406 404.949219 L 610.753906 416.582031 C 612.148438 418.445312 613.082031 419.839844 613.082031 421.703125 C 613.082031 425.425781 609.820312 427.753906 606.5625 427.753906 C 603.304688 427.753906 601.441406 426.355469 600.046875 424.027344 L 587.011719 407.273438 L 575.375 407.273438 L 575.375 421.703125 C 575.375 425.425781 572.582031 428.683594 568.390625 428.683594 C 564.667969 428.683594 561.410156 425.890625 561.410156 421.703125 L 561.410156 373.300781 C 561.410156 369.578125 564.203125 366.320312 568.390625 366.320312 Z M 715.957031 365.390625 C 719.679688 365.390625 722.472656 367.253906 723.871094 370.976562 L 745.285156 419.839844 C 745.75 420.773438 745.75 421.703125 745.75 422.632812 C 745.75 426.355469 742.957031 429.148438 739.234375 429.148438 C 735.972656 429.148438 734.113281 427.285156 732.714844 424.496094 L 728.527344 414.722656 L 701.527344 414.722656 L 697.335938 424.960938 C 696.40625 427.753906 694.078125 429.148438 691.285156 429.148438 C 687.5625 429.148438 685.234375 426.355469 685.234375 422.632812 C 685.234375 421.703125 685.699219 420.773438 686.164062 419.839844 L 707.578125 370.976562 C 708.976562 367.71875 711.769531 365.390625 715.492188 365.390625 Z M 389.171875 366.320312 C 396.15625 366.320312 401.742188 368.183594 405.464844 371.90625 C 408.257812 374.699219 409.65625 377.957031 409.65625 382.144531 C 409.65625 389.125 405.929688 392.847656 401.742188 395.175781 C 408.722656 397.96875 413.378906 402.15625 413.378906 410.066406 C 413.378906 421.238281 404.070312 426.820312 390.570312 426.820312 L 368.226562 426.820312 C 364.5 426.820312 361.242188 424.027344 361.242188 419.839844 L 361.242188 373.300781 C 361.242188 369.578125 364.035156 366.320312 368.226562 366.320312 Z M 668.476562 366.320312 C 671.734375 366.320312 674.527344 369.113281 674.527344 372.371094 C 674.527344 375.628906 671.734375 378.421875 668.476562 378.421875 L 641.011719 378.421875 L 641.011719 390.988281 L 664.285156 390.988281 C 667.542969 390.988281 670.335938 393.777344 670.335938 397.035156 C 670.335938 400.292969 667.542969 403.085938 664.285156 403.085938 L 641.011719 403.085938 L 641.011719 416.117188 L 668.941406 416.117188 C 672.199219 416.117188 674.992188 418.910156 674.992188 422.167969 C 674.992188 425.425781 672.199219 428.21875 668.941406 428.21875 L 634.492188 428.21875 C 630.769531 428.21875 627.511719 425.425781 627.511719 421.238281 L 627.511719 373.300781 C 627.511719 369.578125 630.304688 366.320312 634.492188 366.320312 Z M 389.636719 402.621094 L 373.8125 402.621094 L 373.8125 416.117188 L 390.105469 416.117188 C 396.15625 416.117188 399.878906 413.789062 399.878906 409.601562 C 399.414062 404.949219 396.621094 402.621094 389.636719 402.621094 Z M 715.492188 382.144531 L 707.113281 402.621094 L 724.335938 402.621094 Z M 452.945312 382.144531 L 444.566406 402.621094 L 461.792969 402.621094 Z M 523.238281 378.886719 L 509.738281 378.886719 L 509.738281 396.570312 L 523.238281 396.570312 C 529.753906 396.570312 533.480469 392.847656 533.480469 387.730469 C 533.945312 381.679688 529.753906 378.886719 523.238281 378.886719 Z M 588.875 378.886719 L 575.375 378.886719 L 575.375 396.570312 L 588.875 396.570312 C 595.390625 396.570312 599.117188 392.847656 599.117188 387.730469 C 599.582031 381.679688 595.390625 378.886719 588.875 378.886719 Z M 387.3125 378.421875 L 373.8125 378.421875 L 373.8125 391.453125 L 386.378906 391.453125 C 392.429688 391.453125 396.15625 389.589844 396.15625 384.9375 C 396.15625 380.75 392.898438 378.421875 387.3125 378.421875 Z M 518.582031 259.28125 C 537.203125 259.28125 549.304688 274.175781 549.304688 290.929688 C 549.304688 307.683594 536.738281 322.574219 518.117188 322.574219 C 499.496094 322.574219 487.394531 307.683594 487.394531 290.929688 C 487.859375 274.640625 499.964844 259.28125 518.582031 259.28125 Z M 595.390625 259.28125 C 605.632812 259.28125 612.148438 263.007812 617.734375 267.660156 C 618.203125 268.125 618.667969 268.589844 618.667969 269.523438 C 618.667969 270.917969 617.734375 271.847656 616.339844 271.847656 C 615.875 271.847656 614.941406 271.382812 614.941406 271.382812 C 609.820312 266.730469 603.769531 263.472656 595.390625 263.472656 C 580.496094 263.472656 569.324219 275.570312 569.324219 290.929688 C 569.324219 306.285156 580.496094 318.386719 595.390625 318.386719 C 603.769531 318.386719 609.820312 315.59375 615.40625 310.011719 C 615.875 309.542969 616.339844 309.078125 616.804688 309.078125 C 617.734375 309.078125 619.132812 310.011719 619.132812 311.40625 C 619.132812 312.335938 618.667969 312.800781 618.203125 312.800781 C 612.148438 318.386719 605.167969 322.574219 594.925781 322.574219 C 577.238281 322.574219 564.203125 308.613281 564.203125 290.929688 C 564.667969 274.175781 577.703125 259.28125 595.390625 259.28125 Z M 774.609375 259.28125 C 782.988281 259.28125 788.574219 261.609375 794.160156 265.796875 C 794.628906 266.265625 795.09375 266.730469 795.09375 267.660156 C 795.09375 269.054688 794.160156 269.988281 792.765625 269.988281 C 792.300781 269.988281 791.835938 269.988281 791.367188 269.523438 C 785.78125 265.332031 780.664062 263.9375 774.609375 263.9375 C 765.765625 263.9375 759.714844 269.054688 759.714844 275.570312 C 759.714844 282.085938 762.972656 285.808594 777.402344 289.066406 C 791.835938 291.859375 797.421875 296.980469 797.421875 305.820312 C 797.421875 315.59375 789.042969 322.574219 776.9375 322.574219 C 767.628906 322.574219 760.644531 319.78125 753.664062 314.199219 C 753.199219 313.734375 752.730469 313.269531 752.730469 312.335938 C 752.730469 310.941406 753.664062 310.011719 755.058594 310.011719 C 755.523438 310.011719 755.992188 310.476562 756.457031 310.476562 C 762.507812 316.058594 768.558594 318.386719 777.402344 318.386719 C 786.714844 318.386719 792.765625 313.269531 792.765625 306.285156 C 792.765625 299.773438 789.507812 296.046875 775.542969 293.257812 C 760.644531 290.464844 754.59375 285.34375 754.59375 276.035156 C 754.59375 266.265625 762.972656 259.28125 774.609375 259.28125 Z M 475.757812 259.75 C 477.152344 259.75 478.085938 260.679688 478.085938 262.074219 C 478.085938 262.539062 478.085938 262.539062 478.085938 263.007812 L 452.945312 320.714844 C 452.480469 322.109375 451.550781 322.574219 450.152344 322.574219 C 448.757812 322.574219 447.828125 321.644531 447.359375 320.714844 L 421.757812 263.007812 C 421.757812 262.539062 421.757812 262.539062 421.757812 262.074219 C 421.757812 261.144531 422.6875 259.75 424.085938 259.75 C 425.015625 259.75 425.949219 260.679688 426.414062 261.609375 L 449.6875 316.992188 L 473.429688 261.609375 C 473.894531 260.679688 474.359375 259.75 475.757812 259.75 Z M 388.242188 259.75 C 389.636719 259.75 390.570312 260.679688 391.5 262.074219 L 417.570312 319.316406 C 418.035156 319.78125 418.035156 320.25 418.035156 320.714844 C 418.035156 321.644531 417.101562 323.039062 415.707031 323.039062 C 414.777344 323.039062 413.84375 322.109375 413.378906 321.179688 L 406.394531 305.355469 L 370.085938 305.355469 L 363.105469 321.179688 C 362.640625 322.109375 362.171875 323.039062 360.777344 323.039062 C 359.847656 323.039062 358.449219 322.109375 358.449219 321.179688 C 358.449219 320.714844 358.449219 320.25 358.914062 319.78125 L 384.984375 262.539062 C 385.449219 260.679688 386.378906 259.75 388.242188 259.75 Z M 660.097656 259.75 C 661.492188 259.75 662.425781 260.679688 663.355469 262.074219 L 689.421875 319.316406 C 689.890625 319.78125 689.890625 320.25 689.890625 320.714844 C 689.890625 321.644531 688.957031 323.039062 687.5625 323.039062 C 686.628906 323.039062 685.699219 322.109375 685.234375 321.179688 L 677.785156 304.890625 L 641.476562 304.890625 L 634.492188 320.714844 C 634.027344 321.644531 633.5625 322.574219 632.167969 322.574219 C 631.234375 322.574219 629.839844 321.644531 629.839844 320.714844 C 629.839844 320.25 629.839844 319.78125 630.304688 319.316406 L 656.371094 262.074219 C 657.304688 260.679688 658.234375 259.75 660.097656 259.75 Z M 739.699219 260.214844 C 740.628906 260.214844 742.027344 261.144531 742.027344 262.539062 C 742.027344 263.472656 741.09375 264.867188 739.699219 264.867188 L 720.148438 264.867188 L 720.148438 320.714844 C 720.148438 322.109375 719.214844 323.039062 717.820312 323.039062 C 716.421875 323.039062 715.492188 322.109375 715.492188 320.714844 L 715.492188 264.402344 L 695.941406 264.402344 C 695.007812 264.402344 693.613281 263.472656 693.613281 262.074219 C 693.613281 261.144531 694.542969 259.75 695.941406 259.75 L 739.699219 259.75 Z M 518.582031 263.472656 C 503.222656 263.472656 492.515625 275.570312 492.515625 290.929688 C 492.515625 306.285156 503.6875 318.386719 518.582031 318.386719 C 533.945312 318.386719 544.652344 306.285156 544.652344 290.929688 C 544.652344 276.503906 533.480469 263.472656 518.582031 263.472656 Z M 659.632812 264.867188 L 643.339844 300.238281 L 675.921875 300.238281 Z M 388.242188 264.867188 L 371.949219 300.238281 L 404.535156 300.238281 Z M 388.242188 264.867188 " fill-opacity="1" fill-rule="evenodd"/></g></svg>