<svg xmlns="http://www.w3.org/2000/svg" xmlns:xlink="http://www.w3.org/1999/xlink" width="1080" zoomAndPan="magnify" viewBox="0 0 810 809.999993" height="1080" preserveAspectRatio="xMidYMid meet" version="1.0"><rect x="-81" width="972" fill="#ffffff" y="-80.999999" height="971.999992" fill-opacity="1"/><rect x="-81" width="972" fill="#ffffff" y="-80.999999" height="971.999992" fill-opacity="1"/><path fill="#009dcc" d="M 472.332031 371.910156 C 472.703125 372.003906 473.09375 372.054688 473.496094 372.054688 C 476.097656 372.054688 478.214844 369.941406 478.214844 367.328125 C 478.214844 367.269531 478.210938 367.210938 478.210938 367.152344 C 478.210938 365.632812 477.25 363.390625 475.398438 362.242188 C 470.828125 359.082031 463.859375 357.898438 457.789062 357.898438 C 451.714844 357.898438 445.289062 359.429688 441.296875 362.453125 C 437.257812 365.515625 435.210938 369.835938 435.210938 375.289062 C 435.210938 385.285156 442.613281 392.546875 457.210938 395.558594 C 463.660156 396.90625 470.6875 400.222656 470.6875 405.957031 C 470.6875 408.851562 469.308594 412 466.960938 413.695312 C 463.199219 416.425781 457.765625 416.972656 455.09375 416.992188 C 451.566406 417.019531 446.035156 416.253906 441.375 413.644531 C 441.171875 413.503906 440.957031 413.386719 440.730469 413.265625 C 440.011719 412.871094 439.1875 412.644531 438.304688 412.644531 C 435.515625 412.644531 433.25 414.914062 433.25 417.714844 C 433.25 418.902344 433.660156 420 434.347656 420.863281 C 434.765625 421.429688 435.285156 421.9375 435.910156 422.328125 C 442.210938 426.683594 451.1875 427.339844 455.265625 427.339844 C 459.121094 427.339844 462.859375 426.542969 466.988281 425.269531 C 469.953125 424.347656 472.523438 423.007812 474.636719 421.277344 C 476.742188 419.546875 478.421875 417.425781 479.617188 414.976562 C 480.8125 412.527344 481.664062 408.882812 481.664062 405.957031 C 481.664062 392.550781 469.746094 387.25 459.339844 385.226562 C 450.503906 383.394531 446.027344 379.605469 446.027344 375.289062 C 446.027344 374.039062 446.335938 372.949219 446.949219 372.042969 C 447.585938 371.121094 448.394531 370.382812 449.367188 369.84375 C 450.367188 369.296875 451.539062 368.890625 452.84375 368.636719 C 454.179688 368.382812 455.667969 368.242188 457.789062 368.25 C 460.78125 368.261719 467.152344 369.613281 469.898438 370.972656 C 470.671875 371.351562 471.492188 371.703125 472.332031 371.910156 Z M 423.28125 366.644531 C 415.734375 357.808594 403.605469 357.886719 401.125 357.902344 C 398.828125 357.914062 386.832031 357.972656 379.570312 366.644531 C 376.28125 370.574219 374.976562 374.878906 374.074219 378.675781 C 372.941406 383.453125 372.792969 387.859375 372.792969 392.582031 C 372.792969 401.46875 373.554688 411.691406 379.570312 418.597656 C 385.597656 425.523438 394.304688 427.339844 401.425781 427.339844 C 409.296875 427.339844 417.863281 426.6875 424.164062 422.347656 C 425.390625 421.589844 426.234375 420.351562 426.652344 419.167969 C 426.859375 418.625 426.96875 418.042969 426.96875 417.429688 C 426.96875 414.726562 424.78125 412.542969 422.078125 412.542969 C 421.449219 412.542969 420.855469 412.679688 420.296875 412.878906 C 419.976562 412.988281 419.578125 413.230469 418.695312 413.699219 C 414.039062 416.296875 409.597656 417.503906 401.425781 417.316406 C 395.9375 417.316406 390.757812 415.8125 387.351562 411.558594 C 384.167969 407.582031 383.6875 401.265625 383.617188 394.273438 L 424.632812 394.273438 C 427.707031 394.273438 430.195312 391.789062 430.195312 388.722656 C 430.195312 373.777344 423.28125 366.644531 423.28125 366.644531 Z M 383.886719 384.738281 C 383.863281 383.617188 383.722656 375.808594 390.125 371.03125 C 394.035156 368.113281 398.308594 367.917969 400.914062 367.917969 C 403.523438 367.917969 408.453125 367.816406 412.785156 371.101562 C 419.1875 375.953125 419.25 383.652344 419.230469 384.738281 Z M 364.414062 364.707031 C 364.414062 361.8125 362.066406 359.464844 359.167969 359.464844 C 356.269531 359.464844 353.921875 361.8125 353.921875 364.707031 L 353.910156 413.953125 C 353.910156 414.847656 353.257812 415.664062 352.582031 415.941406 C 351.90625 416.214844 348.996094 417.351562 339.089844 417.351562 C 334.121094 417.351562 328.855469 415.367188 325.628906 411.113281 C 322.378906 406.824219 321.988281 399.347656 321.988281 391.695312 L 321.988281 364.707031 C 321.988281 361.8125 319.636719 359.464844 316.742188 359.464844 C 313.84375 359.464844 311.492188 361.8125 311.492188 364.707031 L 311.488281 391.675781 C 311.488281 401.101562 312.085938 411.222656 318.214844 418.632812 C 323.574219 425.105469 332.539062 427.375 339.089844 427.375 C 343.246094 427.375 352.339844 427.664062 360.535156 424.617188 C 362.792969 423.863281 364.402344 420.941406 364.402344 418.433594 Z M 303.34375 367.449219 C 303.34375 365.15625 301.988281 363.183594 300.035156 362.285156 C 291.171875 358.480469 281.113281 357.921875 276.566406 357.921875 C 269.640625 357.921875 260.734375 359.71875 254.710938 366.644531 C 248.691406 373.550781 247.828125 384.109375 247.828125 393.535156 C 247.828125 402.960938 248.691406 411.648438 254.710938 418.554688 C 260.734375 425.480469 269.421875 427.351562 276.566406 427.351562 C 283.140625 427.351562 290.394531 424.40625 292.6875 421.917969 L 292.6875 430.921875 C 292.6875 435.753906 291.53125 439.570312 289.207031 442.25 C 286.90625 444.90625 283.636719 446.25 279.496094 446.25 C 276.765625 446.25 273.933594 445.890625 271.089844 445.195312 C 268.257812 444.496094 263.457031 442.210938 261.757812 441.394531 C 260.054688 440.578125 256.90625 441.207031 255.476562 443.503906 C 254.046875 445.804688 254.996094 449.238281 257.246094 450.472656 C 259.5 451.710938 262.359375 453.398438 268.355469 454.941406 C 272.183594 455.929688 275.929688 456.390625 279.496094 456.390625 C 283.410156 456.390625 286.902344 455.761719 289.882812 454.445312 C 292.863281 453.136719 295.375 451.324219 297.347656 449.0625 C 299.316406 446.8125 300.828125 444.074219 301.835938 440.933594 C 302.835938 437.820312 303.34375 434.445312 303.34375 430.917969 Z M 292.550781 405.589844 C 292.550781 409.367188 290.957031 411.910156 289.171875 413.585938 C 286.964844 415.652344 282.058594 417.347656 276.566406 417.347656 C 271.074219 417.347656 265.898438 415.769531 262.488281 411.511719 C 259.050781 407.222656 258.640625 401.1875 258.640625 393.535156 C 258.640625 385.882812 259.050781 377.972656 262.488281 373.683594 C 265.898438 369.425781 271.1875 367.902344 276.566406 367.902344 C 280.734375 367.902344 286.414062 368.808594 291.148438 370.472656 C 291.964844 370.757812 292.550781 371.53125 292.550781 372.445312 Z M 219.609375 409.339844 C 219.316406 409.960938 218.691406 410.355469 218.015625 410.351562 C 217.191406 410.347656 216.597656 409.488281 216.375 409.171875 C 214.707031 406.785156 201.667969 370.6875 198.839844 362.84375 C 197.851562 360.1875 194.855469 358.8125 192.199219 359.792969 C 189.546875 360.769531 188.164062 363.75 189.132812 366.40625 L 206.082031 411.296875 C 208.070312 416.609375 210.9375 419.617188 215.140625 421.125 L 204.835938 448.378906 C 203.816406 451.0625 205.167969 454.066406 207.859375 455.085938 C 210.546875 456.105469 213.554688 454.753906 214.578125 452.070312 L 247.039062 366.441406 C 248.023438 363.792969 246.671875 360.8125 244.046875 359.808594 C 241.402344 358.796875 238.375 360.144531 237.359375 362.808594 Z M 182.382812 364.707031 C 182.382812 361.8125 180.03125 359.464844 177.132812 359.464844 C 174.234375 359.464844 171.886719 361.8125 171.886719 364.707031 L 171.878906 413.953125 C 171.878906 414.847656 171.222656 415.664062 170.546875 415.941406 C 169.871094 416.214844 166.964844 417.351562 157.054688 417.351562 C 152.085938 417.351562 146.820312 415.367188 143.597656 411.113281 C 140.347656 406.824219 139.957031 399.347656 139.957031 391.695312 L 139.953125 364.707031 C 139.953125 361.8125 137.605469 359.464844 134.707031 359.464844 C 131.808594 359.464844 129.460938 361.8125 129.460938 364.707031 L 129.457031 391.675781 C 129.457031 401.101562 130.050781 411.222656 136.183594 418.632812 C 141.539062 425.105469 150.507812 427.375 157.058594 427.375 C 161.214844 427.375 170.308594 427.664062 178.503906 424.617188 C 180.757812 423.863281 182.367188 420.941406 182.367188 418.433594 Z M 116.039062 366.765625 C 110.007812 359.742188 101.304688 357.910156 94.179688 357.902344 C 87.058594 357.894531 78.351562 359.742188 72.324219 366.765625 C 66.308594 373.761719 65.441406 382.992188 65.441406 391.996094 C 65.441406 401.003906 66.308594 411.480469 72.324219 418.480469 C 78.351562 425.5 87.058594 427.351562 94.179688 427.34375 C 101.304688 427.335938 110.007812 425.5 116.039062 418.480469 C 122.054688 411.480469 122.921875 401.550781 122.921875 391.996094 C 122.921875 382.445312 122.054688 373.761719 116.039062 366.765625 Z M 108.257812 411.34375 C 104.851562 415.65625 99.671875 417.339844 94.179688 417.339844 C 88.691406 417.339844 83.511719 415.65625 80.105469 411.34375 C 76.667969 406.996094 76.257812 399.757812 76.257812 391.996094 C 76.257812 384.230469 76.667969 378.246094 80.105469 373.898438 C 83.511719 369.582031 88.691406 367.914062 94.179688 367.914062 C 99.671875 367.914062 104.851562 369.585938 108.257812 373.898438 C 111.695312 378.246094 112.105469 384.242188 112.105469 391.996094 C 112.105469 399.753906 111.695312 406.996094 108.257812 411.34375 Z M 51.277344 366.644531 C 45.246094 359.71875 36.5625 357.902344 29.421875 357.902344 C 22.847656 357.902344 15.59375 360.785156 13.296875 363.277344 L 13.296875 331.859375 C 13.296875 328.921875 10.914062 326.542969 7.976562 326.542969 C 5.035156 326.542969 2.65625 328.921875 2.65625 331.859375 L 2.640625 417.640625 C 2.640625 420.171875 4.222656 422.332031 6.453125 423.195312 C 15.191406 426.8125 24.957031 427.335938 29.421875 427.335938 C 36.347656 427.335938 45.246094 425.5625 51.277344 418.636719 C 57.296875 411.730469 58.160156 402.058594 58.160156 392.632812 C 58.160156 383.210938 57.296875 373.550781 51.277344 366.644531 Z M 43.496094 411.597656 C 40.089844 415.855469 34.796875 417.359375 29.417969 417.359375 C 25.222656 417.359375 19.492188 416.46875 14.738281 414.78125 L 14.742188 414.78125 C 13.984375 414.535156 13.4375 413.824219 13.4375 412.984375 L 13.4375 379.605469 C 13.4375 375.832031 15.027344 373.285156 16.8125 371.613281 C 19.019531 369.542969 23.925781 367.925781 29.417969 367.925781 C 34.910156 367.925781 40.089844 369.429688 43.496094 373.683594 C 46.933594 377.972656 47.34375 384.984375 47.34375 392.636719 C 47.34375 400.289062 46.933594 407.308594 43.496094 411.597656 Z M 43.496094 411.597656 " fill-opacity="1" fill-rule="nonzero"/><path fill="#ea5b0f" d="M 684.261719 524.777344 C 705.5625 539.464844 747.707031 515.464844 778.386719 471.085938 C 809.074219 426.710938 816.679688 378.882812 795.378906 364.195312 C 774.074219 349.503906 732.992188 372.28125 702.308594 416.65625 C 671.625 461.03125 662.964844 510.085938 684.261719 524.777344 Z M 684.261719 524.777344 " fill-opacity="1" fill-rule="nonzero"/><path fill="#0055a4" d="M 631.128906 524.777344 C 609.832031 539.464844 567.683594 515.464844 537.003906 471.085938 C 506.320312 426.710938 498.714844 378.882812 520.011719 364.195312 C 541.316406 349.503906 582.398438 372.28125 613.085938 416.65625 C 643.765625 461.03125 652.425781 510.085938 631.128906 524.777344 Z M 631.128906 524.777344 " fill-opacity="1" fill-rule="nonzero"/><path fill="#009dcc" d="M 755.554688 327.308594 C 755.554688 328.074219 755.511719 328.839844 755.433594 329.601562 C 755.355469 330.367188 755.238281 331.128906 755.082031 331.890625 C 754.925781 332.652344 754.726562 333.410156 754.492188 334.167969 C 754.257812 334.921875 753.984375 335.675781 753.671875 336.425781 C 753.359375 337.175781 753.007812 337.925781 752.621094 338.664062 C 752.230469 339.40625 751.804688 340.144531 751.339844 340.875 C 750.875 341.609375 750.371094 342.335938 749.832031 343.054688 C 749.292969 343.777344 748.714844 344.488281 748.101562 345.195312 C 747.488281 345.902344 746.839844 346.601562 746.15625 347.292969 C 745.472656 347.984375 744.75 348.667969 743.996094 349.34375 C 743.242188 350.015625 742.453125 350.683594 741.628906 351.339844 C 740.804688 351.996094 739.949219 352.640625 739.058594 353.277344 C 738.167969 353.914062 737.246094 354.539062 736.292969 355.152344 C 735.335938 355.765625 734.351562 356.371094 733.335938 356.960938 C 732.320312 357.550781 731.273438 358.132812 730.199219 358.699219 C 729.121094 359.265625 728.019531 359.820312 726.886719 360.359375 C 725.753906 360.898438 724.59375 361.425781 723.40625 361.941406 C 722.21875 362.453125 721.007812 362.953125 719.769531 363.441406 C 718.53125 363.925781 717.269531 364.394531 715.980469 364.851562 C 714.695312 365.308594 713.386719 365.746094 712.054688 366.171875 C 710.722656 366.597656 709.371094 367.007812 707.996094 367.398438 C 706.621094 367.792969 705.230469 368.167969 703.816406 368.53125 C 702.402344 368.890625 700.972656 369.234375 699.523438 369.5625 C 698.078125 369.890625 696.613281 370.199219 695.132812 370.492188 C 693.652344 370.785156 692.160156 371.058594 690.652344 371.316406 C 689.144531 371.574219 687.621094 371.816406 686.089844 372.035156 C 684.558594 372.257812 683.015625 372.460938 681.460938 372.648438 C 679.90625 372.835938 678.34375 373.003906 676.773438 373.152344 C 675.203125 373.300781 673.625 373.429688 672.039062 373.542969 C 670.453125 373.65625 668.867188 373.75 667.273438 373.824219 C 665.675781 373.898438 664.082031 373.957031 662.480469 373.992188 C 660.882812 374.03125 659.28125 374.050781 657.679688 374.050781 C 656.078125 374.050781 654.476562 374.03125 652.875 373.992188 C 651.277344 373.957031 649.679688 373.898438 648.085938 373.824219 C 646.492188 373.75 644.902344 373.65625 643.316406 373.542969 C 641.734375 373.429688 640.15625 373.300781 638.585938 373.152344 C 637.011719 373.003906 635.449219 372.835938 633.898438 372.648438 C 632.34375 372.460938 630.800781 372.257812 629.265625 372.035156 C 627.734375 371.816406 626.214844 371.574219 624.707031 371.316406 C 623.199219 371.058594 621.703125 370.785156 620.222656 370.492188 C 618.742188 370.199219 617.28125 369.890625 615.832031 369.5625 C 614.382812 369.234375 612.953125 368.890625 611.539062 368.53125 C 610.128906 368.167969 608.734375 367.792969 607.359375 367.398438 C 605.988281 367.007812 604.632812 366.597656 603.300781 366.171875 C 601.96875 365.746094 600.660156 365.308594 599.375 364.851562 C 598.089844 364.394531 596.824219 363.925781 595.585938 363.441406 C 594.347656 362.953125 593.136719 362.453125 591.949219 361.941406 C 590.761719 361.425781 589.601562 360.898438 588.472656 360.359375 C 587.339844 359.820312 586.234375 359.265625 585.160156 358.699219 C 584.082031 358.132812 583.035156 357.550781 582.019531 356.960938 C 581.003906 356.371094 580.019531 355.765625 579.066406 355.152344 C 578.109375 354.539062 577.1875 353.914062 576.296875 353.277344 C 575.410156 352.640625 574.550781 351.996094 573.730469 351.339844 C 572.90625 350.683594 572.117188 350.015625 571.359375 349.34375 C 570.605469 348.667969 569.886719 347.984375 569.199219 347.292969 C 568.515625 346.601562 567.867188 345.902344 567.253906 345.195312 C 566.640625 344.488281 566.066406 343.777344 565.523438 343.054688 C 564.984375 342.335938 564.484375 341.609375 564.019531 340.875 C 563.554688 340.144531 563.125 339.40625 562.738281 338.664062 C 562.347656 337.925781 561.996094 337.175781 561.683594 336.425781 C 561.371094 335.675781 561.097656 334.921875 560.863281 334.167969 C 560.628906 333.410156 560.433594 332.652344 560.273438 331.890625 C 560.117188 331.128906 560 330.367188 559.921875 329.601562 C 559.84375 328.839844 559.804688 328.074219 559.804688 327.308594 C 559.804688 326.542969 559.84375 325.78125 559.921875 325.015625 C 560 324.25 560.117188 323.488281 560.273438 322.726562 C 560.433594 321.964844 560.628906 321.207031 560.863281 320.449219 C 561.097656 319.695312 561.371094 318.941406 561.683594 318.191406 C 561.996094 317.441406 562.347656 316.695312 562.738281 315.953125 C 563.125 315.210938 563.554688 314.472656 564.019531 313.742188 C 564.484375 313.007812 564.984375 312.28125 565.523438 311.5625 C 566.066406 310.84375 566.640625 310.128906 567.253906 309.421875 C 567.867188 308.714844 568.515625 308.015625 569.199219 307.324219 C 569.886719 306.632812 570.605469 305.949219 571.359375 305.277344 C 572.117188 304.601562 572.90625 303.933594 573.730469 303.28125 C 574.550781 302.625 575.410156 301.976562 576.296875 301.339844 C 577.1875 300.707031 578.109375 300.078125 579.066406 299.464844 C 580.019531 298.851562 581.003906 298.25 582.019531 297.65625 C 583.035156 297.066406 584.082031 296.488281 585.160156 295.917969 C 586.234375 295.351562 587.339844 294.800781 588.472656 294.257812 C 589.601562 293.71875 590.761719 293.191406 591.949219 292.675781 C 593.136719 292.164062 594.347656 291.664062 595.585938 291.179688 C 596.824219 290.691406 598.089844 290.222656 599.375 289.765625 C 600.660156 289.3125 601.96875 288.871094 603.300781 288.445312 C 604.632812 288.019531 605.988281 287.613281 607.359375 287.21875 C 608.734375 286.824219 610.128906 286.449219 611.539062 286.085938 C 612.953125 285.726562 614.382812 285.382812 615.832031 285.054688 C 617.28125 284.730469 618.742188 284.417969 620.222656 284.125 C 621.703125 283.832031 623.199219 283.558594 624.707031 283.300781 C 626.214844 283.042969 627.734375 282.804688 629.265625 282.582031 C 630.800781 282.359375 632.34375 282.15625 633.898438 281.96875 C 635.449219 281.78125 637.011719 281.617188 638.585938 281.464844 C 640.15625 281.316406 641.734375 281.1875 643.316406 281.074219 C 644.902344 280.960938 646.492188 280.867188 648.085938 280.792969 C 649.679688 280.71875 651.277344 280.664062 652.875 280.625 C 654.476562 280.585938 656.078125 280.566406 657.679688 280.566406 C 659.28125 280.566406 660.882812 280.585938 662.480469 280.625 C 664.082031 280.664062 665.675781 280.71875 667.273438 280.792969 C 668.867188 280.867188 670.453125 280.960938 672.039062 281.074219 C 673.625 281.1875 675.203125 281.316406 676.773438 281.464844 C 678.34375 281.617188 679.90625 281.78125 681.460938 281.96875 C 683.015625 282.15625 684.558594 282.359375 686.089844 282.582031 C 687.621094 282.804688 689.144531 283.042969 690.652344 283.300781 C 692.160156 283.558594 693.652344 283.832031 695.132812 284.125 C 696.613281 284.417969 698.078125 284.730469 699.523438 285.054688 C 700.972656 285.382812 702.402344 285.726562 703.816406 286.085938 C 705.230469 286.449219 706.621094 286.824219 707.996094 287.21875 C 709.371094 287.613281 710.722656 288.019531 712.054688 288.445312 C 713.386719 288.871094 714.695312 289.3125 715.980469 289.765625 C 717.269531 290.222656 718.53125 290.691406 719.769531 291.179688 C 721.007812 291.664062 722.21875 292.164062 723.40625 292.675781 C 724.59375 293.191406 725.753906 293.71875 726.886719 294.257812 C 728.019531 294.800781 729.121094 295.351562 730.199219 295.917969 C 731.273438 296.488281 732.320312 297.066406 733.335938 297.65625 C 734.351562 298.25 735.335938 298.851562 736.292969 299.464844 C 737.246094 300.078125 738.167969 300.707031 739.058594 301.339844 C 739.949219 301.976562 740.804688 302.625 741.628906 303.28125 C 742.453125 303.933594 743.242188 304.601562 743.996094 305.277344 C 744.75 305.949219 745.472656 306.632812 746.15625 307.324219 C 746.839844 308.015625 747.488281 308.714844 748.101562 309.421875 C 748.714844 310.128906 749.292969 310.84375 749.832031 311.5625 C 750.371094 312.28125 750.875 313.007812 751.339844 313.742188 C 751.804688 314.472656 752.230469 315.210938 752.621094 315.953125 C 753.007812 316.695312 753.359375 317.441406 753.671875 318.191406 C 753.984375 318.941406 754.257812 319.695312 754.492188 320.449219 C 754.726562 321.207031 754.925781 321.964844 755.082031 322.726562 C 755.238281 323.488281 755.355469 324.25 755.433594 325.015625 C 755.511719 325.78125 755.554688 326.542969 755.554688 327.308594 Z M 755.554688 327.308594 " fill-opacity="1" fill-rule="nonzero"/><path fill="#009dcc" d="M 477.398438 455.421875 L 476.148438 455.421875 C 475.691406 455.421875 475.3125 455.09375 475.3125 454.679688 L 475.3125 446.820312 L 471.914062 454.957031 C 471.78125 455.21875 471.476562 455.390625 471.148438 455.390625 L 469.90625 455.390625 C 469.578125 455.390625 469.285156 455.222656 469.148438 454.957031 L 465.648438 446.757812 L 465.648438 454.679688 C 465.648438 455.09375 465.273438 455.421875 464.824219 455.421875 L 463.570312 455.421875 C 463.117188 455.421875 462.746094 455.09375 462.746094 454.679688 L 462.746094 440.136719 C 462.746094 439.730469 463.117188 439.40625 463.570312 439.40625 L 464.824219 439.40625 C 465.140625 439.40625 465.4375 439.570312 465.570312 439.835938 L 470.542969 451.574219 L 475.390625 439.839844 C 475.515625 439.578125 475.820312 439.40625 476.148438 439.40625 L 477.398438 439.40625 C 477.855469 439.40625 478.222656 439.734375 478.222656 440.136719 L 478.222656 454.679688 C 478.222656 455.09375 477.855469 455.421875 477.398438 455.421875 Z M 448.742188 440.839844 C 447.472656 439.714844 445.710938 439.152344 443.949219 439.152344 C 442.191406 439.152344 440.429688 439.714844 439.15625 440.839844 C 437.351562 442.433594 437.078125 444.089844 437.078125 447.390625 C 437.078125 450.691406 437.351562 452.34375 439.15625 453.9375 C 440.433594 455.066406 442.132812 455.679688 443.949219 455.679688 C 445.769531 455.679688 447.464844 455.066406 448.742188 453.9375 C 450.550781 452.34375 450.820312 450.691406 450.820312 447.390625 C 450.820312 444.089844 450.550781 442.433594 448.742188 440.839844 Z M 446.527344 452.257812 C 445.859375 452.859375 444.90625 453.15625 443.949219 453.15625 C 442.996094 453.15625 442.042969 452.859375 441.367188 452.257812 C 440.421875 451.421875 440.042969 450.535156 440.042969 447.390625 C 440.042969 444.242188 440.421875 443.351562 441.367188 442.523438 C 442.042969 441.925781 442.960938 441.589844 443.949219 441.589844 C 444.9375 441.589844 445.859375 441.925781 446.527344 442.523438 C 447.480469 443.351562 447.859375 444.242188 447.859375 447.390625 C 447.859375 450.535156 447.480469 451.421875 446.527344 452.257812 Z M 424.132812 450.570312 L 422.84375 450.367188 C 422.457031 450.304688 422.074219 450.496094 421.933594 450.824219 C 421.71875 451.488281 421.394531 451.90625 420.941406 452.296875 C 420.269531 452.894531 419.351562 453.230469 418.363281 453.230469 C 417.371094 453.230469 416.453125 452.894531 415.78125 452.296875 C 414.832031 451.46875 414.453125 450.578125 414.453125 447.429688 C 414.453125 444.285156 414.832031 443.363281 415.78125 442.535156 C 416.453125 441.9375 417.371094 441.601562 418.363281 441.601562 C 419.351562 441.601562 420.269531 441.9375 420.941406 442.535156 C 421.394531 442.925781 421.71875 443.339844 421.933594 444.007812 C 422.074219 444.335938 422.457031 444.523438 422.84375 444.464844 L 424.132812 444.261719 C 424.382812 444.222656 424.589844 444.085938 424.722656 443.894531 C 424.859375 443.707031 424.878906 443.460938 424.796875 443.25 C 424.496094 442.335938 423.992188 441.585938 423.152344 440.851562 C 421.886719 439.726562 420.125 439.164062 418.363281 439.164062 C 416.601562 439.164062 414.839844 439.726562 413.570312 440.851562 C 411.761719 442.445312 411.492188 444.101562 411.492188 447.402344 C 411.492188 450.703125 411.761719 452.386719 413.570312 453.972656 C 414.839844 455.101562 416.601562 455.664062 418.363281 455.664062 C 420.125 455.664062 421.886719 455.101562 423.152344 453.972656 C 423.992188 453.242188 424.496094 452.496094 424.796875 451.578125 C 424.878906 451.367188 424.859375 451.125 424.722656 450.933594 C 424.589844 450.746094 424.382812 450.613281 424.132812 450.570312 Z M 397.765625 455.421875 L 387.78125 455.421875 C 387.328125 455.421875 386.957031 455.09375 386.957031 454.679688 L 386.957031 440.136719 C 386.957031 439.730469 387.324219 439.40625 387.78125 439.40625 L 397.765625 439.40625 C 398.226562 439.40625 398.601562 439.734375 398.601562 440.136719 L 398.601562 441.316406 C 398.601562 441.722656 398.226562 442.054688 397.765625 442.054688 L 389.859375 442.054688 L 389.859375 446.050781 L 396.46875 446.050781 C 396.933594 446.050781 397.300781 446.378906 397.300781 446.777344 L 397.300781 447.898438 C 397.300781 448.300781 396.933594 448.625 396.46875 448.625 L 389.859375 448.625 L 389.859375 452.773438 L 397.765625 452.773438 C 398.226562 452.773438 398.601562 453.097656 398.601562 453.507812 L 398.601562 454.679688 C 398.601562 455.09375 398.226562 455.421875 397.765625 455.421875 Z M 373.988281 455.421875 L 364 455.421875 C 363.539062 455.421875 363.175781 455.09375 363.175781 454.679688 L 363.175781 440.136719 C 363.175781 439.730469 363.539062 439.40625 364 439.40625 L 365.246094 439.40625 C 365.710938 439.40625 366.082031 439.734375 366.082031 440.136719 L 366.082031 452.773438 L 373.988281 452.773438 C 374.445312 452.773438 374.820312 453.097656 374.820312 453.507812 L 374.820312 454.679688 C 374.820312 455.09375 374.445312 455.421875 373.988281 455.421875 Z M 348.035156 455.421875 L 338.046875 455.421875 C 337.589844 455.421875 337.222656 455.09375 337.222656 454.679688 L 337.222656 440.136719 C 337.222656 439.730469 337.59375 439.40625 338.046875 439.40625 L 348.035156 439.40625 C 348.496094 439.40625 348.867188 439.734375 348.867188 440.136719 L 348.867188 441.316406 C 348.867188 441.722656 348.496094 442.054688 348.035156 442.054688 L 340.125 442.054688 L 340.125 446.050781 L 346.738281 446.050781 C 347.199219 446.050781 347.566406 446.378906 347.566406 446.777344 L 347.566406 447.898438 C 347.566406 448.300781 347.199219 448.625 346.738281 448.625 L 340.125 448.625 L 340.125 452.773438 L 348.035156 452.773438 C 348.496094 452.773438 348.867188 453.097656 348.867188 453.507812 L 348.867188 454.679688 C 348.867188 455.09375 348.496094 455.421875 348.035156 455.421875 Z M 318.472656 455.421875 L 317.21875 455.421875 C 316.761719 455.421875 316.394531 455.09375 316.394531 454.679688 L 316.394531 442.054688 L 312.316406 442.054688 C 311.859375 442.054688 311.488281 441.722656 311.488281 441.316406 L 311.488281 440.136719 C 311.488281 439.730469 311.859375 439.40625 312.316406 439.40625 L 323.394531 439.40625 C 323.851562 439.40625 324.222656 439.734375 324.222656 440.136719 L 324.222656 441.316406 C 324.222656 441.722656 323.851562 442.054688 323.394531 442.054688 L 319.296875 442.054688 L 319.296875 454.679688 C 319.296875 455.09375 318.925781 455.421875 318.472656 455.421875 Z M 318.472656 455.421875 " fill-opacity="1" fill-rule="nonzero"/></svg>