<svg xmlns="http://www.w3.org/2000/svg" xmlns:xlink="http://www.w3.org/1999/xlink" width="1080" zoomAndPan="magnify" viewBox="0 0 810 809.999993" height="1080" preserveAspectRatio="xMidYMid meet" version="1.0"><defs><clipPath id="bbe865bb5b"><path d="M 0 78.238281 L 810 78.238281 L 810 731.488281 L 0 731.488281 Z M 0 78.238281 " clip-rule="nonzero"/></clipPath></defs><rect x="-81" width="972" fill="#ffffff" y="-80.999999" height="971.999992" fill-opacity="1"/><rect x="-81" width="972" fill="#ffffff" y="-80.999999" height="971.999992" fill-opacity="1"/><g clip-path="url(#bbe865bb5b)"><path fill="#d42e1a" d="M 0.00390625 78.238281 L 809.996094 78.238281 L 809.996094 731.488281 L 0.00390625 731.488281 Z M 0.00390625 78.238281 " fill-opacity="1" fill-rule="nonzero"/></g><path fill="#ffffff" d="M 357.542969 142.828125 L 460.207031 142.828125 L 497.542969 177.273438 L 497.542969 361.710938 L 467.386719 391.136719 L 357.542969 391.855469 Z M 201.746094 225.359375 L 140.71875 225.359375 L 140.71875 190.191406 L 129.234375 190.191406 L 129.234375 240.429688 L 168.519531 246.605469 L 201.746094 279.898438 L 201.746094 361.710938 L 168.71875 391.136719 L 94.773438 391.136719 L 64.617188 360.277344 L 64.617188 314.347656 L 129.234375 314.347656 L 129.234375 348.078125 L 140.71875 348.078125 L 140.71875 294.253906 C 140.71875 294.253906 117.503906 292.816406 106.257812 292.101562 L 64.617188 256.933594 L 64.617188 177.992188 L 101.234375 142.828125 L 168.71875 142.828125 L 201.746094 177.992188 Z M 210.363281 142.828125 L 272.824219 142.828125 L 272.824219 348.078125 L 286.464844 348.078125 L 286.464844 142.828125 L 349.644531 142.828125 L 349.644531 360.996094 C 339.355469 370.800781 329.0625 381.328125 318.773438 391.136719 L 241.953125 391.136719 C 231.421875 381.089844 210.363281 360.277344 210.363281 360.277344 Z M 435.082031 348.078125 L 435.082031 190.191406 L 421.4375 190.191406 C 421.4375 190.191406 421.917969 295.691406 422.15625 348.078125 Z M 101.949219 418.40625 L 166.566406 418.40625 L 206.054688 454.289062 L 206.054688 636.574219 L 173.027344 666.714844 L 99.796875 666.714844 L 64.617188 635.855469 L 64.617188 453.570312 Z M 214.667969 418.40625 L 276.414062 418.40625 L 276.414062 623.65625 L 290.773438 623.65625 L 290.773438 418.40625 L 353.953125 418.40625 L 353.953125 636.574219 L 322.363281 666.714844 L 246.976562 666.714844 L 214.667969 635.855469 Z M 361.132812 418.40625 L 465.234375 418.40625 L 465.234375 465.773438 L 424.3125 465.773438 L 424.3125 511.703125 L 458.773438 511.703125 L 458.773438 560.503906 L 424.3125 560.503906 L 424.3125 623.65625 L 465.234375 623.65625 L 465.234375 666.714844 L 361.132812 666.714844 Z M 606.671875 500.9375 L 544.925781 500.9375 C 544.6875 489.214844 544.449219 477.492188 544.207031 465.773438 L 533.441406 465.773438 C 533.257812 474.476562 531.488281 512.21875 534.875 516.007812 L 572.207031 522.46875 L 606.671875 556.195312 L 606.671875 636.574219 L 572.207031 666.714844 L 499.695312 666.714844 L 468.824219 635.855469 L 468.824219 589.925781 L 533.441406 589.925781 L 533.441406 623.65625 L 544.925781 623.65625 C 544.6875 605.714844 544.207031 569.832031 544.207031 569.832031 L 509.746094 567.679688 L 468.824219 533.230469 L 468.824219 453.570312 L 505.441406 418.40625 L 572.925781 418.40625 L 606.671875 454.289062 Z M 609.542969 418.40625 L 731.59375 418.40625 L 731.59375 465.773438 L 702.875 465.773438 L 702.875 666.714844 L 639.695312 666.714844 C 639.457031 599.742188 639.21875 532.761719 638.976562 465.773438 L 609.542969 465.773438 Z M 142.15625 623.65625 L 142.15625 465.773438 L 129.234375 465.773438 L 129.234375 623.65625 Z M 142.15625 623.65625 " fill-opacity="1" fill-rule="nonzero"/></svg>