<svg xmlns="http://www.w3.org/2000/svg" xmlns:xlink="http://www.w3.org/1999/xlink" width="1080" zoomAndPan="magnify" viewBox="0 0 810 809.999993" height="1080" preserveAspectRatio="xMidYMid meet" version="1.0"><rect x="-81" width="972" fill="#ffffff" y="-80.999999" height="971.999992" fill-opacity="1"/><rect x="-81" width="972" fill="#ffffff" y="-80.999999" height="971.999992" fill-opacity="1"/><path fill="#000000" d="M 210.261719 365.039062 L 172.148438 365.039062 L 172.148438 444.503906 L 185.105469 444.503906 L 185.105469 414.015625 L 210.261719 414.015625 C 222.648438 414.015625 235.796875 405.441406 235.796875 389.433594 C 235.796875 373.808594 222.648438 365.039062 210.261719 365.039062 Z M 185.105469 376.09375 L 209.5 376.09375 C 217.121094 376.09375 222.839844 381.808594 222.839844 389.625 C 222.839844 397.816406 217.503906 403.34375 209.5 403.34375 L 185.105469 403.34375 Z M 185.105469 376.09375 " fill-opacity="1" fill-rule="nonzero"/><path fill="#000000" d="M 312.59375 389.242188 C 312.59375 377.617188 303.828125 365.230469 287.25 365.230469 L 248.5625 365.230469 L 248.5625 444.695312 L 261.523438 444.695312 L 261.523438 413.253906 L 283.054688 413.253906 L 302.875 444.695312 L 318.308594 444.695312 L 297.15625 411.347656 C 306.6875 407.917969 312.59375 399.34375 312.59375 389.242188 Z M 299.636719 389.242188 C 299.636719 397.246094 294.300781 402.390625 286.105469 402.390625 L 261.714844 402.390625 L 261.714844 376.09375 L 286.105469 376.09375 C 293.917969 376.09375 299.636719 381.621094 299.636719 389.242188 Z M 299.636719 389.242188 " fill-opacity="1" fill-rule="nonzero"/><path fill="#000000" d="M 334.128906 365.039062 L 347.085938 365.039062 L 347.085938 444.503906 L 334.128906 444.503906 Z M 334.128906 365.039062 " fill-opacity="1" fill-rule="nonzero"/><path fill="#000000" d="M 407.683594 415.539062 L 381.195312 365.039062 L 369.191406 365.039062 L 369.191406 444.695312 L 381.578125 444.695312 L 381.578125 389.8125 L 403.300781 432.5 L 403.683594 433.070312 L 411.6875 433.070312 L 433.792969 389.8125 L 433.792969 444.695312 L 446.179688 444.695312 L 446.179688 365.039062 L 434.171875 365.039062 Z M 407.683594 415.539062 " fill-opacity="1" fill-rule="nonzero"/><path fill="#000000" d="M 501.058594 363.898438 C 479.335938 363.898438 462.375 382 462.375 404.867188 C 462.375 427.734375 479.335938 445.839844 501.058594 445.839844 C 522.785156 445.839844 539.746094 427.925781 539.746094 404.867188 C 539.746094 382 522.785156 363.898438 501.058594 363.898438 Z M 526.785156 405.058594 C 526.785156 422.398438 516.304688 434.40625 501.058594 434.40625 C 485.816406 434.40625 475.144531 422.398438 475.144531 405.058594 C 475.144531 387.71875 485.816406 375.523438 501.058594 375.523438 C 516.304688 375.523438 526.785156 387.527344 526.785156 405.058594 Z M 526.785156 405.058594 " fill-opacity="1" fill-rule="nonzero"/><path fill="#000000" d="M 611.777344 423.925781 L 568.136719 365.039062 L 556.132812 365.039062 L 556.132812 444.695312 L 568.710938 444.695312 L 568.710938 385.8125 L 612.347656 444.695312 L 624.542969 444.695312 L 624.542969 365.039062 L 611.777344 365.039062 Z M 611.777344 423.925781 " fill-opacity="1" fill-rule="nonzero"/><path fill="#000000" d="M 646.648438 365.039062 L 659.609375 365.039062 L 659.609375 444.503906 L 646.648438 444.503906 Z M 646.648438 365.039062 " fill-opacity="1" fill-rule="nonzero"/><path fill="#000000" d="M 703.628906 365.039062 L 671.613281 444.503906 L 684.570312 444.503906 L 692.386719 424.878906 L 725.542969 424.878906 L 733.164062 444.503906 L 746.125 444.503906 L 714.109375 365.039062 Z M 721.542969 414.585938 L 696.007812 414.585938 L 708.773438 381.046875 Z M 721.542969 414.585938 " fill-opacity="1" fill-rule="nonzero"/><path fill="#000000" d="M 770.515625 433.261719 L 770.515625 365.039062 L 757.558594 365.039062 L 757.558594 444.695312 L 809.960938 444.695312 L 809.960938 433.261719 Z M 770.515625 433.261719 " fill-opacity="1" fill-rule="nonzero"/><path fill="#eb1d5d" d="M 79.34375 391.71875 L 66.003906 391.71875 C 58.765625 391.71875 52.664062 397.628906 52.664062 405.058594 L 52.664062 418.398438 L 66.003906 418.398438 C 73.246094 418.398438 79.34375 412.492188 79.34375 405.058594 Z M 79.34375 391.71875 " fill-opacity="1" fill-rule="nonzero"/><path fill="#eb1d5d" d="M -0.3125 404.867188 L -0.3125 444.695312 L 26.175781 444.695312 L 26.175781 404.867188 C 26.175781 382.953125 43.898438 365.039062 66.003906 365.039062 L 105.832031 365.039062 L 105.832031 404.867188 C 105.832031 426.785156 88.109375 444.695312 66.003906 444.695312 L 52.664062 444.695312 L 52.664062 471.183594 L 66.003906 471.183594 C 102.785156 471.183594 132.320312 441.648438 132.320312 405.058594 L 132.320312 338.550781 L 66.003906 338.550781 C 29.417969 338.550781 -0.3125 368.28125 -0.3125 404.867188 " fill-opacity="1" fill-rule="nonzero"/></svg>