<svg xmlns="http://www.w3.org/2000/svg" xmlns:xlink="http://www.w3.org/1999/xlink" width="1080" zoomAndPan="magnify" viewBox="0 0 810 809.999993" height="1080" preserveAspectRatio="xMidYMid meet" version="1.0"><defs><clipPath id="bca8167b19"><path d="M 589 294.359375 L 810 294.359375 L 810 515.609375 L 589 515.609375 Z M 589 294.359375 " clip-rule="nonzero"/></clipPath><clipPath id="5aa54ec009"><path d="M 810 404.894531 C 810 465.839844 760.746094 515.460938 699.417969 515.460938 C 638.46875 515.460938 589.210938 465.839844 589.210938 404.894531 C 589.210938 343.945312 638.46875 294.507812 699.417969 294.507812 C 760.746094 294.507812 810 343.949219 810 404.894531 Z M 810 404.894531 " clip-rule="nonzero"/></clipPath><linearGradient x1="282.493081" gradientTransform="matrix(4.040023, 0, 0, -4.039595, -552.239552, 488.061596)" y1="47.870788" x2="337.233383" gradientUnits="userSpaceOnUse" y2="-6.734964" id="0dfcc3e8bd"><stop stop-opacity="1" stop-color="rgb(32.899475%, 81.999207%, 98.399353%)" offset="0"/><stop stop-opacity="1" stop-color="rgb(32.899475%, 81.999207%, 98.399353%)" offset="0.125"/><stop stop-opacity="1" stop-color="rgb(32.899475%, 81.999207%, 98.399353%)" offset="0.132812"/><stop stop-opacity="1" stop-color="rgb(32.080078%, 81.802368%, 98.472595%)" offset="0.136719"/><stop stop-opacity="1" stop-color="rgb(31.260681%, 81.60553%, 98.547363%)" offset="0.140625"/><stop stop-opacity="1" stop-color="rgb(30.168152%, 81.341553%, 98.64502%)" offset="0.144531"/><stop stop-opacity="1" stop-color="rgb(29.075623%, 81.079102%, 98.744202%)" offset="0.148438"/><stop stop-opacity="1" stop-color="rgb(27.983093%, 80.81665%, 98.841858%)" offset="0.152344"/><stop stop-opacity="1" stop-color="rgb(26.89209%, 80.554199%, 98.94104%)" offset="0.15625"/><stop stop-opacity="1" stop-color="rgb(25.799561%, 80.290222%, 99.038696%)" offset="0.160156"/><stop stop-opacity="1" stop-color="rgb(24.707031%, 80.027771%, 99.137878%)" offset="0.164062"/><stop stop-opacity="1" stop-color="rgb(23.614502%, 79.76532%, 99.235535%)" offset="0.167969"/><stop stop-opacity="1" stop-color="rgb(22.523499%, 79.502869%, 99.334717%)" offset="0.171875"/><stop stop-opacity="1" stop-color="rgb(21.430969%, 79.238892%, 99.433899%)" offset="0.175781"/><stop stop-opacity="1" stop-color="rgb(20.33844%, 78.97644%, 99.533081%)" offset="0.179688"/><stop stop-opacity="1" stop-color="rgb(19.924927%, 78.65448%, 99.5224%)" offset="0.183594"/><stop stop-opacity="1" stop-color="rgb(19.512939%, 78.33252%, 99.511719%)" offset="0.1875"/><stop stop-opacity="1" stop-color="rgb(19.445801%, 77.978516%, 99.446106%)" offset="0.191406"/><stop stop-opacity="1" stop-color="rgb(19.380188%, 77.626038%, 99.380493%)" offset="0.195312"/><stop stop-opacity="1" stop-color="rgb(19.314575%, 77.272034%, 99.31488%)" offset="0.199219"/><stop stop-opacity="1" stop-color="rgb(19.248962%, 76.919556%, 99.249268%)" offset="0.203125"/><stop stop-opacity="1" stop-color="rgb(19.18335%, 76.565552%, 99.183655%)" offset="0.207031"/><stop stop-opacity="1" stop-color="rgb(19.117737%, 76.213074%, 99.118042%)" offset="0.210938"/><stop stop-opacity="1" stop-color="rgb(19.052124%, 75.85907%, 99.052429%)" offset="0.214844"/><stop stop-opacity="1" stop-color="rgb(18.986511%, 75.506592%, 98.986816%)" offset="0.21875"/><stop stop-opacity="1" stop-color="rgb(18.920898%, 75.154114%, 98.921204%)" offset="0.222656"/><stop stop-opacity="1" stop-color="rgb(18.855286%, 74.801636%, 98.855591%)" offset="0.226562"/><stop stop-opacity="1" stop-color="rgb(18.789673%, 74.372864%, 98.770142%)" offset="0.230469"/><stop stop-opacity="1" stop-color="rgb(18.72406%, 73.944092%, 98.686218%)" offset="0.234375"/><stop stop-opacity="1" stop-color="rgb(18.658447%, 73.458862%, 98.587036%)" offset="0.238281"/><stop stop-opacity="1" stop-color="rgb(18.592834%, 72.975159%, 98.48938%)" offset="0.242187"/><stop stop-opacity="1" stop-color="rgb(18.527222%, 72.489929%, 98.390198%)" offset="0.246094"/><stop stop-opacity="1" stop-color="rgb(18.461609%, 72.006226%, 98.292542%)" offset="0.25"/><stop stop-opacity="1" stop-color="rgb(18.395996%, 71.520996%, 98.193359%)" offset="0.253906"/><stop stop-opacity="1" stop-color="rgb(18.330383%, 71.037292%, 98.095703%)" offset="0.257812"/><stop stop-opacity="1" stop-color="rgb(18.264771%, 70.552063%, 97.996521%)" offset="0.261719"/><stop stop-opacity="1" stop-color="rgb(18.199158%, 70.068359%, 97.897339%)" offset="0.265625"/><stop stop-opacity="1" stop-color="rgb(18.132019%, 69.58313%, 97.798157%)" offset="0.269531"/><stop stop-opacity="1" stop-color="rgb(18.066406%, 69.099426%, 97.7005%)" offset="0.273437"/><stop stop-opacity="1" stop-color="rgb(17.988586%, 68.60199%, 97.590637%)" offset="0.277344"/><stop stop-opacity="1" stop-color="rgb(17.912292%, 68.106079%, 97.480774%)" offset="0.28125"/><stop stop-opacity="1" stop-color="rgb(17.82074%, 67.596436%, 97.357178%)" offset="0.285156"/><stop stop-opacity="1" stop-color="rgb(17.730713%, 67.088318%, 97.233582%)" offset="0.289062"/><stop stop-opacity="1" stop-color="rgb(17.640686%, 66.578674%, 97.109985%)" offset="0.292969"/><stop stop-opacity="1" stop-color="rgb(17.550659%, 66.070557%, 96.987915%)" offset="0.296875"/><stop stop-opacity="1" stop-color="rgb(17.460632%, 65.560913%, 96.864319%)" offset="0.300781"/><stop stop-opacity="1" stop-color="rgb(17.370605%, 65.05127%, 96.740723%)" offset="0.304688"/><stop stop-opacity="1" stop-color="rgb(17.279053%, 64.541626%, 96.617126%)" offset="0.308594"/><stop stop-opacity="1" stop-color="rgb(17.189026%, 64.033508%, 96.495056%)" offset="0.3125"/><stop stop-opacity="1" stop-color="rgb(17.098999%, 63.523865%, 96.37146%)" offset="0.316406"/><stop stop-opacity="1" stop-color="rgb(17.008972%, 63.015747%, 96.247864%)" offset="0.320312"/><stop stop-opacity="1" stop-color="rgb(16.914368%, 62.489319%, 96.134949%)" offset="0.324219"/><stop stop-opacity="1" stop-color="rgb(16.821289%, 61.964417%, 96.022034%)" offset="0.328125"/><stop stop-opacity="1" stop-color="rgb(16.722107%, 61.413574%, 95.922852%)" offset="0.332031"/><stop stop-opacity="1" stop-color="rgb(16.624451%, 60.864258%, 95.823669%)" offset="0.335938"/><stop stop-opacity="1" stop-color="rgb(16.525269%, 60.313416%, 95.724487%)" offset="0.339844"/><stop stop-opacity="1" stop-color="rgb(16.427612%, 59.764099%, 95.626831%)" offset="0.34375"/><stop stop-opacity="1" stop-color="rgb(16.32843%, 59.213257%, 95.527649%)" offset="0.347656"/><stop stop-opacity="1" stop-color="rgb(16.230774%, 58.66394%, 95.429993%)" offset="0.351562"/><stop stop-opacity="1" stop-color="rgb(16.131592%, 58.113098%, 95.330811%)" offset="0.355469"/><stop stop-opacity="1" stop-color="rgb(16.03241%, 57.563782%, 95.233154%)" offset="0.359375"/><stop stop-opacity="1" stop-color="rgb(15.933228%, 57.012939%, 95.133972%)" offset="0.363281"/><stop stop-opacity="1" stop-color="rgb(15.835571%, 56.462097%, 95.036316%)" offset="0.367187"/><stop stop-opacity="1" stop-color="rgb(15.736389%, 55.921936%, 94.926453%)" offset="0.371094"/><stop stop-opacity="1" stop-color="rgb(15.638733%, 55.381775%, 94.818115%)" offset="0.375"/><stop stop-opacity="1" stop-color="rgb(15.539551%, 54.864502%, 94.68689%)" offset="0.378906"/><stop stop-opacity="1" stop-color="rgb(15.441895%, 54.347229%, 94.555664%)" offset="0.382812"/><stop stop-opacity="1" stop-color="rgb(15.342712%, 53.829956%, 94.424438%)" offset="0.386719"/><stop stop-opacity="1" stop-color="rgb(15.245056%, 53.312683%, 94.293213%)" offset="0.390625"/><stop stop-opacity="1" stop-color="rgb(15.145874%, 52.79541%, 94.161987%)" offset="0.394531"/><stop stop-opacity="1" stop-color="rgb(15.048218%, 52.278137%, 94.030762%)" offset="0.398438"/><stop stop-opacity="1" stop-color="rgb(14.949036%, 51.760864%, 93.899536%)" offset="0.402344"/><stop stop-opacity="1" stop-color="rgb(14.849854%, 51.243591%, 93.768311%)" offset="0.40625"/><stop stop-opacity="1" stop-color="rgb(14.750671%, 50.726318%, 93.635559%)" offset="0.410156"/><stop stop-opacity="1" stop-color="rgb(14.653015%, 50.209045%, 93.504333%)" offset="0.414062"/><stop stop-opacity="1" stop-color="rgb(14.547729%, 49.679565%, 93.382263%)" offset="0.417969"/><stop stop-opacity="1" stop-color="rgb(14.442444%, 49.150085%, 93.260193%)" offset="0.421875"/><stop stop-opacity="1" stop-color="rgb(14.311218%, 48.574829%, 93.16864%)" offset="0.425781"/><stop stop-opacity="1" stop-color="rgb(14.179993%, 47.999573%, 93.078613%)" offset="0.429688"/><stop stop-opacity="1" stop-color="rgb(14.047241%, 47.424316%, 92.988586%)" offset="0.433594"/><stop stop-opacity="1" stop-color="rgb(13.916016%, 46.850586%, 92.89856%)" offset="0.4375"/><stop stop-opacity="1" stop-color="rgb(13.78479%, 46.27533%, 92.808533%)" offset="0.441406"/><stop stop-opacity="1" stop-color="rgb(13.653564%, 45.700073%, 92.718506%)" offset="0.445312"/><stop stop-opacity="1" stop-color="rgb(13.522339%, 45.124817%, 92.626953%)" offset="0.449219"/><stop stop-opacity="1" stop-color="rgb(13.391113%, 44.551086%, 92.536926%)" offset="0.453125"/><stop stop-opacity="1" stop-color="rgb(13.259888%, 43.97583%, 92.446899%)" offset="0.457031"/><stop stop-opacity="1" stop-color="rgb(13.128662%, 43.400574%, 92.356873%)" offset="0.460937"/><stop stop-opacity="1" stop-color="rgb(13.002014%, 42.828369%, 92.260742%)" offset="0.464844"/><stop stop-opacity="1" stop-color="rgb(12.875366%, 42.25769%, 92.166138%)" offset="0.46875"/><stop stop-opacity="1" stop-color="rgb(12.785339%, 41.706848%, 92.033386%)" offset="0.472656"/><stop stop-opacity="1" stop-color="rgb(12.695312%, 41.157532%, 91.902161%)" offset="0.476562"/><stop stop-opacity="1" stop-color="rgb(12.605286%, 40.606689%, 91.770935%)" offset="0.480469"/><stop stop-opacity="1" stop-color="rgb(12.515259%, 40.057373%, 91.639709%)" offset="0.484375"/><stop stop-opacity="1" stop-color="rgb(12.423706%, 39.506531%, 91.508484%)" offset="0.488281"/><stop stop-opacity="1" stop-color="rgb(12.333679%, 38.957214%, 91.377258%)" offset="0.492187"/><stop stop-opacity="1" stop-color="rgb(12.243652%, 38.406372%, 91.246033%)" offset="0.496094"/><stop stop-opacity="1" stop-color="rgb(12.153625%, 37.857056%, 91.114807%)" offset="0.5"/><stop stop-opacity="1" stop-color="rgb(12.062073%, 37.306213%, 90.983582%)" offset="0.503906"/><stop stop-opacity="1" stop-color="rgb(11.972046%, 36.755371%, 90.852356%)" offset="0.507812"/><stop stop-opacity="1" stop-color="rgb(11.882019%, 36.213684%, 90.722656%)" offset="0.511719"/><stop stop-opacity="1" stop-color="rgb(11.793518%, 35.673523%, 90.594482%)" offset="0.515625"/><stop stop-opacity="1" stop-color="rgb(11.727905%, 35.353088%, 90.52887%)" offset="0.519531"/><stop stop-opacity="1" stop-color="rgb(11.662292%, 35.032654%, 90.463257%)" offset="0.523438"/><stop stop-opacity="1" stop-color="rgb(11.59668%, 34.712219%, 90.396118%)" offset="0.527344"/><stop stop-opacity="1" stop-color="rgb(11.531067%, 34.393311%, 90.330505%)" offset="0.53125"/><stop stop-opacity="1" stop-color="rgb(11.465454%, 34.072876%, 90.264893%)" offset="0.535156"/><stop stop-opacity="1" stop-color="rgb(11.399841%, 33.752441%, 90.19928%)" offset="0.539062"/><stop stop-opacity="1" stop-color="rgb(11.334229%, 33.432007%, 90.133667%)" offset="0.542969"/><stop stop-opacity="1" stop-color="rgb(11.268616%, 33.111572%, 90.068054%)" offset="0.546875"/><stop stop-opacity="1" stop-color="rgb(11.203003%, 32.791138%, 90.002441%)" offset="0.550781"/><stop stop-opacity="1" stop-color="rgb(11.13739%, 32.470703%, 89.936829%)" offset="0.554688"/><stop stop-opacity="1" stop-color="rgb(11.071777%, 32.150269%, 89.871216%)" offset="0.558594"/><stop stop-opacity="1" stop-color="rgb(11.006165%, 31.83136%, 89.805603%)" offset="0.5625"/><stop stop-opacity="1" stop-color="rgb(10.971069%, 31.564331%, 89.73999%)" offset="0.566406"/><stop stop-opacity="1" stop-color="rgb(10.9375%, 31.298828%, 89.674377%)" offset="0.570312"/><stop stop-opacity="1" stop-color="rgb(10.903931%, 31.036377%, 89.608765%)" offset="0.574219"/><stop stop-opacity="1" stop-color="rgb(10.870361%, 30.773926%, 89.543152%)" offset="0.578125"/><stop stop-opacity="1" stop-color="rgb(10.836792%, 30.511475%, 89.477539%)" offset="0.582031"/><stop stop-opacity="1" stop-color="rgb(10.804749%, 30.249023%, 89.411926%)" offset="0.585937"/><stop stop-opacity="1" stop-color="rgb(10.771179%, 29.985046%, 89.346313%)" offset="0.589844"/><stop stop-opacity="1" stop-color="rgb(10.739136%, 29.722595%, 89.280701%)" offset="0.59375"/><stop stop-opacity="1" stop-color="rgb(10.705566%, 29.460144%, 89.215088%)" offset="0.597656"/><stop stop-opacity="1" stop-color="rgb(10.673523%, 29.197693%, 89.149475%)" offset="0.601562"/><stop stop-opacity="1" stop-color="rgb(10.639954%, 28.933716%, 89.082336%)" offset="0.605469"/><stop stop-opacity="1" stop-color="rgb(10.60791%, 28.671265%, 89.016724%)" offset="0.609375"/><stop stop-opacity="1" stop-color="rgb(10.43396%, 28.414917%, 88.589478%)" offset="0.613281"/><stop stop-opacity="1" stop-color="rgb(10.26001%, 28.160095%, 88.163757%)" offset="0.617188"/><stop stop-opacity="1" stop-color="rgb(10.061646%, 27.905273%, 87.678528%)" offset="0.621094"/><stop stop-opacity="1" stop-color="rgb(9.864807%, 27.651978%, 87.194824%)" offset="0.625"/><stop stop-opacity="1" stop-color="rgb(9.667969%, 27.397156%, 86.709595%)" offset="0.628906"/><stop stop-opacity="1" stop-color="rgb(9.47113%, 27.142334%, 86.225891%)" offset="0.632812"/><stop stop-opacity="1" stop-color="rgb(9.274292%, 26.887512%, 85.740662%)" offset="0.636719"/><stop stop-opacity="1" stop-color="rgb(9.077454%, 26.63269%, 85.256958%)" offset="0.640625"/><stop stop-opacity="1" stop-color="rgb(8.879089%, 26.377869%, 84.771729%)" offset="0.644531"/><stop stop-opacity="1" stop-color="rgb(8.682251%, 26.124573%, 84.288025%)" offset="0.648438"/><stop stop-opacity="1" stop-color="rgb(8.485413%, 25.869751%, 83.802795%)" offset="0.652344"/><stop stop-opacity="1" stop-color="rgb(8.288574%, 25.614929%, 83.319092%)" offset="0.65625"/><stop stop-opacity="1" stop-color="rgb(8.071899%, 25.454712%, 82.739258%)" offset="0.660156"/><stop stop-opacity="1" stop-color="rgb(7.85675%, 25.296021%, 82.159424%)" offset="0.664062"/><stop stop-opacity="1" stop-color="rgb(7.633972%, 25.164795%, 81.552124%)" offset="0.667969"/><stop stop-opacity="1" stop-color="rgb(7.41272%, 25.033569%, 80.944824%)" offset="0.671875"/><stop stop-opacity="1" stop-color="rgb(7.191467%, 24.902344%, 80.335999%)" offset="0.675781"/><stop stop-opacity="1" stop-color="rgb(6.970215%, 24.771118%, 79.728699%)" offset="0.679687"/><stop stop-opacity="1" stop-color="rgb(6.747437%, 24.638367%, 79.121399%)" offset="0.683594"/><stop stop-opacity="1" stop-color="rgb(6.526184%, 24.507141%, 78.514099%)" offset="0.6875"/><stop stop-opacity="1" stop-color="rgb(6.303406%, 24.375916%, 77.905273%)" offset="0.691406"/><stop stop-opacity="1" stop-color="rgb(6.082153%, 24.24469%, 77.297974%)" offset="0.695312"/><stop stop-opacity="1" stop-color="rgb(5.860901%, 24.113464%, 76.690674%)" offset="0.699219"/><stop stop-opacity="1" stop-color="rgb(5.639648%, 23.982239%, 76.083374%)" offset="0.703125"/><stop stop-opacity="1" stop-color="rgb(5.502319%, 23.895264%, 75.671387%)" offset="0.707031"/><stop stop-opacity="1" stop-color="rgb(5.36499%, 23.809814%, 75.260925%)" offset="0.710938"/><stop stop-opacity="1" stop-color="rgb(5.265808%, 23.744202%, 74.940491%)" offset="0.714844"/><stop stop-opacity="1" stop-color="rgb(5.166626%, 23.678589%, 74.620056%)" offset="0.71875"/><stop stop-opacity="1" stop-color="rgb(5.067444%, 23.61145%, 74.299622%)" offset="0.722656"/><stop stop-opacity="1" stop-color="rgb(4.969788%, 23.545837%, 73.980713%)" offset="0.726562"/><stop stop-opacity="1" stop-color="rgb(4.870605%, 23.480225%, 73.660278%)" offset="0.730469"/><stop stop-opacity="1" stop-color="rgb(4.772949%, 23.414612%, 73.339844%)" offset="0.734375"/><stop stop-opacity="1" stop-color="rgb(4.673767%, 23.348999%, 73.019409%)" offset="0.738281"/><stop stop-opacity="1" stop-color="rgb(4.576111%, 23.283386%, 72.698975%)" offset="0.742188"/><stop stop-opacity="1" stop-color="rgb(4.476929%, 23.217773%, 72.37854%)" offset="0.746094"/><stop stop-opacity="1" stop-color="rgb(4.379272%, 23.152161%, 72.058105%)" offset="0.75"/><stop stop-opacity="1" stop-color="rgb(4.226685%, 23.051453%, 71.620178%)" offset="0.753906"/><stop stop-opacity="1" stop-color="rgb(4.074097%, 22.952271%, 71.183777%)" offset="0.757812"/><stop stop-opacity="1" stop-color="rgb(3.884888%, 22.828674%, 70.666504%)" offset="0.761719"/><stop stop-opacity="1" stop-color="rgb(3.697205%, 22.706604%, 70.149231%)" offset="0.765625"/><stop stop-opacity="1" stop-color="rgb(3.507996%, 22.583008%, 69.630432%)" offset="0.769531"/><stop stop-opacity="1" stop-color="rgb(3.318787%, 22.459412%, 69.113159%)" offset="0.773438"/><stop stop-opacity="1" stop-color="rgb(3.129578%, 22.335815%, 68.595886%)" offset="0.777344"/><stop stop-opacity="1" stop-color="rgb(2.940369%, 22.213745%, 68.078613%)" offset="0.78125"/><stop stop-opacity="1" stop-color="rgb(2.75116%, 22.090149%, 67.56134%)" offset="0.785156"/><stop stop-opacity="1" stop-color="rgb(2.563477%, 21.966553%, 67.044067%)" offset="0.789062"/><stop stop-opacity="1" stop-color="rgb(2.374268%, 21.842957%, 66.526794%)" offset="0.792969"/><stop stop-opacity="1" stop-color="rgb(2.185059%, 21.720886%, 66.009521%)" offset="0.796875"/><stop stop-opacity="1" stop-color="rgb(2.041626%, 21.626282%, 65.574646%)" offset="0.800781"/><stop stop-opacity="1" stop-color="rgb(1.899719%, 21.533203%, 65.141296%)" offset="0.804687"/><stop stop-opacity="1" stop-color="rgb(1.800537%, 21.46759%, 64.787292%)" offset="0.808594"/><stop stop-opacity="1" stop-color="rgb(1.702881%, 21.401978%, 64.434814%)" offset="0.8125"/><stop stop-opacity="1" stop-color="rgb(1.603699%, 21.334839%, 64.082336%)" offset="0.816406"/><stop stop-opacity="1" stop-color="rgb(1.504517%, 21.269226%, 63.729858%)" offset="0.820312"/><stop stop-opacity="1" stop-color="rgb(1.405334%, 21.203613%, 63.375854%)" offset="0.824219"/><stop stop-opacity="1" stop-color="rgb(1.307678%, 21.138%, 63.023376%)" offset="0.828125"/><stop stop-opacity="1" stop-color="rgb(1.208496%, 21.072388%, 62.669373%)" offset="0.832031"/><stop stop-opacity="1" stop-color="rgb(1.11084%, 21.006775%, 62.316895%)" offset="0.835937"/><stop stop-opacity="1" stop-color="rgb(1.011658%, 20.941162%, 61.962891%)" offset="0.839844"/><stop stop-opacity="1" stop-color="rgb(0.914001%, 20.875549%, 61.610413%)" offset="0.84375"/><stop stop-opacity="1" stop-color="rgb(1.029968%, 21.011353%, 61.761475%)" offset="0.851562"/><stop stop-opacity="1" stop-color="rgb(1.565552%, 21.565247%, 62.770081%)" offset="0.855469"/><stop stop-opacity="1" stop-color="rgb(1.983643%, 21.983337%, 63.627625%)" offset="0.859375"/><stop stop-opacity="1" stop-color="rgb(2.400208%, 22.401428%, 64.483643%)" offset="0.863281"/><stop stop-opacity="1" stop-color="rgb(2.818298%, 22.819519%, 65.341187%)" offset="0.867188"/><stop stop-opacity="1" stop-color="rgb(3.236389%, 23.236084%, 66.197205%)" offset="0.871094"/><stop stop-opacity="1" stop-color="rgb(3.65448%, 23.654175%, 67.054749%)" offset="0.875"/><stop stop-opacity="1" stop-color="rgb(4.071045%, 24.07074%, 67.910767%)" offset="0.878906"/><stop stop-opacity="1" stop-color="rgb(4.489136%, 24.488831%, 68.766785%)" offset="0.882812"/><stop stop-opacity="1" stop-color="rgb(4.907227%, 24.906921%, 69.622803%)" offset="0.886719"/><stop stop-opacity="1" stop-color="rgb(5.325317%, 25.325012%, 70.480347%)" offset="0.890625"/><stop stop-opacity="1" stop-color="rgb(5.741882%, 25.741577%, 71.336365%)" offset="0.894531"/><stop stop-opacity="1" stop-color="rgb(6.159973%, 26.159668%, 72.193909%)" offset="0.898437"/><stop stop-opacity="1" stop-color="rgb(6.619263%, 26.618958%, 73.114014%)" offset="0.902344"/><stop stop-opacity="1" stop-color="rgb(7.080078%, 27.079773%, 74.034119%)" offset="0.90625"/><stop stop-opacity="1" stop-color="rgb(7.617188%, 27.616882%, 75.07019%)" offset="0.910156"/><stop stop-opacity="1" stop-color="rgb(8.155823%, 28.155518%, 76.106262%)" offset="0.914062"/><stop stop-opacity="1" stop-color="rgb(8.692932%, 28.692627%, 77.142334%)" offset="0.917969"/><stop stop-opacity="1" stop-color="rgb(9.231567%, 29.231262%, 78.178406%)" offset="0.921875"/><stop stop-opacity="1" stop-color="rgb(9.768677%, 29.768372%, 79.214478%)" offset="0.925781"/><stop stop-opacity="1" stop-color="rgb(10.307312%, 30.307007%, 80.252075%)" offset="0.929687"/><stop stop-opacity="1" stop-color="rgb(10.844421%, 30.844116%, 81.288147%)" offset="0.933594"/><stop stop-opacity="1" stop-color="rgb(11.381531%, 31.381226%, 82.324219%)" offset="0.9375"/><stop stop-opacity="1" stop-color="rgb(11.86676%, 31.866455%, 83.274841%)" offset="0.941406"/><stop stop-opacity="1" stop-color="rgb(12.353516%, 32.35321%, 84.22699%)" offset="0.945312"/><stop stop-opacity="1" stop-color="rgb(12.672424%, 32.673645%, 84.907532%)" offset="0.949219"/><stop stop-opacity="1" stop-color="rgb(12.992859%, 32.99408%, 85.5896%)" offset="0.953125"/><stop stop-opacity="1" stop-color="rgb(13.313293%, 33.312988%, 86.270142%)" offset="0.957031"/><stop stop-opacity="1" stop-color="rgb(13.633728%, 33.633423%, 86.952209%)" offset="0.960938"/><stop stop-opacity="1" stop-color="rgb(13.954163%, 33.953857%, 87.634277%)" offset="0.964844"/><stop stop-opacity="1" stop-color="rgb(14.274597%, 34.274292%, 88.316345%)" offset="0.96875"/><stop stop-opacity="1" stop-color="rgb(14.595032%, 34.594727%, 88.996887%)" offset="0.972656"/><stop stop-opacity="1" stop-color="rgb(14.915466%, 34.915161%, 89.678955%)" offset="0.976562"/><stop stop-opacity="1" stop-color="rgb(15.234375%, 35.235596%, 90.359497%)" offset="0.980469"/><stop stop-opacity="1" stop-color="rgb(15.55481%, 35.55603%, 91.041565%)" offset="0.984375"/><stop stop-opacity="1" stop-color="rgb(15.844727%, 35.845947%, 91.653442%)" offset="0.988281"/><stop stop-opacity="1" stop-color="rgb(16.136169%, 36.135864%, 92.266846%)" offset="0.992187"/><stop stop-opacity="1" stop-color="rgb(16.259766%, 36.25946%, 92.488098%)" offset="0.996094"/><stop stop-opacity="1" stop-color="rgb(16.383362%, 36.383057%, 92.709351%)" offset="1"/></linearGradient></defs><rect x="-81" width="972" fill="#ffffff" y="-80.999999" height="971.999992" fill-opacity="1"/><rect x="-81" width="972" fill="#ffffff" y="-80.999999" height="971.999992" fill-opacity="1"/><g clip-path="url(#bca8167b19)"><g clip-path="url(#5aa54ec009)"><path fill="url(#0dfcc3e8bd)" d="M 589.210938 515.460938 L 589.210938 294.507812 L 810 294.507812 L 810 515.460938 Z M 589.210938 515.460938 " fill-rule="nonzero"/></g></g><path fill="#0060a1" d="M 256.226562 450.007812 C 253.582031 447.554688 250.648438 446.15625 246.769531 446.15625 L 170.46875 446.167969 L 170.414062 446.167969 L 170.359375 446.175781 C 168.0625 446.773438 165.238281 445.042969 162.910156 443.640625 C 160.960938 441.960938 160.097656 439.625 160.097656 436.5625 L 160.097656 387.445312 L 246.695312 387.453125 C 249.527344 387.453125 252.792969 387.066406 255.804688 384.285156 C 258.289062 381.648438 259.539062 378.699219 259.539062 374.917969 C 259.539062 371.332031 258.273438 368.164062 255.578125 365.652344 C 253.070312 362.957031 249.902344 361.691406 246.3125 361.691406 L 160.097656 361.691406 L 160.101562 343.894531 C 160.101562 340.382812 158.683594 337.269531 156.242188 334.792969 C 153.796875 332.125 150.65625 330.875 147.0625 330.875 C 143.476562 330.875 140.308594 332.140625 137.609375 334.839844 C 134.914062 337.347656 133.652344 340.511719 133.652344 344.289062 L 133.652344 447.59375 C 133.652344 464.167969 141.597656 472.140625 158.113281 472.140625 L 247.152344 472.128906 C 250.671875 472.128906 253.597656 470.710938 256.265625 468.273438 C 258.75 465.828125 260.183594 462.6875 260.183594 459.285156 C 260.183594 455.574219 258.960938 452.933594 256.226562 450.007812 Z M 256.226562 450.007812 " fill-opacity="1" fill-rule="nonzero"/><path fill="#0060a1" d="M 328.96875 361.761719 C 325.824219 361.761719 322.417969 362.140625 319.667969 364.851562 C 317.183594 367.296875 315.933594 370.433594 315.933594 374.027344 C 315.933594 377.613281 317.199219 380.78125 319.894531 383.480469 C 322.40625 385.988281 325.574219 387.441406 329.160156 387.441406 L 331.128906 387.449219 C 331.128906 387.449219 331.507812 387.449219 331.832031 387.449219 L 378.917969 387.449219 C 382.054688 387.449219 384.441406 388.292969 386.339844 390.191406 C 388.050781 391.902344 389.082031 394.261719 389.082031 397.328125 L 389.152344 436.585938 C 389.152344 439.636719 388.289062 441.96875 386.34375 443.648438 C 384.375 445.34375 381.757812 446.179688 378.796875 446.179688 L 315.585938 446.179688 C 312.367188 446.179688 309.722656 445.34375 307.757812 443.648438 C 305.808594 441.96875 304.941406 439.644531 304.941406 436.582031 L 304.871094 343.679688 C 304.871094 340.347656 303.453125 337.234375 301.011719 334.570312 C 298.5625 332.082031 295.429688 330.644531 291.832031 330.644531 C 288.246094 330.644531 285.078125 332.097656 282.382812 334.792969 C 279.683594 337.304688 278.421875 340.46875 278.421875 344.0625 L 278.421875 447.414062 C 278.421875 463.609375 286.800781 472.144531 303.4375 472.144531 L 390.324219 472.164062 C 406.777344 472.164062 415.34375 464.042969 415.34375 447.546875 L 415.34375 385.941406 C 415.34375 369.992188 407.375 362.085938 390.824219 361.792969 Z M 328.96875 361.761719 " fill-opacity="1" fill-rule="nonzero"/><path fill="#0060a1" d="M 565.53125 384.390625 C 568.011719 381.945312 569.457031 378.808594 569.457031 375.214844 C 569.457031 371.625 568 368.457031 565.492188 365.761719 C 562.554688 363.011719 559.390625 361.722656 556.039062 361.722656 L 458.820312 361.730469 C 442.828125 362.101562 434.449219 370.128906 434.886719 385.875 L 434.222656 460.078125 C 434.222656 463.421875 435.65625 466.546875 438.136719 469.03125 C 440.621094 471.511719 443.730469 472.949219 447.070312 472.949219 C 450.84375 472.949219 453.996094 471.511719 456.480469 469.03125 C 459.382812 466.484375 460.472656 463.359375 460.472656 460.074219 L 460.957031 393.867188 C 460.957031 389.5625 462.765625 387.484375 466.746094 387.484375 L 556.238281 387.480469 C 559.375 387.480469 562.59375 387.097656 565.53125 384.390625 Z M 565.53125 384.390625 " fill-opacity="1" fill-rule="nonzero"/><path fill="#0060a1" d="M 112.777344 365.390625 C 110.347656 362.960938 107.226562 361.761719 103.324219 361.761719 C 78.679688 361.738281 53.839844 361.820312 29.195312 361.722656 C 27.28125 361.691406 26.109375 360.980469 24.96875 359.402344 C 22.5625 355.90625 17.40625 354.695312 13.414062 354.695312 C 9.445312 354.695312 5.835938 356.285156 3.125 359.117188 C 0.496094 361.867188 0.0390625 364.898438 0.0390625 368.4375 L 0 459.363281 C 0 462.695312 1.265625 465.828125 3.964844 468.335938 C 6.65625 471.214844 9.820312 472.296875 13.414062 472.296875 C 17.003906 472.296875 20.136719 471.25 22.585938 468.804688 C 25.214844 465.984375 26.449219 463.226562 26.449219 459.449219 L 26.449219 397.460938 C 26.449219 394.523438 27.359375 391.820312 29.261719 390.183594 C 31.203125 388.324219 33.625 387.488281 36.796875 387.464844 L 103.703125 387.464844 C 107.617188 387.464844 110.640625 386.347656 112.816406 384.019531 C 115.488281 381.574219 116.738281 378.4375 116.738281 374.84375 C 116.738281 371.25 115.472656 368.089844 112.777344 365.390625 Z M 112.777344 365.390625 " fill-opacity="1" fill-rule="nonzero"/><path fill="#ffffff" d="M 672.402344 384.761719 C 670.867188 384.761719 669.292969 385.046875 668.226562 386.273438 C 666.824219 387.472656 666.121094 389.007812 666.121094 390.671875 C 666.121094 392.335938 666.832031 393.882812 668.246094 395.105469 C 669.28125 396.519531 670.835938 397.046875 672.496094 397.046875 L 673.738281 397.050781 C 673.738281 397.050781 673.832031 397.050781 673.898438 397.050781 L 696.28125 397.050781 C 697.8125 397.050781 699.167969 397.460938 700.003906 398.484375 C 700.839844 399.324219 701.441406 400.476562 701.441406 401.792969 L 701.476562 420.714844 C 701.476562 422.210938 700.867188 423.164062 700.007812 423.984375 C 699.136719 424.8125 697.761719 425.40625 696.222656 425.40625 L 666.039062 425.40625 C 664.46875 425.40625 663.453125 424.8125 662.210938 423.984375 C 661.351562 423.164062 661.113281 422.210938 661.113281 420.714844 L 661.078125 376.101562 C 661.078125 374.476562 660.386719 372.953125 659.007812 371.742188 C 657.996094 370.527344 656.460938 370.007812 654.796875 370.007812 C 652.765625 370.007812 651.585938 370.535156 650.171875 371.757812 C 648.761719 373.175781 648.421875 374.535156 648.421875 376.386719 L 648.421875 425.644531 C 648.421875 433.5625 652.429688 437.929688 660.382812 437.929688 L 701.769531 437.9375 C 709.722656 437.9375 714.101562 433.96875 714.101562 426.082031 L 714.101562 396.5 C 714.101562 388.699219 710.199219 385.019531 702.292969 384.78125 Z M 672.402344 384.761719 " fill-opacity="1" fill-rule="nonzero"/><path fill="#ffffff" d="M 732.492188 384.761719 C 724.539062 384.761719 720.511719 388.683594 720.511719 396.566406 L 720.511719 426.160156 C 720.511719 433.960938 724.40625 437.476562 732.320312 437.902344 L 780.113281 437.902344 C 781.652344 437.902344 783.234375 437.449219 784.675781 436.402344 C 786.074219 435.019531 786.40625 433.449219 786.40625 431.789062 C 786.40625 430.125 785.65625 428.585938 784.617188 427.171875 C 783.207031 426.132812 781.660156 425.4375 780 425.4375 L 779.160156 425.4375 C 779.160156 425.4375 779.050781 425.4375 778.988281 425.4375 L 738.007812 425.4375 C 736.472656 425.4375 735.4375 424.832031 734.230469 423.996094 C 733.390625 423.160156 733.214844 422.207031 733.214844 420.707031 L 733.160156 401.777344 C 733.160156 400.46875 733.367188 399.308594 734.230469 398.488281 C 735.46875 397.472656 736.523438 397.289062 738.066406 397.289062 L 768.195312 397.289062 C 769.769531 397.289062 771.167969 397.472656 772.035156 398.488281 C 772.828125 399.054688 773.507812 400.140625 773.476562 401.300781 C 773.457031 402.097656 772.859375 402.84375 772.210938 403.332031 C 771.390625 404.195312 770.417969 404.589844 768.917969 404.589844 L 742.921875 404.589844 C 741.296875 404.589844 740.191406 405.3125 738.792969 406.507812 C 737.390625 407.707031 737.0625 409.21875 737.0625 410.882812 C 737.0625 412.730469 737.378906 414.210938 738.792969 415.339844 C 740.207031 416.726562 741.375 417.476562 743.410156 417.476562 L 774.199219 417.476562 C 780.585938 417.738281 786.238281 410.46875 786.238281 402.882812 L 786.234375 398.902344 C 786.234375 390.984375 782.210938 384.765625 774.257812 384.765625 L 732.492188 384.765625 Z M 732.492188 384.761719 " fill-opacity="1" fill-rule="nonzero"/><path fill="#0060a1" d="M 537.230469 423.695312 L 537.230469 423.691406 C 537.230469 419.742188 535.683594 416.113281 532.988281 413.570312 C 529.976562 410.902344 526.621094 409.65625 522.226562 409.65625 L 496.898438 409.65625 C 492.878906 409.65625 489.519531 410.902344 486.507812 413.570312 C 483.445312 416.113281 481.894531 419.742188 481.894531 423.691406 L 481.894531 423.703125 C 481.894531 427.652344 483.441406 430.921875 486.507812 433.449219 C 489.519531 435.929688 492.878906 437.367188 496.898438 437.367188 L 522.226562 437.367188 C 526.621094 437.367188 529.976562 435.929688 532.988281 433.449219 C 535.679688 430.921875 537.230469 427.652344 537.230469 423.703125 Z M 537.230469 423.695312 " fill-opacity="1" fill-rule="nonzero"/><path fill="#ffffff" d="M 639.289062 425.308594 C 639.289062 432.511719 633.558594 438.238281 626.355469 438.238281 C 618.785156 438.238281 613.050781 432.511719 613.050781 425.308594 C 613.050781 417.734375 618.785156 412.007812 626.355469 412.007812 C 633.558594 412.007812 639.289062 417.734375 639.289062 425.308594 Z M 639.289062 425.308594 " fill-opacity="1" fill-rule="nonzero"/></svg>