<svg xmlns="http://www.w3.org/2000/svg" xmlns:xlink="http://www.w3.org/1999/xlink" width="1080" zoomAndPan="magnify" viewBox="0 0 810 809.999993" height="1080" preserveAspectRatio="xMidYMid meet" version="1.0"><rect x="-81" width="972" fill="#ffffff" y="-80.999999" height="971.999992" fill-opacity="1"/><rect x="-81" width="972" fill="#ffffff" y="-80.999999" height="971.999992" fill-opacity="1"/><path fill="#00558c" d="M 96.929688 -1.820312 C 96.929688 -1.820312 11.496094 -1.820312 11.496094 86.375 L 11.496094 810.292969 L 712.027344 810.292969 C 712.027344 810.292969 797.464844 810.292969 797.464844 722.097656 L 797.464844 -1.820312 " fill-opacity="1" fill-rule="nonzero"/><path fill="#ffffff" d="M 745.324219 676.78125 C 745.324219 663.300781 739.316406 656.640625 726.972656 656.640625 L 714.953125 656.480469 C 701.796875 656.640625 695.136719 663.625 695.136719 677.105469 L 695.296875 700.660156 L 695.296875 701.144531 C 695.296875 714.300781 701.632812 720.960938 714.300781 721.125 L 743.214844 721.125 L 743.214844 706.507812 L 714.140625 706.507812 C 710.730469 706.507812 708.78125 704.394531 708.78125 700.332031 L 708.78125 695.949219 L 745.164062 695.949219 M 709.105469 677.105469 L 709.105469 676.296875 C 709.105469 672.722656 710.890625 670.933594 714.628906 670.933594 L 727.132812 670.933594 C 730.21875 670.933594 731.84375 672.882812 731.84375 676.78125 L 731.84375 681.65625 L 708.941406 681.65625 Z M 689.125 706.667969 L 669.3125 706.667969 C 663.949219 706.667969 661.191406 704.230469 661.191406 699.195312 L 661.191406 679.707031 C 661.191406 673.859375 663.789062 671.097656 668.984375 671.097656 L 688.964844 671.097656 L 688.964844 656.640625 L 670.285156 656.640625 C 655.019531 656.640625 647.382812 664.277344 647.382812 679.707031 L 647.382812 680.191406 L 647.222656 698.222656 C 647.222656 713.652344 655.015625 721.285156 670.285156 721.285156 L 688.800781 721.285156 L 688.800781 706.667969 Z M 689.125 706.667969 " fill-opacity="1" fill-rule="nonzero"/><path fill="#ffffff" d="M 640.398438 677.105469 C 640.398438 663.464844 634.390625 656.480469 622.207031 656.480469 L 611 656.480469 C 607.589844 656.480469 604.667969 657.777344 602.390625 660.214844 L 602.390625 656.480469 L 588.75 656.480469 L 588.75 720.960938 L 602.554688 720.960938 L 602.554688 680.03125 C 602.554688 673.859375 605.316406 670.773438 610.675781 670.773438 L 620.097656 670.773438 C 624.644531 670.773438 626.917969 673.371094 626.917969 678.40625 L 626.917969 720.960938 L 640.5625 720.960938 M 579.164062 720.960938 L 579.164062 678.246094 C 579.164062 664.277344 572.183594 656.96875 558.214844 656.480469 L 532.226562 656.316406 L 532.226562 670.773438 L 558.375 670.773438 C 563.085938 670.773438 565.359375 673.371094 565.359375 678.40625 L 565.359375 681.492188 L 548.144531 681.492188 C 535.472656 681.492188 528.976562 687.828125 528.976562 700.496094 L 528.976562 700.820312 C 528.976562 714.140625 534.988281 720.800781 547.332031 720.800781 L 579.164062 720.800781 Z M 546.679688 706.667969 C 543.757812 706.667969 542.296875 704.882812 542.296875 701.472656 C 542.296875 698.058594 543.757812 696.109375 546.679688 695.949219 L 565.359375 695.949219 L 565.359375 706.667969 Z M 523.78125 656.480469 L 515.332031 656.480469 C 510.625 656.480469 506.886719 657.777344 504.125 660.378906 L 504.125 656.480469 L 490.484375 656.480469 L 490.484375 720.960938 L 504.125 720.960938 L 504.125 680.355469 C 504.125 674.019531 506.886719 670.933594 512.410156 670.933594 L 523.78125 670.933594 Z M 487.558594 634.714844 L 443.378906 634.714844 L 443.378906 720.960938 L 457.1875 720.960938 L 457.1875 684.902344 L 476.675781 684.902344 L 476.675781 670.449219 L 457.1875 670.449219 L 457.1875 649.007812 L 487.558594 649.007812 Z M 378.25 720.960938 C 391.242188 720.960938 397.902344 714.300781 398.0625 700.820312 L 398.0625 700.171875 C 398.0625 687.988281 391.40625 681.816406 378.085938 681.816406 L 365.417969 681.816406 C 361.519531 681.816406 359.570312 679.867188 359.570312 676.132812 C 359.570312 672.722656 361.03125 670.933594 364.117188 670.933594 L 394.976562 670.933594 L 394.976562 656.316406 L 365.09375 656.316406 C 352.746094 656.640625 346.414062 663.300781 346.25 676.296875 C 346.25 689.613281 352.585938 696.273438 365.253906 696.273438 L 378.410156 696.273438 C 382.308594 696.273438 384.421875 697.898438 384.746094 701.144531 C 384.746094 704.882812 382.472656 706.667969 378.085938 706.667969 L 348.199219 706.667969 L 348.199219 721.125 L 378.25 721.125 Z M 337.15625 720.960938 L 337.15625 678.246094 C 337.15625 664.277344 330.171875 656.96875 316.203125 656.480469 L 290.214844 656.316406 L 290.214844 670.773438 L 316.363281 670.773438 C 321.074219 670.773438 323.347656 673.371094 323.347656 678.40625 L 323.347656 681.492188 L 306.132812 681.492188 C 293.464844 681.492188 286.964844 687.828125 286.964844 700.496094 L 286.964844 700.820312 C 286.964844 714.140625 293.136719 720.800781 305.320312 720.800781 L 337.15625 720.800781 Z M 304.832031 706.667969 C 301.910156 706.667969 300.449219 704.882812 300.449219 701.472656 C 300.449219 698.058594 301.910156 696.109375 304.832031 695.949219 L 323.511719 695.949219 L 323.511719 706.667969 Z M 278.195312 706.667969 C 269.585938 706.667969 265.363281 704.070312 265.363281 698.546875 L 265.363281 670.933594 L 278.195312 670.933594 L 278.195312 656.480469 L 265.363281 656.480469 L 265.363281 634.714844 L 251.71875 634.714844 L 251.71875 698.222656 C 251.71875 713.488281 259.191406 720.960938 273.972656 720.960938 L 278.195312 720.960938 Z M 238.5625 656.316406 L 224.757812 656.316406 L 224.757812 720.960938 L 238.5625 720.960938 Z M 238.5625 634.550781 L 224.757812 634.550781 L 224.757812 648.359375 L 238.5625 648.359375 Z M 216.960938 656.480469 L 208.515625 656.480469 C 203.804688 656.480469 200.070312 657.777344 197.308594 660.378906 L 197.308594 656.480469 L 183.664062 656.480469 L 183.664062 720.960938 L 197.308594 720.960938 L 197.308594 680.355469 C 197.308594 674.019531 200.070312 670.933594 205.59375 670.933594 L 216.960938 670.933594 Z M 216.960938 656.480469 " fill-opacity="1" fill-rule="nonzero"/><path fill="#ffffff" d="M 170.671875 720.960938 L 170.671875 678.246094 C 170.671875 664.277344 163.6875 656.96875 149.71875 656.480469 L 123.730469 656.316406 L 123.730469 670.773438 L 149.882812 670.773438 C 154.589844 670.773438 156.867188 673.371094 156.867188 678.246094 L 156.867188 681.332031 L 139.648438 681.332031 C 126.980469 681.332031 120.484375 687.664062 120.484375 700.332031 L 120.484375 700.660156 C 120.484375 713.976562 126.492188 720.636719 138.675781 720.636719 M 138.1875 706.667969 C 135.261719 706.667969 133.800781 704.882812 133.800781 701.472656 C 133.800781 698.058594 135.261719 696.109375 138.1875 695.949219 L 156.867188 695.949219 L 156.867188 706.667969 Z M 113.011719 706.667969 L 85.238281 706.667969 C 80.363281 706.667969 77.765625 703.09375 77.765625 695.625 L 77.765625 695.136719 L 77.601562 657.453125 C 77.601562 651.933594 80.527344 649.007812 86.210938 649.007812 L 113.011719 649.007812 L 113.011719 634.878906 L 87.1875 634.878906 C 71.59375 634.878906 63.960938 642.835938 63.960938 658.914062 L 63.960938 694.8125 C 63.960938 712.351562 71.917969 720.960938 87.671875 720.960938 L 113.171875 720.960938 L 113.171875 706.667969 Z M 113.011719 706.667969 " fill-opacity="1" fill-rule="nonzero"/><path fill="#ffffff" d="M 210.628906 356.644531 L 177.007812 356.644531 C 168.558594 356.644531 164.335938 361.195312 164.335938 370.453125 C 164.5 380.199219 167.746094 385.070312 174.40625 385.070312 L 185.9375 385.070312 C 205.429688 385.070312 215.011719 395.304688 215.011719 415.769531 L 215.011719 419.667969 C 215.011719 440.457031 203.644531 450.6875 181.066406 450.6875 L 146.144531 450.6875 L 146.144531 431.847656 L 184.476562 431.847656 C 192.761719 431.847656 196.820312 427.460938 196.820312 418.691406 L 196.820312 418.203125 C 196.820312 408.621094 193.25 403.910156 186.265625 403.910156 L 173.917969 403.910156 C 155.402344 403.75 146.144531 393.027344 146.144531 371.75 L 146.144531 367.851562 C 146.144531 347.875 157.351562 337.96875 179.605469 337.96875 L 210.464844 337.96875 " fill-opacity="1" fill-rule="nonzero"/><path fill="#ffffff" d="M 247.171875 399.363281 L 277.382812 399.363281 L 277.382812 393.027344 C 277.382812 387.992188 275.273438 385.558594 271.210938 385.558594 L 254.644531 385.558594 C 249.773438 385.558594 247.335938 387.832031 247.335938 392.542969 L 247.335938 393.679688 M 295.414062 418.203125 L 247.171875 418.203125 L 247.171875 423.890625 C 247.335938 429.25 249.609375 432.011719 254.320312 432.011719 L 292.976562 432.011719 L 292.976562 450.851562 L 254.480469 450.851562 C 237.589844 450.6875 229.304688 442.082031 229.304688 424.863281 L 229.304688 424.375 L 229.144531 393.515625 C 229.144531 375.8125 237.914062 366.714844 255.457031 366.554688 L 271.375 366.714844 C 287.617188 366.714844 295.738281 375.488281 295.738281 393.027344 L 295.738281 418.203125 Z M 295.414062 418.203125 " fill-opacity="1" fill-rule="nonzero"/><path fill="#ffffff" d="M 364.605469 450.851562 L 339.917969 450.851562 C 319.449219 450.851562 309.21875 440.78125 309.21875 420.804688 L 309.542969 397.414062 L 309.542969 396.925781 C 309.542969 376.949219 319.613281 366.878906 339.753906 366.878906 L 364.605469 366.878906 L 364.605469 385.71875 L 337.96875 385.71875 C 330.984375 385.71875 327.574219 389.457031 327.574219 396.925781 L 327.574219 422.265625 C 327.574219 428.761719 331.144531 432.011719 338.292969 432.011719 L 364.605469 432.011719 " fill-opacity="1" fill-rule="nonzero"/><path fill="#ffffff" d="M 428.597656 396.925781 C 428.597656 389.457031 425.511719 385.71875 419.503906 385.71875 L 405.535156 385.71875 C 399.527344 385.71875 396.601562 389.457031 396.441406 396.925781 L 396.441406 420.964844 C 396.441406 428.273438 399.527344 432.011719 405.535156 432.011719 L 419.503906 432.011719 C 425.511719 432.011719 428.597656 428.113281 428.597656 420.476562 M 446.789062 423.078125 C 446.628906 441.59375 438.183594 450.851562 421.941406 450.851562 L 403.261719 450.851562 C 386.855469 450.851562 378.574219 441.59375 378.574219 423.078125 L 378.574219 393.839844 C 378.574219 375.8125 386.855469 366.714844 403.261719 366.714844 L 421.941406 366.714844 C 438.34375 366.714844 446.628906 375.8125 446.789062 393.839844 Z M 446.789062 423.078125 " fill-opacity="1" fill-rule="nonzero"/><path fill="#ffffff" d="M 528.976562 450.6875 L 510.625 450.6875 L 510.625 448.253906 C 507.539062 449.878906 503.640625 450.6875 498.929688 450.6875 L 487.070312 450.6875 C 469.53125 450.6875 460.757812 440.292969 460.757812 419.339844 L 460.757812 366.554688 L 478.789062 366.554688 L 478.789062 419.828125 C 478.789062 427.789062 482.199219 431.847656 489.183594 431.847656 L 499.742188 431.847656 C 507.210938 431.6875 510.949219 427.136719 510.949219 418.203125 L 510.949219 366.554688 L 529.140625 366.554688 " fill-opacity="1" fill-rule="nonzero"/><path fill="#ffffff" d="M 591.511719 385.71875 L 576.730469 385.71875 C 569.257812 385.71875 565.683594 389.78125 565.683594 398.0625 L 565.683594 451.015625 L 547.65625 451.015625 L 547.65625 366.878906 L 565.683594 366.878906 L 565.683594 371.914062 C 569.257812 368.503906 574.292969 366.878906 580.464844 366.878906 L 591.511719 366.878906 " fill-opacity="1" fill-rule="nonzero"/><path fill="#ffffff" d="M 603.042969 450.851562 L 603.042969 432.011719 L 638.449219 432.011719 C 643.808594 432.011719 646.570312 429.574219 646.734375 424.863281 C 646.410156 420.640625 643.808594 418.53125 638.9375 418.53125 L 623.996094 418.53125 C 608.566406 418.53125 600.769531 409.921875 600.769531 392.703125 C 600.929688 375.972656 608.726562 367.367188 623.832031 366.878906 L 659.242188 366.878906 L 659.242188 385.71875 L 622.695312 385.71875 C 618.960938 385.71875 617.011719 387.992188 617.011719 392.378906 C 617.011719 397.25 619.445312 399.6875 624.320312 399.6875 L 638.613281 399.6875 C 654.855469 399.6875 662.976562 407.648438 662.976562 423.726562 L 662.976562 424.703125 C 662.8125 442.242188 654.691406 451.015625 638.773438 451.015625 " fill-opacity="1" fill-rule="nonzero"/><path fill="#ffffff" d="M 129.089844 578.679688 L 95.308594 578.679688 C 74.355469 578.679688 63.960938 567.308594 63.960938 544.570312 L 63.960938 497.792969 C 63.960938 477 74.191406 466.445312 94.65625 466.445312 L 128.929688 466.445312 L 128.929688 484.796875 L 93.359375 484.796875 C 85.722656 484.796875 81.988281 488.371094 81.988281 495.679688 L 82.152344 544.894531 L 82.152344 545.542969 C 82.152344 555.128906 85.398438 559.835938 92.058594 559.835938 L 129.089844 559.835938 " fill-opacity="1" fill-rule="nonzero"/><path fill="#ffffff" d="M 190 559.835938 L 190 546.03125 L 165.148438 546.03125 C 161.25 546.355469 159.300781 548.628906 159.300781 553.179688 C 159.300781 557.726562 161.25 559.835938 165.148438 559.835938 M 165.796875 578.679688 C 149.554688 578.679688 141.433594 570.070312 141.433594 552.527344 L 141.433594 552.042969 C 141.433594 535.472656 149.882812 527.191406 166.773438 527.191406 L 189.675781 527.191406 L 189.675781 523.292969 C 189.675781 516.796875 186.589844 513.382812 180.417969 513.382812 L 145.660156 513.382812 L 145.660156 494.542969 L 180.09375 494.867188 C 198.609375 495.355469 207.867188 504.777344 207.867188 523.128906 L 207.867188 578.679688 Z M 165.796875 578.679688 " fill-opacity="1" fill-rule="nonzero"/><path fill="#ffffff" d="M 259.515625 578.679688 L 253.996094 578.679688 C 234.179688 578.679688 224.269531 568.769531 224.269531 549.117188 L 224.269531 466.445312 L 242.300781 466.445312 L 242.300781 494.707031 L 259.515625 494.707031 L 259.515625 513.546875 L 242.300781 513.546875 L 242.300781 549.441406 C 242.300781 556.425781 247.984375 560 259.515625 560 " fill-opacity="1" fill-rule="nonzero"/><path fill="#ffffff" d="M 346.414062 578.679688 L 328.222656 578.679688 L 328.222656 523.292969 C 328.222656 516.796875 325.136719 513.382812 319.125 513.382812 L 306.621094 513.382812 C 299.472656 513.382812 295.898438 517.445312 295.898438 525.402344 L 295.898438 578.679688 L 277.707031 578.679688 L 277.707031 465.792969 L 295.898438 465.792969 L 296.0625 499.417969 C 299.148438 496.167969 303.046875 494.542969 307.433594 494.542969 L 322.210938 494.542969 C 338.292969 494.542969 346.414062 503.476562 346.414062 521.34375 " fill-opacity="1" fill-rule="nonzero"/><path fill="#ffffff" d="M 411.546875 524.753906 C 411.546875 517.28125 408.460938 513.546875 402.449219 513.546875 L 388.480469 513.546875 C 382.472656 513.546875 379.546875 517.28125 379.386719 524.753906 L 379.386719 548.792969 C 379.386719 556.101562 382.472656 559.835938 388.480469 559.835938 L 402.449219 559.835938 C 408.460938 559.835938 411.546875 555.941406 411.546875 548.304688 M 429.738281 551.066406 C 429.574219 569.582031 421.128906 578.679688 404.886719 578.679688 L 386.207031 578.679688 C 369.640625 578.679688 361.519531 569.421875 361.519531 551.066406 L 361.519531 521.832031 C 361.519531 503.800781 369.800781 494.707031 386.207031 494.707031 L 404.886719 494.707031 C 421.289062 494.707031 429.574219 503.800781 429.738281 521.832031 Z M 429.738281 551.066406 " fill-opacity="1" fill-rule="nonzero"/><path fill="#ffffff" d="M 443.867188 466.445312 L 462.222656 466.445312 L 462.222656 578.679688 L 443.867188 578.679688 Z M 443.867188 466.445312 " fill-opacity="1" fill-rule="nonzero"/><path fill="#ffffff" d="M 499.742188 578.679688 L 481.386719 578.679688 L 481.386719 494.542969 L 499.742188 494.542969 M 499.742188 483.984375 L 481.386719 483.984375 L 481.386719 466.121094 L 499.742188 466.121094 Z M 499.742188 483.984375 " fill-opacity="1" fill-rule="nonzero"/><path fill="#ffffff" d="M 533.851562 551.554688 C 533.851562 557.078125 536.9375 559.835938 543.109375 560 L 563.25 559.835938 L 563.25 513.710938 L 541.808594 513.710938 C 536.449219 513.710938 533.6875 516.796875 533.6875 522.804688 M 563.25 606.453125 L 563.25 578.515625 L 542.621094 578.515625 C 524.265625 578.515625 515.007812 569.257812 515.007812 550.90625 L 515.007812 522.804688 C 515.007812 504.453125 523.78125 495.03125 540.996094 494.867188 L 581.113281 494.867188 L 581.113281 606.617188 L 563.25 606.617188 Z M 563.25 606.453125 " fill-opacity="1" fill-rule="nonzero"/><path fill="#ffffff" d="M 665.25 578.515625 L 646.898438 578.515625 L 646.898438 576.078125 C 643.808594 577.703125 639.914062 578.515625 635.203125 578.515625 L 623.34375 578.515625 C 605.804688 578.515625 597.03125 568.121094 597.03125 547.167969 L 597.03125 494.542969 L 615.0625 494.542969 L 615.0625 547.816406 C 615.0625 555.777344 618.472656 559.835938 625.457031 559.835938 L 636.015625 559.835938 C 643.484375 559.675781 647.222656 555.128906 647.222656 546.195312 L 647.222656 494.542969 L 665.414062 494.542969 " fill-opacity="1" fill-rule="nonzero"/><path fill="#ffffff" d="M 697.246094 527.351562 L 727.457031 527.351562 L 727.457031 521.019531 C 727.457031 515.984375 725.347656 513.546875 721.285156 513.546875 L 704.71875 513.546875 C 699.847656 513.546875 697.410156 515.820312 697.410156 520.53125 L 697.410156 521.503906 M 745.324219 546.195312 L 697.085938 546.195312 L 697.085938 551.878906 C 697.246094 557.238281 699.523438 560 704.230469 560 L 745.324219 560 L 745.324219 578.839844 L 704.394531 578.839844 C 687.664062 578.679688 679.21875 570.070312 679.21875 552.851562 L 679.21875 552.367188 L 679.054688 521.667969 C 679.054688 503.964844 687.828125 494.867188 705.367188 494.707031 L 721.285156 494.867188 C 737.527344 494.867188 745.488281 503.640625 745.488281 521.179688 L 745.488281 546.195312 Z M 745.324219 546.195312 " fill-opacity="1" fill-rule="nonzero"/><path fill="#ffffff" d="M 279.332031 148.257812 C 278.359375 146.308594 276.894531 144.683594 274.296875 144.683594 C 273.484375 144.683594 272.671875 144.847656 271.859375 145.171875 C 268.449219 146.632812 268.9375 150.691406 269.75 153.78125 C 270.722656 157.027344 271.375 160.4375 271.859375 164.011719 C 272.347656 166.9375 272.671875 170.023438 272.996094 172.945312 C 273.160156 173.757812 273.160156 174.570312 273.324219 175.542969 C 273.808594 180.417969 274.785156 218.425781 275.109375 220.699219 C 275.273438 222.160156 275.597656 223.621094 276.085938 224.921875 C 276.246094 225.40625 276.410156 225.734375 276.734375 226.058594 C 277.222656 227.03125 278.195312 227.683594 279.332031 227.519531 C 279.65625 227.519531 279.980469 227.355469 280.46875 227.195312 C 282.417969 226.058594 282.742188 223.460938 283.230469 221.511719 C 284.042969 217.613281 284.53125 207.054688 284.53125 205.917969 C 284.53125 203.15625 284.53125 195.035156 284.53125 193.734375 C 284.53125 189.1875 284.042969 174.570312 283.878906 171.972656 C 283.71875 168.722656 283.230469 165.472656 282.90625 162.226562 C 282.742188 160.761719 282.417969 159.140625 282.09375 157.839844 C 281.605469 155.566406 281.121094 153.453125 280.46875 151.34375 C 279.980469 150.042969 279.65625 149.070312 279.332031 148.257812 " fill-opacity="1" fill-rule="nonzero"/><path fill="#ffffff" d="M 361.03125 201.042969 C 361.03125 201.042969 370.453125 198.285156 371.425781 203.15625 C 371.425781 203.15625 373.863281 208.355469 364.441406 210.464844 C 364.441406 210.464844 362.007812 211.113281 361.195312 211.277344 C 359.894531 211.601562 354.210938 213.0625 352.585938 213.390625 C 350.636719 213.875 342.515625 215.988281 340.402344 216.636719 C 338.128906 217.285156 328.710938 219.886719 326.433594 220.699219 C 324 221.511719 321.726562 222.160156 319.289062 222.972656 C 316.851562 223.785156 314.253906 224.597656 311.816406 225.570312 C 311.167969 225.734375 310.679688 226.058594 310.03125 226.21875 C 307.757812 227.03125 305.320312 228.007812 303.046875 228.980469 C 300.609375 229.957031 294.761719 233.203125 294.113281 233.527344 C 294.113281 233.527344 289.566406 236.289062 287.292969 237.753906 C 276.894531 244.898438 270.238281 246.683594 269.910156 243.597656 C 269.585938 240.839844 273.160156 238.726562 274.945312 237.265625 C 277.871094 234.992188 281.28125 232.71875 284.53125 230.605469 C 284.53125 230.605469 292.328125 225.734375 296.222656 223.460938 C 298.171875 222.320312 309.542969 216.960938 313.441406 215.664062 C 317.828125 214.039062 322.210938 212.578125 326.597656 211.113281 C 330.332031 209.816406 346.902344 204.941406 351.449219 203.644531 C 354.535156 202.667969 357.78125 201.855469 361.03125 201.042969 " fill-opacity="1" fill-rule="nonzero"/><path fill="#ffffff" d="M 352.097656 231.417969 C 353.558594 230.117188 355.671875 228.65625 356.972656 230.769531 C 357.296875 231.417969 357.132812 232.230469 356.808594 232.878906 C 356.484375 233.691406 353.398438 237.914062 352.746094 238.726562 C 349.988281 242.789062 339.589844 257.730469 338.292969 259.355469 C 335.207031 263.738281 328.382812 273.160156 318.3125 286.15625 C 315.066406 290.050781 311.980469 294.601562 307.757812 297.523438 C 306.621094 298.335938 304.996094 299.148438 303.695312 298.171875 C 299.148438 294.925781 304.832031 288.429688 307.433594 284.042969 C 312.792969 276.734375 316.039062 272.023438 320.75 266.339844 C 325.296875 260.816406 330.007812 255.457031 334.554688 249.933594 C 336.34375 247.824219 338.292969 245.710938 340.078125 243.597656 C 342.027344 241.324219 344.140625 239.050781 346.25 236.777344 C 347.875 235.152344 349.335938 233.527344 350.960938 231.90625 C 351.449219 232.066406 351.773438 231.742188 352.097656 231.417969 " fill-opacity="1" fill-rule="nonzero"/><path fill="#ffffff" d="M 380.035156 204.617188 C 381.820312 203.15625 384.421875 202.992188 386.53125 203.804688 C 387.667969 204.292969 388.644531 204.941406 389.128906 206.078125 C 389.128906 206.078125 389.457031 208.839844 389.128906 210.140625 C 388.480469 213.875 372.402344 278.519531 371.589844 280.632812 C 370.289062 284.367188 368.828125 288.265625 366.390625 291.515625 C 365.578125 292.652344 364.117188 294.277344 362.65625 293.949219 C 361.03125 293.625 360.707031 291.351562 360.542969 290.050781 C 360.542969 289.242188 375.488281 216.800781 376.460938 212.902344 C 377.113281 211.277344 378.898438 205.59375 380.035156 204.617188 " fill-opacity="1" fill-rule="nonzero"/><path fill="#ffffff" d="M 366.390625 297.035156 C 366.390625 297.035156 363.46875 297.523438 362.65625 298.824219 C 362.007812 299.796875 362.007812 301.097656 362.332031 302.070312 C 363.46875 304.671875 367.203125 304.671875 369.476562 304.671875 C 370.128906 304.671875 374.835938 304.671875 376.625 304.671875 C 380.199219 304.671875 383.769531 304.671875 387.34375 304.832031 C 389.457031 304.832031 391.566406 304.996094 393.679688 305.15625 C 398.875 305.484375 403.75 306.132812 408.785156 307.269531 C 412.03125 307.917969 415.28125 308.730469 418.53125 309.542969 C 421.289062 310.191406 428.597656 312.140625 429.574219 312.46875 C 432.496094 313.117188 435.421875 313.929688 438.34375 314.578125 C 442.730469 315.714844 453.9375 318.800781 455.238281 318.964844 C 455.238281 318.964844 459.621094 319.289062 461.734375 318.800781 C 464.820312 318.3125 467.257812 316.527344 467.90625 313.277344 C 468.554688 309.867188 467.257812 306.457031 465.308594 303.535156 C 463.359375 300.449219 461.410156 297.523438 459.621094 294.4375 C 458.324219 292.164062 454.585938 285.179688 454.101562 283.878906 C 452.476562 279.820312 448.902344 268.9375 448.414062 267.800781 C 446.789062 262.929688 441.269531 245.875 439.96875 242.300781 C 439.644531 241.164062 432.011719 219.398438 431.199219 217.285156 C 430.546875 215.335938 427.789062 208.839844 426.976562 207.542969 C 426.488281 206.890625 425.839844 206.078125 425.675781 205.269531 C 425.511719 202.992188 429.085938 203.96875 430.222656 204.292969 C 430.222656 204.292969 433.960938 204.941406 435.746094 205.269531 C 435.746094 205.269531 446.789062 207.378906 452.3125 208.679688 C 452.3125 208.679688 464.332031 211.765625 470.015625 214.199219 C 473.265625 215.664062 492.433594 224.109375 495.03125 225.40625 C 498.117188 226.871094 510.136719 232.230469 513.058594 233.527344 C 515.820312 234.828125 525.890625 239.539062 528.164062 240.675781 C 528.164062 240.675781 539.046875 245.222656 539.535156 239.214844 C 539.695312 231.417969 534.5 230.117188 526.703125 226.21875 C 523.941406 224.757812 499.578125 213.550781 495.355469 211.765625 C 490.644531 209.976562 485.933594 208.191406 481.226562 206.566406 C 476.191406 204.941406 471.15625 203.320312 466.121094 202.019531 C 460.921875 200.71875 455.886719 199.421875 450.6875 198.609375 C 449.226562 198.285156 435.910156 196.496094 430.875 196.335938 C 430.222656 196.335938 429.738281 196.335938 429.085938 196.335938 C 428.273438 196.335938 421.128906 196.660156 419.992188 197.144531 C 419.015625 197.632812 418.203125 198.445312 417.878906 199.421875 C 417.554688 200.394531 418.042969 204.292969 418.203125 205.105469 C 418.367188 205.59375 419.828125 211.925781 420.152344 213.226562 C 420.476562 214.6875 422.101562 221.023438 422.425781 222.808594 C 422.914062 224.757812 423.402344 226.546875 423.890625 228.492188 C 425.1875 233.691406 432.335938 259.191406 432.984375 261.464844 C 433.632812 263.738281 438.507812 278.84375 439.320312 280.792969 C 439.96875 282.742188 442.894531 290.050781 443.542969 291.675781 C 444.191406 293.300781 446.953125 298.824219 447.765625 299.960938 C 448.738281 301.421875 449.714844 302.722656 450.851562 304.019531 C 450.6875 303.859375 454.261719 308.242188 444.191406 304.347656 C 442.40625 303.695312 440.945312 303.207031 439.320312 302.882812 C 433.308594 300.933594 417.390625 297.523438 415.605469 297.199219 C 411.546875 296.550781 400.824219 295.25 399.6875 295.25 C 396.113281 294.925781 392.542969 294.925781 389.128906 294.925781 C 385.558594 294.925781 381.820312 295.085938 378.25 295.574219 C 374.675781 295.574219 366.390625 297.035156 366.390625 297.035156 " fill-opacity="1" fill-rule="nonzero"/><path fill="#ffffff" d="M 453.773438 226.707031 C 453.125 226.707031 452.476562 226.871094 452.152344 227.519531 C 451.824219 228.007812 451.988281 228.65625 452.3125 229.144531 C 452.636719 229.792969 453.125 230.28125 453.613281 230.769531 C 453.773438 231.09375 455.238281 233.042969 455.722656 233.691406 C 458 236.941406 460.433594 240.1875 462.707031 243.273438 C 463.359375 244.25 466.769531 248.796875 467.742188 250.097656 C 470.34375 253.507812 473.101562 257.082031 475.863281 260.328125 C 476.675781 261.304688 483.824219 270.722656 486.585938 274.296875 C 487.558594 275.433594 490.808594 278.683594 491.621094 279.007812 C 493.894531 279.65625 497.46875 279.820312 497.628906 276.734375 C 497.628906 274.136719 495.679688 272.023438 494.054688 270.238281 C 491.621094 267.3125 480.414062 253.183594 477.8125 250.582031 C 476.351562 249.121094 474.890625 247.496094 473.589844 246.035156 C 472.617188 244.898438 467.742188 239.214844 466.121094 237.589844 C 464.496094 235.804688 462.707031 234.015625 460.921875 232.230469 C 459.621094 230.929688 458.324219 229.792969 457.023438 228.65625 C 456.699219 228.492188 454.75 226.707031 453.773438 226.707031 " fill-opacity="1" fill-rule="nonzero"/><path fill="#ffffff" d="M 522.480469 160.4375 C 522.804688 159.464844 523.128906 158.488281 523.78125 157.675781 C 524.589844 156.703125 525.566406 156.214844 526.867188 156.054688 C 527.679688 156.054688 528.328125 156.054688 529.140625 156.214844 C 531.414062 156.539062 532.714844 158.164062 532.714844 160.113281 C 532.714844 163.523438 532.386719 164.335938 532.386719 166.609375 C 532.226562 170.671875 533.039062 180.902344 533.199219 182.042969 C 535.636719 200.234375 539.535156 218.585938 539.535156 220.535156 C 539.535156 221.835938 539.535156 223.132812 539.371094 224.433594 C 539.210938 224.757812 539.210938 225.246094 539.046875 225.570312 C 538.722656 226.382812 537.910156 227.195312 536.773438 227.355469 C 536.449219 227.355469 535.960938 227.355469 535.636719 227.195312 C 533.523438 226.546875 532.710938 224.597656 532.0625 222.972656 C 530.4375 219.722656 529.464844 216.3125 528.652344 213.0625 C 528.488281 212.089844 528.164062 211.113281 528.003906 210.140625 C 527.515625 207.867188 527.027344 205.59375 526.539062 203.320312 C 526.214844 202.179688 526.054688 201.042969 525.730469 199.90625 C 524.917969 196.007812 524.105469 192.109375 523.453125 188.214844 C 523.128906 185.9375 521.667969 176.195312 521.503906 174.570312 C 521.34375 172.296875 521.34375 170.023438 521.503906 167.585938 C 521.667969 165.960938 521.832031 164.5 521.992188 162.875 C 521.992188 162.0625 522.15625 161.25 522.480469 160.4375 " fill-opacity="1" fill-rule="nonzero"/><path fill="#ffffff" d="M 436.394531 163.523438 C 434.773438 163.6875 433.148438 163.523438 431.847656 164.660156 C 430.386719 165.960938 430.710938 169.210938 432.171875 170.671875 C 433.148438 171.644531 435.097656 171.808594 436.234375 171.808594 C 438.019531 171.972656 439.808594 171.808594 441.59375 171.972656 C 441.59375 171.972656 487.398438 170.832031 508.023438 163.039062 C 513.058594 161.089844 518.09375 158.652344 521.992188 154.917969 C 524.265625 152.96875 526.054688 150.53125 527.351562 147.769531 C 527.839844 146.632812 528.328125 145.820312 527.839844 144.683594 C 527.515625 143.871094 526.703125 142.898438 526.054688 142.410156 C 522.804688 139.972656 518.09375 143.546875 515.660156 145.496094 C 510.949219 149.070312 505.914062 151.503906 500.390625 153.617188 C 494.867188 155.726562 489.019531 157.351562 483.171875 158.488281 C 478.949219 159.300781 474.566406 160.113281 470.34375 160.601562 C 470.179688 160.601562 447.277344 162.550781 436.394531 163.523438 " fill-opacity="1" fill-rule="nonzero"/><path fill="#ffffff" d="M 457.023438 144.035156 C 456.210938 144.847656 455.238281 145.660156 454.101562 145.660156 C 453.289062 145.660156 452.636719 145.332031 452.3125 144.683594 C 451.988281 144.035156 452.152344 143.222656 452.476562 142.570312 C 452.800781 141.761719 453.449219 141.109375 453.9375 140.460938 C 454.101562 140.136719 454.425781 139.8125 454.585938 139.484375 C 455.238281 138.511719 455.886719 137.699219 456.375 136.726562 C 459.136719 132.664062 469.53125 117.722656 470.828125 116.097656 C 473.914062 111.710938 489.347656 91.410156 490.808594 89.296875 C 492.757812 86.699219 494.542969 83.9375 496.980469 81.664062 C 497.792969 80.851562 498.605469 80.039062 499.578125 79.714844 C 502.339844 78.902344 506.726562 78.578125 506.726562 82.476562 C 506.726562 85.722656 504.289062 88.324219 502.503906 90.757812 C 499.578125 94.496094 496.980469 98.230469 494.054688 101.964844 C 493.242188 102.941406 486.097656 112.035156 483.011719 115.449219 C 481.226562 117.398438 475.703125 124.054688 474.402344 125.519531 C 474.402344 125.519531 470.828125 129.742188 468.878906 131.851562 C 466.929688 134.125 464.820312 136.398438 462.707031 138.675781 C 462.707031 138.675781 459.621094 141.761719 458 143.222656 C 457.835938 143.382812 457.511719 143.710938 457.023438 144.035156 " fill-opacity="1" fill-rule="nonzero"/><path fill="#ffffff" d="M 319.777344 93.84375 C 318.800781 93.519531 317.664062 93.683594 316.691406 94.171875 C 314.902344 95.308594 314.253906 97.742188 314.578125 96.929688 C 310.519531 103.429688 334.230469 122.917969 336.019531 124.21875 C 343.652344 130.066406 352.421875 136.886719 355.996094 136.5625 C 355.347656 136.5625 359.082031 136.5625 358.433594 133.640625 C 358.109375 131.363281 328.546875 100.828125 326.273438 98.554688 C 325.136719 97.582031 320.914062 94.007812 319.777344 93.84375 " fill-opacity="1" fill-rule="nonzero"/><path fill="#ffffff" d="M 285.34375 130.390625 C 282.09375 128.605469 278.359375 127.953125 277.058594 132.339844 C 276.085938 135.589844 279.171875 137.863281 281.445312 139.484375 C 288.101562 144.195312 295.898438 147.933594 303.207031 151.503906 C 311.328125 155.566406 319.449219 159.300781 327.898438 162.710938 C 330.332031 163.6875 332.769531 164.660156 335.207031 165.636719 C 343.003906 168.722656 350.796875 171.644531 359.246094 172.78125 C 364.441406 173.433594 369.800781 173.433594 375 172.132812 C 377.921875 171.484375 384.421875 169.695312 384.90625 165.960938 C 385.070312 164.988281 384.90625 163.523438 384.582031 162.550781 C 382.796875 158.328125 376.300781 158.976562 372.726562 159.464844 C 365.417969 160.277344 357.945312 159.464844 350.796875 157.839844 C 343.816406 156.378906 337.15625 154.265625 330.496094 151.832031 C 326.921875 150.53125 323.347656 148.90625 319.9375 147.445312 C 316.691406 145.820312 313.441406 144.195312 310.191406 142.570312 C 304.019531 139.484375 298.011719 136.5625 291.839844 133.476562 C 290.378906 132.664062 288.753906 132.015625 287.292969 131.203125 C 286.316406 131.039062 285.828125 130.714844 285.34375 130.390625 " fill-opacity="1" fill-rule="nonzero"/><path fill="#ffffff" d="M 360.382812 62.496094 C 358.921875 60.710938 356.972656 59.574219 354.695312 59.25 C 353.234375 58.925781 350.796875 58.597656 349.824219 59.898438 C 343.816406 67.207031 376.625 109.4375 385.71875 161.574219 C 385.882812 163.039062 386.695312 164.335938 387.507812 165.472656 C 388.320312 166.449219 389.457031 166.773438 390.59375 165.960938 C 391.40625 165.3125 391.566406 163.199219 391.730469 162.226562 C 392.703125 157.027344 392.378906 151.667969 391.730469 146.46875 C 391.242188 142.085938 389.941406 135.261719 388.804688 131.039062 C 387.183594 124.378906 381.335938 104.402344 378.898438 98.066406 C 376.460938 91.734375 374.023438 85.722656 370.9375 79.714844 C 370.613281 78.902344 370.128906 78.253906 369.800781 77.441406 C 367.851562 73.703125 361.03125 63.308594 360.382812 62.496094 " fill-opacity="1" fill-rule="nonzero"/><path fill="#ffffff" d="M 418.855469 164.988281 C 418.855469 164.988281 418.042969 170.832031 420.804688 170.832031 C 424.375 170.832031 426.652344 167.746094 427.625 164.660156 C 427.949219 163.523438 457.835938 73.21875 458.484375 69.96875 C 458.484375 69.96875 462.058594 66.234375 459.136719 60.710938 C 459.136719 60.710938 457.347656 59.25 459.949219 58.4375 C 459.949219 58.4375 464.65625 57.949219 464.820312 55.351562 C 464.820312 55.351562 466.769531 50.476562 457.671875 50.476562 C 455.886719 50.476562 454.101562 50.640625 452.3125 50.804688 C 447.441406 51.289062 442.730469 51.941406 437.859375 52.753906 C 434.609375 53.402344 431.359375 54.050781 428.113281 54.699219 C 424.703125 55.351562 421.289062 56 417.878906 56.488281 L 408.785156 58.113281 C 408.132812 58.273438 407.484375 58.273438 406.835938 58.4375 C 405.210938 58.761719 403.585938 58.925781 401.960938 59.085938 C 398.0625 59.574219 394.328125 59.898438 390.429688 60.0625 C 388.15625 60.222656 385.882812 60.222656 383.609375 60.222656 C 378.085938 60.0625 372.726562 59.734375 367.367188 59.25 C 366.554688 59.25 365.742188 59.085938 365.09375 58.925781 C 363.957031 58.597656 364.441406 60.386719 364.441406 60.875 C 364.605469 62.011719 364.441406 63.148438 364.28125 64.285156 C 364.28125 64.285156 363.46875 69.804688 370.9375 69.96875 C 373.375 69.96875 375.648438 70.132812 378.085938 70.132812 C 383.121094 70.132812 388.15625 70.292969 393.191406 70.132812 C 396.925781 70.132812 400.664062 69.96875 404.398438 69.804688 C 405.375 69.804688 406.183594 69.644531 407.160156 69.480469 C 407.160156 69.480469 434.773438 66.070312 443.054688 63.148438 C 443.054688 63.148438 450.6875 60.546875 450.039062 62.984375 C 450.039062 62.984375 450.851562 63.308594 446.464844 72.566406 C 446.304688 72.40625 420.476562 133.800781 418.855469 164.988281 " fill-opacity="1" fill-rule="nonzero"/></svg>