<svg xmlns="http://www.w3.org/2000/svg" xmlns:xlink="http://www.w3.org/1999/xlink" width="1080" zoomAndPan="magnify" viewBox="0 0 810 809.999993" height="1080" preserveAspectRatio="xMidYMid meet" version="1.0"><rect x="-81" width="972" fill="#ffffff" y="-80.999999" height="971.999992" fill-opacity="1"/><rect x="-81" width="972" fill="#ffffff" y="-80.999999" height="971.999992" fill-opacity="1"/><path fill="#f67200" d="M 364.589844 369.03125 C 356.746094 368.902344 350.605469 371.035156 348.914062 376.570312 C 345.410156 388.015625 368.070312 400.292969 378.753906 406.148438 C 381.046875 407.398438 382.03125 406.617188 380.578125 404.941406 C 373.828125 397.191406 364.226562 381.925781 377.777344 372.964844 C 378.4375 372.53125 379.238281 372.039062 379.960938 371.621094 L 380.175781 371.5 L 379.960938 371.464844 C 374.617188 370.003906 369.296875 369.109375 364.589844 369.03125 Z M 437.46875 402.933594 C 436.289062 402.707031 436.003906 403.457031 437.101562 404.710938 C 443.839844 412.460938 453.457031 427.722656 439.894531 436.6875 L 439.894531 436.679688 C 439.25 437.113281 438.460938 437.609375 437.726562 438.035156 L 437.503906 438.160156 L 437.726562 438.191406 C 451.960938 442.085938 466.050781 441.941406 468.761719 433.074219 C 472.265625 421.632812 449.613281 409.355469 438.917969 403.507812 C 438.347656 403.195312 437.859375 403.011719 437.46875 402.933594 Z M 437.46875 402.933594 " fill-opacity="1" fill-rule="nonzero"/><path fill="#231f20" d="M 723.089844 354.289062 C 718.78125 354.289062 715.289062 357.773438 715.289062 362.066406 C 715.289062 366.359375 718.78125 369.84375 723.089844 369.84375 C 727.386719 369.84375 730.871094 366.359375 730.871094 362.066406 C 730.871094 357.773438 727.386719 354.289062 723.089844 354.289062 Z M 562.636719 361.613281 L 562.636719 376.480469 L 550.648438 376.480469 L 550.648438 386.503906 L 562.636719 386.503906 L 562.636719 418.050781 C 562.636719 425.273438 564.0625 438.441406 582.371094 438.441406 C 586.960938 438.441406 589.902344 438.128906 593.945312 437.582031 L 593.945312 427.136719 C 593.945312 427.136719 589.773438 428.199219 586.0625 428.199219 C 576.378906 428.199219 574.265625 424.238281 574.265625 416.6875 L 574.265625 386.503906 L 593.40625 386.503906 L 593.40625 376.480469 L 574.265625 376.480469 L 574.265625 361.613281 Z M 629.910156 375.226562 C 610.671875 375.226562 596.269531 387.710938 596.269531 407.15625 L 596.269531 407.648438 C 596.269531 426.617188 610.75 438.859375 631.757812 438.859375 C 641.851562 438.859375 651.289062 436.339844 659.945312 428.058594 L 651.40625 420.578125 C 651.40625 420.578125 644.085938 428.207031 631.742188 428.207031 C 620.28125 428.207031 609.167969 420.960938 608.644531 411.359375 L 661.898438 411.136719 C 662.164062 408.730469 662.164062 406.085938 662.164062 406.085938 C 662.164062 389.164062 649.027344 375.226562 629.910156 375.226562 Z M 770.070312 375.605469 C 756.921875 375.605469 737.972656 383.542969 737.972656 406.921875 C 737.972656 430.078125 755.019531 438.734375 769.9375 438.734375 C 784.804688 438.734375 792.257812 430.488281 792.257812 430.488281 L 792.863281 438.71875 L 803.761719 438.71875 L 803.761719 376.429688 L 792.882812 376.429688 L 792.257812 384.15625 C 792.257812 384.15625 785.023438 375.605469 770.070312 375.605469 Z M 514.644531 375.648438 C 502.082031 375.648438 488.59375 380.390625 488.59375 393.089844 C 488.59375 404.085938 498.617188 407.507812 515.15625 410.613281 C 526.207031 412.683594 536.402344 413.738281 536.402344 419.683594 C 536.402344 423.433594 531.382812 428.242188 518.847656 428.242188 C 509.945312 428.242188 500.960938 426.378906 498.214844 420.050781 L 487.5 424.539062 C 491.894531 434.308594 503.550781 439.363281 517.066406 439.363281 C 544.054688 439.363281 549.269531 426.5625 549.269531 419.292969 C 549.269531 407.183594 537.191406 403.707031 525.140625 401.558594 C 513.152344 399.421875 501.367188 397.933594 501.367188 392.355469 C 501.367188 388.722656 504.992188 385.515625 515.476562 385.515625 C 523.277344 385.515625 532.273438 387.324219 534.714844 392.839844 L 545.765625 388.199219 C 541.542969 379.726562 529.023438 375.648438 514.644531 375.648438 Z M 704.179688 376.363281 C 694.636719 376.277344 687.617188 379.160156 681.976562 385.023438 L 681.351562 376.453125 L 670.0625 376.453125 L 670.0625 438.679688 L 681.976562 438.679688 L 681.976562 406.429688 C 681.976562 397.4375 689.238281 386.035156 708.429688 387.105469 L 708.429688 376.578125 C 706.957031 376.445312 705.542969 376.375 704.179688 376.363281 Z M 717.125 376.414062 L 717.125 438.59375 L 729.039062 438.59375 L 729.039062 376.414062 Z M 770.570312 386 C 782.117188 386 792.257812 392.535156 792.257812 406.808594 C 792.257812 421.074219 783.335938 428.207031 770.6875 428.207031 C 764.058594 428.207031 750.085938 423.988281 750.085938 407.054688 C 750.085938 389.847656 764.027344 386 770.570312 386 Z M 630.066406 386.324219 C 640.539062 386.324219 649.074219 393.371094 649.074219 401.828125 L 608.839844 401.828125 C 609.582031 393.234375 618.847656 386.324219 630.066406 386.324219 Z M 630.066406 386.324219 " fill-opacity="1" fill-rule="nonzero"/><path fill="#231f20" d="M 107.5625 375.597656 C 91.628906 375.597656 72.765625 383.542969 72.765625 406.925781 C 72.765625 430.078125 89.738281 439.074219 107.5625 439.074219 C 125.398438 439.074219 142.363281 430.078125 142.363281 406.925781 C 142.363281 383.542969 123.503906 375.597656 107.5625 375.597656 Z M 182.414062 375.605469 C 167.460938 375.605469 160.222656 384.15625 160.222656 384.15625 L 159.597656 376.429688 L 148.71875 376.429688 L 148.71875 455.46875 L 160.222656 455.46875 L 160.222656 429.269531 C 160.222656 429.269531 167.621094 438.734375 182.539062 438.734375 C 197.46875 438.734375 214.511719 431.550781 214.511719 406.921875 C 214.511719 382.296875 195.5625 375.605469 182.414062 375.605469 Z M 291.421875 375.605469 C 278.261719 375.605469 259.320312 383.542969 259.320312 406.921875 C 259.320312 430.078125 276.367188 438.734375 291.285156 438.734375 C 306.15625 438.734375 313.609375 430.488281 313.609375 430.488281 L 314.242188 438.71875 L 325.097656 438.71875 L 325.097656 376.429688 L 314.222656 376.429688 L 313.609375 384.15625 C 313.609375 384.15625 306.363281 375.605469 291.421875 375.605469 Z M 33.386719 375.648438 C 20.8125 375.648438 7.324219 380.390625 7.324219 393.089844 C 7.324219 404.085938 17.347656 407.507812 33.902344 410.613281 C 44.949219 412.683594 55.136719 413.738281 55.136719 419.683594 C 55.136719 423.433594 50.121094 428.242188 37.582031 428.242188 C 28.683594 428.242188 19.691406 426.378906 16.941406 420.050781 L 6.234375 424.539062 C 10.617188 434.308594 22.289062 439.363281 35.800781 439.363281 C 62.78125 439.363281 67.996094 426.5625 67.996094 419.292969 C 67.996094 407.183594 55.921875 403.707031 43.886719 401.558594 C 31.886719 399.421875 20.101562 397.933594 20.101562 392.355469 C 20.101562 388.722656 23.71875 385.515625 34.207031 385.515625 C 42.019531 385.515625 51.011719 387.324219 53.453125 392.839844 L 64.515625 388.199219 C 60.28125 379.726562 47.769531 375.648438 33.386719 375.648438 Z M 255.9375 376.363281 C 246.394531 376.277344 239.363281 379.160156 233.734375 385.023438 L 233.117188 376.453125 L 221.804688 376.453125 L 221.804688 438.679688 L 233.734375 438.679688 L 233.734375 406.429688 C 233.734375 397.4375 241.003906 386.035156 260.195312 387.105469 L 260.195312 376.578125 C 258.722656 376.445312 257.304688 376.375 255.9375 376.363281 Z M 291.921875 386 C 303.46875 386 313.609375 392.535156 313.609375 406.808594 C 313.609375 421.074219 304.6875 428.207031 292.039062 428.207031 C 285.398438 428.207031 271.4375 423.988281 271.4375 407.054688 C 271.4375 389.847656 285.363281 386 291.921875 386 Z M 181.914062 386.007812 C 188.457031 386.007812 202.410156 388.574219 202.410156 407.054688 C 202.410156 425.53125 188.421875 428.207031 181.796875 428.207031 C 169.148438 428.207031 160.222656 421.074219 160.222656 406.808594 C 160.222656 392.535156 170.367188 386.007812 181.914062 386.007812 Z M 107.5625 386.355469 C 115.949219 386.355469 130.242188 389.84375 130.242188 407.054688 C 130.242188 423.988281 117.351562 428.207031 107.5625 428.207031 C 97.78125 428.207031 84.867188 423.988281 84.867188 407.054688 C 84.867188 389.84375 99.1875 386.355469 107.5625 386.355469 Z M 107.5625 386.355469 " fill-opacity="1" fill-rule="nonzero"/><path fill="#de1823" d="M 429.734375 360.261719 C 398.089844 360.261719 380.167969 371.5 380.167969 371.5 C 401.179688 375.445312 442.730469 396.527344 456.070312 396.527344 C 461.261719 396.527344 463.753906 391.492188 463.753906 385.507812 C 463.753906 378.523438 461.261719 370.921875 456.660156 366.414062 C 452.300781 362.128906 441.988281 360.261719 429.734375 360.261719 Z M 361.609375 413.121094 C 356.421875 413.121094 353.933594 418.15625 353.933594 424.144531 C 353.933594 431.132812 356.421875 438.726562 361.011719 443.238281 C 365.382812 447.519531 375.699219 449.402344 387.957031 449.402344 C 419.585938 449.402344 437.519531 438.152344 437.519531 438.152344 C 416.507812 434.207031 374.953125 413.121094 361.609375 413.121094 Z M 361.609375 413.121094 " fill-opacity="1" fill-rule="nonzero"/></svg>