<svg xmlns="http://www.w3.org/2000/svg" xmlns:xlink="http://www.w3.org/1999/xlink" width="1080" zoomAndPan="magnify" viewBox="0 0 810 809.999993" height="1080" preserveAspectRatio="xMidYMid meet" version="1.0"><defs><clipPath id="d74a1a0248"><path d="M 1 376 L 130 376 L 130 462.910156 L 1 462.910156 Z M 1 376 " clip-rule="nonzero"/></clipPath></defs><rect x="-81" width="972" fill="#ffffff" y="-80.999999" height="971.999992" fill-opacity="1"/><rect x="-81" width="972" fill="#ffffff" y="-80.999999" height="971.999992" fill-opacity="1"/><g clip-path="url(#d74a1a0248)"><path fill="#222a51" d="M 128.660156 405.828125 C 133.503906 428.394531 109.285156 452.96875 74.171875 460.222656 C 39.460938 467.878906 7.171875 455.386719 1.925781 432.824219 C -2.917969 410.261719 21.703125 385.683594 56.414062 378.433594 C 91.527344 370.777344 123.816406 383.265625 128.660156 405.828125 Z M 128.660156 405.828125 " fill-opacity="1" fill-rule="nonzero"/></g><path fill="#ffffff" d="M 49.550781 376.820312 C 51.972656 370.777344 49.148438 373.597656 51.570312 366.34375 C 51.570312 366.34375 3.941406 450.550781 62.0625 453.371094 C 92.335938 454.582031 99.597656 442.496094 99.597656 442.496094 L 98.386719 440.882812 C 97.984375 441.285156 14.03125 467.878906 49.550781 376.820312 Z M 49.550781 376.820312 " fill-opacity="1" fill-rule="nonzero"/><path fill="#ffffff" d="M 37.847656 403.816406 C 37.847656 403.816406 61.253906 404.621094 70.941406 396.160156 C 74.171875 393.339844 67.308594 406.230469 67.308594 406.230469 C 67.308594 406.230469 45.109375 417.109375 37.847656 415.5 Z M 37.847656 403.816406 " fill-opacity="1" fill-rule="nonzero"/><path fill="#ffffff" d="M 106.058594 431.617188 C 102.828125 433.632812 98.792969 434.839844 94.753906 434.839844 C 80.628906 435.644531 68.117188 424.765625 67.308594 410.664062 C 66.503906 396.5625 76.996094 384.476562 90.71875 383.265625 C 91.125 383.265625 91.125 383.265625 91.527344 383.265625 C 91.527344 383.265625 70.539062 394.144531 74.980469 412.277344 C 79.417969 430.40625 102.828125 429.199219 102.828125 429.199219 Z M 106.058594 431.617188 " fill-opacity="1" fill-rule="nonzero"/><path fill="#222a51" d="M 47.53125 366.746094 L 47.128906 365.539062 C 46.726562 364.734375 47.53125 363.925781 47.53125 363.121094 C 47.53125 361.914062 48.742188 361.105469 48.339844 359.898438 C 49.148438 357.882812 49.953125 355.464844 52.375 355.0625 C 56.414062 354.257812 60.449219 355.464844 61.660156 359.09375 C 62.0625 361.105469 62.464844 362.71875 62.464844 364.332031 C 62.464844 365.539062 61.253906 367.554688 61.253906 368.761719 C 62.0625 367.554688 62.871094 366.34375 63.675781 364.734375 C 63.675781 368.359375 60.449219 371.582031 56.816406 372.792969 C 63.675781 370.777344 68.519531 362.71875 63.273438 353.050781 C 73.363281 362.71875 62.0625 377.222656 51.164062 374.804688 C 50.359375 374.804688 49.148438 374.402344 48.339844 374.402344 C 59.640625 377.625 72.960938 367.152344 65.695312 354.257812 C 62.464844 349.019531 54.796875 347.003906 48.742188 350.230469 C 47.128906 351.035156 45.515625 351.839844 44.304688 353.453125 C 41.480469 356.273438 40.269531 360.300781 40.269531 363.925781 C 39.863281 367.554688 43.496094 372.792969 46.320312 371.984375 C 45.917969 371.179688 45.109375 370.375 45.109375 369.566406 L 46.320312 369.972656 L 45.917969 369.566406 L 46.726562 369.972656 C 46.726562 369.566406 45.917969 369.164062 45.515625 369.164062 L 44.304688 368.359375 C 45.109375 368.761719 45.917969 369.164062 46.726562 369.566406 L 46.320312 369.164062 C 46.726562 369.164062 47.128906 369.566406 47.128906 369.566406 L 46.726562 367.957031 L 46.320312 366.746094 C 46.320312 367.152344 47.128906 367.554688 47.53125 367.554688 Z M 47.53125 366.746094 " fill-opacity="1" fill-rule="nonzero"/><path fill="#222a51" d="M 194.851562 388.101562 L 180.320312 388.101562 L 172.652344 437.257812 L 160.140625 438.464844 L 167.808594 388.101562 L 151.664062 388.101562 L 156.507812 376.820312 L 196.464844 376.820312 Z M 228.351562 390.519531 L 222.296875 402.605469 C 217.859375 402.605469 214.226562 403.816406 211.804688 406.230469 C 209.382812 408.648438 207.765625 412.277344 206.960938 417.515625 L 203.730469 437.257812 L 192.832031 438.464844 L 199.695312 392.9375 L 210.59375 391.726562 L 209.382812 399.382812 C 212.207031 395.757812 214.628906 393.742188 217.453125 392.535156 C 219.875 391.324219 223.507812 390.519531 228.351562 390.519531 Z M 273.554688 405.023438 L 238.84375 424.363281 C 240.460938 427.585938 243.285156 429.199219 246.917969 429.199219 C 251.359375 429.199219 257.007812 427.585938 263.0625 423.960938 L 265.886719 433.628906 C 259.832031 437.660156 252.972656 439.671875 246.109375 439.671875 C 238.84375 439.671875 233.597656 437.257812 229.5625 432.421875 C 225.527344 427.585938 223.910156 421.945312 225.121094 415.097656 C 226.332031 408.246094 229.5625 402.605469 235.214844 397.769531 C 240.863281 392.9375 246.917969 390.519531 253.78125 390.519531 C 258.621094 390.519531 262.660156 391.726562 266.292969 394.546875 C 269.925781 397.367188 272.347656 400.996094 273.554688 405.023438 Z M 259.429688 403.816406 C 257.410156 401.800781 254.988281 400.996094 251.761719 400.996094 C 248.128906 400.996094 244.496094 402.605469 241.265625 405.425781 C 238.039062 408.246094 236.019531 411.46875 235.617188 415.5 C 235.617188 415.902344 235.617188 416.304688 235.617188 417.109375 Z M 307.460938 424.363281 C 307.054688 428.390625 304.632812 431.617188 301.003906 434.4375 C 296.964844 437.660156 292.527344 439.269531 287.28125 439.269531 C 280.015625 439.269531 274.765625 436.851562 270.730469 432.019531 L 279.207031 424.765625 C 281.628906 427.988281 284.859375 430.003906 288.492188 430.003906 C 290.105469 430.003906 291.71875 429.601562 292.929688 428.796875 C 294.542969 427.988281 295.753906 426.378906 295.753906 424.765625 C 296.160156 423.15625 294.140625 421.542969 290.507812 420.335938 C 285.261719 418.722656 281.628906 417.515625 280.015625 416.304688 C 276.382812 413.886719 275.171875 409.859375 275.976562 404.621094 C 276.785156 400.1875 279.207031 396.5625 283.242188 394.144531 C 286.875 391.726562 290.910156 390.519531 295.753906 390.519531 C 302.214844 390.519531 307.054688 392.9375 310.6875 398.175781 L 301.808594 404.21875 C 299.792969 400.996094 297.371094 399.785156 294.140625 399.785156 C 292.929688 399.785156 291.316406 400.1875 290.105469 400.996094 C 288.894531 401.800781 288.085938 402.605469 288.085938 404.21875 C 287.683594 406.230469 289.296875 408.246094 293.332031 409.457031 C 298.984375 411.46875 302.617188 412.679688 303.828125 413.484375 C 307.054688 415.5 308.265625 419.125 307.460938 424.363281 Z M 345.804688 424.363281 C 345.398438 428.390625 342.976562 431.617188 339.347656 434.4375 C 335.308594 437.660156 330.871094 439.269531 325.621094 439.269531 C 318.359375 439.269531 313.109375 436.851562 309.074219 432.019531 L 317.550781 424.765625 C 319.972656 427.988281 323.199219 430.003906 326.832031 430.003906 C 328.449219 430.003906 330.0625 429.601562 331.273438 428.796875 C 332.886719 427.988281 334.097656 426.378906 334.097656 424.765625 C 334.503906 423.15625 332.484375 421.542969 328.851562 420.335938 C 323.605469 418.722656 319.972656 417.515625 318.359375 416.304688 C 314.726562 413.886719 313.515625 409.859375 314.320312 404.621094 C 315.128906 400.1875 317.550781 396.5625 321.585938 394.144531 C 325.21875 391.726562 329.253906 390.519531 334.097656 390.519531 C 340.554688 390.519531 345.398438 392.9375 349.03125 398.175781 L 340.152344 404.21875 C 338.132812 400.996094 335.714844 399.785156 332.484375 399.785156 C 331.273438 399.785156 329.660156 400.1875 328.449219 400.996094 C 327.238281 401.800781 326.429688 402.605469 326.429688 404.21875 C 326.027344 406.230469 327.640625 408.246094 331.675781 409.457031 C 337.328125 411.46875 340.960938 412.679688 342.171875 413.484375 C 344.996094 415.5 346.609375 419.125 345.804688 424.363281 Z M 400.695312 414.691406 C 399.484375 421.542969 396.253906 427.585938 390.601562 432.019531 C 384.953125 436.851562 378.902344 439.269531 372.039062 439.269531 C 365.175781 439.269531 359.527344 436.851562 355.488281 432.019531 C 351.453125 427.183594 349.839844 421.542969 350.648438 414.691406 C 351.859375 408.246094 355.085938 402.203125 360.332031 397.769531 C 365.984375 392.9375 372.445312 390.519531 379.707031 390.519531 C 386.972656 390.519531 392.621094 392.9375 396.660156 397.769531 C 400.292969 402.605469 401.90625 408.246094 400.695312 414.691406 Z M 389.796875 414.691406 C 390.203125 411.066406 389.390625 407.84375 387.375 405.023438 C 384.953125 402.203125 382.128906 400.996094 378.496094 400.996094 C 374.863281 400.996094 371.230469 402.203125 368 405.023438 C 364.773438 407.84375 362.753906 411.066406 362.351562 414.691406 C 361.949219 418.320312 362.753906 421.945312 364.773438 424.765625 C 367.195312 427.585938 370.019531 428.796875 374.054688 428.796875 C 377.6875 428.796875 381.324219 427.183594 384.550781 424.363281 C 387.375 421.945312 388.992188 418.722656 389.796875 414.691406 Z M 415.089844 437.257812 L 404.195312 438.464844 L 413.878906 376.417969 L 424.777344 375.207031 Z M 457.066406 418.320312 L 436.882812 418.320312 L 438.09375 409.859375 L 458.277344 409.859375 Z M 518.011719 422.347656 L 513.976562 437.257812 C 510.34375 438.464844 506.308594 439.269531 501.867188 439.269531 C 493.390625 439.269531 486.53125 436.046875 481.285156 429.601562 C 476.035156 423.15625 474.421875 415.902344 475.632812 407.039062 C 476.84375 398.175781 481.285156 390.921875 488.144531 384.476562 C 495.003906 378.027344 503.078125 374.804688 511.550781 374.804688 C 515.1875 374.804688 519.222656 375.613281 522.855469 376.820312 L 522.453125 391.726562 C 518.820312 388.503906 514.378906 386.488281 509.535156 386.488281 C 504.289062 386.488281 499.847656 388.503906 495.410156 392.535156 C 491.375 396.5625 488.546875 401.398438 487.742188 406.636719 C 486.933594 411.875 488.144531 416.707031 490.96875 420.738281 C 494.199219 424.765625 498.234375 426.78125 503.484375 426.78125 C 506.308594 426.78125 509.132812 426.378906 511.152344 425.167969 C 513.167969 425.570312 514.785156 424.363281 518.011719 422.347656 Z M 562.410156 437.257812 L 551.511719 438.464844 L 555.953125 410.261719 C 556.355469 407.441406 556.355469 405.425781 555.953125 403.816406 C 555.144531 401.800781 553.53125 400.996094 550.703125 400.996094 C 548.28125 400.996094 545.863281 401.800781 543.839844 403.816406 C 541.019531 406.230469 539.402344 409.859375 538.59375 414.289062 L 534.960938 436.851562 L 524.066406 438.0625 L 533.75 376.015625 L 544.652344 374.804688 L 541.421875 396.5625 C 545.457031 392.535156 549.492188 390.519531 553.933594 390.519531 C 558.371094 390.519531 562.003906 391.726562 564.425781 394.546875 C 567.25 397.367188 568.0625 401.398438 567.25 406.230469 Z M 608.019531 437.257812 L 597.929688 438.464844 L 598.332031 434.839844 C 594.292969 438.0625 589.855469 439.671875 585.820312 439.671875 C 580.976562 439.671875 577.339844 438.0625 574.519531 435.242188 C 571.691406 432.019531 570.882812 428.390625 571.289062 423.558594 C 572.097656 418.722656 574.519531 415.097656 578.554688 411.875 C 582.1875 409.054688 586.625 407.84375 591.46875 407.84375 C 595.101562 407.84375 598.332031 409.054688 601.5625 411.066406 L 601.960938 407.039062 C 602.367188 403.007812 599.539062 401.398438 593.082031 401.398438 C 589.453125 401.398438 585.011719 402.203125 579.765625 403.816406 L 584.203125 392.535156 C 588.644531 391.324219 592.683594 390.921875 595.910156 390.921875 C 601.960938 390.921875 606.402344 391.726562 608.824219 393.742188 C 612.457031 396.5625 613.667969 401.398438 612.457031 408.648438 Z M 599.539062 422.75 C 599.945312 420.738281 599.140625 419.125 597.523438 417.917969 C 596.3125 417.109375 594.292969 416.304688 591.871094 416.304688 C 589.855469 416.304688 587.835938 416.707031 586.222656 417.917969 C 584.203125 419.125 582.992188 420.738281 582.589844 422.75 C 582.1875 424.765625 582.992188 426.78125 584.203125 427.988281 C 585.414062 429.199219 587.433594 429.601562 589.453125 429.601562 C 591.871094 429.601562 593.894531 429.199219 595.503906 427.988281 C 597.929688 426.78125 599.140625 424.765625 599.539062 422.75 Z M 667.75 415.097656 C 666.539062 421.945312 663.3125 427.585938 658.066406 432.421875 C 652.820312 437.257812 646.765625 439.671875 639.902344 439.671875 C 632.234375 439.671875 626.582031 436.851562 623.355469 431.617188 C 620.125 426.378906 618.914062 419.929688 620.125 412.277344 L 625.777344 376.820312 L 636.671875 375.613281 L 633.445312 396.964844 C 637.480469 392.9375 642.324219 391.324219 647.570312 391.324219 C 654.433594 391.324219 660.082031 393.742188 663.71875 398.578125 C 667.351562 402.605469 668.5625 408.246094 667.75 415.097656 Z M 656.046875 414.691406 C 656.449219 411.066406 655.644531 407.84375 653.625 405.023438 C 651.609375 402.203125 648.78125 400.59375 645.152344 400.59375 C 641.113281 400.59375 637.886719 401.800781 634.65625 404.621094 C 631.832031 407.441406 629.8125 410.664062 629.410156 414.289062 C 629.003906 417.917969 629.8125 421.542969 631.828125 424.363281 C 633.851562 427.183594 637.078125 428.796875 640.710938 428.796875 C 644.34375 428.796875 647.570312 427.183594 650.800781 424.363281 C 654.03125 421.945312 655.644531 418.722656 656.046875 414.691406 Z M 706.902344 390.519531 L 700.851562 402.605469 C 696.410156 402.605469 692.777344 403.816406 690.355469 406.230469 C 687.933594 408.648438 686.320312 412.277344 685.511719 417.515625 L 682.6875 437.257812 L 671.789062 438.464844 L 678.648438 392.9375 L 689.546875 391.726562 L 688.335938 399.382812 C 691.160156 395.757812 693.582031 393.742188 696.410156 392.535156 C 698.429688 391.324219 702.058594 390.519531 706.902344 390.519531 Z M 713.765625 437.257812 L 702.867188 438.464844 L 709.730469 392.9375 L 720.625 391.726562 Z M 724.660156 380.042969 L 716.1875 387.699219 L 710.132812 380.042969 L 718.609375 372.386719 Z M 772.691406 405.023438 L 737.980469 424.363281 C 739.597656 427.585938 742.421875 429.199219 746.054688 429.199219 C 750.492188 429.199219 756.144531 427.585938 762.199219 423.960938 L 765.023438 433.628906 C 758.96875 437.660156 752.109375 439.671875 745.246094 439.671875 C 737.980469 439.671875 732.734375 437.257812 728.292969 432.421875 C 724.261719 427.585938 722.644531 421.945312 723.855469 415.097656 C 725.066406 408.246094 728.292969 402.605469 733.945312 397.769531 C 739.597656 392.9375 745.648438 390.519531 752.511719 390.519531 C 757.355469 390.519531 761.390625 391.726562 765.023438 394.546875 C 769.058594 397.367188 771.480469 400.996094 772.691406 405.023438 Z M 758.566406 403.816406 C 756.550781 401.800781 754.125 400.996094 750.898438 400.996094 C 747.265625 400.996094 743.632812 402.605469 740.402344 405.425781 C 737.175781 408.246094 735.15625 411.46875 734.75 415.5 C 734.75 415.902344 734.75 416.304688 734.75 417.109375 Z M 808.613281 390.519531 L 802.558594 402.605469 C 798.117188 402.605469 794.488281 403.816406 792.066406 406.230469 C 789.644531 408.648438 788.027344 412.277344 787.222656 417.515625 L 783.992188 437.257812 L 773.097656 438.464844 L 779.957031 392.9375 L 790.855469 391.726562 L 789.644531 399.382812 C 792.46875 395.757812 794.890625 393.742188 797.71875 392.535156 C 800.136719 391.324219 803.769531 390.519531 808.613281 390.519531 Z M 808.613281 390.519531 " fill-opacity="1" fill-rule="nonzero"/></svg>