<svg xmlns="http://www.w3.org/2000/svg" xmlns:xlink="http://www.w3.org/1999/xlink" width="1080" zoomAndPan="magnify" viewBox="0 0 810 809.999993" height="1080" preserveAspectRatio="xMidYMid meet" version="1.0"><defs><clipPath id="5f6966ea1b"><path d="M 0 78.695312 L 810 78.695312 L 810 480 L 0 480 Z M 0 78.695312 " clip-rule="nonzero"/></clipPath></defs><rect x="-81" width="972" fill="#ffffff" y="-80.999999" height="971.999992" fill-opacity="1"/><rect x="-81" width="972" fill="#ffffff" y="-80.999999" height="971.999992" fill-opacity="1"/><g clip-path="url(#5f6966ea1b)"><path fill="#1351f1" d="M -5.417969 78.695312 L 811.003906 78.695312 L 811.003906 479.363281 L -5.417969 479.363281 Z M -5.417969 78.695312 " fill-opacity="1" fill-rule="evenodd"/></g><path fill="#e30613" d="M -5.417969 479.363281 L 811.003906 479.363281 L 811.003906 735.601562 L -5.417969 735.601562 Z M -5.417969 479.363281 " fill-opacity="1" fill-rule="evenodd"/><path fill="#3fa535" d="M -5.417969 548.996094 L 115.160156 479.363281 L -5.417969 409.738281 Z M -5.417969 548.996094 " fill-opacity="1" fill-rule="evenodd"/><path fill="#ffffff" d="M 165.695312 427.324219 C 273.558594 427.324219 292.777344 356.3125 292.777344 278.632812 C 292.777344 200.5625 273.945312 129.554688 165.695312 129.554688 C 57.441406 129.554688 38.222656 200.5625 38.222656 278.632812 C 38.222656 356.3125 57.441406 427.324219 165.695312 427.324219 Z M 165.695312 358.667969 C 122.945312 358.667969 117.058594 329.246094 117.058594 281.382812 C 117.058594 233.914062 122.945312 204.484375 165.695312 204.484375 C 208.054688 204.484375 213.9375 233.914062 213.9375 281.382812 C 213.9375 329.246094 208.054688 358.667969 165.695312 358.667969 Z M 431.167969 428.503906 C 519.816406 428.503906 549.625 390.445312 549.625 317.867188 L 549.625 133.085938 L 473.925781 133.085938 L 473.925781 310.414062 C 473.925781 347.289062 464.902344 358.667969 432.351562 358.667969 C 399.011719 358.667969 391.167969 345.71875 391.167969 310.414062 L 391.167969 133.085938 L 313.113281 133.085938 L 313.113281 317.867188 C 313.113281 390.445312 344.097656 428.503906 431.167969 428.503906 Z M 574.390625 423.796875 L 767.363281 423.796875 L 767.363281 354.746094 L 650.484375 354.746094 L 650.484375 311.199219 L 762.660156 311.199219 L 762.660156 242.148438 L 650.484375 242.148438 L 650.484375 204.097656 L 767.363281 204.097656 L 767.363281 133.085938 L 574.390625 133.085938 Z M 574.390625 423.796875 " fill-opacity="1" fill-rule="evenodd"/><path fill="#ffffff" d="M 203.539062 377.359375 L 231.894531 428.5 L 295.734375 427.914062 L 249.636719 342.390625 Z M 203.539062 377.359375 " fill-opacity="1" fill-rule="evenodd"/><path fill="#fff200" d="M 101.175781 688.015625 C 121.570312 688.015625 133.925781 683.894531 146.480469 676.046875 L 127.261719 645.839844 C 118.824219 651.335938 112.160156 653.292969 103.335938 653.292969 C 87.253906 653.292969 78.820312 647.605469 78.820312 614.847656 C 78.820312 581.105469 87.839844 576.988281 102.941406 576.988281 C 111.574219 576.988281 119.417969 578.953125 125.691406 582.875 L 146.480469 550.503906 C 134.515625 542.660156 119.417969 539.132812 104.316406 539.132812 C 51.953125 539.132812 39.402344 569.726562 39.402344 613.667969 C 39.402344 659.375 54.308594 688.015625 101.175781 688.015625 Z M 156.871094 686.246094 L 195.703125 686.246094 L 195.703125 630.539062 L 235.902344 630.539062 L 235.902344 686.246094 L 275.128906 686.246094 L 275.128906 540.894531 L 235.902344 540.894531 L 235.902344 592.484375 L 195.703125 592.484375 L 195.703125 540.894531 L 156.871094 540.894531 Z M 348.867188 688.015625 C 402.800781 688.015625 412.40625 652.507812 412.40625 613.667969 C 412.40625 574.632812 402.992188 539.132812 348.867188 539.132812 C 294.738281 539.132812 285.128906 574.632812 285.128906 613.667969 C 285.128906 652.507812 294.738281 688.015625 348.867188 688.015625 Z M 348.867188 653.6875 C 327.488281 653.6875 324.550781 638.972656 324.550781 615.042969 C 324.550781 591.308594 327.488281 576.597656 348.867188 576.597656 C 370.046875 576.597656 372.988281 591.308594 372.988281 615.042969 C 372.988281 638.972656 370.046875 653.6875 348.867188 653.6875 Z M 424.367188 686.246094 L 463.195312 686.246094 L 463.195312 540.894531 L 424.367188 540.894531 Z M 531.246094 688.210938 C 570.074219 688.210938 586.160156 671.148438 586.160156 644.269531 C 586.160156 614.257812 573.410156 605.433594 536.734375 596.40625 C 521.640625 592.679688 516.148438 591.503906 516.148438 583.851562 C 516.148438 576.398438 521.246094 574.832031 533.992188 574.832031 C 548.308594 574.832031 558.113281 578.359375 564.78125 581.5 L 581.648438 548.9375 C 569.097656 542.855469 555.367188 538.933594 533.011719 538.933594 C 498.496094 538.933594 478.296875 553.25 478.296875 585.03125 C 478.296875 609.550781 490.847656 621.714844 519.28125 628.773438 C 543.210938 634.660156 548.308594 634.855469 548.308594 644.859375 C 548.308594 651.53125 545.171875 655.253906 530.070312 655.253906 C 513.597656 655.253906 499.476562 650.351562 490.652344 644.46875 L 471.039062 674.089844 C 486.339844 684.289062 505.753906 688.210938 531.246094 688.210938 Z M 598.316406 686.246094 L 637.144531 686.246094 L 637.144531 540.894531 L 598.316406 540.894531 Z M 725 686.246094 L 765.597656 686.246094 L 743.632812 635.050781 C 760.105469 626.421875 766.183594 609.550781 766.183594 589.34375 C 766.183594 559.726562 753.242188 540.894531 715.195312 540.894531 L 654.992188 540.894531 L 654.992188 686.246094 L 693.230469 686.246094 L 693.230469 641.132812 L 706.371094 641.132812 Z M 693.230469 609.160156 L 693.230469 574.632812 L 714.019531 574.632812 C 724.613281 574.632812 728.335938 579.539062 728.335938 592.09375 C 728.335938 604.253906 724.613281 609.160156 714.019531 609.160156 Z M 693.230469 609.160156 " fill-opacity="1" fill-rule="evenodd"/></svg>