<svg xmlns="http://www.w3.org/2000/svg" xmlns:xlink="http://www.w3.org/1999/xlink" width="1080" zoomAndPan="magnify" viewBox="0 0 810 809.999993" height="1080" preserveAspectRatio="xMidYMid meet" version="1.0"><defs><clipPath id="b95bcf5453"><path d="M 62.429688 373.789062 L 380.90625 373.789062 L 380.90625 487.914062 L 62.429688 487.914062 Z M 62.429688 373.789062 " clip-rule="nonzero"/></clipPath><clipPath id="b2c581c77e"><path d="M 273.285156 260.085938 L 810 260.085938 L 810 343 L 273.285156 343 Z M 273.285156 260.085938 " clip-rule="nonzero"/></clipPath></defs><rect x="-81" width="972" fill="#ffffff" y="-80.999999" height="971.999992" fill-opacity="1"/><rect x="-81" width="972" fill="#ffffff" y="-80.999999" height="971.999992" fill-opacity="1"/><path fill="#0071b8" d="M 297.304688 560.515625 C 279.523438 567.421875 261.402344 572.8125 243.367188 576.601562 L 237.636719 577.78125 L 236.039062 578.117188 L 222.636719 580.390625 L 221.375 580.5625 C 185.808594 585.699219 150.835938 584.855469 119.484375 577.613281 C 65.800781 565.316406 26.78125 535.5 11.019531 494.820312 C -4.738281 454.140625 4.027344 405.878906 35.460938 360.648438 C 66.894531 315.421875 118.304688 276.929688 178.476562 253.601562 C 238.648438 230.355469 302.613281 224.207031 356.382812 236.503906 C 410.066406 248.800781 449.085938 278.613281 464.847656 319.296875 C 480.605469 359.976562 471.839844 408.238281 440.40625 453.464844 C 408.972656 498.777344 357.476562 537.269531 297.304688 560.515625 " fill-opacity="1" fill-rule="evenodd"/><g clip-path="url(#b95bcf5453)"><path fill="#ffffff" d="M 177.382812 430.894531 L 177.382812 381.875 C 177.382812 379.851562 178.222656 377.832031 179.65625 376.398438 C 181.089844 374.96875 183.113281 374.125 185.132812 374.125 C 187.15625 374.125 189.179688 374.96875 190.613281 376.398438 C 192.046875 377.832031 192.886719 379.851562 192.886719 381.875 L 192.886719 423.144531 L 228.113281 423.144531 C 230.136719 423.144531 232.160156 423.988281 233.59375 425.417969 C 235.027344 426.851562 235.867188 428.871094 235.867188 430.894531 C 235.867188 432.914062 235.027344 434.9375 233.59375 436.367188 C 232.160156 437.800781 230.136719 438.640625 228.113281 438.640625 L 192.886719 438.640625 L 192.886719 479.914062 C 192.886719 481.933594 192.046875 483.953125 190.613281 485.386719 C 189.179688 486.820312 187.15625 487.660156 185.132812 487.660156 C 183.113281 487.660156 181.089844 486.820312 179.65625 485.386719 C 178.222656 483.953125 177.382812 481.933594 177.382812 479.914062 Z M 259.804688 374.210938 C 261.824219 374.210938 263.847656 375.050781 265.28125 376.484375 C 266.714844 377.914062 267.554688 379.9375 267.554688 381.957031 L 267.554688 479.914062 C 267.554688 481.933594 266.714844 483.953125 265.28125 485.386719 C 263.847656 486.820312 261.824219 487.660156 259.804688 487.660156 C 257.78125 487.660156 255.757812 486.820312 254.324219 485.386719 C 252.890625 483.953125 252.050781 481.933594 252.050781 479.914062 L 252.050781 381.957031 C 252.050781 379.9375 252.890625 377.914062 254.324219 376.484375 C 255.84375 375.050781 257.78125 374.210938 259.804688 374.210938 M 380.992188 451.359375 C 380.992188 462.140625 376.441406 470.898438 367.253906 477.636719 C 359.164062 483.703125 348.714844 487.15625 335.820312 487.914062 L 335.230469 487.914062 C 320.902344 487.492188 309.355469 484.039062 300.421875 477.46875 C 291.238281 470.648438 286.6875 461.886719 286.6875 451.191406 L 286.601562 404.867188 L 286.601562 381.957031 C 286.601562 379.769531 287.445312 377.746094 288.960938 376.230469 C 290.480469 374.714844 292.585938 373.871094 294.691406 373.871094 C 296.882812 373.871094 298.90625 374.714844 300.421875 376.230469 C 301.941406 377.746094 302.785156 379.851562 302.785156 381.957031 L 302.785156 447.066406 C 302.785156 455.234375 304.722656 461.46875 310.957031 465.761719 C 316.6875 469.722656 324.863281 471.910156 335.484375 472.164062 C 344.585938 471.574219 351.664062 469.46875 356.71875 465.847656 C 362.871094 461.550781 364.980469 455.320312 364.980469 447.148438 L 364.980469 381.875 C 364.980469 379.769531 365.820312 377.746094 367.339844 376.230469 C 368.855469 374.714844 370.878906 373.871094 372.984375 373.871094 C 375.09375 373.871094 377.113281 374.714844 378.632812 376.230469 C 380.148438 377.746094 380.992188 379.769531 380.992188 381.875 Z M 121.507812 487.914062 C 105.832031 487.914062 90.832031 481.933594 79.789062 471.238281 C 68.75 460.539062 62.511719 446.054688 62.511719 430.976562 C 62.511719 415.902344 68.75 401.414062 79.789062 390.71875 C 90.832031 380.019531 105.914062 374.042969 121.507812 374.042969 C 134.90625 374.042969 147.882812 378.503906 158.335938 386.507812 C 158.503906 386.675781 158.757812 386.84375 158.925781 387.011719 C 160.359375 388.445312 161.199219 390.464844 161.199219 392.488281 L 161.199219 392.65625 C 161.199219 394.675781 160.359375 396.699219 158.925781 398.128906 C 157.492188 399.5625 155.554688 400.402344 153.445312 400.320312 C 151.425781 400.234375 149.992188 399.5625 147.882812 398.128906 L 146.957031 397.457031 C 139.542969 392.148438 130.777344 389.285156 121.507812 389.285156 C 110.046875 389.285156 99.003906 393.664062 90.914062 401.5 C 82.824219 409.332031 78.273438 419.945312 78.273438 430.976562 C 78.273438 442.011719 82.824219 452.625 90.914062 460.457031 C 99.003906 468.289062 110.046875 472.667969 121.507812 472.667969 C 130.609375 472.667969 139.457031 469.890625 146.789062 464.835938 C 148.726562 463.65625 150.582031 462.5625 152.265625 462.5625 C 154.289062 462.644531 156.3125 463.402344 157.746094 464.835938 C 159.175781 466.269531 160.019531 468.289062 160.019531 470.3125 L 160.019531 470.480469 C 160.019531 472.667969 159.429688 474.4375 158.167969 475.53125 L 155.46875 477.554688 C 145.609375 484.207031 133.726562 487.914062 121.507812 487.914062 " fill-opacity="1" fill-rule="evenodd"/></g><path fill="#172982" d="M 715.734375 338.160156 L 807.847656 338.246094 C 811.808594 338.246094 813.324219 338.328125 813.324219 338.328125 C 813.324219 338.328125 813.832031 339.929688 812.398438 341.195312 C 811.894531 341.699219 811.050781 342.542969 810.039062 343.128906 C 801.105469 348.4375 774.8125 357.28125 751.382812 363.511719 C 748.265625 364.355469 732 369.832031 727.785156 367.21875 C 716.324219 360.226562 715.734375 338.160156 715.734375 338.160156 " fill-opacity="1" fill-rule="evenodd"/><g clip-path="url(#b2c581c77e)"><path fill="#eb7405" d="M 811.722656 339.339844 L 385.207031 339.339844 C 327.8125 339.339844 273.285156 308.429688 273.285156 260.335938 L 686.742188 260.507812 C 686.742188 260.507812 728.882812 260 757.957031 273.140625 C 803.550781 292.597656 813.664062 336.222656 813.664062 336.222656 C 813.664062 336.222656 814.085938 338.328125 813.664062 339.59375 C 813.410156 340.183594 813.242188 340.605469 812.316406 341.363281 C 811.976562 341.613281 810.125 342.960938 810.125 342.960938 C 810.375 342.792969 815.011719 339.339844 811.722656 339.339844 " fill-opacity="1" fill-rule="evenodd"/></g><path fill="#0071b8" d="M 630.449219 396.109375 C 626.316406 396.109375 622.863281 394.59375 620.164062 391.8125 C 617.554688 389.117188 616.203125 385.75 616.203125 381.707031 C 616.203125 378 617.636719 374.546875 620.417969 371.9375 C 623.117188 369.324219 626.570312 367.894531 630.53125 367.894531 C 637.019531 367.894531 642.5 372.019531 644.351562 378.757812 L 637.019531 378.757812 C 635.503906 376.0625 633.3125 374.714844 630.617188 374.714844 C 626.488281 374.714844 623.285156 377.832031 623.285156 381.789062 C 623.285156 386.085938 626.738281 389.453125 630.53125 389.453125 C 633.144531 389.453125 635.417969 388.105469 636.9375 385.582031 L 644.269531 385.582031 C 642.414062 392.066406 637.105469 396.109375 630.449219 396.109375 Z M 647.472656 395.519531 L 647.472656 368.398438 L 662.472656 368.398438 L 662.472656 374.378906 L 654.214844 374.378906 L 654.214844 378.757812 L 662.472656 378.757812 L 662.472656 384.820312 L 654.214844 384.820312 L 654.214844 389.539062 L 662.472656 389.539062 L 662.472656 395.519531 Z M 666.855469 395.519531 L 666.855469 368.398438 L 673.007812 368.398438 L 683.203125 383.472656 L 683.203125 368.398438 L 689.945312 368.398438 L 689.945312 395.519531 L 683.960938 395.519531 L 673.597656 380.441406 L 673.597656 395.519531 Z M 697.445312 395.519531 L 697.445312 374.714844 L 692.304688 374.714844 L 692.304688 368.398438 L 709.5 368.398438 L 709.5 374.714844 L 704.273438 374.714844 L 704.273438 395.519531 Z M 711.519531 395.519531 L 711.519531 368.398438 L 720.707031 368.398438 C 723.65625 368.398438 725.847656 368.566406 727.703125 369.914062 C 730.144531 371.597656 731.410156 374.125 731.410156 377.496094 C 731.410156 381.875 729.050781 385.160156 725.171875 386.253906 L 731.914062 395.601562 L 723.570312 395.601562 L 718.261719 386.84375 L 718.261719 395.601562 L 711.519531 395.601562 Z M 719.609375 380.949219 C 722.980469 380.949219 724.582031 380.105469 724.582031 377.664062 C 724.582031 375.390625 723.152344 374.460938 720.117188 374.460938 L 718.261719 374.460938 L 718.261719 380.949219 Z M 735.035156 395.519531 L 735.035156 368.398438 L 750.035156 368.398438 L 750.035156 374.378906 L 741.777344 374.378906 L 741.777344 378.757812 L 750.035156 378.757812 L 750.035156 384.820312 L 741.777344 384.820312 L 741.777344 389.539062 L 750.035156 389.539062 L 750.035156 395.519531 Z M 546.085938 430.976562 L 539.175781 430.976562 L 539.175781 441.335938 L 532.433594 441.335938 L 532.433594 414.214844 L 539.175781 414.214844 L 539.175781 424.492188 L 546.085938 424.492188 L 546.085938 414.214844 L 552.914062 414.214844 L 552.914062 441.335938 L 546.085938 441.335938 Z M 560.332031 417.671875 C 563.027344 415.058594 566.480469 413.710938 570.441406 413.710938 C 574.152344 413.710938 577.691406 415.144531 580.304688 417.753906 C 583.085938 420.449219 584.601562 423.902344 584.601562 427.609375 C 584.601562 431.484375 583.167969 434.9375 580.554688 437.632812 C 577.859375 440.410156 574.234375 441.84375 570.359375 441.84375 C 566.230469 441.84375 562.773438 440.410156 559.992188 437.546875 C 557.378906 434.851562 556.03125 431.484375 556.03125 427.441406 C 556.117188 423.734375 557.632812 420.363281 560.332031 417.667969 Z M 570.441406 435.105469 C 574.402344 435.105469 577.691406 431.988281 577.691406 427.523438 C 577.691406 423.566406 574.488281 420.363281 570.527344 420.363281 C 566.398438 420.363281 563.195312 423.566406 563.195312 427.523438 C 563.109375 431.902344 566.566406 435.105469 570.441406 435.105469 Z M 593.199219 432.410156 L 593.199219 432.746094 C 593.199219 434.9375 594.039062 436.03125 595.726562 436.03125 C 597.328125 436.03125 598.339844 435.1875 598.339844 433.757812 C 598.339844 431.3125 596.398438 431.0625 593.367188 429.714844 C 589.238281 427.859375 587.128906 425.25 587.128906 421.964844 C 587.128906 417.082031 590.921875 413.628906 596.570312 413.628906 C 601.539062 413.628906 604.996094 416.742188 604.996094 421.628906 L 604.996094 422.050781 L 598.757812 422.050781 C 598.757812 420.363281 597.832031 419.4375 596.230469 419.4375 C 594.96875 419.4375 594.125 420.28125 594.125 421.460938 C 594.125 423.480469 596.148438 423.902344 599.6875 425.671875 C 603.480469 427.609375 605.332031 429.964844 605.332031 433.25 C 605.332031 437.96875 601.371094 441.84375 596.230469 441.84375 C 590.078125 441.84375 586.792969 438.808594 586.792969 433 L 586.792969 432.410156 Z M 608.789062 441.335938 L 608.789062 414.214844 L 617.976562 414.214844 C 620.925781 414.214844 623.117188 414.386719 624.96875 415.734375 C 627.414062 417.417969 628.675781 419.945312 628.675781 423.398438 C 628.675781 426.933594 627.078125 429.796875 624.296875 431.484375 C 622.527344 432.492188 620.335938 432.746094 617.46875 432.746094 L 615.53125 432.746094 L 615.53125 441.503906 L 608.789062 441.503906 Z M 616.878906 426.765625 C 620.25 426.765625 621.851562 425.925781 621.851562 423.480469 C 621.851562 421.207031 620.417969 420.28125 617.382812 420.28125 L 615.613281 420.28125 L 615.613281 426.765625 Z M 632.21875 441.335938 L 632.21875 414.214844 L 638.960938 414.214844 L 638.960938 441.335938 Z M 646.460938 441.335938 L 646.460938 420.535156 L 641.320312 420.535156 L 641.320312 414.214844 L 658.511719 414.214844 L 658.511719 420.535156 L 653.285156 420.535156 L 653.285156 441.335938 Z M 663.398438 441.335938 L 655.984375 441.335938 L 666.601562 414.214844 L 672.164062 414.214844 L 682.78125 441.335938 L 675.28125 441.335938 L 673.933594 437.378906 L 664.746094 437.378906 Z M 669.382812 423.144531 L 666.601562 431.820312 L 672.078125 431.820312 Z M 683.203125 441.335938 L 683.203125 414.214844 L 689.945312 414.214844 L 689.945312 435.355469 L 697.867188 435.355469 L 697.867188 441.335938 Z M 700.3125 441.335938 L 700.3125 414.214844 L 707.054688 414.214844 L 707.054688 441.335938 Z M 711.4375 441.335938 L 711.4375 414.214844 L 726.4375 414.214844 L 726.4375 420.195312 L 718.179688 420.195312 L 718.179688 424.578125 L 726.4375 424.578125 L 726.4375 430.640625 L 718.179688 430.640625 L 718.179688 435.355469 L 726.4375 435.355469 L 726.4375 441.335938 Z M 730.820312 441.335938 L 730.820312 414.214844 L 740.007812 414.214844 C 742.957031 414.214844 745.148438 414.386719 747 415.734375 C 749.445312 417.417969 750.707031 419.945312 750.707031 423.3125 C 750.707031 427.691406 748.347656 430.976562 744.472656 432.074219 L 751.214844 441.421875 L 742.871094 441.421875 L 737.5625 432.660156 L 737.5625 441.421875 L 730.820312 441.421875 Z M 738.910156 426.765625 C 742.28125 426.765625 743.882812 425.925781 743.882812 423.480469 C 743.882812 421.207031 742.449219 420.28125 739.414062 420.28125 L 737.5625 420.28125 L 737.5625 426.765625 Z M 460.210938 460.035156 L 460.210938 476.710938 C 460.210938 479.742188 461.390625 481.34375 464.085938 481.34375 C 466.867188 481.34375 468.214844 479.828125 468.214844 476.710938 L 468.214844 460.035156 L 476.222656 460.035156 L 476.222656 477.046875 C 476.222656 483.703125 471.335938 487.660156 464.003906 487.660156 C 456.585938 487.660156 452.121094 483.871094 452.121094 477.046875 L 452.121094 460.035156 Z M 481.617188 487.15625 L 481.617188 460.035156 L 488.863281 460.035156 L 500.914062 475.113281 L 500.914062 460.035156 L 508.921875 460.035156 L 508.921875 487.15625 L 501.84375 487.15625 L 489.621094 472.078125 L 489.621094 487.15625 Z M 514.148438 487.15625 L 514.148438 460.035156 L 522.152344 460.035156 L 522.152344 487.15625 Z M 533.867188 487.15625 L 523.753906 460.035156 L 532.097656 460.035156 L 538.25 478.226562 L 544.402344 460.035156 L 552.746094 460.035156 L 542.546875 487.15625 Z M 554.347656 487.15625 L 554.347656 460.035156 L 572.214844 460.035156 L 572.214844 466.015625 L 562.4375 466.015625 L 562.4375 470.394531 L 572.214844 470.394531 L 572.214844 476.460938 L 562.4375 476.460938 L 562.4375 481.175781 L 572.214844 481.175781 L 572.214844 487.15625 Z M 577.355469 487.15625 L 577.355469 460.035156 L 588.226562 460.035156 C 591.679688 460.035156 594.292969 460.203125 596.570312 461.550781 C 599.519531 463.234375 601.035156 465.761719 601.035156 469.132812 C 601.035156 473.511719 598.253906 476.796875 593.617188 477.890625 L 601.625 487.238281 L 591.679688 487.238281 L 585.359375 478.480469 L 585.359375 487.238281 L 577.355469 487.238281 Z M 586.960938 472.585938 C 590.921875 472.585938 592.859375 471.742188 592.859375 469.300781 C 592.859375 467.027344 591.175781 466.097656 587.550781 466.097656 L 585.359375 466.097656 L 585.359375 472.585938 Z M 611.570312 478.226562 L 611.570312 478.566406 C 611.570312 480.753906 612.582031 481.847656 614.605469 481.847656 C 616.542969 481.847656 617.722656 481.007812 617.722656 479.574219 C 617.722656 477.132812 615.445312 476.878906 611.824219 475.53125 C 606.933594 473.679688 604.40625 471.070312 604.40625 467.785156 C 604.40625 462.898438 608.957031 459.445312 615.613281 459.445312 C 621.515625 459.445312 625.558594 462.5625 625.558594 467.445312 L 625.558594 467.867188 L 618.144531 467.867188 C 618.144531 466.183594 617.046875 465.257812 615.109375 465.257812 C 613.59375 465.257812 612.582031 466.097656 612.582031 467.277344 C 612.582031 469.300781 615.023438 469.722656 619.15625 471.488281 C 623.621094 473.425781 625.8125 475.785156 625.8125 479.070312 C 625.8125 483.785156 621.09375 487.660156 615.023438 487.660156 C 607.691406 487.660156 603.816406 484.628906 603.816406 478.816406 L 603.816406 478.226562 Z M 630.027344 487.15625 L 630.027344 460.035156 L 638.03125 460.035156 L 638.03125 487.15625 Z M 646.964844 487.15625 L 646.964844 466.351562 L 640.898438 466.351562 L 640.898438 460.035156 L 661.292969 460.035156 L 661.292969 466.351562 L 655.054688 466.351562 L 655.054688 487.15625 Z M 667.023438 487.15625 L 658.257812 487.15625 L 670.898438 460.035156 L 677.472656 460.035156 L 690.113281 487.15625 L 681.265625 487.15625 L 679.664062 483.195312 L 668.792969 483.195312 Z M 674.101562 468.964844 L 670.816406 477.636719 L 677.304688 477.636719 Z M 690.621094 487.15625 L 690.621094 460.035156 L 698.625 460.035156 L 698.625 487.15625 Z M 703.9375 487.15625 L 703.9375 460.035156 L 714.808594 460.035156 C 718.261719 460.035156 720.875 460.203125 723.152344 461.550781 C 726.101562 463.234375 727.617188 465.761719 727.617188 469.132812 C 727.617188 473.511719 724.835938 476.796875 720.203125 477.890625 L 728.207031 487.238281 L 718.261719 487.238281 L 711.941406 478.480469 L 711.941406 487.238281 L 703.9375 487.238281 Z M 713.542969 472.585938 C 717.503906 472.585938 719.441406 471.742188 719.441406 469.300781 C 719.441406 467.027344 717.757812 466.097656 714.132812 466.097656 L 711.941406 466.097656 L 711.941406 472.585938 Z M 731.832031 487.15625 L 731.832031 460.035156 L 749.699219 460.035156 L 749.699219 466.015625 L 739.921875 466.015625 L 739.921875 470.394531 L 749.699219 470.394531 L 749.699219 476.460938 L 739.921875 476.460938 L 739.921875 481.175781 L 749.699219 481.175781 L 749.699219 487.15625 Z M 731.832031 487.15625 " fill-opacity="1" fill-rule="nonzero"/><path fill="#ffffff" d="M 379.726562 319.125 L 379.726562 282.910156 L 392.789062 282.910156 L 400.289062 305.0625 L 407.792969 282.910156 L 420.855469 282.910156 L 420.855469 319.125 L 411.753906 319.125 L 411.753906 295.207031 L 403.660156 319.125 L 396.917969 319.125 L 388.828125 295.207031 L 388.828125 319.125 Z M 434.589844 287.542969 C 438.46875 284.003906 443.269531 282.234375 448.832031 282.234375 C 454.058594 282.234375 459.03125 284.089844 462.824219 287.542969 C 466.785156 291.164062 468.890625 295.796875 468.890625 300.765625 C 468.890625 305.988281 466.953125 310.621094 463.246094 314.074219 C 459.453125 317.777344 454.3125 319.714844 448.832031 319.714844 C 443.019531 319.714844 438.128906 317.777344 434.253906 313.988281 C 430.546875 310.367188 428.691406 305.902344 428.691406 300.511719 C 428.691406 295.628906 430.714844 291.078125 434.589844 287.542969 Z M 448.832031 310.789062 C 454.480469 310.789062 459.03125 306.578125 459.03125 300.679688 C 459.03125 295.375 454.480469 291.164062 449 291.164062 C 443.1875 291.164062 438.636719 295.375 438.636719 300.679688 C 438.46875 306.410156 443.441406 310.789062 448.832031 310.789062 Z M 476.8125 319.125 L 476.8125 282.910156 L 485.410156 282.910156 L 499.734375 303.039062 L 499.734375 282.910156 L 509.34375 282.910156 L 509.34375 319.125 L 500.914062 319.125 L 486.335938 298.996094 L 486.335938 319.125 Z M 523.332031 319.125 L 523.332031 291.332031 L 516.085938 291.332031 L 516.085938 282.910156 L 540.355469 282.910156 L 540.355469 291.332031 L 532.941406 291.332031 L 532.941406 319.125 Z M 546.507812 319.125 L 546.507812 282.910156 L 559.488281 282.910156 C 563.617188 282.910156 566.734375 283.164062 569.347656 284.929688 C 572.804688 287.207031 574.65625 290.574219 574.65625 295.121094 C 574.65625 299.839844 572.382812 303.714844 568.421875 305.902344 C 565.976562 307.25 562.859375 307.503906 558.8125 307.503906 L 556.03125 307.503906 L 556.03125 319.125 Z M 557.886719 299.585938 C 562.605469 299.585938 564.964844 298.492188 564.964844 295.207031 C 564.964844 292.175781 562.941406 290.996094 558.730469 290.996094 L 556.199219 290.996094 L 556.199219 299.585938 Z M 582.746094 319.125 L 582.746094 282.910156 L 603.984375 282.910156 L 603.984375 290.910156 L 592.355469 290.910156 L 592.355469 296.808594 L 603.984375 296.808594 L 603.984375 304.808594 L 592.355469 304.808594 L 592.355469 311.125 L 603.984375 311.125 L 603.984375 319.125 Z M 613.339844 319.125 L 613.339844 282.910156 L 622.863281 282.910156 L 622.863281 311.125 L 633.988281 311.125 L 633.988281 319.125 Z M 640.5625 319.125 L 640.5625 282.910156 L 650.082031 282.910156 L 650.082031 311.125 L 661.207031 311.125 L 661.207031 319.125 Z M 667.949219 319.125 L 667.949219 282.910156 L 677.558594 282.910156 L 677.558594 319.125 Z M 686.996094 319.125 L 686.996094 282.910156 L 708.234375 282.910156 L 708.234375 290.910156 L 696.605469 290.910156 L 696.605469 296.808594 L 708.234375 296.808594 L 708.234375 304.808594 L 696.605469 304.808594 L 696.605469 311.125 L 708.234375 311.125 L 708.234375 319.125 Z M 717.503906 319.125 L 717.503906 282.910156 L 730.484375 282.910156 C 734.613281 282.910156 737.730469 283.164062 740.34375 284.929688 C 743.796875 287.207031 745.652344 290.574219 745.652344 295.039062 C 745.652344 300.933594 742.367188 305.230469 736.804688 306.660156 L 746.410156 319.042969 L 734.613281 319.042969 L 727.113281 307.417969 L 727.113281 319.042969 L 717.503906 319.042969 Z M 728.964844 299.585938 C 733.683594 299.585938 736.046875 298.492188 736.046875 295.207031 C 736.046875 292.175781 734.023438 290.996094 729.808594 290.996094 L 727.195312 290.996094 L 727.195312 299.585938 Z M 728.964844 299.585938 " fill-opacity="1" fill-rule="nonzero"/><path stroke-linecap="round" transform="matrix(0.842757, 0, 0, 0.84225, -4.738593, 224.20517)" fill="none" stroke-linejoin="round" d="M 918.0992 138.901964 L 918.0992 312.098811 " stroke="#0071b8" stroke-width="2.29" stroke-opacity="1" stroke-miterlimit="4"/></svg>