<svg xmlns="http://www.w3.org/2000/svg" xmlns:xlink="http://www.w3.org/1999/xlink" width="1080" zoomAndPan="magnify" viewBox="0 0 810 809.999993" height="1080" preserveAspectRatio="xMidYMid meet" version="1.0"><defs><clipPath id="3b3ed98d0e"><path d="M 0 275.273438 L 810 275.273438 L 810 534.773438 L 0 534.773438 Z M 0 275.273438 " clip-rule="nonzero"/></clipPath></defs><rect x="-81" width="972" fill="#ffffff" y="-80.999999" height="971.999992" fill-opacity="1"/><rect x="-81" width="972" fill="#ffffff" y="-80.999999" height="971.999992" fill-opacity="1"/><g clip-path="url(#3b3ed98d0e)"><path fill="#325aff" d="M 447.511719 402.4375 L 412.855469 402.4375 L 412.855469 356.273438 L 447.511719 356.273438 C 464.101562 356.273438 472.511719 363.851562 472.511719 379.542969 C 472.511719 395.234375 464.101562 402.4375 447.511719 402.4375 Z M 451.519531 318.636719 L 370.777344 318.523438 L 370.777344 491.523438 L 412.855469 491.523438 L 412.855469 440.191406 L 451.519531 440.191406 C 470.300781 440.191406 513.980469 434.046875 513.980469 379.410156 C 513.980469 324.777344 470.300781 318.636719 451.519531 318.636719 Z M 263.492188 402.4375 L 341.191406 402.4375 L 316.652344 440.191406 L 263.492188 440.191406 L 263.492188 491.523438 L 221.414062 491.523438 L 221.414062 318.523438 L 341.191406 318.523438 L 341.191406 356.273438 L 263.492188 356.273438 Z M 186.40625 318.523438 L 186.40625 491.523438 L 144.328125 491.523438 L 144.328125 455.421875 L 68.957031 455.421875 L 45.488281 491.523438 L 0 491.523438 L 112.441406 318.523438 Z M 144.328125 356.160156 L 133.472656 356.160156 L 92.625 419 L 144.328125 419 Z M 679.53125 275.273438 C 607.476562 275.273438 549.066406 333.363281 549.066406 405.023438 C 549.066406 476.683594 607.476562 534.773438 679.53125 534.773438 C 751.585938 534.773438 810 476.683594 810 405.023438 C 810 333.363281 751.585938 275.273438 679.53125 275.273438 Z M 679.53125 275.273438 " fill-opacity="1" fill-rule="nonzero"/></g></svg>