<svg xmlns="http://www.w3.org/2000/svg" xmlns:xlink="http://www.w3.org/1999/xlink" width="1080" zoomAndPan="magnify" viewBox="0 0 810 809.999993" height="1080" preserveAspectRatio="xMidYMid meet" version="1.0"><defs><clipPath id="788fa9b98a"><path d="M 1.425781 1 L 808.425781 1 L 808.425781 809 L 1.425781 809 Z M 1.425781 1 " clip-rule="nonzero"/></clipPath></defs><rect x="-81" width="972" fill="#ffffff" y="-80.999999" height="971.999992" fill-opacity="1"/><rect x="-81" width="972" fill="#ffffff" y="-80.999999" height="971.999992" fill-opacity="1"/><g clip-path="url(#788fa9b98a)"><path fill="#5a2882" d="M 78.582031 581.179688 L 183.636719 581.179688 C 184.8125 581.132812 185.957031 580.933594 187.082031 580.589844 C 188.203125 580.246094 189.261719 579.765625 190.261719 579.144531 C 191.257812 578.527344 192.160156 577.792969 192.96875 576.941406 C 193.777344 576.085938 194.460938 575.144531 195.027344 574.117188 L 355.34375 229.5625 L 298.773438 107.828125 Z M 487.648438 57.457031 C 463.25 2.753906 399.472656 1.359375 394.035156 1.359375 L 348.285156 1.359375 L 614.742188 574.089844 C 615.3125 575.128906 616.007812 576.082031 616.832031 576.941406 C 617.652344 577.800781 618.566406 578.542969 619.582031 579.164062 C 620.59375 579.785156 621.671875 580.269531 622.808594 580.609375 C 623.949219 580.949219 625.109375 581.140625 626.300781 581.179688 L 731.300781 581.179688 Z M 315.628906 658.746094 L 223.496094 658.746094 L 223.496094 681.925781 L 257.378906 681.925781 L 257.378906 808.554688 L 281.890625 808.554688 L 281.890625 681.925781 L 315.742188 681.925781 Z M 181.273438 658.746094 L 156.761719 658.746094 L 156.761719 808.527344 L 224.636719 808.527344 L 224.636719 785.347656 L 181.273438 785.347656 Z M 508.6875 745.285156 C 509.847656 744.996094 510.996094 744.660156 512.125 744.273438 C 513.257812 743.890625 514.371094 743.457031 515.46875 742.976562 C 516.5625 742.5 517.636719 741.972656 518.6875 741.402344 C 519.738281 740.832031 520.761719 740.214844 521.761719 739.558594 C 522.757812 738.898438 523.726562 738.199219 524.664062 737.457031 C 525.605469 736.71875 526.507812 735.9375 527.382812 735.117188 C 528.253906 734.300781 529.089844 733.445312 529.890625 732.558594 C 530.6875 731.667969 531.449219 730.746094 532.171875 729.792969 C 532.890625 728.839844 533.570312 727.855469 534.207031 726.84375 C 534.84375 725.832031 535.4375 724.792969 535.988281 723.730469 C 536.535156 722.667969 537.039062 721.585938 537.496094 720.480469 C 537.949219 719.375 538.359375 718.25 538.71875 717.109375 C 539.082031 715.96875 539.394531 714.816406 539.65625 713.648438 C 539.917969 712.484375 540.132812 711.308594 540.292969 710.121094 C 540.457031 708.9375 540.566406 707.746094 540.628906 706.554688 C 540.691406 705.359375 540.699219 704.164062 540.660156 702.96875 C 540.675781 701.238281 540.585938 699.515625 540.394531 697.796875 C 540.199219 696.078125 539.902344 694.375 539.503906 692.695312 C 539.105469 691.011719 538.605469 689.359375 538.007812 687.734375 C 537.40625 686.113281 536.710938 684.53125 535.921875 682.996094 C 535.128906 681.457031 534.25 679.972656 533.28125 678.539062 C 532.308594 677.109375 531.257812 675.742188 530.121094 674.4375 C 528.984375 673.132812 527.773438 671.902344 526.488281 670.742188 C 525.203125 669.585938 523.855469 668.511719 522.4375 667.515625 C 512.902344 661.167969 501.941406 658.746094 482.894531 658.746094 L 455.648438 658.746094 L 455.648438 808.527344 L 480.1875 808.527344 L 480.1875 748.074219 L 482.578125 748.074219 L 524.628906 808.527344 L 554.609375 808.527344 L 553.359375 806.820312 Z M 480.214844 726.460938 L 480.214844 681.925781 L 487.136719 681.925781 C 507.0625 682.097656 516.746094 689.300781 516.828125 703.453125 C 516.828125 718.515625 506.609375 726.234375 486.222656 726.488281 Z M 741.207031 658.746094 L 731.355469 658.746094 L 731.042969 659.34375 L 661.632812 808.527344 L 687.910156 808.527344 L 704.480469 772.648438 L 766.175781 772.648438 L 781.691406 808.527344 L 808.398438 808.527344 Z M 714.785156 749.496094 L 735.855469 703.167969 L 756.152344 749.496094 Z M 372.625 658.746094 L 372.371094 659.34375 L 302.902344 808.527344 L 329.238281 808.527344 L 345.777344 772.648438 L 407.53125 772.648438 L 422.992188 808.527344 L 449.695312 808.527344 L 382.535156 658.746094 Z M 356.085938 749.496094 L 377.238281 703.167969 L 397.507812 749.496094 Z M 566.253906 808.527344 L 649.816406 808.527344 L 649.816406 785.347656 L 590.769531 785.347656 L 590.769531 738.363281 L 648.078125 738.363281 L 648.078125 715.183594 L 590.769531 715.183594 L 590.769531 681.925781 L 649.816406 681.925781 L 649.816406 658.773438 L 566.253906 658.773438 Z M 71.152344 658.746094 L 70.867188 659.34375 L 1.425781 808.527344 L 27.703125 808.527344 L 44.332031 772.648438 L 106 772.648438 L 121.515625 808.527344 L 148.21875 808.527344 L 81.144531 658.746094 Z M 54.609375 749.496094 L 75.707031 703.167969 L 96.003906 749.496094 Z M 54.609375 749.496094 " fill-opacity="1" fill-rule="nonzero"/></g></svg>