<svg xmlns="http://www.w3.org/2000/svg" xmlns:xlink="http://www.w3.org/1999/xlink" width="1080" zoomAndPan="magnify" viewBox="0 0 810 809.999993" height="1080" preserveAspectRatio="xMidYMid meet" version="1.0"><defs><clipPath id="d2ab3de804"><path d="M 313 426 L 413 426 L 413 513.230469 L 313 513.230469 Z M 313 426 " clip-rule="nonzero"/></clipPath><clipPath id="f6aebe1d1b"><path d="M 621 426 L 701 426 L 701 513.230469 L 621 513.230469 Z M 621 426 " clip-rule="nonzero"/></clipPath><clipPath id="c83d719150"><path d="M 706 426 L 787 426 L 787 513.230469 L 706 513.230469 Z M 706 426 " clip-rule="nonzero"/></clipPath><clipPath id="914139ce82"><path d="M 273 297.054688 L 352 297.054688 L 352 385 L 273 385 Z M 273 297.054688 " clip-rule="nonzero"/></clipPath><clipPath id="10a3244458"><path d="M 136 297.054688 L 271 297.054688 L 271 385 L 136 385 Z M 136 297.054688 " clip-rule="nonzero"/></clipPath><clipPath id="72ff4da6ec"><path d="M 514 297.054688 L 649 297.054688 L 649 385 L 514 385 Z M 514 297.054688 " clip-rule="nonzero"/></clipPath><clipPath id="b5beb5d43e"><path d="M 434 297.054688 L 512 297.054688 L 512 385 L 434 385 Z M 434 297.054688 " clip-rule="nonzero"/></clipPath><clipPath id="545f661743"><path d="M 354 297.054688 L 432 297.054688 L 432 385 L 354 385 Z M 354 297.054688 " clip-rule="nonzero"/></clipPath></defs><rect x="-81" width="972" fill="#ffffff" y="-80.999999" height="971.999992" fill-opacity="1"/><rect x="-81" width="972" fill="#ffffff" y="-80.999999" height="971.999992" fill-opacity="1"/><path fill="#e4140a" d="M 85.632812 511.554688 C 83.316406 510.394531 81.90625 510.140625 79.71875 510.140625 C 78.300781 510.140625 76.375 510.265625 74.058594 510.394531 C 73.417969 510.394531 72.777344 510.527344 72.003906 510.527344 L 68.65625 510.90625 L 65.445312 511.296875 L 61.972656 511.679688 C 57.730469 512.195312 53.359375 512.453125 49.246094 512.453125 C 18.898438 512.453125 0 496.492188 0 470.996094 C 0 443.828125 20.574219 427.21875 54 427.21875 C 60.304688 427.21875 70.332031 428.253906 81.003906 429.800781 C 82.546875 430.054688 84.34375 430.3125 84.988281 430.3125 C 86.53125 430.3125 87.175781 430.179688 89.230469 429.539062 L 81.390625 450.140625 C 74.828125 444.476562 65.960938 441.769531 54 441.769531 C 34.972656 441.769531 23.015625 452.96875 23.015625 470.996094 C 23.015625 488.25 33.558594 497.90625 52.332031 497.90625 C 63.390625 497.90625 73.804688 495.070312 85.246094 488.890625 Z M 85.632812 511.554688 " fill-opacity="1" fill-rule="evenodd"/><path fill="#e4140a" d="M 148.507812 494.558594 L 123.175781 494.558594 L 121.890625 497.003906 C 120.738281 499.195312 120.089844 501.382812 120.089844 503.699219 C 120.089844 506.917969 121.117188 508.59375 123.949219 511.421875 L 91.160156 511.421875 C 94.632812 507.304688 95.402344 506.019531 98.101562 500.996094 L 132.4375 432.628906 C 133.203125 431.210938 133.332031 430.828125 133.332031 430.054688 C 133.332031 429.542969 133.078125 429.023438 132.5625 428.253906 L 148.507812 428.253906 L 148.507812 440.867188 L 130.507812 478.980469 L 148.507812 478.980469 Z M 173.449219 511.421875 C 176.019531 508.980469 176.921875 507.304688 176.921875 504.472656 C 176.921875 502.667969 176.410156 500.609375 175.507812 498.808594 L 173.449219 494.558594 L 148.507812 494.558594 L 148.507812 478.980469 L 166.507812 478.980469 L 149.023438 439.710938 L 148.507812 440.867188 L 148.507812 428.253906 L 166.894531 428.253906 C 165.863281 429.023438 165.609375 429.542969 165.609375 430.308594 C 165.609375 430.957031 165.863281 431.730469 166.378906 432.757812 L 196.59375 497.003906 C 199.039062 502.023438 200.96875 504.984375 205.59375 511.421875 Z M 173.449219 511.421875 " fill-opacity="1" fill-rule="evenodd"/><path fill="#e4140a" d="M 261.011719 481.683594 C 257.414062 479.621094 253.296875 478.464844 248.796875 478.464844 L 239.28125 478.464844 L 239.28125 495.589844 C 239.28125 504.34375 241.339844 508.335938 247.382812 511.421875 L 210.09375 511.421875 C 216.140625 508.078125 218.066406 504.214844 218.066406 495.589844 L 218.066406 444.21875 C 218.066406 435.203125 215.75 430.828125 209.707031 428.253906 L 261.011719 428.253906 L 261.011719 442.027344 L 239.28125 442.027344 L 239.28125 464.691406 L 261.011719 464.691406 Z M 276.316406 511.421875 C 278.757812 509.492188 279.398438 508.335938 279.398438 506.273438 C 279.398438 504.085938 277.34375 499.453125 274.515625 494.945312 C 270.785156 489.152344 266.285156 484.515625 261.011719 481.683594 L 261.011719 464.691406 L 266.285156 464.691406 C 276.828125 464.691406 282.871094 460.566406 282.871094 453.355469 C 282.871094 448.078125 279.65625 444.21875 274 442.800781 C 272.328125 442.414062 267.570312 442.027344 263.96875 442.027344 L 261.011719 442.027344 L 261.011719 428.253906 C 277.34375 428.378906 286.859375 429.539062 292.515625 432.371094 C 300.488281 436.105469 304.863281 443.183594 304.863281 452.328125 C 304.863281 464.558594 295.988281 473.054688 281.070312 475.371094 C 285.183594 477.179688 286.859375 478.078125 289.042969 480.007812 C 291.226562 482.070312 292.257812 485.15625 295.730469 489.921875 C 296.628906 491.339844 295.730469 490.054688 298.6875 494.304688 L 300.101562 496.492188 L 301.644531 498.679688 C 307.171875 506.917969 308.589844 508.335938 313.476562 511.421875 Z M 276.316406 511.421875 " fill-opacity="1" fill-rule="evenodd"/><g clip-path="url(#d2ab3de804)"><path fill="#e4140a" d="M 412.089844 462.242188 C 409.90625 464.171875 409.394531 465.207031 409.394531 468.550781 L 409.394531 508.980469 C 406.820312 507.949219 404.765625 507.5625 402.449219 507.5625 C 400.390625 507.5625 399.109375 507.820312 392.164062 509.496094 C 381.621094 511.9375 372.105469 513.226562 364.132812 513.226562 C 332.761719 513.226562 313.089844 496.488281 313.089844 471.382812 C 313.089844 444.21875 334.050781 426.449219 367.476562 426.449219 C 371.84375 426.449219 377.503906 426.832031 383.292969 427.605469 L 387.023438 427.996094 L 390.875 428.378906 L 394.480469 428.894531 C 396.792969 429.148438 399.363281 429.410156 400.777344 429.410156 C 402.574219 429.410156 403.738281 429.28125 406.304688 428.769531 L 399.875 449.234375 C 393.707031 444.34375 380.847656 440.996094 368.378906 440.996094 C 347.804688 440.996094 336.105469 452.585938 336.105469 471.253906 C 336.105469 489.023438 345.746094 498.675781 365.292969 498.675781 C 382.519531 498.675781 389.078125 493.144531 389.078125 480.523438 L 389.078125 476.019531 L 368.632812 476.019531 C 363.746094 476.019531 362.074219 476.535156 357.574219 479.109375 L 361.433594 467.394531 C 362.714844 462.886719 363.746094 462.242188 368.632812 462.242188 Z M 412.089844 462.242188 " fill-opacity="1" fill-rule="evenodd"/></g><path fill="#e4140a" d="M 420.964844 511.425781 C 426.882812 508.59375 428.804688 504.46875 428.804688 495.457031 L 428.804688 444.476562 C 428.804688 435.589844 427.007812 431.726562 421.351562 428.25 L 456.964844 428.25 C 451.054688 430.953125 448.996094 435.335938 448.996094 444.476562 L 448.996094 497.261719 L 476.128906 497.261719 C 486.796875 497.261719 495.539062 494.816406 502.484375 489.792969 L 497.46875 504.988281 C 496.828125 507.175781 496.699219 507.949219 496.699219 508.464844 C 496.699219 509.238281 497.082031 510.007812 498.371094 511.425781 Z M 420.964844 511.425781 " fill-opacity="1" fill-rule="evenodd"/><g clip-path="url(#f6aebe1d1b)"><path fill="#e4140a" d="M 621.417969 488.507812 C 636.207031 496.101562 645.078125 498.421875 659.351562 498.421875 C 672.332031 498.421875 678.890625 494.820312 678.890625 487.476562 C 678.890625 483.746094 676.707031 480.78125 672.847656 479.363281 C 670.410156 478.460938 667.707031 477.820312 664.75 477.5625 L 661.535156 477.175781 L 658.449219 476.789062 L 655.234375 476.273438 C 632.734375 473.570312 622.449219 466.105469 622.449219 452.457031 C 622.449219 436.359375 637.878906 426.449219 662.816406 426.449219 C 666.675781 426.449219 670.535156 426.707031 674.523438 427.09375 L 677.738281 427.347656 C 686.738281 428.507812 684.808594 428.25 686.09375 428.378906 C 688.277344 428.636719 689.308594 428.769531 689.695312 428.894531 C 690.976562 429.023438 692.003906 429.148438 692.652344 429.148438 C 693.933594 429.148438 694.710938 428.894531 696.507812 428.121094 L 691.367188 448.847656 C 690.722656 447.433594 689.820312 446.921875 687.25 446.019531 C 679.535156 443.1875 669.25 441.257812 662.046875 441.257812 C 650.21875 441.257812 643.40625 444.472656 643.40625 450.007812 C 643.40625 453.230469 645.335938 455.160156 649.578125 456.574219 C 650.863281 456.960938 651.632812 457.09375 655.234375 457.605469 C 657.421875 457.992188 659.734375 458.25 661.921875 458.507812 C 675.035156 460.4375 683.523438 462.625 689.046875 465.585938 C 696.507812 469.710938 700.753906 476.660156 700.753906 485.414062 C 700.753906 501.898438 684.421875 513.226562 660.378906 513.226562 C 654.71875 513.226562 641.089844 512.457031 634.921875 511.683594 C 633.503906 511.550781 632.089844 511.425781 631.449219 511.425781 C 629.648438 511.425781 628.875 511.683594 626.820312 512.710938 Z M 621.417969 488.507812 " fill-opacity="1" fill-rule="evenodd"/></g><g clip-path="url(#c83d719150)"><path fill="#e4140a" d="M 706.667969 488.507812 C 721.324219 496.101562 730.324219 498.421875 744.46875 498.421875 C 757.582031 498.421875 764.011719 494.820312 764.011719 487.476562 C 764.011719 483.746094 761.957031 480.78125 758.097656 479.363281 C 755.527344 478.460938 752.828125 477.820312 750 477.5625 L 746.785156 477.175781 L 743.566406 476.789062 L 740.355469 476.273438 C 717.851562 473.570312 707.695312 466.105469 707.695312 452.457031 C 707.695312 436.359375 723.121094 426.449219 747.941406 426.449219 C 751.800781 426.449219 755.65625 426.707031 759.636719 427.09375 L 762.984375 427.347656 C 771.855469 428.507812 770.058594 428.25 771.210938 428.378906 C 773.527344 428.636719 774.554688 428.769531 774.8125 428.894531 C 776.097656 429.023438 777.253906 429.148438 777.898438 429.148438 C 779.058594 429.148438 779.824219 428.894531 781.757812 428.121094 L 776.613281 448.847656 C 775.839844 447.433594 774.945312 446.921875 772.367188 446.019531 C 764.78125 443.1875 754.496094 441.257812 747.292969 441.257812 C 735.46875 441.257812 728.523438 444.472656 728.523438 450.007812 C 728.523438 453.230469 730.582031 455.160156 734.824219 456.574219 C 735.984375 456.960938 736.757812 457.09375 740.355469 457.605469 C 742.667969 457.992188 744.855469 458.25 747.167969 458.507812 C 760.15625 460.4375 768.769531 462.625 774.296875 465.585938 C 781.757812 469.710938 786.003906 476.660156 786.003906 485.414062 C 786.003906 501.898438 769.667969 513.226562 745.625 513.226562 C 739.839844 513.226562 726.339844 512.457031 720.167969 511.683594 C 718.753906 511.550781 717.210938 511.425781 716.570312 511.425781 C 714.894531 511.425781 713.992188 511.683594 712.0625 512.710938 Z M 706.667969 488.507812 " fill-opacity="1" fill-rule="evenodd"/></g><path fill="#e4140a" d="M 562.269531 494.300781 L 536.941406 494.300781 L 535.660156 496.746094 C 534.5 498.9375 533.984375 501.253906 533.984375 503.574219 C 533.984375 506.660156 534.882812 508.464844 537.714844 511.164062 L 504.929688 511.164062 C 508.527344 507.046875 509.296875 505.890625 511.867188 500.863281 L 546.199219 432.5 C 546.972656 430.957031 547.097656 430.699219 547.097656 429.925781 C 547.097656 429.28125 546.84375 428.769531 546.328125 428.121094 L 562.269531 428.121094 L 562.269531 440.609375 L 544.265625 478.722656 L 562.269531 478.722656 Z M 587.214844 511.164062 C 589.914062 508.722656 590.6875 507.046875 590.6875 504.214844 C 590.6875 502.410156 590.171875 500.484375 589.402344 498.675781 L 587.214844 494.300781 L 562.269531 494.300781 L 562.269531 478.722656 L 580.402344 478.722656 L 562.785156 439.453125 L 562.269531 440.609375 L 562.269531 428.121094 L 580.785156 428.121094 C 579.757812 428.769531 579.503906 429.28125 579.503906 430.183594 C 579.503906 430.824219 579.757812 431.472656 580.273438 432.625 L 610.359375 496.746094 C 612.933594 501.765625 614.734375 504.726562 619.492188 511.164062 Z M 587.214844 511.164062 " fill-opacity="1" fill-rule="evenodd"/><path fill="#e4140a" d="M 799.113281 411.386719 L 795.253906 411.386719 L 795.253906 422.714844 L 796.671875 422.714844 L 796.671875 417.949219 L 797.699219 417.949219 C 798.214844 417.949219 798.726562 417.949219 799.113281 418.078125 L 799.113281 416.535156 L 796.671875 416.535156 L 796.671875 412.542969 L 799.113281 412.542969 Z M 799.113281 428.121094 C 796.285156 428.121094 793.714844 427.089844 791.65625 424.902344 C 789.472656 422.84375 788.441406 420.398438 788.441406 417.566406 C 788.441406 414.601562 789.472656 412.027344 791.65625 409.964844 C 793.714844 407.777344 796.285156 406.75 799.113281 406.75 L 799.113281 408.039062 C 796.542969 408.039062 794.359375 408.9375 792.429688 410.738281 C 790.625 412.671875 789.726562 414.859375 789.726562 417.566406 C 789.726562 420.136719 790.625 422.328125 792.429688 424.128906 C 794.359375 425.929688 796.542969 426.835938 799.113281 426.835938 Z M 799.113281 418.078125 C 799.5 418.078125 799.628906 418.210938 799.882812 418.335938 C 800.269531 418.597656 800.917969 419.492188 801.8125 421.039062 L 802.972656 422.714844 L 804.769531 422.714844 L 803.613281 420.785156 C 803.355469 420.398438 803.101562 420.011719 802.714844 419.363281 C 802.199219 418.851562 801.945312 418.464844 801.8125 418.335938 C 801.554688 418.210938 801.300781 417.949219 800.785156 417.691406 C 801.8125 417.566406 802.585938 417.304688 803.101562 416.792969 C 803.871094 416.148438 804.257812 415.375 804.257812 414.476562 C 804.257812 413.574219 803.871094 412.800781 803.226562 412.285156 C 802.457031 411.640625 801.300781 411.386719 799.628906 411.386719 L 799.113281 411.386719 L 799.113281 412.542969 C 800.65625 412.671875 801.683594 412.800781 802.070312 413.1875 C 802.457031 413.574219 802.714844 414.085938 802.714844 414.601562 C 802.714844 414.988281 802.585938 415.375 802.328125 415.628906 C 802.070312 416.023438 801.683594 416.277344 801.300781 416.402344 C 800.917969 416.535156 800.269531 416.535156 799.113281 416.535156 Z M 809.914062 417.566406 C 809.914062 420.398438 808.882812 422.84375 806.699219 424.902344 C 804.644531 427.089844 802.199219 428.121094 799.242188 428.121094 L 799.113281 428.121094 L 799.113281 426.835938 C 801.8125 426.835938 804 425.929688 805.925781 424.128906 C 807.730469 422.328125 808.628906 420.136719 808.628906 417.566406 C 808.628906 414.859375 807.730469 412.671875 805.925781 410.738281 C 804 408.9375 801.8125 408.039062 799.113281 408.039062 L 799.113281 406.75 L 799.242188 406.75 C 802.199219 406.75 804.644531 407.777344 806.699219 409.964844 C 808.882812 412.027344 809.914062 414.601562 809.914062 417.566406 " fill-opacity="1" fill-rule="evenodd"/><path fill="#e4140a" d="M 796.671875 412.542969 L 796.671875 416.53125 L 798.214844 416.53125 C 799.757812 416.53125 800.785156 416.53125 801.300781 416.40625 C 801.6875 416.277344 802.070312 416.019531 802.328125 415.632812 C 802.585938 415.375 802.714844 414.988281 802.714844 414.601562 C 802.714844 414.089844 802.460938 413.574219 802.070312 413.1875 C 801.6875 412.800781 800.53125 412.542969 798.855469 412.542969 Z M 795.257812 411.382812 L 799.628906 411.382812 C 801.300781 411.382812 802.460938 411.640625 803.230469 412.289062 C 803.871094 412.800781 804.257812 413.574219 804.257812 414.476562 C 804.257812 415.375 803.871094 416.144531 803.101562 416.792969 C 802.585938 417.308594 801.8125 417.566406 800.785156 417.691406 C 801.300781 417.953125 801.558594 418.207031 801.8125 418.335938 C 801.941406 418.464844 802.199219 418.851562 802.714844 419.367188 C 803.101562 420.011719 803.355469 420.394531 803.617188 420.78125 L 804.769531 422.714844 L 802.96875 422.714844 L 801.8125 421.042969 C 800.914062 419.496094 800.269531 418.59375 799.882812 418.335938 C 799.367188 418.082031 798.730469 417.953125 797.699219 417.953125 L 796.671875 417.953125 L 796.671875 422.714844 L 795.257812 422.714844 Z M 808.628906 417.566406 C 808.628906 414.863281 807.730469 412.667969 805.925781 410.742188 C 803.996094 408.9375 801.8125 408.039062 799.113281 408.039062 C 796.542969 408.039062 794.355469 408.9375 792.429688 410.742188 C 790.628906 412.667969 789.726562 414.863281 789.726562 417.566406 C 789.726562 420.140625 790.628906 422.328125 792.429688 424.128906 C 794.355469 425.933594 796.542969 426.832031 799.113281 426.832031 C 801.8125 426.832031 803.996094 425.933594 805.925781 424.128906 C 807.730469 422.328125 808.628906 420.140625 808.628906 417.566406 M 809.914062 417.566406 C 809.914062 420.394531 808.886719 422.84375 806.699219 424.902344 C 804.644531 427.089844 802.199219 428.121094 799.242188 428.121094 C 796.285156 428.121094 793.714844 427.089844 791.65625 424.902344 C 789.472656 422.84375 788.445312 420.394531 788.445312 417.566406 C 788.445312 414.601562 789.472656 412.027344 791.65625 409.96875 C 793.714844 407.78125 796.285156 406.75 799.242188 406.75 C 802.199219 406.75 804.644531 407.78125 806.699219 409.96875 C 808.886719 412.027344 809.914062 414.601562 809.914062 417.566406 " fill-opacity="1" fill-rule="nonzero"/><path stroke-linecap="butt" transform="matrix(4.64842, 0, 0, -4.654711, 796.671755, 412.543679)" fill="none" stroke-linejoin="miter" d="M 0.0000257248 0.00015264 L 0.0000257248 -0.856674 L 0.33196 -0.856674 C 0.663894 -0.856674 0.884903 -0.856674 0.995828 -0.82982 C 1.079021 -0.802126 1.161375 -0.746738 1.216837 -0.663657 C 1.2723 -0.60827 1.300031 -0.525189 1.300031 -0.442108 C 1.300031 -0.332172 1.245409 -0.221397 1.161375 -0.138316 C 1.079021 -0.0552348 0.830281 0.00015264 0.469775 0.00015264 Z M -0.304177 0.249396 L 0.636163 0.249396 C 0.995828 0.249396 1.245409 0.194009 1.410956 0.0547009 C 1.548771 -0.0552348 1.631965 -0.221397 1.631965 -0.415253 C 1.631965 -0.60827 1.548771 -0.773593 1.383224 -0.912901 C 1.2723 -1.023676 1.105912 -1.079063 0.884903 -1.105918 C 0.995828 -1.162144 1.05129 -1.216692 1.105912 -1.244386 C 1.133644 -1.27208 1.189106 -1.355161 1.300031 -1.465936 C 1.383224 -1.604404 1.437846 -1.686646 1.494149 -1.769727 L 1.742049 -2.185133 L 1.354653 -2.185133 L 1.105912 -1.825954 C 0.912634 -1.49363 0.773978 -1.299774 0.690785 -1.244386 C 0.57986 -1.189838 0.442885 -1.162144 0.221035 -1.162144 L 0.0000257248 -1.162144 L 0.0000257248 -2.185133 L -0.304177 -2.185133 Z M 2.572305 -1.079063 C 2.572305 -0.498334 2.379026 -0.0267019 1.99079 0.387025 C 1.575662 0.774737 1.105912 0.967754 0.525238 0.967754 C -0.0277055 0.967754 -0.498296 0.774737 -0.912583 0.387025 C -1.299979 -0.0267019 -1.494098 -0.498334 -1.494098 -1.079063 C -1.494098 -1.632098 -1.299979 -2.102052 -0.912583 -2.488925 C -0.498296 -2.876637 -0.0277055 -3.069654 0.525238 -3.069654 C 1.105912 -3.069654 1.575662 -2.876637 1.99079 -2.488925 C 2.379026 -2.102052 2.572305 -1.632098 2.572305 -1.079063 Z M 2.848776 -1.079063 C 2.848776 -1.686646 2.627767 -2.212827 2.157177 -2.655087 C 1.715158 -3.125041 1.189106 -3.346591 0.552969 -3.346591 C -0.0831679 -3.346591 -0.636111 -3.125041 -1.07897 -2.655087 C -1.54872 -2.212827 -1.769729 -1.686646 -1.769729 -1.079063 C -1.769729 -0.442108 -1.54872 0.110927 -1.07897 0.553188 C -0.636111 1.023142 -0.0831679 1.244691 0.552969 1.244691 C 1.189106 1.244691 1.715158 1.023142 2.157177 0.553188 C 2.627767 0.110927 2.848776 -0.442108 2.848776 -1.079063 Z M 2.848776 -1.079063 " stroke="#e4140a" stroke-width="0.036" stroke-opacity="1" stroke-miterlimit="3.864"/><g clip-path="url(#914139ce82)"><path fill="#000000" d="M 273.742188 297.054688 L 351.148438 297.054688 L 351.148438 384.347656 L 273.742188 384.347656 Z M 273.742188 297.054688 " fill-opacity="1" fill-rule="nonzero"/></g><path fill="#ffdd00" d="M 276.445312 381.640625 L 348.449219 381.640625 L 348.449219 299.753906 L 276.445312 299.753906 Z M 276.445312 381.640625 " fill-opacity="1" fill-rule="evenodd"/><g clip-path="url(#10a3244458)"><path fill="#000000" d="M 270.914062 297.050781 L 136.804688 384.476562 L 270.914062 384.476562 Z M 270.914062 297.050781 " fill-opacity="1" fill-rule="nonzero"/></g><path fill="#ffdd00" d="M 268.210938 381.769531 L 268.210938 302.074219 L 145.9375 381.769531 Z M 268.210938 381.769531 " fill-opacity="1" fill-rule="evenodd"/><g clip-path="url(#72ff4da6ec)"><path fill="#000000" d="M 514.570312 384.347656 L 648.421875 297.050781 L 514.570312 297.050781 Z M 514.570312 384.347656 " fill-opacity="1" fill-rule="nonzero"/></g><path fill="#e4140a" d="M 517.269531 299.753906 L 517.269531 379.324219 L 639.289062 299.753906 Z M 517.269531 299.753906 " fill-opacity="1" fill-rule="evenodd"/><g clip-path="url(#b5beb5d43e)"><path fill="#000000" d="M 434.335938 297.054688 L 511.613281 297.054688 L 511.613281 384.347656 L 434.335938 384.347656 Z M 434.335938 297.054688 " fill-opacity="1" fill-rule="nonzero"/></g><path fill="#e4140a" d="M 437.039062 381.644531 L 508.914062 381.644531 L 508.914062 299.886719 L 437.039062 299.886719 Z M 437.039062 381.644531 " fill-opacity="1" fill-rule="evenodd"/><g clip-path="url(#545f661743)"><path fill="#000000" d="M 354.105469 297.054688 L 431.382812 297.054688 L 431.382812 384.347656 L 354.105469 384.347656 Z M 354.105469 297.054688 " fill-opacity="1" fill-rule="nonzero"/></g><path fill="#e4140a" d="M 356.804688 381.644531 L 428.679688 381.644531 L 428.679688 299.886719 L 356.804688 299.886719 Z M 356.804688 381.644531 " fill-opacity="1" fill-rule="evenodd"/></svg>