<svg xmlns="http://www.w3.org/2000/svg" xmlns:xlink="http://www.w3.org/1999/xlink" width="1080" zoomAndPan="magnify" viewBox="0 0 810 809.999993" height="1080" preserveAspectRatio="xMidYMid meet" version="1.0"><defs><clipPath id="7132434f1b"><path d="M 296 257.726562 L 411 257.726562 L 411 306 L 296 306 Z M 296 257.726562 " clip-rule="nonzero"/></clipPath><clipPath id="30a015e8b6"><path d="M 0 489 L 810 489 L 810 552.476562 L 0 552.476562 Z M 0 489 " clip-rule="nonzero"/></clipPath></defs><rect x="-81" width="972" fill="#ffffff" y="-80.999999" height="971.999992" fill-opacity="1"/><rect x="-81" width="972" fill="#ffffff" y="-80.999999" height="971.999992" fill-opacity="1"/><g clip-path="url(#7132434f1b)"><path fill="#f19524" d="M 296.097656 305.160156 C 369.585938 305.160156 410.878906 286.378906 410.878906 286.378906 L 410.878906 257.726562 C 410.878906 257.726562 369.558594 276.507812 296.097656 276.507812 Z M 296.097656 305.160156 " fill-opacity="1" fill-rule="nonzero"/></g><path fill="#584446" d="M 101.613281 456.792969 C 81.234375 432.46875 57.4375 409.1875 35.476562 391.90625 L 35.476562 456.792969 L 3.820312 456.792969 L 3.820312 276.507812 L 35.476562 276.507812 L 35.476562 347.953125 C 57.4375 326.484375 78.070312 301.90625 97.6875 276.507812 L 133.496094 276.507812 C 105.515625 314.71875 79.90625 343.230469 52.464844 370.183594 C 80.953125 391.371094 110.773438 419.625 141.351562 456.792969 Z M 188.921875 416.488281 C 188.921875 423.8125 191.523438 430.089844 203.816406 430.089844 L 274.136719 430.089844 L 274.136719 456.761719 L 199.632812 456.761719 C 170.605469 455.972656 157.804688 447.089844 157.292969 420.136719 L 157.292969 276.507812 L 188.921875 276.507812 Z M 436.515625 417.53125 C 447.761719 422.765625 472.863281 432.722656 493.523438 432.722656 C 514.183594 432.722656 529.078125 426.953125 530.378906 407.605469 C 531.171875 393.207031 510 385.882812 484.648438 377.792969 C 478.628906 375.957031 475.746094 374.910156 474.191406 374.144531 C 432.613281 359.75 433.660156 326.261719 433.660156 325.46875 C 433.660156 294.074219 457.710938 273.652344 504.773438 273.652344 C 521.757812 273.652344 545.8125 281.230469 554.714844 285.164062 L 554.714844 312.371094 C 534.589844 305.046875 520.457031 300.859375 504.261719 300.859375 C 477.074219 300.859375 466.359375 312.910156 465.824219 326.769531 C 465.824219 328.863281 465.570312 340.882812 484.140625 346.398438 L 494.3125 349.792969 C 534.335938 362.351562 564.664062 373.609375 562.570312 409.953125 C 559.433594 448.417969 531.480469 459.675781 493.550781 459.675781 C 472.097656 459.675781 450.929688 452.097656 436.542969 446.609375 L 436.542969 417.5625 Z M 592.078125 456.792969 L 592.078125 276.507812 L 623.707031 276.507812 L 623.707031 456.761719 L 592.078125 456.761719 Z M 693.234375 404.210938 L 677.804688 456.792969 L 646.429688 456.792969 C 664.210938 396.347656 680.433594 343.257812 711.015625 276.535156 L 742.386719 276.535156 C 772.96875 343.257812 789.445312 396.375 806.96875 456.792969 L 775.597656 456.792969 C 770.621094 439 765.675781 421.464844 760.417969 404.210938 Z M 752.335938 379.605469 C 744.734375 356.835938 736.648438 335.113281 726.699219 310.535156 C 716.496094 335.394531 708.667969 356.582031 701.09375 379.605469 Z M 410.90625 350.554688 L 410.90625 377.257812 L 327.753906 377.257812 L 327.753906 418.863281 C 327.753906 424.886719 329.847656 430.121094 340.050781 430.121094 L 410.90625 430.121094 L 410.90625 456.792969 L 338.496094 456.792969 C 309.46875 456 296.664062 447.117188 296.128906 420.164062 L 296.128906 350.554688 Z M 410.90625 350.554688 " fill-opacity="1" fill-rule="nonzero"/><g clip-path="url(#30a015e8b6)"><path fill="#f19524" d="M 13.261719 524.53125 L 9.132812 538.195312 L 0.710938 538.195312 C 5.488281 522.496094 9.8125 508.691406 18.007812 491.355469 L 26.402344 491.355469 C 34.601562 508.691406 39.007812 522.496094 43.703125 538.195312 L 35.308594 538.195312 C 33.980469 533.582031 32.648438 529.03125 31.238281 524.53125 L 13.234375 524.53125 Z M 29.089844 518.140625 C 27.054688 512.230469 24.878906 506.601562 22.222656 500.207031 C 19.480469 506.65625 17.386719 512.171875 15.351562 518.140625 Z M 62.074219 510.671875 C 56.957031 510.730469 55.769531 512.511719 55.683594 514.265625 C 55.683594 514.265625 55.402344 516.105469 57.71875 516.839844 L 60.886719 517.855469 C 67.953125 520.09375 74.113281 522.410156 73.773438 529.339844 C 73.152344 537.488281 66.625 538.929688 58.792969 538.929688 C 54.527344 538.929688 50.175781 537.089844 47.660156 536.015625 L 47.660156 529.625 C 50.117188 530.640625 55.289062 532.480469 58.992188 532.480469 C 62.695312 532.480469 65.351562 531.800781 65.632812 529.085938 C 65.832031 526.710938 61.933594 525.492188 57.296875 524.050781 L 55.347656 523.429688 C 46.808594 520.769531 47.347656 514.605469 47.347656 514.179688 C 47.546875 508.324219 52.125 504.109375 62.414062 504.535156 C 65.351562 504.59375 69.988281 505.695312 72.21875 506.714844 L 72.21875 513.050781 C 67.8125 511.070312 64.304688 510.671875 62.074219 510.671875 Z M 93.617188 510.671875 C 88.5 510.730469 87.3125 512.511719 87.257812 514.265625 C 87.257812 514.265625 86.972656 516.105469 89.292969 516.839844 L 92.457031 517.855469 C 99.523438 520.09375 105.683594 522.410156 105.34375 529.339844 C 104.722656 537.488281 98.195312 538.929688 90.367188 538.929688 C 86.097656 538.929688 81.746094 537.089844 79.230469 536.015625 L 79.230469 529.625 C 81.6875 530.640625 86.859375 532.480469 90.5625 532.480469 C 94.265625 532.480469 96.921875 531.800781 97.207031 529.085938 C 97.402344 526.710938 93.503906 525.492188 88.867188 524.050781 L 86.917969 523.429688 C 78.382812 520.769531 78.917969 514.605469 78.917969 514.179688 C 79.117188 508.324219 83.695312 504.109375 93.984375 504.535156 C 96.921875 504.59375 101.558594 505.695312 103.789062 506.714844 L 103.789062 513.050781 C 99.382812 511.070312 95.875 510.671875 93.644531 510.671875 Z M 126.261719 538.957031 C 120.097656 538.957031 111.703125 537.117188 111.703125 523.515625 L 111.703125 505.300781 L 120.382812 505.300781 L 120.382812 524.191406 C 120.382812 530.640625 122.839844 533.019531 127.109375 533.019531 C 129.484375 533.019531 132.5625 531.320312 134.03125 529.878906 L 134.03125 505.269531 L 142.285156 505.269531 L 142.285156 529.933594 C 142.285156 533.414062 145.085938 532.988281 147.402344 531.828125 L 147.402344 537.488281 C 146.355469 537.882812 143.699219 538.902344 140.675781 538.902344 C 137.652344 538.902344 135.21875 536.582031 134.9375 535.308594 C 132.761719 537.882812 128.777344 538.902344 126.261719 538.902344 Z M 160.769531 507.816406 C 163.570312 505.78125 167.074219 504.480469 169.53125 504.480469 C 169.730469 504.480469 171.058594 504.480469 173.179688 504.761719 L 173.179688 511.832031 C 171.085938 511.636719 169.757812 511.636719 169.53125 511.636719 C 167.300781 511.636719 163.992188 512.453125 161.421875 513.871094 L 161.421875 538.195312 L 153.082031 538.195312 L 153.082031 505.300781 L 160.148438 505.300781 Z M 176.484375 521.476562 C 176.484375 510.617188 184.398438 504.621094 193.078125 504.621094 C 203.308594 504.621094 209.386719 511.296875 209.386719 522.101562 L 209.242188 524.675781 L 184.878906 524.675781 C 185.304688 529.964844 189.289062 532.761719 194.546875 532.761719 C 197.910156 532.761719 201.980469 532.421875 207.292969 530.726562 L 207.292969 536.496094 C 204.691406 537.515625 199.039062 538.957031 193.558594 538.957031 C 183.976562 538.957031 176.457031 533.582031 176.457031 521.476562 Z M 184.878906 519.101562 L 201.1875 519.101562 C 200.90625 514.207031 197.402344 510.871094 193.078125 510.871094 C 188.753906 510.871094 185.164062 514.207031 184.878906 519.101562 Z M 230.273438 538.957031 C 224.109375 538.957031 215.714844 537.117188 215.714844 523.515625 L 215.714844 505.300781 L 224.394531 505.300781 L 224.394531 524.191406 C 224.394531 530.640625 226.851562 533.019531 231.121094 533.019531 C 233.492188 533.019531 236.574219 531.320312 238.042969 529.878906 L 238.042969 505.269531 L 246.296875 505.269531 L 246.296875 529.933594 C 246.296875 533.414062 249.097656 532.988281 251.414062 531.828125 L 251.414062 537.488281 C 250.367188 537.882812 247.710938 538.902344 244.6875 538.902344 C 241.664062 538.902344 239.230469 536.582031 238.949219 535.308594 C 236.773438 537.882812 232.789062 538.902344 230.273438 538.902344 Z M 264.8125 507.816406 C 267.609375 505.78125 271.113281 504.480469 273.574219 504.480469 C 273.769531 504.480469 275.097656 504.480469 277.21875 504.761719 L 277.21875 511.832031 C 275.128906 511.636719 273.796875 511.636719 273.574219 511.636719 C 271.339844 511.636719 268.03125 512.453125 265.460938 513.871094 L 265.460938 538.195312 L 257.121094 538.195312 L 257.121094 505.300781 L 264.1875 505.300781 Z M 311.53125 538.957031 C 302.910156 538.957031 295.503906 532.847656 295.503906 521.703125 C 295.503906 510.558594 302.9375 504.507812 311.53125 504.507812 C 314.613281 504.507812 317.890625 505.042969 320.347656 507.023438 L 320.347656 489.96875 L 328.742188 489.96875 L 328.742188 530.019531 C 328.742188 533.5 331.542969 533.074219 333.859375 531.914062 L 333.859375 537.570312 C 332.8125 537.96875 330.15625 538.984375 327.132812 538.984375 C 324.109375 538.984375 321.679688 536.667969 321.394531 535.394531 C 319.445312 537.714844 314.613281 538.984375 311.53125 538.984375 Z M 313.988281 532.507812 C 316.648438 532.507812 319.386719 531.347656 320.347656 530.867188 L 320.347656 512.652344 C 319.359375 512.171875 316.648438 510.957031 313.988281 510.957031 C 307.066406 510.957031 303.898438 516.667969 303.84375 521.761719 C 303.898438 526.796875 307.066406 532.507812 313.988281 532.507812 Z M 337.535156 506.515625 L 342.226562 491.355469 L 350.988281 491.355469 L 344.34375 506.515625 Z M 360.796875 490.621094 C 364.640625 490.621094 365.570312 492.597656 365.570312 495.117188 C 365.570312 497.492188 364.582031 499.613281 360.796875 499.613281 C 357.007812 499.613281 356.019531 497.492188 356.019531 495.117188 C 356.019531 492.597656 356.921875 490.621094 360.796875 490.621094 Z M 356.726562 538.195312 L 356.726562 505.300781 L 364.976562 505.300781 L 364.976562 538.195312 Z M 404.433594 538.195312 L 395.757812 538.195312 L 395.757812 519.300781 C 395.757812 512.851562 393.296875 510.390625 389.03125 510.390625 C 386.65625 510.390625 383.574219 512.144531 382.105469 513.585938 L 382.105469 538.195312 L 373.851562 538.195312 L 373.851562 505.300781 L 381.285156 505.300781 L 381.910156 507.957031 C 384 505.722656 386.742188 504.480469 389.878906 504.480469 C 397.03125 504.480469 404.433594 506.375 404.433594 519.980469 Z M 409.410156 511.351562 L 409.410156 505.300781 L 414.949219 505.300781 L 414.949219 497.890625 L 423.144531 495.652344 L 423.144531 505.300781 L 430.578125 505.300781 L 430.578125 511.351562 L 423.144531 511.351562 L 423.144531 527.8125 C 423.144531 529.933594 423.285156 531.6875 428.460938 531.6875 L 430.636719 531.6875 L 430.636719 538.675781 L 427.273438 538.675781 C 418.652344 538.675781 414.949219 536.496094 414.949219 528.832031 L 414.949219 511.351562 Z M 435.1875 521.476562 C 435.1875 510.617188 443.101562 504.621094 451.777344 504.621094 C 462.007812 504.621094 468.085938 511.296875 468.085938 522.101562 L 467.945312 524.675781 L 443.582031 524.675781 C 444.003906 529.964844 447.988281 532.761719 453.246094 532.761719 C 456.609375 532.761719 460.679688 532.421875 465.992188 530.726562 L 465.992188 536.496094 C 463.394531 537.515625 457.742188 538.957031 452.257812 538.957031 C 442.648438 538.957031 435.15625 533.582031 435.15625 521.476562 Z M 443.582031 519.101562 L 459.886719 519.101562 C 459.605469 514.207031 456.101562 510.871094 451.75 510.871094 C 447.394531 510.871094 443.835938 514.207031 443.550781 519.101562 Z M 453.953125 500.40625 L 447.648438 500.40625 L 452.398438 489.941406 L 460.59375 489.941406 Z M 482.472656 507.816406 C 485.269531 505.78125 488.773438 504.480469 491.234375 504.480469 C 491.460938 504.480469 492.789062 504.480469 494.878906 504.761719 L 494.878906 511.832031 C 492.789062 511.636719 491.460938 511.636719 491.234375 511.636719 C 489 511.636719 485.695312 512.457031 483.121094 513.871094 L 483.121094 538.195312 L 474.785156 538.195312 L 474.785156 505.300781 L 481.851562 505.300781 Z M 498.1875 521.476562 C 498.1875 510.617188 506.101562 504.621094 514.777344 504.621094 C 525.007812 504.621094 531.085938 511.296875 531.085938 522.101562 L 530.945312 524.675781 L 506.582031 524.675781 C 507.003906 529.964844 510.988281 532.761719 516.246094 532.761719 C 519.609375 532.761719 523.679688 532.421875 528.992188 530.726562 L 528.992188 536.496094 C 526.394531 537.515625 520.742188 538.957031 515.257812 538.957031 C 505.648438 538.957031 498.15625 533.582031 498.15625 521.476562 Z M 518.789062 489.941406 L 525.941406 500.40625 L 519.78125 500.40625 L 514.664062 494.351562 L 509.546875 500.40625 L 503.386719 500.40625 L 510.539062 489.941406 Z M 506.609375 519.101562 L 522.917969 519.101562 C 522.632812 514.207031 519.128906 510.871094 514.777344 510.871094 C 510.425781 510.871094 506.863281 514.207031 506.582031 519.101562 Z M 534.535156 511.351562 L 534.535156 505.300781 L 540.074219 505.300781 L 540.074219 497.890625 L 548.269531 495.652344 L 548.269531 505.300781 L 555.703125 505.300781 L 555.703125 511.351562 L 548.269531 511.351562 L 548.269531 527.8125 C 548.269531 529.933594 548.410156 531.6875 553.582031 531.6875 L 555.761719 531.6875 L 555.761719 538.675781 L 552.398438 538.675781 C 543.777344 538.675781 540.074219 536.496094 540.074219 528.832031 L 540.074219 511.351562 Z M 600.164062 535.675781 C 598.410156 537.65625 593.917969 538.929688 590.835938 538.929688 C 582.214844 538.929688 574.808594 532.820312 574.808594 521.675781 C 574.808594 510.53125 582.242188 504.480469 590.835938 504.480469 C 593.917969 504.480469 598.410156 505.835938 600.164062 507.816406 L 600.644531 505.300781 L 608.078125 505.300781 L 608.078125 542.070312 C 608.078125 549.820312 600.445312 552.476562 592.050781 552.476562 C 588.746094 552.476562 584.476562 551.796875 580.914062 550.640625 L 580.914062 544.386719 C 585.804688 545.945312 588.828125 546.367188 591.34375 546.367188 C 600.164062 546.367188 600.164062 543.226562 600.164062 540.796875 Z M 593.292969 532.480469 C 595.953125 532.480469 598.691406 531.320312 599.652344 530.839844 L 599.652344 512.625 C 598.664062 512.144531 595.953125 510.929688 593.292969 510.929688 C 586.371094 510.929688 583.203125 516.640625 583.148438 521.730469 C 583.234375 526.765625 586.371094 532.480469 593.292969 532.480469 Z M 615.03125 521.476562 C 615.03125 510.617188 622.945312 504.621094 631.621094 504.621094 C 641.851562 504.621094 647.929688 511.296875 647.929688 522.101562 L 647.789062 524.675781 L 623.425781 524.675781 C 623.847656 529.964844 627.832031 532.761719 633.089844 532.761719 C 636.453125 532.761719 640.523438 532.421875 645.835938 530.726562 L 645.835938 536.496094 C 643.238281 537.515625 637.585938 538.957031 632.101562 538.957031 C 622.492188 538.957031 615 533.582031 615 521.476562 Z M 623.425781 519.101562 L 639.734375 519.101562 C 639.449219 514.207031 635.945312 510.871094 631.59375 510.871094 C 627.238281 510.871094 623.679688 514.207031 623.394531 519.101562 Z M 633.796875 500.40625 L 627.492188 500.40625 L 632.242188 489.941406 L 640.4375 489.941406 Z M 685.210938 538.195312 L 676.53125 538.195312 L 676.53125 519.300781 C 676.53125 512.851562 674.074219 510.390625 669.804688 510.390625 C 667.429688 510.390625 664.351562 512.144531 662.878906 513.585938 L 662.878906 538.195312 L 654.628906 538.195312 L 654.628906 505.300781 L 662.0625 505.300781 L 662.683594 507.957031 C 664.773438 505.722656 667.515625 504.480469 670.679688 504.480469 C 677.832031 504.480469 685.238281 506.375 685.238281 519.980469 L 685.238281 538.195312 Z M 691.792969 521.476562 C 691.792969 510.617188 699.707031 504.621094 708.386719 504.621094 C 718.617188 504.621094 724.695312 511.296875 724.695312 522.101562 L 724.550781 524.675781 L 700.1875 524.675781 C 700.613281 529.964844 704.597656 532.761719 709.855469 532.761719 C 713.21875 532.761719 717.289062 532.421875 722.601562 530.726562 L 722.601562 536.496094 C 720.003906 537.515625 714.347656 538.957031 708.867188 538.957031 C 699.257812 538.957031 691.765625 533.582031 691.765625 521.476562 Z M 700.1875 519.101562 L 716.496094 519.101562 C 716.214844 514.207031 712.710938 510.871094 708.359375 510.871094 C 704.003906 510.871094 700.445312 514.207031 700.160156 519.101562 Z M 710.5625 500.40625 L 704.257812 500.40625 L 709.007812 489.941406 L 717.203125 489.941406 Z M 739.082031 507.816406 C 741.878906 505.78125 745.382812 504.480469 747.84375 504.480469 C 748.039062 504.480469 749.398438 504.480469 751.488281 504.761719 L 751.488281 511.832031 C 749.398438 511.636719 748.070312 511.636719 747.84375 511.636719 C 745.609375 511.636719 742.300781 512.457031 739.730469 513.871094 L 739.730469 538.195312 L 731.390625 538.195312 L 731.390625 505.300781 L 738.457031 505.300781 Z M 783.566406 529.964844 C 783.566406 533.441406 786.367188 533.019531 788.683594 531.859375 L 788.683594 537.515625 C 787.636719 537.910156 784.980469 538.929688 781.957031 538.929688 C 778.933594 538.929688 776.5 536.609375 776.21875 535.335938 C 774.46875 537.035156 770.398438 538.929688 767.175781 538.929688 C 757.734375 538.929688 754.511719 534.320312 754.511719 528.039062 C 754.511719 520.914062 761.664062 517.519531 768.925781 517.519531 C 771.019531 517.519531 773.335938 517.800781 775.230469 518.253906 L 775.230469 517.632812 C 775.230469 513.132812 772.628906 510.558594 769.070312 510.558594 C 764.714844 510.558594 761.4375 511.636719 757.453125 513.21875 L 757.453125 507.25 C 760.53125 506.035156 764.039062 504.449219 770.140625 504.449219 C 777.207031 504.449219 783.597656 507.929688 783.597656 518.847656 L 783.597656 529.933594 Z M 775.230469 523.710938 C 773.816406 523.515625 772.207031 523.371094 770.734375 523.371094 C 765.761719 523.371094 762.679688 524.785156 762.679688 528.324219 C 762.679688 530.699219 764.234375 533.019531 767.9375 533.019531 C 770.253906 533.019531 773.902344 531.660156 775.230469 530.300781 Z M 801.855469 528.011719 C 801.855469 530.105469 801.996094 531.886719 807.113281 531.886719 L 809.289062 531.886719 L 809.289062 538.617188 L 805.925781 538.617188 C 797.390625 538.617188 793.515625 536.441406 793.515625 528.746094 L 793.515625 489.941406 L 801.855469 489.941406 Z M 801.855469 528.011719 " fill-opacity="1" fill-rule="nonzero"/></g></svg>