<svg xmlns="http://www.w3.org/2000/svg" xmlns:xlink="http://www.w3.org/1999/xlink" width="1080" zoomAndPan="magnify" viewBox="0 0 810 809.999993" height="1080" preserveAspectRatio="xMidYMid meet" version="1.0"><rect x="-81" width="972" fill="#ffffff" y="-80.999999" height="971.999992" fill-opacity="1"/><rect x="-81" width="972" fill="#ffffff" y="-80.999999" height="971.999992" fill-opacity="1"/><path fill="#0078c1" d="M 547.929688 356.144531 C 542.882812 352.433594 534.871094 350.058594 527.152344 350.207031 C 518.695312 350.355469 510.683594 353.027344 505.042969 357.480469 L 505.042969 304.339844 L 478.777344 304.339844 L 478.777344 477.71875 L 505.042969 477.71875 L 505.042969 387.167969 C 505.042969 380.933594 510.386719 373.957031 520.179688 373.511719 C 524.484375 373.363281 530.566406 375.292969 533.683594 379.894531 C 536.949219 384.644531 536.800781 391.175781 536.800781 398.152344 L 536.652344 477.71875 L 562.914062 477.71875 L 562.914062 397.261719 C 562.914062 373.511719 559.949219 365.050781 547.929688 356.144531 " fill-opacity="1" fill-rule="nonzero"/><path fill="#0078c1" d="M 334.25 415.667969 C 334.25 432.589844 333.65625 437.339844 333.507812 438.824219 C 332.617188 448.324219 328.609375 458.269531 317.628906 458.269531 C 306.796875 458.269531 302.34375 447.582031 301.898438 438.378906 C 301.75 438.378906 301.15625 432.589844 301.15625 415.667969 C 301.15625 398.746094 301.75 391.621094 301.898438 391.621094 C 301.898438 381.972656 306.945312 372.472656 317.628906 372.472656 C 328.460938 372.472656 333.359375 381.972656 333.507812 391.472656 C 333.507812 391.621094 334.25 398.746094 334.25 415.667969 Z M 359.625 395.183594 C 355.914062 358.222656 334.84375 350.207031 317.628906 350.207031 C 293.144531 350.207031 278.304688 365.792969 275.636719 395.183594 C 275.339844 397.558594 275.042969 401.863281 274.894531 415.667969 C 274.746094 425.761719 275.488281 434.074219 275.636719 436.152344 C 277.269531 463.617188 292.996094 480.390625 317.628906 480.390625 C 342.261719 480.390625 357.992188 463.320312 359.773438 436.152344 C 359.921875 434.222656 360.363281 425.761719 360.363281 415.667969 C 360.363281 411.066406 360.066406 398.746094 359.625 395.183594 " fill-opacity="1" fill-rule="nonzero"/><path fill="#0078c1" d="M 606.839844 400.082031 C 606.988281 394.292969 606.988281 393.105469 607.136719 391.472656 C 607.878906 381.082031 612.476562 372.472656 623.160156 372.472656 C 635.773438 372.324219 638.742188 384.644531 639.1875 391.472656 C 639.484375 395.183594 639.632812 397.558594 639.632812 400.082031 Z M 639.335938 434.816406 C 639.335938 434.816406 639.335938 436.746094 639.039062 439.121094 C 638.296875 445.207031 635.921875 458.269531 623.160156 458.269531 C 612.179688 458.269531 608.027344 448.324219 607.285156 438.527344 C 607.136719 435.707031 606.691406 432.589844 606.691406 421.902344 L 665.304688 421.902344 C 665.304688 421.902344 665.304688 413.144531 665.15625 407.949219 C 665.15625 405.871094 665.007812 402.457031 664.5625 395.183594 C 663.671875 384.050781 659.515625 371.878906 653.136719 364.160156 C 645.863281 354.957031 635.476562 350.207031 623.160156 350.207031 C 599.417969 350.207031 584.582031 365.644531 581.761719 395.183594 C 581.464844 397.855469 581.019531 401.566406 581.019531 415.667969 C 581.019531 425.761719 581.613281 434.222656 581.761719 436.152344 C 583.246094 463.171875 599.269531 480.390625 623.160156 480.390625 C 646.902344 480.390625 662.78125 463.617188 664.5625 434.816406 L 639.335938 434.816406 " fill-opacity="1" fill-rule="nonzero"/><path fill="#0078c1" d="M 191.796875 215.867188 L 618.859375 215.867188 L 782.085938 407.058594 L 618.859375 595.578125 L 191.796875 595.578125 L 27.828125 406.464844 Z M 629.097656 194.640625 L 181.410156 194.640625 L -0.21875 405.722656 L 181.558594 615.46875 L 629.097656 615.46875 L 810.128906 406.464844 L 629.097656 194.640625 " fill-opacity="1" fill-rule="nonzero"/><path fill="#0078c1" d="M 197.136719 327.941406 L 209.453125 327.941406 C 222.957031 327.941406 230.375 335.066406 230.671875 347.832031 C 230.671875 348.871094 230.820312 349.910156 230.820312 351.839844 C 230.820312 354.214844 230.820312 354.957031 230.671875 355.996094 C 229.933594 363.566406 226.519531 376.777344 210.789062 376.777344 L 197.136719 376.777344 Z M 259.3125 466.882812 C 259.3125 466.882812 256.640625 424.425781 256.640625 424.425781 C 255.453125 405.425781 250.558594 394.144531 240.617188 388.355469 C 247.738281 384.050781 256.9375 373.511719 256.789062 351.394531 C 256.789062 317.847656 235.867188 305.972656 211.234375 305.675781 L 171.167969 305.675781 L 171.167969 477.71875 L 196.988281 477.71875 L 197.136719 399.042969 L 211.53125 399.042969 C 219.839844 399.042969 229.191406 406.316406 230.671875 426.800781 L 233.34375 467.03125 C 233.640625 472.820312 234.679688 477.71875 234.679688 477.71875 L 260.648438 477.71875 C 260.648438 477.71875 259.460938 472.96875 259.3125 466.882812 " fill-opacity="1" fill-rule="nonzero"/><path fill="#0078c1" d="M 436.339844 433.628906 C 436.339844 435.558594 436.191406 437.191406 436.042969 438.378906 C 435.300781 448.027344 432.035156 458.269531 420.164062 458.269531 C 409.332031 458.269531 405.03125 447.136719 404.140625 438.972656 C 403.695312 434.074219 403.84375 430.214844 403.695312 415.667969 C 403.546875 398.746094 404.140625 394.292969 404.4375 391.621094 C 405.328125 380.785156 409.480469 372.472656 420.164062 372.472656 C 431.292969 372.324219 435.894531 381.972656 436.042969 391.472656 C 436.042969 391.621094 436.339844 393.847656 436.488281 398.894531 L 462.457031 398.894531 C 462.457031 397.113281 462.308594 395.628906 462.308594 394.886719 C 459.339844 358.964844 437.378906 350.207031 420.164062 350.207031 C 395.679688 350.207031 380.84375 365.792969 378.171875 395.183594 C 377.875 397.558594 377.578125 401.863281 377.429688 415.667969 C 377.28125 425.761719 378.023438 434.074219 378.171875 436.152344 C 379.804688 463.617188 395.53125 480.390625 420.164062 480.390625 C 445.6875 480.539062 459.785156 464.953125 462.308594 436.152344 C 462.308594 435.113281 462.457031 434.371094 462.457031 433.628906 L 436.339844 433.628906 " fill-opacity="1" fill-rule="nonzero"/></svg>