<svg xmlns="http://www.w3.org/2000/svg" xmlns:xlink="http://www.w3.org/1999/xlink" width="1080" zoomAndPan="magnify" viewBox="0 0 810 809.999993" height="1080" preserveAspectRatio="xMidYMid meet" version="1.0"><defs><clipPath id="93db569500"><path d="M 277 431 L 809.984375 431 L 809.984375 568 L 277 568 Z M 277 431 " clip-rule="nonzero"/></clipPath><clipPath id="e9870e80ca"><path d="M 241 247 L 809.984375 247 L 809.984375 383 L 241 383 Z M 241 247 " clip-rule="nonzero"/></clipPath><clipPath id="b813d02a3e"><path d="M 191 67.5 L 809.984375 67.5 L 809.984375 204 L 191 204 Z M 191 67.5 " clip-rule="nonzero"/></clipPath><clipPath id="3bd1bacc9e"><path d="M 0.0234375 179 L 101 179 L 101 281 L 0.0234375 281 Z M 0.0234375 179 " clip-rule="nonzero"/></clipPath><clipPath id="dc5b84c704"><path d="M 122 634 L 230 634 L 230 742.238281 L 122 742.238281 Z M 122 634 " clip-rule="nonzero"/></clipPath><clipPath id="8df36af1d1"><path d="M 719 636 L 809.984375 636 L 809.984375 741 L 719 741 Z M 719 636 " clip-rule="nonzero"/></clipPath></defs><rect x="-81" width="972" fill="#ffffff" y="-80.999999" height="971.999992" fill-opacity="1"/><rect x="-81" width="972" fill="#ffffff" y="-80.999999" height="971.999992" fill-opacity="1"/><g clip-path="url(#93db569500)"><path fill="#0f58ce" d="M 750.09375 469.238281 C 717.957031 481.167969 683.292969 480.21875 651.535156 466.636719 L 595.8125 442.828125 L 595.765625 442.804688 C 561.933594 428.335938 524.65625 428.335938 490.8125 442.828125 L 429.105469 469.238281 C 396.96875 481.167969 362.304688 480.21875 330.546875 466.636719 L 277.6875 444.050781 L 319.117188 551.429688 L 330.546875 556.3125 C 362.304688 569.898438 396.96875 570.84375 429.105469 558.914062 L 490.8125 532.503906 C 524.65625 518.015625 561.933594 518.011719 595.765625 532.480469 L 595.8125 532.503906 L 651.535156 556.3125 C 683.292969 569.898438 717.957031 570.84375 750.09375 558.914062 L 810.007812 533.273438 L 810.007812 443.589844 Z M 750.09375 469.238281 " fill-opacity="1" fill-rule="nonzero"/></g><g clip-path="url(#e9870e80ca)"><path fill="#0f58ce" d="M 750.09375 284.441406 C 717.957031 296.371094 683.292969 295.421875 651.535156 281.839844 L 595.8125 258.03125 L 595.765625 258.007812 C 561.933594 243.539062 524.65625 243.539062 490.8125 258.03125 L 429.105469 284.441406 C 396.96875 296.371094 362.304688 295.421875 330.546875 281.839844 L 307.550781 272.011719 L 241.332031 338.226562 C 252.722656 339.886719 263.988281 343.023438 274.898438 347.6875 L 274.824219 347.707031 L 330.546875 371.515625 C 362.304688 385.097656 396.96875 386.050781 429.105469 374.117188 L 490.8125 347.707031 C 524.65625 333.21875 561.933594 333.214844 595.765625 347.6875 L 595.8125 347.707031 L 651.535156 371.515625 C 683.292969 385.097656 717.957031 386.050781 750.09375 374.117188 L 810.007812 348.476562 L 810.007812 258.792969 Z M 750.09375 284.441406 " fill-opacity="1" fill-rule="nonzero"/></g><g clip-path="url(#b813d02a3e)"><path fill="#0f58ce" d="M 750.09375 105.046875 C 717.957031 116.972656 683.292969 116.023438 651.535156 102.441406 L 595.8125 78.632812 L 595.765625 78.613281 C 561.933594 64.136719 524.65625 64.140625 490.8125 78.632812 L 429.105469 105.046875 C 396.96875 116.972656 362.304688 116.023438 330.546875 102.441406 L 274.824219 78.632812 L 274.898438 78.613281 C 248.058594 67.132812 219.050781 64.796875 191.304688 71.542969 L 297.949219 178.1875 L 330.546875 192.121094 C 362.304688 205.703125 396.96875 206.652344 429.105469 194.722656 L 490.8125 168.3125 C 524.65625 153.824219 561.933594 153.820312 595.765625 168.289062 L 595.8125 168.3125 L 651.535156 192.121094 C 683.292969 205.703125 717.957031 206.652344 750.09375 194.722656 L 810.007812 169.082031 L 810.007812 79.398438 Z M 750.09375 105.046875 " fill-opacity="1" fill-rule="nonzero"/></g><path fill="#000000" d="M 85.308594 144.589844 L 135.667969 94.230469 L 186.03125 144.589844 L 135.667969 194.949219 Z M 85.308594 144.589844 " fill-opacity="1" fill-rule="nonzero"/><path fill="#000000" d="M 170.5625 229.898438 L 220.921875 179.535156 L 271.28125 229.898438 L 220.921875 280.257812 Z M 170.5625 229.898438 " fill-opacity="1" fill-rule="nonzero"/><g clip-path="url(#3bd1bacc9e)"><path fill="#000000" d="M 100.746094 229.898438 L 50.382812 179.535156 L 0.0234375 229.898438 L 50.382812 280.257812 Z M 100.746094 229.898438 " fill-opacity="1" fill-rule="nonzero"/></g><path fill="#000000" d="M 135.652344 229.898438 L 22.363281 523.5 C 79.007812 502.0625 119.339844 534.636719 135.652344 558.511719 C 151.96875 534.636719 192.292969 502.066406 248.929688 523.503906 L 248.9375 523.503906 Z M 135.652344 229.898438 " fill-opacity="1" fill-rule="nonzero"/><path fill="#000000" d="M 104.5625 636.527344 L 104.5625 740.242188 L 84.699219 740.242188 L 84.699219 687.75 L 52.210938 726.765625 L 19.859375 687.75 L 19.859375 740.242188 L -0.00390625 740.242188 L -0.00390625 636.527344 L 1.273438 636.527344 L 52.210938 696.398438 L 103.285156 636.527344 Z M 104.5625 636.527344 " fill-opacity="1" fill-rule="nonzero"/><g clip-path="url(#dc5b84c704)"><path fill="#000000" d="M 176.015625 653 C 171.296875 653 166.878906 653.96875 162.777344 655.90625 C 158.671875 657.847656 155.085938 660.425781 152.015625 663.640625 C 148.949219 666.859375 146.519531 670.617188 144.722656 674.917969 C 142.929688 679.222656 142.035156 683.695312 142.035156 688.328125 C 142.035156 693.054688 142.929688 697.550781 144.722656 701.804688 C 146.519531 706.058594 148.949219 709.824219 152.015625 713.085938 C 155.085938 716.347656 158.671875 718.949219 162.777344 720.890625 C 166.878906 722.824219 171.296875 723.796875 176.015625 723.796875 C 180.734375 723.796875 185.144531 722.824219 189.253906 720.890625 C 193.355469 718.949219 196.945312 716.347656 200.007812 713.085938 C 203.082031 709.824219 205.511719 706.058594 207.300781 701.804688 C 209.097656 697.550781 209.996094 693.054688 209.996094 688.328125 C 209.996094 683.695312 209.097656 679.222656 207.300781 674.917969 C 205.511719 670.617188 203.082031 666.859375 200.007812 663.640625 C 196.945312 660.425781 193.355469 657.847656 189.253906 655.90625 C 185.144531 653.96875 180.734375 653 176.015625 653 M 175.945312 742.238281 C 168.566406 742.238281 161.617188 740.824219 155.085938 737.984375 C 148.5625 735.148438 142.863281 731.292969 137.992188 726.421875 C 133.117188 721.550781 129.265625 715.851562 126.429688 709.324219 C 123.59375 702.796875 122.167969 695.800781 122.167969 688.328125 C 122.167969 680.945312 123.59375 673.976562 126.429688 667.398438 C 129.265625 660.824219 133.117188 655.105469 137.992188 650.234375 C 142.863281 645.363281 148.5625 641.503906 155.085938 638.667969 C 161.617188 635.828125 168.566406 634.414062 175.945312 634.414062 C 183.417969 634.414062 190.414062 635.828125 196.9375 638.667969 C 203.46875 641.503906 209.167969 645.363281 214.039062 650.234375 C 218.910156 655.105469 222.765625 660.824219 225.601562 667.398438 C 228.4375 673.976562 229.863281 680.945312 229.863281 688.328125 C 229.863281 695.800781 228.4375 702.796875 225.601562 709.324219 C 222.765625 715.851562 218.910156 721.550781 214.039062 726.421875 C 209.167969 731.292969 203.46875 735.148438 196.9375 737.984375 C 190.414062 740.824219 183.417969 742.238281 175.945312 742.238281 " fill-opacity="1" fill-rule="nonzero"/></g><path fill="#000000" d="M 267.324219 689.597656 L 294.617188 689.597656 C 296.40625 689.597656 298.265625 689.242188 300.203125 688.535156 C 302.132812 687.824219 303.851562 686.738281 305.363281 685.265625 C 306.867188 683.804688 308.117188 681.984375 309.109375 679.808594 C 310.101562 677.628906 310.597656 675.078125 310.597656 672.144531 C 310.597656 670.632812 310.40625 668.835938 310.03125 666.753906 C 309.65625 664.675781 308.898438 662.691406 307.765625 660.796875 C 306.636719 658.90625 305.035156 657.296875 302.960938 655.972656 C 300.882812 654.644531 298.101562 653.984375 294.617188 653.984375 L 267.324219 653.984375 Z M 267.324219 740.246094 L 247.457031 740.246094 L 247.457031 636.394531 L 294.644531 636.394531 C 299.953125 636.394531 304.804688 637.265625 309.214844 639.019531 C 313.621094 640.769531 317.382812 643.222656 320.507812 646.394531 C 323.632812 649.566406 326.078125 653.347656 327.828125 657.742188 C 329.585938 662.144531 330.457031 666.945312 330.457031 672.144531 C 330.457031 679.996094 328.496094 686.855469 324.5625 692.71875 C 320.628906 698.585938 315.394531 702.792969 308.851562 705.34375 C 317.578125 716.886719 326.203125 728.519531 334.710938 740.246094 L 311.023438 740.246094 C 306.871094 734.859375 302.820312 729.421875 298.859375 723.933594 C 294.902344 718.445312 290.941406 712.867188 286.980469 707.195312 L 267.324219 707.195312 Z M 267.324219 740.246094 " fill-opacity="1" fill-rule="nonzero"/><path fill="#000000" d="M 397.519531 722.664062 C 399.222656 722.664062 400.832031 722.265625 402.347656 721.457031 C 403.859375 720.65625 405.183594 719.5625 406.320312 718.195312 C 407.453125 716.824219 408.347656 715.308594 409.011719 713.652344 C 409.671875 712 410.003906 710.320312 410.003906 708.617188 C 410.003906 705.117188 408.703125 702.179688 406.105469 699.820312 C 403.503906 697.457031 399.929688 696.273438 395.394531 696.273438 L 369.429688 696.273438 L 369.429688 722.664062 Z M 369.429688 678.675781 L 393.832031 678.675781 C 395.820312 678.675781 397.542969 678.300781 399.007812 677.539062 C 400.476562 676.78125 401.703125 675.777344 402.695312 674.539062 C 403.695312 673.304688 404.449219 671.902344 404.972656 670.332031 C 405.488281 668.761719 405.75 667.21875 405.75 665.691406 C 405.75 664.175781 405.46875 662.695312 404.898438 661.265625 C 404.332031 659.84375 403.574219 658.605469 402.625 657.558594 C 401.683594 656.511719 400.570312 655.660156 399.292969 654.988281 C 398.015625 654.328125 396.667969 653.992188 395.25 653.992188 L 369.429688 653.992188 Z M 425.617188 665.28125 C 425.617188 667.371094 425.191406 669.601562 424.335938 671.972656 C 423.484375 674.347656 422.328125 676.527344 420.859375 678.515625 C 419.394531 680.503906 417.621094 682.195312 415.542969 683.566406 C 413.457031 684.945312 411.1875 685.679688 408.730469 685.773438 C 411.28125 685.964844 413.8125 686.695312 416.320312 687.964844 C 418.824219 689.242188 421.074219 690.960938 423.058594 693.132812 C 425.042969 695.300781 426.675781 697.800781 427.957031 700.632812 C 429.234375 703.460938 429.871094 706.484375 429.871094 709.6875 C 429.871094 715.351562 429.019531 720.136719 427.316406 724.054688 C 425.617188 727.96875 423.292969 731.128906 420.363281 733.53125 C 417.429688 735.945312 414 737.660156 410.078125 738.699219 C 406.148438 739.734375 401.964844 740.257812 397.519531 740.257812 L 349.566406 740.257812 L 349.566406 636.398438 L 395.25 636.398438 C 399.414062 636.398438 403.335938 636.804688 407.027344 637.609375 C 410.714844 638.417969 413.925781 639.886719 416.675781 642.019531 C 419.414062 644.15625 421.589844 647.097656 423.199219 650.84375 C 424.808594 654.589844 425.617188 659.402344 425.617188 665.28125 " fill-opacity="1" fill-rule="nonzero"/><path fill="#000000" d="M 470.882812 740.257812 L 451.015625 740.257812 L 451.015625 636.542969 L 470.882812 636.542969 Z M 470.882812 740.257812 " fill-opacity="1" fill-rule="nonzero"/><path fill="#000000" d="M 587.390625 636.417969 L 587.390625 740.269531 L 567.523438 740.269531 L 567.523438 698.984375 L 516.308594 698.984375 L 516.308594 740.269531 L 496.449219 740.269531 L 496.449219 636.417969 L 516.308594 636.417969 L 516.308594 681.394531 L 567.523438 681.394531 L 567.523438 636.417969 Z M 587.390625 636.417969 " fill-opacity="1" fill-rule="nonzero"/><path fill="#000000" d="M 638.605469 706.632812 L 668.257812 706.632812 L 653.503906 675.273438 Z M 599.449219 740.257812 L 652.511719 636.542969 L 654.496094 636.542969 L 707.5625 740.257812 L 685.996094 740.257812 L 677.90625 723.9375 L 628.957031 723.9375 L 621.011719 740.257812 Z M 599.449219 740.257812 " fill-opacity="1" fill-rule="nonzero"/><g clip-path="url(#8df36af1d1)"><path fill="#000000" d="M 807.859375 740.257812 L 739.613281 678.542969 L 739.613281 740.257812 L 719.746094 740.257812 L 719.746094 636.542969 L 721.875 636.542969 L 790.121094 699.25 L 790.121094 636.542969 L 809.980469 636.542969 L 809.980469 740.257812 Z M 807.859375 740.257812 " fill-opacity="1" fill-rule="nonzero"/></g></svg>