<svg xmlns="http://www.w3.org/2000/svg" xmlns:xlink="http://www.w3.org/1999/xlink" width="1080" zoomAndPan="magnify" viewBox="0 0 810 809.999993" height="1080" preserveAspectRatio="xMidYMid meet" version="1.0"><rect x="-81" width="972" fill="#ffffff" y="-80.999999" height="971.999992" fill-opacity="1"/><rect x="-81" width="972" fill="#ffffff" y="-80.999999" height="971.999992" fill-opacity="1"/><path fill="#001d41" d="M 35.753906 492.449219 L 35.753906 485.0625 L 15.859375 485.0625 L 15.859375 475.296875 L 32.945312 475.296875 L 32.945312 468.183594 L 15.859375 468.183594 L 15.859375 459.03125 L 35.480469 459.03125 L 35.480469 451.644531 L 7.371094 451.644531 L 7.371094 492.449219 Z M 49.480469 492.449219 L 49.480469 475.628906 C 49.480469 474.605469 49.644531 473.625 49.972656 472.703125 C 50.304688 471.789062 50.835938 471.035156 51.570312 470.445312 C 52.304688 469.859375 53.300781 469.566406 54.550781 469.566406 C 56.207031 469.566406 57.40625 470.097656 58.164062 471.160156 C 58.917969 472.226562 59.292969 473.457031 59.292969 474.859375 L 59.292969 492.449219 L 67.667969 492.449219 L 67.667969 473.425781 C 67.667969 471.625 67.339844 469.902344 66.671875 468.265625 C 66.015625 466.632812 64.96875 465.289062 63.535156 464.238281 C 62.101562 463.191406 60.242188 462.671875 57.96875 462.671875 C 56.273438 462.671875 54.890625 462.945312 53.804688 463.5 C 52.722656 464.050781 51.859375 464.691406 51.21875 465.425781 C 50.574219 466.160156 50.085938 466.824219 49.753906 467.414062 L 49.480469 467.414062 L 49.480469 463.21875 L 41.101562 463.21875 L 41.101562 492.449219 Z M 91.09375 492.503906 L 91.09375 486.050781 C 89.992188 486.269531 89.109375 486.382812 88.445312 486.382812 C 86.9375 486.382812 85.863281 486.050781 85.222656 485.386719 C 84.578125 484.726562 84.253906 483.789062 84.253906 482.574219 L 84.253906 469.890625 L 90.484375 469.890625 L 90.484375 463.21875 L 84.253906 463.21875 L 84.253906 456 L 75.882812 456 L 75.882812 463.21875 L 70.921875 463.21875 L 70.921875 469.890625 L 75.882812 469.890625 L 75.882812 482.796875 C 75.882812 483.789062 75.992188 484.875 76.210938 486.050781 C 76.433594 487.230469 76.890625 488.339844 77.585938 489.390625 C 78.289062 490.4375 79.316406 491.300781 80.679688 491.980469 C 82.035156 492.660156 83.855469 493 86.132812 493 C 87.453125 493 89.109375 492.832031 91.09375 492.503906 M 103.933594 492.449219 L 103.933594 479.925781 C 103.933594 476.730469 104.578125 474.425781 105.863281 473.007812 C 107.148438 471.59375 109.09375 470.886719 111.707031 470.886719 C 112.550781 470.886719 113.507812 470.996094 114.574219 471.210938 L 114.574219 462.945312 C 113.613281 462.761719 112.734375 462.671875 111.925781 462.671875 C 110.308594 462.671875 108.988281 462.910156 107.957031 463.386719 C 106.929688 463.863281 106.117188 464.472656 105.535156 465.207031 C 104.945312 465.941406 104.488281 466.695312 104.152344 467.46875 L 103.878906 467.46875 L 103.878906 463.21875 L 95.554688 463.21875 L 95.554688 492.449219 Z M 137.335938 492.007812 C 138.917969 491.34375 140.191406 490.515625 141.167969 489.527344 C 142.140625 488.53125 142.882812 487.539062 143.398438 486.550781 C 143.914062 485.554688 144.335938 484.378906 144.667969 483.015625 L 136.949219 483.015625 C 136.652344 483.75 136.308594 484.347656 135.898438 484.808594 C 135.5 485.273438 134.9375 485.671875 134.222656 486.019531 C 133.503906 486.375 132.578125 486.550781 131.441406 486.550781 C 129.457031 486.550781 127.902344 485.90625 126.78125 484.617188 C 125.65625 483.328125 125.042969 481.800781 124.933594 480.039062 L 144.941406 480.039062 L 144.941406 478 C 144.941406 474.726562 144.355469 471.945312 143.179688 469.644531 C 142.003906 467.34375 140.375 465.613281 138.300781 464.4375 C 136.222656 463.257812 133.84375 462.671875 131.164062 462.671875 C 128.625 462.671875 126.429688 463.101562 124.574219 463.964844 C 122.722656 464.824219 121.199219 465.996094 120 467.46875 C 118.808594 468.941406 117.925781 470.566406 117.359375 472.351562 C 116.785156 474.132812 116.503906 475.945312 116.503906 477.777344 C 116.503906 479.691406 116.804688 481.546875 117.410156 483.351562 C 118.015625 485.148438 118.925781 486.777344 120.136719 488.226562 C 121.351562 489.683594 122.894531 490.839844 124.769531 491.699219 C 126.644531 492.5625 128.867188 493 131.441406 493 C 133.789062 493 135.757812 492.667969 137.335938 492.007812 M 126.863281 470.527344 C 128.003906 469.480469 129.378906 468.957031 130.996094 468.957031 C 132.613281 468.957031 133.972656 469.453125 135.078125 470.445312 C 136.179688 471.4375 136.78125 472.945312 136.894531 474.964844 L 124.933594 474.964844 C 125.082031 473.054688 125.726562 471.578125 126.863281 470.527344 M 158.445312 503.199219 L 158.445312 488.695312 L 158.832031 488.695312 C 159.015625 488.953125 159.429688 489.433594 160.074219 490.132812 C 160.714844 490.832031 161.644531 491.480469 162.855469 492.085938 C 164.066406 492.691406 165.613281 493 167.480469 493 C 169.652344 493 171.539062 492.5625 173.132812 491.699219 C 174.734375 490.839844 176.0625 489.683594 177.128906 488.226562 C 178.195312 486.777344 178.996094 485.148438 179.53125 483.351562 C 180.058594 481.546875 180.328125 479.707031 180.328125 477.835938 C 180.328125 475.960938 180.058594 474.125 179.53125 472.320312 C 178.996094 470.523438 178.195312 468.894531 177.128906 467.441406 C 176.0625 465.988281 174.734375 464.824219 173.132812 463.964844 C 171.539062 463.101562 169.652344 462.671875 167.480469 462.671875 C 165.613281 462.671875 164.066406 462.972656 162.855469 463.582031 C 161.644531 464.1875 160.714844 464.839844 160.074219 465.542969 C 159.429688 466.234375 159.015625 466.714844 158.832031 466.96875 L 158.445312 466.96875 L 158.445312 463.21875 L 150.066406 463.21875 L 150.066406 503.199219 Z M 159.023438 473.863281 C 159.519531 472.574219 160.273438 471.519531 161.285156 470.691406 C 162.296875 469.867188 163.554688 469.453125 165.0625 469.453125 C 166.566406 469.453125 167.824219 469.867188 168.835938 470.691406 C 169.847656 471.519531 170.601562 472.574219 171.09375 473.863281 C 171.589844 475.152344 171.839844 476.476562 171.839844 477.835938 C 171.839844 479.195312 171.589844 480.515625 171.09375 481.800781 C 170.601562 483.089844 169.847656 484.152344 168.835938 484.972656 C 167.824219 485.800781 166.566406 486.214844 165.0625 486.214844 C 163.554688 486.214844 162.296875 485.800781 161.285156 484.972656 C 160.273438 484.152344 159.519531 483.089844 159.023438 481.800781 C 158.527344 480.515625 158.28125 479.195312 158.28125 477.835938 C 158.28125 476.476562 158.527344 475.152344 159.023438 473.863281 M 193.613281 492.449219 L 193.613281 479.925781 C 193.613281 476.730469 194.253906 474.425781 195.542969 473.007812 C 196.828125 471.59375 198.773438 470.886719 201.382812 470.886719 C 202.226562 470.886719 203.183594 470.996094 204.25 471.210938 L 204.25 462.945312 C 203.292969 462.761719 202.410156 462.671875 201.605469 462.671875 C 199.988281 462.671875 198.660156 462.910156 197.632812 463.386719 C 196.605469 463.863281 195.796875 464.472656 195.210938 465.207031 C 194.625 465.941406 194.160156 466.695312 193.828125 467.46875 L 193.554688 467.46875 L 193.554688 463.21875 L 185.230469 463.21875 L 185.230469 492.449219 Z M 227.011719 492.007812 C 228.589844 491.34375 229.867188 490.515625 230.84375 489.527344 C 231.816406 488.53125 232.5625 487.539062 233.074219 486.550781 C 233.589844 485.554688 234.011719 484.378906 234.339844 483.015625 L 226.625 483.015625 C 226.332031 483.75 225.980469 484.347656 225.578125 484.808594 C 225.171875 485.273438 224.613281 485.671875 223.898438 486.019531 C 223.179688 486.375 222.25 486.550781 221.113281 486.550781 C 219.128906 486.550781 217.578125 485.90625 216.457031 484.617188 C 215.335938 483.328125 214.71875 481.800781 214.609375 480.039062 L 234.617188 480.039062 L 234.617188 478 C 234.617188 474.726562 234.027344 471.945312 232.859375 469.644531 C 231.679688 467.34375 230.050781 465.613281 227.976562 464.4375 C 225.898438 463.257812 223.515625 462.671875 220.839844 462.671875 C 218.304688 462.671875 216.109375 463.101562 214.25 463.964844 C 212.394531 464.824219 210.871094 465.996094 209.679688 467.46875 C 208.484375 468.941406 207.605469 470.566406 207.027344 472.351562 C 206.460938 474.132812 206.175781 475.945312 206.175781 477.777344 C 206.175781 479.691406 206.480469 481.546875 207.089844 483.351562 C 207.695312 485.148438 208.601562 486.777344 209.8125 488.226562 C 211.03125 489.683594 212.570312 490.839844 214.445312 491.699219 C 216.320312 492.5625 218.542969 493 221.113281 493 C 223.464844 493 225.429688 492.667969 227.011719 492.007812 M 216.539062 470.527344 C 217.675781 469.480469 219.058594 468.957031 220.671875 468.957031 C 222.289062 468.957031 223.644531 469.453125 224.75 470.445312 C 225.855469 471.4375 226.460938 472.945312 226.570312 474.964844 L 214.609375 474.964844 C 214.757812 473.054688 215.402344 471.578125 216.539062 470.527344 M 247.574219 492.449219 L 247.574219 475.628906 C 247.574219 474.605469 247.738281 473.625 248.066406 472.703125 C 248.394531 471.789062 248.929688 471.035156 249.664062 470.445312 C 250.398438 469.859375 251.390625 469.566406 252.644531 469.566406 C 254.292969 469.566406 255.496094 470.097656 256.25 471.160156 C 257.003906 472.226562 257.386719 473.457031 257.386719 474.859375 L 257.386719 492.449219 L 265.757812 492.449219 L 265.757812 473.425781 C 265.757812 471.625 265.429688 469.902344 264.765625 468.265625 C 264.105469 466.632812 263.054688 465.289062 261.625 464.238281 C 260.191406 463.191406 258.335938 462.671875 256.058594 462.671875 C 254.367188 462.671875 252.980469 462.945312 251.894531 463.5 C 250.816406 464.050781 249.945312 464.691406 249.308594 465.425781 C 248.664062 466.160156 248.175781 466.824219 247.847656 467.414062 L 247.574219 467.414062 L 247.574219 463.21875 L 239.195312 463.21875 L 239.195312 492.449219 Z M 287.804688 492.085938 C 289.019531 491.480469 289.945312 490.832031 290.585938 490.132812 C 291.230469 489.433594 291.628906 488.953125 291.773438 488.695312 L 292.214844 488.695312 L 292.214844 492.449219 L 300.59375 492.449219 L 300.59375 450.539062 L 292.214844 450.539062 L 292.214844 466.96875 L 291.773438 466.96875 C 291.628906 466.714844 291.230469 466.234375 290.585938 465.542969 C 289.945312 464.839844 289.019531 464.1875 287.804688 463.582031 C 286.59375 462.972656 285.050781 462.671875 283.179688 462.671875 C 281.007812 462.671875 279.125 463.101562 277.527344 463.964844 C 275.925781 464.824219 274.597656 465.988281 273.53125 467.441406 C 272.464844 468.894531 271.664062 470.523438 271.128906 472.320312 C 270.601562 474.125 270.335938 475.960938 270.335938 477.835938 C 270.335938 479.707031 270.601562 481.546875 271.128906 483.351562 C 271.664062 485.148438 272.464844 486.777344 273.53125 488.226562 C 274.597656 489.683594 275.925781 490.839844 277.527344 491.699219 C 279.125 492.5625 281.007812 493 283.179688 493 C 285.050781 493 286.59375 492.691406 287.804688 492.085938 M 281.828125 484.972656 C 280.816406 484.152344 280.0625 483.089844 279.566406 481.800781 C 279.070312 480.515625 278.824219 479.195312 278.824219 477.835938 C 278.824219 476.476562 279.070312 475.152344 279.566406 473.863281 C 280.0625 472.574219 280.816406 471.519531 281.828125 470.691406 C 282.835938 469.867188 284.09375 469.453125 285.601562 469.453125 C 287.109375 469.453125 288.367188 469.867188 289.375 470.691406 C 290.390625 471.519531 291.140625 472.574219 291.636719 473.863281 C 292.132812 475.152344 292.382812 476.476562 292.382812 477.835938 C 292.382812 479.195312 292.132812 480.515625 291.636719 481.800781 C 291.140625 483.089844 290.390625 484.152344 289.375 484.972656 C 288.367188 485.800781 287.109375 486.214844 285.601562 486.214844 C 284.09375 486.214844 282.835938 485.800781 281.828125 484.972656 M 314.8125 492.449219 L 314.8125 479.925781 C 314.8125 476.730469 315.457031 474.425781 316.746094 473.007812 C 318.027344 471.59375 319.972656 470.886719 322.585938 470.886719 C 323.429688 470.886719 324.386719 470.996094 325.453125 471.210938 L 325.453125 462.945312 C 324.496094 462.761719 323.613281 462.671875 322.804688 462.671875 C 321.1875 462.671875 319.867188 462.910156 318.835938 463.386719 C 317.808594 463.863281 317 464.472656 316.410156 465.207031 C 315.824219 465.941406 315.363281 466.695312 315.035156 467.46875 L 314.757812 467.46875 L 314.757812 463.21875 L 306.4375 463.21875 L 306.4375 492.449219 Z M 348.21875 492.007812 C 349.789062 491.34375 351.070312 490.515625 352.046875 489.527344 C 353.019531 488.53125 353.761719 487.539062 354.277344 486.550781 C 354.792969 485.554688 355.214844 484.378906 355.542969 483.015625 L 347.828125 483.015625 C 347.535156 483.75 347.183594 484.347656 346.785156 484.808594 C 346.375 485.273438 345.816406 485.671875 345.101562 486.019531 C 344.382812 486.375 343.453125 486.550781 342.316406 486.550781 C 340.335938 486.550781 338.78125 485.90625 337.660156 484.617188 C 336.539062 483.328125 335.921875 481.800781 335.8125 480.039062 L 355.820312 480.039062 L 355.820312 478 C 355.820312 474.726562 355.230469 471.945312 354.058594 469.644531 C 352.882812 467.34375 351.257812 465.613281 349.179688 464.4375 C 347.101562 463.257812 344.722656 462.671875 342.042969 462.671875 C 339.507812 462.671875 337.3125 463.101562 335.457031 463.964844 C 333.597656 464.824219 332.070312 465.996094 330.882812 467.46875 C 329.683594 468.941406 328.808594 470.566406 328.234375 472.351562 C 327.664062 474.132812 327.382812 475.945312 327.382812 477.777344 C 327.382812 479.691406 327.683594 481.546875 328.289062 483.351562 C 328.894531 485.148438 329.804688 486.777344 331.015625 488.226562 C 332.230469 489.683594 333.773438 490.839844 335.648438 491.699219 C 337.523438 492.5625 339.746094 493 342.316406 493 C 344.667969 493 346.636719 492.667969 348.21875 492.007812 M 337.742188 470.527344 C 338.878906 469.480469 340.261719 468.957031 341.875 468.957031 C 343.488281 468.957031 344.851562 469.453125 345.953125 470.445312 C 347.054688 471.4375 347.664062 472.945312 347.773438 474.964844 L 335.8125 474.964844 C 335.957031 473.054688 336.601562 471.578125 337.742188 470.527344 M 377.84375 463.964844 C 376.242188 464.824219 374.90625 465.988281 373.847656 467.441406 C 372.78125 468.894531 371.980469 470.523438 371.445312 472.320312 C 370.914062 474.125 370.644531 475.960938 370.644531 477.835938 C 370.644531 479.707031 370.914062 481.546875 371.445312 483.351562 C 371.980469 485.148438 372.78125 486.777344 373.847656 488.226562 C 374.90625 489.683594 376.242188 490.839844 377.84375 491.699219 C 379.4375 492.5625 381.320312 493 383.488281 493 C 385.363281 493 386.910156 492.691406 388.121094 492.085938 C 389.328125 491.480469 390.257812 490.832031 390.902344 490.132812 C 391.546875 489.433594 391.941406 488.953125 392.085938 488.695312 L 392.53125 488.695312 L 392.53125 492.449219 L 400.90625 492.449219 L 400.90625 463.21875 L 392.53125 463.21875 L 392.53125 466.96875 L 392.085938 466.96875 C 391.941406 466.714844 391.546875 466.234375 390.902344 465.542969 C 390.257812 464.839844 389.328125 464.1875 388.121094 463.582031 C 386.910156 462.972656 385.363281 462.671875 383.488281 462.671875 C 381.320312 462.671875 379.4375 463.101562 377.84375 463.964844 M 389.691406 470.691406 C 390.699219 471.519531 391.453125 472.574219 391.949219 473.863281 C 392.445312 475.152344 392.695312 476.476562 392.695312 477.835938 C 392.695312 479.195312 392.445312 480.515625 391.949219 481.800781 C 391.453125 483.089844 390.699219 484.152344 389.691406 484.972656 C 388.679688 485.800781 387.421875 486.214844 385.914062 486.214844 C 384.40625 486.214844 383.152344 485.800781 382.136719 484.972656 C 381.128906 484.152344 380.375 483.089844 379.878906 481.800781 C 379.382812 480.515625 379.132812 479.195312 379.132812 477.835938 C 379.132812 476.476562 379.382812 475.152344 379.878906 473.863281 C 380.375 472.574219 381.128906 471.519531 382.136719 470.691406 C 383.152344 469.867188 384.40625 469.453125 385.914062 469.453125 C 387.421875 469.453125 388.679688 469.867188 389.691406 470.691406 M 420.941406 491.507812 C 422.246094 490.515625 423.210938 489.449219 423.832031 488.3125 L 424.164062 488.3125 L 424.164062 492.449219 L 432.542969 492.449219 L 432.542969 463.21875 L 424.164062 463.21875 L 424.164062 480.039062 C 424.164062 481.066406 424 482.042969 423.667969 482.960938 C 423.339844 483.878906 422.816406 484.636719 422.097656 485.222656 C 421.382812 485.816406 420.417969 486.109375 419.203125 486.109375 C 417.773438 486.109375 416.6875 485.671875 415.953125 484.808594 C 415.21875 483.945312 414.851562 482.816406 414.851562 481.417969 L 414.851562 463.21875 L 406.53125 463.21875 L 406.53125 483.070312 C 406.53125 484.945312 406.859375 486.628906 407.519531 488.121094 C 408.179688 489.609375 409.179688 490.792969 410.523438 491.671875 C 411.867188 492.554688 413.5625 493 415.625 493 C 417.863281 493 419.636719 492.503906 420.941406 491.507812 M 457.074219 503.199219 L 457.074219 488.695312 L 457.453125 488.695312 C 457.640625 488.953125 458.050781 489.433594 458.695312 490.132812 C 459.339844 490.832031 460.265625 491.480469 461.476562 492.085938 C 462.691406 492.691406 464.234375 493 466.109375 493 C 468.277344 493 470.160156 492.5625 471.761719 491.699219 C 473.355469 490.839844 474.691406 489.683594 475.757812 488.226562 C 476.820312 486.777344 477.621094 485.148438 478.152344 483.351562 C 478.683594 481.546875 478.949219 479.707031 478.949219 477.835938 C 478.949219 475.960938 478.683594 474.125 478.152344 472.320312 C 477.621094 470.523438 476.820312 468.894531 475.757812 467.441406 C 474.691406 465.988281 473.355469 464.824219 471.761719 463.964844 C 470.160156 463.101562 468.277344 462.671875 466.109375 462.671875 C 464.234375 462.671875 462.691406 462.972656 461.476562 463.582031 C 460.265625 464.1875 459.339844 464.839844 458.695312 465.542969 C 458.050781 466.234375 457.640625 466.714844 457.453125 466.96875 L 457.070312 466.96875 L 457.070312 463.21875 L 448.695312 463.21875 L 448.695312 503.199219 Z M 457.648438 473.863281 C 458.144531 472.574219 458.898438 471.519531 459.910156 470.691406 C 460.921875 469.867188 462.179688 469.453125 463.679688 469.453125 C 465.191406 469.453125 466.449219 469.867188 467.460938 470.691406 C 468.46875 471.519531 469.222656 472.574219 469.71875 473.863281 C 470.21875 475.152344 470.460938 476.476562 470.460938 477.835938 C 470.460938 479.195312 470.21875 480.515625 469.71875 481.800781 C 469.222656 483.089844 468.46875 484.152344 467.460938 484.972656 C 466.449219 485.800781 465.191406 486.214844 463.679688 486.214844 C 462.179688 486.214844 460.921875 485.800781 459.910156 484.972656 C 458.898438 484.152344 458.144531 483.089844 457.648438 481.800781 C 457.15625 480.515625 456.90625 479.195312 456.90625 477.835938 C 456.90625 476.476562 457.15625 475.152344 457.648438 473.863281 M 492.234375 492.449219 L 492.234375 479.925781 C 492.234375 476.730469 492.878906 474.425781 494.160156 473.007812 C 495.449219 471.59375 497.398438 470.886719 500.003906 470.886719 C 500.851562 470.886719 501.808594 470.996094 502.871094 471.210938 L 502.871094 462.945312 C 501.914062 462.761719 501.035156 462.671875 500.230469 462.671875 C 498.609375 462.671875 497.289062 462.910156 496.257812 463.386719 C 495.230469 463.863281 494.421875 464.472656 493.832031 465.207031 C 493.246094 465.941406 492.789062 466.695312 492.457031 467.46875 L 492.179688 467.46875 L 492.179688 463.21875 L 483.859375 463.21875 L 483.859375 492.449219 Z M 528.449219 490.875 C 530.726562 489.460938 532.464844 487.605469 533.65625 485.308594 C 534.847656 483.007812 535.445312 480.515625 535.445312 477.835938 C 535.445312 475.152344 534.847656 472.660156 533.65625 470.363281 C 532.464844 468.066406 530.726562 466.210938 528.449219 464.792969 C 526.171875 463.378906 523.394531 462.671875 520.125 462.671875 C 516.855469 462.671875 514.078125 463.378906 511.800781 464.792969 C 509.523438 466.210938 507.785156 468.066406 506.59375 470.363281 C 505.398438 472.660156 504.800781 475.152344 504.800781 477.835938 C 504.800781 480.515625 505.398438 483.007812 506.59375 485.308594 C 507.785156 487.605469 509.523438 489.460938 511.800781 490.875 C 514.078125 492.292969 516.855469 493 520.125 493 C 523.394531 493 526.171875 492.292969 528.449219 490.875 M 516.375 485 C 515.347656 484.230469 514.566406 483.210938 514.035156 481.9375 C 513.503906 480.675781 513.234375 479.304688 513.234375 477.835938 C 513.234375 476.328125 513.503906 474.945312 514.035156 473.699219 C 514.566406 472.449219 515.347656 471.4375 516.375 470.664062 C 517.40625 469.890625 518.65625 469.507812 520.125 469.507812 C 521.59375 469.507812 522.832031 469.890625 523.84375 470.664062 C 524.855469 471.4375 525.636719 472.449219 526.1875 473.699219 C 526.738281 474.945312 527.015625 476.328125 527.015625 477.835938 C 527.015625 479.304688 526.738281 480.675781 526.1875 481.9375 C 525.636719 483.210938 524.855469 484.230469 523.84375 485 C 522.832031 485.777344 521.59375 486.164062 520.125 486.164062 C 518.65625 486.164062 517.40625 485.777344 516.375 485 M 570.914062 457.847656 C 571.851562 456.90625 572.320312 455.796875 572.320312 454.511719 C 572.320312 453.152344 571.851562 452 570.914062 451.0625 C 569.980469 450.125 568.792969 449.65625 567.359375 449.65625 C 565.925781 449.65625 564.742188 450.125 563.804688 451.0625 C 562.867188 452 562.402344 453.152344 562.402344 454.511719 C 562.402344 455.796875 562.867188 456.90625 563.804688 457.847656 C 564.742188 458.785156 565.925781 459.253906 567.359375 459.253906 C 568.792969 459.253906 569.980469 458.785156 570.914062 457.847656 M 551.484375 492.449219 L 551.484375 469.890625 L 563.171875 469.890625 L 563.171875 492.449219 L 571.546875 492.449219 L 571.546875 463.21875 L 551.484375 463.21875 L 551.484375 460.90625 C 551.484375 459.511719 551.777344 458.367188 552.367188 457.488281 C 552.953125 456.605469 554 456.160156 555.511719 456.160156 C 555.984375 456.160156 556.667969 456.234375 557.550781 456.382812 L 557.550781 450.484375 C 556.042969 450.15625 554.699219 449.984375 553.527344 449.984375 C 551.394531 449.984375 549.648438 450.34375 548.289062 451.0625 C 546.929688 451.78125 545.875 452.707031 545.117188 453.847656 C 544.367188 454.984375 543.84375 456.183594 543.546875 457.429688 C 543.253906 458.683594 543.109375 459.839844 543.109375 460.90625 L 543.109375 463.21875 L 538.476562 463.21875 L 538.476562 469.890625 L 543.109375 469.890625 L 543.109375 492.449219 Z M 596.1875 492.503906 L 596.1875 486.050781 C 595.085938 486.269531 594.203125 486.382812 593.539062 486.382812 C 592.035156 486.382812 590.957031 486.050781 590.320312 485.386719 C 589.675781 484.726562 589.351562 483.789062 589.351562 482.574219 L 589.351562 469.890625 L 595.578125 469.890625 L 595.578125 463.21875 L 589.351562 463.21875 L 589.351562 456 L 580.972656 456 L 580.972656 463.21875 L 576.015625 463.21875 L 576.015625 469.890625 L 580.972656 469.890625 L 580.972656 482.796875 C 580.972656 483.789062 581.085938 484.875 581.308594 486.050781 C 581.527344 487.230469 581.984375 488.339844 582.683594 489.390625 C 583.382812 490.4375 584.40625 491.300781 585.765625 491.980469 C 587.128906 492.660156 588.949219 493 591.226562 493 C 592.550781 493 594.203125 492.832031 596.1875 492.503906 M 628.042969 492.085938 C 629.253906 491.480469 630.1875 490.832031 630.832031 490.132812 C 631.46875 489.433594 631.863281 488.953125 632.015625 488.695312 L 632.453125 488.695312 L 632.453125 492.449219 L 640.832031 492.449219 L 640.832031 450.539062 L 632.453125 450.539062 L 632.453125 466.96875 L 632.015625 466.96875 C 631.863281 466.714844 631.46875 466.234375 630.832031 465.542969 C 630.1875 464.839844 629.253906 464.1875 628.042969 463.582031 C 626.828125 462.972656 625.289062 462.671875 623.410156 462.671875 C 621.242188 462.671875 619.363281 463.101562 617.761719 463.964844 C 616.164062 464.824219 614.832031 465.988281 613.765625 467.441406 C 612.699219 468.894531 611.90625 470.523438 611.371094 472.320312 C 610.835938 474.125 610.574219 475.960938 610.574219 477.835938 C 610.574219 479.707031 610.835938 481.546875 611.371094 483.351562 C 611.90625 485.148438 612.699219 486.777344 613.765625 488.226562 C 614.832031 489.683594 616.164062 490.839844 617.761719 491.699219 C 619.363281 492.5625 621.242188 493 623.410156 493 C 625.289062 493 626.828125 492.691406 628.042969 492.085938 M 622.0625 484.972656 C 621.050781 484.152344 620.300781 483.089844 619.800781 481.800781 C 619.308594 480.515625 619.0625 479.195312 619.0625 477.835938 C 619.0625 476.476562 619.308594 475.152344 619.800781 473.863281 C 620.300781 472.574219 621.050781 471.519531 622.0625 470.691406 C 623.074219 469.867188 624.328125 469.453125 625.839844 469.453125 C 627.347656 469.453125 628.605469 469.867188 629.613281 470.691406 C 630.625 471.519531 631.378906 472.574219 631.875 473.863281 C 632.367188 475.152344 632.617188 476.476562 632.617188 477.835938 C 632.617188 479.195312 632.367188 480.515625 631.875 481.800781 C 631.378906 483.089844 630.625 484.152344 629.613281 484.972656 C 628.605469 485.800781 627.347656 486.214844 625.839844 486.214844 C 624.328125 486.214844 623.074219 485.800781 622.0625 484.972656 M 666.789062 492.007812 C 668.371094 491.34375 669.648438 490.515625 670.625 489.527344 C 671.59375 488.53125 672.339844 487.539062 672.855469 486.550781 C 673.367188 485.554688 673.789062 484.378906 674.125 483.015625 L 666.40625 483.015625 C 666.113281 483.75 665.765625 484.347656 665.359375 484.808594 C 664.953125 485.273438 664.394531 485.671875 663.675781 486.019531 C 662.960938 486.375 662.035156 486.550781 660.894531 486.550781 C 658.910156 486.550781 657.355469 485.90625 656.234375 484.617188 C 655.113281 483.328125 654.503906 481.800781 654.390625 480.039062 L 674.394531 480.039062 L 674.394531 478 C 674.394531 474.726562 673.808594 471.945312 672.632812 469.644531 C 671.457031 467.34375 669.828125 465.613281 667.753906 464.4375 C 665.679688 463.257812 663.300781 462.671875 660.617188 462.671875 C 658.082031 462.671875 655.882812 463.101562 654.03125 463.964844 C 652.175781 464.824219 650.652344 465.996094 649.460938 467.46875 C 648.261719 468.941406 647.378906 470.566406 646.8125 472.351562 C 646.238281 474.132812 645.957031 475.945312 645.957031 477.777344 C 645.957031 479.691406 646.257812 481.546875 646.863281 483.351562 C 647.472656 485.148438 648.382812 486.777344 649.597656 488.226562 C 650.808594 489.683594 652.347656 490.839844 654.222656 491.699219 C 656.097656 492.5625 658.320312 493 660.894531 493 C 663.246094 493 665.210938 492.667969 666.789062 492.007812 M 656.324219 470.527344 C 657.457031 469.480469 658.832031 468.957031 660.453125 468.957031 C 662.070312 468.957031 663.429688 469.453125 664.53125 470.445312 C 665.636719 471.4375 666.242188 472.945312 666.351562 474.964844 L 654.390625 474.964844 C 654.539062 473.054688 655.179688 471.578125 656.324219 470.527344 M 708.179688 492.503906 L 708.179688 486.050781 C 707.082031 486.269531 706.199219 486.382812 705.535156 486.382812 C 704.03125 486.382812 702.957031 486.050781 702.3125 485.386719 C 701.667969 484.726562 701.347656 483.789062 701.347656 482.574219 L 701.347656 469.890625 L 707.578125 469.890625 L 707.578125 463.21875 L 701.347656 463.21875 L 701.347656 456 L 692.972656 456 L 692.972656 463.21875 L 688.011719 463.21875 L 688.011719 469.890625 L 692.972656 469.890625 L 692.972656 482.796875 C 692.972656 483.789062 693.085938 484.875 693.300781 486.050781 C 693.523438 487.230469 693.980469 488.339844 694.679688 489.390625 C 695.375 490.4375 696.410156 491.300781 697.765625 491.980469 C 699.125 492.660156 700.945312 493 703.226562 493 C 704.542969 493 706.199219 492.832031 708.179688 492.503906 M 735.464844 490.875 C 737.746094 489.460938 739.476562 487.605469 740.671875 485.308594 C 741.867188 483.007812 742.46875 480.515625 742.46875 477.835938 C 742.46875 475.152344 741.867188 472.660156 740.671875 470.363281 C 739.476562 468.066406 737.746094 466.210938 735.464844 464.792969 C 733.1875 463.378906 730.414062 462.671875 727.140625 462.671875 C 723.871094 462.671875 721.101562 463.378906 718.824219 464.792969 C 716.542969 466.210938 714.808594 468.066406 713.609375 470.363281 C 712.417969 472.660156 711.820312 475.152344 711.820312 477.835938 C 711.820312 480.515625 712.417969 483.007812 713.609375 485.308594 C 714.808594 487.605469 716.542969 489.460938 718.824219 490.875 C 721.101562 492.292969 723.871094 493 727.140625 493 C 730.414062 493 733.1875 492.292969 735.464844 490.875 M 723.394531 485 C 722.367188 484.230469 721.585938 483.210938 721.050781 481.9375 C 720.523438 480.675781 720.25 479.304688 720.25 477.835938 C 720.25 476.328125 720.523438 474.945312 721.050781 473.699219 C 721.585938 472.449219 722.367188 471.4375 723.394531 470.664062 C 724.421875 469.890625 725.671875 469.507812 727.140625 469.507812 C 728.609375 469.507812 729.851562 469.890625 730.863281 470.664062 C 731.875 471.4375 732.65625 472.449219 733.207031 473.699219 C 733.761719 474.945312 734.03125 476.328125 734.03125 477.835938 C 734.03125 479.304688 733.761719 480.675781 733.207031 481.9375 C 732.65625 483.210938 731.875 484.230469 730.863281 485 C 729.851562 485.777344 728.609375 486.164062 727.140625 486.164062 C 725.671875 486.164062 724.421875 485.777344 723.394531 485 M 761.785156 491.507812 C 763.089844 490.515625 764.054688 489.449219 764.679688 488.3125 L 765.007812 488.3125 L 765.007812 492.449219 L 773.390625 492.449219 L 773.390625 463.21875 L 765.007812 463.21875 L 765.007812 480.039062 C 765.007812 481.066406 764.84375 482.042969 764.511719 482.960938 C 764.183594 483.878906 763.660156 484.636719 762.941406 485.222656 C 762.226562 485.816406 761.261719 486.109375 760.046875 486.109375 C 758.617188 486.109375 757.53125 485.671875 756.796875 484.808594 C 756.0625 483.945312 755.695312 482.816406 755.695312 481.417969 L 755.695312 463.21875 L 747.371094 463.21875 L 747.371094 483.070312 C 747.371094 484.945312 747.703125 486.628906 748.363281 488.121094 C 749.023438 489.609375 750.023438 490.792969 751.371094 491.671875 C 752.710938 492.554688 754.40625 493 756.464844 493 C 758.707031 493 760.480469 492.503906 761.785156 491.507812 M 797.46875 491.757812 C 799.234375 490.929688 800.578125 489.800781 801.496094 488.367188 C 802.414062 486.933594 802.875 485.335938 802.875 483.570312 C 802.875 480.960938 801.976562 478.960938 800.171875 477.585938 C 798.375 476.210938 796.078125 475.242188 793.28125 474.6875 L 789.480469 473.917969 C 788.453125 473.699219 787.617188 473.40625 786.972656 473.03125 C 786.332031 472.671875 786.007812 472.117188 786.007812 471.382812 C 786.007812 470.757812 786.285156 470.160156 786.835938 469.589844 C 787.386719 469.023438 788.375 468.738281 789.8125 468.738281 C 791.207031 468.738281 792.246094 468.984375 792.925781 469.480469 C 793.605469 469.976562 794.164062 470.722656 794.605469 471.710938 L 802.105469 471.710938 C 801.847656 470.5 801.496094 469.441406 801.054688 468.542969 C 800.617188 467.636719 799.953125 466.738281 799.070312 465.84375 C 798.1875 464.941406 797.003906 464.1875 795.511719 463.582031 C 794.027344 462.972656 792.164062 462.671875 789.925781 462.671875 C 787.53125 462.671875 785.484375 463.074219 783.773438 463.886719 C 782.070312 464.691406 780.753906 465.796875 779.835938 467.1875 C 778.917969 468.589844 778.460938 470.167969 778.460938 471.933594 C 778.460938 473.773438 778.910156 475.273438 779.808594 476.429688 C 780.707031 477.585938 781.90625 478.488281 783.390625 479.125 C 784.882812 479.777344 786.46875 480.261719 788.160156 480.59375 L 792.125 481.363281 C 794.296875 481.800781 795.378906 482.683594 795.378906 484.007812 C 795.378906 484.636719 795.09375 485.257812 794.523438 485.882812 C 793.953125 486.511719 792.898438 486.820312 791.355469 486.820312 C 790.105469 486.820312 789.109375 486.640625 788.375 486.269531 C 787.640625 485.90625 787.085938 485.480469 786.699219 485 C 786.3125 484.523438 786.007812 483.914062 785.785156 483.183594 L 778.019531 483.183594 C 778.273438 484.507812 778.632812 485.660156 779.09375 486.628906 C 779.550781 487.605469 780.25 488.578125 781.1875 489.550781 C 782.121094 490.523438 783.382812 491.34375 784.960938 492.007812 C 786.542969 492.667969 788.542969 493 790.972656 493 C 793.542969 493 795.710938 492.585938 797.46875 491.757812 " fill-opacity="1" fill-rule="nonzero"/><path fill="#001d41" d="M 115.050781 410.585938 L 115.050781 345.75 L 71.671875 345.75 L 71.671875 365.96875 L 91.359375 365.96875 L 91.359375 379.738281 C 86.304688 385.140625 76.550781 390.371094 62.613281 390.371094 C 41.007812 390.371094 24.8125 374.511719 24.8125 350.109375 C 24.8125 326.582031 39.792969 310.195312 61.566406 310.195312 C 77.597656 310.195312 86.65625 318.039062 92.226562 325.535156 L 111.039062 311.59375 C 102.855469 298.695312 87 287.714844 61.566406 287.714844 C 24.289062 287.714844 -0.445312 315.777344 -0.445312 350.109375 C -0.445312 387.578125 24.8125 412.675781 61.566406 412.675781 C 75.503906 412.675781 85.4375 408.496094 91.707031 403.4375 L 91.707031 410.585938 Z M 172.363281 341.394531 L 172.363281 316.992188 C 162.605469 316.992188 157.554688 320.132812 154.242188 324.839844 L 154.242188 317.339844 L 130.902344 317.339844 L 130.902344 410.585938 L 154.242188 410.585938 L 154.242188 353.769531 C 154.242188 345.574219 157.382812 341.394531 166.4375 341.394531 Z M 200.0625 364.050781 C 200.0625 348.195312 209.992188 336.863281 225.320312 336.863281 C 240.304688 336.863281 250.753906 348.714844 250.753906 364.050781 C 250.753906 379.5625 240.824219 391.0625 225.496094 391.0625 C 210.511719 391.0625 200.0625 379.910156 200.0625 364.050781 M 176.71875 364.226562 C 176.71875 391.761719 196.230469 412.152344 225.320312 412.152344 C 254.066406 412.152344 274.101562 391.238281 274.101562 363.878906 C 274.101562 336.511719 254.761719 315.777344 225.320312 315.777344 C 197.273438 315.777344 176.71875 336.511719 176.71875 364.226562 M 308.941406 375.902344 L 308.941406 317.339844 L 285.59375 317.339844 L 285.59375 378.691406 C 285.59375 397.691406 293.605469 411.632812 314.515625 411.632812 C 325.484375 411.632812 331.410156 406.925781 334.023438 403.613281 L 334.023438 410.585938 L 357.195312 410.585938 L 357.195312 317.339844 L 333.851562 317.339844 L 333.851562 375.726562 C 333.851562 384.617188 329.320312 390.71875 320.957031 390.71875 C 312.597656 390.71875 308.941406 384.964844 308.941406 375.902344 M 395.171875 364.050781 C 395.171875 348.195312 404.75 336.511719 420.777344 336.511719 C 436.28125 336.511719 446.558594 348.195312 446.558594 364.050781 C 446.558594 380.089844 436.980469 391.414062 420.953125 391.414062 C 405.449219 391.414062 395.171875 380.089844 395.171875 364.050781 M 395.863281 441.082031 L 395.863281 403.09375 C 400.570312 407.097656 409.804688 412.152344 422.171875 412.152344 C 451.789062 412.152344 469.902344 390.894531 469.902344 363.707031 C 469.902344 335.816406 451.613281 315.777344 423.214844 315.777344 C 408.410156 315.777344 399.351562 321.527344 394.644531 326.230469 L 394.644531 317.339844 L 372.519531 317.339844 L 372.519531 441.082031 Z M 502.828125 371.546875 L 569.375 371.546875 C 569.898438 367.539062 569.71875 364.226562 569.71875 361.957031 C 569.71875 334.074219 551.953125 315.777344 524.078125 315.777344 C 497.078125 315.777344 478.265625 336.34375 478.265625 364.226562 C 478.265625 394.03125 497.597656 412.152344 525.996094 412.152344 C 548.640625 412.152344 561.1875 399.605469 566.757812 387.929688 L 549.515625 377.46875 C 544.636719 385.140625 537.84375 391.414062 525.996094 391.414062 C 512.753906 391.414062 504.046875 384.089844 502.828125 371.546875 M 523.90625 335.46875 C 536.625 335.46875 544.285156 343.484375 545.507812 353.945312 L 503.347656 353.945312 C 504.570312 343.3125 512.058594 335.46875 523.90625 335.46875 M 590.453125 339.304688 C 590.453125 329.71875 597.070312 324.660156 606.828125 324.660156 C 617.976562 324.660156 623.375 331.632812 623.902344 343.3125 L 633.480469 343.3125 C 633.480469 329.371094 626.511719 316.300781 606.996094 316.300781 C 591.152344 316.300781 580.523438 325.359375 580.523438 339.828125 C 580.523438 349.585938 584.355469 357.078125 595.5 362.484375 C 601.597656 365.269531 607.527344 366.316406 613.625 368.929688 C 621.117188 371.894531 626.164062 376.429688 626.164062 386.359375 C 626.164062 397.515625 617.105469 403.09375 607.347656 403.09375 C 592.71875 403.09375 588.1875 393.679688 587.664062 382.175781 L 577.734375 382.175781 C 577.734375 398.035156 585.746094 411.632812 606.828125 411.632812 C 623.375 411.632812 636.269531 401.871094 636.269531 385.664062 C 636.269531 371.894531 629.824219 364.746094 618.152344 360.042969 C 611.707031 357.429688 606.480469 356.734375 600.730469 354.117188 C 593.933594 350.804688 590.453125 346.796875 590.453125 339.304688 M 657.871094 364.050781 C 657.871094 341.046875 673.375 324.839844 694.976562 324.839844 C 716.578125 324.839844 732.257812 341.394531 732.257812 364.050781 C 732.257812 387.058594 716.578125 403.09375 694.976562 403.09375 C 673.375 403.09375 657.871094 387.058594 657.871094 364.050781 M 647.417969 364.050781 C 647.417969 393.332031 668.148438 412.152344 694.796875 412.152344 C 721.277344 412.152344 742.703125 392.285156 742.703125 364.050781 C 742.703125 335.644531 721.800781 315.777344 695.148438 315.777344 C 668.667969 315.777344 647.417969 335.292969 647.417969 364.050781 M 764.652344 339.304688 C 764.652344 329.71875 771.277344 324.660156 781.03125 324.660156 C 792.179688 324.660156 797.582031 331.632812 798.105469 343.3125 L 807.683594 343.3125 C 807.683594 329.371094 800.71875 316.300781 781.207031 316.300781 C 765.351562 316.300781 754.726562 325.359375 754.726562 339.828125 C 754.726562 349.585938 758.558594 357.078125 769.710938 362.484375 C 775.808594 365.269531 781.734375 366.316406 787.828125 368.929688 C 795.3125 371.894531 800.371094 376.429688 800.371094 386.359375 C 800.371094 397.515625 791.308594 403.09375 781.558594 403.09375 C 766.925781 403.09375 762.394531 393.679688 761.867188 382.175781 L 751.9375 382.175781 C 751.9375 398.035156 759.957031 411.632812 781.03125 411.632812 C 797.582031 411.632812 810.472656 401.871094 810.472656 385.664062 C 810.472656 371.894531 804.023438 364.746094 792.355469 360.042969 C 785.910156 357.429688 780.683594 356.734375 774.933594 354.117188 C 768.144531 350.804688 764.652344 346.796875 764.652344 339.304688 " fill-opacity="1" fill-rule="nonzero"/></svg>