<svg xmlns="http://www.w3.org/2000/svg" xmlns:xlink="http://www.w3.org/1999/xlink" width="1080" zoomAndPan="magnify" viewBox="0 0 810 809.999993" height="1080" preserveAspectRatio="xMidYMid meet" version="1.0"><defs><clipPath id="419d9924fa"><path d="M 0 226.925781 L 810 226.925781 L 810 583.175781 L 0 583.175781 Z M 0 226.925781 " clip-rule="nonzero"/></clipPath></defs><rect x="-81" width="972" fill="#ffffff" y="-80.999999" height="971.999992" fill-opacity="1"/><rect x="-81" width="972" fill="#ffffff" y="-80.999999" height="971.999992" fill-opacity="1"/><g clip-path="url(#419d9924fa)"><path fill="#000000" d="M 354.53125 525.808594 C 358.792969 525.808594 363.070312 524.847656 366.5 522.4375 C 372.050781 518.484375 373.3125 512.425781 373.3125 509.121094 C 373.339844 502.773438 370.988281 497.683594 361.878906 490.515625 L 359.714844 488.828125 C 352.34375 483.011719 350.621094 480.527344 350.597656 476.429688 C 350.632812 471.171875 354.347656 468.207031 359.378906 468.164062 C 366.226562 468.199219 367.980469 471.199219 368.394531 471.890625 C 368.75 472.539062 369.25 474.683594 369.320312 475.480469 C 369.320312 475.996094 369.519531 477.0625 370.582031 477.085938 C 371.824219 476.855469 371.738281 475.808594 371.792969 474.648438 C 371.792969 469.417969 372.085938 466.988281 372.101562 466.488281 C 372.109375 466.238281 372.023438 465.804688 371.679688 465.535156 C 371.324219 465.300781 371.003906 465.285156 370.648438 465.285156 C 370.105469 465.285156 369.550781 465.214844 368.101562 464.921875 C 366.164062 464.445312 363.863281 464.136719 360.839844 464.136719 C 350.839844 464.144531 344.304688 470.039062 344.289062 478.652344 C 344.269531 484.074219 346.292969 489.132812 354.503906 495.867188 L 357.96875 498.710938 C 364.546875 504.203125 366.519531 506.976562 366.535156 512.050781 C 366.5 516.660156 363.234375 521.589844 356.234375 521.597656 C 351.238281 521.570312 346.59375 519.59375 345.53125 514.292969 C 345.308594 513.296875 345.308594 512.277344 345.308594 511.585938 C 345.296875 511.257812 345.316406 510.980469 345.125 510.609375 C 344.925781 510.210938 344.417969 510.046875 344.121094 510.074219 C 343.070312 510.152344 342.871094 511.117188 342.828125 511.90625 C 342.75 513.132812 342.4375 516.246094 342.4375 520.128906 C 342.332031 522.066406 342.695312 523.109375 343.957031 523.636719 L 344.269531 523.035156 L 343.96875 523.636719 C 347.242188 525.238281 350.863281 525.808594 354.53125 525.808594 Z M 457.242188 523.636719 L 457.554688 523.035156 L 457.269531 523.636719 C 460.527344 525.238281 464.175781 525.808594 467.839844 525.808594 C 472.066406 525.808594 476.355469 524.847656 479.800781 522.4375 C 485.34375 518.496094 486.621094 512.425781 486.621094 509.121094 C 486.640625 502.773438 484.269531 497.683594 475.160156 490.515625 L 473.007812 488.828125 C 465.636719 483.011719 463.914062 480.527344 463.90625 476.429688 C 463.933594 471.171875 467.632812 468.207031 472.679688 468.164062 C 479.527344 468.199219 481.273438 471.199219 481.679688 471.890625 C 482.058594 472.539062 482.542969 474.667969 482.59375 475.488281 C 482.601562 475.996094 482.828125 477.0625 483.882812 477.085938 C 485.136719 476.855469 485.023438 475.808594 485.074219 474.648438 C 485.074219 469.417969 485.386719 466.988281 485.386719 466.488281 C 485.386719 466.238281 485.324219 465.804688 484.960938 465.542969 C 484.625 465.300781 484.316406 465.285156 483.953125 465.285156 C 483.414062 465.285156 482.855469 465.214844 481.402344 464.921875 C 479.4375 464.445312 477.15625 464.136719 474.132812 464.136719 C 464.132812 464.144531 457.597656 470.039062 457.570312 478.652344 C 457.554688 484.074219 459.585938 489.132812 467.789062 495.867188 L 471.253906 498.710938 C 477.832031 504.203125 479.800781 506.976562 479.828125 512.050781 C 479.800781 516.660156 476.527344 521.589844 469.523438 521.597656 C 464.527344 521.570312 459.894531 519.59375 458.816406 514.292969 C 458.609375 513.316406 458.609375 512.277344 458.609375 511.585938 C 458.601562 511.257812 458.609375 510.964844 458.425781 510.589844 C 458.210938 510.195312 457.710938 510.046875 457.382812 510.074219 C 456.328125 510.160156 456.179688 511.128906 456.117188 511.90625 C 456.042969 513.132812 455.738281 516.246094 455.738281 520.128906 C 455.625 522.066406 455.988281 523.109375 457.242188 523.636719 Z M 398.578125 525.808594 C 402.8125 525.808594 407.082031 524.847656 410.539062 522.4375 C 416.074219 518.496094 417.34375 512.425781 417.34375 509.121094 C 417.378906 502.773438 415.019531 497.683594 405.882812 490.515625 L 403.746094 488.828125 C 396.382812 483.011719 394.636719 480.527344 394.628906 476.429688 C 394.652344 471.171875 398.371094 468.207031 403.402344 468.164062 C 410.253906 468.199219 412.011719 471.199219 412.398438 471.890625 C 412.78125 472.539062 413.261719 474.667969 413.332031 475.488281 C 413.339844 475.996094 413.566406 477.0625 414.621094 477.085938 C 415.875 476.855469 415.761719 475.808594 415.8125 474.648438 C 415.8125 469.417969 416.105469 466.988281 416.125 466.488281 C 416.125 466.238281 416.054688 465.804688 415.691406 465.542969 C 415.355469 465.300781 415.042969 465.285156 414.679688 465.285156 C 414.136719 465.285156 413.582031 465.214844 412.140625 464.921875 C 410.179688 464.445312 407.894531 464.136719 404.863281 464.136719 C 394.871094 464.144531 388.328125 470.039062 388.308594 478.652344 C 388.292969 484.074219 390.316406 489.132812 398.542969 495.867188 L 401.984375 498.710938 C 408.570312 504.203125 410.539062 506.976562 410.566406 512.050781 C 410.539062 516.660156 407.273438 521.589844 400.261719 521.597656 C 395.257812 521.570312 390.625 519.59375 389.554688 514.292969 C 389.339844 513.296875 389.339844 512.277344 389.339844 511.585938 C 389.339844 511.257812 389.355469 510.964844 389.15625 510.589844 C 388.941406 510.195312 388.4375 510.046875 388.128906 510.074219 C 387.074219 510.160156 386.910156 511.128906 386.867188 511.90625 C 386.78125 513.132812 386.46875 516.246094 386.46875 520.128906 C 386.363281 522.066406 386.71875 523.109375 388 523.636719 L 388.285156 523.035156 L 388 523.636719 C 391.265625 525.238281 394.90625 525.808594 398.578125 525.808594 Z M 295.996094 467.628906 C 296.644531 467.621094 297.984375 467.699219 298.457031 467.835938 C 300.773438 468.433594 301.007812 469.027344 301.25 471.613281 C 301.40625 474.035156 301.40625 476.179688 301.40625 488.1875 L 301.40625 501.738281 C 301.40625 509.113281 301.40625 515.21875 301.027344 518.363281 C 300.730469 520.628906 300.300781 521.875 299.332031 522.011719 C 298.664062 522.160156 297.765625 522.289062 297.160156 522.289062 C 296.46875 522.289062 295.882812 522.878906 295.882812 523.429688 C 295.890625 524.484375 296.980469 524.71875 297.765625 524.71875 C 298.976562 524.71875 300.730469 524.5625 302.226562 524.5625 C 303.84375 524.484375 305.148438 524.484375 305.296875 524.484375 C 306.417969 524.484375 308.25 524.5625 311.242188 524.71875 C 314.25 524.796875 318.476562 524.9375 324.261719 524.9375 C 324.597656 524.960938 324.925781 524.980469 325.226562 524.980469 C 327.421875 524.980469 328.625 524.441406 329.039062 522.453125 C 329.453125 520.691406 330.050781 515.589844 330.070312 514.828125 C 330.070312 514.550781 330.078125 514.222656 329.992188 513.867188 C 329.949219 513.546875 329.53125 512.96875 328.945312 512.996094 C 327.984375 513.03125 327.683594 513.929688 327.578125 514.707031 C 327.027344 517.800781 326.28125 518.976562 324.527344 519.746094 C 322.757812 520.507812 319.410156 520.5625 317.421875 520.535156 C 309.832031 520.320312 309.617188 520.015625 309.183594 514.863281 C 309.152344 514.351562 309.152344 512.996094 309.152344 511.335938 C 309.152344 508.023438 309.183594 503.484375 309.183594 501.738281 L 309.183594 495.097656 C 310.777344 495.105469 318.035156 495.269531 319.957031 495.46875 C 322.773438 495.824219 323.058594 496.765625 323.386719 497.683594 C 323.65625 498.609375 323.65625 499.265625 323.65625 500.042969 C 323.664062 500.542969 324.007812 501.410156 324.863281 501.410156 C 325.574219 501.410156 325.945312 500.753906 325.988281 500.398438 C 326.074219 499.984375 326.066406 499.578125 326.066406 499.265625 C 326.066406 498.796875 326.222656 495.902344 326.386719 494.414062 C 326.601562 491.882812 326.972656 490.75 326.992188 490.039062 C 326.984375 489.738281 326.957031 489.453125 326.765625 489.183594 C 326.578125 488.878906 326.195312 488.734375 325.945312 488.75 C 325.027344 488.871094 324.863281 489.417969 324.285156 489.988281 C 323.863281 490.496094 322.988281 490.695312 321.132812 490.835938 C 319.53125 490.980469 310.855469 490.980469 309.183594 490.980469 C 309.183594 490.957031 309.183594 490.929688 309.183594 490.894531 L 309.183594 469.660156 C 309.183594 469.601562 309.183594 469.574219 309.183594 469.539062 C 310.714844 469.546875 318.296875 469.632812 319.429688 469.78125 C 323.542969 470.292969 323.828125 470.964844 324.328125 472.003906 C 324.65625 472.738281 324.734375 474.007812 324.734375 474.492188 C 324.734375 475.117188 325.011719 476.171875 326.023438 476.171875 C 327.085938 475.988281 327.070312 475.167969 327.214844 474.777344 C 327.378906 473.722656 327.527344 470.371094 327.605469 469.644531 C 327.828125 467.523438 328.191406 466.773438 328.226562 465.960938 C 328.191406 465.597656 328.261719 464.757812 327.242188 464.601562 C 326.488281 464.652344 326.171875 465.015625 326.050781 464.992188 C 325.480469 465.128906 324.261719 465.285156 322.851562 465.363281 C 321.121094 465.433594 305.8125 465.433594 305.296875 465.433594 L 302.191406 465.285156 C 300.464844 465.207031 298.390625 465.207031 296.617188 465.207031 C 295.839844 465.207031 294.742188 465.433594 294.722656 466.488281 C 294.777344 467.367188 295.546875 467.621094 295.996094 467.628906 Z M 40.867188 489.882812 L 40.867188 469.210938 C 40.867188 469.210938 40.972656 469.125 41.265625 469.0625 C 42.40625 468.777344 44.015625 468.699219 44.808594 468.699219 C 51.8125 468.71875 54.464844 475.011719 54.507812 481.273438 C 54.515625 484.265625 53.402344 486.882812 51.914062 488.59375 C 50.394531 490.273438 49.804688 490.324219 45.414062 490.375 C 42.625 490.375 41.300781 490.144531 40.851562 490.074219 C 40.867188 490.066406 40.867188 490.066406 40.878906 490.066406 C 40.867188 490.066406 40.867188 490.03125 40.867188 489.882812 Z M 59.808594 510.875 C 59.789062 519.152344 53.617188 521.097656 49.652344 521.148438 C 48.320312 521.15625 45.042969 520.976562 43.183594 520.058594 C 41.058594 518.96875 41.25 518.527344 40.953125 514.613281 C 40.878906 513.546875 40.867188 503.960938 40.867188 498.039062 L 40.867188 493.792969 C 42.21875 493.792969 45.753906 493.800781 46.554688 493.929688 C 48.414062 494.164062 50.144531 494.363281 52.660156 496.058594 C 58.292969 499.929688 59.808594 506.40625 59.808594 510.875 Z M 28.007812 467.621094 C 28.636719 467.621094 29.96875 467.699219 30.453125 467.835938 C 32.769531 468.433594 32.996094 469.039062 33.246094 471.613281 C 33.402344 474.035156 33.402344 476.179688 33.402344 488.1875 L 33.402344 501.738281 C 33.410156 509.113281 33.402344 515.21875 33.011719 518.355469 C 32.726562 520.628906 32.292969 521.875 31.316406 522.011719 C 30.652344 522.160156 29.753906 522.289062 29.15625 522.289062 C 28.464844 522.289062 27.878906 522.878906 27.878906 523.441406 C 27.894531 524.484375 28.984375 524.71875 29.777344 524.71875 C 30.972656 524.71875 32.734375 524.5625 34.230469 524.574219 C 35.847656 524.484375 37.144531 524.484375 37.289062 524.484375 C 37.550781 524.484375 39.71875 524.5625 41.921875 524.71875 C 44.160156 524.796875 46.609375 524.9375 47.507812 524.9375 C 60.929688 524.925781 67.714844 516.089844 67.734375 507.511719 C 67.707031 498.609375 60.707031 493.101562 55 490.980469 C 58.363281 487.4375 61.675781 483.5625 61.675781 477.425781 C 61.65625 473.28125 58.554688 465.214844 45.65625 465.199219 C 42.097656 465.199219 39.097656 465.433594 37.289062 465.433594 C 36.96875 465.433594 32.085938 465.199219 28.613281 465.199219 C 27.824219 465.207031 26.734375 465.433594 26.71875 466.496094 C 26.761719 467.367188 27.546875 467.621094 28.007812 467.621094 Z M 269.820312 520.164062 C 273.929688 524.183594 274.601562 525.109375 275.871094 525.246094 C 275.898438 525.265625 275.933594 525.265625 275.957031 525.265625 C 276.511719 525.265625 277.074219 524.546875 277.074219 523.863281 C 277.1875 523.035156 277.222656 521.675781 277.222656 519.125 L 277.386719 474.035156 C 277.453125 469.296875 277.617188 468.300781 279.683594 467.835938 C 280.582031 467.621094 281.023438 467.628906 281.386719 467.628906 C 282.0625 467.621094 282.890625 467.265625 282.898438 466.425781 C 282.734375 465.15625 281.59375 465.214844 280.859375 465.207031 C 277.679688 465.207031 275.09375 465.441406 274.324219 465.433594 C 273.546875 465.433594 269.820312 465.207031 266.347656 465.207031 C 265.535156 465.25 264.367188 465.105469 264.160156 466.425781 C 264.160156 466.609375 264.160156 466.9375 264.429688 467.238281 C 264.703125 467.550781 265.085938 467.628906 265.429688 467.628906 C 266 467.621094 267.757812 467.6875 269.035156 467.992188 C 270.972656 468.519531 271.378906 469.574219 271.515625 474.667969 L 272.320312 512.007812 C 268.984375 508.414062 261.738281 500.335938 255.09375 493.203125 C 243.285156 480.519531 231.839844 468.105469 230.710938 466.824219 C 229.835938 466.082031 228.929688 464.367188 227.511719 464.136719 C 226.800781 464.109375 226.300781 464.808594 226.214844 465.441406 C 226.058594 466.140625 226.007812 467.136719 226.007812 468.648438 L 225.929688 512.734375 C 225.957031 519.824219 225.386719 521.640625 224.113281 521.855469 C 223.058594 522.230469 221.710938 522.289062 221.148438 522.289062 C 220.621094 522.289062 219.878906 522.703125 219.878906 523.429688 C 219.90625 524.597656 221.105469 524.71875 221.761719 524.71875 C 225.230469 524.71875 228.515625 524.484375 229.128906 524.484375 C 229.742188 524.484375 232.878906 524.71875 237.261719 524.71875 C 238.132812 524.71875 239.230469 524.574219 239.308594 523.429688 C 239.308594 522.703125 238.550781 522.289062 238.03125 522.289062 C 237.375 522.289062 235.722656 522.230469 234.367188 521.855469 C 232.808594 521.441406 232.03125 519.921875 231.867188 513.574219 L 231.195312 513.589844 L 231.867188 513.574219 L 230.917969 478.546875 C 234.355469 482.386719 241.972656 490.851562 249.742188 499.265625 C 257.910156 508.058594 268.921875 519.332031 269.820312 520.164062 Z M 88.832031 520.144531 C 94.527344 525.507812 102.453125 525.800781 105.109375 525.808594 L 105.152344 525.808594 C 109.75 525.808594 115.695312 524.980469 121.351562 519.929688 C 127.753906 514.214844 128.628906 504.773438 128.636719 496.429688 L 128.636719 488.1875 C 128.636719 476.179688 128.636719 474.035156 128.792969 471.613281 C 129.035156 468.933594 129.355469 468.304688 131.125 467.835938 C 132.015625 467.679688 132.429688 467.621094 132.898438 467.621094 C 133.347656 467.621094 134.132812 467.367188 134.167969 466.488281 C 134.167969 465.441406 133.078125 465.207031 132.273438 465.207031 C 129.949219 465.207031 126.300781 465.441406 125.828125 465.433594 C 125.429688 465.441406 121.167969 465.207031 117.695312 465.207031 C 116.898438 465.207031 115.816406 465.441406 115.792969 466.488281 C 115.84375 467.367188 116.628906 467.621094 117.089844 467.621094 C 117.71875 467.621094 119.050781 467.707031 119.527344 467.835938 C 121.84375 468.433594 122.066406 469.039062 122.328125 471.613281 C 122.472656 474.035156 122.472656 476.179688 122.472656 488.1875 L 122.472656 497.8125 C 122.492188 505.6875 121.53125 512.085938 118.167969 516.246094 C 115.566406 519.382812 111.105469 521.539062 106.648438 521.539062 C 102.324219 521.519531 99.152344 520.890625 95.515625 517.492188 C 92.367188 514.472656 89.980469 509.953125 89.972656 498.960938 L 89.972656 488.1875 C 89.972656 476.179688 89.972656 474.035156 90.121094 471.613281 C 90.355469 468.925781 90.699219 468.15625 92.386719 467.835938 C 93.328125 467.679688 93.742188 467.621094 94.207031 467.621094 C 94.675781 467.621094 95.453125 467.351562 95.496094 466.488281 C 95.488281 465.441406 94.390625 465.207031 93.59375 465.207031 C 91.269531 465.207031 86.628906 465.441406 86.003906 465.433594 C 85.347656 465.441406 80.636719 465.207031 77.179688 465.207031 C 76.375 465.207031 75.289062 465.441406 75.277344 466.488281 C 75.324219 467.367188 76.109375 467.621094 76.566406 467.621094 C 77.1875 467.621094 78.539062 467.707031 78.996094 467.835938 C 81.3125 468.433594 81.554688 469.039062 81.804688 471.613281 C 81.953125 474.035156 81.953125 476.179688 81.953125 488.1875 L 81.953125 499.421875 C 81.945312 510.753906 84.933594 516.417969 88.832031 520.144531 Z M 194.015625 518.355469 C 193.714844 520.628906 193.308594 521.875 192.332031 522.011719 C 191.65625 522.160156 190.75 522.289062 190.160156 522.289062 C 189.460938 522.289062 188.882812 522.894531 188.882812 523.449219 C 188.890625 524.484375 189.980469 524.71875 190.765625 524.71875 C 193.101562 524.71875 197.96875 524.484375 198.285156 524.484375 C 198.625 524.484375 203.515625 524.71875 207.734375 524.71875 C 208.609375 524.71875 209.585938 524.433594 209.628906 523.449219 C 209.628906 522.894531 209.046875 522.289062 208.347656 522.289062 C 207.726562 522.289062 206.023438 522.144531 204.984375 522.003906 C 203.101562 521.710938 202.851562 520.613281 202.558594 518.363281 C 202.183594 515.21875 202.175781 509.113281 202.175781 501.738281 L 202.175781 488.1875 C 202.175781 476.179688 202.175781 474.035156 202.347656 471.613281 C 202.566406 468.933594 202.910156 468.214844 204.632812 467.835938 C 205.546875 467.679688 205.960938 467.621094 206.429688 467.628906 C 206.886719 467.621094 207.683594 467.351562 207.707031 466.488281 C 207.699219 465.441406 206.609375 465.207031 205.808594 465.207031 C 203.5 465.207031 198.625 465.433594 198.285156 465.433594 C 197.96875 465.433594 193.101562 465.207031 190.542969 465.207031 C 189.746094 465.207031 188.65625 465.441406 188.648438 466.488281 C 188.683594 467.351562 189.46875 467.621094 189.929688 467.628906 C 190.402344 467.621094 191.378906 467.6875 192.125 467.90625 C 193.488281 468.25 194.050781 469.054688 194.257812 471.613281 C 194.40625 474.035156 194.40625 476.179688 194.40625 488.1875 L 194.40625 501.738281 C 194.40625 509.113281 194.40625 515.21875 194.015625 518.355469 Z M 146.15625 478.652344 C 146.140625 484.074219 148.164062 489.132812 156.382812 495.867188 L 159.839844 498.710938 C 166.417969 504.203125 168.398438 506.976562 168.421875 512.050781 C 168.378906 516.660156 165.113281 521.589844 158.109375 521.597656 C 153.105469 521.570312 148.472656 519.59375 147.394531 514.292969 C 147.175781 513.296875 147.175781 512.277344 147.175781 511.585938 C 147.175781 511.257812 147.175781 510.964844 146.996094 510.601562 C 146.789062 510.195312 146.277344 510.046875 145.976562 510.074219 C 144.921875 510.160156 144.765625 511.117188 144.695312 511.90625 C 144.628906 513.132812 144.308594 516.246094 144.308594 520.128906 C 144.195312 522.066406 144.566406 523.128906 145.835938 523.636719 C 149.113281 525.238281 152.734375 525.808594 156.417969 525.808594 C 160.652344 525.808594 164.929688 524.847656 168.378906 522.4375 C 173.921875 518.484375 175.191406 512.425781 175.199219 509.121094 C 175.21875 502.773438 172.855469 497.683594 163.738281 490.515625 L 161.585938 488.828125 C 154.222656 483.011719 152.5 480.527344 152.492188 476.429688 C 152.5 471.171875 156.21875 468.207031 161.25 468.164062 C 168.09375 468.199219 169.839844 471.199219 170.265625 471.890625 C 170.636719 472.539062 171.128906 474.667969 171.179688 475.488281 C 171.1875 475.996094 171.398438 477.0625 172.460938 477.085938 C 173.703125 476.855469 173.617188 475.816406 173.660156 474.648438 C 173.660156 469.417969 173.964844 466.988281 173.964844 466.488281 C 173.988281 466.234375 173.902344 465.804688 173.558594 465.542969 C 173.203125 465.300781 172.890625 465.285156 172.539062 465.285156 C 172 465.285156 171.429688 465.214844 169.988281 464.921875 C 168.035156 464.445312 165.742188 464.136719 162.710938 464.136719 C 152.71875 464.144531 146.175781 470.039062 146.15625 478.652344 Z M 529.199219 468.390625 C 535.820312 468.378906 541.628906 470.464844 544.121094 472.617188 C 545.917969 474.113281 547.128906 477.140625 547.109375 479.957031 C 547.128906 480.519531 547.128906 480.960938 547.257812 481.382812 C 547.335938 481.816406 547.871094 482.300781 548.40625 482.257812 C 549.574219 482.144531 549.695312 481.066406 549.753906 480.007812 C 549.832031 478.800781 549.832031 474.589844 549.988281 472.0625 C 550.144531 469.3125 550.371094 468.492188 550.378906 467.714844 C 550.421875 467.058594 549.753906 466.203125 548.769531 466.203125 C 546.332031 466.0625 543.914062 465.613281 541 465.050781 C 537.171875 464.367188 532.847656 464.136719 529.753906 464.136719 C 517.800781 464.117188 510.582031 467.808594 505.878906 472.558594 C 498.851562 479.585938 497.082031 488.75 497.074219 494.035156 C 497.0625 501.433594 498.941406 510.445312 506.582031 517.308594 C 512.761719 522.894531 520.746094 525.808594 532.347656 525.808594 C 537.324219 525.800781 543.160156 525.273438 546.402344 523.976562 C 547.828125 523.449219 548.425781 522.78125 548.8125 521.332031 C 549.601562 518.554688 550.515625 512.007812 550.515625 511.285156 C 550.472656 510.652344 550.515625 509.632812 549.316406 509.449219 C 548.382812 509.433594 547.964844 510.382812 547.90625 511.152344 C 547.707031 512.433594 546.660156 515.8125 545.226562 517.273438 C 542.375 520.222656 538.078125 520.925781 532.347656 520.925781 C 516.332031 520.90625 505.308594 507.789062 505.308594 493.421875 C 505.308594 485.636719 506.597656 479.042969 512.027344 473.820312 C 514.59375 471.320312 519.121094 468.40625 529.199219 468.390625 Z M 778.226562 518.363281 C 777.90625 520.628906 777.5 521.875 776.523438 522.003906 C 775.839844 522.160156 774.949219 522.289062 774.34375 522.289062 C 773.644531 522.289062 773.066406 522.878906 773.066406 523.429688 C 773.074219 524.484375 774.164062 524.71875 774.949219 524.71875 C 776.140625 524.71875 777.835938 524.640625 779.367188 524.5625 C 780.878906 524.5625 782.21875 524.484375 782.476562 524.484375 C 784.683594 524.484375 787.050781 524.5625 790.265625 524.71875 C 793.507812 524.796875 797.519531 524.933594 803.050781 524.933594 C 803.402344 524.960938 803.734375 524.980469 804.050781 524.980469 C 807.179688 524.980469 808.113281 524.167969 808.511719 522.394531 C 809.167969 520.023438 809.695312 515.503906 809.707031 514.5 C 809.707031 514.066406 809.707031 513.738281 809.566406 513.375 C 809.488281 512.996094 808.945312 512.640625 808.574219 512.691406 C 807.597656 512.691406 807.234375 513.667969 807.214844 514.265625 C 807.015625 515.582031 806.265625 517.457031 805.367188 518.5625 C 803.855469 520.457031 800.679688 520.628906 796.601562 520.605469 C 790.621094 520.613281 788.832031 520.03125 787.863281 519.046875 C 786.816406 518.199219 786.308594 513.152344 786.359375 501.894531 L 786.359375 488.1875 C 786.359375 476.179688 786.359375 474.035156 786.53125 471.613281 C 786.773438 468.933594 787.058594 468.25 788.960938 467.835938 C 789.832031 467.6875 790.886719 467.621094 791.378906 467.628906 C 791.839844 467.621094 792.632812 467.351562 792.660156 466.488281 C 792.660156 465.441406 791.554688 465.207031 790.757812 465.207031 C 788.441406 465.207031 782.816406 465.433594 782.476562 465.433594 C 782.140625 465.433594 777.273438 465.207031 773.816406 465.207031 C 773.011719 465.207031 771.925781 465.433594 771.90625 466.488281 C 771.941406 467.367188 772.726562 467.621094 773.195312 467.628906 C 773.835938 467.621094 775.15625 467.699219 775.632812 467.835938 C 777.957031 468.433594 778.183594 469.039062 778.441406 471.613281 C 778.578125 474.035156 778.578125 476.179688 778.578125 488.1875 L 778.578125 501.738281 C 778.578125 509.113281 778.578125 515.21875 778.226562 518.363281 Z M 661.527344 468.09375 C 673.265625 468.105469 684.15625 477.625 684.191406 495.816406 C 684.140625 517.84375 670.371094 521.460938 663.660156 521.539062 C 650.28125 521.519531 639.832031 510.394531 639.796875 492.726562 C 639.847656 476.144531 649.035156 468.148438 661.527344 468.09375 Z M 661.605469 525.808594 C 680.472656 525.765625 692.867188 511.207031 692.894531 493.660156 C 692.867188 475.367188 679.609375 464.160156 662.0625 464.136719 C 640.445312 464.144531 631.195312 482.152344 631.160156 494.890625 C 631.195312 508.984375 640.160156 525.765625 661.605469 525.808594 Z M 754.671875 495.816406 C 754.628906 517.84375 740.851562 521.460938 734.167969 521.539062 C 720.761719 521.519531 710.304688 510.390625 710.285156 492.726562 C 710.355469 476.144531 719.515625 468.148438 732.023438 468.09375 C 743.761719 468.105469 754.644531 477.625 754.671875 495.816406 Z M 701.640625 494.890625 C 701.683594 508.984375 710.65625 525.765625 732.085938 525.808594 C 750.953125 525.765625 763.359375 511.207031 763.375 493.660156 C 763.359375 475.367188 750.089844 464.160156 732.550781 464.136719 C 710.941406 464.144531 701.683594 482.152344 701.640625 494.890625 Z M 601.109375 466.488281 C 601.140625 467.351562 601.921875 467.621094 602.386719 467.628906 C 603.027344 467.621094 604.367188 467.699219 604.832031 467.835938 C 607.148438 468.433594 607.382812 469.039062 607.632812 471.613281 C 607.796875 474.035156 607.796875 476.179688 607.796875 488.1875 L 607.796875 489.597656 L 575.652344 489.597656 L 575.652344 488.1875 C 575.652344 476.179688 575.652344 474.035156 575.816406 471.613281 C 576.050781 468.933594 576.386719 468.214844 578.105469 467.835938 C 579.023438 467.679688 579.4375 467.621094 579.90625 467.628906 C 580.363281 467.621094 581.148438 467.351562 581.175781 466.488281 C 581.175781 465.441406 580.078125 465.207031 579.292969 465.207031 C 576.972656 465.207031 572.097656 465.433594 571.769531 465.433594 C 571.433594 465.433594 566.558594 465.207031 563.09375 465.207031 C 562.316406 465.207031 561.21875 465.433594 561.207031 466.488281 C 561.234375 467.367188 562.03125 467.621094 562.496094 467.628906 C 563.117188 467.621094 564.449219 467.699219 564.933594 467.835938 C 567.257812 468.433594 567.476562 469.039062 567.726562 471.613281 C 567.890625 474.035156 567.890625 476.179688 567.890625 488.1875 L 567.890625 501.738281 C 567.890625 509.113281 567.890625 515.21875 567.5 518.355469 C 567.191406 520.628906 566.785156 521.875 565.816406 522.011719 C 565.140625 522.160156 564.226562 522.289062 563.636719 522.289062 C 562.9375 522.289062 562.367188 522.894531 562.367188 523.449219 C 562.375 524.484375 563.457031 524.71875 564.257812 524.71875 C 566.585938 524.71875 571.433594 524.484375 571.769531 524.484375 C 572.097656 524.484375 576.984375 524.71875 581.203125 524.71875 C 582.082031 524.71875 583.050781 524.433594 583.101562 523.449219 C 583.101562 522.878906 582.515625 522.289062 581.824219 522.289062 C 581.203125 522.289062 579.488281 522.144531 578.46875 522.003906 C 576.601562 521.710938 576.335938 520.613281 576.039062 518.363281 C 575.652344 515.21875 575.652344 509.113281 575.652344 501.738281 L 575.652344 493.871094 L 607.796875 493.871094 L 607.796875 501.738281 C 607.796875 509.113281 607.796875 515.21875 607.417969 518.355469 C 607.105469 520.628906 606.683594 521.875 605.707031 522.011719 C 605.039062 522.160156 604.148438 522.289062 603.535156 522.289062 C 602.855469 522.289062 602.265625 522.878906 602.265625 523.449219 C 602.285156 524.484375 603.355469 524.71875 604.148438 524.71875 C 606.476562 524.71875 611.339844 524.484375 611.679688 524.484375 C 612 524.484375 616.882812 524.71875 621.125 524.71875 C 622 524.71875 622.96875 524.433594 623.019531 523.449219 C 623.019531 522.867188 622.421875 522.289062 621.738281 522.289062 C 621.117188 522.289062 619.40625 522.144531 618.378906 522.003906 C 616.492188 521.710938 616.242188 520.628906 615.957031 518.363281 C 615.570312 515.21875 615.570312 509.113281 615.570312 501.738281 L 615.570312 488.1875 C 615.570312 476.179688 615.570312 474.035156 615.722656 471.613281 C 615.957031 468.933594 616.285156 468.214844 618.015625 467.835938 C 618.941406 467.679688 619.363281 467.621094 619.8125 467.628906 C 620.269531 467.621094 621.066406 467.367188 621.101562 466.488281 C 621.09375 465.433594 619.992188 465.207031 619.207031 465.207031 C 616.875 465.207031 612 465.433594 611.679688 465.433594 C 611.339844 465.433594 606.476562 465.207031 603.007812 465.207031 C 602.222656 465.207031 601.125 465.441406 601.109375 466.488281 Z M 27.03125 583.175781 L 809.609375 583.175781 L 809.609375 568.238281 L 27.03125 568.238281 Z M 668.597656 393.972656 L 669.054688 393.445312 L 668.597656 393.972656 C 691.078125 413.519531 719.441406 420.902344 753.105469 420.902344 C 768.847656 420.902344 787.464844 419.210938 797.457031 415.222656 C 801.710938 413.546875 803.066406 411.867188 804.25 407.640625 C 806.730469 399.132812 809.652344 377.90625 809.652344 374.785156 C 809.652344 372.789062 809.136719 370.445312 806.785156 370.382812 C 804.371094 370.332031 803.515625 372.054688 802.894531 375.882812 C 801.933594 380.171875 799.757812 385.6875 794.71875 391.765625 C 786.273438 402.003906 768.15625 405.089844 756.460938 405.074219 C 755.890625 405.074219 755.335938 405.054688 754.828125 405.046875 C 711.601562 403.921875 674.027344 374.785156 673.90625 318.515625 C 673.90625 318.421875 673.90625 318.402344 673.90625 318.308594 C 673.90625 294.617188 678.617188 271.628906 696.230469 255.414062 C 706.890625 245.707031 720.625 240.371094 741.828125 240.355469 C 764.230469 240.34375 783.230469 247.011719 791.070312 255.371094 C 797.058594 261.613281 800.199219 270.0625 800.429688 277.523438 C 800.457031 280.859375 800.898438 283.507812 803.585938 283.585938 C 806.4375 283.550781 807.035156 280.878906 807.214844 277.289062 C 807.707031 272.308594 807.449219 258.832031 807.941406 250.753906 C 808.425781 242.167969 809.179688 239.324219 809.179688 237.207031 C 809.230469 235.363281 807.734375 233.757812 804.875 233.574219 C 797.613281 232.847656 789.746094 230.617188 780.394531 229.390625 C 769.132812 227.910156 759.988281 226.925781 744.773438 226.925781 C 708.132812 226.917969 684.640625 236.816406 666.867188 253.167969 C 643.152344 274.957031 637.992188 304.144531 637.992188 320.980469 C 637.992188 344.929688 644.402344 372.683594 668.597656 393.972656 Z M 462.152344 322.285156 L 591.496094 322.285156 L 591.496094 308.382812 L 540.773438 308.382812 L 540.773438 246.390625 C 540.894531 244.71875 540.972656 244.703125 541.8125 244.625 C 546.652344 244.625 572.460938 245.117188 576.5 245.59375 C 588.722656 247.140625 590.65625 249.785156 592.351562 254.015625 C 593.527344 256.78125 593.777344 260.933594 593.777344 262.601562 C 593.777344 264.804688 594.476562 266.734375 596.683594 266.734375 C 598.921875 266.734375 599.605469 264.691406 599.8125 263.464844 C 600.328125 260.40625 600.8125 249.613281 601.054688 247.191406 C 601.78125 235.847656 602.992188 233.152344 603.007812 231.144531 C 603.007812 229.953125 602.628906 228.230469 600.847656 228.230469 C 599.351562 228.257812 597.882812 229.027344 596.804688 229.234375 C 594.882812 229.71875 590.953125 230.21875 586.300781 230.703125 C 581.753906 230.945312 532.960938 230.945312 525.121094 230.945312 C 518.308594 230.945312 502.855469 230.203125 489.835938 230.203125 C 486.257812 230.203125 483.855469 230.644531 483.777344 233.109375 C 483.777344 235.46875 485.984375 236.023438 488.628906 236.023438 C 492 236.023438 496.183594 236.273438 498.015625 236.738281 C 505.863281 238.511719 507.4375 241.804688 508.023438 250.117188 C 508.515625 257.949219 508.515625 264.804688 508.515625 302.15625 L 508.515625 308.363281 L 460.726562 308.382812 L 460.726562 322.511719 L 462.152344 322.511719 Z M 131.082031 308.527344 L 80.363281 308.527344 L 80.363281 246.542969 C 80.5 244.875 80.570312 244.875 81.390625 244.78125 C 86.238281 244.78125 112.050781 245.28125 116.101562 245.757812 C 128.324219 247.296875 130.253906 249.941406 131.964844 254.160156 C 133.121094 256.953125 133.382812 261.097656 133.382812 262.757812 C 133.382812 264.945312 134.054688 266.871094 136.277344 266.890625 C 138.535156 266.871094 139.191406 264.839844 139.40625 263.628906 C 139.90625 260.558594 140.390625 249.761719 140.652344 247.339844 C 141.394531 236.023438 142.578125 233.308594 142.605469 231.308594 C 142.605469 230.109375 142.222656 228.40625 140.445312 228.40625 C 138.941406 228.414062 137.480469 229.199219 136.371094 229.398438 C 134.488281 229.867188 130.5625 230.367188 125.914062 230.867188 C 121.359375 231.101562 72.546875 231.101562 64.714844 231.101562 C 57.90625 231.101562 42.449219 230.367188 29.433594 230.367188 C 25.855469 230.367188 23.453125 230.824219 23.355469 233.273438 C 23.390625 235.597656 25.570312 236.175781 28.230469 236.175781 C 31.601562 236.175781 35.785156 236.445312 37.609375 236.902344 C 45.46875 238.667969 47.023438 241.953125 47.628906 250.28125 C 48.101562 258.085938 48.101562 264.96875 48.101562 302.3125 L 48.101562 308.527344 L 0.296875 308.527344 L 0.296875 322.433594 L 1.738281 322.433594 L 1.738281 322.449219 L 131.082031 322.449219 Z M 131.816406 400.679688 C 125.6875 403.535156 115.429688 403.570312 109.074219 403.570312 C 84.019531 403.328125 81.0625 400.371094 80.378906 383.605469 C 80.273438 381.242188 80.257812 377.152344 80.257812 372.441406 C 80.257812 363.019531 80.378906 351.113281 80.378906 345.542969 L 80.378906 333.8125 L 48.101562 333.8125 L 48.101562 345.542969 C 48.101562 368.128906 48.101562 387.546875 46.875 397.800781 C 45.90625 404.941406 44.628906 409.898438 40.332031 410.710938 C 38.15625 411.175781 35.265625 411.671875 31.644531 411.671875 C 28.714844 411.671875 27.03125 412.527344 27.03125 414.324219 C 27.097656 416.710938 29.457031 417.480469 32.632812 417.480469 C 42.449219 417.480469 57.90625 416.738281 63.507812 416.738281 C 77.914062 416.738281 94.363281 418.214844 131.375 418.214844 C 132.207031 418.214844 133.011719 418.234375 133.753906 418.234375 C 141.066406 418.234375 143.761719 417.375 145.277344 411.316406 C 146.546875 406.25 148.472656 389.640625 148.480469 383.863281 C 148.480469 382.628906 148.492188 381.476562 148.214844 380.527344 C 147.972656 379.550781 147.054688 378.683594 145.835938 378.746094 C 143.675781 378.683594 142.839844 380.363281 142.449219 382.992188 C 140.71875 393.019531 137.9375 397.800781 131.816406 400.679688 Z M 336.671875 414.539062 L 336.679688 414.539062 C 347.320312 419.261719 358.472656 420.980469 372.714844 420.980469 C 385.769531 420.980469 399.640625 418.761719 412.042969 410.804688 C 429.917969 399.117188 435.433594 381.890625 435.410156 367.46875 C 435.433594 343.875 424.386719 327.136719 394.957031 304.285156 L 388.074219 299.128906 C 367.753906 283.628906 362.394531 275.300781 362.386719 264.304688 C 362.421875 249.941406 372.984375 239.730469 390.867188 239.695312 C 406.554688 239.714844 413.367188 246.882812 417.007812 251.472656 C 422.035156 257.664062 423.238281 265.21875 423.238281 267.242188 C 423.238281 270.199219 424.09375 272.363281 426.367188 272.363281 C 429.089844 272.265625 429.78125 269.605469 429.78125 264.304688 C 429.78125 245.152344 430.742188 238.113281 430.742188 234.8125 C 430.765625 232.648438 429.003906 231.628906 426.773438 231.1875 C 420.402344 229.460938 410.039062 227.003906 394.039062 227.003906 C 359.742188 227.046875 336.792969 246.664062 336.75 274.125 C 336.722656 294.261719 346.257812 311.726562 373.277344 332.902344 L 384.550781 341.730469 C 404.792969 357.433594 408.265625 368.621094 408.285156 380.484375 C 408.265625 393.132812 397.859375 407.789062 376.15625 407.804688 C 361.160156 407.761719 347.097656 401.335938 341.789062 383.492188 C 340.578125 379.386719 339.601562 374.222656 339.601562 371.164062 C 339.601562 369.277344 339.351562 366.355469 336.464844 366.285156 C 333.65625 366.484375 333.109375 369.675781 332.824219 373.316406 C 332.582031 377.257812 331.589844 392.007812 331.589844 405.546875 C 331.476562 410.945312 332.609375 412.890625 336.671875 414.539062 Z M 189.503906 414.539062 C 200.152344 419.261719 211.304688 421 225.558594 421 C 238.628906 421 252.484375 418.761719 264.894531 410.804688 C 282.761719 399.117188 288.265625 381.890625 288.242188 367.46875 C 288.265625 343.875 277.246094 327.136719 247.796875 304.285156 L 240.925781 299.128906 C 220.613281 283.628906 215.246094 275.300781 215.230469 264.304688 C 215.261719 249.941406 225.808594 239.75 243.699219 239.695312 C 259.390625 239.714844 266.21875 246.882812 269.839844 251.472656 C 274.878906 257.664062 276.097656 265.21875 276.070312 267.242188 C 276.078125 270.210938 276.925781 272.363281 279.21875 272.371094 C 281.933594 272.265625 282.605469 269.605469 282.605469 264.304688 C 282.605469 245.152344 283.574219 238.113281 283.589844 234.8125 C 283.617188 232.648438 281.828125 231.628906 279.625 231.1875 C 273.261719 229.460938 262.871094 227.003906 246.863281 227.003906 C 212.566406 227.0625 189.644531 246.664062 189.589844 274.144531 C 189.558594 294.261719 199.082031 311.726562 226.109375 332.886719 L 237.382812 341.730469 C 257.625 357.433594 261.117188 368.621094 261.125 380.484375 C 261.117188 393.132812 250.703125 407.789062 228.988281 407.804688 C 213.964844 407.789062 199.929688 401.335938 194.621094 383.492188 C 193.394531 379.375 192.425781 374.222656 192.425781 371.164062 C 192.425781 369.277344 192.203125 366.355469 189.28125 366.292969 C 186.503906 366.484375 185.933594 369.675781 185.660156 373.332031 C 185.417969 377.257812 184.429688 392.007812 184.429688 405.546875 C 184.308594 410.945312 185.441406 412.90625 189.503906 414.539062 Z M 592.230469 400.5 C 586.09375 403.378906 575.851562 403.402344 569.488281 403.394531 C 544.429688 403.179688 541.449219 400.207031 540.773438 383.457031 C 540.671875 381.078125 540.664062 376.972656 540.664062 372.269531 C 540.664062 362.851562 540.773438 350.9375 540.773438 345.378906 L 540.773438 333.65625 L 508.515625 333.65625 L 508.515625 345.378906 C 508.515625 367.980469 508.515625 387.410156 507.289062 397.628906 C 506.304688 404.796875 505.050781 409.75 500.738281 410.539062 C 498.542969 411.011719 495.65625 411.496094 492.050781 411.496094 C 489.101562 411.496094 487.453125 412.386719 487.425781 414.152344 C 487.496094 416.554688 489.882812 417.324219 493.042969 417.324219 C 502.855469 417.324219 518.308594 416.582031 523.910156 416.582031 C 538.320312 416.582031 554.777344 418.042969 591.789062 418.042969 C 592.621094 418.058594 593.414062 418.09375 594.167969 418.09375 C 601.472656 418.09375 604.175781 417.230469 605.679688 411.144531 C 606.925781 406.09375 608.886719 389.476562 608.886719 383.71875 C 608.886719 382.480469 608.90625 381.332031 608.609375 380.363281 C 608.378906 379.386719 607.46875 378.527344 606.242188 378.589844 C 604.097656 378.527344 603.25 380.207031 602.855469 382.851562 C 601.140625 392.847656 598.351562 397.664062 592.230469 400.5 " fill-opacity="1" fill-rule="nonzero"/></g></svg>