<svg xmlns="http://www.w3.org/2000/svg" xmlns:xlink="http://www.w3.org/1999/xlink" width="1080" zoomAndPan="magnify" viewBox="0 0 810 809.999993" height="1080" preserveAspectRatio="xMidYMid meet" version="1.0"><rect x="-81" width="972" fill="#ffffff" y="-80.999999" height="971.999992" fill-opacity="1"/><rect x="-81" width="972" fill="#ffffff" y="-80.999999" height="971.999992" fill-opacity="1"/><path fill="#e63312" d="M 162.691406 308.496094 C 174.546875 301.222656 185.589844 292.46875 195.289062 282.636719 C 203.238281 274.554688 168.082031 278.191406 159.730469 285.464844 C 150.03125 293.546875 141.003906 302.300781 132.789062 311.867188 C 127.671875 317.523438 151.648438 314.964844 162.691406 308.496094 Z M 805.082031 490.75 C 811.277344 494.519531 811.007812 474.988281 798.480469 467.175781 C 753.492188 439.15625 630.238281 488.054688 583.632812 493.578125 C 574.878906 494.65625 571.644531 492.363281 573.800781 486.4375 C 577.707031 474.988281 593.332031 453.976562 596.5625 446.699219 C 599.796875 439.425781 599.125 415.988281 563.964844 415.988281 C 535.140625 415.988281 508.738281 429.324219 490.285156 446.164062 C 472.640625 461.25 438.289062 491.015625 417.277344 491.015625 C 395.457031 491.015625 459.304688 425.148438 462.941406 421.78125 C 472.371094 412.890625 442.464844 415.046875 429.9375 424.609375 C 424.953125 428.382812 404.75 449.933594 392.222656 470.8125 C 355.851562 496 319.617188 501.792969 336.859375 480.914062 C 346.019531 469.734375 361.511719 454.917969 372.152344 443.0625 C 386.96875 426.628906 384.273438 415.71875 351.542969 415.71875 C 307.628906 415.71875 303.050781 419.492188 278.132812 448.585938 C 273.550781 453.976562 275.839844 467.578125 280.691406 462.863281 C 310.460938 433.5 309.785156 435.789062 349.117188 435.789062 C 342.789062 442.523438 331.472656 449.261719 312.34375 473.507812 C 295.238281 495.191406 306.417969 512.703125 330.664062 512.703125 C 344.132812 512.703125 364.070312 506.375 382.390625 493.578125 C 380.234375 505.027344 384.679688 512.972656 401.921875 512.972656 C 421.855469 512.972656 444.753906 501.121094 463.613281 487.917969 C 461.1875 502.199219 468.597656 512.972656 489.746094 512.972656 C 506.042969 512.972656 524.902344 506.644531 544.570312 489.671875 C 544.570312 502.601562 553.59375 512.972656 570.703125 512.972656 C 612.054688 512.703125 755.375 460.710938 805.082031 490.75 Z M 500.792969 494.117188 C 473.582031 494.117188 528 431.882812 563.5625 431.882812 C 584.980469 431.75 527.191406 494.117188 500.925781 494.117188 Z M 479.105469 397.9375 C 494.191406 388.242188 508.335938 377.195312 521.265625 364.804688 C 529.214844 356.71875 494.054688 360.359375 485.703125 367.632812 C 474.121094 377.464844 463.074219 388.105469 452.972656 399.421875 C 447.988281 405.078125 468.328125 404.539062 479.375 397.9375 Z M 264.527344 464.210938 C 253.882812 474.585938 230.582031 492.09375 210.105469 492.09375 C 195.019531 492.09375 225.058594 465.15625 239.875 443.332031 C 254.152344 422.453125 242.433594 416.257812 230.714844 416.257812 C 201.621094 416.257812 173.332031 436.597656 154.070312 451.011719 C 159.730469 443.199219 168.886719 433.230469 178.585938 420.570312 C 183.976562 413.429688 151.917969 415.988281 143.699219 426.765625 C 141.140625 430.132812 138.175781 434.039062 135.078125 438.214844 C 107.332031 471.484375 65.304688 493.980469 44.695312 493.980469 C 33.246094 493.980469 29.070312 486.035156 36.074219 471.214844 C 53.179688 435.25 112.582031 366.824219 144.910156 336.785156 C 159.59375 323.046875 115.546875 328.703125 105.445312 338.804688 C 60.859375 383.796875 15.867188 433.90625 3.207031 472.96875 C -3.796875 494.519531 2.667969 513.917969 29.472656 513.917969 C 51.429688 513.917969 75.945312 503.007812 96.6875 490.074219 L 83.21875 508.394531 C 77.425781 516.339844 107.0625 513.378906 113.257812 505.566406 C 136.695312 475.527344 193.132812 438.617188 208.761719 438.617188 C 223.039062 438.617188 173.871094 475.527344 174.277344 498.023438 C 174.816406 527.65625 243.511719 509.472656 266.816406 479.027344 C 270.722656 474.179688 267.894531 460.980469 264.527344 464.210938 Z M 264.527344 464.210938 " fill-opacity="1" fill-rule="nonzero"/></svg>