<svg xmlns="http://www.w3.org/2000/svg" xmlns:xlink="http://www.w3.org/1999/xlink" width="1080" zoomAndPan="magnify" viewBox="0 0 810 809.999993" height="1080" preserveAspectRatio="xMidYMid meet" version="1.0"><defs><filter x="0%" y="0%" width="100%" height="100%" id="64bf19d801"><feColorMatrix values="0 0 0 0 1 0 0 0 0 1 0 0 0 0 1 0 0 0 1 0" color-interpolation-filters="sRGB"/></filter><clipPath id="72e4ee0138"><path d="M 586 31.394531 L 685 31.394531 L 685 93 L 586 93 Z M 586 31.394531 " clip-rule="nonzero"/></clipPath><clipPath id="5e26a2c6e4"><path d="M 134 267 L 294 267 L 294 778.394531 L 134 778.394531 Z M 134 267 " clip-rule="nonzero"/></clipPath><mask id="be6d9e918d"><g filter="url(#64bf19d801)"><rect x="-81" width="972" fill="#000000" y="-80.999999" height="971.999992" fill-opacity="0.5"/></g></mask><clipPath id="2f1b58c1b9"><rect x="0" width="14" y="0" height="14"/></clipPath><mask id="add316b103"><g filter="url(#64bf19d801)"><rect x="-81" width="972" fill="#000000" y="-80.999999" height="971.999992" fill-opacity="0.5"/></g></mask><clipPath id="bf6c70878b"><path d="M 2.449219 1.375 L 3.0625 1.375 L 3.0625 2.105469 L 2.449219 2.105469 Z M 2.449219 1.375 " clip-rule="nonzero"/></clipPath><clipPath id="2ca2f2bf12"><rect x="0" width="9" y="0" height="8"/></clipPath><mask id="3fe9eb7fe6"><g filter="url(#64bf19d801)"><rect x="-81" width="972" fill="#000000" y="-80.999999" height="971.999992" fill-opacity="0.5"/></g></mask><clipPath id="39ad9bf0c0"><rect x="0" width="20" y="0" height="20"/></clipPath></defs><rect x="-81" width="972" fill="#ffffff" y="-80.999999" height="971.999992" fill-opacity="1"/><rect x="-81" width="972" fill="#ffffff" y="-80.999999" height="971.999992" fill-opacity="1"/><path fill="#ff9473" d="M 687.832031 332.121094 C 692.570312 343.988281 699.203125 354.683594 707.734375 364.203125 C 710.257812 366.585938 712.941406 368.78125 715.78125 370.785156 C 718.621094 372.785156 721.589844 374.574219 724.6875 376.148438 C 727.785156 377.726562 730.980469 379.070312 734.269531 380.191406 C 737.558594 381.308594 740.914062 382.183594 744.328125 382.820312 C 759.867188 386.148438 775.53125 386.898438 791.316406 385.074219 C 784.71875 367.90625 778.347656 350.671875 771.039062 333.726562 C 770.203125 333.796875 769.367188 333.867188 768.527344 333.902344 C 743.441406 335.324219 723.285156 328.179688 708.621094 312.671875 C 704.71875 308.570312 700.921875 303.933594 696.894531 299.035156 C 692.734375 293.226562 688.082031 287.84375 682.945312 282.882812 C 677.804688 277.921875 672.261719 273.464844 666.3125 269.507812 C 656.824219 269.277344 647.375 269.753906 637.960938 270.941406 C 663.269531 284.011719 677.835938 310.246094 687.796875 332.09375 " fill-opacity="1" fill-rule="nonzero"/><path fill="#ff9473" d="M 698.390625 297.863281 C 702.375 302.734375 706.144531 307.339844 710.003906 311.402344 C 724.648438 326.855469 744.871094 333.753906 770.273438 331.90625 C 770.230469 331.816406 770.199219 331.722656 770.148438 331.628906 C 766.621094 323.050781 762.40625 314.828125 757.5 306.953125 C 757.449219 307.265625 757.359375 307.566406 757.222656 307.851562 C 755.609375 310.9375 750.015625 311.886719 746.492188 312.085938 C 745.628906 312.136719 744.875 312.136719 744.359375 312.085938 C 740.363281 311.929688 736.460938 311.238281 732.648438 310.019531 C 728.839844 308.800781 725.261719 307.09375 721.914062 304.902344 C 715.164062 299.863281 709.601562 293.746094 705.226562 286.550781 C 701.707031 281.0625 697.570312 276.085938 692.816406 271.621094 C 690.304688 271.261719 687.734375 270.941406 685.203125 270.691406 C 680.230469 270.179688 675.199219 269.828125 670.171875 269.632812 C 681.007812 277.609375 690.414062 287.011719 698.390625 297.847656 " fill-opacity="1" fill-rule="nonzero"/><path fill="#ff9473" d="M 776.5 453.015625 C 732.019531 447.582031 681.621094 441.40625 671.136719 406.285156 C 668.683594 398.914062 666.488281 390.546875 664.144531 381.675781 C 656.371094 352.246094 647.550781 318.859375 624.929688 301.792969 C 615.023438 294.292969 604.179688 288.582031 592.394531 284.65625 C 592.09375 284.816406 591.765625 284.949219 591.464844 285.105469 C 581.46875 290.4375 572.339844 296.976562 564.074219 304.71875 C 571.636719 307.808594 578.871094 311.523438 585.785156 315.875 C 592.699219 320.222656 599.183594 325.136719 605.242188 330.613281 L 606.730469 331.925781 C 616.585938 339.710938 625.035156 348.800781 632.082031 359.195312 C 639.21875 371.28125 644.246094 384.1875 647.160156 397.917969 C 649.195312 406.710938 650.679688 415.746094 652.125 424.488281 C 653.820312 436.320312 656.207031 448.007812 659.273438 459.558594 C 663.957031 475.894531 673.644531 498.054688 693.15625 510.441406 C 698.671875 513.683594 704.464844 516.316406 710.527344 518.347656 C 716.59375 520.378906 722.804688 521.757812 729.160156 522.492188 C 734.1875 523.269531 739.320312 523.878906 744.304688 524.464844 C 752.039062 525.375 760.011719 526.3125 767.804688 527.9375 C 774.34375 529.234375 780.6875 531.175781 786.835938 533.761719 C 790.355469 523.773438 793.804688 513.765625 797.078125 503.695312 C 802.390625 488.652344 806.136719 473.226562 808.320312 457.425781 C 798.550781 455.691406 787.753906 454.359375 776.488281 452.984375 " fill-opacity="1" fill-rule="nonzero"/><path fill="#ff9473" d="M 706.753906 285.503906 C 711.007812 292.492188 716.402344 298.445312 722.941406 303.363281 C 726.144531 305.464844 729.566406 307.101562 733.214844 308.273438 C 736.863281 309.445312 740.601562 310.113281 744.429688 310.273438 C 747.632812 310.402344 754.210938 309.585938 755.570312 307.003906 C 756.089844 305.980469 755.734375 304.636719 754.476562 302.984375 L 754.640625 302.867188 C 752.882812 300.472656 750.980469 298.207031 748.929688 296.0625 C 735.230469 281.902344 715.789062 275.332031 696.109375 272.191406 C 700.058594 276.320312 703.605469 280.777344 706.746094 285.550781 " fill-opacity="1" fill-rule="nonzero"/><path fill="#ff9473" d="M 783.3125 387.726562 C 770.042969 388.429688 756.910156 387.398438 743.914062 384.636719 C 740.410156 383.980469 736.96875 383.082031 733.59375 381.933594 C 730.21875 380.785156 726.945312 379.402344 723.769531 377.78125 C 720.59375 376.164062 717.550781 374.328125 714.636719 372.269531 C 711.726562 370.214844 708.976562 367.960938 706.390625 365.507812 C 697.703125 355.835938 690.949219 344.964844 686.125 332.894531 C 675.976562 310.617188 660.992188 283.769531 634.636719 271.445312 C 620.703125 273.417969 607.386719 277.4375 594.691406 283.511719 C 606.058594 287.421875 616.519531 293.019531 626.074219 300.308594 C 649.175781 317.777344 658.117188 351.46875 665.949219 381.195312 C 668.28125 390.03125 670.484375 398.375 672.9375 405.691406 C 683.050781 439.664062 732.832031 445.757812 776.734375 451.128906 C 788 452.511719 798.800781 453.835938 808.539062 455.570312 C 808.730469 453.515625 808.90625 451.46875 809.003906 449.410156 C 809.050781 448.574219 809.050781 447.773438 809.054688 446.953125 C 808.789062 440.492188 808.050781 434.085938 806.835938 427.738281 C 806.675781 426.894531 806.492188 426.066406 806.308594 425.222656 C 803.167969 414.886719 799.441406 404.765625 795.132812 394.855469 C 794.082031 392.179688 793.050781 389.511719 791.988281 386.835938 C 789.238281 387.21875 786.371094 387.519531 783.300781 387.6875 " fill-opacity="1" fill-rule="nonzero"/><path fill="#ff9473" d="M 565.8125 456.269531 C 577.28125 439.003906 590.277344 419.429688 573.617188 401.476562 C 559.066406 385.773438 536.4375 378.726562 517.425781 374.464844 C 513.390625 382.832031 508.769531 390.863281 503.558594 398.550781 C 516.25 400.699219 529.371094 404.074219 535.339844 416.101562 C 543.777344 437.410156 534.976562 457.792969 526.453125 477.511719 C 521.675781 487.570312 517.996094 498.015625 515.414062 508.847656 C 512.902344 521.089844 511.015625 538.65625 523.023438 549.9375 C 526.707031 553.191406 530.507812 556.40625 534.535156 559.820312 C 559.417969 580.894531 587.5625 604.734375 585.144531 640.960938 C 597.25 643.90625 609.441406 646.671875 621.632812 649.027344 C 618.375 621.28125 612.269531 593.164062 591.796875 573.417969 C 588.027344 569.789062 583.910156 566.25 579.910156 562.828125 C 566.761719 551.5625 553.160156 539.921875 548.785156 521.996094 C 544.054688 502.609375 549.351562 481.164062 564.550781 458.164062 Z M 565.8125 456.269531 " fill-opacity="1" fill-rule="nonzero"/><path fill="#ff9473" d="M 490.054688 566.566406 C 488.660156 564.152344 487.269531 561.710938 485.867188 559.214844 C 482.484375 553.085938 480.015625 546.609375 478.457031 539.785156 C 476.902344 532.957031 476.316406 526.050781 476.707031 519.0625 C 476.953125 514.09375 477.605469 509.046875 478.234375 504.179688 C 479.707031 495.660156 480.125 487.089844 479.492188 478.46875 C 479.050781 475.324219 478.289062 472.257812 477.207031 469.269531 C 476.121094 466.285156 474.742188 463.441406 473.066406 460.746094 C 471.386719 458.046875 469.449219 455.554688 467.25 453.261719 C 465.050781 450.96875 462.636719 448.929688 460.011719 447.140625 C 455.339844 453.207031 451.625 459.8125 448.859375 466.953125 C 440.46875 489.417969 445.421875 514.507812 451.851562 537.613281 C 454.050781 547.351562 457.207031 556.773438 461.328125 565.871094 C 465.445312 574.96875 470.441406 583.554688 476.3125 591.636719 C 480.859375 597.074219 485.921875 601.980469 491.5 606.355469 C 497.078125 610.726562 503.054688 614.472656 509.417969 617.59375 C 507.949219 597.859375 499.226562 582.589844 490.046875 566.539062 " fill-opacity="1" fill-rule="nonzero"/><path fill="#ff9473" d="M 767.433594 529.804688 C 759.753906 528.1875 751.789062 527.253906 744.109375 526.355469 C 739.082031 525.757812 733.941406 525.15625 728.878906 524.363281 C 722.398438 523.609375 716.066406 522.199219 709.882812 520.125 C 703.695312 518.050781 697.792969 515.363281 692.167969 512.058594 C 672.15625 499.304688 662.265625 476.746094 657.484375 460.082031 C 654.410156 448.457031 652.007812 436.695312 650.289062 424.796875 C 648.855469 416.078125 647.375 407.070312 645.34375 398.34375 C 642.488281 384.808594 637.535156 372.085938 630.484375 360.179688 C 623.53125 349.949219 615.203125 341 605.5 333.324219 L 604 332.007812 C 597.914062 326.496094 591.386719 321.566406 584.417969 317.222656 C 577.453125 312.878906 570.15625 309.183594 562.527344 306.144531 C 557.25 311.1875 552.339844 316.5625 547.792969 322.269531 C 549 322.753906 550.222656 323.1875 551.4375 323.578125 C 553.324219 324.117188 555.136719 324.84375 556.878906 325.75 C 564.496094 330.488281 571.734375 335.75 578.589844 341.53125 C 585.449219 347.3125 591.855469 353.558594 597.8125 360.265625 C 603.773438 366.96875 609.214844 374.070312 614.148438 381.5625 C 619.082031 389.054688 623.449219 396.859375 627.253906 404.984375 C 633.027344 421 631.230469 438.433594 629.515625 455.292969 C 628.324219 462.476562 627.773438 469.710938 627.863281 476.992188 C 627.957031 484.273438 628.691406 491.488281 630.070312 498.640625 C 635.769531 518.199219 661.519531 540.179688 684.253906 559.574219 C 693.949219 567.433594 703.136719 575.851562 711.804688 584.832031 C 714.945312 588.597656 717.742188 592.605469 720.191406 596.851562 C 722.640625 601.097656 724.707031 605.523438 726.394531 610.125 C 728.082031 614.730469 729.363281 619.445312 730.234375 624.265625 C 731.109375 629.089844 731.5625 633.953125 731.597656 638.855469 C 735.707031 636.097656 739.5 632.957031 742.976562 629.433594 C 748.070312 623.777344 752.554688 617.679688 756.441406 611.136719 C 760.324219 604.597656 763.53125 597.738281 766.058594 590.5625 C 767.941406 585.882812 769.664062 581.140625 771.386719 576.457031 C 776.414062 562.847656 781.363281 549.222656 786.203125 535.558594 C 780.128906 532.996094 773.863281 531.078125 767.394531 529.804688 " fill-opacity="1" fill-rule="nonzero"/><path fill="#ff9473" d="M 710.449219 586.082031 C 701.828125 577.171875 692.703125 568.8125 683.078125 561 C 660.148438 541.429688 634.167969 519.261719 628.304688 499.140625 C 626.886719 491.882812 626.128906 484.554688 626.023438 477.15625 C 625.917969 469.761719 626.46875 462.414062 627.675781 455.117188 C 629.382812 438.453125 631.148438 421.234375 625.558594 405.699219 C 621.789062 397.667969 617.46875 389.953125 612.585938 382.542969 C 607.707031 375.136719 602.320312 368.121094 596.429688 361.488281 C 590.535156 354.859375 584.199219 348.683594 577.414062 342.96875 C 570.632812 337.25 563.476562 332.050781 555.941406 327.363281 C 554.324219 326.527344 552.636719 325.859375 550.886719 325.359375 C 549.507812 324.921875 548.042969 324.410156 546.613281 323.796875 C 543.894531 327.277344 541.296875 330.835938 538.820312 334.476562 C 533.746094 342.195312 529.214844 350.21875 525.230469 358.554688 C 559.3125 357.925781 577.535156 371.117188 587.488281 403.269531 C 596.246094 429.589844 593.644531 462.582031 591.355469 491.699219 C 590.894531 497.792969 590.425781 503.546875 590.101562 508.984375 C 590.183594 511.613281 590.472656 514.214844 590.964844 516.796875 C 591.460938 519.378906 592.15625 521.90625 593.050781 524.375 C 593.945312 526.847656 595.03125 529.234375 596.300781 531.53125 C 597.574219 533.832031 599.019531 536.019531 600.636719 538.089844 C 603.703125 541.53125 606.921875 545.074219 610.152344 548.648438 C 638.425781 579.902344 667.664062 612.203125 666.703125 655.039062 C 672.183594 655.386719 677.664062 655.328125 683.136719 654.863281 C 688.609375 654.398438 694.015625 653.53125 699.363281 652.261719 C 704.707031 650.996094 709.929688 649.339844 715.027344 647.300781 C 720.125 645.257812 725.046875 642.851562 729.789062 640.082031 C 729.804688 635.1875 729.398438 630.332031 728.570312 625.511719 C 727.742188 620.691406 726.5 615.976562 724.851562 611.371094 C 723.203125 606.765625 721.164062 602.335938 718.742188 598.085938 C 716.320312 593.835938 713.550781 589.824219 710.429688 586.058594 " fill-opacity="1" fill-rule="nonzero"/><path fill="#ff9473" d="M 608.78125 549.925781 C 605.539062 546.355469 602.335938 542.796875 599.171875 539.246094 C 597.488281 537.089844 595.984375 534.8125 594.660156 532.414062 C 593.339844 530.019531 592.214844 527.535156 591.285156 524.957031 C 590.359375 522.382812 589.640625 519.75 589.132812 517.0625 C 588.625 514.371094 588.335938 511.660156 588.257812 508.921875 C 588.585938 503.464844 589.039062 497.691406 589.515625 491.589844 C 591.804688 462.65625 594.375 429.859375 585.746094 403.882812 C 576.011719 372.363281 558.046875 359.609375 524.335938 360.484375 C 522.335938 364.582031 520.328125 368.679688 518.316406 372.777344 C 537.507812 377.105469 560.246094 384.304688 575.03125 400.242188 C 592.6875 419.261719 578.675781 440.363281 567.410156 457.316406 L 566.152344 459.203125 C 551.253906 481.722656 546.046875 502.699219 550.640625 521.550781 C 554.867188 538.914062 568.234375 550.359375 581.164062 561.425781 C 585.1875 564.863281 589.332031 568.417969 593.140625 572.105469 C 614.160156 592.390625 620.3125 621.136719 623.589844 649.417969 C 633.59375 651.300781 643.574219 652.960938 653.464844 654.101562 C 657.234375 654.542969 661.046875 654.835938 664.886719 655.007812 C 665.816406 612.917969 636.855469 580.917969 608.8125 549.9375 " fill-opacity="1" fill-rule="nonzero"/><path fill="#ff9473" d="M 481.351562 478.253906 C 482 487.027344 481.582031 495.753906 480.09375 504.425781 C 479.464844 509.253906 478.835938 514.261719 478.566406 519.148438 C 478.179688 525.964844 478.746094 532.703125 480.261719 539.359375 C 481.78125 546.015625 484.191406 552.328125 487.496094 558.304688 C 488.871094 560.785156 490.273438 563.234375 491.65625 565.636719 C 501.125 582.179688 510.089844 597.910156 511.355469 618.578125 C 520.46875 622.988281 529.894531 626.585938 539.628906 629.371094 C 537.117188 611.417969 526.5625 597.746094 515.351562 583.320312 C 508.257812 574.679688 501.941406 565.503906 496.40625 555.792969 C 485.183594 535.613281 491.75 516.59375 498.710938 496.445312 C 500.011719 492.675781 501.34375 488.820312 502.5625 484.925781 C 502.894531 483.5625 503.171875 482.183594 503.394531 480.796875 C 503.617188 479.410156 503.785156 478.015625 503.898438 476.613281 C 504.007812 475.214844 504.066406 473.808594 504.066406 472.40625 C 504.066406 471 504.007812 469.597656 503.898438 468.195312 C 503.785156 466.792969 503.617188 465.398438 503.394531 464.011719 C 503.171875 462.625 502.894531 461.25 502.5625 459.882812 C 502.230469 458.515625 501.847656 457.167969 501.40625 455.832031 C 500.96875 454.496094 500.476562 453.183594 499.929688 451.886719 C 499.386719 450.589844 498.792969 449.320312 498.148438 448.070312 C 497.5 446.820312 496.808594 445.601562 496.066406 444.40625 C 495.324219 443.214844 494.535156 442.050781 493.699219 440.921875 C 492.863281 439.789062 491.984375 438.695312 491.0625 437.632812 C 490.140625 436.574219 489.179688 435.550781 488.175781 434.566406 C 487.171875 433.582031 486.132812 432.640625 485.050781 431.738281 C 483.972656 430.835938 482.863281 429.980469 481.714844 429.167969 C 480.570312 428.355469 479.390625 427.589844 478.183594 426.867188 C 472.117188 432.777344 466.433594 439.035156 461.128906 445.640625 C 463.863281 447.5 466.371094 449.625 468.65625 452.011719 C 470.941406 454.398438 472.957031 456.996094 474.699219 459.804688 C 476.441406 462.613281 477.875 465.574219 478.996094 468.679688 C 480.121094 471.789062 480.910156 474.980469 481.363281 478.253906 " fill-opacity="1" fill-rule="nonzero"/><path fill="#ff9473" d="M 533.320312 561.25 C 529.292969 557.832031 525.492188 554.605469 521.773438 551.324219 C 509.042969 539.390625 511.007812 521.171875 513.605469 508.496094 C 516.191406 497.527344 519.902344 486.957031 524.738281 476.777344 C 533.113281 457.40625 541.753906 437.371094 533.628906 416.867188 C 527.9375 405.386719 515.300781 402.375 502.363281 400.253906 C 501.011719 402.136719 499.605469 403.984375 498.117188 405.789062 C 492.460938 412.660156 485.96875 419.054688 479.546875 425.507812 C 480.785156 426.257812 481.988281 427.054688 483.160156 427.902344 C 484.332031 428.75 485.46875 429.640625 486.570312 430.574219 C 487.671875 431.511719 488.738281 432.488281 489.761719 433.507812 C 490.785156 434.53125 491.769531 435.589844 492.710938 436.6875 C 493.652344 437.785156 494.546875 438.917969 495.398438 440.085938 C 496.25 441.253906 497.054688 442.453125 497.8125 443.6875 C 498.570312 444.917969 499.277344 446.175781 499.933594 447.464844 C 500.589844 448.753906 501.195312 450.0625 501.75 451.398438 C 502.300781 452.734375 502.800781 454.089844 503.25 455.464844 C 503.695312 456.839844 504.085938 458.230469 504.421875 459.636719 C 504.761719 461.042969 505.039062 462.460938 505.265625 463.886719 C 505.488281 465.316406 505.65625 466.75 505.769531 468.191406 C 505.878906 469.632812 505.933594 471.078125 505.933594 472.523438 C 505.929688 473.96875 505.871094 475.414062 505.753906 476.851562 C 505.636719 478.292969 505.460938 479.726562 505.230469 481.15625 C 505 482.582031 504.714844 484 504.375 485.402344 C 503.117188 489.40625 501.777344 493.300781 500.492188 497.054688 C 493.671875 516.800781 487.226562 535.445312 498.046875 554.90625 C 503.535156 564.527344 509.796875 573.621094 516.828125 582.183594 C 528.359375 597.027344 539.234375 611.078125 541.589844 629.925781 C 544.105469 630.621094 546.5625 631.304688 549.050781 631.929688 C 560.304688 634.75 571.757812 637.675781 583.3125 640.496094 C 585.46875 605.394531 557.808594 581.957031 533.339844 561.238281 " fill-opacity="1" fill-rule="nonzero"/><path fill="#ff9473" d="M 504.648438 432.855469 C 504.230469 433.484375 503.789062 434.113281 503.304688 434.742188 L 503.40625 434.632812 C 505.121094 432.589844 506.726562 430.464844 508.214844 428.25 C 506.867188 429.648438 505.679688 431.175781 504.65625 432.824219 " fill-opacity="1" fill-rule="nonzero"/><path fill="#ffcc00" d="M 626.027344 128.042969 C 631.628906 125.617188 637.476562 123.6875 643.152344 121.828125 C 650.628906 119.585938 657.886719 116.78125 664.929688 113.410156 C 681.386719 104.988281 693.519531 83.332031 697.417969 55.492188 L 697.453125 55.203125 L 697.246094 55.007812 C 695.644531 53.449219 693.964844 51.753906 692.21875 49.984375 C 690.335938 48.097656 688.449219 46.144531 686.457031 44.230469 L 685.929688 43.714844 L 685.578125 44.34375 C 680.816406 53.707031 674.953125 62.324219 667.984375 70.183594 C 665.464844 73.144531 662.671875 75.816406 659.601562 78.203125 C 656.535156 80.589844 653.253906 82.640625 649.765625 84.355469 C 646.277344 86.070312 642.652344 87.410156 638.886719 88.382812 C 635.125 89.351562 631.300781 89.929688 627.417969 90.117188 L 626.828125 90.117188 C 623.03125 89.96875 619.261719 89.574219 615.515625 88.9375 C 612.140625 88.121094 608.714844 87.734375 605.238281 87.78125 C 601.765625 87.828125 598.347656 88.304688 594.996094 89.214844 C 592.070312 90.300781 589.484375 91.925781 587.242188 94.09375 L 587.046875 94.269531 L 587.046875 94.539062 C 587.578125 100.765625 588.800781 106.847656 590.714844 112.796875 C 594.144531 123.644531 598.054688 134.296875 602.347656 144.460938 L 602.710938 145.335938 L 603.308594 144.582031 C 606.375 140.945312 609.828125 137.726562 613.675781 134.929688 C 617.523438 132.128906 621.648438 129.832031 626.054688 128.035156 " fill-opacity="1" fill-rule="nonzero"/><g clip-path="url(#72e4ee0138)"><path fill="#ffcc00" d="M 594.316406 87.472656 C 597.816406 86.515625 601.382812 86.007812 605.007812 85.945312 C 608.636719 85.882812 612.21875 86.265625 615.75 87.101562 C 619.421875 87.726562 623.121094 88.113281 626.847656 88.265625 L 627.472656 88.265625 C 631.21875 88.070312 634.90625 87.5 638.535156 86.550781 C 642.164062 85.605469 645.660156 84.296875 649.023438 82.636719 C 652.382812 80.972656 655.542969 78.984375 658.5 76.675781 C 661.453125 74.367188 664.144531 71.78125 666.570312 68.921875 C 673.574219 60.945312 679.480469 52.226562 684.289062 42.765625 L 684.492188 42.375 L 684.171875 42.085938 C 679.957031 37.839844 675.054688 34.65625 669.460938 32.53125 C 659.816406 29.464844 649.980469 33.160156 640.429688 36.761719 C 636.925781 38.066406 633.621094 39.316406 630.378906 40.222656 C 627.050781 40.875 623.800781 41.789062 620.621094 42.964844 C 617.445312 44.144531 614.382812 45.570312 611.433594 47.238281 C 608.488281 48.910156 605.691406 50.808594 603.050781 52.929688 C 600.40625 55.050781 597.953125 57.371094 595.6875 59.890625 C 594.066406 62.113281 592.652344 64.457031 591.445312 66.929688 C 590.238281 69.398438 589.253906 71.953125 588.496094 74.597656 C 587.734375 77.238281 587.214844 79.929688 586.925781 82.664062 C 586.640625 85.398438 586.59375 88.136719 586.789062 90.878906 L 586.839844 92.003906 L 587.710938 91.3125 C 589.699219 89.664062 591.894531 88.386719 594.308594 87.472656 " fill-opacity="1" fill-rule="nonzero"/></g><path fill="#ffcc00" d="M 670.289062 143.785156 L 669.988281 143.3125 L 670.402344 143.714844 C 675.683594 140.328125 681.148438 136.84375 686.339844 133.292969 C 690.75 130.609375 694.824219 127.488281 698.558594 123.925781 C 702.292969 120.363281 705.605469 116.445312 708.496094 112.167969 C 712.820312 103.738281 715.605469 94.832031 716.859375 85.445312 C 717.398438 82.574219 717.976562 79.601562 718.628906 76.730469 L 718.707031 76.441406 L 718.511719 76.230469 C 712.011719 69.003906 705.121094 62.410156 699.855469 57.496094 L 699.082031 56.773438 L 698.925781 57.816406 C 694.59375 85.242188 682.191406 106.652344 665.773438 115.050781 C 658.636719 118.472656 651.28125 121.316406 643.699219 123.585938 C 638.074219 125.472656 632.257812 127.355469 626.734375 129.738281 C 622.195312 131.558594 617.96875 133.941406 614.0625 136.882812 C 610.15625 139.824219 606.699219 143.222656 603.691406 147.082031 L 603.515625 147.339844 L 603.636719 147.628906 C 608.527344 159.0625 614.316406 170.023438 620.996094 180.515625 C 621.140625 180.726562 621.273438 180.933594 621.429688 181.140625 C 621.585938 181.347656 621.65625 181.488281 621.789062 181.664062 L 622.203125 182.292969 L 622.699219 181.664062 C 635.417969 166.039062 653.136719 154.703125 670.277344 143.738281 " fill-opacity="1" fill-rule="nonzero"/><path fill="#ffcc00" d="M 663.78125 186.398438 C 669.6875 181.730469 676.136719 177.992188 683.128906 175.191406 L 683.417969 175.0625 C 685.136719 174.277344 686.855469 173.492188 688.550781 172.675781 C 694.238281 169.882812 699.714844 166.726562 704.980469 163.207031 C 710.246094 159.683594 715.257812 155.828125 720.007812 151.636719 C 724.757812 147.445312 729.207031 142.957031 733.355469 138.171875 C 737.507812 133.382812 741.320312 128.34375 744.792969 123.046875 L 744.925781 122.847656 L 744.863281 122.601562 C 744.808594 122.332031 744.757812 122.054688 744.695312 121.785156 C 744.625 121.414062 744.554688 121.042969 744.453125 120.671875 C 742.214844 112.914062 739.109375 105.519531 735.144531 98.484375 C 731.175781 91.449219 726.453125 84.964844 720.972656 79.03125 L 720.246094 78.171875 L 720.011719 79.269531 C 719.539062 81.457031 719.09375 83.667969 718.660156 85.933594 C 717.375 95.484375 714.515625 104.535156 710.082031 113.089844 C 707.132812 117.488281 703.738281 121.519531 699.910156 125.183594 C 696.082031 128.84375 691.902344 132.054688 687.375 134.808594 C 682.230469 138.324219 676.804688 141.792969 671.570312 145.140625 L 671.300781 145.324219 C 653.996094 156.378906 636.113281 167.824219 623.609375 183.515625 L 623.339844 183.84375 L 623.585938 184.183594 C 626.828125 188.960938 630.558594 193.320312 634.78125 197.257812 C 639.003906 201.199219 643.609375 204.621094 648.597656 207.527344 L 649.113281 207.816406 L 649.371094 207.273438 C 649.515625 206.949219 649.667969 206.648438 649.804688 206.292969 C 649.941406 205.941406 650.132812 205.476562 650.328125 205.082031 C 653.535156 197.9375 658.011719 191.703125 663.761719 186.382812 " fill-opacity="1" fill-rule="nonzero"/><path fill="#ffcc00" d="M 745.742188 126.839844 L 745.496094 125.503906 L 744.71875 126.628906 C 741.238281 131.722656 737.441406 136.570312 733.332031 141.171875 C 729.21875 145.773438 724.828125 150.089844 720.152344 154.117188 C 715.480469 158.148438 710.5625 161.859375 705.40625 165.246094 C 700.25 168.636719 694.894531 171.679688 689.34375 174.371094 C 687.753906 175.128906 686.132812 175.871094 684.523438 176.613281 L 683.894531 176.914062 C 677.074219 179.644531 670.777344 183.28125 665.007812 187.824219 C 659.449219 192.980469 655.121094 199.019531 652.03125 205.941406 C 651.828125 206.34375 651.652344 206.753906 651.484375 207.199219 C 651.316406 207.644531 651.203125 207.878906 651.042969 208.203125 L 650.8125 208.699219 L 651.300781 208.945312 C 654.925781 210.742188 658.707031 212.101562 662.644531 213.027344 C 666.582031 213.949219 670.574219 214.417969 674.621094 214.421875 C 680.691406 214.28125 686.628906 213.304688 692.425781 211.488281 C 698.222656 209.671875 703.65625 207.089844 708.726562 203.742188 C 710.832031 202.4375 712.730469 201.199219 714.507812 199.976562 C 722.375 194.734375 729.179688 188.359375 734.921875 180.851562 C 736.277344 178.917969 737.527344 176.917969 738.671875 174.851562 C 739.820312 172.789062 740.859375 170.667969 741.785156 168.496094 C 742.714844 166.328125 743.53125 164.113281 744.230469 161.855469 C 744.929688 159.601562 745.511719 157.316406 745.976562 155 C 746.445312 152.683594 746.789062 150.351562 747.011719 148 C 747.238281 145.648438 747.339844 143.292969 747.324219 140.933594 C 747.304688 138.570312 747.164062 136.214844 746.90625 133.867188 C 746.644531 131.519531 746.261719 129.195312 745.761719 126.886719 " fill-opacity="1" fill-rule="nonzero"/><path fill="#d6a2ff" d="M 105.566406 86.5 C 130.789062 100.261719 157.203125 111.152344 184.800781 119.164062 C 185.070312 119.253906 185.332031 119.304688 185.609375 119.378906 C 185.460938 118.984375 185.296875 118.585938 185.140625 118.183594 C 181.175781 107.09375 176.414062 96.351562 170.855469 85.964844 C 164.699219 84.378906 158.6875 82.359375 152.820312 79.90625 C 146.957031 77.449219 141.296875 74.585938 135.847656 71.3125 C 130.394531 68.039062 125.210938 64.386719 120.289062 60.363281 C 115.367188 56.339844 110.757812 51.980469 106.46875 47.289062 C 102.308594 48.550781 98.34375 50.257812 94.566406 52.417969 C 90.792969 54.574219 87.308594 57.125 84.113281 60.070312 C 81.644531 62.105469 79.25 64.21875 76.878906 66.355469 C 85.476562 74.429688 95.039062 81.128906 105.5625 86.457031 " fill-opacity="1" fill-rule="nonzero"/><path fill="#d6a2ff" d="M 60.746094 133.117188 C 72.128906 137.625 83.722656 141.511719 95.523438 144.78125 C 102.523438 146.863281 109.773438 149.011719 116.824219 151.398438 C 133.574219 157.109375 149.660156 164.304688 165.078125 172.988281 C 180.5 181.667969 194.996094 191.6875 208.5625 203.046875 C 208.960938 202.132812 209.304688 201.199219 209.601562 200.246094 C 210.617188 196.003906 210.929688 191.710938 210.542969 187.367188 C 210.15625 183.023438 209.085938 178.855469 207.339844 174.859375 C 203.945312 165.707031 200.371094 156.605469 196.757812 147.515625 C 189.964844 147.195312 183.195312 146.605469 176.449219 145.746094 C 169.703125 144.886719 163.003906 143.757812 156.347656 142.363281 C 149.691406 140.96875 143.101562 139.3125 136.578125 137.394531 C 130.050781 135.476562 123.613281 133.300781 117.265625 130.867188 C 110.914062 128.4375 104.671875 125.753906 98.535156 122.828125 C 92.398438 119.898438 86.386719 116.726562 80.503906 113.320312 C 74.617188 109.910156 68.878906 106.273438 63.285156 102.410156 C 57.691406 98.542969 52.257812 94.460938 46.988281 90.160156 C 38.640625 94.570312 30.738281 99.671875 23.28125 105.464844 C 22.785156 105.890625 22.308594 106.335938 21.835938 106.777344 C 27.230469 112.597656 33.210938 117.730469 39.78125 122.175781 C 46.355469 126.621094 53.34375 130.269531 60.75 133.109375 " fill-opacity="1" fill-rule="nonzero"/><path fill="#d6a2ff" d="M 196.023438 145.625 C 192.8125 137.605469 189.632812 129.582031 186.476562 121.558594 C 185.753906 121.371094 185.019531 121.207031 184.285156 120.988281 C 156.558594 112.925781 130.027344 101.976562 104.683594 88.140625 C 93.976562 82.714844 84.253906 75.890625 75.515625 67.660156 C 68.949219 73.996094 61.996094 79.871094 54.65625 85.292969 C 52.707031 86.644531 50.722656 87.902344 48.699219 89.132812 C 53.890625 93.347656 59.242188 97.351562 64.75 101.140625 C 70.257812 104.933594 75.90625 108.503906 81.699219 111.851562 C 87.488281 115.195312 93.402344 118.308594 99.4375 121.1875 C 105.476562 124.066406 111.613281 126.703125 117.859375 129.101562 C 124.105469 131.496094 130.433594 133.640625 136.847656 135.535156 C 143.261719 137.429688 149.742188 139.070312 156.285156 140.453125 C 162.828125 141.835938 169.414062 142.960938 176.046875 143.824219 C 182.679688 144.6875 189.335938 145.285156 196.015625 145.625 " fill-opacity="1" fill-rule="nonzero"/><path fill="#d6a2ff" d="M 169.550781 83.710938 C 168.574219 82.109375 167.582031 80.519531 166.496094 78.960938 C 163.039062 73.738281 159.039062 68.96875 154.496094 64.652344 C 149.957031 60.335938 144.988281 56.582031 139.597656 53.394531 C 136.222656 51.390625 132.667969 49.792969 128.929688 48.601562 C 125.191406 47.410156 121.371094 46.65625 117.460938 46.339844 C 116.730469 46.289062 116.015625 46.277344 115.292969 46.265625 C 113.03125 46.25 110.785156 46.445312 108.5625 46.855469 C 112.664062 51.265625 117.054688 55.371094 121.730469 59.171875 C 126.40625 62.972656 131.320312 66.429688 136.476562 69.546875 C 141.632812 72.664062 146.980469 75.40625 152.519531 77.777344 C 158.058594 80.152344 163.734375 82.128906 169.550781 83.710938 " fill-opacity="1" fill-rule="nonzero"/><path fill="#d6a2ff" d="M 116.210938 153.15625 C 109.214844 150.777344 101.988281 148.632812 94.996094 146.566406 C 83.132812 143.277344 71.480469 139.363281 60.035156 134.824219 C 52.5 131.9375 45.390625 128.230469 38.703125 123.710938 C 32.019531 119.1875 25.933594 113.96875 20.449219 108.054688 C 16.28125 112.234375 12.761719 116.902344 9.898438 122.0625 C 7.03125 127.226562 4.921875 132.679688 3.578125 138.425781 C 10.730469 145.839844 18.683594 152.265625 27.433594 157.710938 C 36.183594 163.152344 45.464844 167.441406 55.277344 170.582031 C 64.785156 174.054688 74.664062 177.019531 84.226562 179.886719 C 99.25 184.015625 113.910156 189.171875 128.210938 195.359375 C 141.683594 201.570312 163.695312 214.480469 175.558594 236.007812 C 182.476562 231.269531 188.929688 225.957031 194.910156 220.078125 C 200.011719 215.683594 204.257812 210.578125 207.648438 204.761719 C 194.125 193.410156 179.671875 183.398438 164.292969 174.722656 C 148.914062 166.046875 132.871094 158.859375 116.160156 153.15625 " fill-opacity="1" fill-rule="nonzero"/><path fill="#d6a2ff" d="M 127.480469 197.066406 C 113.253906 190.914062 98.660156 185.792969 83.710938 181.695312 C 74.121094 178.824219 64.230469 175.851562 54.65625 172.355469 C 44.914062 169.210938 35.6875 164.960938 26.964844 159.605469 C 18.246094 154.25 10.285156 147.9375 3.082031 140.667969 C 1.5 148.613281 0.8125 156.632812 1.015625 164.730469 C 1.214844 172.828125 2.300781 180.804688 4.273438 188.660156 C 16.269531 196.953125 31.011719 199.742188 46.511719 202.65625 C 54.125 203.558594 61.570312 205.207031 68.851562 207.601562 C 76.132812 209.996094 83.101562 213.089844 89.761719 216.886719 C 96.339844 221.480469 102.0625 226.964844 106.929688 233.34375 C 117.554688 236.03125 127.035156 242.308594 137.71875 244.890625 C 140.574219 245.449219 143.460938 245.734375 146.375 245.75 C 149.289062 245.765625 152.175781 245.511719 155.039062 244.984375 C 157.90625 244.457031 160.695312 243.667969 163.410156 242.617188 C 166.128906 241.566406 168.722656 240.273438 171.195312 238.734375 C 172.152344 238.195312 173.082031 237.621094 174.03125 237.039062 C 162.425781 215.894531 140.726562 203.179688 127.460938 197.066406 " fill-opacity="1" fill-rule="nonzero"/><path fill="#d6a2ff" d="M 88.71875 218.4375 C 82.164062 214.71875 75.304688 211.683594 68.140625 209.335938 C 60.976562 206.988281 53.652344 205.375 46.167969 204.492188 C 38.941406 203.601562 31.863281 202.050781 24.929688 199.832031 C 17.992188 197.613281 11.328125 194.769531 4.929688 191.300781 C 5.890625 195.011719 6.984375 198.636719 8.214844 202.117188 C 11.71875 211.230469 15.714844 220.121094 20.203125 228.789062 C 27.011719 228.800781 33.769531 229.386719 40.480469 230.546875 C 45.023438 231.296875 49.402344 232.601562 53.613281 234.460938 C 57.824219 236.320312 61.738281 238.675781 65.351562 241.53125 C 76.980469 236.625 88.359375 230.789062 101.46875 232.308594 C 102.308594 232.394531 103.160156 232.539062 103.980469 232.679688 C 99.589844 227.1875 94.507812 222.441406 88.730469 218.4375 " fill-opacity="1" fill-rule="nonzero"/><path fill="#d6a2ff" d="M 40.128906 232.382812 C 33.855469 231.292969 27.535156 230.722656 21.171875 230.679688 C 22.570312 233.773438 24.429688 236.554688 26.753906 239.027344 C 29.074219 241.503906 31.734375 243.535156 34.730469 245.128906 C 36.460938 245.777344 38.234375 246.265625 40.050781 246.589844 C 41.871094 246.914062 43.703125 247.066406 45.546875 247.054688 C 47.394531 247.042969 49.226562 246.863281 51.039062 246.515625 C 52.851562 246.167969 54.621094 245.65625 56.339844 244.984375 C 58.726562 244.207031 61.070312 243.289062 63.414062 242.332031 C 59.988281 239.765625 56.304688 237.640625 52.367188 235.960938 C 48.429688 234.277344 44.347656 233.089844 40.121094 232.390625 " fill-opacity="1" fill-rule="nonzero"/><path fill="#00dba7" d="M 96.511719 295.535156 C 109.167969 296.214844 121.609375 298.234375 133.835938 301.582031 C 140.289062 303.109375 146.484375 305.347656 152.425781 308.292969 C 158.371094 311.238281 163.902344 314.816406 169.023438 319.027344 C 171.554688 321.734375 173.882812 324.605469 176.015625 327.636719 C 178.144531 330.667969 180.050781 333.835938 181.738281 337.132812 C 183.421875 340.433594 184.871094 343.835938 186.082031 347.335938 C 187.289062 350.839844 188.25 354.410156 188.960938 358.046875 C 193.28125 375.371094 195.292969 392.960938 194.992188 410.8125 C 194.445312 443.535156 185.957031 475.761719 177.742188 506.925781 C 170.894531 530.75 165.691406 554.933594 162.140625 579.46875 C 154.414062 643.769531 170.308594 707.679688 190.71875 764.78125 C 207.144531 771.835938 224.253906 776.195312 242.050781 777.859375 C 238.484375 769.996094 235.234375 762 232.304688 753.875 C 229.375 745.75 226.773438 737.523438 224.496094 729.191406 C 222.222656 720.859375 220.28125 712.453125 218.675781 703.96875 C 217.070312 695.480469 215.804688 686.945312 214.878906 678.359375 C 213.949219 669.773438 213.367188 661.164062 213.125 652.53125 C 212.882812 643.898438 212.984375 635.269531 213.429688 626.644531 C 213.875 618.019531 214.664062 609.425781 215.792969 600.863281 C 216.921875 592.300781 218.390625 583.796875 220.195312 575.351562 C 222.757812 563.613281 226.03125 551.785156 229.21875 540.34375 C 236.023438 515.800781 243.042969 490.421875 243.3125 464.6875 C 243.132812 449.25 241.519531 433.964844 238.480469 418.828125 C 233.566406 391.773438 227.054688 365.105469 218.945312 338.828125 C 214.023438 322.878906 207.632812 304.90625 194.144531 293.46875 C 185.78125 287.027344 176.550781 282.28125 166.445312 279.226562 C 153.917969 274.859375 141.167969 271.273438 128.199219 268.476562 C 123.351562 269.097656 118.585938 270.101562 113.898438 271.484375 C 109.210938 272.867188 104.664062 274.613281 100.257812 276.726562 C 95.851562 278.835938 91.640625 281.28125 87.625 284.066406 C 83.609375 286.851562 79.84375 289.9375 76.320312 293.324219 C 83.332031 294.347656 90.03125 294.949219 96.523438 295.527344 " fill-opacity="1" fill-rule="nonzero"/><path fill="#00dba7" d="M 136.894531 594.242188 C 147.097656 550.042969 157.660156 504.335938 164.925781 457.199219 C 165.949219 447.824219 166.195312 438.425781 165.667969 429.011719 C 165.140625 419.59375 163.847656 410.285156 161.785156 401.082031 C 145.347656 355.117188 107.8125 318.292969 65.445312 306.226562 C 63.589844 308.898438 61.875 311.660156 60.296875 314.503906 C 80.40625 337.835938 125.019531 395.265625 123.191406 443.429688 C 121.851562 467.378906 119.28125 491.195312 115.480469 514.878906 C 110.742188 543.109375 108.117188 571.535156 107.605469 600.152344 C 107.707031 614.878906 108.519531 629.835938 109.308594 644.300781 C 109.773438 652.683594 110.226562 661.265625 110.566406 669.839844 C 112.628906 675.492188 114.625 681.183594 116.730469 686.835938 C 122.777344 655.589844 129.925781 624.4375 136.902344 594.253906 " fill-opacity="1" fill-rule="nonzero"/><path fill="#00dba7" d="M 160.289062 579.265625 C 163.84375 554.644531 169.058594 530.375 175.941406 506.464844 C 184.109375 475.402344 192.578125 443.296875 193.105469 410.804688 C 193.410156 393.109375 191.421875 375.671875 187.136719 358.496094 C 186.449219 354.949219 185.515625 351.464844 184.339844 348.046875 C 183.164062 344.625 181.753906 341.304688 180.113281 338.082031 C 178.472656 334.859375 176.617188 331.769531 174.546875 328.804688 C 172.472656 325.84375 170.203125 323.039062 167.742188 320.390625 C 162.722656 316.285156 157.308594 312.796875 151.496094 309.921875 C 145.683594 307.050781 139.625 304.871094 133.3125 303.378906 C 121.207031 300.074219 108.886719 298.082031 96.351562 297.398438 C 89.511719 296.773438 82.421875 296.144531 74.988281 295.039062 L 74.726562 295 C 71.78125 298.015625 69.066406 301.230469 66.582031 304.636719 C 109.308594 317.070312 147.011719 354.207031 163.582031 400.648438 C 165.683594 409.972656 167 419.40625 167.535156 428.953125 C 168.070312 438.496094 167.808594 448.015625 166.761719 457.519531 C 159.503906 504.707031 148.933594 550.453125 138.71875 594.695312 C 131.523438 625.808594 124.121094 657.953125 117.980469 690.179688 C 122.433594 702.984375 128.644531 714.867188 136.617188 725.828125 C 143.589844 734.148438 151.453125 741.519531 160.207031 747.941406 C 168.960938 754.363281 178.351562 759.652344 188.382812 763.808594 C 168.191406 706.921875 152.566406 643.347656 160.292969 579.3125 " fill-opacity="1" fill-rule="nonzero"/><path fill="#00dba7" d="M 34.050781 536.261719 C 37.640625 541.457031 41.449219 546.570312 45.21875 551.5625 C 46.582031 530.265625 46.160156 509.003906 43.945312 487.777344 C 41.730469 466.550781 37.753906 445.660156 32.023438 425.105469 C 29.035156 437.457031 25.625 449.699219 21.792969 461.828125 C 21.121094 463.949219 20.441406 466.082031 19.789062 468.222656 C 24.664062 478.890625 28.300781 489.96875 30.703125 501.449219 C 33.101562 512.929688 34.210938 524.535156 34.019531 536.261719 " fill-opacity="1" fill-rule="nonzero"/><path fill="#00dba7" d="M 107.476562 644.398438 C 106.675781 629.90625 105.855469 614.921875 105.753906 600.152344 C 106.265625 571.441406 108.902344 542.925781 113.664062 514.609375 C 117.433594 490.980469 119.976562 467.21875 121.296875 443.328125 C 123.101562 396.214844 79.519531 339.757812 59.34375 316.246094 C 55.480469 323.664062 52.351562 331.378906 49.957031 339.394531 C 61 367.386719 69.171875 396.191406 74.460938 425.8125 C 76.691406 442.585938 78.074219 459.429688 78.609375 476.339844 L 85.199219 614.050781 C 94.0625 630.234375 101.8125 646.933594 108.449219 664.152344 C 108.148438 657.5 107.785156 650.886719 107.4375 644.367188 " fill-opacity="1" fill-rule="nonzero"/><path fill="#00dba7" d="M 76.722656 476.445312 C 76.199219 459.597656 74.824219 442.816406 72.59375 426.109375 C 67.53125 397.433594 59.691406 369.539062 49.074219 342.421875 C 45.417969 355.917969 42.539062 369.574219 40.441406 383.398438 C 45.414062 398.648438 49.582031 414.117188 52.949219 429.796875 C 56.316406 445.480469 58.863281 461.296875 60.585938 477.242188 C 62.308594 493.191406 63.203125 509.183594 63.265625 525.222656 C 63.328125 541.261719 62.5625 557.261719 60.964844 573.222656 C 61.253906 573.667969 61.59375 574.128906 61.851562 574.582031 C 69.289062 586.269531 76.441406 598.164062 83.125 610.300781 Z M 76.722656 476.445312 " fill-opacity="1" fill-rule="nonzero"/><path fill="#00dba7" d="M 59.332031 570.75 C 60.796875 555.332031 61.480469 539.882812 61.390625 524.398438 C 61.300781 508.914062 60.433594 493.476562 58.789062 478.078125 C 57.144531 462.679688 54.730469 447.40625 51.550781 432.25 C 48.367188 417.097656 44.433594 402.140625 39.746094 387.382812 C 37.84375 398.777344 35.5625 410.101562 32.910156 421.355469 C 39.105469 442.847656 43.378906 464.714844 45.730469 486.957031 C 48.082031 509.203125 48.476562 531.480469 46.914062 553.792969 C 51.3125 559.617188 55.605469 565.277344 59.324219 570.753906 " fill-opacity="1" fill-rule="nonzero"/><path fill="#00dba7" d="M 18.984375 470.972656 C 17.585938 475.027344 16.621094 479.179688 16.097656 483.433594 C 15.574219 487.6875 15.5 491.949219 15.875 496.222656 C 17.152344 502.980469 19.171875 509.515625 21.929688 515.816406 C 24.6875 522.121094 28.113281 528.039062 32.210938 533.566406 C 32.195312 522.789062 31.074219 512.128906 28.84375 501.582031 C 26.613281 491.039062 23.320312 480.835938 18.972656 470.972656 " fill-opacity="1" fill-rule="nonzero"/><path fill="#00dba7" d="M 355.359375 678.238281 C 349.808594 667.945312 345.226562 657.242188 341.605469 646.125 C 336.519531 631.207031 332.226562 616.0625 328.722656 600.695312 C 325.222656 585.328125 322.527344 569.816406 320.648438 554.167969 C 318.765625 538.519531 317.707031 522.816406 317.464844 507.054688 C 317.226562 491.296875 317.808594 475.566406 319.210938 459.867188 C 313.664062 452.410156 308.492188 445.054688 303.664062 437.882812 C 303.835938 459.589844 302.328125 481.179688 299.140625 502.652344 C 296.242188 522.613281 294.664062 542.679688 294.402344 562.847656 C 295.667969 592.109375 299.769531 620.96875 306.699219 649.429688 C 310.847656 669.230469 315.546875 691.660156 328.214844 709.214844 C 332.09375 714.375 336.300781 719.253906 340.839844 723.851562 C 340.964844 723.648438 341.097656 723.449219 341.246094 723.222656 C 347.570312 713.566406 355.5 702.636719 363.667969 690.902344 C 360.601562 686.863281 357.835938 682.628906 355.367188 678.199219 " fill-opacity="1" fill-rule="nonzero"/><path fill="#00dba7" d="M 385.949219 647.0625 C 377.421875 634.875 369.851562 622.121094 363.238281 608.800781 C 356.628906 595.476562 351.046875 581.734375 346.5 567.578125 C 344.460938 561.097656 342.804688 554.523438 341.535156 547.851562 C 340.265625 541.179688 339.390625 534.457031 338.910156 527.679688 C 338.429688 520.90625 338.347656 514.125 338.660156 507.339844 C 338.976562 500.558594 339.683594 493.8125 340.789062 487.113281 C 333.71875 478.738281 327.058594 470.359375 320.863281 462.078125 C 319.554688 477.546875 319.046875 493.042969 319.339844 508.5625 C 319.628906 524.085938 320.722656 539.550781 322.613281 554.960938 C 324.5 570.367188 327.179688 585.636719 330.648438 600.769531 C 334.117188 615.902344 338.355469 630.816406 343.363281 645.507812 C 346.914062 656.40625 351.402344 666.90625 356.824219 677.007812 C 359.199219 681.292969 361.855469 685.398438 364.792969 689.320312 C 373.445312 677.0625 381.464844 664.402344 388.839844 651.339844 C 387.851562 649.898438 386.902344 648.480469 385.949219 647.054688 " fill-opacity="1" fill-rule="nonzero"/><path fill="#00dba7" d="M 278.15625 417.082031 C 279.925781 433.550781 279.640625 449.980469 277.292969 466.375 C 274.867188 478.636719 271.535156 490.648438 267.304688 502.410156 C 265.8125 506.90625 264.261719 511.5625 262.859375 516.148438 C 261.339844 521.144531 259.941406 526.171875 258.671875 531.238281 C 257.398438 536.304688 256.25 541.398438 255.230469 546.519531 C 254.207031 551.640625 253.3125 556.78125 252.546875 561.949219 C 251.777344 567.113281 251.136719 572.296875 250.625 577.492188 C 250.113281 582.691406 249.726562 587.894531 249.472656 593.113281 C 249.214844 598.328125 249.089844 603.546875 249.089844 608.769531 C 249.089844 613.992188 249.222656 619.210938 249.480469 624.425781 C 249.738281 629.640625 250.125 634.847656 250.640625 640.046875 C 251.15625 645.242188 251.800781 650.421875 252.570312 655.589844 C 253.339844 660.753906 254.238281 665.898438 255.261719 671.015625 C 256.285156 676.136719 257.4375 681.230469 258.710938 686.296875 C 259.984375 691.359375 261.382812 696.390625 262.90625 701.382812 C 264.429688 706.378906 266.074219 711.335938 267.84375 716.25 C 269.609375 721.164062 271.5 726.03125 273.503906 730.851562 C 275.511719 735.671875 277.636719 740.441406 279.878906 745.160156 C 282.121094 749.875 284.480469 754.535156 286.953125 759.136719 C 288.945312 763.425781 291.730469 767.117188 295.300781 770.214844 C 298.867188 768.613281 302.277344 766.726562 305.53125 764.5625 C 312.480469 759.253906 318.835938 753.3125 324.601562 746.742188 C 330.363281 740.167969 335.421875 733.089844 339.777344 725.507812 C 335.082031 720.742188 330.722656 715.6875 326.695312 710.34375 C 313.808594 692.484375 309.0625 669.839844 304.882812 649.855469 C 297.921875 621.277344 293.808594 592.296875 292.542969 562.910156 C 292.800781 542.660156 294.382812 522.511719 297.292969 502.472656 C 300.675781 480.101562 302.144531 457.605469 301.691406 434.984375 C 290.910156 418.777344 281.96875 403.65625 274.875 390.78125 C 276.257812 398.796875 277.351562 407.496094 278.171875 417.125 " fill-opacity="1" fill-rule="nonzero"/><g clip-path="url(#5e26a2c6e4)"><path fill="#00dba7" d="M 285.292969 760.007812 C 282.804688 755.378906 280.4375 750.695312 278.179688 745.949219 C 275.925781 741.207031 273.789062 736.410156 271.769531 731.558594 C 269.75 726.710938 267.855469 721.8125 266.078125 716.871094 C 264.300781 711.925781 262.644531 706.941406 261.113281 701.917969 C 259.582031 696.894531 258.175781 691.832031 256.894531 686.738281 C 255.609375 681.644531 254.453125 676.523438 253.425781 671.371094 C 252.394531 666.21875 251.492188 661.046875 250.71875 655.851562 C 249.941406 650.65625 249.296875 645.445312 248.777344 640.21875 C 248.261719 634.992188 247.871094 629.753906 247.613281 624.507812 C 247.351562 619.261719 247.222656 614.011719 247.222656 608.757812 C 247.21875 603.503906 247.347656 598.257812 247.605469 593.007812 C 247.863281 587.761719 248.25 582.527344 248.765625 577.296875 C 249.28125 572.070312 249.925781 566.859375 250.699219 561.664062 C 251.472656 556.46875 252.371094 551.292969 253.398438 546.144531 C 254.425781 540.992188 255.582031 535.867188 256.859375 530.773438 C 258.140625 525.679688 259.546875 520.621094 261.074219 515.59375 C 262.496094 510.984375 264.046875 506.316406 265.542969 501.816406 C 269.742188 490.148438 273.046875 478.230469 275.453125 466.0625 C 277.789062 449.820312 278.074219 433.539062 276.300781 417.226562 C 275.453125 406.535156 274.007812 395.925781 271.964844 385.398438 C 260.183594 363.5 254.300781 349.269531 254.300781 349.25 C 252.003906 344.679688 249.902344 339.683594 247.796875 334.53125 C 246.054688 330.386719 244.058594 326.367188 241.8125 322.472656 C 239.566406 318.578125 237.085938 314.835938 234.371094 311.253906 C 231.65625 307.667969 228.726562 304.265625 225.585938 301.050781 C 222.445312 297.832031 219.113281 294.824219 215.597656 292.019531 C 212.078125 289.21875 208.398438 286.648438 204.558594 284.308594 C 200.71875 281.96875 196.746094 279.878906 192.644531 278.035156 C 188.542969 276.191406 184.339844 274.609375 180.039062 273.292969 C 175.738281 271.976562 171.375 270.933594 166.941406 270.164062 C 156.09375 268.023438 145.148438 267.269531 134.109375 267.894531 C 145.261719 270.503906 156.242188 273.691406 167.054688 277.46875 C 177.375 280.59375 186.796875 285.449219 195.332031 292.035156 C 209.207031 303.8125 215.707031 322.074219 220.710938 338.269531 C 228.839844 364.621094 235.367188 391.363281 240.296875 418.496094 C 243.363281 433.746094 244.984375 449.144531 245.160156 464.699219 C 244.902344 490.667969 237.828125 516.210938 230.996094 540.839844 C 227.824219 552.253906 224.554688 564.085938 222 575.75 C 220.195312 584.1875 218.730469 592.683594 217.605469 601.242188 C 216.480469 609.796875 215.699219 618.382812 215.257812 627 C 214.820312 635.621094 214.726562 644.242188 214.980469 652.867188 C 215.230469 661.492188 215.824219 670.09375 216.765625 678.671875 C 217.703125 687.25 218.984375 695.777344 220.605469 704.253906 C 222.226562 712.726562 224.183594 721.125 226.476562 729.445312 C 228.769531 737.765625 231.390625 745.976562 234.339844 754.089844 C 237.289062 762.199219 240.558594 770.175781 244.148438 778.023438 C 252.507812 778.8125 260.839844 778.617188 269.152344 777.433594 C 277.464844 776.25 285.523438 774.113281 293.328125 771.027344 C 289.945312 767.859375 287.257812 764.1875 285.265625 760.003906 " fill-opacity="1" fill-rule="nonzero"/></g><path fill="#00dba7" d="M 389.566406 539.339844 C 389.855469 539.679688 390.144531 540.019531 390.449219 540.371094 L 389.566406 539.339844 " fill-opacity="1" fill-rule="nonzero"/><g mask="url(#be6d9e918d)"><g transform="matrix(1, 0, 0, 1, 378, 530)"><g clip-path="url(#2f1b58c1b9)"><path fill="#00dba7" d="M 5.785156 2.738281 C 7.722656 4.921875 9.671875 7.132812 11.566406 9.339844 C 9.578125 7 7.652344 4.796875 5.785156 2.738281 " fill-opacity="1" fill-rule="nonzero"/></g></g></g><g mask="url(#add316b103)"><g transform="matrix(1, 0, 0, 1, 388, 539)"><g clip-path="url(#2ca2f2bf12)"><path fill="#00dba7" d="M 2.449219 1.375 L 3.0625 1.375 L 3.0625 2.105469 L 2.449219 2.105469 Z M 2.449219 1.375 " fill-opacity="1" fill-rule="nonzero"/><g clip-path="url(#bf6c70878b)"><path fill="#00dba7" d="M 2.785156 1.777344 L 2.449219 1.371094 C 2.648438 1.613281 2.851562 1.867188 3.074219 2.105469 C 2.976562 1.996094 2.886719 1.890625 2.800781 1.777344 " fill-opacity="1" fill-rule="nonzero"/></g></g></g></g><path fill="#00dba7" d="M 404.214844 561.949219 C 400.964844 554.285156 396.582031 547.335938 391.0625 541.105469 C 390.847656 540.859375 390.640625 540.613281 390.433594 540.371094 C 390.132812 540.023438 389.84375 539.679688 389.5625 539.339844 C 387.675781 537.117188 385.710938 534.941406 383.769531 532.738281 C 382.359375 531.179688 380.984375 529.710938 379.664062 528.308594 C 379.929688 531.625 380.160156 534.929688 380.375 538.195312 C 380.445312 539.339844 380.519531 540.484375 380.613281 541.632812 C 381.058594 552.277344 382.488281 562.789062 384.890625 573.167969 C 386.78125 580.292969 389.46875 587.109375 392.949219 593.609375 C 396.429688 600.109375 400.617188 606.121094 405.503906 611.644531 C 406.726562 607.601562 407.621094 603.488281 408.1875 599.300781 C 408.753906 595.117188 408.980469 590.914062 408.867188 586.691406 C 408.757812 582.46875 408.3125 578.28125 407.527344 574.132812 C 406.746094 569.980469 405.636719 565.921875 404.203125 561.949219 " fill-opacity="1" fill-rule="nonzero"/><path fill="#00dba7" d="M 361.933594 510.605469 C 360.109375 508.714844 358.308594 506.8125 356.523438 504.902344 C 358.351562 506.882812 360.066406 508.714844 361.492188 510.179688 C 361.632812 510.324219 361.792969 510.46875 361.933594 510.605469 " fill-opacity="1" fill-rule="nonzero"/><path fill="#00dba7" d="M 377.585938 526.140625 C 377.523438 526.074219 377.453125 526.011719 377.382812 525.953125 C 377.457031 526.019531 377.523438 526.085938 377.585938 526.160156 " fill-opacity="1" fill-rule="nonzero"/><g mask="url(#3fe9eb7fe6)"><g transform="matrix(1, 0, 0, 1, 341, 487)"><g clip-path="url(#39ad9bf0c0)"><path fill="#00dba7" d="M 1.371094 2.003906 C 5.921875 7.316406 10.636719 12.609375 15.523438 17.878906 C 9.042969 10.824219 1.371094 2.003906 1.371094 2.003906 " fill-opacity="1" fill-rule="nonzero"/></g></g></g><path fill="#00dba7" d="M 404.835938 613.683594 C 399.667969 607.976562 395.246094 601.734375 391.570312 594.964844 C 387.898438 588.199219 385.078125 581.089844 383.109375 573.644531 C 380.554688 562.453125 379.054688 551.117188 378.609375 539.648438 C 378.609375 539.207031 378.546875 538.769531 378.515625 538.328125 C 378.257812 534.328125 377.972656 530.242188 377.609375 526.167969 C 377.546875 526.097656 377.476562 526.035156 377.410156 525.964844 C 371.164062 519.5 365.902344 514.621094 361.933594 510.59375 C 361.792969 510.449219 361.628906 510.296875 361.492188 510.167969 C 360.066406 508.695312 358.351562 506.863281 356.523438 504.890625 C 351.644531 499.628906 346.929688 494.339844 342.371094 489.015625 C 341.363281 495.523438 340.730469 502.070312 340.472656 508.648438 C 340.214844 515.230469 340.335938 521.804688 340.832031 528.371094 C 341.328125 534.9375 342.199219 541.457031 343.445312 547.925781 C 344.691406 554.390625 346.300781 560.765625 348.277344 567.046875 C 352.761719 581.019531 358.261719 594.582031 364.773438 607.734375 C 371.285156 620.886719 378.734375 633.484375 387.128906 645.523438 C 388.023438 646.851562 388.914062 648.183594 389.824219 649.535156 C 392.207031 645.136719 394.472656 640.695312 396.523438 636.238281 C 399.898438 628.976562 402.699219 621.5 404.925781 613.8125 C 404.890625 613.777344 404.859375 613.738281 404.828125 613.699219 " fill-opacity="1" fill-rule="nonzero"/><path fill="#6cd5ff" d="M 355.097656 194.339844 C 350.011719 208.453125 344.054688 222.191406 337.226562 235.550781 C 328.789062 251.582031 321.957031 268.269531 316.730469 285.617188 C 311.917969 301.980469 309.429688 318.691406 309.269531 335.75 L 309.011719 335.75 C 314.132812 344.355469 318.5 353.640625 323.535156 362.40625 C 323.019531 329.273438 338.726562 299.390625 353.992188 270.476562 C 358.558594 261.84375 363.257812 252.886719 367.460938 244.042969 C 392.320312 189.796875 394.117188 132.964844 372.421875 87.96875 C 363.378906 88.597656 354.347656 89.105469 345.320312 89.671875 C 362.53125 128.191406 365.734375 162.496094 355.101562 194.332031 " fill-opacity="1" fill-rule="nonzero"/><path fill="#6cd5ff" d="M 273.886719 170.242188 C 272.105469 174.742188 270.117188 179.183594 268.132812 183.464844 C 260.964844 199.316406 254.183594 214.285156 257.386719 231.835938 C 259.417969 242.988281 262.503906 253.878906 265.507812 264.421875 C 268.363281 274.535156 271.300781 284.992188 273.402344 295.921875 C 276.898438 299.304688 280.46875 302.625 283.984375 305.976562 C 283.066406 299.617188 281.988281 293.183594 280.84375 286.5 C 275.492188 254.871094 269.9375 222.167969 282.507812 192.273438 C 294.132812 163.226562 308.449219 127.371094 307.5625 92.96875 C 298.984375 93.875 290.730469 96.019531 282.796875 99.410156 C 283.820312 111.390625 283.582031 123.347656 282.078125 135.277344 C 280.574219 147.210938 277.839844 158.851562 273.875 170.207031 " fill-opacity="1" fill-rule="nonzero"/><path fill="#6cd5ff" d="M 248.09375 254.375 C 241.808594 230.882812 237.179688 205.378906 245.582031 178.367188 C 247.832031 171.140625 250.882812 163.917969 253.835938 156.898438 C 259.996094 142.351562 266.308594 127.320312 265.902344 111.40625 C 261.28125 116.363281 257.160156 121.699219 253.539062 127.421875 C 249.914062 133.144531 246.851562 139.15625 244.347656 145.449219 C 233.566406 170.457031 227.308594 198.261719 232.191406 225.050781 C 234.007812 234.050781 236.800781 242.730469 240.570312 251.101562 C 244.34375 259.46875 248.996094 267.3125 254.535156 274.632812 C 252.113281 268.1875 249.960938 261.441406 248.074219 254.386719 " fill-opacity="1" fill-rule="nonzero"/><path fill="#6cd5ff" d="M 444.410156 133.644531 C 449.324219 141.183594 453.953125 148.351562 457.996094 155.492188 C 481.355469 196.644531 448.25 234.945312 421.65625 265.726562 C 418.867188 268.96875 416.121094 272.128906 413.53125 275.210938 C 410.8125 278.441406 407.941406 281.765625 404.992188 285.195312 C 379.144531 315.242188 347.109375 352.5 352.457031 392.613281 C 360.75 396.675781 369.46875 399.316406 378.621094 400.535156 C 378.265625 392.539062 379.523438 384.804688 382.390625 377.332031 C 399.402344 350.230469 418.847656 325.007812 440.734375 301.664062 C 453.722656 286.882812 467.125 271.613281 479.84375 254.953125 C 504.976562 221.960938 489.054688 187.789062 473.640625 154.746094 C 468.910156 144.589844 464.4375 134.996094 461.074219 125.382812 C 459.640625 121.03125 458.875 116.566406 458.78125 111.984375 C 447.027344 103.203125 434.34375 96.082031 420.722656 90.628906 C 420.570312 90.5625 420.433594 90.527344 420.28125 90.476562 C 426.863281 105.695312 434.898438 120.101562 444.386719 133.703125 " fill-opacity="1" fill-rule="nonzero"/><path fill="#6cd5ff" d="M 449.027344 343.269531 C 458.363281 330.746094 468.835938 319.257812 480.445312 308.808594 C 493.910156 296.957031 505.597656 283.554688 515.507812 268.605469 C 518.027344 264.621094 520.144531 260.429688 521.851562 256.035156 C 523.558594 251.640625 524.824219 247.121094 525.65625 242.480469 C 526.484375 237.839844 526.863281 233.164062 526.785156 228.449219 C 526.707031 223.734375 526.175781 219.070312 525.191406 214.460938 C 523.722656 207.550781 521.804688 200.742188 519.949219 194.175781 C 515.402344 180.414062 512.828125 166.292969 512.234375 151.8125 C 495.5625 138.996094 478.882812 126.1875 461.738281 114.007812 L 460.765625 113.324219 C 460.9375 117.226562 461.636719 121.03125 462.859375 124.742188 C 466.195312 134.242188 470.644531 143.800781 475.363281 153.917969 C 491.015625 187.460938 507.1875 222.148438 481.351562 256.046875 C 468.625 272.75 455.179688 288.085938 442.171875 302.851562 C 420.40625 326.085938 401.039062 351.175781 384.074219 378.117188 C 381.332031 385.410156 380.140625 392.945312 380.5 400.730469 C 387.441406 401.628906 394.414062 402.160156 401.410156 402.332031 C 411.035156 402.78125 420.636719 402.484375 430.214844 401.441406 C 430.171875 396.242188 430.542969 391.074219 431.332031 385.9375 C 432.121094 380.796875 433.316406 375.757812 434.917969 370.808594 C 436.519531 365.863281 438.507812 361.078125 440.878906 356.453125 C 443.253906 351.828125 445.984375 347.425781 449.066406 343.238281 " fill-opacity="1" fill-rule="nonzero"/><path fill="#6cd5ff" d="M 549.886719 189.8125 C 546.597656 184.246094 542.796875 179.058594 538.480469 174.25 C 534.167969 169.4375 529.421875 165.09375 524.25 161.222656 C 520.917969 158.519531 517.53125 155.902344 514.195312 153.3125 C 514.964844 167.113281 517.5 180.578125 521.796875 193.710938 C 523.683594 200.300781 525.566406 207.109375 527.078125 214.109375 C 528.085938 218.835938 528.628906 223.613281 528.710938 228.445312 C 528.789062 233.277344 528.40625 238.074219 527.554688 242.832031 C 526.703125 247.589844 525.40625 252.21875 523.65625 256.726562 C 521.90625 261.230469 519.738281 265.523438 517.15625 269.609375 C 507.164062 284.699219 495.378906 298.222656 481.796875 310.183594 C 470.265625 320.539062 459.871094 331.933594 450.613281 344.363281 C 447.597656 348.457031 444.929688 352.765625 442.609375 357.285156 C 440.285156 361.808594 438.339844 366.488281 436.769531 371.320312 C 435.195312 376.15625 434.019531 381.082031 433.238281 386.105469 C 432.457031 391.128906 432.082031 396.179688 432.113281 401.265625 C 438.773438 400.386719 445.238281 398.746094 451.511719 396.332031 C 473.792969 387.539062 490.121094 368.066406 502.632812 347.640625 C 519.160156 322.28125 533.996094 295.964844 547.140625 268.699219 C 558.242188 243.789062 562.847656 213.839844 549.941406 189.828125 " fill-opacity="1" fill-rule="nonzero"/><path fill="#6cd5ff" d="M 263.691406 264.941406 C 260.691406 254.363281 257.574219 243.433594 255.519531 232.1875 C 252.234375 214.046875 259.128906 198.832031 266.421875 182.710938 C 268.351562 178.433594 270.375 174.023438 272.148438 169.558594 C 276.023438 158.449219 278.707031 147.054688 280.199219 135.382812 C 281.6875 123.710938 281.953125 112.011719 280.996094 100.28125 C 276.113281 102.789062 271.683594 105.929688 267.699219 109.703125 C 268.640625 126.664062 262.042969 142.371094 255.578125 157.636719 C 252.632812 164.59375 249.601562 171.792969 247.378906 178.929688 C 239.078125 205.523438 243.683594 230.6875 249.890625 253.917969 C 252.253906 262.84375 255.183594 271.578125 258.6875 280.117188 C 258.75 280.183594 258.78125 280.238281 258.832031 280.292969 C 262.621094 284.992188 266.683594 289.441406 271.015625 293.644531 C 268.957031 283.761719 266.292969 274.21875 263.671875 264.972656 " fill-opacity="1" fill-rule="nonzero"/><path fill="#6cd5ff" d="M 381.832031 276.179688 C 392.515625 261.933594 403.53125 247.203125 413.0625 231.527344 C 416.039062 226.453125 418.59375 221.167969 420.71875 215.679688 C 422.847656 210.191406 424.519531 204.570312 425.738281 198.8125 C 426.960938 193.054688 427.710938 187.234375 427.992188 181.355469 C 428.273438 175.476562 428.082031 169.613281 427.417969 163.765625 C 423.648438 135.421875 404.742188 109.382812 386.375 86.890625 C 382.492188 87.160156 378.519531 87.515625 374.386719 87.820312 C 396.003906 133.210938 394.136719 190.324219 369.144531 244.828125 C 364.917969 253.746094 360.203125 262.699219 355.628906 271.34375 C 340.203125 300.585938 324.257812 330.824219 325.398438 364.21875 C 325.398438 364.667969 325.445312 365.167969 325.476562 365.683594 C 326.664062 367.648438 327.90625 369.589844 329.214844 371.46875 L 329.332031 371.054688 C 338.230469 334.433594 359.402344 306.136719 381.832031 276.199219 " fill-opacity="1" fill-rule="nonzero"/><path fill="#6cd5ff" d="M 456.367188 156.417969 C 452.347656 149.316406 447.714844 142.195312 442.820312 134.664062 C 432.933594 120.546875 424.660156 105.542969 418 89.648438 C 408.398438 86.785156 398.613281 85.816406 388.636719 86.746094 C 406.917969 109.207031 425.472656 135.113281 429.261719 163.566406 C 429.933594 169.515625 430.128906 175.480469 429.839844 181.460938 C 429.550781 187.441406 428.789062 193.359375 427.546875 199.21875 C 426.300781 205.074219 424.597656 210.792969 422.433594 216.375 C 420.269531 221.960938 417.671875 227.332031 414.640625 232.496094 C 405.039062 248.246094 393.996094 263.011719 383.304688 277.304688 C 361.003906 307.105469 339.945312 335.25 331.148438 371.496094 L 330.734375 373.566406 C 334.335938 378.570312 338.546875 382.992188 343.371094 386.828125 C 345.609375 388.558594 347.964844 390.109375 350.433594 391.488281 C 345.851562 351.097656 377.785156 313.976562 403.597656 283.976562 C 406.539062 280.558594 409.398438 277.230469 412.113281 274.011719 C 414.707031 270.914062 417.460938 267.730469 420.28125 264.496094 C 446.476562 234.160156 479.121094 196.414062 456.410156 156.410156 " fill-opacity="1" fill-rule="nonzero"/><path fill="#6cd5ff" d="M 343.316406 89.796875 C 339.046875 90.070312 334.769531 90.375 330.484375 90.707031 C 338.320312 135.851562 322.492188 179.070312 307.015625 215.8125 C 296.238281 244.558594 294.667969 290.941406 302.460938 325.964844 C 303.792969 327.714844 305.085938 329.511719 306.296875 331.367188 C 306.683594 331.960938 307.027344 332.570312 307.417969 333.167969 C 307.855469 316.835938 310.351562 300.824219 314.90625 285.132812 C 320.167969 267.675781 327.042969 250.882812 335.535156 234.75 C 342.335938 221.472656 348.261719 207.808594 353.304688 193.769531 C 363.855469 162.222656 360.554688 128.160156 343.316406 89.824219 " fill-opacity="1" fill-rule="nonzero"/><path fill="#6cd5ff" d="M 315.359375 92.085938 C 313.386719 92.296875 311.414062 92.53125 309.441406 92.78125 C 310.375 127.613281 295.957031 163.765625 284.25 193.027344 C 271.882812 222.40625 277.375 254.835938 282.703125 286.207031 C 283.921875 293.421875 285.167969 300.816406 286.171875 308.09375 C 291.039062 312.699219 295.621094 317.578125 299.914062 322.730469 C 292.925781 287.839844 294.75 243.207031 305.285156 215.125 C 320.6875 178.535156 336.472656 135.78125 328.675781 91.074219 C 328.648438 90.996094 328.632812 90.917969 328.625 90.839844 C 324.226562 91.199219 319.777344 91.59375 315.359375 92.097656 " fill-opacity="1" fill-rule="nonzero"/><path fill="#000000" d="M 138.742188 309.851562 L 138.742188 184.632812 L 154.644531 184.632812 L 154.644531 294.605469 L 174.804688 294.605469 L 174.804688 309.851562 Z M 138.742188 309.851562 " fill-opacity="1" fill-rule="nonzero"/><path fill="#000000" d="M 188.242188 309.851562 L 188.242188 184.632812 L 225.789062 184.632812 L 225.789062 199.546875 L 204.148438 199.546875 L 204.148438 237.898438 L 223.492188 237.898438 L 223.492188 252.648438 L 204.148438 252.648438 L 204.148438 294.929688 L 226.277344 294.929688 L 226.277344 309.851562 Z M 188.242188 309.851562 " fill-opacity="1" fill-rule="nonzero"/><path fill="#000000" d="M 273.824219 309.851562 L 271.367188 285.753906 L 255.796875 285.753906 L 253.339844 309.851562 L 237.769531 309.851562 L 237.769531 309.519531 L 255.992188 184.472656 L 271.5625 184.472656 L 289.597656 309.519531 L 289.597656 309.851562 Z M 264.808594 226.929688 L 263.5 212.996094 L 262.1875 226.929688 L 257.429688 271.023438 L 269.726562 271.023438 Z M 264.808594 226.929688 " fill-opacity="1" fill-rule="nonzero"/><path fill="#000000" d="M 335.9375 309.851562 L 322.171875 253.796875 L 322.171875 240.355469 L 333.644531 240.355469 L 333.644531 199.050781 L 318.5625 199.050781 L 318.5625 309.84375 L 302.660156 309.84375 L 302.660156 184.632812 L 339.054688 184.632812 C 339.417969 184.578125 339.78125 184.542969 340.148438 184.527344 C 340.515625 184.511719 340.882812 184.519531 341.246094 184.546875 C 341.613281 184.578125 341.976562 184.628906 342.335938 184.699219 C 342.695312 184.769531 343.050781 184.863281 343.398438 184.976562 C 343.75 185.089844 344.089844 185.222656 344.421875 185.378906 C 344.757812 185.53125 345.078125 185.703125 345.394531 185.894531 C 345.707031 186.085938 346.007812 186.296875 346.292969 186.523438 C 346.582031 186.75 346.855469 186.996094 347.117188 187.253906 C 347.375 187.511719 347.621094 187.789062 347.847656 188.074219 C 348.074219 188.363281 348.285156 188.664062 348.476562 188.976562 C 348.667969 189.289062 348.839844 189.613281 348.992188 189.945312 C 349.148438 190.28125 349.28125 190.621094 349.394531 190.96875 C 349.507812 191.320312 349.601562 191.671875 349.671875 192.03125 C 349.742188 192.394531 349.792969 192.753906 349.824219 193.121094 C 349.851562 193.488281 349.859375 193.851562 349.84375 194.21875 C 349.828125 194.585938 349.792969 194.953125 349.738281 195.3125 L 349.738281 241.53125 C 349.738281 248.085938 346.945312 251.035156 341.378906 251.53125 L 337.609375 251.53125 L 352.207031 309.214844 L 352.207031 309.84375 Z M 335.9375 309.851562 " fill-opacity="1" fill-rule="nonzero"/><path fill="#000000" d="M 400.191406 309.851562 L 379.371094 235.933594 C 380.140625 240 380.691406 244.097656 381.015625 248.226562 L 381.015625 309.851562 L 365.4375 309.851562 L 365.4375 184.632812 L 380.199219 184.632812 L 400.851562 257.5625 C 400.851562 257.5625 399.375 248.550781 399.375 245.273438 L 399.375 184.632812 L 414.945312 184.632812 L 414.945312 309.851562 Z M 400.191406 309.851562 " fill-opacity="1" fill-rule="nonzero"/><path fill="#000000" d="M 431 184.632812 L 446.90625 184.632812 L 446.90625 309.851562 L 431 309.851562 Z M 431 184.632812 " fill-opacity="1" fill-rule="nonzero"/><path fill="#000000" d="M 497.726562 309.851562 L 476.902344 235.933594 C 477.675781 240 478.222656 244.097656 478.546875 248.226562 L 478.546875 309.851562 L 462.941406 309.851562 L 462.941406 184.632812 L 477.699219 184.632812 L 498.355469 257.5625 C 498.355469 257.5625 496.878906 248.550781 496.878906 245.273438 L 496.878906 184.632812 L 512.449219 184.632812 L 512.449219 309.851562 Z M 497.726562 309.851562 " fill-opacity="1" fill-rule="nonzero"/><path fill="#000000" d="M 564.929688 309.851562 L 538.699219 309.851562 C 531.652344 309.851562 528.371094 306.410156 528.371094 299.171875 L 528.371094 195.28125 C 528.371094 188.070312 531.652344 184.601562 538.863281 184.601562 L 564.933594 184.601562 C 565.296875 184.546875 565.660156 184.507812 566.027344 184.496094 C 566.394531 184.480469 566.761719 184.488281 567.128906 184.515625 C 567.496094 184.542969 567.855469 184.59375 568.21875 184.664062 C 568.578125 184.738281 568.933594 184.828125 569.28125 184.941406 C 569.628906 185.054688 569.972656 185.1875 570.304688 185.34375 C 570.636719 185.496094 570.960938 185.667969 571.273438 185.859375 C 571.589844 186.050781 571.890625 186.261719 572.175781 186.488281 C 572.464844 186.714844 572.738281 186.960938 573 187.21875 C 573.257812 187.480469 573.503906 187.753906 573.730469 188.042969 C 573.957031 188.328125 574.167969 188.628906 574.359375 188.941406 C 574.550781 189.257812 574.722656 189.578125 574.875 189.914062 C 575.03125 190.246094 575.164062 190.585938 575.277344 190.9375 C 575.390625 191.285156 575.484375 191.640625 575.554688 192 C 575.625 192.359375 575.675781 192.722656 575.703125 193.089844 C 575.734375 193.457031 575.738281 193.820312 575.726562 194.1875 C 575.710938 194.554688 575.675781 194.917969 575.617188 195.28125 L 575.617188 222.292969 L 559.554688 222.292969 L 559.554688 199.050781 L 544.269531 199.050781 L 544.269531 295.421875 L 559.519531 295.421875 L 559.519531 258.058594 L 550.828125 258.058594 L 550.828125 243.308594 L 575.558594 243.308594 L 575.558594 299.214844 C 575.613281 299.574219 575.648438 299.9375 575.660156 300.304688 C 575.675781 300.667969 575.664062 301.03125 575.636719 301.394531 C 575.605469 301.757812 575.554688 302.117188 575.484375 302.476562 C 575.410156 302.832031 575.316406 303.1875 575.203125 303.53125 C 575.089844 303.878906 574.957031 304.21875 574.804688 304.546875 C 574.652344 304.878906 574.476562 305.199219 574.289062 305.511719 C 574.097656 305.820312 573.886719 306.121094 573.664062 306.40625 C 573.4375 306.691406 573.195312 306.964844 572.9375 307.222656 C 572.679688 307.480469 572.40625 307.722656 572.121094 307.949219 C 571.835938 308.175781 571.535156 308.382812 571.226562 308.574219 C 570.914062 308.765625 570.59375 308.9375 570.261719 309.09375 C 569.929688 309.246094 569.59375 309.378906 569.246094 309.492188 C 568.898438 309.605469 568.546875 309.699219 568.191406 309.773438 C 567.832031 309.84375 567.472656 309.894531 567.109375 309.925781 C 566.746094 309.957031 566.378906 309.964844 566.015625 309.953125 C 565.652344 309.941406 565.289062 309.90625 564.929688 309.851562 Z M 564.929688 309.851562 " fill-opacity="1" fill-rule="nonzero"/><path fill="#000000" d="M 174.644531 419.34375 L 154.644531 419.34375 L 154.644531 465.890625 L 138.742188 465.890625 L 138.742188 340.675781 L 174.644531 340.675781 C 175.007812 340.617188 175.375 340.582031 175.738281 340.566406 C 176.105469 340.550781 176.472656 340.558594 176.839844 340.589844 C 177.207031 340.617188 177.570312 340.667969 177.929688 340.738281 C 178.289062 340.808594 178.644531 340.902344 178.992188 341.015625 C 179.34375 341.128906 179.683594 341.261719 180.015625 341.414062 C 180.351562 341.570312 180.671875 341.742188 180.988281 341.933594 C 181.300781 342.125 181.601562 342.335938 181.890625 342.5625 C 182.175781 342.789062 182.453125 343.03125 182.710938 343.292969 C 182.972656 343.550781 183.214844 343.824219 183.441406 344.113281 C 183.667969 344.402344 183.878906 344.703125 184.070312 345.015625 C 184.261719 345.328125 184.433594 345.652344 184.585938 345.984375 C 184.742188 346.320312 184.875 346.660156 184.988281 347.007812 C 185.101562 347.359375 185.195312 347.710938 185.265625 348.074219 C 185.335938 348.433594 185.386719 348.796875 185.414062 349.160156 C 185.445312 349.527344 185.449219 349.894531 185.4375 350.261719 C 185.421875 350.628906 185.386719 350.992188 185.328125 351.355469 L 185.328125 408.714844 C 185.382812 409.078125 185.417969 409.441406 185.429688 409.804688 C 185.445312 410.171875 185.433594 410.535156 185.40625 410.902344 C 185.375 411.265625 185.324219 411.625 185.25 411.984375 C 185.175781 412.34375 185.082031 412.695312 184.96875 413.042969 C 184.855469 413.390625 184.722656 413.730469 184.566406 414.0625 C 184.414062 414.394531 184.238281 414.714844 184.046875 415.027344 C 183.855469 415.339844 183.644531 415.636719 183.417969 415.925781 C 183.191406 416.210938 182.945312 416.484375 182.6875 416.742188 C 182.429688 417 182.15625 417.242188 181.867188 417.46875 C 181.578125 417.695312 181.277344 417.902344 180.964844 418.09375 C 180.65625 418.28125 180.332031 418.453125 180 418.605469 C 179.667969 418.757812 179.328125 418.890625 178.980469 419.003906 C 178.628906 419.117188 178.277344 419.210938 177.917969 419.28125 C 177.558594 419.351562 177.199219 419.402344 176.832031 419.429688 C 176.46875 419.457031 176.101562 419.464844 175.738281 419.449219 C 175.371094 419.4375 175.007812 419.402344 174.644531 419.34375 Z M 169.234375 355.097656 L 154.644531 355.097656 L 154.644531 404.921875 L 169.234375 404.921875 Z M 169.234375 355.097656 " fill-opacity="1" fill-rule="nonzero"/><path fill="#000000" d="M 200.207031 465.890625 L 200.207031 340.675781 L 216.109375 340.675781 L 216.109375 450.644531 L 236.269531 450.644531 L 236.269531 465.890625 Z M 200.207031 465.890625 " fill-opacity="1" fill-rule="nonzero"/><path fill="#000000" d="M 283.632812 465.890625 L 281.175781 441.792969 L 265.605469 441.792969 L 263.144531 465.890625 L 247.574219 465.890625 L 247.574219 465.558594 L 265.792969 340.511719 L 281.351562 340.511719 L 299.386719 465.558594 L 299.386719 465.890625 Z M 274.617188 382.972656 L 273.304688 369.039062 L 271.988281 382.972656 L 267.238281 427.0625 L 279.535156 427.0625 Z M 274.617188 382.972656 " fill-opacity="1" fill-rule="nonzero"/><path fill="#000000" d="M 347.234375 465.890625 L 326.410156 391.972656 C 327.183594 396.042969 327.734375 400.140625 328.058594 404.265625 L 328.058594 465.890625 L 312.480469 465.890625 L 312.480469 340.675781 L 327.242188 340.675781 L 347.894531 413.601562 C 347.894531 413.601562 346.417969 404.59375 346.417969 401.316406 L 346.417969 340.675781 L 361.988281 340.675781 L 361.988281 465.890625 Z M 347.234375 465.890625 " fill-opacity="1" fill-rule="nonzero"/><path fill="#000000" d="M 377.875 465.890625 L 377.875 340.675781 L 415.417969 340.675781 L 415.417969 355.589844 L 393.777344 355.589844 L 393.777344 393.941406 L 413.125 393.941406 L 413.125 408.6875 L 393.777344 408.6875 L 393.777344 450.972656 L 415.910156 450.972656 L 415.910156 465.890625 Z M 377.875 465.890625 " fill-opacity="1" fill-rule="nonzero"/><path fill="#000000" d="M 456.890625 355.589844 L 456.890625 465.890625 L 440.960938 465.890625 L 440.960938 355.589844 L 426.507812 355.589844 L 426.507812 340.675781 L 471.265625 340.675781 L 471.265625 355.589844 Z M 456.890625 355.589844 " fill-opacity="1" fill-rule="nonzero"/><path fill="#000000" d="M 138.90625 621.933594 L 138.90625 496.71875 L 154.808594 496.71875 L 154.808594 621.933594 Z M 138.90625 621.933594 " fill-opacity="1" fill-rule="nonzero"/><path fill="#000000" d="M 205.628906 621.933594 L 184.804688 548.015625 C 185.578125 552.082031 186.128906 556.179688 186.453125 560.308594 L 186.453125 621.933594 L 170.875 621.933594 L 170.875 496.71875 L 185.636719 496.71875 L 206.289062 569.644531 C 206.289062 569.644531 204.8125 560.636719 204.8125 557.355469 L 204.8125 496.71875 L 220.382812 496.71875 L 220.382812 621.933594 Z M 205.628906 621.933594 " fill-opacity="1" fill-rule="nonzero"/><path fill="#000000" d="M 272.007812 621.933594 L 246.605469 621.933594 C 239.390625 621.933594 236.113281 618.492188 236.113281 611.253906 L 236.113281 580.441406 L 252.007812 580.441406 L 252.007812 607.648438 L 266.597656 607.648438 L 266.597656 581.753906 L 239.222656 544.554688 C 238.03125 543.238281 237.164062 541.742188 236.617188 540.054688 C 236.066406 538.371094 235.890625 536.648438 236.078125 534.886719 L 236.078125 507.363281 C 236.078125 500.152344 239.359375 496.683594 246.574219 496.683594 L 271.976562 496.683594 C 272.339844 496.628906 272.703125 496.589844 273.070312 496.578125 C 273.4375 496.5625 273.804688 496.570312 274.171875 496.597656 C 274.539062 496.625 274.898438 496.675781 275.261719 496.746094 C 275.621094 496.820312 275.976562 496.910156 276.324219 497.023438 C 276.671875 497.136719 277.015625 497.273438 277.347656 497.425781 C 277.683594 497.578125 278.003906 497.75 278.316406 497.941406 C 278.632812 498.132812 278.933594 498.34375 279.21875 498.570312 C 279.507812 498.796875 279.78125 499.042969 280.042969 499.300781 C 280.300781 499.5625 280.546875 499.835938 280.773438 500.125 C 281 500.410156 281.210938 500.710938 281.402344 501.023438 C 281.59375 501.339844 281.765625 501.660156 281.917969 501.996094 C 282.074219 502.328125 282.207031 502.667969 282.320312 503.019531 C 282.433594 503.367188 282.527344 503.722656 282.597656 504.082031 C 282.667969 504.441406 282.71875 504.804688 282.746094 505.171875 C 282.777344 505.539062 282.78125 505.902344 282.769531 506.269531 C 282.753906 506.636719 282.71875 507.003906 282.660156 507.363281 L 282.660156 536.367188 L 266.59375 536.367188 L 266.59375 510.96875 L 252.003906 510.96875 L 252.003906 535.226562 L 279.378906 572.425781 C 280.578125 573.738281 281.460938 575.234375 282.03125 576.914062 C 282.605469 578.597656 282.8125 580.324219 282.660156 582.09375 L 282.660156 611.265625 C 282.714844 611.628906 282.75 611.992188 282.765625 612.355469 C 282.78125 612.722656 282.773438 613.089844 282.742188 613.453125 C 282.714844 613.816406 282.664062 614.179688 282.59375 614.539062 C 282.519531 614.898438 282.429688 615.25 282.316406 615.597656 C 282.203125 615.945312 282.070312 616.285156 281.914062 616.621094 C 281.761719 616.953125 281.589844 617.273438 281.398438 617.585938 C 281.207031 617.898438 281 618.199219 280.773438 618.484375 C 280.546875 618.773438 280.304688 619.046875 280.046875 619.304688 C 279.785156 619.5625 279.515625 619.808594 279.226562 620.035156 C 278.941406 620.261719 278.640625 620.46875 278.328125 620.660156 C 278.015625 620.851562 277.695312 621.027344 277.363281 621.179688 C 277.03125 621.332031 276.691406 621.46875 276.34375 621.582031 C 275.992188 621.695312 275.640625 621.789062 275.28125 621.859375 C 274.921875 621.933594 274.5625 621.984375 274.195312 622.011719 C 273.832031 622.042969 273.464844 622.050781 273.101562 622.035156 C 272.734375 622.023438 272.371094 621.988281 272.007812 621.933594 Z M 272.007812 621.933594 " fill-opacity="1" fill-rule="nonzero"/><path fill="#000000" d="M 324.789062 511.628906 L 324.789062 621.933594 L 308.894531 621.933594 L 308.894531 511.628906 L 294.441406 511.628906 L 294.441406 496.71875 L 339.199219 496.71875 L 339.199219 511.628906 Z M 324.789062 511.628906 " fill-opacity="1" fill-rule="nonzero"/><path fill="#000000" d="M 351.527344 621.933594 L 351.527344 496.71875 L 367.429688 496.71875 L 367.429688 621.933594 Z M 351.527344 621.933594 " fill-opacity="1" fill-rule="nonzero"/><path fill="#000000" d="M 410.191406 511.628906 L 410.191406 621.933594 L 394.292969 621.933594 L 394.292969 511.628906 L 379.839844 511.628906 L 379.839844 496.71875 L 424.605469 496.71875 L 424.605469 511.628906 Z M 410.191406 511.628906 " fill-opacity="1" fill-rule="nonzero"/><path fill="#000000" d="M 474.09375 621.933594 L 447.207031 621.933594 C 440 621.933594 436.71875 618.492188 436.71875 611.253906 L 436.71875 496.71875 L 452.617188 496.71875 L 452.617188 607.503906 L 468.683594 607.503906 L 468.683594 496.71875 L 484.777344 496.71875 L 484.777344 611.277344 C 484.832031 611.640625 484.867188 612.003906 484.882812 612.371094 C 484.894531 612.738281 484.886719 613.101562 484.859375 613.46875 C 484.828125 613.832031 484.777344 614.195312 484.707031 614.554688 C 484.632812 614.914062 484.539062 615.269531 484.425781 615.617188 C 484.3125 615.964844 484.179688 616.304688 484.023438 616.636719 C 483.871094 616.972656 483.699219 617.292969 483.507812 617.605469 C 483.3125 617.917969 483.105469 618.21875 482.878906 618.503906 C 482.648438 618.792969 482.40625 619.066406 482.148438 619.324219 C 481.886719 619.582031 481.613281 619.824219 481.324219 620.050781 C 481.039062 620.277344 480.738281 620.488281 480.425781 620.679688 C 480.113281 620.871094 479.789062 621.042969 479.457031 621.195312 C 479.125 621.347656 478.78125 621.480469 478.433594 621.59375 C 478.085938 621.707031 477.730469 621.800781 477.371094 621.871094 C 477.011719 621.941406 476.648438 621.992188 476.285156 622.019531 C 475.917969 622.046875 475.550781 622.054688 475.1875 622.042969 C 474.820312 622.027344 474.457031 621.992188 474.09375 621.933594 Z M 474.09375 621.933594 " fill-opacity="1" fill-rule="nonzero"/><path fill="#000000" d="M 527.390625 511.628906 L 527.390625 621.933594 L 511.492188 621.933594 L 511.492188 511.628906 L 497.042969 511.628906 L 497.042969 496.71875 L 541.796875 496.71875 L 541.796875 511.628906 Z M 527.390625 511.628906 " fill-opacity="1" fill-rule="nonzero"/><path fill="#000000" d="M 553.9375 621.933594 L 553.9375 496.71875 L 591.484375 496.71875 L 591.484375 511.628906 L 569.84375 511.628906 L 569.84375 549.980469 L 589.207031 549.980469 L 589.207031 564.730469 L 569.859375 564.730469 L 569.859375 607.011719 L 591.992188 607.011719 L 591.992188 621.933594 Z M 553.9375 621.933594 " fill-opacity="1" fill-rule="nonzero"/></svg>