<svg xmlns="http://www.w3.org/2000/svg" xmlns:xlink="http://www.w3.org/1999/xlink" width="1080" zoomAndPan="magnify" viewBox="0 0 810 809.999993" height="1080" preserveAspectRatio="xMidYMid meet" version="1.0"><defs><clipPath id="bc5c9bcefa"><path d="M 3 342 L 86 342 L 86 467.824219 L 3 467.824219 Z M 3 342 " clip-rule="nonzero"/></clipPath><clipPath id="811d0c7138"><path d="M 94 385 L 170 385 L 170 467.824219 L 94 467.824219 Z M 94 385 " clip-rule="nonzero"/></clipPath><clipPath id="b583ac5b8c"><path d="M 213 385 L 289 385 L 289 467.824219 L 213 467.824219 Z M 213 385 " clip-rule="nonzero"/></clipPath><clipPath id="5299043387"><path d="M 387 385 L 464 385 L 464 467.824219 L 387 467.824219 Z M 387 385 " clip-rule="nonzero"/></clipPath><clipPath id="6796517069"><path d="M 469 385 L 544 385 L 544 467.824219 L 469 467.824219 Z M 469 385 " clip-rule="nonzero"/></clipPath><clipPath id="7c594ab7cb"><path d="M 553 385 L 615 385 L 615 467.824219 L 553 467.824219 Z M 553 385 " clip-rule="nonzero"/></clipPath><clipPath id="607b4b8004"><path d="M 719 385 L 807 385 L 807 467.824219 L 719 467.824219 Z M 719 385 " clip-rule="nonzero"/></clipPath></defs><rect x="-81" width="972" fill="#ffffff" y="-80.999999" height="971.999992" fill-opacity="1"/><rect x="-81" width="972" fill="#ffffff" y="-80.999999" height="971.999992" fill-opacity="1"/><g clip-path="url(#bc5c9bcefa)"><path fill="#ef2e31" d="M 15.792969 434.398438 C 15.792969 434.398438 28.992188 447.222656 46.132812 447.222656 C 55.386719 447.222656 63.78125 442.433594 63.78125 432.519531 C 63.78125 410.808594 6.363281 414.566406 6.363281 377.304688 C 6.363281 357.128906 23.847656 342.085938 47.15625 342.085938 C 71.15625 342.085938 83.5 355.082031 83.5 355.082031 L 73.894531 373.027344 C 73.894531 373.027344 62.242188 362.425781 46.980469 362.425781 C 36.699219 362.425781 28.648438 368.414062 28.648438 376.960938 C 28.648438 398.5 85.894531 393.199219 85.894531 432 C 85.894531 451.324219 71.15625 467.566406 45.789062 467.566406 C 18.703125 467.566406 3.789062 450.984375 3.789062 450.984375 Z M 15.792969 434.398438 " fill-opacity="1" fill-rule="nonzero"/></g><g clip-path="url(#811d0c7138)"><path fill="#ef2e31" d="M 137.070312 385.070312 C 157.621094 385.070312 167.359375 396.785156 167.359375 396.785156 L 158.703125 410.183594 C 158.703125 410.183594 150.511719 401.714844 138.152344 401.714844 C 123.621094 401.714844 114.203125 412.652344 114.203125 426.058594 C 114.203125 439.320312 123.78125 450.71875 138.765625 450.71875 C 152.058594 450.71875 161.949219 440.703125 161.949219 440.703125 L 169.519531 454.570312 C 169.519531 454.570312 158.234375 467.363281 137.070312 467.363281 C 110.957031 467.363281 94.269531 449.027344 94.269531 426.214844 C 94.269531 403.875 110.957031 385.070312 137.070312 385.070312 " fill-opacity="1" fill-rule="nonzero"/></g><path fill="#ef2e31" d="M 181.125 386.921875 L 200.75 386.921875 L 200.75 465.507812 L 181.125 465.507812 Z M 181.125 356.101562 L 200.589844 356.101562 L 200.589844 373.515625 L 181.125 373.515625 Z M 181.125 356.101562 " fill-opacity="1" fill-rule="nonzero"/><g clip-path="url(#b583ac5b8c)"><path fill="#ef2e31" d="M 268.894531 416.507812 C 268.585938 405.871094 261.945312 400.171875 253.289062 400.171875 C 243.25 400.171875 236.296875 406.339844 234.441406 416.507812 Z M 253.757812 385.070312 C 276.46875 385.070312 288.671875 401.5625 288.671875 422.363281 C 288.671875 424.675781 288.214844 429.921875 288.214844 429.921875 L 233.816406 429.921875 C 235.054688 443.628906 245.71875 450.71875 257.464844 450.71875 C 270.136719 450.71875 280.179688 442.089844 280.179688 442.089844 L 287.75 456.109375 C 287.75 456.109375 275.691406 467.363281 256.074219 467.363281 C 229.960938 467.363281 213.734375 448.566406 213.734375 426.214844 C 213.734375 402.023438 230.269531 385.070312 253.757812 385.070312 " fill-opacity="1" fill-rule="nonzero"/></g><path fill="#ef2e31" d="M 301.820312 386.921875 L 320.675781 386.921875 L 320.675781 396.011719 C 320.675781 398.945312 320.367188 401.410156 320.367188 401.410156 L 320.675781 401.410156 C 324.074219 394.78125 332.726562 385.070312 348.640625 385.070312 C 366.101562 385.070312 375.988281 394.164062 375.988281 414.96875 L 375.988281 465.511719 L 356.523438 465.511719 L 356.523438 418.976562 C 356.523438 409.425781 354.046875 402.949219 344.007812 402.949219 C 333.496094 402.949219 325.777344 409.570312 322.839844 418.976562 C 321.757812 422.207031 321.449219 425.757812 321.449219 429.453125 L 321.449219 465.511719 L 301.820312 465.511719 Z M 301.820312 386.921875 " fill-opacity="1" fill-rule="nonzero"/><g clip-path="url(#5299043387)"><path fill="#ef2e31" d="M 430.550781 385.070312 C 451.101562 385.070312 460.839844 396.785156 460.839844 396.785156 L 452.191406 410.183594 C 452.191406 410.183594 443.996094 401.714844 431.632812 401.714844 C 417.109375 401.714844 407.6875 412.652344 407.6875 426.058594 C 407.6875 439.320312 417.261719 450.71875 432.25 450.71875 C 445.546875 450.71875 455.429688 440.703125 455.429688 440.703125 L 463.007812 454.570312 C 463.007812 454.570312 451.722656 467.363281 430.550781 467.363281 C 404.441406 467.363281 387.75 449.027344 387.75 426.214844 C 387.75 403.875 404.441406 385.070312 430.550781 385.070312 " fill-opacity="1" fill-rule="nonzero"/></g><g clip-path="url(#6796517069)"><path fill="#ef2e31" d="M 524.210938 416.507812 C 523.898438 405.871094 517.253906 400.171875 508.601562 400.171875 C 498.554688 400.171875 491.609375 406.339844 489.757812 416.507812 Z M 509.066406 385.070312 C 531.78125 385.070312 543.988281 401.5625 543.988281 422.363281 C 543.988281 424.675781 543.527344 429.921875 543.527344 429.921875 L 489.128906 429.921875 C 490.371094 443.628906 501.027344 450.71875 512.773438 450.71875 C 525.445312 450.71875 535.492188 442.089844 535.492188 442.089844 L 543.058594 456.109375 C 543.058594 456.109375 531.007812 467.363281 511.382812 467.363281 C 485.273438 467.363281 469.046875 448.566406 469.046875 426.214844 C 469.046875 402.023438 485.585938 385.070312 509.066406 385.070312 " fill-opacity="1" fill-rule="nonzero"/></g><g clip-path="url(#7c594ab7cb)"><path fill="#ef2e31" d="M 562.542969 442.085938 C 562.542969 442.085938 571.195312 450.722656 584.023438 450.722656 C 589.585938 450.722656 594.378906 448.253906 594.378906 443.628906 C 594.378906 431.917969 556.058594 433.453125 556.058594 408.1875 C 556.058594 393.550781 569.1875 385.066406 586.1875 385.066406 C 603.960938 385.066406 612.609375 394.011719 612.609375 394.011719 L 605.34375 408.496094 C 605.34375 408.496094 598.085938 401.710938 586.035156 401.710938 C 580.929688 401.710938 575.988281 403.871094 575.988281 408.800781 C 575.988281 419.894531 614.3125 418.507812 614.3125 443.78125 C 614.3125 456.882812 602.878906 467.367188 584.183594 467.367188 C 564.550781 467.367188 553.582031 455.804688 553.582031 455.804688 Z M 562.542969 442.085938 " fill-opacity="1" fill-rule="nonzero"/></g><path fill="#ef2e31" d="M 674.457031 404.480469 C 687.320312 404.480469 694.859375 396.28125 694.859375 383.625 C 694.859375 371.148438 687.320312 363.113281 674.792969 363.113281 L 653.71875 363.113281 L 653.71875 404.480469 Z M 631.605469 344.136719 L 678.566406 344.136719 C 701.375 344.136719 717.304688 360.035156 717.304688 383.625 C 717.304688 407.222656 701.375 423.636719 678.566406 423.636719 L 653.71875 423.636719 L 653.71875 465.511719 L 631.605469 465.511719 Z M 631.605469 344.136719 " fill-opacity="1" fill-rule="nonzero"/><g clip-path="url(#607b4b8004)"><path fill="#ef2e31" d="M 762.949219 450.71875 C 775.625 450.71875 786.277344 440.859375 786.277344 426.222656 C 786.277344 411.738281 775.625 401.714844 762.949219 401.714844 C 750.121094 401.714844 739.460938 411.738281 739.460938 426.222656 C 739.460938 440.859375 750.121094 450.71875 762.949219 450.71875 M 762.789062 385.070312 C 786.898438 385.070312 806.210938 402.175781 806.210938 426.222656 C 806.210938 450.410156 786.898438 467.363281 762.949219 467.363281 C 738.847656 467.363281 719.535156 450.410156 719.535156 426.222656 C 719.535156 402.175781 738.847656 385.070312 762.789062 385.070312 " fill-opacity="1" fill-rule="nonzero"/></g></svg>