<svg xmlns="http://www.w3.org/2000/svg" xmlns:xlink="http://www.w3.org/1999/xlink" width="1080" zoomAndPan="magnify" viewBox="0 0 810 809.999993" height="1080" preserveAspectRatio="xMidYMid meet" version="1.0"><defs><clipPath id="ee3570436a"><path d="M 1 251.46875 L 809 251.46875 L 809 558.21875 L 1 558.21875 Z M 1 251.46875 " clip-rule="nonzero"/></clipPath></defs><rect x="-81" width="972" fill="#ffffff" y="-80.999999" height="971.999992" fill-opacity="1"/><rect x="-81" width="972" fill="#ffffff" y="-80.999999" height="971.999992" fill-opacity="1"/><path fill="#ffffff" d="M 3.585938 253.28125 L 3.585938 404.851562 L 102.976562 404.851562 L 102.976562 556.414062 L 807.367188 556.414062 L 807.367188 404.851562 L 687.308594 404.851562 L 687.308594 253.28125 Z M 3.585938 253.28125 " fill-opacity="1" fill-rule="nonzero"/><path fill="#000000" d="M 102.394531 299.707031 L 102.394531 332.074219 C 102.394531 345.355469 96.90625 354.84375 80.65625 354.84375 C 64.300781 354.84375 58.921875 345.355469 58.921875 332.074219 L 58.921875 299.707031 L 71.582031 299.707031 L 71.582031 332.074219 C 71.582031 340.925781 74.535156 344.195312 80.65625 344.195312 C 86.671875 344.195312 89.730469 340.820312 89.730469 332.074219 L 89.730469 299.707031 Z M 102.394531 299.707031 " fill-opacity="1" fill-rule="nonzero"/><path fill="#000000" d="M 136.804688 308.777344 C 149.042969 308.777344 152.839844 318.160156 152.839844 328.597656 L 152.839844 353.6875 L 140.179688 353.6875 L 140.179688 328.597656 C 140.179688 322.058594 138.070312 319.742188 133.636719 319.742188 C 129.203125 319.742188 125.824219 322.378906 125.824219 328.386719 L 125.824219 353.6875 L 113.160156 353.6875 L 113.160156 309.9375 L 122.554688 309.9375 L 123.925781 314.679688 C 126.78125 311.097656 131 308.777344 136.804688 308.777344 Z M 136.804688 308.777344 " fill-opacity="1" fill-rule="nonzero"/><path fill="#000000" d="M 170.15625 286.109375 L 179.550781 295.492188 L 170.15625 304.875 L 160.765625 295.492188 Z M 176.492188 309.9375 L 176.492188 353.683594 L 163.828125 353.683594 L 163.828125 309.9375 Z M 176.492188 309.9375 " fill-opacity="1" fill-rule="nonzero"/><path fill="#000000" d="M 228.9375 309.9375 L 214.480469 353.683594 L 197.703125 353.683594 L 183.246094 309.9375 L 196.332031 309.9375 L 206.144531 341.351562 L 215.851562 309.9375 Z M 228.9375 309.9375 " fill-opacity="1" fill-rule="nonzero"/><path fill="#000000" d="M 252.902344 308.777344 C 264.929688 308.777344 272.738281 315.628906 272.738281 328.914062 C 272.738281 331.96875 272.636719 333.65625 272.425781 336.289062 L 245.617188 336.289062 C 245.617188 342.195312 248.46875 345.148438 254.691406 345.148438 C 258.488281 345.148438 263.554688 343.671875 265.984375 342.617188 L 270.101562 351.472656 C 265.773438 353.582031 261.027344 354.84375 253.746094 354.84375 C 240.449219 354.84375 233.058594 347.992188 233.058594 335.238281 L 233.058594 328.386719 C 233.058594 315.628906 240.449219 308.777344 252.902344 308.777344 Z M 252.902344 317.945312 C 248.046875 317.945312 245.617188 321.003906 245.617188 327.011719 L 245.617188 327.433594 L 260.285156 327.433594 L 260.285156 327.011719 C 260.285156 321.003906 257.96875 317.945312 252.902344 317.945312 Z M 252.902344 317.945312 " fill-opacity="1" fill-rule="nonzero"/><path fill="#000000" d="M 306.300781 309.09375 C 307.890625 309.09375 309.574219 309.304688 311.367188 309.726562 L 309.257812 321.953125 C 308.09375 321.742188 306.832031 321.53125 305.039062 321.53125 C 300.074219 321.53125 294.585938 324.273438 294.585938 333.761719 L 294.585938 353.683594 L 281.921875 353.683594 L 281.921875 309.9375 L 291.320312 309.9375 L 293.425781 317 C 296.175781 311.832031 300.605469 309.09375 306.300781 309.09375 Z M 306.300781 309.09375 " fill-opacity="1" fill-rule="nonzero"/><path fill="#000000" d="M 331.210938 308.777344 C 336.804688 308.777344 342.714844 310.148438 347.144531 312.46875 L 342.605469 321.953125 C 339.96875 320.6875 335.746094 319 331.84375 319 C 328.464844 319 327.203125 320.160156 327.203125 321.847656 C 327.203125 323.535156 328.148438 323.957031 333.953125 326.804688 C 343.238281 331.335938 347.25 334.078125 347.25 341.878906 C 347.25 351.261719 338.496094 354.84375 330.363281 354.84375 C 323.191406 354.84375 318.652344 353.578125 314.007812 351.894531 L 317.703125 341.980469 C 321.816406 343.5625 325.933594 344.617188 329.941406 344.617188 C 333.003906 344.617188 335.007812 343.457031 335.007812 341.558594 C 335.007812 339.347656 333.214844 338.714844 328.25 336.394531 C 321.5 333.230469 314.640625 330.28125 314.640625 322.160156 C 314.644531 313.097656 322.875 308.777344 331.210938 308.777344 Z M 331.210938 308.777344 " fill-opacity="1" fill-rule="nonzero"/><path fill="#000000" d="M 362.5625 286.109375 L 371.953125 295.492188 L 362.5625 304.875 L 353.164062 295.492188 Z M 368.890625 309.9375 L 368.890625 353.683594 L 356.226562 353.683594 L 356.226562 309.9375 Z M 368.890625 309.9375 " fill-opacity="1" fill-rule="nonzero"/><path fill="#000000" d="M 396.644531 299.707031 L 396.644531 309.933594 L 404.453125 309.933594 L 404.453125 320.160156 L 396.644531 320.160156 L 396.644531 337.34375 C 396.644531 342.191406 398.753906 343.246094 401.921875 343.246094 C 402.660156 343.246094 403.296875 343.246094 404.242188 343.140625 L 405.296875 354.210938 C 403.714844 354.421875 402.238281 354.527344 400.867188 354.527344 C 388.9375 354.527344 383.984375 347.042969 383.984375 337.660156 L 383.984375 320.160156 L 376.171875 320.160156 L 376.171875 309.9375 L 378.285156 309.9375 C 382.613281 309.9375 386.09375 309.09375 387.042969 299.710938 L 396.644531 299.710938 Z M 396.644531 299.707031 " fill-opacity="1" fill-rule="nonzero"/><path fill="#000000" d="M 430.417969 308.777344 C 442.453125 308.777344 450.257812 315.628906 450.257812 328.914062 C 450.257812 331.96875 450.15625 333.65625 449.945312 336.289062 L 423.144531 336.289062 C 423.144531 342.195312 425.988281 345.148438 432.21875 345.148438 C 436.015625 345.148438 441.078125 343.671875 443.507812 342.617188 L 447.621094 351.472656 C 443.296875 353.582031 438.546875 354.84375 431.265625 354.84375 C 417.96875 354.84375 410.582031 347.992188 410.582031 335.238281 L 410.582031 328.386719 C 410.582031 315.628906 417.964844 308.777344 430.417969 308.777344 Z M 436.226562 285.6875 L 442.027344 294.753906 L 425.460938 304.664062 L 420.394531 296.863281 Z M 430.417969 317.945312 C 425.566406 317.945312 423.140625 321.003906 423.140625 327.011719 L 423.140625 327.433594 L 437.808594 327.433594 L 437.808594 327.011719 C 437.808594 321.003906 435.484375 317.945312 430.417969 317.945312 Z M 430.417969 317.945312 " fill-opacity="1" fill-rule="nonzero"/><path fill="#000000" d="M 275.191406 442.589844 L 275.191406 505.210938 L 269.808594 505.210938 L 268.4375 500.570312 C 265.800781 504.15625 261.679688 506.367188 256.402344 506.367188 C 245.113281 506.367188 240.789062 498.359375 240.789062 489.503906 L 240.789062 477.378906 C 240.789062 467.679688 245.957031 460.511719 257.035156 460.511719 C 259.886719 460.511719 262.417969 461.144531 264.632812 461.992188 L 263.582031 467.265625 C 261.679688 466.84375 259.992188 466.523438 257.984375 466.523438 C 251.660156 466.523438 247.75 469.894531 247.75 477.378906 L 247.75 489.507812 C 247.75 496.992188 251.65625 500.261719 257.460938 500.261719 C 264.320312 500.261719 268.226562 495.511719 268.226562 488.027344 L 268.226562 442.589844 Z M 305.480469 460.511719 C 317.511719 460.511719 322.683594 468.101562 322.683594 477.800781 C 322.683594 481.808594 322.574219 484.230469 322.371094 486.445312 L 295.25 486.445312 L 295.25 489.503906 C 295.25 496.988281 298.621094 500.257812 306.539062 500.257812 C 309.808594 500.257812 313.820312 498.992188 317.9375 497.304688 L 320.570312 503.105469 C 316.773438 504.789062 312.449219 506.367188 306.539062 506.367188 C 292.929688 506.367188 288.285156 499.203125 288.285156 489.503906 L 288.285156 477.800781 C 288.285156 468.101562 293.453125 460.511719 305.480469 460.511719 Z M 305.480469 466.421875 C 299.152344 466.421875 295.246094 470.105469 295.246094 477.800781 L 295.246094 480.4375 L 315.722656 480.4375 L 315.722656 477.800781 C 315.722656 470.105469 311.816406 466.421875 305.480469 466.421875 Z M 367.335938 450.5 C 373.984375 450.5 377.992188 453.136719 383.160156 457.246094 C 387.277344 460.511719 390.128906 461.671875 394.027344 461.671875 C 397.199219 461.671875 400.363281 460.515625 401.3125 451.660156 L 406.480469 451.660156 L 406.480469 461.671875 L 415.347656 461.671875 L 415.347656 467.578125 L 406.480469 467.578125 L 406.480469 491.824219 C 406.480469 497.9375 408.695312 499.730469 412.5 499.730469 C 413.234375 499.730469 414.394531 499.625 415.242188 499.519531 L 415.875 505.734375 C 414.925781 505.84375 413.339844 505.945312 412.179688 505.945312 C 402.578125 505.945312 399.515625 499.9375 399.515625 491.824219 L 399.515625 467.574219 L 395.507812 467.574219 C 389.492188 467.574219 386.007812 466.519531 380.308594 462.09375 C 375.664062 458.511719 372.398438 456.71875 368.066406 456.71875 C 362.789062 456.71875 359.414062 459.667969 359.414062 464.515625 C 359.414062 470.210938 364.375 472.214844 369.125 474.742188 C 379.359375 480.121094 385.375 483.386719 385.484375 492.242188 C 385.585938 502.152344 377.667969 506.367188 367.121094 506.367188 C 362.265625 506.367188 357.511719 505.421875 351.921875 503.417969 L 354.140625 497.410156 C 358.890625 499.097656 362.789062 500.046875 367.644531 500.046875 C 373.976562 500.046875 378.621094 498.042969 378.515625 492.351562 C 378.410156 486.867188 373.238281 484.652344 367.222656 481.28125 C 359.203125 476.746094 352.449219 473.585938 352.449219 465.050781 C 352.449219 455.558594 359.417969 450.5 367.335938 450.5 Z M 445.324219 460.511719 C 448.488281 460.511719 451.128906 461.355469 452.820312 462.203125 L 449.96875 468.3125 C 448.070312 467.46875 446.171875 467.050781 444.269531 467.050781 C 438.46875 467.050781 433.511719 471.269531 433.511719 479.804688 L 433.511719 505.210938 L 426.542969 505.210938 L 426.542969 461.671875 L 431.925781 461.671875 L 433.511719 467.054688 C 436.148438 462.9375 440.15625 460.511719 445.324219 460.511719 Z M 474.140625 460.511719 C 484.480469 460.511719 489.652344 466.730469 489.652344 476.117188 L 489.652344 505.210938 L 484.269531 505.210938 L 482.898438 500.46875 C 480.050781 503.734375 476.25 506.367188 470.449219 506.367188 C 460.417969 506.367188 456.199219 500.46875 456.199219 492.984375 C 456.199219 482.226562 465.0625 478.539062 482.6875 478.433594 L 482.6875 476.117188 C 482.6875 468.945312 478.78125 466.628906 473.292969 466.628906 C 468.859375 466.628906 465.0625 467.890625 461.582031 469.367188 L 459.257812 463.671875 C 463.691406 461.78125 467.492188 460.511719 474.140625 460.511719 Z M 482.691406 483.808594 C 468.449219 484.019531 463.171875 486.023438 463.171875 492.984375 C 463.171875 498.253906 466.757812 500.257812 470.871094 500.257812 C 476.253906 500.257812 482.691406 497.515625 482.691406 489.292969 Z M 514.882812 460.511719 C 520.054688 460.511719 525.011719 461.671875 529.234375 463.78125 L 526.488281 469.578125 C 523.636719 468.207031 519.734375 466.628906 514.988281 466.628906 C 510.027344 466.628906 507.28125 468.84375 507.28125 472.105469 C 507.28125 476.328125 510.976562 477.484375 516.992188 480.4375 C 525.644531 484.652344 529.761719 488.023438 529.761719 494.664062 C 529.761719 502.46875 522.792969 506.367188 514.140625 506.367188 C 508.660156 506.367188 503.90625 504.996094 499.792969 503.417969 L 502.011719 497.511719 C 506.125 499.09375 510.238281 500.148438 514.039062 500.148438 C 520.367188 500.148438 522.792969 498.042969 522.792969 494.5625 C 522.792969 491.082031 521.210938 489.5 513.089844 485.496094 C 505.699219 481.804688 500.320312 479.699219 500.320312 472.214844 C 500.320312 464.730469 507.28125 460.511719 514.882812 460.511719 Z M 547.917969 442.589844 L 547.917969 488.023438 C 547.917969 495.511719 551.824219 500.257812 558.363281 500.257812 C 564.484375 500.257812 568.386719 496.988281 568.386719 489.503906 L 568.386719 477.378906 C 568.386719 469.890625 564.800781 466.519531 559 466.519531 C 556.78125 466.519531 554.667969 467.152344 553.300781 467.785156 L 550.871094 463.148438 C 553.511719 461.566406 556.679688 460.511719 559.945312 460.511719 C 571.34375 460.511719 575.355469 468.519531 575.355469 477.375 L 575.355469 489.5 C 575.355469 498.355469 570.289062 506.367188 559.421875 506.367188 C 554.25 506.367188 550.238281 504.152344 547.707031 500.675781 L 546.335938 505.207031 L 540.957031 505.207031 L 540.957031 442.589844 Z M 604.589844 460.511719 C 616.835938 460.511719 622.003906 468.101562 622.003906 477.800781 L 622.003906 489.082031 C 622.003906 498.78125 616.835938 506.371094 604.589844 506.371094 C 592.351562 506.371094 587.179688 498.78125 587.179688 489.082031 L 587.179688 477.800781 C 587.179688 468.101562 592.351562 460.511719 604.589844 460.511719 Z M 604.589844 466.523438 C 598.050781 466.523438 594.144531 470.105469 594.144531 477.800781 L 594.144531 489.082031 C 594.144531 496.777344 598.050781 500.359375 604.589844 500.359375 C 611.132812 500.359375 615.042969 496.777344 615.042969 489.082031 L 615.042969 477.800781 C 615.042969 470.105469 611.132812 466.523438 604.589844 466.523438 Z M 668.761719 461.671875 L 668.761719 505.214844 L 663.375 505.214844 L 662.003906 500.574219 C 659.363281 504.15625 655.25 506.371094 649.972656 506.371094 C 638.683594 506.371094 634.355469 498.359375 634.355469 489.507812 L 634.355469 461.671875 L 641.320312 461.671875 L 641.320312 489.507812 C 641.320312 496.992188 645.222656 500.261719 651.03125 500.261719 C 657.890625 500.261719 661.792969 495.511719 661.792969 488.027344 L 661.792969 461.671875 Z M 701.902344 460.511719 C 705.066406 460.511719 707.707031 461.355469 709.398438 462.203125 L 706.546875 468.3125 C 704.644531 467.46875 702.75 467.050781 700.847656 467.050781 C 695.046875 467.050781 690.089844 471.269531 690.089844 479.804688 L 690.089844 505.210938 L 683.121094 505.210938 L 683.121094 461.671875 L 688.5 461.671875 L 690.089844 467.054688 C 692.71875 462.9375 696.734375 460.511719 701.902344 460.511719 Z M 730.179688 460.511719 C 735.347656 460.511719 739.355469 462.726562 741.890625 466.207031 L 743.265625 461.671875 L 748.648438 461.671875 L 748.648438 505.84375 C 748.648438 516.175781 744.742188 525.03125 730.707031 525.03125 C 727.332031 525.03125 723.425781 524.289062 719.207031 522.917969 L 721.421875 517.015625 C 724.164062 517.96875 727.433594 518.8125 730.710938 518.8125 C 739.46875 518.8125 741.6875 513.75 741.6875 505.84375 L 741.6875 478.855469 C 741.6875 471.371094 737.78125 466.628906 731.234375 466.628906 C 725.117188 466.628906 721.210938 469.890625 721.210938 477.378906 L 721.210938 489.503906 C 721.210938 496.988281 725.117188 500.359375 730.921875 500.359375 C 733.136719 500.359375 734.929688 499.730469 736.300781 499.097656 L 738.726562 503.734375 C 736.300781 505.425781 733.238281 506.371094 729.972656 506.371094 C 718.574219 506.371094 714.25 498.359375 714.25 489.507812 L 714.25 477.378906 C 714.246094 468.523438 719.3125 460.511719 730.179688 460.511719 Z M 730.179688 460.511719 " fill-opacity="1" fill-rule="nonzero"/><g clip-path="url(#ee3570436a)"><path fill="#000000" d="M 808.890625 403 L 688.472656 403 L 688.472656 251.46875 L 502.792969 251.46875 L 502.792969 251.472656 L 1.113281 251.472656 L 1.113281 406.695312 L 99.734375 406.695312 L 99.734375 558.371094 L 185.597656 558.371094 L 185.597656 558.214844 L 808.890625 558.214844 Z M 684.777344 255.160156 L 684.777344 402.996094 L 633.125 402.996094 L 633.125 255.160156 Z M 629.382812 255.160156 L 629.382812 402.996094 L 564.316406 402.996094 L 564.316406 255.160156 Z M 560.574219 255.160156 L 560.574219 402.996094 L 535.890625 402.996094 L 535.890625 255.160156 Z M 506.488281 255.160156 L 532.152344 255.160156 L 532.152344 402.996094 L 506.488281 402.996094 Z M 4.804688 255.164062 L 502.6875 255.164062 L 502.6875 402.996094 L 181.816406 402.996094 L 4.804688 403.003906 Z M 103.429688 554.679688 L 103.429688 406.84375 L 153.433594 406.84375 L 153.433594 554.679688 Z M 157.171875 406.84375 L 181.816406 406.84375 L 181.816406 554.679688 L 157.171875 554.679688 Z M 805.195312 554.523438 L 185.597656 554.523438 L 185.597656 406.695312 L 805.195312 406.691406 Z M 805.195312 554.523438 " fill-opacity="1" fill-rule="nonzero"/></g></svg>