<svg xmlns="http://www.w3.org/2000/svg" xmlns:xlink="http://www.w3.org/1999/xlink" width="1080" zoomAndPan="magnify" viewBox="0 0 810 809.999993" height="1080" preserveAspectRatio="xMidYMid meet" version="1.0"><defs><clipPath id="6c439539ef"><path d="M 225 295.675781 L 286 295.675781 L 286 384 L 225 384 Z M 225 295.675781 " clip-rule="nonzero"/></clipPath><clipPath id="cc7af0ebac"><path d="M 393 295.675781 L 482 295.675781 L 482 384 L 393 384 Z M 393 295.675781 " clip-rule="nonzero"/></clipPath><clipPath id="774dbce618"><path d="M 225 424 L 298 424 L 298 514.675781 L 225 514.675781 Z M 225 424 " clip-rule="nonzero"/></clipPath><clipPath id="d3c2c8cc2d"><path d="M 482 448 L 546 448 L 546 514.675781 L 482 514.675781 Z M 482 448 " clip-rule="nonzero"/></clipPath><clipPath id="5a88ea843e"><path d="M 601 448 L 655 448 L 655 514.675781 L 601 514.675781 Z M 601 448 " clip-rule="nonzero"/></clipPath><clipPath id="5ee57223e4"><path d="M 694 430 L 746 430 L 746 514.675781 L 694 514.675781 Z M 694 430 " clip-rule="nonzero"/></clipPath><clipPath id="c7fcba045b"><path d="M 747 422 L 810 422 L 810 514.675781 L 747 514.675781 Z M 747 422 " clip-rule="nonzero"/></clipPath><clipPath id="1f95133aa9"><path d="M 0 295.675781 L 181 295.675781 L 181 514.675781 L 0 514.675781 Z M 0 295.675781 " clip-rule="nonzero"/></clipPath></defs><rect x="-81" width="972" fill="#ffffff" y="-80.999999" height="971.999992" fill-opacity="1"/><rect x="-81" width="972" fill="#ffffff" y="-80.999999" height="971.999992" fill-opacity="1"/><g clip-path="url(#6c439539ef)"><path fill="#2a3f83" d="M 225.675781 295.675781 L 225.675781 383.71875 L 285.949219 383.71875 L 285.949219 368.917969 L 242.363281 368.917969 L 242.363281 295.675781 Z M 225.675781 295.675781 " fill-opacity="1" fill-rule="nonzero"/></g><path fill="#2a3f83" d="M 310.058594 346.222656 C 310.058594 344.644531 310.414062 343.0625 311.113281 341.472656 C 311.824219 339.902344 312.839844 338.460938 314.167969 337.195312 C 315.488281 335.910156 317.128906 334.863281 319.136719 334.015625 C 321.117188 333.1875 323.386719 332.761719 325.953125 332.761719 C 328.328125 332.761719 330.453125 333.1875 332.292969 334.015625 C 334.160156 334.863281 335.6875 335.910156 336.875 337.195312 C 338.070312 338.460938 338.964844 339.902344 339.59375 341.472656 C 340.203125 343.0625 340.527344 344.644531 340.527344 346.222656 Z M 356.539062 355.199219 C 356.539062 350.804688 356.011719 346.496094 354.960938 342.269531 C 353.894531 338.039062 352.179688 334.269531 349.792969 330.925781 C 347.414062 327.574219 344.238281 324.867188 340.324219 322.808594 C 336.386719 320.730469 331.601562 319.699219 325.953125 319.699219 C 321.273438 319.699219 317.015625 320.542969 313.164062 322.199219 C 309.328125 323.875 306.015625 326.171875 303.238281 329.0625 C 300.457031 331.976562 298.285156 335.390625 296.738281 339.304688 C 295.195312 343.214844 294.421875 347.457031 294.421875 352.03125 C 294.421875 357.054688 295.195312 361.621094 296.738281 365.765625 C 298.285156 369.910156 300.488281 373.4375 303.355469 376.394531 C 306.238281 379.335938 309.703125 381.65625 313.761719 383.328125 C 317.828125 384.988281 322.324219 385.835938 327.28125 385.835938 C 332.128906 385.835938 336.296875 385.308594 339.796875 384.246094 C 343.273438 383.195312 346.144531 381.996094 348.394531 380.671875 C 350.65625 379.355469 352.371094 378.105469 353.570312 376.921875 C 354.757812 375.738281 355.484375 375.007812 355.757812 374.742188 L 347.28125 365.238281 C 346.753906 365.765625 345.972656 366.4375 344.957031 367.285156 C 343.933594 368.117188 342.644531 368.90625 341.054688 369.648438 C 339.460938 370.410156 337.542969 371.074219 335.285156 371.644531 C 333.03125 372.203125 330.394531 372.492188 327.414062 372.492188 C 325.375 372.492188 323.324219 372.152344 321.238281 371.441406 C 319.167969 370.730469 317.320312 369.71875 315.691406 368.402344 C 314.046875 367.082031 312.71875 365.492188 311.703125 363.648438 C 310.6875 361.808594 310.191406 359.746094 310.191406 357.449219 L 356.539062 357.449219 Z M 356.539062 355.199219 " fill-opacity="1" fill-rule="nonzero"/><g clip-path="url(#cc7af0ebac)"><path fill="#2a3f83" d="M 461.449219 295.675781 L 437.347656 337.265625 L 412.839844 295.675781 L 397.335938 295.675781 L 393.09375 383.71875 L 408.742188 383.71875 L 411.640625 323.652344 L 432.960938 358.625 L 440.789062 358.625 L 461.976562 322.738281 L 464.894531 383.71875 L 481.195312 383.71875 L 476.953125 295.675781 Z M 461.449219 295.675781 " fill-opacity="1" fill-rule="nonzero"/></g><path fill="#2a3f83" d="M 533.773438 361.808594 C 533.773438 363.378906 533.367188 364.886719 532.515625 366.285156 C 531.683594 367.703125 530.597656 368.921875 529.273438 369.992188 C 527.953125 371.035156 526.429688 371.878906 524.707031 372.488281 C 522.980469 373.121094 521.203125 373.425781 519.339844 373.425781 C 515.632812 373.425781 512.820312 372.679688 510.941406 371.175781 C 509.035156 369.6875 508.085938 367.601562 508.085938 364.96875 C 508.085938 362.421875 509.085938 360.152344 511.125 358.171875 C 513.15625 356.195312 516.683594 355.199219 521.726562 355.199219 C 522.695312 355.199219 523.863281 355.238281 525.242188 355.269531 C 526.59375 355.3125 527.902344 355.382812 529.136719 355.472656 C 530.648438 355.554688 532.191406 355.636719 533.773438 355.738281 Z M 546.886719 333.101562 C 545.640625 330.335938 543.882812 327.945312 541.589844 325.972656 C 539.300781 323.988281 536.53125 322.453125 533.308594 321.359375 C 530.089844 320.25 526.492188 319.699219 522.523438 319.699219 C 518.804688 319.699219 515.566406 319.933594 512.78125 320.421875 C 510 320.914062 507.539062 321.523438 505.4375 322.265625 C 503.316406 323.023438 501.453125 323.855469 499.878906 324.789062 C 498.277344 325.699219 496.855469 326.617188 495.636719 327.492188 L 502.777344 338.039062 C 504.816406 336.71875 507.152344 335.492188 509.796875 334.351562 C 512.445312 333.203125 515.972656 332.628906 520.40625 332.628906 C 524.371094 332.628906 527.597656 333.507812 530.070312 335.269531 C 532.535156 337.042969 533.773438 339.457031 533.773438 342.539062 L 533.773438 343.988281 C 532.089844 343.90625 530.464844 343.804688 528.867188 343.722656 C 527.457031 343.632812 525.996094 343.5625 524.503906 343.519531 C 523 343.480469 521.640625 343.46875 520.40625 343.46875 C 516.328125 343.46875 512.636719 343.9375 509.273438 344.90625 C 505.914062 345.882812 503.050781 347.300781 500.660156 349.195312 C 498.277344 351.089844 496.429688 353.425781 495.09375 356.195312 C 493.773438 358.96875 493.105469 362.113281 493.105469 365.628906 C 493.105469 369.058594 493.753906 372.050781 495.023438 374.605469 C 496.3125 377.15625 497.992188 379.25 500.0625 380.875 C 502.132812 382.503906 504.441406 383.71875 506.949219 384.511719 C 509.476562 385.308594 512 385.695312 514.566406 385.695312 C 518.804688 385.695312 522.65625 384.898438 526.097656 383.328125 C 529.542969 381.738281 532.089844 379.933594 533.773438 377.898438 L 534.179688 383.71875 L 548.75 383.71875 L 548.75 342.132812 C 548.75 338.886719 548.121094 335.871094 546.886719 333.101562 " fill-opacity="1" fill-rule="nonzero"/><path fill="#2a3f83" d="M 615.640625 327.421875 C 611.574219 322.808594 605.652344 320.496094 597.882812 320.496094 C 595.417969 320.496094 593.199219 320.769531 591.261719 321.289062 C 589.3125 321.808594 587.585938 322.492188 586.039062 323.335938 C 584.476562 324.164062 583.15625 325.070312 582.050781 326.039062 C 580.949219 326.996094 580.003906 327.933594 579.203125 328.808594 L 578.816406 321.808594 L 563.847656 321.808594 L 563.847656 383.71875 L 579.476562 383.71875 L 579.476562 350.195312 C 579.476562 347.894531 579.84375 345.765625 580.59375 343.789062 C 581.335938 341.808594 582.390625 340.070312 583.714844 338.582031 C 585.035156 337.074219 586.628906 335.910156 588.480469 335.085938 C 590.328125 334.238281 592.316406 333.832031 594.4375 333.832031 C 597.882812 333.832031 600.699219 334.894531 602.847656 337.0625 C 605.015625 339.203125 606.089844 342.269531 606.089844 346.222656 L 606.089844 383.71875 L 621.734375 383.71875 L 621.734375 346.101562 C 621.734375 338.257812 619.699219 332.039062 615.640625 327.421875 " fill-opacity="1" fill-rule="nonzero"/><path fill="#2a3f83" d="M 685.976562 358.582031 C 684.996094 356.417969 683.605469 354.535156 681.808594 352.964844 C 679.988281 351.378906 677.816406 350.0625 675.308594 348.992188 C 672.796875 347.945312 669.945312 347.066406 666.753906 346.359375 C 661.648438 345.140625 657.867188 343.972656 655.441406 342.859375 C 653.015625 341.757812 651.796875 340.25 651.796875 338.304688 C 651.796875 336.71875 652.523438 335.386719 653.980469 334.289062 C 655.441406 333.1875 658.019531 332.628906 661.730469 332.628906 C 665.433594 332.628906 668.65625 333.136719 671.40625 334.148438 C 674.132812 335.164062 676.34375 336.277344 678.019531 337.519531 L 686.09375 326.558594 C 683.007812 324.28125 679.546875 322.558594 675.695312 321.421875 C 671.863281 320.277344 667.214844 319.699219 661.730469 319.699219 C 658.632812 319.699219 655.574219 320.136719 652.523438 321.015625 C 649.46875 321.898438 646.738281 323.144531 644.316406 324.789062 C 641.882812 326.410156 639.917969 328.441406 638.425781 330.855469 C 636.914062 333.269531 636.164062 336.03125 636.164062 339.109375 C 636.164062 342.101562 636.8125 344.671875 638.089844 346.832031 C 639.359375 348.972656 641.003906 350.835938 642.988281 352.375 C 644.976562 353.914062 647.109375 355.117188 649.417969 355.992188 C 651.710938 356.871094 653.914062 357.582031 656.039062 358.109375 C 659.480469 358.898438 662.207031 359.648438 664.246094 360.355469 C 666.28125 361.066406 667.855469 361.757812 669.011719 362.464844 C 670.167969 363.175781 670.910156 363.90625 671.273438 364.652344 C 671.628906 365.394531 671.792969 366.203125 671.792969 367.085938 C 671.792969 369.113281 670.777344 370.5625 668.757812 371.441406 C 666.722656 372.324219 664.03125 372.761719 660.664062 372.761719 C 656.863281 372.761719 653.492188 372.121094 650.542969 370.855469 C 647.570312 369.570312 645.128906 367.964844 643.191406 366.039062 L 633.777344 376.195312 C 636.609375 379.355469 640.359375 381.757812 645.039062 383.378906 C 649.730469 385.019531 654.984375 385.828125 660.804688 385.828125 C 664.417969 385.828125 667.84375 385.375 671.070312 384.441406 C 674.292969 383.515625 677.117188 382.210938 679.546875 380.558594 C 681.972656 378.886719 683.890625 376.839844 685.3125 374.402344 C 686.726562 371.980469 687.425781 369.28125 687.425781 366.285156 C 687.425781 363.296875 686.949219 360.730469 685.976562 358.582031 " fill-opacity="1" fill-rule="nonzero"/><g clip-path="url(#774dbce618)"><path fill="#2a3f83" d="M 280.386719 424.238281 L 280.386719 476.894531 C 280.386719 480.246094 280.050781 483.253906 279.382812 485.941406 C 278.722656 488.632812 277.636719 490.914062 276.148438 492.808594 C 274.636719 494.695312 272.648438 496.152344 270.191406 497.144531 C 267.71875 498.160156 264.664062 498.667969 261.046875 498.667969 C 257.417969 498.667969 254.375 498.160156 251.902344 497.144531 C 249.425781 496.152344 247.4375 494.695312 245.945312 492.808594 C 244.441406 490.914062 243.351562 488.632812 242.691406 485.941406 C 242.023438 483.253906 241.707031 480.246094 241.707031 476.894531 L 241.707031 424.238281 L 225.015625 424.238281 L 225.015625 479.808594 C 225.015625 484.722656 225.8125 489.304688 227.40625 493.527344 C 228.980469 497.753906 231.324219 501.421875 234.414062 504.550781 C 237.519531 507.679688 241.28125 510.132812 245.742188 511.945312 C 250.207031 513.730469 255.296875 514.644531 261.046875 514.644531 C 266.777344 514.644531 271.886719 513.730469 276.351562 511.945312 C 280.792969 510.132812 284.574219 507.679688 287.667969 504.550781 C 290.75 501.421875 293.09375 497.753906 294.6875 493.527344 C 296.28125 489.304688 297.078125 484.722656 297.078125 479.808594 L 297.078125 424.238281 Z M 280.386719 424.238281 " fill-opacity="1" fill-rule="nonzero"/></g><path fill="#2a3f83" d="M 365.15625 455.96875 C 361.089844 451.351562 355.179688 449.039062 347.410156 449.039062 C 344.9375 449.039062 342.734375 449.3125 340.777344 449.832031 C 338.84375 450.355469 337.097656 451.046875 335.554688 451.878906 C 334.011719 452.726562 332.6875 453.617188 331.589844 454.582031 C 330.464844 455.5625 329.53125 456.476562 328.738281 457.355469 L 328.332031 450.355469 L 313.367188 450.355469 L 313.367188 512.261719 L 328.992188 512.261719 L 328.992188 478.742188 C 328.992188 476.457031 329.359375 474.328125 330.128906 472.34375 C 330.878906 470.355469 331.90625 468.625 333.230469 467.125 C 334.550781 465.636719 336.144531 464.476562 338 463.628906 C 339.863281 462.796875 341.851562 462.375 343.964844 462.375 C 347.410156 462.375 350.21875 463.457031 352.367188 465.605469 C 354.539062 467.769531 355.625 470.824219 355.625 474.785156 L 355.625 512.261719 L 371.25 512.261719 L 371.25 474.648438 C 371.25 466.820312 369.214844 460.597656 365.15625 455.96875 " fill-opacity="1" fill-rule="nonzero"/><path fill="#2a3f83" d="M 387.011719 512.257812 L 402.628906 512.257812 L 402.628906 450.355469 L 387.011719 450.355469 Z M 386.484375 440.605469 L 403.175781 440.605469 L 403.175781 424.242188 L 386.484375 424.242188 Z M 386.484375 440.605469 " fill-opacity="1" fill-rule="nonzero"/><path fill="#2a3f83" d="M 463.042969 450.355469 L 446.351562 494.710938 L 429.660156 450.355469 L 411.640625 450.355469 L 438.003906 512.257812 L 453.898438 512.257812 L 480.125 450.355469 Z M 463.042969 450.355469 " fill-opacity="1" fill-rule="nonzero"/><g clip-path="url(#d3c2c8cc2d)"><path fill="#2a3f83" d="M 498.535156 474.78125 C 498.535156 473.195312 498.890625 471.625 499.609375 470.035156 C 500.300781 468.445312 501.316406 467.019531 502.640625 465.734375 C 503.980469 464.472656 505.625 463.410156 507.609375 462.578125 C 509.597656 461.730469 511.871094 461.3125 514.429688 461.3125 C 516.820312 461.3125 518.949219 461.730469 520.792969 462.578125 C 522.640625 463.410156 524.171875 464.472656 525.359375 465.734375 C 526.558594 467.019531 527.457031 468.445312 528.085938 470.035156 C 528.703125 471.625 529.007812 473.195312 529.007812 474.78125 Z M 545.035156 483.757812 C 545.035156 479.367188 544.507812 475.054688 543.441406 470.828125 C 542.386719 466.601562 540.660156 462.8125 538.285156 459.46875 C 535.886719 456.117188 532.734375 453.414062 528.796875 451.355469 C 524.882812 449.289062 520.078125 448.261719 514.429688 448.261719 C 509.75 448.261719 505.492188 449.085938 501.65625 450.757812 C 497.824219 452.4375 494.496094 454.710938 491.71875 457.625 C 488.929688 460.535156 486.78125 463.949219 485.230469 467.851562 C 483.695312 471.777344 482.914062 476.015625 482.914062 480.59375 C 482.914062 485.601562 483.695312 490.179688 485.230469 494.324219 C 486.78125 498.453125 488.980469 502 491.851562 504.941406 C 494.714844 507.898438 498.199219 510.191406 502.253906 511.871094 C 506.304688 513.550781 510.816406 514.371094 515.753906 514.371094 C 520.621094 514.371094 524.792969 513.855469 528.269531 512.804688 C 531.769531 511.738281 534.636719 510.554688 536.898438 509.234375 C 539.144531 507.917969 540.863281 506.664062 542.050781 505.464844 C 543.25 504.28125 543.960938 503.554688 544.234375 503.300781 L 535.753906 493.785156 C 535.226562 494.324219 534.464844 495 533.449219 495.832031 C 532.429688 496.675781 531.121094 497.464844 529.546875 498.210938 C 527.953125 498.953125 526.035156 499.613281 523.777344 500.191406 C 521.523438 500.765625 518.890625 501.050781 515.886719 501.050781 C 513.851562 501.050781 511.800781 500.695312 509.730469 499.988281 C 507.660156 499.289062 505.796875 498.28125 504.164062 496.964844 C 502.539062 495.640625 501.214844 494.050781 500.199219 492.207031 C 499.183594 490.351562 498.667969 488.285156 498.667969 486.011719 L 545.035156 486.011719 Z M 545.035156 483.757812 " fill-opacity="1" fill-rule="nonzero"/></g><path fill="#2a3f83" d="M 595.164062 449.445312 C 593.980469 449.273438 592.632812 449.171875 591.128906 449.171875 C 588.566406 449.171875 586.292969 449.496094 584.304688 450.105469 C 582.324219 450.714844 580.574219 451.472656 579.082031 452.347656 C 577.578125 453.226562 576.269531 454.191406 575.160156 455.242188 C 574.0625 456.304688 573.160156 457.269531 572.449219 458.148438 L 572.0625 450.351562 L 557.078125 450.351562 L 557.078125 512.261719 L 572.722656 512.261719 L 572.722656 478.871094 C 572.722656 476.589844 573.148438 474.515625 573.972656 472.667969 C 574.824219 470.828125 575.941406 469.242188 577.355469 467.917969 C 578.765625 466.601562 580.441406 465.585938 582.390625 464.871094 C 584.324219 464.1875 586.363281 463.832031 588.480469 463.832031 C 589.992188 463.832031 591.28125 463.914062 592.386719 464.097656 C 593.484375 464.269531 594.574219 464.574219 595.640625 465.011719 L 598.816406 450.351562 C 597.570312 449.914062 596.371094 449.613281 595.164062 449.445312 " fill-opacity="1" fill-rule="nonzero"/><g clip-path="url(#5a88ea843e)"><path fill="#2a3f83" d="M 653.523438 487.125 C 652.539062 484.976562 651.148438 483.101562 649.355469 481.511719 C 647.53125 479.925781 645.378906 478.605469 642.855469 477.554688 C 640.339844 476.496094 637.492188 475.628906 634.316406 474.917969 C 629.195312 473.683594 625.414062 472.515625 622.988281 471.421875 C 620.5625 470.320312 619.34375 468.800781 619.34375 466.851562 C 619.34375 465.285156 620.066406 463.945312 621.527344 462.832031 C 622.988281 461.734375 625.566406 461.191406 629.277344 461.191406 C 632.976562 461.191406 636.203125 461.699219 638.949219 462.71875 C 641.679688 463.710938 643.890625 464.839844 645.566406 466.074219 L 653.65625 455.121094 C 650.554688 452.824219 647.09375 451.117188 643.261719 449.964844 C 639.40625 448.820312 634.761719 448.253906 629.277344 448.253906 C 626.191406 448.253906 623.121094 448.699219 620.066406 449.578125 C 617.035156 450.460938 614.285156 451.714844 611.859375 453.335938 C 609.429688 454.96875 607.460938 456.984375 605.972656 459.398438 C 604.460938 461.835938 603.710938 464.574219 603.710938 467.652344 C 603.710938 470.644531 604.359375 473.226562 605.632812 475.375 C 606.921875 477.539062 608.546875 479.378906 610.535156 480.917969 C 612.519531 482.457031 614.652344 483.679688 616.964844 484.554688 C 619.253906 485.433594 621.457031 486.125 623.585938 486.667969 C 627.023438 487.460938 629.773438 488.203125 631.792969 488.902344 C 633.828125 489.609375 635.421875 490.320312 636.558594 491.007812 C 637.714844 491.71875 638.457031 492.453125 638.816406 493.195312 C 639.171875 493.9375 639.339844 494.765625 639.339844 495.644531 C 639.339844 497.660156 638.324219 499.109375 636.304688 499.984375 C 634.265625 500.867188 631.574219 501.308594 628.230469 501.308594 C 624.429688 501.308594 621.039062 500.683594 618.085938 499.398438 C 615.128906 498.128906 612.671875 496.527344 610.738281 494.582031 L 601.324219 504.742188 C 604.15625 507.917969 607.90625 510.316406 612.585938 511.9375 C 617.273438 513.5625 622.53125 514.371094 628.351562 514.371094 C 631.980469 514.371094 635.390625 513.921875 638.613281 512.984375 C 641.839844 512.078125 644.667969 510.773438 647.09375 509.101562 C 649.519531 507.429688 651.4375 505.382812 652.859375 502.960938 C 654.273438 500.550781 654.984375 497.84375 654.984375 494.847656 C 654.984375 491.855469 654.496094 489.285156 653.523438 487.125 " fill-opacity="1" fill-rule="nonzero"/></g><path fill="#2a3f83" d="M 668.355469 512.257812 L 683.992188 512.257812 L 683.992188 450.355469 L 668.355469 450.355469 Z M 667.820312 440.605469 L 684.515625 440.605469 L 684.515625 424.242188 L 667.820312 424.242188 Z M 667.820312 440.605469 " fill-opacity="1" fill-rule="nonzero"/><g clip-path="url(#5ee57223e4)"><path fill="#2a3f83" d="M 738.550781 497.488281 C 737.230469 498.453125 735.835938 499.300781 734.382812 499.984375 C 732.921875 500.699219 730.964844 501.054688 728.492188 501.054688 C 725.84375 501.054688 723.925781 500.105469 722.726562 498.21875 C 721.539062 496.316406 720.945312 493.617188 720.945312 490.101562 L 720.945312 463.035156 L 737.636719 463.035156 L 737.636719 450.355469 L 720.945312 450.355469 L 720.945312 430.300781 L 705.316406 430.300781 L 705.316406 450.355469 L 694.71875 450.355469 L 694.71875 463.035156 L 705.316406 463.035156 L 705.316406 491.148438 C 705.316406 494.582031 705.660156 497.722656 706.371094 500.582031 C 707.082031 503.457031 708.25 505.890625 709.878906 507.917969 C 711.511719 509.949219 713.652344 511.5 716.308594 512.597656 C 718.957031 513.699219 722.183594 514.257812 725.984375 514.257812 C 729.675781 514.257812 733.035156 513.699219 736.042969 512.597656 C 739.046875 511.5 742.078125 509.675781 745.183594 507.125 Z M 738.550781 497.488281 " fill-opacity="1" fill-rule="nonzero"/></g><g clip-path="url(#c7fcba045b)"><path fill="#2a3f83" d="M 779.097656 422.242188 L 772.738281 440.988281 L 785.324219 440.988281 L 795.769531 422.242188 Z M 763.316406 474.785156 C 763.316406 473.195312 763.679688 471.621094 764.390625 470.03125 C 765.101562 468.441406 766.097656 467.023438 767.445312 465.738281 C 768.765625 464.46875 770.40625 463.40625 772.394531 462.574219 C 774.382812 461.734375 776.652344 461.308594 779.210938 461.308594 C 781.609375 461.308594 783.730469 461.734375 785.578125 462.574219 C 787.425781 463.40625 788.953125 464.46875 790.152344 465.738281 C 791.339844 467.023438 792.242188 468.441406 792.875 470.03125 C 793.484375 471.621094 793.789062 473.195312 793.789062 474.785156 Z M 809.816406 483.761719 C 809.816406 479.363281 809.289062 475.050781 808.222656 470.832031 C 807.175781 466.605469 805.445312 462.816406 803.070312 459.464844 C 800.675781 456.121094 797.523438 453.417969 793.601562 451.351562 C 789.664062 449.292969 784.867188 448.257812 779.210938 448.257812 C 774.550781 448.257812 770.273438 449.089844 766.441406 450.761719 C 762.605469 452.433594 759.28125 454.714844 756.5 457.628906 C 753.714844 460.53125 751.5625 463.945312 750.019531 467.855469 C 748.476562 471.773438 747.699219 476.019531 747.699219 480.597656 C 747.699219 485.605469 748.476562 490.183594 750.019531 494.328125 C 751.5625 498.449219 753.765625 501.996094 756.632812 504.945312 C 759.503906 507.902344 762.980469 510.195312 767.039062 511.875 C 771.105469 513.546875 775.605469 514.371094 780.558594 514.371094 C 785.40625 514.371094 789.574219 513.851562 793.0625 512.800781 C 796.550781 511.734375 799.421875 510.550781 801.679688 509.234375 C 803.933594 507.921875 805.648438 506.667969 806.835938 505.464844 C 808.035156 504.285156 808.769531 503.558594 809.015625 503.296875 L 800.539062 493.78125 C 800.011719 494.328125 799.25 495.003906 798.234375 495.828125 C 797.21875 496.675781 795.902344 497.46875 794.332031 498.210938 C 792.738281 498.957031 790.820312 499.617188 788.558594 500.191406 C 786.308594 500.769531 783.671875 501.054688 780.671875 501.054688 C 778.660156 501.054688 776.601562 500.699219 774.519531 499.984375 C 772.445312 499.292969 770.597656 498.28125 768.949219 496.960938 C 767.324219 495.644531 765.996094 494.054688 764.980469 492.210938 C 763.964844 490.347656 763.457031 488.289062 763.457031 486.011719 L 809.816406 486.011719 Z M 809.816406 483.761719 " fill-opacity="1" fill-rule="nonzero"/></g><g clip-path="url(#1f95133aa9)"><path fill="#ec3b33" d="M 139.628906 352.949219 L 121.75 380.214844 L 123.578125 392.21875 L 106.484375 392.21875 L 104.003906 376.039062 L 119.851562 351.902344 L 61.78125 351.902344 L 77.554688 375.957031 L 75.066406 392.21875 L 57.960938 392.21875 L 59.8125 380.113281 L 41.984375 352.949219 L 41.984375 324.113281 L 56.449219 324.113281 L 63.496094 334.824219 L 77.894531 334.824219 L 84.933594 324.113281 L 96.722656 324.113281 L 103.765625 334.824219 L 118.136719 334.824219 L 125.15625 324.113281 L 139.628906 324.113281 Z M 119.75 478.347656 L 112.964844 434.554688 L 93.828125 463.695312 L 87.664062 463.695312 L 68.566406 434.6875 L 61.792969 478.347656 L 44.695312 478.347656 L 55.078125 410.558594 L 73.210938 410.558594 L 90.71875 437.242188 L 108.230469 410.558594 L 126.464844 410.558594 L 136.847656 478.347656 Z M 180.734375 295.847656 L 0.183594 295.847656 L 0.351562 424.84375 C 0.417969 474.535156 40.898438 514.746094 90.753906 514.675781 C 140.613281 514.613281 180.992188 474.273438 180.921875 424.589844 Z M 180.734375 295.847656 " fill-opacity="1" fill-rule="nonzero"/></g></svg>