<svg xmlns="http://www.w3.org/2000/svg" xmlns:xlink="http://www.w3.org/1999/xlink" width="1080" zoomAndPan="magnify" viewBox="0 0 810 809.999993" height="1080" preserveAspectRatio="xMidYMid meet" version="1.0"><rect x="-81" width="972" fill="#ffffff" y="-80.999999" height="971.999992" fill-opacity="1"/><rect x="-81" width="972" fill="#ffffff" y="-80.999999" height="971.999992" fill-opacity="1"/><path fill="#443a31" d="M 292.613281 476.527344 C 295.886719 472.210938 297.546875 467.128906 297.546875 461.402344 C 297.546875 454.921875 295.179688 449.265625 290.519531 444.601562 C 285.996094 439.945312 280.324219 437.585938 273.65625 437.585938 L 250.292969 437.585938 C 247.015625 437.585938 244.722656 439.878906 244.722656 443.164062 L 244.722656 518.699219 C 244.722656 521.929688 247.0625 524.277344 250.292969 524.277344 L 276.441406 524.277344 C 283.261719 524.277344 289.175781 521.824219 294.011719 516.980469 C 298.921875 512.070312 301.410156 506.148438 301.410156 499.386719 L 301.410156 496.058594 C 301.410156 491.105469 300.035156 486.425781 297.328125 482.164062 C 296.007812 480.015625 294.425781 478.125 292.613281 476.527344 Z M 278.625 467.589844 C 277.152344 469.132812 275.140625 469.878906 272.476562 469.878906 L 261.332031 469.878906 L 261.332031 454.210938 L 273.65625 454.210938 C 275.867188 454.210938 277.355469 454.804688 278.804688 456.25 C 280.304688 457.753906 280.945312 459.292969 280.945312 461.402344 C 280.945312 464.042969 280.25 465.894531 278.625 467.589844 Z M 261.332031 486.507812 L 275.261719 486.507812 C 277.824219 486.507812 280.054688 487.445312 281.90625 489.292969 C 283.851562 491.246094 284.796875 493.457031 284.796875 496.0625 L 284.796875 499.386719 C 284.796875 501.625 283.992188 503.523438 282.339844 505.183594 C 280.65625 506.863281 278.785156 507.648438 276.441406 507.648438 L 261.332031 507.648438 Z M 261.332031 486.507812 " fill-opacity="1" fill-rule="nonzero"/><path fill="#443a31" d="M 344.433594 436.40625 C 336.394531 436.40625 329.4375 439.292969 323.75 444.992188 C 318.066406 450.683594 315.179688 457.648438 315.179688 465.695312 L 315.179688 496.488281 C 315.179688 504.53125 318.066406 511.496094 323.75 517.195312 C 329.4375 522.890625 336.398438 525.78125 344.433594 525.78125 C 352.46875 525.78125 359.425781 522.890625 365.109375 517.195312 C 370.796875 511.5 373.683594 504.53125 373.683594 496.492188 L 373.683594 465.695312 C 373.683594 457.65625 370.796875 450.6875 365.109375 444.992188 C 359.425781 439.292969 352.46875 436.40625 344.433594 436.40625 Z M 331.785156 465.691406 C 331.785156 462.105469 332.976562 459.242188 335.535156 456.675781 C 337.984375 454.222656 340.898438 453.03125 344.433594 453.03125 C 347.976562 453.03125 350.882812 454.222656 353.328125 456.679688 C 355.890625 459.238281 357.082031 462.105469 357.082031 465.695312 L 357.082031 496.488281 C 357.082031 500.136719 355.925781 502.878906 353.328125 505.398438 C 350.804688 507.925781 347.894531 509.15625 344.433594 509.15625 C 340.972656 509.15625 338.050781 507.914062 335.488281 505.347656 C 332.964844 502.902344 331.789062 500.085938 331.789062 496.488281 Z M 331.785156 465.691406 " fill-opacity="1" fill-rule="nonzero"/><path fill="#443a31" d="M 490.984375 437.585938 L 472.34375 437.585938 C 469.058594 437.585938 466.769531 439.875 466.769531 443.160156 L 466.769531 518.699219 C 466.769531 521.929688 469.113281 524.277344 472.34375 524.277344 L 493.773438 524.277344 C 501.589844 524.277344 508.367188 521.460938 513.921875 515.90625 C 519.464844 510.347656 522.273438 503.558594 522.273438 495.730469 L 522.273438 468.804688 C 522.273438 460.261719 519.175781 452.828125 513.0625 446.707031 C 507.015625 440.652344 499.59375 437.585938 490.984375 437.585938 Z M 493.773438 507.644531 L 483.378906 507.644531 L 483.378906 454.210938 L 490.984375 454.210938 C 495.109375 454.210938 498.472656 455.613281 501.277344 458.503906 C 504.234375 461.464844 505.671875 464.835938 505.671875 468.808594 L 505.671875 495.734375 C 505.671875 499.113281 504.550781 501.765625 502.128906 504.109375 C 499.730469 506.519531 497.070312 507.644531 493.773438 507.644531 Z M 493.773438 507.644531 " fill-opacity="1" fill-rule="nonzero"/><path fill="#443a31" d="M 584.078125 507.644531 L 556.535156 507.644531 L 556.535156 486.398438 L 579.46875 486.398438 C 582.582031 486.398438 584.929688 484 584.929688 480.820312 L 584.929688 475.351562 C 584.929688 472.066406 582.679688 469.773438 579.46875 469.773438 L 556.535156 469.773438 L 556.535156 454.210938 L 583.328125 454.210938 C 586.5 454.210938 588.898438 451.8125 588.898438 448.632812 L 588.898438 443.160156 C 588.898438 439.929688 586.554688 437.585938 583.328125 437.585938 L 545.496094 437.585938 C 542.21875 437.585938 539.925781 439.878906 539.925781 443.160156 L 539.925781 518.699219 C 539.925781 521.933594 542.269531 524.277344 545.496094 524.277344 L 584.078125 524.277344 C 587.304688 524.277344 589.648438 521.929688 589.648438 518.699219 L 589.648438 513.222656 C 589.648438 509.992188 587.300781 507.644531 584.078125 507.644531 Z M 584.078125 507.644531 " fill-opacity="1" fill-rule="nonzero"/><path fill="#443a31" d="M 645.953125 441.449219 C 645.160156 439.066406 643.152344 437.585938 640.710938 437.585938 L 630.640625 437.585938 C 628.164062 437.585938 626.199219 439.058594 625.375 441.550781 L 602.488281 516.5 C 602.1875 517.160156 602.035156 517.902344 602.035156 518.699219 C 602.035156 521.929688 604.378906 524.277344 607.601562 524.277344 L 613.28125 524.277344 C 615.859375 524.277344 617.996094 522.660156 618.585938 520.3125 L 625.351562 498.308594 L 645.996094 498.308594 L 652.707031 520.457031 L 652.816406 520.757812 C 653.695312 522.964844 655.660156 524.28125 658.082031 524.28125 L 663.757812 524.28125 C 666.933594 524.28125 669.328125 521.886719 669.328125 518.707031 C 669.328125 517.902344 669.171875 517.15625 668.921875 516.644531 Z M 641.851562 481.683594 L 629.566406 481.683594 L 635.679688 460.949219 Z M 641.851562 481.683594 " fill-opacity="1" fill-rule="nonzero"/><path fill="#443a31" d="M 731.246094 437.585938 L 725.785156 437.585938 C 722.558594 437.585938 720.214844 439.929688 720.214844 443.160156 L 720.214844 498.304688 C 720.214844 501.453125 719.234375 503.871094 717.105469 505.929688 C 714.945312 508.097656 712.457031 509.148438 709.496094 509.148438 C 706.5 509.148438 704.066406 508.113281 701.828125 505.875 C 699.734375 503.847656 698.675781 501.304688 698.675781 498.304688 L 698.675781 443.160156 C 698.675781 439.875 696.378906 437.585938 693.105469 437.585938 L 687.636719 437.585938 C 684.410156 437.585938 682.066406 439.929688 682.066406 443.160156 L 682.066406 498.304688 C 682.066406 505.847656 684.769531 512.382812 690.101562 517.726562 C 695.4375 523.066406 701.964844 525.773438 709.496094 525.773438 C 717.03125 525.773438 723.566406 523.054688 728.925781 517.6875 C 734.164062 512.3125 736.820312 505.792969 736.820312 498.304688 L 736.820312 443.15625 C 736.816406 439.878906 734.523438 437.585938 731.246094 437.585938 Z M 731.246094 437.585938 " fill-opacity="1" fill-rule="nonzero"/><path fill="#443a31" d="M 788.730469 480.734375 L 808.070312 445.285156 L 808.4375 444.277344 C 808.949219 441.933594 808.1875 440.339844 807.441406 439.417969 C 806.847656 438.671875 805.484375 437.425781 803.078125 437.425781 L 797.503906 437.425781 C 795.210938 437.425781 793.289062 438.695312 792.546875 440.601562 L 779.644531 464.152344 L 766.804688 440.734375 C 766.003906 438.695312 764.085938 437.425781 761.789062 437.425781 L 756.21875 437.425781 C 753.804688 437.425781 752.445312 438.675781 751.851562 439.417969 C 751.109375 440.339844 750.339844 441.929688 750.910156 444.425781 L 751.296875 445.433594 L 770.566406 480.738281 L 751.289062 515.925781 L 750.984375 516.667969 C 750.222656 519.21875 751.128906 520.964844 751.734375 521.777344 C 752.328125 522.582031 753.710938 523.9375 756.269531 523.9375 L 761.945312 523.9375 C 764.15625 523.9375 766.035156 522.679688 766.941406 520.652344 L 779.652344 497.375 L 792.324219 520.574219 C 793.261719 522.679688 795.148438 523.9375 797.359375 523.9375 L 803.039062 523.9375 C 805.582031 523.9375 806.964844 522.585938 807.5625 521.78125 C 808.175781 520.964844 809.074219 519.21875 808.277344 516.550781 Z M 788.730469 480.734375 " fill-opacity="1" fill-rule="nonzero"/><path fill="#443a31" d="M 448.554688 516.511719 L 433.457031 487.703125 C 435.347656 486.617188 437.128906 485.246094 438.761719 483.609375 C 443.527344 478.839844 445.941406 473.027344 445.941406 466.339844 L 445.941406 462.046875 C 445.941406 455.28125 443.527344 449.433594 438.761719 444.667969 C 434.074219 439.96875 428.269531 437.585938 421.511719 437.585938 L 397.191406 437.585938 C 393.914062 437.585938 391.617188 439.878906 391.617188 443.160156 L 391.617188 518.699219 C 391.617188 521.933594 393.960938 524.277344 397.191406 524.277344 L 402.65625 524.277344 C 405.828125 524.277344 408.222656 521.882812 408.222656 518.699219 L 408.222656 490.796875 L 417.066406 490.796875 L 432.628906 520.582031 C 433.570312 522.710938 435.460938 523.984375 437.683594 523.984375 L 443.363281 523.984375 C 445.914062 523.984375 447.296875 522.632812 447.890625 521.828125 C 448.496094 521.007812 449.402344 519.253906 448.636719 516.710938 C 448.617188 516.644531 448.589844 516.574219 448.554688 516.511719 Z M 429.339844 462.046875 L 429.339844 466.339844 C 429.339844 468.523438 428.636719 470.15625 426.984375 471.808594 C 425.332031 473.464844 423.695312 474.171875 421.515625 474.171875 L 408.226562 474.171875 L 408.226562 454.210938 L 421.515625 454.210938 C 423.679688 454.210938 425.453125 454.933594 426.914062 456.394531 C 428.613281 458.171875 429.339844 459.863281 429.339844 462.046875 Z M 429.339844 462.046875 " fill-opacity="1" fill-rule="nonzero"/><path fill="#443a31" d="M 196.171875 474.828125 L 194.5 474.828125 C 194.09375 474.828125 193.941406 474.625 193.941406 474.273438 L 193.941406 473.816406 C 193.941406 473.410156 193.738281 473.257812 193.382812 473.257812 C 193.230469 473.257812 193.128906 473.257812 193.078125 473.355469 C 191.199219 474.828125 189.171875 475.539062 186.9375 475.539062 C 184.246094 475.539062 181.964844 474.574219 180.035156 472.644531 C 178.105469 470.714844 177.140625 468.425781 177.140625 465.734375 L 177.140625 458.011719 C 177.140625 455.320312 178.105469 453.035156 180.035156 451.101562 C 181.914062 449.171875 184.246094 448.257812 186.9375 448.257812 C 188.8125 448.257812 190.542969 448.714844 192.0625 449.730469 C 192.164062 449.78125 192.265625 449.832031 192.46875 449.832031 C 192.824219 449.832031 192.972656 449.679688 192.972656 449.375 L 192.972656 438.503906 C 192.972656 438.09375 193.179688 437.941406 193.53125 437.941406 L 196.171875 437.941406 C 196.527344 437.941406 196.675781 438.097656 196.675781 438.503906 L 196.675781 474.273438 C 196.679688 474.628906 196.527344 474.828125 196.171875 474.828125 Z M 192.972656 458.011719 C 192.972656 456.335938 192.417969 454.914062 191.199219 453.746094 C 189.980469 452.527344 188.558594 451.96875 186.9375 451.96875 C 185.261719 451.96875 183.792969 452.527344 182.625 453.746094 C 181.457031 454.914062 180.847656 456.335938 180.847656 458.011719 L 180.847656 465.734375 C 180.847656 467.410156 181.457031 468.835938 182.625 470.054688 C 183.789062 471.222656 185.261719 471.832031 186.9375 471.832031 C 188.613281 471.832031 190.03125 471.222656 191.199219 470.054688 C 192.417969 468.835938 192.972656 467.410156 192.972656 465.734375 Z M 192.972656 458.011719 " fill-opacity="1" fill-rule="nonzero"/><path fill="#443a31" d="M 221.132812 463.550781 L 207.332031 463.550781 C 206.976562 463.550781 206.769531 463.753906 206.769531 464.109375 L 206.769531 465.6875 C 206.769531 467.414062 207.382812 468.835938 208.550781 470.003906 C 209.765625 471.222656 211.1875 471.832031 212.863281 471.832031 C 214.992188 471.832031 216.921875 471.222656 218.648438 470.003906 C 218.902344 469.800781 219.15625 469.851562 219.359375 470.105469 L 220.882812 472.289062 C 221.085938 472.542969 221.035156 472.847656 220.726562 473.050781 C 218.445312 474.726562 215.804688 475.539062 212.863281 475.539062 C 210.171875 475.539062 207.890625 474.574219 205.960938 472.644531 C 204.03125 470.714844 203.066406 468.425781 203.066406 465.683594 L 203.066406 457.554688 C 203.066406 454.964844 203.980469 452.78125 205.808594 450.949219 C 207.632812 449.171875 209.816406 448.257812 212.355469 448.257812 C 214.941406 448.257812 217.128906 449.171875 218.953125 451 C 220.78125 452.828125 221.640625 455.015625 221.640625 457.554688 L 221.640625 462.992188 C 221.640625 463.347656 221.488281 463.550781 221.132812 463.550781 Z M 217.933594 457.554688 C 217.933594 456.03125 217.425781 454.710938 216.3125 453.59375 C 215.195312 452.476562 213.878906 451.96875 212.351562 451.96875 C 210.832031 451.96875 209.511719 452.476562 208.445312 453.59375 C 207.332031 454.710938 206.769531 456.03125 206.769531 457.554688 L 206.769531 459.28125 C 206.769531 459.636719 206.976562 459.839844 207.332031 459.839844 L 217.425781 459.839844 C 217.785156 459.839844 217.933594 459.636719 217.933594 459.28125 Z M 217.933594 457.554688 " fill-opacity="1" fill-rule="nonzero"/><path fill="#443a31" d="M 27.859375 359.703125 L 27.859375 385.671875 C 27.859375 390.535156 29.539062 394.730469 33.054688 398.253906 C 36.574219 401.777344 40.597656 403.453125 45.621094 403.453125 C 50.480469 403.453125 54.671875 401.777344 58.023438 398.253906 C 61.542969 394.730469 63.382812 390.53125 63.382812 385.671875 L 63.382812 329.632812 C 63.382812 328.460938 63.886719 327.957031 65.058594 327.957031 L 73.769531 327.957031 C 74.945312 327.957031 75.613281 328.460938 75.613281 329.632812 L 75.613281 385.671875 C 75.613281 393.890625 72.597656 400.9375 66.734375 406.8125 C 60.871094 412.679688 53.832031 415.703125 45.621094 415.703125 C 37.410156 415.703125 30.207031 412.679688 24.339844 406.8125 C 18.476562 400.941406 15.628906 393.890625 15.628906 385.671875 L 15.628906 372.292969 Z M 27.859375 359.703125 " fill-opacity="1" fill-rule="nonzero"/><path fill="#443a31" d="M 270.058594 348.160156 L 256.207031 386.371094 C 255.871094 387.039062 255.535156 387.207031 254.863281 387.207031 C 254.363281 387.207031 253.859375 387.039062 253.6875 386.371094 L 232.914062 329.007812 C 232.410156 327.832031 231.742188 327.179688 230.738281 327.179688 L 221.6875 327.179688 C 220.011719 327.179688 219.339844 328.167969 220.011719 329.84375 L 249.667969 411.683594 C 250.003906 412.6875 250.507812 413.660156 251.511719 413.660156 L 258.378906 413.660156 C 259.21875 413.660156 259.886719 412.765625 260.222656 411.757812 L 280.265625 356.136719 Z M 270.058594 348.160156 " fill-opacity="1" fill-rule="nonzero"/><path fill="#443a31" d="M 396.941406 361.773438 L 396.941406 411.652344 C 396.941406 412.824219 396.269531 413.496094 395.097656 413.496094 L 386.554688 413.496094 C 385.378906 413.496094 384.707031 412.828125 384.707031 411.652344 L 384.707031 376.085938 Z M 396.941406 361.773438 " fill-opacity="1" fill-rule="nonzero"/><path fill="#443a31" d="M 475.320312 341.125 C 470.164062 339.144531 464.691406 338.179688 458.894531 338.179688 C 455.710938 338.179688 453.03125 339.183594 450.683594 341.535156 C 448.503906 343.714844 447.5 346.398438 447.5 349.589844 C 447.5 355.125 450.179688 358.648438 455.710938 360.15625 L 473.304688 364.855469 C 479.167969 366.367188 483.691406 369.554688 487.210938 374.085938 C 490.5625 378.613281 492.402344 383.820312 492.402344 389.523438 C 492.402344 396.902344 489.722656 403.109375 484.527344 408.3125 C 479.335938 413.347656 473.136719 416.03125 465.929688 416.03125 C 453.695312 416.03125 442.304688 413.007812 432.085938 406.800781 C 430.914062 406.128906 430.742188 405.289062 431.417969 404.117188 L 435.773438 396.734375 C 436.273438 395.726562 437.109375 395.726562 438.117188 396.230469 C 446.660156 401.265625 456.046875 403.78125 465.929688 403.78125 C 469.785156 403.78125 473.136719 402.4375 475.984375 399.589844 C 478.667969 396.90625 480.171875 393.546875 480.171875 389.523438 C 480.171875 386.667969 479.167969 383.984375 477.324219 381.46875 C 475.480469 378.953125 473.136719 377.613281 470.285156 376.773438 L 452.527344 371.90625 C 447.332031 370.566406 443.140625 367.710938 439.960938 363.519531 C 436.777344 359.320312 435.265625 354.628906 435.265625 349.59375 C 435.265625 343.050781 437.449219 337.511719 442.136719 332.816406 C 446.828125 328.117188 452.359375 325.941406 458.894531 325.941406 C 466.214844 325.941406 473.289062 327.191406 479.996094 329.808594 Z M 475.320312 341.125 " fill-opacity="1" fill-rule="nonzero"/><path fill="#443a31" d="M 527.144531 309.980469 C 525.636719 311.65625 523.625 312.496094 521.28125 312.496094 C 519.101562 312.496094 517.09375 311.65625 515.582031 309.980469 C 513.90625 308.46875 513.070312 306.453125 513.070312 304.277344 C 513.070312 301.929688 513.910156 299.914062 515.582031 298.40625 C 517.09375 296.726562 519.101562 296.054688 521.28125 296.054688 C 523.625 296.054688 525.636719 296.726562 527.144531 298.40625 C 528.820312 299.917969 529.65625 301.929688 529.65625 304.277344 C 529.65625 306.457031 528.820312 308.472656 527.144531 309.980469 Z M 525.636719 413.328125 L 517.09375 413.328125 C 515.75 413.328125 515.25 412.65625 515.25 411.484375 L 515.25 329.609375 C 515.25 328.433594 515.75 327.933594 517.09375 327.933594 L 525.636719 327.933594 C 526.804688 327.933594 527.476562 328.4375 527.476562 329.609375 L 527.476562 411.484375 C 527.480469 412.65625 526.808594 413.328125 525.636719 413.328125 Z M 525.636719 413.328125 " fill-opacity="1" fill-rule="nonzero"/><path fill="#443a31" d="M 675.339844 375.9375 L 629.765625 375.9375 C 628.59375 375.9375 627.921875 376.609375 627.921875 377.78125 L 627.921875 382.980469 C 627.921875 388.683594 629.933594 393.382812 633.789062 397.242188 C 637.808594 401.265625 642.5 403.28125 648.027344 403.28125 C 655.066406 403.28125 661.433594 401.265625 667.132812 397.242188 C 667.972656 396.570312 668.808594 396.738281 669.480469 397.578125 L 674.503906 404.792969 C 675.175781 405.628906 675.007812 406.636719 674.003906 407.308594 C 666.464844 412.84375 657.75 415.53125 648.03125 415.53125 C 639.148438 415.53125 631.613281 412.339844 625.246094 405.964844 C 618.878906 399.589844 615.695312 392.042969 615.695312 382.980469 L 615.695312 356.136719 C 615.695312 347.578125 618.710938 340.367188 624.742188 334.324219 C 630.773438 328.453125 637.980469 325.433594 646.355469 325.433594 C 654.902344 325.433594 662.105469 328.453125 668.136719 334.492188 C 674.167969 340.53125 677.019531 347.746094 677.019531 356.136719 L 677.019531 374.085938 C 677.015625 375.269531 676.515625 375.9375 675.339844 375.9375 Z M 664.78125 356.140625 C 664.78125 351.105469 663.105469 346.742188 659.421875 343.050781 C 655.738281 339.363281 651.382812 337.683594 646.351562 337.683594 C 641.324219 337.683594 636.96875 339.359375 633.449219 343.050781 C 629.761719 346.742188 627.917969 351.105469 627.917969 356.140625 L 627.917969 361.847656 C 627.917969 363.019531 628.589844 363.691406 629.761719 363.691406 L 663.105469 363.691406 C 664.28125 363.691406 664.78125 363.019531 664.78125 361.847656 Z M 664.78125 356.140625 " fill-opacity="1" fill-rule="nonzero"/><path fill="#443a31" d="M 201.050781 353.132812 L 201.050781 411.671875 C 201.050781 412.847656 200.382812 413.515625 199.210938 413.515625 L 190.664062 413.515625 C 189.324219 413.515625 188.820312 412.847656 188.820312 411.671875 L 188.820312 353.132812 Z M 201.050781 353.132812 " fill-opacity="1" fill-rule="nonzero"/><path fill="#443a31" d="M 303.789062 378.417969 L 303.789062 356.296875 C 303.789062 347.742188 306.808594 340.527344 312.839844 334.484375 C 318.871094 328.613281 326.074219 325.59375 334.457031 325.59375 C 343 325.59375 350.207031 328.613281 356.238281 334.652344 C 362.269531 340.691406 365.121094 347.910156 365.121094 356.292969 L 365.121094 374.25 C 365.121094 375.421875 364.621094 376.09375 363.445312 376.09375 L 317.871094 376.09375 C 316.695312 376.09375 316.027344 376.765625 316.027344 377.941406 L 316.027344 383.140625 C 316.027344 384.667969 316.171875 386.125 316.457031 387.511719 Z M 352.890625 356.296875 C 352.890625 351.261719 351.210938 346.902344 347.527344 343.214844 C 343.835938 339.519531 339.480469 337.84375 334.457031 337.84375 C 329.429688 337.84375 325.070312 339.519531 321.554688 343.214844 C 317.871094 346.902344 316.027344 351.265625 316.027344 356.296875 L 316.027344 362.003906 C 316.027344 363.175781 316.695312 363.847656 317.871094 363.847656 L 351.210938 363.847656 C 352.386719 363.847656 352.890625 363.175781 352.890625 362.003906 Z M 352.890625 356.296875 " fill-opacity="1" fill-rule="nonzero"/><path fill="#443a31" d="M 571.929688 350.6875 L 571.929688 385.03125 C 571.929688 390.402344 573.769531 394.933594 577.457031 398.621094 C 581.144531 402.3125 585.667969 404.15625 591.03125 404.15625 C 595.386719 404.15625 599.910156 402.8125 604.4375 399.964844 C 605.605469 399.292969 606.277344 399.460938 607.117188 400.46875 L 611.976562 407.347656 C 612.648438 408.351562 612.476562 409.191406 611.472656 409.863281 C 605.441406 414.226562 598.570312 416.40625 591.03125 416.40625 C 582.320312 416.40625 575.113281 413.386719 568.910156 407.175781 C 562.710938 400.96875 559.691406 393.753906 559.691406 385.03125 L 559.691406 346.4375 Z M 571.929688 350.6875 " fill-opacity="1" fill-rule="nonzero"/><path fill="#443a31" d="M 149.808594 390.351562 L 149.808594 355.878906 C 149.808594 351.011719 148.132812 346.820312 144.613281 343.464844 C 141.09375 339.941406 136.90625 338.261719 132.046875 338.261719 C 127.1875 338.261719 123 339.941406 119.480469 343.464844 C 116.128906 346.820312 114.285156 351.011719 114.285156 355.878906 L 114.285156 411.917969 C 114.285156 413.085938 113.78125 413.761719 112.441406 413.761719 L 103.898438 413.761719 C 102.722656 413.761719 102.054688 413.089844 102.054688 411.917969 L 102.054688 355.878906 C 102.054688 347.660156 105.070312 340.609375 110.9375 334.738281 C 116.796875 328.867188 123.835938 326.011719 132.046875 326.011719 C 140.257812 326.011719 147.296875 328.863281 153.15625 334.738281 C 159.023438 340.609375 162.039062 347.660156 162.039062 355.878906 L 162.039062 383.617188 Z M 149.808594 390.351562 " fill-opacity="1" fill-rule="nonzero"/><path fill="#009fe3" d="M 657.398438 290.320312 C 655.675781 292.480469 653.804688 295.9375 651.933594 298.097656 C 649.777344 299.96875 646.902344 304.4375 644.886719 306.160156 C 644.886719 306.59375 643.59375 308.03125 643.59375 308.03125 C 642.878906 310.050781 642.296875 309.617188 641.296875 310.480469 C 639.710938 312.066406 637.984375 312.210938 636.835938 311.347656 C 634.386719 309.761719 638.417969 304.144531 640.429688 301.839844 C 640.714844 301.410156 640.714844 301.121094 640.714844 300.691406 C 641.292969 299.683594 641.722656 298.53125 642.296875 297.667969 C 642.875 297.089844 643.304688 297.089844 643.738281 296.804688 C 643.59375 295.792969 644.886719 294.359375 645.175781 293.492188 C 645.894531 292.628906 645.609375 291.1875 646.472656 290.324219 C 647.621094 289.316406 647.910156 288.59375 648.480469 287.300781 C 649.0625 287.300781 649.925781 286.292969 649.925781 286.292969 C 650.210938 284.996094 650.5 283.558594 651.074219 282.402344 C 651.074219 282.402344 651.503906 281.828125 651.792969 281.828125 C 652.941406 280.53125 653.085938 278.515625 654.242188 277.359375 C 655.101562 276.785156 656.828125 276.5 657.980469 276.785156 C 659.992188 277.359375 662.296875 278.226562 664.019531 280.820312 C 664.304688 284.992188 659.992188 287.726562 657.398438 290.320312 Z M 657.398438 290.320312 " fill-opacity="1" fill-rule="nonzero"/><path fill="#009fe3" d="M 410.085938 325.636719 C 404.464844 325.636719 401.234375 328.222656 397.074219 335.515625 L 396.832031 335.515625 L 396.832031 327.183594 L 373.9375 327.183594 L 373.9375 334.476562 L 380.519531 334.476562 C 383.4375 334.476562 384.414062 335.105469 384.414062 338.128906 L 384.710938 375.601562 L 396.941406 361.21875 L 397.109375 346.378906 C 397.109375 339.664062 401.414062 331.09375 409.949219 331.09375 C 411.511719 331.09375 413.144531 331.296875 414.289062 332.546875 C 410.539062 332.648438 407.398438 334.835938 407.398438 338.796875 C 407.398438 343.070312 410.722656 345.46875 414.78125 345.46875 C 419.882812 345.46875 422.691406 341.597656 422.691406 336.90625 C 422.691406 329.292969 416.75 325.636719 410.085938 325.636719 Z M 410.085938 325.636719 " fill-opacity="1" fill-rule="nonzero"/><path fill="#009fe3" d="M 479.992188 329.800781 C 483.832031 329.800781 486.855469 327.421875 488.710938 322.914062 L 495.660156 322.914062 L 495.660156 367.253906 L 487.519531 367.253906 C 486.195312 356.117188 481.9375 347.683594 475.316406 341.128906 Z M 479.992188 329.800781 " fill-opacity="1" fill-rule="nonzero"/><path fill="#009fe3" d="M 188.976562 295.992188 L 200.917969 295.992188 L 200.917969 311.570312 L 188.976562 311.570312 Z M 188.976562 295.992188 " fill-opacity="1" fill-rule="nonzero"/><path fill="#009fe3" d="M 199.335938 323.011719 C 195.210938 329.261719 191.828125 331.5 179.34375 332.488281 L 179.34375 336.453125 C 182.464844 336.453125 187.191406 336.027344 188.511719 339.824219 C 188.960938 341.175781 188.832031 339.683594 188.824219 353.230469 L 201.054688 353.230469 C 201.054688 339.683594 201.484375 330.304688 202.800781 323.011719 Z M 199.335938 323.011719 " fill-opacity="1" fill-rule="nonzero"/><path fill="#009fe3" d="M 288.792969 333.046875 C 294.277344 333.046875 294.277344 333.21875 295.992188 333.21875 C 297.191406 333.21875 298.558594 332.019531 298.558594 330.128906 C 298.558594 328.417969 297.191406 327.21875 295.992188 327.21875 C 294.277344 327.21875 293.25 328.074219 282.117188 328.074219 L 281.605469 328.074219 C 269.957031 328.074219 269.617188 327.21875 267.902344 327.21875 C 266.535156 327.21875 265.160156 328.417969 265.160156 330.128906 C 265.160156 332.019531 266.535156 333.21875 267.902344 333.21875 C 269.613281 333.21875 269.785156 333.046875 275.609375 333.046875 L 270.058594 348.78125 L 280.269531 356.628906 Z M 288.792969 333.046875 " fill-opacity="1" fill-rule="nonzero"/><path fill="#009fe3" d="M 328.269531 402.023438 C 334.363281 405.765625 341.472656 407.230469 347.511719 407.230469 C 359.492188 407.230469 364.9375 402.867188 366.03125 402.867188 C 366.933594 402.867188 366.933594 403.957031 366.933594 404.324219 C 366.933594 405.230469 353.136719 415.953125 338.4375 415.953125 C 323.550781 415.953125 303.792969 408.769531 303.792969 378.414062 L 316.457031 387.511719 C 318.90625 394.246094 323.207031 398.914062 328.269531 402.023438 " fill-opacity="1" fill-rule="nonzero"/><path fill="#009fe3" d="M 559.695312 346.453125 L 559.695312 339.914062 C 555.5 339.589844 550.355469 339.914062 546.320312 341.53125 L 545.191406 340.722656 C 547.128906 335.226562 553.261719 331.503906 559.398438 331.503906 C 562.140625 329.890625 561.980469 314.8125 564.242188 312.066406 C 565.210938 310.933594 568.472656 308.832031 570.902344 306.730469 C 572.035156 308.507812 568.964844 330.054688 572.035156 330.539062 C 583.011719 332.476562 594.4375 332.964844 604.769531 329.730469 C 606.867188 331.347656 604.769531 333.289062 603.800781 334.742188 C 595.078125 342.824219 583.234375 339.429688 571.929688 339.757812 L 571.929688 350.699219 Z M 559.695312 346.453125 " fill-opacity="1" fill-rule="nonzero"/><path fill="#009fe3" d="M 27.875 327.972656 L 3.910156 327.972656 L 3.910156 337.136719 L 15.628906 337.136719 L 15.628906 372.292969 L 27.859375 359.703125 Z M 27.875 327.972656 " fill-opacity="1" fill-rule="nonzero"/><path fill="#009fe3" d="M 162.921875 407.425781 C 161.707031 403.714844 161.703125 392.34375 161.703125 382.992188 L 149.636719 389.726562 L 149.949219 402.910156 C 149.949219 408.421875 150.707031 412.96875 151.804688 416.554688 C 159.25 413.796875 166.851562 411.429688 173.09375 409.445312 L 173.09375 405.121094 C 171.015625 406.53125 166.242188 407.300781 162.921875 407.425781 Z M 162.921875 407.425781 " fill-opacity="1" fill-rule="nonzero"/></svg>