<svg xmlns="http://www.w3.org/2000/svg" xmlns:xlink="http://www.w3.org/1999/xlink" width="1080" zoomAndPan="magnify" viewBox="0 0 810 809.999993" height="1080" preserveAspectRatio="xMidYMid meet" version="1.0"><rect x="-81" width="972" fill="#ffffff" y="-80.999999" height="971.999992" fill-opacity="1"/><rect x="-81" width="972" fill="#ffffff" y="-80.999999" height="971.999992" fill-opacity="1"/><path fill="#ae2573" d="M 230.640625 270 L 0.304688 270 L 0.304688 429.109375 C 0.304688 495.367188 49.878906 540 115.242188 540 C 132.875 540 149.371094 536.734375 164.085938 530.683594 L 164.085938 530.710938 L 191.546875 519.238281 L 230.640625 537.085938 Z M 115.324219 481.113281 L 64.375 457.867188 L 64.375 321.246094 L 115.324219 321.246094 Z M 181.339844 431.324219 L 181.339844 458.433594 L 131.605469 481.140625 L 131.605469 454.003906 Z M 181.339844 431.324219 " fill-opacity="1" fill-rule="nonzero"/><path fill="#000000" d="M 480.015625 375.433594 C 473.964844 363.472656 466 342.871094 464.355469 321.433594 L 451.800781 321.433594 C 451.800781 321.433594 454.769531 360.046875 473.507812 385.804688 L 486.546875 385.804688 C 505.257812 360.046875 508.230469 321.433594 508.230469 321.433594 L 495.699219 321.433594 C 494.054688 342.871094 486.089844 363.5 480.015625 375.433594 M 736.082031 295.675781 L 723.203125 295.675781 L 723.203125 321.40625 L 715.375 321.40625 L 715.375 331.234375 L 723.203125 331.234375 L 723.203125 367.335938 C 723.203125 377.21875 728.332031 385.777344 741.105469 385.777344 L 747.960938 385.777344 L 747.960938 374.328125 L 743.316406 374.328125 C 737.917969 374.328125 736.082031 371.683594 736.082031 366.550781 L 736.082031 331.234375 L 747.960938 331.234375 L 747.960938 321.40625 L 736.082031 321.40625 Z M 326.382812 354.859375 C 326.382812 366.820312 319.011719 374.542969 307.59375 374.542969 C 296.171875 374.542969 288.800781 366.820312 288.800781 354.859375 L 288.800781 295.730469 L 275.652344 295.730469 L 275.652344 355.507812 C 275.652344 364.3125 278.890625 372.222656 284.804688 377.8125 C 290.609375 383.292969 298.683594 386.316406 307.59375 386.289062 C 314.855469 386.289062 321.578125 384.289062 326.949219 380.566406 L 339.507812 386.289062 L 339.507812 295.730469 L 326.382812 295.730469 Z M 402.09375 326.863281 C 398.339844 323.242188 392.046875 320.464844 382.8125 320.464844 C 376.738281 320.464844 371.148438 322.785156 367.640625 325.269531 L 357.109375 320.464844 L 357.109375 385.777344 L 369.988281 385.777344 L 369.988281 346.789062 C 369.988281 336.824219 375.632812 332.53125 382.8125 332.53125 C 389.996094 332.53125 395.640625 336.824219 395.667969 346.789062 L 395.667969 385.777344 L 408.546875 385.777344 L 408.546875 344.898438 C 408.546875 337.714844 407.03125 331.667969 402.09375 326.863281 M 594.816406 346.84375 C 594.816406 336.851562 600.460938 332.585938 607.644531 332.585938 C 610.152344 332.585938 612.476562 333.097656 614.445312 334.207031 L 621.277344 323.136719 C 617.742188 321.542969 613.230469 320.515625 607.644531 320.515625 C 601.566406 320.515625 595.980469 322.839844 592.441406 325.324219 L 581.9375 320.515625 L 581.9375 385.828125 L 594.816406 385.828125 Z M 437.542969 321.433594 L 424.691406 321.433594 L 424.691406 385.804688 L 437.542969 385.804688 Z M 437.542969 295.675781 L 424.691406 295.675781 L 424.691406 308.527344 L 437.542969 308.527344 Z M 688.371094 385.777344 L 701.226562 385.777344 L 701.226562 321.40625 L 688.371094 321.40625 Z M 688.371094 308.554688 L 701.226562 308.554688 L 701.226562 295.675781 L 688.371094 295.675781 Z M 489.355469 511.027344 L 502.207031 511.027344 L 502.207031 446.660156 L 489.355469 446.660156 Z M 489.355469 433.753906 L 502.207031 433.753906 L 502.207031 420.875 L 489.355469 420.875 Z M 529.371094 348.300781 C 529.425781 346.410156 529.53125 344.871094 529.773438 343.492188 C 530.019531 342.144531 530.394531 340.957031 531.042969 339.472656 C 532.933594 334.960938 537.847656 332.179688 543.894531 332.179688 C 548.214844 332.179688 553.914062 332.964844 556.503906 336.71875 C 557.070312 337.554688 557.964844 339.769531 557.179688 342.253906 C 556.234375 345.222656 553.265625 347.894531 548.324219 349.703125 C 541.734375 352.132812 534.230469 353.347656 529.425781 353.863281 L 529.371094 353.863281 Z M 545.515625 386.722656 C 551.023438 386.722656 555.398438 385.910156 559.285156 384.183594 C 562.742188 382.617188 565.902344 380.296875 569.519531 376.675781 L 561.878906 369.441406 C 559.582031 371.761719 557.34375 373.273438 554.832031 374.191406 C 552.347656 375.136719 549.566406 375.542969 545.757812 375.542969 C 537.820312 375.542969 532.339844 371.546875 530.261719 364.257812 L 530.261719 364.230469 L 530.289062 364.230469 C 536.714844 363.367188 548.511719 362.339844 558.394531 356.992188 C 563.199219 354.375 566.738281 351.351562 568.359375 346.949219 C 569.628906 343.519531 570.167969 339.226562 569.085938 335.339844 C 567.628906 330.046875 565.144531 326.941406 561.3125 324.378906 C 556.964844 321.460938 550.941406 320.488281 543.867188 320.488281 C 539.574219 320.488281 535.660156 321.246094 532.285156 322.703125 C 528.964844 324.136719 526.050781 326.347656 523.753906 329.15625 C 521.433594 331.992188 519.675781 335.476562 518.488281 339.523438 C 517.300781 343.628906 516.679688 348.328125 516.679688 353.539062 C 516.679688 365.09375 519.515625 373.789062 525.078125 379.378906 C 529.9375 384.265625 536.820312 386.722656 545.515625 386.722656 M 353.949219 479.113281 L 353.925781 479.113281 L 353.925781 473.554688 C 353.976562 471.664062 354.085938 470.125 354.300781 468.773438 C 354.546875 467.425781 354.921875 466.234375 355.570312 464.722656 C 357.460938 460.214844 362.375 457.433594 368.421875 457.433594 C 372.742188 457.433594 378.441406 458.21875 381.03125 461.996094 C 381.597656 462.832031 382.488281 465.046875 381.707031 467.503906 C 380.761719 470.503906 377.792969 473.148438 372.878906 474.957031 C 366.289062 477.386719 358.785156 478.601562 353.949219 479.113281 M 382.921875 482.246094 C 387.726562 479.628906 391.265625 476.605469 392.886719 472.203125 C 394.152344 468.773438 394.695312 464.480469 393.613281 460.59375 C 392.15625 455.300781 389.671875 452.195312 385.839844 449.632812 C 381.464844 446.714844 375.46875 445.742188 368.394531 445.742188 C 364.101562 445.742188 360.1875 446.5 356.8125 447.957031 C 353.492188 449.386719 350.574219 451.601562 348.28125 454.410156 C 345.960938 457.21875 344.203125 460.726562 343.015625 464.804688 C 341.828125 468.910156 341.207031 473.605469 341.207031 478.789062 C 341.207031 490.347656 344.015625 499.039062 349.605469 504.628906 C 354.464844 509.515625 361.347656 511.972656 370.042969 511.972656 C 375.550781 511.972656 379.925781 511.164062 383.8125 509.4375 C 387.269531 507.898438 390.457031 505.574219 394.046875 501.929688 L 386.40625 494.695312 C 384.109375 497.015625 381.867188 498.527344 379.359375 499.472656 C 376.875 500.390625 374.09375 500.824219 370.285156 500.796875 C 362.347656 500.796875 356.867188 496.800781 354.816406 489.535156 L 354.789062 489.484375 L 354.84375 489.484375 C 361.269531 488.617188 373.039062 487.59375 382.921875 482.246094 M 602.054688 479.113281 L 602.027344 479.113281 L 602.027344 473.554688 C 602.082031 471.664062 602.1875 470.125 602.40625 468.773438 C 602.648438 467.425781 603.027344 466.234375 603.675781 464.722656 C 605.5625 460.214844 610.476562 457.433594 616.527344 457.433594 C 620.847656 457.433594 626.542969 458.21875 629.136719 461.996094 C 629.703125 462.832031 630.59375 465.046875 629.808594 467.503906 C 628.863281 470.503906 625.894531 473.148438 620.953125 474.957031 C 614.367188 477.386719 606.859375 478.601562 602.054688 479.113281 M 631.023438 482.246094 C 635.832031 479.628906 639.367188 476.605469 640.988281 472.203125 C 642.257812 468.773438 642.796875 464.480469 641.71875 460.59375 C 640.257812 455.300781 637.773438 452.222656 633.941406 449.632812 C 629.566406 446.714844 623.574219 445.742188 616.5 445.742188 C 612.207031 445.742188 608.316406 446.5 604.917969 447.957031 C 601.59375 449.386719 598.679688 451.601562 596.382812 454.410156 C 594.0625 457.246094 592.308594 460.726562 591.117188 464.804688 C 589.929688 468.910156 589.308594 473.605469 589.308594 478.789062 C 589.308594 490.347656 592.117188 499.039062 597.707031 504.628906 C 602.566406 509.515625 609.453125 511.972656 618.144531 511.972656 C 623.652344 511.972656 628.027344 511.164062 631.917969 509.4375 C 635.398438 507.871094 638.53125 505.574219 642.148438 501.929688 L 634.507812 494.695312 C 632.214844 497.015625 629.972656 498.527344 627.460938 499.472656 C 624.976562 500.390625 622.195312 500.824219 618.390625 500.796875 C 610.449219 500.796875 604.941406 496.800781 602.890625 489.535156 L 602.890625 489.484375 L 602.945312 489.484375 C 609.371094 488.617188 621.144531 487.59375 631.023438 482.246094 M 769.425781 353.835938 L 769.425781 348.300781 C 769.480469 346.410156 769.589844 344.871094 769.804688 343.492188 C 770.046875 342.144531 770.425781 340.957031 771.074219 339.445312 C 772.964844 334.933594 777.878906 332.152344 783.925781 332.152344 C 788.246094 332.152344 793.941406 332.9375 796.535156 336.71875 C 797.101562 337.554688 797.992188 339.769531 797.210938 342.226562 C 796.265625 345.222656 793.296875 347.867188 788.355469 349.703125 C 781.765625 352.132812 774.261719 353.347656 769.453125 353.835938 Z M 794.859375 374.191406 C 792.378906 375.109375 789.597656 375.542969 785.789062 375.542969 C 777.851562 375.542969 772.34375 371.546875 770.289062 364.257812 L 770.289062 364.203125 L 770.34375 364.203125 C 776.769531 363.339844 788.542969 362.3125 798.425781 356.96875 C 803.230469 354.347656 806.769531 351.324219 808.386719 346.949219 C 809.65625 343.519531 810.195312 339.226562 809.117188 335.3125 C 807.660156 330.019531 805.175781 326.941406 801.339844 324.378906 C 796.992188 321.460938 790.972656 320.464844 783.898438 320.464844 C 779.605469 320.464844 775.691406 321.21875 772.316406 322.675781 C 768.996094 324.109375 766.078125 326.320312 763.785156 329.15625 C 761.460938 331.964844 759.707031 335.476562 758.519531 339.523438 C 757.332031 343.628906 756.710938 348.328125 756.710938 353.511719 C 756.710938 365.066406 759.519531 373.761719 765.105469 379.351562 C 769.96875 384.238281 776.851562 386.695312 785.546875 386.722656 C 791.054688 386.722656 795.429688 385.910156 799.316406 384.15625 C 802.773438 382.617188 805.957031 380.296875 809.550781 376.648438 L 801.90625 369.414062 C 799.613281 371.734375 797.371094 373.246094 794.859375 374.191406 M 656.78125 347.921875 L 646.683594 347.03125 C 639.882812 346.382812 637.855469 343.46875 637.855469 339.605469 C 637.855469 334.746094 641.769531 331.316406 649.464844 331.316406 C 655.515625 331.316406 661.183594 332.585938 665.234375 336.042969 L 673.359375 327.753906 C 667.421875 322.515625 659.214844 320.488281 649.628906 320.488281 C 636.261719 320.488281 625.542969 327.644531 625.515625 340.253906 C 625.515625 351.621094 632.457031 357.101562 644.445312 358.128906 L 654.675781 359.019531 C 660.859375 359.53125 663.261719 362.339844 663.261719 366.6875 C 663.261719 372.789062 657.078125 375.597656 649.25 375.625 C 642.933594 375.625 636.019531 374.21875 630.808594 368.847656 L 622.386719 377.40625 C 629.945312 384.9375 638.773438 386.722656 649.25 386.722656 C 664.503906 386.722656 675.871094 379.699219 675.871094 366.175781 C 675.871094 354.699219 668.796875 348.949219 656.808594 347.921875 M 316.152344 490.671875 C 316.125 495.261719 311.832031 500.257812 304.109375 500.257812 C 293.632812 500.257812 287.828125 493.316406 287.828125 482.328125 L 287.828125 473.390625 C 287.964844 469.476562 288.207031 467.585938 289.476562 464.671875 C 291.5 459.890625 296.765625 457.488281 302.273438 457.515625 C 310.15625 457.515625 316.152344 460.054688 316.152344 466.722656 C 316.179688 472.714844 316.179688 484.675781 316.152344 490.671875 M 316.152344 448.441406 C 312.480469 446.824219 307.863281 445.90625 302.21875 445.878906 C 283.671875 445.878906 275.082031 457.867188 275.109375 478.546875 C 275.109375 502.902344 287.855469 511.351562 303.867188 511.351562 C 309.832031 511.351562 314.367188 509.328125 318.285156 506.464844 L 329.03125 511.351562 L 329.03125 420.902344 L 316.152344 420.902344 Z M 447.234375 492.589844 L 447.234375 420.902344 L 434.355469 420.902344 L 434.355469 493.316406 C 434.355469 502.792969 439.648438 511.003906 451.90625 511.003906 L 479.339844 511.003906 L 479.339844 500.039062 L 454.175781 500.039062 C 448.992188 500.039062 447.234375 497.503906 447.234375 492.5625 M 533.796875 491.804688 L 533.796875 420.902344 L 520.945312 420.902344 L 520.945312 492.589844 C 520.945312 502.46875 526.074219 511.027344 538.847656 511.027344 L 545.679688 511.027344 L 545.679688 499.582031 L 541.0625 499.582031 C 535.660156 499.582031 533.824219 496.933594 533.796875 491.804688 M 570.195312 491.804688 L 570.195312 420.902344 L 557.34375 420.902344 L 557.34375 492.589844 C 557.34375 502.46875 562.472656 511.027344 575.242188 511.027344 L 582.074219 511.027344 L 582.074219 499.582031 L 577.457031 499.582031 C 572.058594 499.582031 570.222656 496.933594 570.195312 491.804688 M 798.722656 292.382812 L 769.347656 305.773438 L 769.347656 317.035156 L 798.722656 303.613281 Z M 798.722656 292.382812 " fill-opacity="1" fill-rule="nonzero"/></svg>