<svg xmlns="http://www.w3.org/2000/svg" xmlns:xlink="http://www.w3.org/1999/xlink" width="1080" zoomAndPan="magnify" viewBox="0 0 810 809.999993" height="1080" preserveAspectRatio="xMidYMid meet" version="1.0"><rect x="-81" width="972" fill="#ffffff" y="-80.999999" height="971.999992" fill-opacity="1"/><rect x="-81" width="972" fill="#ffffff" y="-80.999999" height="971.999992" fill-opacity="1"/><path fill="#8a1438" d="M 191.429688 332.597656 L 229.347656 332.597656 L 229.347656 336.035156 L 217.570312 336.035156 L 217.570312 406.535156 C 217.570312 426.8125 214.011719 448.394531 205.347656 462.414062 L 198.195312 452.625 C 205.308594 436.207031 203.246094 415.605469 203.386719 406.535156 L 203.386719 336.035156 L 191.429688 336.035156 Z M 191.429688 332.597656 " fill-opacity="1" fill-rule="nonzero"/><path fill="#8a1438" d="M 131.34375 341.675781 L 132.8125 341.675781 C 136.75 381.128906 144.910156 415.101562 172.675781 453.960938 C 189.953125 478.140625 213.171875 512.542969 213.171875 512.542969 L 237.300781 512.542969 C 237.300781 512.542969 202.429688 468.398438 189.054688 448.394531 C 157.472656 401.175781 146.601562 363.019531 144.828125 285.3125 L 144.828125 282.6875 L 124.527344 282.6875 L 124.527344 285.3125 C 125.171875 349.667969 117.875 377.695312 108.09375 401.683594 C 101.34375 418.21875 88.03125 439.347656 71.828125 455.699219 C 71.84375 458.585938 73.261719 465.042969 74.507812 469.257812 C 85.722656 454.652344 104.394531 446.597656 120.777344 446.597656 C 132.703125 446.597656 143.65625 449.679688 153.449219 458.59375 C 157.339844 462.140625 164.066406 470.140625 175.265625 488.652344 C 163.273438 501.269531 146.507812 509.707031 126.539062 509.707031 C 98.589844 509.707031 85.847656 499.308594 76.34375 485.792969 C 67.667969 473.429688 63.191406 455.058594 63.191406 426.546875 L 63.191406 336.035156 L 73.9375 336.035156 L 73.9375 332.589844 L -3.726562 332.589844 L -3.726562 336.035156 L 7.410156 336.035156 L 7.410156 402.261719 C 7.410156 439.882812 15.535156 460.835938 28.722656 479.011719 C 42.175781 497.550781 70.203125 518.316406 122.410156 518.316406 C 149.988281 518.316406 168.960938 506.257812 179.453125 495.644531 C 182.253906 500.445312 185.757812 506.53125 189.039062 512.542969 L 207.210938 512.542969 C 207.210938 512.542969 195.078125 494.21875 176.972656 468.101562 C 157.710938 440.328125 139.15625 436.699219 120.800781 436.699219 C 111.078125 436.699219 99.605469 441.226562 92.984375 445.917969 L 92.433594 445.367188 C 104.5 431.5625 112.238281 415.109375 117.070312 402.789062 C 122.164062 389.792969 130.386719 362.464844 131.34375 341.675781 " fill-opacity="1" fill-rule="nonzero"/><path fill="#000000" d="M 348.339844 414.164062 C 369.800781 414.164062 381.628906 404.019531 381.628906 385.605469 L 381.628906 332.457031 L 369.609375 332.457031 L 369.609375 385.382812 C 369.609375 397.941406 362.332031 404.570312 348.5625 404.570312 C 334.789062 404.570312 327.511719 397.941406 327.511719 385.382812 L 327.511719 332.457031 L 314.605469 332.457031 L 314.605469 385.605469 C 314.605469 404.019531 326.578125 414.164062 348.339844 414.164062 " fill-opacity="1" fill-rule="nonzero"/><path fill="#000000" d="M 447.382812 413.058594 L 447.382812 368.328125 C 447.382812 359.890625 441.117188 355.058594 430.199219 355.058594 C 419.753906 355.058594 411.152344 359.050781 407.242188 362.933594 L 407.242188 355.808594 L 395.894531 356.296875 L 395.894531 413.058594 L 407.796875 413.058594 L 407.796875 370.605469 C 411.398438 365.738281 419.226562 363.199219 425.160156 363.199219 C 432.109375 363.199219 435.480469 365.640625 435.480469 370.652344 L 435.480469 413.058594 Z M 447.382812 413.058594 " fill-opacity="1" fill-rule="nonzero"/><path fill="#000000" d="M 460.757812 347.472656 L 472.546875 347.472656 L 472.546875 336.554688 L 460.757812 336.554688 Z M 460.757812 347.472656 " fill-opacity="1" fill-rule="nonzero"/><path fill="#000000" d="M 460.757812 413.058594 L 472.546875 413.058594 L 472.546875 355.933594 L 460.757812 356.171875 Z M 460.757812 413.058594 " fill-opacity="1" fill-rule="nonzero"/><path fill="#000000" d="M 513.648438 413.058594 L 535.578125 356.882812 L 535.859375 356.164062 L 525.550781 356.164062 L 508.644531 401.570312 L 492.195312 356.511719 L 492.070312 356.164062 L 479.535156 356.164062 L 501.292969 413.058594 Z M 513.648438 413.058594 " fill-opacity="1" fill-rule="nonzero"/><path fill="#000000" d="M 549.804688 377.324219 C 552.195312 363.800781 560.222656 361.765625 564.839844 361.765625 C 576.855469 361.765625 578.667969 372.238281 578.832031 377.324219 Z M 589.175781 407.679688 L 589.175781 398.847656 L 588.277344 399.738281 C 585.023438 402.972656 577.574219 406.238281 569.644531 406.238281 C 556.117188 406.238281 549.261719 399.039062 549.261719 384.828125 L 549.261719 384.253906 L 590.027344 384.253906 L 590.074219 383.773438 C 590.183594 382.644531 590.183594 380.285156 590.183594 379.402344 C 590.183594 363.933594 580.945312 355.058594 564.839844 355.058594 C 551.164062 355.058594 537.359375 364.230469 537.359375 384.722656 C 537.359375 402.882812 548.660156 414.164062 566.851562 414.164062 C 579.789062 414.164062 586.640625 409.742188 588.980469 407.84375 Z M 589.175781 407.679688 " fill-opacity="1" fill-rule="nonzero"/><path fill="#000000" d="M 612.445312 373.417969 C 615.105469 367.117188 621.421875 364.863281 626.449219 364.863281 C 629.375 364.863281 632.144531 365.367188 633.328125 366.109375 L 634.136719 366.621094 L 634.136719 357.007812 L 633.957031 356.847656 C 632.6875 355.734375 630.421875 355.167969 627.230469 355.167969 C 621.394531 355.167969 615.535156 358.730469 611.769531 364.503906 L 611.769531 355.808594 L 600.542969 356.296875 L 600.542969 413.058594 L 612.445312 413.058594 Z M 612.445312 373.417969 " fill-opacity="1" fill-rule="nonzero"/><path fill="#000000" d="M 661.394531 379.792969 C 654.15625 377.398438 649.789062 375.957031 649.789062 370.316406 C 649.789062 365.65625 654.132812 362.761719 661.113281 362.761719 C 666.578125 362.761719 672.503906 364.726562 675.949219 366.679688 L 676.738281 367.125 L 676.738281 359.058594 L 676.484375 358.902344 C 673.640625 357.128906 667.589844 355.058594 659.886719 355.058594 C 647.078125 355.058594 639.117188 361.367188 639.117188 371.535156 C 639.117188 381.425781 646.8125 385.390625 655.121094 388.210938 L 656.761719 388.789062 C 663.710938 391.253906 668.300781 392.878906 668.300781 398.566406 C 668.300781 404.027344 664.304688 406.683594 656.085938 406.683594 C 649.515625 406.683594 642.75 403.679688 638.96875 400.703125 L 638.109375 400.027344 L 638.109375 408.554688 L 638.292969 408.710938 C 641.367188 411.417969 648.847656 414.164062 657.199219 414.164062 C 671.324219 414.164062 679.417969 408.117188 679.417969 397.570312 C 679.417969 386.644531 670.898438 382.925781 661.394531 379.792969 " fill-opacity="1" fill-rule="nonzero"/><path fill="#000000" d="M 702.347656 336.554688 L 690.554688 336.554688 L 690.554688 347.472656 L 702.347656 347.472656 Z M 702.347656 336.554688 " fill-opacity="1" fill-rule="nonzero"/><path fill="#000000" d="M 702.347656 355.933594 L 690.554688 356.171875 L 690.554688 413.058594 L 702.347656 413.058594 Z M 702.347656 355.933594 " fill-opacity="1" fill-rule="nonzero"/><path fill="#000000" d="M 735.25 414.164062 C 741.769531 414.164062 747.339844 412.140625 749.476562 410.136719 L 749.648438 409.980469 L 749.648438 401.972656 L 748.773438 402.707031 C 746.550781 404.578125 742.824219 405.792969 739.28125 405.792969 C 733.988281 405.792969 731.53125 403.640625 731.53125 399.011719 L 731.53125 363.867188 L 748.304688 363.867188 L 748.304688 356.164062 L 731.53125 356.164062 L 731.53125 340.933594 L 719.96875 345.929688 L 719.96875 356.125 L 711.917969 357.34375 L 711.917969 363.867188 L 719.855469 363.867188 L 719.855469 401.222656 C 719.855469 409.570312 725.328125 414.164062 735.25 414.164062 " fill-opacity="1" fill-rule="nonzero"/><path fill="#000000" d="M 794.089844 329.683594 L 781.882812 329.683594 L 774.019531 347.027344 L 781.816406 347.027344 Z M 794.089844 329.683594 " fill-opacity="1" fill-rule="nonzero"/><path fill="#000000" d="M 780.433594 361.765625 C 792.449219 361.765625 794.261719 372.238281 794.425781 377.324219 L 765.398438 377.324219 C 767.796875 363.800781 775.816406 361.765625 780.433594 361.765625 M 780.433594 355.058594 C 766.757812 355.058594 752.953125 364.230469 752.953125 384.722656 C 752.953125 402.882812 764.253906 414.164062 782.445312 414.164062 C 795.390625 414.164062 802.230469 409.742188 804.574219 407.835938 L 804.769531 407.679688 L 804.769531 398.847656 L 803.871094 399.738281 C 800.617188 402.972656 793.175781 406.238281 785.238281 406.238281 C 771.710938 406.238281 764.855469 399.039062 764.855469 384.828125 L 764.855469 384.253906 L 805.621094 384.253906 L 805.667969 383.773438 C 805.785156 382.644531 805.785156 380.285156 805.785156 379.402344 C 805.785156 363.933594 796.546875 355.058594 780.433594 355.058594 " fill-opacity="1" fill-rule="nonzero"/><path fill="#000000" d="M 327.511719 440.289062 L 340.402344 440.289062 C 351.636719 440.289062 356.867188 445.292969 356.867188 456.046875 C 356.867188 466.503906 351.332031 471.796875 340.402344 471.796875 L 327.511719 471.796875 Z M 343.304688 431.917969 L 314.605469 431.917969 L 314.605469 512.519531 L 327.511719 512.519531 L 327.511719 480.273438 L 342.859375 480.273438 C 359.664062 480.273438 370.105469 470.988281 370.105469 456.046875 C 370.105469 440.9375 360.082031 431.917969 343.304688 431.917969 " fill-opacity="1" fill-rule="nonzero"/><path fill="#000000" d="M 394.972656 506.589844 C 391.371094 506.589844 385.328125 505.441406 385.328125 497.808594 C 385.328125 490.433594 391.03125 488.503906 396.066406 486.789062 C 396.511719 486.640625 396.949219 486.492188 397.386719 486.34375 C 401.910156 484.734375 405.273438 482.9375 406.972656 481.222656 L 406.972656 499.875 C 404.402344 504.140625 400.039062 506.589844 394.972656 506.589844 M 422.8125 506.367188 C 420.050781 506.367188 418.644531 504.898438 418.644531 502.019531 L 418.644531 466.570312 C 418.644531 458.460938 411.777344 454.519531 397.660156 454.519531 C 388.691406 454.519531 381.183594 457.101562 377.992188 459.5 L 377.789062 459.660156 L 377.789062 467.144531 L 378.578125 466.691406 C 383.324219 463.988281 388.839844 462.554688 394.527344 462.554688 C 403.363281 462.554688 406.972656 464.261719 406.972656 468.449219 L 406.972656 471.550781 C 406.972656 475.863281 402.109375 477.695312 392.796875 480.800781 L 392.1875 480.992188 C 383.351562 483.753906 374.210938 486.617188 374.210938 498.476562 C 374.210938 507.539062 381.207031 513.625 391.617188 513.625 C 401.316406 513.625 406.15625 509.746094 408.546875 506.242188 C 409.410156 510.820312 413.34375 513.625 419.011719 513.625 C 423.078125 513.625 426.5625 512.484375 428.34375 510.574219 L 428.484375 510.425781 L 428.484375 504.578125 L 427.667969 505.121094 C 426.761719 505.722656 424.855469 506.367188 422.8125 506.367188 " fill-opacity="1" fill-rule="nonzero"/><path fill="#000000" d="M 462.070312 454.628906 C 456.226562 454.628906 450.367188 458.191406 446.609375 463.964844 L 446.609375 455.269531 L 435.375 455.757812 L 435.375 512.519531 L 447.273438 512.519531 L 447.273438 472.878906 C 449.945312 466.578125 456.25 464.324219 461.285156 464.324219 C 464.210938 464.324219 466.972656 464.828125 468.160156 465.578125 L 468.96875 466.082031 L 468.96875 456.46875 L 468.796875 456.308594 C 467.515625 455.195312 465.257812 454.628906 462.070312 454.628906 " fill-opacity="1" fill-rule="nonzero"/><path fill="#000000" d="M 476.527344 446.933594 L 488.3125 446.933594 L 488.3125 436.015625 L 476.527344 436.015625 Z M 476.527344 446.933594 " fill-opacity="1" fill-rule="nonzero"/><path fill="#000000" d="M 476.527344 512.519531 L 488.3125 512.519531 L 488.3125 455.394531 L 476.527344 455.640625 Z M 476.527344 512.519531 " fill-opacity="1" fill-rule="nonzero"/><path fill="#000000" d="M 523.511719 479.253906 C 516.277344 476.859375 511.910156 475.417969 511.910156 469.785156 C 511.910156 465.117188 516.253906 462.222656 523.234375 462.222656 C 528.707031 462.222656 534.625 464.195312 538.070312 466.140625 L 538.859375 466.585938 L 538.859375 458.519531 L 538.605469 458.363281 C 535.769531 456.589844 529.710938 454.519531 522.003906 454.519531 C 509.195312 454.519531 501.234375 460.835938 501.234375 470.996094 C 501.234375 480.875 508.933594 484.851562 517.242188 487.671875 L 518.882812 488.257812 C 525.828125 490.714844 530.421875 492.339844 530.421875 498.03125 C 530.421875 503.488281 526.421875 506.144531 518.207031 506.144531 C 511.628906 506.144531 504.871094 503.140625 501.085938 500.164062 L 500.230469 499.488281 L 500.230469 508.015625 L 500.410156 508.171875 C 503.484375 510.878906 510.96875 513.625 519.320312 513.625 C 533.445312 513.625 541.539062 507.578125 541.539062 497.03125 C 541.539062 486.113281 533.015625 482.386719 523.511719 479.253906 " fill-opacity="1" fill-rule="nonzero"/><path fill="#000000" d="M 620.523438 504.476562 C 601.910156 504.476562 589.398438 491.515625 589.398438 472.21875 C 589.398438 452.625 601.746094 439.957031 620.851562 439.957031 C 629.585938 439.957031 636.757812 442.273438 642.78125 447.042969 L 643.632812 447.71875 L 643.632812 437.597656 L 643.402344 437.441406 C 638.851562 434.359375 632.050781 430.8125 619.738281 430.8125 C 593.667969 430.8125 576.164062 447.453125 576.164062 472.21875 C 576.164062 496.980469 593.222656 513.625 618.617188 513.625 C 629.5625 513.625 638.117188 511.15625 644.761719 506.09375 L 644.976562 505.9375 L 644.976562 495.472656 L 644.109375 496.183594 C 637.179688 501.847656 629.6875 504.476562 620.523438 504.476562 " fill-opacity="1" fill-rule="nonzero"/><path fill="#000000" d="M 658.128906 446.933594 L 669.914062 446.933594 L 669.914062 436.015625 L 658.128906 436.015625 Z M 658.128906 446.933594 " fill-opacity="1" fill-rule="nonzero"/><path fill="#000000" d="M 658.128906 512.519531 L 669.914062 512.519531 L 669.914062 455.394531 L 658.128906 455.640625 Z M 658.128906 512.519531 " fill-opacity="1" fill-rule="nonzero"/><path fill="#000000" d="M 706.847656 505.253906 C 701.566406 505.253906 699.101562 503.101562 699.101562 498.476562 L 699.101562 463.328125 L 715.871094 463.328125 L 715.871094 455.625 L 699.101562 455.625 L 699.101562 440.394531 L 687.535156 445.398438 L 687.535156 455.59375 L 679.484375 456.804688 L 679.484375 463.328125 L 687.421875 463.328125 L 687.421875 500.683594 C 687.421875 509.03125 692.894531 513.625 702.824219 513.625 C 709.328125 513.625 714.902344 511.601562 717.050781 509.609375 L 717.214844 509.449219 L 717.214844 501.433594 L 716.351562 502.167969 C 714.117188 504.042969 710.390625 505.253906 706.847656 505.253906 " fill-opacity="1" fill-rule="nonzero"/><path fill="#000000" d="M 749.394531 446.488281 L 761.65625 429.15625 L 749.449219 429.15625 L 741.597656 446.488281 Z M 749.394531 446.488281 " fill-opacity="1" fill-rule="nonzero"/><path fill="#000000" d="M 748 461.226562 C 760.023438 461.226562 761.832031 471.699219 761.996094 476.785156 L 732.976562 476.785156 C 735.367188 463.261719 743.382812 461.226562 748 461.226562 M 748 454.519531 C 734.328125 454.519531 720.53125 463.691406 720.53125 484.183594 C 720.53125 502.34375 731.828125 513.625 750.011719 513.625 C 762.949219 513.625 769.808594 509.203125 772.148438 507.296875 L 772.347656 507.140625 L 772.347656 498.316406 L 771.449219 499.207031 C 768.183594 502.433594 760.742188 505.699219 752.804688 505.699219 C 739.28125 505.699219 732.421875 498.5 732.421875 484.289062 L 732.421875 483.714844 L 773.1875 483.714844 L 773.238281 483.234375 C 773.351562 482.105469 773.351562 479.746094 773.351562 478.863281 C 773.351562 463.394531 764.113281 454.519531 748 454.519531 " fill-opacity="1" fill-rule="nonzero"/></svg>