<svg xmlns="http://www.w3.org/2000/svg" xmlns:xlink="http://www.w3.org/1999/xlink" width="1080" zoomAndPan="magnify" viewBox="0 0 810 809.999993" height="1080" preserveAspectRatio="xMidYMid meet" version="1.0"><rect x="-81" width="972" fill="#ffffff" y="-80.999999" height="971.999992" fill-opacity="1"/><rect x="-81" width="972" fill="#ffffff" y="-80.999999" height="971.999992" fill-opacity="1"/><path fill="#000000" d="M 807.445312 469.304688 L 784.773438 469.304688 L 784.773438 503.050781 L 807.972656 503.050781 L 807.972656 497.253906 L 791.101562 497.253906 L 791.101562 488.289062 L 805.335938 488.289062 L 805.335938 483.015625 L 791.101562 483.015625 L 791.101562 475.105469 L 807.445312 475.105469 Z M 805.863281 325.871094 L 782.664062 325.871094 L 782.664062 359.09375 L 805.863281 359.09375 L 805.863281 353.292969 L 788.992188 353.292969 L 788.992188 344.328125 L 803.226562 344.328125 L 803.226562 339.054688 L 788.992188 339.054688 L 788.992188 331.144531 L 805.335938 331.144531 Z M 792.15625 321.652344 L 796.371094 322.707031 L 800.589844 315.855469 L 794.789062 315.855469 Z M 772.644531 469.304688 L 766.320312 469.304688 L 766.320312 503.050781 L 772.644531 503.050781 Z M 762.628906 359.09375 L 762.628906 331.144531 L 773.171875 331.144531 L 773.171875 325.34375 L 745.230469 325.34375 L 745.230469 331.144531 L 755.773438 331.144531 L 755.773438 359.09375 Z M 734.15625 474.578125 L 739.957031 474.578125 C 741.539062 474.578125 743.121094 475.105469 744.175781 475.632812 C 745.230469 476.160156 746.285156 476.6875 747.339844 477.742188 C 748.394531 478.796875 748.917969 479.851562 749.445312 481.433594 C 749.972656 483.015625 749.972656 484.070312 749.972656 485.652344 C 749.972656 487.234375 749.972656 488.816406 749.445312 489.871094 C 748.917969 491.453125 748.394531 492.507812 747.339844 493.5625 C 746.285156 494.617188 745.230469 495.144531 744.175781 495.671875 C 743.121094 496.199219 741.539062 496.726562 739.957031 496.726562 L 734.15625 496.726562 Z M 739.957031 469.304688 L 727.828125 469.304688 L 727.828125 503.050781 L 739.957031 503.050781 C 742.59375 503.050781 744.703125 502.523438 746.8125 502 C 748.917969 501.472656 750.5 499.890625 752.082031 498.308594 C 753.664062 496.726562 754.71875 495.144531 755.246094 493.035156 C 755.773438 490.925781 756.300781 488.816406 756.300781 486.179688 C 756.300781 484.070312 755.773438 481.960938 755.246094 479.851562 C 754.71875 477.742188 753.664062 476.160156 752.082031 474.578125 C 750.5 472.996094 748.917969 471.941406 746.8125 470.886719 C 745.230469 469.832031 742.59375 469.304688 739.957031 469.304688 M 729.410156 359.09375 L 735.738281 359.09375 L 735.738281 325.34375 L 729.410156 325.34375 Z M 715.703125 357.511719 C 716.757812 356.457031 717.8125 355.929688 718.339844 354.347656 C 718.867188 353.292969 719.394531 351.710938 719.394531 349.601562 C 719.394531 348.019531 718.867188 346.964844 718.867188 345.910156 C 718.339844 344.855469 717.8125 343.800781 716.757812 343.273438 C 715.703125 342.746094 714.648438 341.691406 713.59375 341.164062 C 712.011719 340.636719 710.957031 340.109375 708.847656 339.582031 C 707.792969 339.054688 706.738281 339.054688 705.683594 338.527344 C 704.628906 338.527344 704.101562 338 703.574219 337.472656 C 703.050781 336.945312 702.523438 336.945312 701.996094 336.417969 C 701.46875 335.890625 701.46875 335.363281 701.46875 334.835938 C 701.46875 333.78125 701.996094 332.726562 702.523438 332.199219 C 703.574219 331.671875 704.628906 331.144531 706.738281 331.144531 C 707.792969 331.144531 708.847656 331.144531 709.902344 331.671875 C 710.957031 331.671875 712.011719 332.199219 712.539062 332.726562 C 713.59375 333.253906 714.121094 333.253906 714.648438 333.78125 C 715.175781 334.308594 715.703125 334.308594 715.703125 334.835938 L 718.867188 329.5625 C 717.285156 328.507812 715.703125 327.453125 713.59375 326.925781 C 711.484375 326.398438 709.375 325.871094 707.265625 325.871094 C 705.683594 325.871094 704.101562 325.871094 702.523438 326.398438 C 700.941406 326.925781 699.886719 327.453125 698.304688 328.507812 C 697.25 329.5625 696.195312 330.617188 695.667969 331.671875 C 695.140625 332.726562 694.613281 334.308594 694.613281 336.417969 C 694.613281 337.472656 694.613281 339.054688 695.140625 339.582031 C 695.667969 340.636719 696.195312 341.164062 696.722656 342.21875 C 697.25 342.746094 698.304688 343.273438 699.886719 343.800781 C 700.941406 344.328125 702.523438 344.855469 704.101562 345.382812 C 705.15625 345.910156 706.738281 345.910156 707.792969 346.4375 C 708.847656 346.964844 709.902344 346.964844 710.429688 347.492188 C 710.957031 348.019531 711.484375 348.546875 712.011719 348.546875 C 712.539062 349.074219 712.539062 349.601562 712.539062 350.128906 C 712.539062 352.238281 710.957031 353.820312 707.265625 353.820312 C 706.210938 353.820312 704.628906 353.820312 703.578125 353.292969 C 702.523438 352.765625 701.46875 352.765625 700.414062 352.238281 C 699.359375 351.710938 698.304688 351.183594 697.777344 350.65625 C 697.25 350.128906 696.722656 349.601562 696.195312 349.601562 L 693.03125 355.402344 C 695.140625 356.984375 697.25 358.039062 699.886719 358.566406 C 702.523438 359.09375 704.628906 359.621094 707.265625 359.621094 C 708.847656 359.621094 710.429688 359.621094 712.011719 359.09375 C 713.066406 358.566406 714.648438 358.039062 715.703125 357.511719 M 691.976562 469.304688 L 686.703125 469.304688 L 686.703125 503.050781 L 693.03125 503.050781 L 693.03125 481.433594 L 710.429688 503.050781 L 715.703125 503.050781 L 715.703125 469.304688 L 709.375 469.304688 L 709.375 491.453125 Z M 673.523438 342.21875 L 665.085938 342.21875 L 665.085938 331.144531 L 672.996094 331.144531 C 673.523438 331.144531 674.050781 331.144531 674.578125 331.671875 C 675.105469 331.671875 675.632812 332.199219 676.160156 332.726562 C 676.6875 333.253906 676.6875 333.78125 677.214844 334.308594 C 677.742188 334.835938 677.742188 335.890625 677.742188 336.417969 C 677.742188 336.945312 677.742188 338 677.214844 338.527344 C 677.214844 339.054688 676.6875 339.582031 676.160156 340.109375 C 675.632812 340.636719 675.105469 341.164062 674.578125 341.164062 C 674.578125 342.21875 674.050781 342.21875 673.523438 342.21875 M 671.414062 348.019531 L 678.269531 359.09375 L 685.648438 359.09375 L 677.742188 346.4375 C 679.851562 345.382812 680.90625 344.328125 681.957031 342.746094 C 683.011719 341.164062 683.539062 339.054688 683.539062 336.945312 C 683.539062 335.363281 683.011719 334.308594 683.011719 332.726562 C 682.484375 331.671875 681.957031 330.089844 680.90625 329.035156 C 679.851562 327.980469 678.796875 326.925781 677.742188 326.398438 C 676.6875 325.871094 675.105469 325.34375 673.523438 325.34375 L 658.757812 325.34375 L 658.757812 359.09375 L 665.085938 359.09375 L 665.085938 348.019531 C 665.085938 348.019531 671.414062 348.019531 671.414062 348.019531 Z M 657.707031 489.871094 L 662.449219 476.6875 L 667.195312 489.871094 Z M 659.8125 469.304688 L 647.160156 503.050781 L 654.015625 503.050781 L 657.179688 494.617188 L 668.777344 494.617188 L 671.941406 503.050781 L 678.796875 503.050781 L 666.140625 469.304688 Z M 631.34375 353.292969 L 631.34375 344.328125 L 645.578125 344.328125 L 645.578125 339.054688 L 631.34375 339.054688 L 631.34375 331.144531 L 647.6875 331.144531 L 647.6875 325.34375 L 624.488281 325.34375 L 624.488281 359.09375 L 647.6875 359.09375 L 647.6875 353.292969 Z M 611.835938 469.304688 L 604.980469 469.304688 L 604.980469 503.050781 L 611.308594 503.050781 L 611.308594 480.378906 L 619.742188 496.726562 L 623.433594 496.726562 L 631.871094 480.378906 L 631.871094 502.523438 L 638.195312 502.523438 L 638.195312 468.777344 L 631.34375 468.777344 L 621.324219 487.761719 Z M 604.453125 397.589844 L 599.179688 397.589844 L 599.179688 431.335938 L 605.507812 431.335938 L 605.507812 409.71875 L 622.90625 431.335938 L 628.179688 431.335938 L 628.179688 397.589844 L 621.851562 397.589844 L 621.851562 419.734375 Z M 584.417969 325.871094 L 597.597656 359.621094 L 602.871094 359.621094 L 616.050781 325.871094 L 609.199219 325.871094 L 600.234375 351.183594 L 591.269531 325.871094 Z M 582.835938 474.578125 C 583.363281 474.578125 583.890625 474.578125 584.417969 475.105469 C 584.945312 475.632812 585.472656 475.632812 586 476.160156 C 586.527344 476.6875 586.527344 477.214844 587.054688 477.742188 C 587.582031 478.269531 587.582031 479.324219 587.582031 479.851562 C 587.582031 480.378906 587.582031 481.433594 587.054688 481.960938 C 587.054688 482.488281 586.527344 483.015625 586 483.542969 C 585.472656 484.070312 584.945312 484.597656 584.417969 484.597656 C 583.890625 484.597656 583.363281 485.125 582.835938 485.125 L 574.398438 485.125 L 574.398438 475.105469 Z M 583.363281 469.304688 L 568.597656 469.304688 L 568.597656 503.050781 L 574.925781 503.050781 L 574.925781 491.980469 L 581.253906 491.980469 L 588.109375 503.050781 L 595.488281 503.050781 L 587.582031 490.398438 C 589.164062 489.871094 590.746094 488.289062 591.796875 486.707031 C 592.851562 485.125 593.378906 483.015625 593.378906 480.90625 C 593.378906 479.324219 592.851562 478.269531 592.324219 476.6875 C 591.796875 475.105469 591.273438 474.050781 590.21875 472.996094 C 589.164062 471.941406 588.109375 470.886719 587.054688 470.359375 C 586 469.304688 584.945312 469.304688 583.363281 469.304688 M 587.054688 397.589844 L 564.382812 397.589844 L 564.382812 431.335938 L 587.582031 431.335938 L 587.582031 425.535156 L 570.707031 425.535156 L 570.707031 416.570312 L 584.945312 416.570312 L 584.945312 411.296875 L 570.707031 411.296875 L 570.707031 403.390625 L 587.054688 403.390625 Z M 569.125 359.09375 L 575.453125 359.09375 L 575.453125 325.34375 L 569.125 325.34375 Z M 532.21875 486.179688 C 532.21875 484.597656 532.21875 483.542969 532.746094 481.960938 C 533.273438 480.90625 533.800781 479.324219 534.328125 478.269531 C 535.382812 477.214844 535.910156 476.160156 537.492188 475.632812 C 539.074219 475.105469 540.128906 474.578125 541.710938 474.578125 C 543.292969 474.578125 544.875 475.105469 545.929688 475.632812 C 546.980469 476.160156 548.035156 477.214844 549.089844 478.269531 C 550.144531 479.324219 550.671875 480.378906 551.199219 481.960938 C 551.726562 483.542969 551.726562 484.597656 551.726562 486.179688 C 551.726562 487.761719 551.726562 488.816406 551.199219 490.398438 C 550.671875 491.453125 550.144531 493.035156 549.089844 494.089844 C 548.035156 495.144531 547.507812 496.199219 545.929688 496.726562 C 544.875 497.253906 543.292969 497.78125 541.710938 497.78125 C 540.128906 497.78125 538.546875 497.253906 537.492188 496.726562 C 536.4375 496.199219 535.382812 495.144531 534.328125 494.089844 C 533.273438 493.035156 532.746094 491.980469 532.21875 490.398438 C 532.746094 488.816406 532.21875 487.234375 532.21875 486.179688 M 526.945312 479.324219 C 525.890625 481.433594 525.890625 483.542969 525.890625 485.652344 C 525.890625 487.761719 526.417969 489.871094 526.945312 491.980469 C 528 494.089844 529.054688 495.671875 530.109375 497.253906 C 531.691406 498.835938 533.273438 499.890625 535.382812 500.941406 C 537.492188 501.996094 539.601562 502.523438 542.238281 502.523438 C 544.347656 502.523438 546.980469 501.996094 548.5625 500.941406 C 550.671875 499.890625 552.253906 498.835938 553.835938 497.253906 C 555.417969 495.671875 556.472656 494.089844 557.527344 491.980469 C 558.582031 489.871094 558.582031 487.761719 558.582031 485.652344 C 558.582031 483.542969 558.054688 481.433594 557.527344 479.324219 C 556.472656 477.214844 555.417969 475.632812 554.363281 474.050781 C 552.78125 472.46875 551.199219 470.886719 549.089844 470.359375 C 546.980469 469.304688 544.875 468.777344 542.238281 468.777344 C 540.128906 468.777344 537.492188 469.304688 535.910156 470.359375 C 533.800781 471.414062 532.21875 472.46875 530.636719 474.050781 C 529.054688 475.632812 528 477.214844 526.945312 479.324219 M 550.144531 325.871094 L 550.144531 348.019531 L 532.746094 325.871094 L 527.472656 325.871094 L 527.472656 359.09375 L 533.800781 359.09375 L 533.800781 337.472656 L 551.199219 359.09375 L 556.472656 359.09375 L 556.472656 325.34375 C 557 325.871094 550.144531 325.871094 550.144531 325.871094 Z M 533.273438 418.152344 L 538.019531 404.972656 L 542.765625 418.152344 Z M 535.382812 397.589844 L 522.730469 431.335938 L 529.582031 431.335938 L 532.746094 422.898438 L 544.347656 422.898438 L 547.507812 431.335938 L 554.363281 431.335938 L 541.710938 397.589844 Z M 492.148438 469.304688 L 486.875 469.304688 L 486.875 503.050781 L 493.203125 503.050781 L 493.203125 481.433594 L 510.601562 503.050781 L 515.875 503.050781 L 515.875 469.304688 L 509.546875 469.304688 L 509.546875 491.453125 Z M 509.546875 325.871094 L 509.546875 342.746094 C 509.546875 344.328125 509.546875 345.382812 509.019531 346.964844 C 508.492188 348.546875 508.492188 349.601562 507.4375 350.65625 C 506.382812 351.710938 505.855469 352.238281 504.800781 353.292969 C 503.746094 353.820312 502.691406 354.347656 501.109375 354.347656 C 499.53125 354.347656 498.476562 353.820312 497.421875 353.292969 C 496.367188 352.765625 495.3125 351.710938 494.785156 350.65625 C 494.257812 349.601562 493.730469 348.546875 493.203125 346.964844 C 492.675781 345.382812 492.675781 344.328125 492.675781 342.746094 L 492.675781 325.871094 L 486.347656 325.871094 L 486.347656 342.746094 C 486.347656 344.855469 486.875 346.964844 487.402344 349.074219 C 487.929688 351.183594 488.984375 352.765625 490.039062 354.347656 C 491.09375 355.929688 492.675781 356.984375 494.785156 358.039062 C 496.894531 359.09375 499.003906 359.621094 501.636719 359.621094 C 504.273438 359.621094 506.382812 359.09375 508.492188 358.566406 C 510.074219 357.511719 511.65625 356.457031 513.238281 354.875 C 514.292969 353.292969 515.347656 351.710938 515.875 349.601562 C 516.402344 347.492188 516.929688 345.382812 516.929688 343.273438 L 516.929688 326.398438 Z M 485.820312 407.609375 C 485.292969 409.71875 484.765625 411.824219 484.765625 413.933594 C 484.765625 416.042969 485.292969 418.152344 485.820312 420.261719 C 486.347656 422.371094 487.929688 423.953125 488.984375 425.535156 C 490.566406 427.117188 492.148438 428.699219 494.257812 429.753906 C 496.367188 430.808594 498.476562 431.335938 500.585938 431.335938 C 502.164062 431.335938 503.21875 431.335938 504.800781 430.808594 C 506.382812 430.28125 507.4375 429.753906 509.019531 429.226562 C 510.074219 428.699219 511.128906 427.644531 512.183594 426.589844 C 513.238281 425.535156 513.765625 424.480469 514.292969 423.425781 L 509.019531 420.261719 C 508.492188 421.316406 507.964844 421.84375 507.4375 422.371094 C 506.910156 422.898438 506.382812 423.425781 505.328125 423.953125 C 504.800781 424.480469 503.746094 424.480469 503.21875 425.007812 C 502.164062 425.007812 501.636719 425.007812 501.109375 425.007812 C 499.53125 425.007812 498.476562 424.480469 496.894531 423.953125 C 495.3125 423.425781 494.785156 422.371094 493.730469 421.316406 C 492.675781 420.261719 492.148438 419.207031 491.621094 417.625 C 491.09375 416.042969 491.09375 414.988281 491.09375 413.40625 C 491.09375 412.351562 491.09375 410.773438 491.621094 409.191406 C 492.148438 407.609375 492.675781 406.554688 493.203125 405.5 C 494.257812 404.445312 494.785156 403.390625 496.367188 402.863281 C 497.421875 402.335938 499.003906 401.808594 500.585938 401.808594 C 501.109375 401.808594 502.164062 401.808594 502.691406 401.808594 C 503.21875 401.808594 504.273438 402.335938 504.800781 402.863281 C 505.328125 403.390625 506.382812 403.917969 506.910156 404.445312 C 507.4375 404.972656 507.964844 406.027344 508.492188 407.082031 L 513.238281 403.390625 C 512.183594 401.28125 510.601562 399.171875 507.964844 398.117188 C 505.328125 397.0625 503.21875 396.007812 500.058594 396.007812 C 497.421875 396.007812 495.3125 396.535156 493.203125 397.589844 C 491.09375 398.644531 489.511719 399.699219 487.929688 401.28125 C 487.929688 403.917969 486.875 406.027344 485.820312 407.609375 M 372.988281 427.644531 C 372.988281 429.226562 371.933594 430.28125 370.351562 430.28125 C 369.824219 430.28125 368.769531 430.28125 368.242188 429.226562 L 320.792969 375.96875 C 320.265625 375.441406 320.265625 374.914062 320.265625 374.386719 C 320.265625 373.332031 321.316406 371.75 322.898438 371.75 L 329.753906 371.75 C 330.808594 371.75 331.335938 372.277344 331.863281 372.804688 L 364.554688 409.71875 L 364.554688 373.859375 C 364.554688 372.804688 365.609375 371.222656 366.660156 371.222656 L 371.40625 371.222656 C 372.460938 371.222656 373.515625 372.277344 373.515625 373.859375 L 373.515625 427.644531 Z M 302.335938 426.0625 C 302.335938 427.117188 301.28125 428.699219 299.699219 428.699219 L 264.375 428.699219 C 263.320312 428.699219 261.738281 427.644531 261.738281 426.0625 L 261.738281 421.316406 C 261.738281 420.261719 262.792969 418.679688 264.375 418.679688 L 299.699219 418.679688 C 300.753906 418.679688 302.335938 419.734375 302.335938 421.316406 Z M 302.335938 402.335938 C 302.335938 403.390625 301.28125 404.972656 299.699219 404.972656 L 264.375 404.972656 C 263.320312 404.972656 261.738281 403.917969 261.738281 402.335938 L 261.738281 397.589844 C 261.738281 396.535156 262.792969 394.953125 264.375 394.953125 L 299.699219 394.953125 C 300.753906 394.953125 302.335938 396.007812 302.335938 397.589844 Z M 302.335938 378.605469 C 302.335938 379.660156 301.28125 381.242188 299.699219 381.242188 L 264.375 381.242188 C 263.320312 381.242188 261.738281 380.1875 261.738281 378.605469 L 261.738281 373.859375 C 261.738281 372.804688 262.792969 371.222656 264.375 371.222656 L 299.699219 371.222656 C 300.753906 371.222656 302.335938 372.277344 302.335938 373.859375 Z M 249.613281 426.0625 C 249.613281 427.117188 248.558594 428.171875 246.976562 428.171875 L 241.175781 428.171875 C 240.121094 428.171875 239.066406 427.644531 239.066406 426.589844 C 239.066406 426.589844 212.703125 379.132812 212.175781 378.605469 C 212.175781 378.078125 211.648438 377.550781 211.648438 377.550781 C 211.648438 377.550781 212.175781 376.496094 212.175781 376.496094 L 214.8125 371.222656 C 215.339844 370.167969 215.867188 369.640625 216.921875 369.640625 C 217.976562 369.640625 218.503906 370.167969 219.03125 371.222656 L 249.085938 425.535156 C 249.085938 424.480469 249.613281 425.535156 249.613281 426.0625 M 226.941406 343.273438 C 226.941406 344.855469 225.886719 345.910156 224.304688 345.910156 L 221.667969 345.910156 C 206.378906 345.910156 194.777344 350.65625 184.761719 359.621094 C 175.796875 368.058594 169.46875 379.132812 167.886719 392.316406 C 167.886719 393.371094 166.832031 394.953125 165.25 394.953125 L 159.453125 394.953125 C 158.398438 394.953125 156.816406 393.898438 156.816406 392.316406 C 158.398438 376.496094 166.304688 362.785156 177.378906 352.238281 C 188.976562 341.691406 203.742188 335.890625 220.085938 335.890625 L 222.722656 335.890625 C 224.304688 335.890625 224.832031 336.945312 225.359375 338.527344 Z M 143.632812 370.695312 C 143.632812 371.75 142.578125 373.332031 140.996094 373.332031 L 134.671875 373.332031 C 133.617188 373.332031 132.035156 372.277344 132.035156 370.695312 L 132.035156 365.949219 C 132.035156 364.894531 133.089844 363.3125 134.671875 363.3125 L 141.523438 363.3125 C 142.578125 363.3125 144.160156 364.367188 144.160156 365.949219 L 144.160156 370.695312 Z M 100.925781 372.277344 L 133.617188 409.191406 L 133.617188 386.515625 C 133.617188 385.460938 134.671875 383.878906 136.253906 383.878906 L 140.996094 383.878906 C 142.050781 383.878906 143.632812 384.933594 143.632812 386.515625 L 143.632812 426.589844 C 143.632812 428.171875 142.578125 429.226562 140.996094 429.226562 C 140.472656 429.226562 139.417969 429.226562 138.890625 428.171875 L 90.910156 374.914062 C 90.382812 374.386719 90.382812 373.859375 90.382812 373.332031 C 90.382812 372.277344 91.4375 370.695312 93.019531 370.695312 L 99.34375 370.695312 C 99.871094 371.222656 100.398438 371.75 100.925781 372.277344 M 76.671875 419.734375 C 81.945312 419.734375 86.691406 418.152344 90.910156 414.988281 L 90.910156 396.535156 C 90.910156 396.535156 90.910156 396.007812 90.910156 396.007812 C 90.910156 394.953125 91.964844 393.898438 93.019531 393.898438 C 93.546875 393.898438 94.601562 394.425781 95.128906 394.953125 L 99.34375 400.226562 C 99.871094 400.753906 100.398438 401.28125 100.398438 402.335938 L 100.398438 418.679688 C 100.398438 418.679688 100.398438 419.734375 99.34375 420.261719 C 93.546875 425.535156 85.109375 429.226562 76.671875 429.226562 C 63.492188 429.226562 52.945312 418.679688 52.945312 406.027344 L 52.945312 374.386719 C 52.945312 372.804688 54 371.75 55.582031 371.75 L 60.328125 371.75 C 61.382812 371.75 62.4375 372.804688 62.4375 374.386719 L 62.4375 406.027344 C 62.4375 412.878906 68.765625 419.734375 76.671875 419.734375 M 225.359375 423.953125 C 225.886719 424.480469 225.886719 426.0625 225.359375 426.589844 C 224.832031 427.644531 224.304688 427.644531 223.25 427.644531 L 190.03125 427.644531 C 189.503906 427.644531 188.449219 427.644531 187.921875 427.117188 C 186.867188 426.589844 186.867188 425.007812 187.921875 423.953125 L 203.742188 391.789062 C 204.269531 390.734375 204.796875 390.207031 206.378906 390.207031 C 207.960938 390.207031 207.960938 390.734375 208.484375 391.789062 L 211.121094 396.535156 C 211.121094 396.535156 211.648438 398.117188 211.648438 398.644531 C 211.648438 399.171875 211.648438 399.699219 211.121094 399.699219 C 211.121094 400.226562 205.324219 411.300781 202.160156 418.152344 L 221.140625 418.152344 C 221.667969 418.152344 222.195312 418.152344 222.722656 418.679688 C 223.25 418.679688 223.777344 419.734375 223.777344 419.734375 Z M 157.34375 406.554688 C 157.34375 405.5 158.398438 403.917969 159.980469 403.917969 L 165.777344 403.917969 C 167.359375 403.917969 168.414062 404.972656 168.414062 406.554688 C 169.996094 419.734375 176.324219 431.335938 185.289062 439.773438 C 195.304688 448.738281 205.851562 452.957031 221.140625 452.957031 L 223.777344 452.957031 C 224.832031 452.957031 226.414062 454.011719 226.414062 455.59375 L 225.359375 460.339844 C 225.359375 461.921875 224.304688 462.976562 222.722656 462.976562 L 220.613281 462.976562 C 204.269531 462.976562 188.976562 457.175781 177.90625 446.628906 C 166.832031 436.082031 159.453125 422.371094 157.34375 406.554688 Z M 320.792969 397.0625 C 320.792969 397.0625 320.792969 396.535156 320.792969 397.0625 C 321.316406 395.480469 321.84375 394.425781 322.898438 394.425781 C 323.425781 394.425781 324.480469 394.953125 325.007812 395.480469 L 329.226562 400.753906 C 329.753906 401.28125 330.28125 401.808594 330.28125 402.863281 L 330.28125 426.589844 C 330.28125 427.644531 329.226562 429.226562 328.171875 429.226562 L 323.425781 429.226562 C 322.371094 429.226562 321.316406 428.171875 321.316406 426.589844 L 321.316406 397.0625 C 320.792969 397.0625 320.792969 397.0625 320.792969 397.0625 M 426.242188 404.445312 C 426.242188 286.324219 330.808594 190.878906 212.703125 190.878906 C 94.601562 190.878906 -0.832031 286.324219 -0.832031 404.445312 C -0.832031 522.5625 94.601562 618.007812 212.703125 618.007812 C 330.808594 618.007812 426.242188 522.035156 426.242188 404.445312 " fill-opacity="1" fill-rule="nonzero"/></svg>