<svg xmlns="http://www.w3.org/2000/svg" xmlns:xlink="http://www.w3.org/1999/xlink" width="1080" zoomAndPan="magnify" viewBox="0 0 810 809.999993" height="1080" preserveAspectRatio="xMidYMid meet" version="1.0"><defs><clipPath id="2315b5e2aa"><path d="M 385 157.460938 L 783 157.460938 L 783 634 L 385 634 Z M 385 157.460938 " clip-rule="nonzero"/></clipPath></defs><rect x="-81" width="972" fill="#ffffff" y="-80.999999" height="971.999992" fill-opacity="1"/><rect x="-81" width="972" fill="#ffffff" y="-80.999999" height="971.999992" fill-opacity="1"/><path fill="#f46917" d="M 252.515625 601.375 C 252.515625 593 252.515625 574.933594 255.085938 558.152344 L 254.460938 558.152344 C 234.414062 586.542969 200.878906 608.480469 151.820312 608.480469 C 80.863281 608.480469 56.957031 562.042969 56.957031 507.152344 L 56.957031 368.425781 C 41.492188 365.855469 20.191406 363.28125 1.464844 361.996094 L 1.464844 285.199219 C 58.246094 279.382812 117.625 277.453125 174.4375 279.382812 L 174.4375 482.65625 C 174.4375 498.796875 178.921875 509.097656 192.5 509.097656 C 218.320312 509.097656 242.820312 471.691406 242.820312 436.191406 L 242.820312 280.039062 L 360.296875 280.039062 L 360.296875 512.328125 C 375.769531 514.914062 397.710938 517.484375 416.453125 518.777344 L 416.453125 602.476562 C 362.867188 608.265625 305.433594 603.339844 252.515625 601.375 " fill-opacity="1" fill-rule="nonzero"/><path fill="#ffffff" d="M 617.609375 292.960938 C 617.609375 318.101562 600.171875 334.242188 562.746094 334.242188 C 552.425781 334.242188 544.03125 334.242188 536.914062 333.609375 L 536.914062 260.046875 C 547.222656 259.390625 557.574219 258.742188 571.132812 258.742188 C 599.515625 258.742188 617.609375 270.347656 617.609375 292.960938 Z M 751.839844 461.359375 C 751.839844 419.425781 726.652344 380.0625 689.226562 367.15625 L 689.226562 365.195312 C 722.78125 347.789062 745.351562 312.941406 745.351562 274.222656 C 745.351562 198.09375 684.695312 161.949219 590.503906 161.949219 C 536.300781 161.949219 460.75 163.234375 416.910156 165.839844 L 416.910156 600.75 C 490.472656 600.75 540.789062 602.03125 567.265625 602.03125 C 691.8125 602.03125 751.839844 540.085938 751.839844 461.359375 Z M 622.097656 462.648438 C 622.097656 489.742188 600.171875 503.941406 567.894531 503.941406 C 557.574219 503.941406 544.648438 503.292969 536.914062 502.65625 L 536.914062 423.285156 C 544.03125 422.640625 563.40625 422.640625 567.894531 422.640625 C 605.34375 422.640625 622.097656 440.050781 622.097656 462.648438 Z M 622.097656 462.648438 " fill-opacity="1" fill-rule="nonzero"/><g clip-path="url(#2315b5e2aa)"><path stroke-linecap="butt" transform="matrix(1.464936, 0, 0, 1.464728, -147.490127, -349.69713)" fill="none" stroke-linejoin="miter" d="M 522.274899 438.755813 C 522.274899 455.919832 510.371652 466.939367 484.823934 466.939367 C 477.779047 466.939367 472.048742 466.939367 467.190383 466.507333 L 467.190383 416.284709 C 474.227271 415.836673 481.293491 415.393972 490.548906 415.393972 C 509.92368 415.393972 522.274899 423.317263 522.274899 438.755813 Z M 613.903772 553.724872 C 613.903772 525.095949 596.710192 498.221832 571.162475 489.410471 L 571.162475 488.071699 C 594.067693 476.188095 609.474718 452.396888 609.474718 425.962805 C 609.474718 373.988043 568.069337 349.311431 503.772069 349.311431 C 466.771743 349.311431 415.199004 350.188834 385.272896 351.967641 L 385.272896 648.889704 C 435.488388 648.889704 469.835549 649.764439 487.909073 649.764439 C 572.927696 649.764439 613.903772 607.473107 613.903772 553.724872 Z M 525.338706 554.604941 C 525.338706 573.102399 510.371652 582.796496 488.338379 582.796496 C 481.293491 582.796496 472.470049 582.353794 467.190383 581.919093 L 467.190383 527.730824 C 472.048742 527.290789 485.274573 527.290789 488.338379 527.290789 C 513.902096 527.290789 525.338706 539.177059 525.338706 554.604941 Z M 525.338706 554.604941 " stroke="#f46917" stroke-width="3.747" stroke-opacity="1" stroke-miterlimit="4"/></g><path fill="#f46917" d="M 6.101562 600.519531 L 808.535156 600.519531 L 808.535156 650.714844 L 6.101562 650.714844 Z M 6.101562 600.519531 " fill-opacity="1" fill-rule="evenodd"/><path fill="#ffffff" d="M 333.410156 603.304688 L 326.269531 607.746094 L 328.054688 610.71875 L 335.609375 606.875 Z M 255.449219 612.09375 C 248.84375 612.09375 244.964844 615.460938 244.964844 620.332031 C 244.964844 629.386719 256.5 626.96875 256.5 632.234375 C 256.5 634.730469 254.4375 635.847656 251.738281 635.847656 C 249.753906 635.847656 247.527344 635.359375 245.972656 634.84375 L 245.699219 639.785156 C 247.382812 640.214844 249.324219 640.425781 251.28125 640.425781 C 258.023438 640.425781 262.132812 636.640625 262.132812 631.453125 C 262.132812 622.878906 250.59375 624.707031 250.59375 619.78125 C 250.59375 617.808594 252.144531 616.441406 255.171875 616.441406 C 256.863281 616.441406 258.554688 616.75 260.117188 617.175781 L 260.390625 612.550781 C 258.761719 612.261719 256.988281 612.09375 255.449219 612.09375 Z M 501.28125 612.09375 C 493.9375 612.09375 487.871094 617.515625 487.871094 626.558594 C 487.871094 635.097656 491.976562 640.425781 500.367188 640.425781 C 507.796875 640.425781 513.78125 634.957031 513.78125 625.871094 C 513.78125 616.472656 508.632812 612.09375 501.28125 612.09375 Z M 607.71875 612.09375 C 598.230469 612.09375 592.335938 618.261719 592.335938 626.878906 C 592.335938 635.257812 597.519531 640.378906 606.210938 640.378906 C 609.496094 640.378906 612.882812 639.800781 615.59375 638.6875 L 615.59375 625.597656 L 610.328125 625.597656 L 610.328125 635.164062 C 609.273438 635.460938 608.136719 635.621094 606.851562 635.621094 C 601.257812 635.621094 598.058594 632.210938 598.058594 626.375 C 598.058594 620.230469 601.996094 616.855469 607.398438 616.855469 C 609.945312 616.855469 612.464844 617.367188 614.679688 618.226562 L 615.457031 613.285156 C 613.132812 612.59375 610.4375 612.09375 607.71875 612.09375 Z M 640.957031 612.09375 C 633.585938 612.09375 627.542969 617.515625 627.542969 626.558594 C 627.542969 635.097656 631.632812 640.425781 640.039062 640.425781 C 647.472656 640.425781 653.453125 634.957031 653.453125 625.871094 C 653.453125 616.472656 648.277344 612.09375 640.957031 612.09375 Z M 679.640625 612.09375 C 670.117188 612.09375 664.210938 618.261719 664.210938 626.878906 C 664.210938 635.257812 669.382812 640.378906 678.082031 640.378906 C 681.386719 640.378906 684.769531 639.800781 687.511719 638.6875 L 687.511719 625.597656 L 682.203125 625.597656 L 682.203125 635.164062 C 681.160156 635.460938 680.039062 635.621094 678.722656 635.621094 C 673.144531 635.621094 669.980469 632.210938 669.980469 626.375 C 669.980469 620.230469 673.871094 616.855469 679.273438 616.855469 C 681.84375 616.855469 684.351562 617.367188 686.550781 618.226562 L 687.375 613.285156 C 685 612.59375 682.328125 612.09375 679.640625 612.09375 Z M 221.710938 612.320312 C 218.550781 612.320312 215.992188 612.410156 213.835938 612.503906 L 213.835938 639.96875 L 219.097656 639.96875 L 219.097656 628.617188 L 219.28125 628.617188 L 226.972656 639.96875 L 233.519531 639.96875 L 226.882812 630.722656 C 226.195312 629.808594 225.453125 628.753906 224.683594 627.746094 C 228.828125 627.109375 231.6875 624.164062 231.6875 620.058594 C 231.6875 614.472656 227.785156 612.320312 221.710938 612.320312 Z M 381.25 612.320312 C 377.886719 612.320312 374.574219 612.460938 372.414062 612.550781 L 372.414062 639.96875 C 374.746094 640.042969 377.21875 640.152344 380.058594 640.152344 C 389.011719 640.152344 395.210938 635.214844 395.210938 625.777344 C 395.210938 616.113281 389.796875 612.320312 381.25 612.320312 Z M 466.582031 612.320312 C 463.210938 612.320312 459.648438 612.421875 457.335938 612.550781 L 457.335938 639.96875 C 460.769531 639.96875 463.65625 640.058594 465.300781 640.058594 C 473.621094 640.058594 476.378906 635.488281 476.378906 631.5 C 476.378906 628.730469 474.738281 626.050781 471.480469 625.367188 L 471.480469 625.277344 C 474.109375 624.261719 475.828125 621.839844 475.828125 619.140625 C 475.828125 614.71875 472.558594 612.320312 466.582031 612.320312 Z M 570.59375 612.320312 C 567.425781 612.320312 564.875 612.410156 562.71875 612.503906 L 562.71875 639.96875 L 568.027344 639.96875 L 568.027344 628.617188 L 568.210938 628.617188 L 575.855469 639.96875 L 582.449219 639.96875 L 575.855469 630.722656 C 575.144531 629.808594 574.375 628.753906 573.570312 627.746094 C 577.757812 627.109375 580.574219 624.164062 580.574219 620.058594 C 580.574219 614.472656 576.679688 612.320312 570.59375 612.320312 Z M 59.695312 612.503906 L 59.695312 630.492188 C 59.695312 635.726562 61.648438 640.425781 70.316406 640.425781 C 77.59375 640.425781 81.714844 636.757812 81.714844 629.304688 L 81.714844 612.503906 L 76.496094 612.503906 L 76.496094 629.667969 C 76.496094 634.359375 74.773438 636.03125 70.683594 636.03125 C 66.140625 636.03125 65.007812 633.589844 65.007812 630.128906 L 65.007812 612.503906 Z M 96.226562 612.503906 L 96.226562 639.96875 L 101.308594 639.96875 L 101.308594 630.171875 C 101.308594 626.871094 101.253906 622.554688 101.082031 620.195312 C 101.878906 622.023438 102.824219 624.039062 104.011719 626.101562 L 112.113281 639.96875 L 118.933594 639.96875 L 118.933594 612.503906 L 113.808594 612.503906 L 113.808594 621.066406 C 113.808594 624.453125 113.878906 629.339844 114.082031 632.097656 C 113.050781 630.023438 111.960938 627.738281 110.738281 625.640625 L 103.09375 612.503906 Z M 133.675781 612.503906 L 133.675781 639.96875 L 138.941406 639.96875 L 138.941406 612.503906 Z M 149.742188 612.503906 L 159.359375 639.96875 L 165.445312 639.96875 L 175.015625 612.503906 L 169.613281 612.503906 L 164.210938 628.296875 C 163.441406 630.605469 162.96875 632.054688 162.5625 633.925781 L 162.515625 633.925781 C 162.019531 631.953125 161.390625 630.109375 160.867188 628.570312 L 155.558594 612.503906 Z M 185.910156 612.503906 L 185.910156 639.96875 L 200.789062 639.96875 L 200.789062 635.4375 L 191.175781 635.4375 L 191.175781 628.023438 L 200.328125 628.023438 L 200.328125 623.71875 L 191.175781 623.71875 L 191.175781 616.992188 L 200.789062 616.992188 L 200.789062 612.503906 Z M 274.539062 612.503906 L 274.539062 639.96875 L 279.804688 639.96875 L 279.804688 612.503906 Z M 291.660156 612.503906 L 291.660156 617.035156 L 298.800781 617.035156 L 298.800781 639.96875 L 304.066406 639.96875 L 304.066406 617.035156 L 311.207031 617.035156 L 311.207031 612.503906 Z M 322.515625 612.503906 L 322.515625 639.96875 L 337.484375 639.96875 L 337.484375 635.4375 L 327.824219 635.4375 L 327.824219 628.023438 L 336.980469 628.023438 L 336.980469 623.71875 L 327.824219 623.71875 L 327.824219 616.992188 L 337.484375 616.992188 L 337.484375 612.503906 Z M 407.433594 612.503906 L 407.433594 639.96875 L 422.40625 639.96875 L 422.40625 635.4375 L 412.699219 635.4375 L 412.699219 628.023438 L 421.902344 628.023438 L 421.902344 623.71875 L 412.699219 623.71875 L 412.699219 616.992188 L 422.40625 616.992188 L 422.40625 612.503906 Z M 525.820312 612.503906 L 525.820312 630.492188 C 525.820312 635.726562 527.792969 640.425781 536.394531 640.425781 C 543.691406 640.425781 547.839844 636.757812 547.839844 629.304688 L 547.839844 612.503906 L 542.574219 612.503906 L 542.574219 629.667969 C 542.574219 634.359375 540.867188 636.03125 536.808594 636.03125 C 532.257812 636.03125 531.132812 633.589844 531.132812 630.128906 L 531.132812 612.503906 Z M 700.925781 612.503906 L 700.925781 639.96875 L 706.054688 639.96875 L 706.054688 630.171875 C 706.054688 626.871094 705.984375 622.554688 705.824219 620.195312 C 706.625 622.023438 707.601562 624.039062 708.800781 626.101562 L 716.8125 639.96875 L 723.632812 639.96875 L 723.632812 612.503906 L 718.550781 612.503906 L 718.550781 621.066406 C 718.550781 624.453125 718.609375 629.339844 718.824219 632.097656 C 717.8125 630.023438 716.695312 627.738281 715.4375 625.640625 L 707.792969 612.503906 Z M 739.519531 612.503906 L 739.519531 639.96875 L 754.488281 639.96875 L 754.488281 635.4375 L 744.828125 635.4375 L 744.828125 628.023438 L 753.984375 628.023438 L 753.984375 623.71875 L 744.828125 623.71875 L 744.828125 616.992188 L 754.488281 616.992188 L 754.488281 612.503906 Z M 465.710938 616.625 C 469.058594 616.625 470.289062 617.988281 470.289062 620.011719 C 470.289062 622.445312 468.414062 623.902344 464.796875 623.902344 C 463.925781 623.902344 463.273438 623.898438 462.644531 623.855469 L 462.644531 616.714844 C 463.585938 616.675781 464.613281 616.625 465.710938 616.625 Z M 221.160156 616.671875 C 224.476562 616.671875 226.148438 617.980469 226.148438 620.605469 C 226.148438 623.175781 224.195312 624.816406 221.023438 624.816406 C 220.207031 624.816406 219.464844 624.769531 219.097656 624.726562 L 219.097656 616.761719 C 219.640625 616.683594 220.402344 616.671875 221.160156 616.671875 Z M 570.089844 616.671875 C 573.433594 616.671875 575.035156 617.980469 575.035156 620.605469 C 575.035156 623.175781 573.078125 624.816406 569.90625 624.816406 C 569.078125 624.816406 568.371094 624.769531 568.027344 624.726562 L 568.027344 616.761719 C 568.539062 616.683594 569.316406 616.671875 570.089844 616.671875 Z M 380.882812 616.761719 C 387.15625 616.761719 389.488281 620.273438 389.488281 626.191406 C 389.488281 632.707031 385.710938 635.621094 380.5625 635.621094 C 379.539062 635.621094 378.4375 635.519531 377.726562 635.390625 L 377.726562 616.898438 C 378.578125 616.835938 379.683594 616.761719 380.882812 616.761719 Z M 500.824219 616.851562 C 505.527344 616.851562 508.105469 620.171875 508.105469 626.28125 C 508.105469 632.863281 504.300781 635.621094 500.734375 635.621094 C 495.816406 635.621094 493.546875 631.832031 493.546875 626.007812 C 493.546875 619.824219 497.039062 616.851562 500.824219 616.851562 Z M 640.496094 616.851562 C 645.214844 616.851562 647.824219 620.171875 647.824219 626.28125 C 647.824219 632.863281 643.976562 635.621094 640.40625 635.621094 C 635.472656 635.621094 633.171875 631.832031 633.171875 626.007812 C 633.171875 619.824219 636.695312 616.851562 640.496094 616.851562 Z M 464.933594 627.839844 C 468.390625 627.839844 470.703125 628.960938 470.703125 631.636719 C 470.703125 634.125 468.972656 635.757812 465.484375 635.757812 C 464.285156 635.757812 463.273438 635.660156 462.644531 635.574219 L 462.644531 627.882812 C 463.191406 627.84375 464.53125 627.839844 464.933594 627.839844 Z M 464.933594 627.839844 " fill-opacity="1" fill-rule="nonzero"/></svg>