<svg xmlns="http://www.w3.org/2000/svg" xmlns:xlink="http://www.w3.org/1999/xlink" width="1080" zoomAndPan="magnify" viewBox="0 0 810 809.999993" height="1080" preserveAspectRatio="xMidYMid meet" version="1.0"><rect x="-81" width="972" fill="#ffffff" y="-80.999999" height="971.999992" fill-opacity="1"/><rect x="-81" width="972" fill="#ffffff" y="-80.999999" height="971.999992" fill-opacity="1"/><path fill="#2a2e46" d="M 120.425781 408.085938 C 59.40625 408.085938 9.726562 358.4375 9.726562 296.914062 L 9.726562 165.773438 L 58.863281 165.773438 L 58.863281 296.914062 C 58.863281 330.914062 86.40625 358.4375 120.425781 358.4375 C 154.445312 358.4375 181.984375 330.914062 181.984375 296.914062 L 181.984375 165.773438 L 231.121094 165.773438 L 231.121094 296.914062 C 231.121094 358.4375 181.441406 408.085938 120.425781 408.085938 Z M 120.425781 408.085938 " fill-opacity="1" fill-rule="nonzero"/><path fill="#2a2e46" d="M 665.277344 264.535156 L 746.273438 404.308594 L 803.515625 404.308594 L 665.277344 165.773438 L 527.578125 404.308594 L 584.816406 404.308594 Z M 665.277344 264.535156 " fill-opacity="1" fill-rule="nonzero"/><path fill="#2a2e46" d="M 396.898438 408.085938 C 373.679688 408.085938 350.460938 401.613281 329.941406 388.121094 C 272.703125 350.882812 256.503906 274.25 293.761719 217.582031 C 331.019531 160.378906 407.160156 144.1875 464.398438 181.425781 L 437.398438 222.980469 C 403.378906 200.851562 357.480469 210.566406 335.339844 244.566406 C 313.203125 278.566406 322.921875 324.4375 356.941406 346.566406 C 390.960938 368.691406 436.859375 358.976562 459 324.976562 L 500.578125 351.960938 C 476.277344 388.121094 436.859375 408.085938 396.898438 408.085938 Z M 396.898438 408.085938 " fill-opacity="1" fill-rule="nonzero"/><path fill="#2a2e46" d="M 395.28125 260.21875 L 504.898438 260.21875 L 504.898438 309.328125 L 395.28125 309.328125 Z M 395.28125 260.21875 " fill-opacity="1" fill-rule="nonzero"/><path fill="#e84e0f" d="M 665.277344 370.851562 L 606.957031 472.308594 L 724.136719 472.308594 Z M 665.277344 370.851562 " fill-opacity="1" fill-rule="nonzero"/><path fill="#2a2e46" d="M 17.824219 520.339844 C 12.425781 514.941406 9.726562 508.46875 9.726562 500.371094 L 9.726562 456.660156 L 24.84375 456.660156 L 24.84375 499.832031 C 24.84375 504.148438 25.925781 507.386719 28.625 510.085938 C 31.324219 512.785156 34.566406 513.863281 38.34375 513.863281 C 42.125 513.863281 45.90625 512.785156 48.605469 510.085938 C 51.304688 507.386719 52.386719 504.148438 52.386719 499.832031 L 52.386719 456.660156 L 67.503906 456.660156 L 67.503906 500.371094 C 67.503906 508.46875 64.804688 515.484375 59.40625 520.339844 C 54.003906 525.738281 46.984375 528.433594 38.34375 528.433594 C 30.246094 527.894531 23.226562 525.738281 17.824219 520.339844 Z M 17.824219 520.339844 " fill-opacity="1" fill-rule="nonzero"/><path fill="#2a2e46" d="M 128.523438 477.167969 C 132.304688 481.484375 133.921875 486.878906 133.921875 493.894531 L 133.921875 526.816406 L 119.34375 526.816406 L 119.34375 496.054688 C 119.34375 487.960938 116.105469 483.640625 110.164062 483.640625 C 107.464844 483.640625 105.304688 484.183594 103.683594 485.261719 C 102.0625 486.339844 100.445312 487.960938 99.363281 490.117188 C 98.285156 492.277344 97.746094 494.976562 97.746094 497.671875 L 97.746094 526.277344 L 83.164062 526.277344 L 83.164062 472.308594 L 93.425781 472.308594 L 96.125 478.785156 C 97.203125 477.707031 98.285156 476.625 99.363281 475.546875 C 100.445312 474.46875 102.0625 473.929688 103.683594 472.847656 C 105.304688 472.308594 106.925781 471.769531 108.542969 471.230469 C 110.164062 470.691406 111.785156 470.691406 113.945312 470.691406 C 119.882812 471.230469 124.742188 473.386719 128.523438 477.167969 Z M 128.523438 477.167969 " fill-opacity="1" fill-rule="nonzero"/><path fill="#2a2e46" d="M 149.582031 451.261719 L 164.164062 451.261719 L 164.164062 464.753906 L 149.582031 464.753906 Z M 149.582031 472.308594 L 164.164062 472.308594 L 164.164062 526.277344 L 149.582031 526.277344 Z M 149.582031 472.308594 " fill-opacity="1" fill-rule="nonzero"/><path fill="#2a2e46" d="M 231.121094 472.308594 L 209.523438 526.277344 L 196.023438 526.277344 L 173.882812 472.308594 L 189.542969 472.308594 L 203.042969 508.46875 L 216.003906 472.308594 Z M 231.121094 472.308594 " fill-opacity="1" fill-rule="nonzero"/><path fill="#2a2e46" d="M 291.0625 503.609375 L 250.023438 503.609375 C 250.5625 507.386719 252.183594 510.085938 254.34375 512.246094 C 256.503906 514.402344 259.742188 514.941406 262.980469 514.941406 C 265.683594 514.941406 267.84375 514.402344 269.460938 513.324219 C 271.621094 512.246094 273.242188 510.625 274.320312 509.007812 L 289.980469 509.007812 C 287.820312 514.941406 284.582031 519.800781 279.722656 523.039062 C 274.863281 526.277344 269.460938 528.433594 262.980469 528.433594 C 254.882812 528.433594 248.402344 525.738281 243.003906 520.339844 C 237.601562 514.941406 234.902344 507.925781 234.902344 499.832031 C 234.902344 496.59375 235.441406 493.355469 236.523438 490.65625 C 237.601562 487.960938 238.683594 485.261719 240.300781 482.5625 C 241.921875 480.402344 244.082031 478.246094 246.242188 476.625 C 248.402344 475.007812 251.101562 473.386719 253.800781 472.847656 C 256.503906 471.769531 259.742188 471.230469 262.980469 471.230469 C 268.382812 471.230469 273.242188 472.308594 277.5625 475.007812 C 281.882812 477.707031 285.121094 480.945312 287.28125 485.261719 C 289.441406 489.578125 290.523438 494.4375 290.523438 499.292969 C 291.601562 500.910156 291.0625 501.992188 291.0625 503.609375 Z M 254.882812 485.800781 C 252.722656 487.417969 251.101562 490.117188 250.5625 493.355469 L 277.023438 493.355469 C 276.480469 491.199219 275.402344 489.039062 274.320312 487.960938 C 273.242188 486.339844 271.621094 485.261719 270 484.722656 C 268.382812 484.183594 266.222656 483.640625 264.0625 483.640625 C 260.28125 483.101562 257.042969 484.183594 254.882812 485.800781 Z M 254.882812 485.800781 " fill-opacity="1" fill-rule="nonzero"/><path fill="#2a2e46" d="M 336.421875 472.308594 L 336.421875 485.800781 L 329.941406 485.800781 C 325.621094 485.800781 322.921875 486.878906 321.300781 488.5 C 319.679688 490.65625 318.601562 493.355469 318.601562 498.214844 L 318.601562 526.277344 L 304.019531 526.277344 L 304.019531 472.308594 L 313.203125 472.308594 L 315.902344 478.785156 C 319.679688 473.929688 324.542969 471.769531 331.5625 471.769531 L 336.421875 471.769531 Z M 336.421875 472.308594 " fill-opacity="1" fill-rule="nonzero"/><path fill="#2a2e46" d="M 353.699219 525.738281 C 350.460938 524.117188 347.761719 521.960938 345.601562 518.722656 C 343.441406 516.023438 342.902344 512.246094 342.902344 508.46875 L 356.941406 508.46875 C 356.941406 510.085938 357.480469 511.164062 358.019531 512.785156 C 358.5625 513.863281 359.640625 514.941406 361.261719 514.941406 C 362.339844 515.484375 363.960938 515.484375 366.121094 515.484375 C 367.742188 515.484375 368.820312 515.484375 369.902344 514.941406 C 370.980469 514.402344 372.058594 513.863281 372.601562 513.324219 C 373.140625 512.246094 373.679688 511.707031 373.679688 510.625 C 373.679688 509.007812 372.601562 507.925781 370.980469 506.847656 C 369.359375 506.308594 366.660156 505.230469 362.878906 504.6875 C 360.71875 504.148438 359.101562 504.148438 357.480469 503.609375 C 355.859375 503.070312 354.242188 502.53125 352.621094 501.992188 C 350.460938 500.910156 348.839844 500.371094 347.761719 499.292969 C 346.679688 498.214844 345.601562 496.59375 344.519531 494.976562 C 343.441406 493.355469 343.441406 490.65625 343.441406 488.5 C 343.441406 483.640625 345.601562 479.324219 349.378906 476.085938 C 353.160156 472.847656 358.5625 471.230469 365.039062 471.230469 C 371.519531 471.230469 376.921875 472.847656 380.699219 476.085938 C 384.480469 479.324219 386.640625 483.640625 386.640625 489.039062 L 372.601562 489.039062 C 372.601562 484.722656 369.902344 482.5625 364.5 482.5625 C 362.339844 482.5625 360.179688 483.101562 359.101562 484.183594 C 358.019531 485.261719 356.941406 486.339844 356.941406 487.960938 C 356.941406 488.5 356.941406 489.039062 357.480469 489.578125 C 358.019531 490.117188 358.019531 490.65625 358.5625 491.199219 C 359.101562 491.738281 359.640625 491.738281 360.71875 492.277344 C 361.800781 492.816406 362.878906 492.816406 363.421875 492.816406 L 366.660156 493.355469 C 367.742188 493.355469 368.820312 493.894531 369.359375 493.894531 C 369.902344 493.894531 370.980469 494.4375 372.058594 494.4375 C 373.140625 494.4375 374.21875 494.976562 374.761719 494.976562 C 375.300781 494.976562 376.378906 495.515625 377.460938 496.054688 C 378.539062 496.59375 379.621094 497.132812 380.160156 497.132812 C 380.699219 497.671875 381.238281 498.214844 382.320312 498.753906 C 383.398438 499.292969 383.941406 499.832031 384.480469 500.910156 C 385.019531 501.453125 385.558594 502.53125 386.101562 503.070312 C 386.640625 504.148438 386.640625 504.6875 387.179688 506.308594 C 387.179688 507.386719 387.179688 508.46875 387.179688 510.085938 C 387.179688 515.484375 385.019531 520.339844 380.699219 523.578125 C 376.378906 526.816406 370.980469 528.433594 363.960938 528.433594 C 361.261719 527.894531 356.941406 527.355469 353.699219 525.738281 Z M 353.699219 525.738281 " fill-opacity="1" fill-rule="nonzero"/><path fill="#2a2e46" d="M 401.21875 451.261719 L 415.800781 451.261719 L 415.800781 464.753906 L 401.21875 464.753906 Z M 401.21875 472.308594 L 415.800781 472.308594 L 415.800781 526.277344 L 401.21875 526.277344 Z M 401.21875 472.308594 " fill-opacity="1" fill-rule="nonzero"/><path fill="#2a2e46" d="M 464.9375 513.324219 L 464.9375 526.277344 L 454.679688 526.277344 C 450.898438 526.277344 447.121094 525.738281 444.417969 524.117188 C 441.71875 522.5 439.019531 520.339844 437.941406 517.640625 C 436.320312 514.941406 435.78125 511.164062 435.78125 507.386719 L 435.78125 484.183594 L 426.058594 484.183594 L 426.058594 480.945312 L 447.660156 458.277344 L 450.359375 458.277344 L 450.359375 472.308594 L 464.398438 472.308594 L 464.398438 484.183594 L 449.820312 484.183594 L 449.820312 505.230469 C 449.820312 507.925781 450.359375 510.085938 451.980469 511.164062 C 453.597656 512.246094 455.21875 513.324219 457.917969 513.324219 Z M 464.9375 513.324219 " fill-opacity="1" fill-rule="nonzero"/><path fill="#2a2e46" d="M 528.660156 503.609375 L 487.617188 503.609375 C 488.160156 507.386719 489.777344 510.085938 491.9375 512.246094 C 494.097656 514.402344 497.339844 514.941406 500.578125 514.941406 C 503.277344 514.941406 505.4375 514.402344 507.058594 513.324219 C 509.21875 512.246094 510.839844 510.625 511.917969 509.007812 L 527.578125 509.007812 C 525.417969 514.941406 522.179688 519.800781 517.320312 523.039062 C 512.457031 526.277344 507.058594 528.433594 500.578125 528.433594 C 492.480469 528.433594 486 525.738281 480.597656 520.339844 C 475.199219 514.941406 472.5 507.925781 472.5 499.832031 C 472.5 496.59375 473.039062 493.355469 474.117188 490.65625 C 475.199219 487.960938 476.277344 485.261719 477.898438 482.5625 C 479.519531 480.402344 481.679688 478.246094 483.839844 476.625 C 486 475.007812 488.699219 473.386719 491.398438 472.847656 C 494.097656 471.769531 497.339844 471.230469 500.578125 471.230469 C 505.980469 471.230469 510.839844 472.308594 515.160156 475.007812 C 519.476562 477.707031 522.71875 480.945312 524.878906 485.261719 C 527.039062 489.578125 528.117188 494.4375 528.117188 499.292969 C 529.199219 500.910156 529.199219 501.992188 528.660156 503.609375 Z M 493.019531 485.800781 C 490.859375 487.417969 489.238281 490.117188 488.699219 493.355469 L 515.160156 493.355469 C 514.617188 491.199219 513.539062 489.039062 512.457031 487.960938 C 511.378906 486.339844 509.757812 485.261719 508.136719 484.722656 C 506.519531 484.183594 504.359375 483.640625 502.199219 483.640625 C 497.878906 483.101562 495.179688 484.183594 493.019531 485.800781 Z M 505.4375 466.371094 L 494.640625 466.371094 L 500.039062 451.261719 L 515.699219 451.261719 Z M 505.4375 466.371094 " fill-opacity="1" fill-rule="nonzero"/><path fill="#2a2e46" d="M 78.84375 591.578125 C 78.84375 602.910156 75.605469 612.085938 68.585938 619.101562 C 62.105469 626.117188 53.464844 629.894531 42.664062 629.894531 C 32.40625 629.894531 23.765625 626.65625 16.746094 619.640625 C 9.726562 612.625 6.484375 603.988281 6.484375 593.734375 C 6.484375 582.941406 9.726562 574.308594 16.746094 567.292969 C 23.765625 560.277344 32.40625 557.039062 42.664062 557.039062 C 51.304688 557.039062 58.863281 559.734375 65.886719 564.59375 C 72.363281 569.449219 76.683594 575.925781 78.304688 584.019531 L 62.644531 584.019531 C 61.566406 581.324219 59.945312 579.164062 58.324219 577.546875 C 56.703125 575.925781 54.003906 574.308594 51.84375 573.226562 C 49.144531 572.148438 46.445312 571.609375 43.746094 571.609375 C 37.265625 571.609375 32.40625 573.769531 28.625 578.085938 C 24.84375 582.402344 22.683594 587.800781 22.683594 594.273438 C 22.683594 598.59375 23.765625 602.371094 25.386719 605.609375 C 27.003906 608.847656 29.707031 611.542969 32.945312 613.703125 C 36.183594 615.324219 39.964844 616.402344 43.746094 616.402344 C 46.984375 616.402344 49.683594 615.863281 52.386719 614.78125 C 55.085938 613.703125 57.246094 612.625 59.40625 610.464844 C 61.566406 608.847656 62.644531 606.6875 63.726562 603.988281 L 41.046875 603.988281 L 41.046875 592.117188 L 78.84375 592.117188 Z M 78.84375 591.578125 " fill-opacity="1" fill-rule="nonzero"/><path fill="#2a2e46" d="M 123.664062 573.769531 L 123.664062 587.800781 L 117.183594 587.800781 C 112.863281 587.800781 110.164062 588.878906 108.542969 590.496094 C 106.925781 592.65625 105.84375 595.355469 105.84375 600.210938 L 105.84375 628.273438 L 91.265625 628.273438 L 91.265625 574.308594 L 100.445312 574.308594 L 103.144531 580.785156 C 106.925781 575.925781 111.785156 573.769531 118.804688 573.769531 Z M 123.664062 573.769531 " fill-opacity="1" fill-rule="nonzero"/><path fill="#2a2e46" d="M 185.222656 605.070312 L 144.183594 605.070312 C 144.722656 608.847656 146.34375 611.542969 148.503906 613.703125 C 150.664062 615.863281 153.902344 616.402344 157.144531 616.402344 C 159.84375 616.402344 162.003906 615.863281 163.625 614.78125 C 165.785156 613.703125 167.402344 612.085938 168.484375 610.464844 L 184.144531 610.464844 C 181.984375 616.402344 178.742188 621.257812 173.882812 624.496094 C 169.023438 627.734375 163.625 629.894531 157.144531 629.894531 C 149.042969 629.894531 142.5625 627.195312 137.164062 621.796875 C 131.765625 616.402344 129.0625 609.386719 129.0625 601.289062 C 129.0625 598.054688 129.605469 594.816406 130.683594 592.117188 C 131.765625 589.417969 132.84375 586.71875 134.464844 584.019531 C 136.082031 581.863281 138.242188 579.703125 140.402344 578.085938 C 142.5625 576.464844 145.261719 574.847656 147.964844 574.308594 C 150.664062 573.226562 153.902344 572.6875 157.144531 572.6875 C 162.542969 572.6875 167.402344 573.769531 171.722656 576.464844 C 176.042969 579.164062 179.28125 582.402344 181.441406 586.71875 C 183.601562 591.039062 184.683594 595.894531 184.683594 600.75 C 185.222656 602.371094 185.222656 603.449219 185.222656 605.070312 Z M 149.042969 587.800781 C 146.882812 589.417969 145.261719 592.117188 144.722656 595.355469 L 171.183594 595.355469 C 170.644531 593.195312 169.5625 591.039062 168.484375 589.957031 C 167.402344 588.339844 165.785156 587.257812 164.164062 586.71875 C 162.542969 586.179688 160.382812 585.640625 158.222656 585.640625 C 153.902344 585.101562 151.203125 585.640625 149.042969 587.800781 Z M 149.042969 587.800781 " fill-opacity="1" fill-rule="nonzero"/><path fill="#2a2e46" d="M 243.542969 578.625 C 247.320312 582.941406 248.941406 588.339844 248.941406 595.355469 L 248.941406 628.273438 L 234.363281 628.273438 L 234.363281 597.511719 C 234.363281 589.417969 231.121094 585.101562 225.183594 585.101562 C 222.484375 585.101562 220.324219 585.640625 218.703125 586.71875 C 217.082031 587.800781 215.460938 589.417969 214.382812 591.578125 C 213.300781 593.734375 212.761719 596.433594 212.761719 599.132812 L 212.761719 627.734375 L 198.183594 627.734375 L 198.183594 573.769531 L 208.441406 573.769531 L 211.144531 580.242188 C 212.222656 579.164062 213.300781 578.085938 214.382812 577.003906 C 215.460938 575.925781 217.082031 575.386719 218.703125 574.308594 C 220.324219 573.769531 221.941406 573.226562 223.5625 572.6875 C 225.183594 572.148438 226.800781 572.148438 228.960938 572.148438 C 234.902344 572.6875 239.761719 574.847656 243.542969 578.625 Z M 243.542969 578.625 " fill-opacity="1" fill-rule="nonzero"/><path fill="#2a2e46" d="M 274.863281 626.117188 C 270.542969 623.417969 266.761719 620.179688 264.601562 615.863281 C 261.902344 611.542969 260.820312 606.6875 260.820312 601.292969 C 260.820312 593.195312 263.523438 586.179688 268.921875 580.785156 C 274.320312 575.386719 281.339844 572.6875 289.980469 572.6875 C 298.621094 572.6875 305.101562 575.386719 311.042969 580.785156 C 316.441406 586.179688 319.140625 593.195312 319.140625 601.292969 C 319.140625 609.386719 316.441406 616.402344 310.5 621.796875 C 305.101562 627.195312 298.082031 629.894531 289.441406 629.894531 C 284.582031 629.894531 279.183594 628.273438 274.863281 626.117188 Z M 300.242188 611.542969 C 302.941406 608.847656 304.019531 605.070312 304.019531 600.75 C 304.019531 596.433594 302.941406 592.65625 300.242188 589.957031 C 297.542969 587.257812 294.300781 585.640625 289.980469 585.640625 C 285.660156 585.640625 282.421875 587.257812 279.722656 589.957031 C 277.023438 592.65625 275.941406 596.433594 275.941406 600.75 C 275.941406 602.910156 276.480469 605.070312 277.023438 606.6875 C 277.5625 608.308594 278.640625 609.925781 279.722656 611.542969 C 280.800781 612.625 282.421875 613.703125 284.042969 614.78125 C 285.660156 615.863281 287.820312 615.863281 289.980469 615.863281 C 294.300781 615.863281 297.542969 614.242188 300.242188 611.542969 Z M 300.242188 611.542969 " fill-opacity="1" fill-rule="nonzero"/><path fill="#2a2e46" d="M 381.78125 580.785156 C 387.179688 586.179688 389.878906 593.195312 389.878906 601.292969 C 389.878906 609.386719 387.179688 616.402344 381.78125 621.796875 C 376.378906 627.195312 369.359375 629.894531 361.261719 629.894531 C 354.78125 629.894531 348.839844 627.734375 344.519531 623.957031 L 342.902344 628.273438 L 332.101562 628.273438 L 332.101562 554.339844 L 346.679688 554.339844 L 346.679688 577.003906 C 351 574.308594 355.859375 572.6875 361.800781 572.6875 C 369.359375 572.148438 376.378906 575.386719 381.78125 580.785156 Z M 370.441406 611.542969 C 373.140625 608.847656 374.761719 605.070312 374.761719 600.75 C 374.761719 598.054688 374.21875 595.355469 373.140625 593.195312 C 372.058594 591.039062 369.902344 588.878906 367.742188 587.800781 C 365.582031 586.71875 362.878906 585.640625 360.179688 585.640625 C 357.480469 585.640625 354.78125 586.179688 352.621094 587.800781 C 350.460938 588.878906 348.300781 591.039062 347.222656 593.195312 C 346.140625 595.355469 345.0625 598.054688 345.0625 600.75 C 345.0625 605.070312 346.679688 608.308594 349.378906 611.542969 C 352.082031 614.242188 355.859375 615.863281 360.179688 615.863281 C 364.5 615.863281 367.742188 614.242188 370.441406 611.542969 Z M 370.441406 611.542969 " fill-opacity="1" fill-rule="nonzero"/><path fill="#2a2e46" d="M 402.300781 554.339844 L 416.878906 554.339844 L 416.878906 628.273438 L 402.300781 628.273438 Z M 402.300781 554.339844 " fill-opacity="1" fill-rule="nonzero"/><path fill="#2a2e46" d="M 485.457031 605.070312 L 444.417969 605.070312 C 444.960938 608.847656 446.578125 611.542969 448.738281 613.703125 C 450.898438 615.863281 454.140625 616.402344 457.378906 616.402344 C 460.078125 616.402344 462.238281 615.863281 463.859375 614.78125 C 466.019531 613.703125 467.640625 612.085938 468.71875 610.464844 L 484.378906 610.464844 C 482.21875 616.402344 478.980469 621.257812 474.117188 624.496094 C 469.257812 627.734375 463.859375 629.894531 457.378906 629.894531 C 449.28125 629.894531 442.800781 627.195312 437.398438 621.796875 C 432 616.402344 429.300781 609.386719 429.300781 601.289062 C 429.300781 598.054688 429.839844 594.816406 430.917969 592.117188 C 432 589.417969 433.078125 586.71875 434.699219 584.019531 C 436.320312 581.324219 438.480469 579.703125 440.640625 578.085938 C 442.800781 576.464844 445.5 574.847656 448.199219 574.308594 C 450.898438 573.769531 454.140625 572.6875 457.378906 572.6875 C 462.777344 572.6875 467.640625 573.769531 471.960938 576.464844 C 476.277344 579.164062 479.519531 582.402344 481.679688 586.71875 C 483.839844 591.039062 484.917969 595.894531 484.917969 600.75 C 485.457031 602.371094 485.457031 603.449219 485.457031 605.070312 Z M 449.28125 587.800781 C 447.121094 589.417969 445.5 592.117188 444.960938 595.355469 L 471.417969 595.355469 C 470.878906 593.195312 469.800781 591.039062 468.71875 589.957031 C 467.640625 588.339844 466.019531 587.257812 464.398438 586.71875 C 462.777344 586.179688 460.621094 585.640625 458.460938 585.640625 C 454.140625 585.101562 451.4375 585.640625 449.28125 587.800781 Z M 449.28125 587.800781 " fill-opacity="1" fill-rule="nonzero"/><path fill="#2a2e46" d="M 564.296875 614.78125 L 536.21875 614.78125 L 531.359375 628.273438 L 515.160156 628.273438 L 542.699219 558.117188 L 557.277344 558.117188 L 585.898438 628.273438 L 569.15625 628.273438 Z M 541.078125 601.292969 L 559.4375 601.292969 L 550.257812 575.925781 Z M 541.078125 601.292969 " fill-opacity="1" fill-rule="nonzero"/><path fill="#2a2e46" d="M 595.617188 554.339844 L 610.195312 554.339844 L 610.195312 628.273438 L 595.617188 628.273438 Z M 595.617188 554.339844 " fill-opacity="1" fill-rule="nonzero"/><path fill="#2a2e46" d="M 676.617188 580.785156 C 682.015625 586.179688 684.714844 593.195312 684.714844 601.292969 C 684.714844 609.386719 682.015625 616.402344 676.617188 621.796875 C 671.214844 627.195312 664.195312 629.894531 656.097656 629.894531 C 650.695312 629.894531 645.296875 628.273438 640.976562 625.578125 L 640.976562 647.703125 L 626.398438 647.703125 L 626.398438 573.769531 L 636.117188 573.769531 L 638.816406 578.625 C 643.675781 574.308594 649.617188 572.148438 656.097656 572.148438 C 664.195312 572.148438 671.214844 575.386719 676.617188 580.785156 Z M 665.277344 611.542969 C 667.976562 608.847656 669.597656 605.070312 669.597656 600.75 C 669.597656 598.054688 669.054688 595.355469 667.4375 593.195312 C 666.355469 591.039062 664.195312 588.878906 662.035156 587.800781 C 659.875 586.71875 657.175781 585.640625 654.476562 585.640625 C 651.777344 585.640625 649.078125 586.179688 646.917969 587.800781 C 644.757812 588.878906 643.136719 591.039062 641.515625 593.195312 C 640.4375 595.355469 639.898438 598.054688 639.898438 600.75 C 639.898438 605.070312 641.515625 608.847656 644.214844 611.542969 C 646.917969 614.242188 650.695312 615.863281 655.015625 615.863281 C 658.796875 615.863281 662.578125 614.242188 665.277344 611.542969 Z M 665.277344 611.542969 " fill-opacity="1" fill-rule="nonzero"/><path fill="#2a2e46" d="M 749.515625 605.070312 L 708.476562 605.070312 C 709.015625 608.847656 710.636719 611.542969 712.796875 613.703125 C 714.957031 615.863281 718.195312 616.402344 721.433594 616.402344 C 724.136719 616.402344 726.296875 615.863281 727.914062 614.78125 C 730.074219 613.703125 731.695312 612.085938 732.773438 610.464844 L 748.433594 610.464844 C 746.273438 616.402344 743.035156 621.257812 738.175781 624.496094 C 733.316406 627.734375 727.914062 629.894531 721.433594 629.894531 C 713.335938 629.894531 706.855469 627.195312 701.457031 621.796875 C 696.054688 616.402344 693.355469 609.386719 693.355469 601.289062 C 693.355469 598.054688 693.894531 594.816406 694.976562 592.117188 C 696.054688 589.417969 697.136719 586.71875 698.753906 584.019531 C 700.375 581.863281 702.535156 579.703125 704.695312 578.085938 C 706.855469 576.464844 709.554688 574.847656 712.253906 574.308594 C 714.957031 573.226562 718.195312 572.6875 721.433594 572.6875 C 726.835938 572.6875 731.695312 573.769531 736.015625 576.464844 C 740.335938 579.164062 743.574219 582.402344 745.734375 586.71875 C 747.894531 591.039062 748.976562 595.894531 748.976562 600.75 C 749.515625 602.371094 749.515625 603.449219 749.515625 605.070312 Z M 713.335938 587.800781 C 711.175781 589.417969 709.554688 592.117188 709.015625 595.355469 L 735.476562 595.355469 C 734.933594 593.195312 733.855469 591.039062 732.773438 589.957031 C 731.695312 588.339844 730.074219 587.257812 728.457031 586.71875 C 726.835938 586.179688 724.675781 585.640625 722.515625 585.640625 C 718.195312 585.101562 715.496094 585.640625 713.335938 587.800781 Z M 713.335938 587.800781 " fill-opacity="1" fill-rule="nonzero"/><path fill="#2a2e46" d="M 769.496094 627.195312 C 766.253906 625.578125 763.554688 623.417969 761.394531 620.179688 C 759.234375 617.480469 758.695312 613.703125 758.695312 609.925781 L 772.734375 609.925781 C 772.734375 611.542969 773.273438 612.625 773.816406 614.242188 C 774.355469 615.324219 775.433594 616.402344 777.054688 616.402344 C 778.132812 616.941406 779.753906 616.941406 781.914062 616.941406 C 783.535156 616.941406 784.613281 616.941406 785.695312 616.402344 C 786.773438 615.863281 787.855469 615.324219 788.394531 614.78125 C 788.933594 613.703125 789.472656 613.164062 789.472656 612.085938 C 789.472656 610.464844 788.394531 609.386719 786.773438 608.308594 C 785.15625 607.765625 782.453125 606.6875 778.675781 606.148438 C 776.515625 605.609375 774.894531 605.609375 773.273438 605.070312 C 771.65625 604.527344 770.035156 603.988281 768.414062 603.449219 C 766.253906 602.371094 764.636719 601.832031 763.554688 600.75 C 762.476562 599.671875 761.394531 598.054688 760.316406 596.433594 C 759.234375 594.816406 759.234375 592.117188 759.234375 589.957031 C 759.234375 585.101562 761.394531 580.785156 765.175781 577.546875 C 768.953125 574.308594 774.355469 572.6875 780.835938 572.6875 C 787.316406 572.6875 792.714844 574.308594 796.496094 577.546875 C 800.273438 580.785156 802.433594 585.101562 802.433594 590.496094 L 788.394531 590.496094 C 788.394531 586.179688 785.695312 584.019531 780.292969 584.019531 C 778.132812 584.019531 775.976562 584.5625 774.894531 585.640625 C 773.816406 586.71875 772.734375 587.800781 772.734375 589.417969 C 772.734375 589.957031 772.734375 590.496094 773.273438 591.039062 C 773.816406 591.578125 773.816406 592.117188 774.355469 592.65625 C 774.894531 593.195312 775.433594 593.195312 776.515625 593.734375 C 777.59375 594.273438 778.675781 594.273438 779.214844 594.273438 L 782.453125 594.816406 C 783.535156 594.816406 784.613281 595.355469 785.15625 595.355469 C 785.695312 595.355469 786.773438 595.894531 787.855469 595.894531 C 788.933594 595.894531 790.015625 596.433594 790.554688 596.433594 C 791.09375 596.433594 792.175781 596.972656 793.253906 597.511719 C 794.335938 598.054688 795.414062 598.59375 795.953125 598.59375 C 796.496094 599.132812 797.035156 599.671875 798.113281 600.210938 C 799.195312 600.75 799.734375 601.289062 800.273438 602.371094 C 800.8125 602.910156 801.355469 603.988281 801.894531 604.527344 C 802.433594 605.609375 802.433594 606.148438 802.972656 607.765625 C 802.972656 608.847656 802.972656 609.925781 802.972656 611.542969 C 802.972656 616.941406 800.8125 621.796875 796.496094 625.035156 C 792.175781 628.273438 786.773438 629.894531 779.753906 629.894531 C 777.054688 629.894531 772.734375 628.8125 769.496094 627.195312 Z M 769.496094 627.195312 " fill-opacity="1" fill-rule="nonzero"/></svg>