<svg xmlns="http://www.w3.org/2000/svg" xmlns:xlink="http://www.w3.org/1999/xlink" width="1080" zoomAndPan="magnify" viewBox="0 0 810 809.999993" height="1080" preserveAspectRatio="xMidYMid meet" version="1.0"><rect x="-81" width="972" fill="#ffffff" y="-80.999999" height="971.999992" fill-opacity="1"/><rect x="-81" width="972" fill="#ffffff" y="-80.999999" height="971.999992" fill-opacity="1"/><path fill="#00b0db" d="M 728.636719 405.265625 C 728.636719 406.09375 728.597656 406.917969 728.515625 407.738281 C 728.4375 408.5625 728.316406 409.378906 728.152344 410.191406 C 727.992188 411 727.792969 411.800781 727.550781 412.59375 C 727.3125 413.382812 727.035156 414.160156 726.71875 414.925781 C 726.402344 415.6875 726.050781 416.433594 725.664062 417.164062 C 725.273438 417.894531 724.847656 418.601562 724.390625 419.289062 C 723.933594 419.976562 723.441406 420.640625 722.917969 421.277344 C 722.394531 421.917969 721.839844 422.527344 721.257812 423.113281 C 720.671875 423.699219 720.0625 424.253906 719.425781 424.777344 C 718.785156 425.300781 718.125 425.792969 717.4375 426.253906 C 716.753906 426.710938 716.046875 427.136719 715.316406 427.527344 C 714.589844 427.914062 713.84375 428.269531 713.082031 428.585938 C 712.320312 428.902344 711.542969 429.179688 710.753906 429.417969 C 709.964844 429.660156 709.164062 429.859375 708.355469 430.023438 C 707.546875 430.183594 706.730469 430.304688 705.910156 430.386719 C 705.089844 430.464844 704.265625 430.507812 703.441406 430.507812 C 702.613281 430.507812 701.792969 430.464844 700.96875 430.386719 C 700.148438 430.304688 699.332031 430.183594 698.523438 430.019531 C 697.714844 429.859375 696.914062 429.660156 696.125 429.417969 C 695.335938 429.179688 694.558594 428.902344 693.796875 428.585938 C 693.035156 428.269531 692.289062 427.914062 691.5625 427.527344 C 690.832031 427.136719 690.125 426.710938 689.441406 426.253906 C 688.753906 425.792969 688.09375 425.300781 687.453125 424.777344 C 686.816406 424.253906 686.207031 423.699219 685.621094 423.113281 C 685.039062 422.527344 684.484375 421.917969 683.960938 421.277344 C 683.4375 420.640625 682.945312 419.976562 682.488281 419.289062 C 682.03125 418.601562 681.605469 417.894531 681.21875 417.164062 C 680.828125 416.433594 680.476562 415.6875 680.160156 414.925781 C 679.84375 414.160156 679.566406 413.382812 679.328125 412.59375 C 679.085938 411.800781 678.886719 411 678.726562 410.191406 C 678.566406 409.378906 678.445312 408.5625 678.363281 407.738281 C 678.28125 406.917969 678.242188 406.09375 678.242188 405.265625 C 678.242188 404.4375 678.28125 403.613281 678.363281 402.792969 C 678.445312 401.96875 678.566406 401.152344 678.726562 400.339844 C 678.886719 399.53125 679.085938 398.730469 679.328125 397.9375 C 679.566406 397.148438 679.84375 396.371094 680.160156 395.605469 C 680.476562 394.84375 680.828125 394.097656 681.21875 393.367188 C 681.605469 392.636719 682.03125 391.929688 682.488281 391.242188 C 682.945312 390.554688 683.4375 389.890625 683.960938 389.253906 C 684.484375 388.613281 685.039062 388.003906 685.621094 387.417969 C 686.207031 386.832031 686.816406 386.277344 687.453125 385.753906 C 688.09375 385.230469 688.753906 384.738281 689.441406 384.277344 C 690.125 383.820312 690.832031 383.394531 691.5625 383.003906 C 692.289062 382.617188 693.035156 382.261719 693.796875 381.945312 C 694.558594 381.628906 695.335938 381.351562 696.125 381.113281 C 696.914062 380.871094 697.714844 380.671875 698.523438 380.511719 C 699.332031 380.347656 700.148438 380.226562 700.96875 380.148438 C 701.792969 380.066406 702.613281 380.023438 703.441406 380.023438 C 704.265625 380.023438 705.089844 380.066406 705.910156 380.148438 C 706.730469 380.226562 707.546875 380.347656 708.355469 380.511719 C 709.164062 380.671875 709.964844 380.871094 710.753906 381.113281 C 711.542969 381.351562 712.320312 381.628906 713.082031 381.945312 C 713.84375 382.261719 714.589844 382.617188 715.316406 383.003906 C 716.046875 383.394531 716.753906 383.820312 717.4375 384.277344 C 718.125 384.738281 718.785156 385.230469 719.425781 385.753906 C 720.0625 386.277344 720.671875 386.832031 721.257812 387.417969 C 721.839844 388.003906 722.394531 388.613281 722.917969 389.253906 C 723.441406 389.890625 723.933594 390.554688 724.390625 391.242188 C 724.847656 391.929688 725.273438 392.636719 725.664062 393.367188 C 726.050781 394.097656 726.402344 394.84375 726.71875 395.605469 C 727.035156 396.371094 727.3125 397.148438 727.550781 397.9375 C 727.792969 398.730469 727.992188 399.53125 728.152344 400.339844 C 728.316406 401.152344 728.4375 401.96875 728.515625 402.792969 C 728.597656 403.613281 728.636719 404.4375 728.636719 405.265625 Z M 728.636719 405.265625 " fill-opacity="1" fill-rule="nonzero"/><path fill="#0097bf" d="M 655.898438 405.269531 C 655.898438 398.992188 650.804688 393.894531 644.546875 393.894531 C 638.285156 393.894531 633.191406 398.992188 633.191406 405.269531 C 633.191406 411.539062 638.285156 416.640625 644.546875 416.640625 C 650.804688 416.640625 655.898438 411.539062 655.898438 405.269531 Z M 655.898438 405.269531 " fill-opacity="1" fill-rule="nonzero"/><path fill="#0097bf" d="M 762.339844 393.894531 C 756.082031 393.894531 750.988281 398.992188 750.988281 405.265625 C 750.988281 411.535156 756.082031 416.640625 762.339844 416.640625 C 768.605469 416.640625 773.695312 411.535156 773.695312 405.265625 C 773.699219 398.992188 768.605469 393.894531 762.339844 393.894531 Z M 762.339844 393.894531 " fill-opacity="1" fill-rule="nonzero"/><path fill="#0097bf" d="M 661.792969 435.605469 C 658.761719 435.605469 655.910156 436.796875 653.769531 438.945312 C 651.617188 441.089844 650.441406 443.945312 650.441406 446.988281 C 650.441406 450.019531 651.617188 452.875 653.769531 455.027344 C 655.910156 457.171875 658.761719 458.359375 661.792969 458.359375 C 664.824219 458.359375 667.679688 457.171875 669.820312 455.027344 C 671.972656 452.875 673.148438 450.019531 673.148438 446.988281 C 673.148438 443.945312 671.972656 441.089844 669.820312 438.945312 C 667.679688 436.792969 664.824219 435.605469 661.792969 435.605469 Z M 661.792969 435.605469 " fill-opacity="1" fill-rule="nonzero"/><path fill="#0097bf" d="M 745.085938 374.925781 C 748.121094 374.925781 750.972656 373.738281 753.117188 371.589844 C 755.265625 369.441406 756.445312 366.582031 756.445312 363.542969 C 756.445312 360.503906 755.265625 357.65625 753.117188 355.503906 C 750.972656 353.363281 748.121094 352.175781 745.09375 352.175781 C 742.054688 352.175781 739.203125 353.363281 737.066406 355.503906 C 734.917969 357.65625 733.726562 360.507812 733.726562 363.542969 C 733.726562 366.582031 734.917969 369.441406 737.066406 371.589844 C 739.203125 373.738281 742.050781 374.925781 745.085938 374.925781 Z M 745.085938 374.925781 " fill-opacity="1" fill-rule="nonzero"/><path fill="#0097bf" d="M 661.792969 374.925781 C 664.824219 374.925781 667.679688 373.738281 669.820312 371.589844 C 674.25 367.152344 674.25 359.9375 669.820312 355.5 C 667.679688 353.359375 664.824219 352.171875 661.796875 352.171875 C 658.761719 352.171875 655.910156 353.359375 653.769531 355.5 C 651.617188 357.652344 650.441406 360.5 650.441406 363.539062 C 650.441406 366.578125 651.617188 369.4375 653.769531 371.582031 C 655.910156 373.738281 658.761719 374.925781 661.792969 374.925781 Z M 661.792969 374.925781 " fill-opacity="1" fill-rule="nonzero"/><path fill="#0097bf" d="M 745.085938 435.605469 C 742.050781 435.605469 739.203125 436.796875 737.066406 438.945312 C 734.917969 441.089844 733.726562 443.945312 733.726562 446.988281 C 733.726562 450.019531 734.917969 452.875 737.066406 455.027344 C 739.203125 457.175781 742.050781 458.359375 745.085938 458.359375 C 748.121094 458.359375 750.972656 457.171875 753.117188 455.027344 C 755.265625 452.875 756.445312 450.019531 756.445312 446.984375 C 756.445312 443.945312 755.265625 441.089844 753.117188 438.945312 C 750.976562 436.792969 748.121094 435.605469 745.085938 435.605469 Z M 745.085938 435.605469 " fill-opacity="1" fill-rule="nonzero"/><path fill="#0097bf" d="M 703.441406 334.890625 C 697.183594 334.890625 692.09375 339.992188 692.09375 346.261719 C 692.09375 352.535156 697.183594 357.640625 703.441406 357.640625 C 709.699219 357.640625 714.792969 352.535156 714.792969 346.261719 C 714.792969 339.992188 709.699219 334.890625 703.441406 334.890625 Z M 703.441406 334.890625 " fill-opacity="1" fill-rule="nonzero"/><path fill="#0097bf" d="M 703.441406 452.890625 C 697.183594 452.890625 692.09375 457.992188 692.09375 464.265625 C 692.09375 470.535156 697.183594 475.632812 703.441406 475.632812 C 709.699219 475.632812 714.792969 470.535156 714.792969 464.265625 C 714.792969 457.992188 709.699219 452.890625 703.441406 452.890625 Z M 703.441406 452.890625 " fill-opacity="1" fill-rule="nonzero"/><path fill="#007fa2" d="M 799.394531 398.835938 C 795.859375 398.835938 792.984375 401.71875 792.984375 405.261719 C 792.984375 408.808594 795.867188 411.691406 799.394531 411.691406 C 802.933594 411.691406 805.8125 408.800781 805.8125 405.261719 C 805.8125 401.71875 802.933594 398.835938 799.394531 398.835938 Z M 799.394531 398.835938 " fill-opacity="1" fill-rule="nonzero"/><path fill="#007fa2" d="M 709.75 501.328125 C 709.75 501.75 709.710938 502.167969 709.628906 502.582031 C 709.546875 502.996094 709.421875 503.398438 709.261719 503.789062 C 709.101562 504.175781 708.902344 504.546875 708.667969 504.898438 C 708.4375 505.25 708.171875 505.574219 707.871094 505.871094 C 707.574219 506.167969 707.25 506.433594 706.902344 506.667969 C 706.550781 506.902344 706.179688 507.101562 705.792969 507.261719 C 705.402344 507.425781 705.003906 507.546875 704.589844 507.628906 C 704.175781 507.710938 703.757812 507.753906 703.339844 507.753906 C 702.917969 507.753906 702.5 507.710938 702.085938 507.628906 C 701.675781 507.546875 701.273438 507.425781 700.886719 507.261719 C 700.496094 507.101562 700.125 506.902344 699.777344 506.667969 C 699.425781 506.433594 699.101562 506.167969 698.804688 505.871094 C 698.507812 505.574219 698.242188 505.25 698.007812 504.898438 C 697.773438 504.546875 697.574219 504.175781 697.414062 503.789062 C 697.253906 503.398438 697.132812 502.996094 697.050781 502.582031 C 696.96875 502.167969 696.925781 501.75 696.925781 501.328125 C 696.925781 500.90625 696.96875 500.488281 697.050781 500.078125 C 697.132812 499.664062 697.253906 499.261719 697.414062 498.871094 C 697.574219 498.480469 697.773438 498.113281 698.007812 497.761719 C 698.242188 497.410156 698.507812 497.085938 698.804688 496.789062 C 699.101562 496.488281 699.425781 496.222656 699.777344 495.988281 C 700.125 495.753906 700.496094 495.558594 700.886719 495.394531 C 701.273438 495.234375 701.675781 495.113281 702.085938 495.03125 C 702.5 494.949219 702.917969 494.90625 703.339844 494.90625 C 703.757812 494.90625 704.175781 494.949219 704.589844 495.03125 C 705.003906 495.113281 705.402344 495.234375 705.792969 495.394531 C 706.179688 495.558594 706.550781 495.753906 706.902344 495.988281 C 707.25 496.222656 707.574219 496.488281 707.871094 496.789062 C 708.171875 497.085938 708.4375 497.410156 708.667969 497.761719 C 708.902344 498.113281 709.101562 498.480469 709.261719 498.871094 C 709.421875 499.261719 709.546875 499.664062 709.628906 500.078125 C 709.710938 500.488281 709.75 500.90625 709.75 501.328125 Z M 709.75 501.328125 " fill-opacity="1" fill-rule="nonzero"/><path fill="#007fa2" d="M 703.40625 315.433594 C 706.945312 315.433594 709.824219 312.554688 709.824219 309.011719 C 709.824219 305.46875 706.945312 302.589844 703.40625 302.589844 C 699.871094 302.589844 697 305.472656 697 309.011719 C 697 312.554688 699.875 315.433594 703.40625 315.433594 Z M 703.40625 315.433594 " fill-opacity="1" fill-rule="nonzero"/><path fill="#007fa2" d="M 766.449219 468.320312 C 765.238281 469.53125 764.574219 471.144531 764.574219 472.867188 C 764.570312 474.578125 765.238281 476.195312 766.441406 477.40625 C 767.664062 478.621094 769.273438 479.289062 770.984375 479.292969 C 772.699219 479.289062 774.3125 478.621094 775.523438 477.410156 C 776.730469 476.199219 777.402344 474.578125 777.402344 472.859375 C 777.402344 471.148438 776.730469 469.535156 775.523438 468.320312 C 774.3125 467.109375 772.695312 466.441406 770.984375 466.445312 C 769.273438 466.4375 767.660156 467.109375 766.449219 468.320312 Z M 766.449219 468.320312 " fill-opacity="1" fill-rule="nonzero"/><path fill="#007fa2" d="M 766.570312 332.902344 C 765.355469 334.113281 764.6875 335.730469 764.6875 337.449219 C 764.6875 339.164062 765.355469 340.78125 766.570312 341.988281 C 767.773438 343.203125 769.386719 343.871094 771.09375 343.871094 C 772.816406 343.871094 774.429688 343.203125 775.636719 341.988281 C 776.847656 340.78125 777.519531 339.164062 777.515625 337.449219 C 777.515625 335.730469 776.847656 334.113281 775.636719 332.90625 C 774.429688 331.691406 772.8125 331.023438 771.09375 331.023438 C 769.390625 331.019531 767.773438 331.691406 766.570312 332.902344 Z M 766.570312 332.902344 " fill-opacity="1" fill-rule="nonzero"/><path fill="#007fa2" d="M 792.023438 435.449219 C 791.101562 435.417969 790.203125 435.582031 789.351562 435.9375 C 787.03125 436.898438 785.476562 439.148438 785.402344 441.664062 C 785.28125 445.203125 788.058594 448.175781 791.59375 448.296875 C 792.523438 448.332031 793.417969 448.164062 794.261719 447.8125 C 796.582031 446.851562 798.140625 444.597656 798.222656 442.089844 C 798.335938 438.546875 795.558594 435.570312 792.023438 435.449219 Z M 792.023438 435.449219 " fill-opacity="1" fill-rule="nonzero"/><path fill="#007fa2" d="M 739.753906 323.164062 C 740.675781 323.203125 741.578125 323.035156 742.421875 322.683594 C 744.742188 321.71875 746.292969 319.476562 746.375 316.957031 C 746.433594 315.246094 745.820312 313.613281 744.648438 312.359375 C 743.484375 311.101562 741.90625 310.378906 740.1875 310.320312 C 739.261719 310.292969 738.363281 310.457031 737.515625 310.808594 C 735.203125 311.765625 733.644531 314.015625 733.558594 316.523438 C 733.445312 320.066406 736.222656 323.054688 739.753906 323.164062 Z M 739.753906 323.164062 " fill-opacity="1" fill-rule="nonzero"/><path fill="#007fa2" d="M 737.539062 487.941406 C 736.828125 488.242188 736.175781 488.660156 735.617188 489.183594 C 734.355469 490.355469 733.632812 491.945312 733.578125 493.660156 C 733.523438 495.378906 734.140625 497.019531 735.3125 498.269531 C 737.132812 500.207031 740 500.835938 742.453125 499.816406 C 743.160156 499.523438 743.8125 499.101562 744.378906 498.578125 C 746.957031 496.148438 747.097656 492.078125 744.679688 489.488281 C 742.855469 487.550781 739.988281 486.921875 737.539062 487.941406 Z M 737.539062 487.941406 " fill-opacity="1" fill-rule="nonzero"/><path fill="#007fa2" d="M 794.378906 374.449219 C 795.089844 374.152344 795.738281 373.738281 796.304688 373.210938 C 798.886719 370.785156 799.015625 366.710938 796.605469 364.128906 C 794.789062 362.179688 791.925781 361.554688 789.46875 362.574219 C 788.75 362.871094 788.101562 363.292969 787.542969 363.820312 C 784.964844 366.234375 784.820312 370.3125 787.238281 372.910156 C 789.058594 374.847656 791.925781 375.46875 794.378906 374.449219 Z M 794.378906 374.449219 " fill-opacity="1" fill-rule="nonzero"/><path fill="#007fa2" d="M 607.398438 398.835938 C 610.9375 398.835938 613.816406 401.71875 613.816406 405.261719 C 613.816406 408.808594 610.933594 411.691406 607.398438 411.691406 C 603.867188 411.691406 600.988281 408.800781 600.988281 405.261719 C 600.984375 401.71875 603.867188 398.835938 607.398438 398.835938 Z M 607.398438 398.835938 " fill-opacity="1" fill-rule="nonzero"/><path fill="#007fa2" d="M 640.347656 468.320312 C 641.558594 469.53125 642.226562 471.144531 642.226562 472.867188 C 642.230469 474.578125 641.5625 476.195312 640.351562 477.40625 C 639.136719 478.621094 637.527344 479.289062 635.8125 479.292969 C 634.097656 479.289062 632.488281 478.621094 631.273438 477.410156 C 630.066406 476.199219 629.398438 474.578125 629.398438 472.859375 C 629.398438 471.148438 630.066406 469.535156 631.273438 468.320312 C 632.488281 467.109375 634.101562 466.441406 635.8125 466.445312 C 637.523438 466.4375 639.136719 467.109375 640.347656 468.320312 Z M 640.347656 468.320312 " fill-opacity="1" fill-rule="nonzero"/><path fill="#007fa2" d="M 640.234375 332.902344 C 641.441406 334.113281 642.109375 335.730469 642.109375 337.449219 C 642.109375 339.164062 641.441406 340.78125 640.230469 341.988281 C 639.019531 343.203125 637.410156 343.871094 635.699219 343.871094 C 633.976562 343.871094 632.367188 343.203125 631.160156 341.988281 C 629.949219 340.78125 629.277344 339.164062 629.28125 337.449219 C 629.285156 335.730469 629.953125 334.113281 631.160156 332.90625 C 632.371094 331.691406 633.984375 331.023438 635.699219 331.023438 C 637.40625 331.019531 639.023438 331.691406 640.234375 332.902344 Z M 640.234375 332.902344 " fill-opacity="1" fill-rule="nonzero"/><path fill="#007fa2" d="M 614.769531 435.449219 C 615.699219 435.417969 616.597656 435.582031 617.445312 435.9375 C 619.761719 436.898438 621.320312 439.148438 621.398438 441.664062 C 621.519531 445.203125 618.738281 448.175781 615.207031 448.296875 C 614.277344 448.332031 613.382812 448.164062 612.535156 447.8125 C 610.21875 446.851562 608.65625 444.597656 608.574219 442.089844 C 608.457031 438.546875 611.238281 435.570312 614.769531 435.449219 Z M 614.769531 435.449219 " fill-opacity="1" fill-rule="nonzero"/><path fill="#007fa2" d="M 667.046875 323.164062 C 666.125 323.203125 665.21875 323.035156 664.375 322.683594 C 662.054688 321.71875 660.507812 319.476562 660.417969 316.957031 C 660.359375 315.246094 660.972656 313.613281 662.144531 312.359375 C 663.3125 311.101562 664.894531 310.378906 666.609375 310.320312 C 667.535156 310.292969 668.433594 310.457031 669.28125 310.808594 C 671.597656 311.765625 673.15625 314.015625 673.234375 316.523438 C 673.355469 320.066406 670.574219 323.054688 667.046875 323.164062 Z M 667.046875 323.164062 " fill-opacity="1" fill-rule="nonzero"/><path fill="#007fa2" d="M 669.261719 487.941406 C 669.96875 488.242188 670.621094 488.660156 671.179688 489.183594 C 672.441406 490.355469 673.164062 491.945312 673.222656 493.660156 C 673.273438 495.378906 672.65625 497.019531 671.484375 498.269531 C 669.667969 500.207031 666.796875 500.835938 664.347656 499.816406 C 663.636719 499.523438 662.984375 499.101562 662.421875 498.578125 C 659.84375 496.148438 659.703125 492.078125 662.121094 489.488281 C 663.9375 487.550781 666.808594 486.921875 669.261719 487.941406 Z M 669.261719 487.941406 " fill-opacity="1" fill-rule="nonzero"/><path fill="#007fa2" d="M 612.417969 374.449219 C 611.703125 374.152344 611.058594 373.738281 610.492188 373.210938 C 607.910156 370.785156 607.777344 366.710938 610.1875 364.128906 C 612.007812 362.179688 614.875 361.554688 617.328125 362.574219 C 618.042969 362.871094 618.691406 363.292969 619.253906 363.820312 C 621.832031 366.234375 621.976562 370.3125 619.558594 372.910156 C 617.738281 374.847656 614.871094 375.46875 612.417969 374.449219 Z M 612.417969 374.449219 " fill-opacity="1" fill-rule="nonzero"/><path fill="#007fa2" d="M 29.632812 428.191406 C 37.925781 428.191406 44.90625 429.707031 49.710938 431.785156 L 49.710938 445.289062 C 40.847656 441.695312 35.382812 440.757812 29.632812 440.757812 C 18.222656 440.757812 14.261719 451.613281 14.261719 465.117188 C 14.261719 478.625 18.222656 489.484375 29.632812 489.484375 C 35.382812 489.484375 40.847656 488.539062 49.710938 484.949219 L 49.710938 498.457031 C 44.90625 500.535156 37.925781 502.042969 29.632812 502.042969 C 7.855469 502.042969 0.875 485.238281 0.875 465.117188 C 0.875 445.003906 7.855469 428.191406 29.632812 428.191406 Z M 29.632812 428.191406 " fill-opacity="1" fill-rule="nonzero"/><path fill="#007fa2" d="M 87.144531 502.042969 C 63.015625 502.042969 59.710938 483.628906 59.710938 465.117188 C 59.710938 446.601562 63.015625 428.1875 87.144531 428.1875 C 111.378906 428.1875 114.582031 446.605469 114.582031 465.117188 C 114.582031 483.628906 111.378906 502.042969 87.144531 502.042969 Z M 94.617188 424.628906 L 87.660156 420.175781 L 79.15625 424.628906 L 70.109375 424.628906 L 82.660156 415.527344 L 92.65625 415.527344 L 103.667969 424.628906 Z M 87.144531 440.757812 C 74.890625 440.757812 73.101562 452.183594 73.101562 465.117188 C 73.101562 478.054688 74.890625 489.484375 87.144531 489.484375 C 99.410156 489.484375 101.195312 478.046875 101.195312 465.117188 C 101.195312 452.183594 99.410156 440.757812 87.144531 440.757812 Z M 87.144531 440.757812 " fill-opacity="1" fill-rule="nonzero"/><path fill="#007fa2" d="M 150.972656 442.269531 L 150.972656 500.535156 L 137.867188 500.535156 L 137.867188 442.269531 L 120.140625 442.269531 L 120.140625 429.707031 L 168.699219 429.707031 L 168.699219 442.269531 Z M 150.972656 442.269531 " fill-opacity="1" fill-rule="nonzero"/><path fill="#007fa2" d="M 219.332031 470.21875 L 191.242188 470.21875 L 191.242188 487.972656 L 222.257812 487.972656 L 222.257812 500.535156 L 178.226562 500.535156 L 178.226562 429.707031 L 222.257812 429.707031 L 222.257812 442.265625 L 191.242188 442.265625 L 191.242188 457.65625 L 219.332031 457.65625 Z M 219.332031 470.21875 " fill-opacity="1" fill-rule="nonzero"/><path fill="#007fa2" d="M 252.15625 500.535156 L 252.15625 429.707031 L 273.085938 429.707031 C 296.746094 429.707031 303.441406 445.007812 303.441406 465.117188 C 303.441406 485.234375 296.746094 500.527344 273.085938 500.527344 L 252.15625 500.527344 Z M 265.171875 487.972656 L 273.375 487.972656 C 286.097656 487.972656 289.960938 478.4375 289.960938 465.125 C 289.960938 451.804688 286.097656 442.269531 273.375 442.269531 L 265.171875 442.269531 Z M 265.171875 487.972656 " fill-opacity="1" fill-rule="nonzero"/><path fill="#007fa2" d="M 311.847656 453.3125 C 311.847656 453.3125 316.46875 443.871094 314.578125 429.707031 L 326.980469 429.707031 C 326.597656 444.339844 317.078125 453.3125 317.078125 453.3125 Z M 311.847656 453.3125 " fill-opacity="1" fill-rule="nonzero"/><path fill="#007fa2" d="M 321.585938 500.535156 L 346.753906 428.191406 L 355.808594 428.191406 L 380.886719 500.535156 L 366.839844 500.535156 L 360.898438 482.59375 L 341.382812 482.59375 L 335.726562 500.535156 Z M 351.28125 451.710938 L 345.34375 470.21875 L 357.035156 470.21875 Z M 351.28125 451.710938 " fill-opacity="1" fill-rule="nonzero"/><path fill="#007fa2" d="M 386.179688 500.535156 L 386.179688 492.128906 L 419.359375 442.269531 L 387.875 442.269531 L 387.875 429.710938 L 437.179688 429.710938 L 437.179688 438.113281 L 403.996094 487.972656 L 438.402344 487.972656 L 438.402344 500.535156 Z M 386.179688 500.535156 " fill-opacity="1" fill-rule="nonzero"/><path fill="#007fa2" d="M 486.691406 476.453125 L 486.691406 429.710938 L 499.703125 429.710938 L 499.703125 477.589844 C 499.703125 498.648438 482.453125 502.046875 473.585938 502.046875 C 464.726562 502.046875 447.472656 498.648438 447.472656 477.589844 L 447.472656 429.710938 L 460.480469 429.710938 L 460.480469 476.453125 C 460.480469 488.351562 469.0625 489.394531 473.585938 489.394531 C 478.113281 489.390625 486.691406 488.351562 486.691406 476.453125 Z M 486.691406 476.453125 " fill-opacity="1" fill-rule="nonzero"/><path fill="#007fa2" d="M 525.074219 500.535156 L 512.058594 500.535156 L 512.058594 429.707031 L 535.535156 429.707031 C 554.203125 429.707031 560.046875 437.917969 560.046875 451.042969 C 560.046875 460.019531 557.5 466.535156 549.675781 470.027344 C 551.089844 473.050781 552.878906 476.167969 554.582031 479.28125 C 557.96875 485.699219 562.777344 494.957031 565.707031 500.527344 L 549.957031 500.527344 L 536.292969 472.574219 L 525.074219 472.574219 Z M 525.074219 460.023438 L 536.769531 460.023438 C 545.058594 460.023438 546.289062 456.058594 546.289062 451.046875 C 546.289062 446.144531 545.0625 442.269531 536.769531 442.269531 L 525.074219 442.269531 Z M 525.074219 460.023438 " fill-opacity="1" fill-rule="nonzero"/><path fill="#000000" d="M 56.832031 380.570312 C 56.832031 398.632812 48.308594 402.257812 34.558594 402.257812 C 20.804688 402.257812 12.28125 398.628906 12.28125 380.570312 L 12.28125 326.910156 L 6.789062 326.910156 L 6.789062 380.671875 C 6.789062 404.5 21.628906 407.550781 34.558594 407.550781 C 47.484375 407.550781 62.328125 404.5 62.328125 380.671875 L 62.328125 326.910156 L 56.832031 326.910156 Z M 56.832031 380.570312 " fill-opacity="1" fill-rule="nonzero"/><path fill="#000000" d="M 127.074219 394.835938 L 81.898438 326.910156 L 78.074219 326.910156 L 78.074219 407.035156 L 83.777344 407.035156 L 83.578125 339.109375 L 128.753906 407.035156 L 132.574219 407.035156 L 132.574219 326.910156 L 126.871094 326.910156 Z M 127.074219 394.835938 " fill-opacity="1" fill-rule="nonzero"/><path fill="#000000" d="M 151.121094 326.910156 L 156.71875 326.910156 L 156.71875 407.035156 L 151.121094 407.035156 Z M 151.121094 326.910156 " fill-opacity="1" fill-rule="nonzero"/><path fill="#000000" d="M 200.332031 397.199219 L 176.179688 326.910156 L 170.128906 326.910156 L 198.386719 407.550781 L 202.285156 407.550781 L 230.542969 326.910156 L 224.496094 326.910156 Z M 200.332031 397.199219 " fill-opacity="1" fill-rule="nonzero"/><path fill="#000000" d="M 241.679688 407.035156 L 287.0625 407.035156 L 287.0625 401.738281 L 247.273438 401.738281 L 247.273438 368.117188 L 283.226562 368.117188 L 283.226562 362.921875 L 247.273438 362.921875 L 247.273438 332.203125 L 287.0625 332.203125 L 287.0625 326.910156 L 241.679688 326.910156 Z M 241.679688 407.035156 " fill-opacity="1" fill-rule="nonzero"/><path fill="#000000" d="M 352.128906 349.015625 C 352.128906 335.75 347.921875 326.910156 327.367188 326.910156 L 301.769531 326.910156 L 301.769531 407.035156 L 307.371094 407.035156 L 307.371094 371.121094 L 327.367188 371.121094 C 328.457031 371.121094 329.496094 371.121094 330.535156 371.070312 L 349.265625 407.035156 L 355.902344 407.035156 L 336.277344 370.4375 C 350.164062 367.851562 352.128906 358.640625 352.128906 349.015625 Z M 346.53125 349.015625 C 346.53125 359.664062 343.652344 365.835938 328.921875 365.835938 L 307.375 365.835938 L 307.375 332.207031 L 328.921875 332.207031 C 343.652344 332.203125 346.53125 338.367188 346.53125 349.015625 Z M 346.53125 349.015625 " fill-opacity="1" fill-rule="nonzero"/><path fill="#000000" d="M 390.488281 362.929688 C 373.777344 361.0625 369.539062 359.328125 369.539062 347.773438 C 369.539062 340.867188 371.707031 331.683594 390.464844 331.683594 C 398.003906 331.683594 402.886719 332.511719 409.132812 334.832031 L 410.671875 335.40625 L 410.671875 329.773438 L 409.953125 329.484375 C 404.765625 327.40625 398.394531 326.390625 390.464844 326.390625 C 368.628906 326.390625 364.046875 337.960938 364.046875 347.667969 C 364.046875 363.5 371.707031 366.019531 389.195312 368 C 406.871094 370.046875 409.535156 372.195312 409.535156 384.410156 C 409.535156 396.421875 401.839844 402.257812 386.015625 402.257812 C 376.484375 402.257812 370.335938 400.457031 365.585938 398.695312 L 364.050781 398.125 L 364.050781 403.65625 L 364.769531 403.941406 C 369.871094 405.964844 379.15625 407.550781 385.910156 407.550781 C 396.824219 407.550781 415.128906 404.542969 415.128906 384.410156 C 415.125 366.515625 406.222656 364.660156 390.488281 362.929688 Z M 390.488281 362.929688 " fill-opacity="1" fill-rule="nonzero"/><path fill="#000000" d="M 431.5 326.910156 L 437.097656 326.910156 L 437.097656 407.035156 L 431.5 407.035156 Z M 431.5 326.910156 " fill-opacity="1" fill-rule="nonzero"/><path fill="#000000" d="M 451.496094 332.101562 L 474.078125 332.101562 L 474.078125 407.035156 L 479.679688 407.035156 L 479.679688 332.101562 L 502.269531 332.101562 L 502.269531 326.910156 L 451.496094 326.910156 Z M 451.496094 332.101562 " fill-opacity="1" fill-rule="nonzero"/><path fill="#000000" d="M 553.8125 309.410156 L 544.632812 309.410156 L 531.492188 321.234375 L 536.691406 321.234375 Z M 553.8125 309.410156 " fill-opacity="1" fill-rule="nonzero"/><path fill="#000000" d="M 559.773438 332.203125 L 559.773438 326.910156 L 514.390625 326.910156 L 514.390625 407.035156 L 559.773438 407.035156 L 559.773438 401.738281 L 519.980469 401.738281 L 519.980469 368.117188 L 555.9375 368.117188 L 555.9375 362.921875 L 519.980469 362.921875 L 519.980469 332.203125 Z M 559.773438 332.203125 " fill-opacity="1" fill-rule="nonzero"/></svg>