<svg xmlns="http://www.w3.org/2000/svg" xmlns:xlink="http://www.w3.org/1999/xlink" width="1080" zoomAndPan="magnify" viewBox="0 0 810 809.999993" height="1080" preserveAspectRatio="xMidYMid meet" version="1.0"><defs><clipPath id="d97bafb288"><path d="M 0 197.171875 L 810 197.171875 L 810 612.671875 L 0 612.671875 Z M 0 197.171875 " clip-rule="nonzero"/></clipPath></defs><rect x="-81" width="972" fill="#ffffff" y="-80.999999" height="971.999992" fill-opacity="1"/><rect x="-81" width="972" fill="#ffffff" y="-80.999999" height="971.999992" fill-opacity="1"/><path fill="#ff661f" d="M 206.503906 610.46875 C 93.414062 610.46875 1.730469 518.441406 1.730469 404.921875 C 1.730469 291.398438 93.414062 199.375 206.503906 199.375 L 603.492188 199.375 C 716.589844 199.375 808.269531 291.398438 808.269531 404.921875 C 808.269531 518.441406 716.589844 610.46875 603.492188 610.46875 L 206.394531 610.46875 Z M 202.867188 342.941406 C 168.765625 342.941406 141.121094 370.6875 141.121094 404.921875 C 141.121094 439.148438 168.765625 466.898438 202.867188 466.898438 L 607.136719 466.898438 C 641.234375 466.898438 668.882812 439.148438 668.882812 404.921875 C 668.882812 370.6875 641.234375 342.941406 607.136719 342.941406 L 202.867188 342.941406 " fill-opacity="0.941" fill-rule="evenodd"/><g clip-path="url(#d97bafb288)"><path stroke-linecap="butt" transform="matrix(0.44384, 0, 0, -0.445517, -24.805773, 835.936154)" fill="none" stroke-linejoin="miter" d="M 521.155078 506.080368 C 266.356634 506.080368 59.787801 712.643406 59.787801 967.447449 C 59.787801 1222.26026 266.356634 1428.823298 521.155078 1428.823298 L 1415.603141 1428.823298 C 1670.410386 1428.823298 1876.970418 1222.26026 1876.970418 967.447449 C 1876.970418 712.643406 1670.410386 506.080368 1415.603141 506.080368 L 520.908649 506.080368 Z M 512.961325 1106.567774 C 436.128386 1106.567774 373.843539 1044.289355 373.843539 967.447449 C 373.843539 890.623079 436.128386 828.335892 512.961325 828.335892 L 1423.796894 828.335892 C 1500.629833 828.335892 1562.923481 890.623079 1562.923481 967.447449 C 1562.923481 1044.289355 1500.629833 1106.567774 1423.796894 1106.567774 Z M 512.961325 1106.567774 " stroke="#231f20" stroke-width="7.797" stroke-opacity="1" stroke-miterlimit="2.613"/></g><path fill="#ffffff" d="M 202.867188 342.941406 C 168.765625 342.941406 141.121094 370.6875 141.121094 404.921875 C 141.121094 439.148438 168.765625 466.898438 202.867188 466.898438 L 607.136719 466.898438 C 641.234375 466.898438 668.882812 439.148438 668.882812 404.921875 C 668.882812 370.6875 641.234375 342.941406 607.136719 342.941406 L 202.867188 342.941406 " fill-opacity="1" fill-rule="evenodd"/><path stroke-linecap="butt" transform="matrix(0.44384, 0, 0, -0.445517, -24.805773, 835.936154)" fill="none" stroke-linejoin="miter" d="M 512.961325 1106.567774 C 436.128386 1106.567774 373.843539 1044.289355 373.843539 967.447449 C 373.843539 890.623079 436.128386 828.335892 512.961325 828.335892 L 1423.796894 828.335892 C 1500.629833 828.335892 1562.923481 890.623079 1562.923481 967.447449 C 1562.923481 1044.289355 1500.629833 1106.567774 1423.796894 1106.567774 Z M 512.961325 1106.567774 " stroke="#231f20" stroke-width="7.797" stroke-opacity="1" stroke-miterlimit="2.613"/><path fill="#00a888" d="M 260.175781 429.382812 C 258.476562 426.832031 255.714844 426.191406 252.867188 426.191406 C 247.765625 426.191406 244.324219 430.539062 244.324219 436.070312 C 244.324219 441.695312 247.808594 445.761719 252.992188 445.761719 C 255.714844 445.761719 258.429688 445.027344 260.175781 442.707031 L 260.175781 453.121094 C 257.414062 454.074219 255.414062 454.785156 252.824219 454.785156 C 248.359375 454.785156 244.109375 452.886719 240.792969 449.511719 C 237.261719 445.953125 235.644531 441.316406 235.644531 436.019531 C 235.644531 431.152344 237.304688 426.472656 240.367188 422.960938 C 243.515625 419.351562 248.066406 417.167969 252.566406 417.167969 C 255.246094 417.167969 257.710938 417.832031 260.175781 418.972656 L 260.175781 429.382812 " fill-opacity="1" fill-rule="evenodd"/><path stroke-linecap="butt" transform="matrix(0.44384, 0, 0, -0.445517, -24.805773, 835.936154)" fill="none" stroke-linejoin="miter" d="M 642.081147 912.542837 C 638.252702 918.268278 632.030378 919.714982 625.614431 919.714982 C 614.120294 919.714982 606.366592 909.947538 606.366592 897.532187 C 606.366592 884.906406 614.217105 875.779018 625.896064 875.779018 C 632.030378 875.779018 638.147089 877.436152 642.081147 882.635519 L 642.081147 859.260288 C 635.858823 857.129687 631.352699 855.525161 625.51762 855.525161 C 615.45805 855.525161 605.882536 859.786362 598.410466 867.361831 C 590.454341 875.358159 586.810717 885.756892 586.810717 897.646169 C 586.810717 908.570977 590.551152 919.074926 597.451155 926.957271 C 604.54478 935.058814 614.797973 939.96884 624.936752 939.96884 C 630.974255 939.96884 636.527701 938.478296 642.081147 935.9093 Z M 642.081147 912.542837 " stroke="#231f20" stroke-width="2.888" stroke-opacity="1" stroke-miterlimit="2.613"/><path fill="#00a888" d="M 302.007812 418.09375 L 309.734375 418.09375 L 323.945312 439.957031 L 324.027344 439.957031 L 324.027344 418.09375 L 331.75 418.09375 L 331.75 453.855469 L 324.027344 453.855469 L 309.8125 431.945312 L 309.734375 431.945312 L 309.734375 453.855469 L 302.007812 453.855469 L 302.007812 418.09375 " fill-opacity="1" fill-rule="evenodd"/><path stroke-linecap="butt" transform="matrix(0.44384, 0, 0, -0.445517, -24.805773, 835.936154)" fill="none" stroke-linejoin="miter" d="M 736.331312 937.882078 L 753.739738 937.882078 L 785.757863 888.808123 L 785.942684 888.808123 L 785.942684 937.882078 L 803.342309 937.882078 L 803.342309 857.611922 L 785.942684 857.611922 L 753.915758 906.799861 L 753.739738 906.799861 L 753.739738 857.611922 L 736.331312 857.611922 Z M 736.331312 937.882078 " stroke="#231f20" stroke-width="2.888" stroke-opacity="1" stroke-miterlimit="2.613"/><path fill="#00a888" d="M 374.742188 453.855469 L 366.4375 453.855469 L 366.4375 425.964844 L 360.28125 425.964844 L 360.28125 418.097656 L 380.902344 418.097656 L 380.902344 425.964844 L 374.742188 425.964844 L 374.742188 453.855469 " fill-opacity="1" fill-rule="evenodd"/><path stroke-linecap="butt" transform="matrix(0.44384, 0, 0, -0.445517, -24.805773, 835.936154)" fill="none" stroke-linejoin="miter" d="M 900.206378 857.611922 L 881.495401 857.611922 L 881.495401 920.214753 L 867.624987 920.214753 L 867.624987 937.882078 L 914.085593 937.882078 L 914.085593 920.214753 L 900.206378 920.214753 Z M 900.206378 857.611922 " stroke="#231f20" stroke-width="2.888" stroke-opacity="1" stroke-miterlimit="2.613"/><path fill="#00a888" d="M 392.964844 425.1875 L 393.777344 425.1875 C 396.5 425.1875 399.570312 425.753906 399.570312 429.648438 C 399.570312 433.539062 396.5 434.109375 393.777344 434.109375 L 392.964844 434.109375 Z M 400.867188 439.191406 C 405.417969 438.285156 407.886719 434.011719 407.886719 429.078125 C 407.886719 421.453125 403.078125 418.09375 396.734375 418.09375 L 384.296875 418.09375 L 384.296875 453.855469 L 392.601562 453.855469 L 392.601562 440.089844 L 392.6875 440.089844 L 400.570312 453.855469 L 410.949219 453.855469 L 400.867188 439.191406 " fill-opacity="1" fill-rule="evenodd"/><path stroke-linecap="butt" transform="matrix(0.44384, 0, 0, -0.445517, -24.805773, 835.936154)" fill="none" stroke-linejoin="miter" d="M 941.263155 921.968334 L 943.093768 921.968334 C 949.228081 921.968334 956.145686 920.68822 956.145686 911.955388 C 956.145686 903.213788 949.228081 901.933674 943.093768 901.933674 L 941.263155 901.933674 Z M 959.067626 890.526632 C 969.320819 892.560785 974.883066 902.152872 974.883066 913.226734 C 974.883066 930.341681 964.049006 937.882078 949.756143 937.882078 L 921.733683 937.882078 L 921.733683 857.611922 L 940.44466 857.611922 L 940.44466 888.510014 L 940.638282 888.510014 L 958.398748 857.611922 L 981.783069 857.611922 Z M 959.067626 890.526632 " stroke="#231f20" stroke-width="2.888" stroke-opacity="1" stroke-miterlimit="2.613"/><path fill="#00a888" d="M 465.253906 429.382812 C 463.554688 426.832031 460.789062 426.191406 457.941406 426.191406 C 452.84375 426.191406 449.402344 430.539062 449.402344 436.070312 C 449.402344 441.695312 452.882812 445.761719 458.070312 445.761719 C 460.789062 445.761719 463.507812 445.027344 465.253906 442.707031 L 465.253906 453.121094 C 462.492188 454.074219 460.492188 454.785156 457.902344 454.785156 C 453.441406 454.785156 449.1875 452.886719 445.871094 449.511719 C 442.339844 445.953125 440.71875 441.316406 440.71875 436.019531 C 440.71875 431.152344 442.382812 426.472656 445.441406 422.960938 C 448.59375 419.351562 453.140625 417.167969 457.644531 417.167969 C 460.320312 417.167969 462.789062 417.832031 465.253906 418.972656 L 465.253906 429.382812 " fill-opacity="1" fill-rule="evenodd"/><path stroke-linecap="butt" transform="matrix(0.44384, 0, 0, -0.445517, -24.805773, 835.936154)" fill="none" stroke-linejoin="miter" d="M 1104.126103 912.542837 C 1100.297657 918.268278 1094.066532 919.714982 1087.659387 919.714982 C 1076.174051 919.714982 1068.420349 909.947538 1068.420349 897.532187 C 1068.420349 884.906406 1076.270862 875.779018 1087.949821 875.779018 C 1094.066532 875.779018 1100.200846 877.436152 1104.126103 882.635519 L 1104.126103 859.260288 C 1097.91258 857.129687 1093.406456 855.525161 1087.571377 855.525161 C 1077.511806 855.525161 1067.936292 859.786362 1060.464223 867.361831 C 1052.499296 875.358159 1048.864473 885.756892 1048.864473 897.646169 C 1048.864473 908.570977 1052.596108 919.074926 1059.49611 926.957271 C 1066.598537 935.058814 1076.842929 939.96884 1086.990509 939.96884 C 1093.019211 939.96884 1098.581458 938.478296 1104.126103 935.9093 Z M 1104.126103 912.542837 " stroke="#231f20" stroke-width="2.888" stroke-opacity="1" stroke-miterlimit="2.613"/><path fill="#00a888" d="M 482.765625 453.855469 L 474.460938 453.855469 L 474.460938 425.964844 L 468.304688 425.964844 L 468.304688 418.097656 L 488.921875 418.097656 L 488.921875 425.964844 L 482.765625 425.964844 L 482.765625 453.855469 " fill-opacity="1" fill-rule="evenodd"/><path stroke-linecap="butt" transform="matrix(0.44384, 0, 0, -0.445517, -24.805773, 835.936154)" fill="none" stroke-linejoin="miter" d="M 1143.589894 857.611922 L 1124.878917 857.611922 L 1124.878917 920.214753 L 1110.999702 920.214753 L 1110.999702 937.882078 L 1157.469109 937.882078 L 1157.469109 920.214753 L 1143.589894 920.214753 Z M 1143.589894 857.611922 " stroke="#231f20" stroke-width="2.888" stroke-opacity="1" stroke-miterlimit="2.613"/><path fill="#00a888" d="M 492.308594 453.855469 L 500.613281 453.855469 L 500.613281 418.09375 L 492.308594 418.09375 Z M 492.308594 453.855469 " fill-opacity="1" fill-rule="evenodd"/><path stroke-linecap="butt" transform="matrix(0.44384, 0, 0, -0.445517, -24.805773, 835.936154)" fill="none" stroke-linejoin="miter" d="M 1183.801772 857.611922 L 1165.090796 857.611922 L 1165.090796 937.882078 L 1183.801772 937.882078 Z M 1183.801772 857.611922 " stroke="#231f20" stroke-width="2.888" stroke-opacity="1" stroke-miterlimit="2.613"/><path fill="#00a888" d="M 543.496094 418.09375 L 551.21875 418.09375 L 565.429688 439.957031 L 565.511719 439.957031 L 565.511719 418.09375 L 573.234375 418.09375 L 573.234375 453.855469 L 565.511719 453.855469 L 551.300781 431.945312 L 551.21875 431.945312 L 551.21875 453.855469 L 543.496094 453.855469 L 543.496094 418.09375 " fill-opacity="1" fill-rule="evenodd"/><path stroke-linecap="butt" transform="matrix(0.44384, 0, 0, -0.445517, -24.805773, 835.936154)" fill="none" stroke-linejoin="miter" d="M 1280.419413 937.882078 L 1297.819038 937.882078 L 1329.837163 888.808123 L 1330.021984 888.808123 L 1330.021984 937.882078 L 1347.43041 937.882078 L 1347.43041 857.611922 L 1330.021984 857.611922 L 1298.003859 906.799861 L 1297.819038 906.799861 L 1297.819038 857.611922 L 1280.419413 857.611922 Z M 1280.419413 937.882078 " stroke="#231f20" stroke-width="2.888" stroke-opacity="1" stroke-miterlimit="2.613"/><path fill="#00a888" d="M 347.527344 439.925781 C 346.132812 439.59375 346.367188 439.648438 345.15625 439.390625 C 343.953125 439.128906 341.296875 438.136719 341.296875 438.136719 C 337.671875 436.574219 335.128906 432.949219 335.128906 428.734375 C 335.128906 422.371094 340.289062 417.238281 346.628906 417.238281 C 352.964844 417.238281 358.101562 422.414062 358.101562 428.777344 L 349.695312 428.777344 L 349.695312 427.691406 C 349.695312 425.933594 348.378906 424.507812 346.628906 424.507812 C 344.875 424.507812 343.453125 425.933594 343.453125 427.691406 C 343.453125 428.527344 343.789062 429.296875 344.3125 429.863281 C 344.3125 429.863281 345.128906 430.832031 347.023438 431.378906 C 348.484375 431.800781 349.695312 431.695312 351.964844 432.644531 L 351.964844 432.640625 C 355.804688 434.253906 358.546875 438.0625 358.546875 442.503906 C 358.546875 449.136719 353.234375 454.511719 346.628906 454.511719 C 340.023438 454.511719 334.664062 449.160156 334.664062 442.53125 L 342.976562 442.53125 C 342.898438 442.824219 342.96875 443.164062 342.96875 443.480469 C 342.96875 445.511719 344.605469 447.15625 346.628906 447.15625 C 348.652344 447.15625 350.289062 445.511719 350.289062 443.480469 C 350.289062 441.757812 349.121094 440.320312 347.527344 439.925781 " fill-opacity="1" fill-rule="evenodd"/><path stroke-linecap="butt" transform="matrix(0.44384, 0, 0, -0.445517, -24.805773, 835.936154)" fill="none" stroke-linejoin="miter" d="M 838.889644 888.878266 C 835.747679 889.632306 836.27574 889.500787 833.547423 890.079469 C 830.836707 890.666918 824.852011 892.893966 824.852011 892.893966 C 816.684661 896.401127 810.955194 904.537742 810.955194 913.998309 C 810.955194 928.289992 822.581347 939.811017 836.865409 939.811017 C 851.14067 939.811017 862.714016 928.184777 862.714016 913.91063 L 843.774213 913.91063 L 843.774213 916.33934 C 843.774213 920.284896 840.808268 923.485181 836.865409 923.485181 C 832.913749 923.485181 829.710176 920.284896 829.710176 916.33934 C 829.710176 914.463008 830.467064 912.735731 831.646402 911.464385 C 831.646402 911.464385 833.485816 909.298713 837.754312 908.071207 C 841.045895 907.124273 843.774213 907.352239 848.887607 905.221638 L 848.887607 905.230406 C 857.539014 901.609262 863.717333 893.060556 863.717333 883.100218 C 863.717333 868.212317 851.74794 856.147682 836.865409 856.147682 C 821.982877 856.147682 809.907872 868.150942 809.907872 883.030074 L 828.636451 883.030074 C 828.460431 882.372482 828.618849 881.609674 828.618849 880.899474 C 828.618849 876.340164 832.306478 872.648877 836.865409 872.648877 C 841.424339 872.648877 845.111968 876.340164 845.111968 880.899474 C 845.111968 884.766119 842.480462 887.992708 838.889644 888.878266 Z M 838.889644 888.878266 " stroke="#231f20" stroke-width="2.888" stroke-opacity="1" stroke-miterlimit="2.613"/><path fill="#00a888" d="M 437.730469 441.636719 C 437.730469 448.945312 431.828125 454.871094 424.546875 454.871094 C 417.265625 454.871094 411.363281 448.945312 411.363281 441.636719 L 411.363281 418.179688 L 420.351562 418.179688 L 420.351562 441.636719 C 420.351562 443.9375 422.253906 445.804688 424.546875 445.804688 C 426.839844 445.804688 428.636719 443.9375 428.636719 441.636719 L 428.636719 418.179688 L 437.730469 418.179688 L 437.730469 441.636719 " fill-opacity="1" fill-rule="evenodd"/><path stroke-linecap="butt" transform="matrix(0.44384, 0, 0, -0.445517, -24.805773, 835.936154)" fill="none" stroke-linejoin="miter" d="M 1042.13169 885.037924 C 1042.13169 868.633177 1028.833343 855.332267 1012.419433 855.332267 C 996.014325 855.332267 982.715977 868.633177 982.715977 885.037924 L 982.715977 937.697953 L 1002.958333 937.697953 L 1002.958333 885.037924 C 1002.958333 879.873629 1007.253232 875.682571 1012.419433 875.682571 C 1017.585634 875.682571 1021.634105 879.873629 1021.634105 885.037924 L 1021.634105 937.697953 L 1042.13169 937.697953 Z M 1042.13169 885.037924 " stroke="#231f20" stroke-width="2.888" stroke-opacity="1" stroke-miterlimit="2.613"/><path fill="#00a888" d="M 270.808594 436.082031 C 270.808594 430.699219 275.152344 426.34375 280.511719 426.34375 C 285.871094 426.34375 290.21875 430.699219 290.21875 436.082031 C 290.21875 441.460938 285.871094 445.820312 280.511719 445.820312 C 275.152344 445.820312 270.808594 441.460938 270.808594 436.082031 Z M 280.511719 455.0625 C 290.957031 455.0625 299.421875 446.5625 299.421875 436.082031 C 299.421875 425.597656 290.957031 417.097656 280.511719 417.097656 C 270.070312 417.097656 261.605469 425.597656 261.605469 436.082031 C 261.605469 446.5625 270.070312 455.0625 280.511719 455.0625 " fill-opacity="1" fill-rule="evenodd"/><path stroke-linecap="butt" transform="matrix(0.44384, 0, 0, -0.445517, -24.805773, 835.936154)" fill="none" stroke-linejoin="miter" d="M 666.037534 897.514651 C 666.037534 909.588054 675.824273 919.373034 687.899278 919.373034 C 699.974282 919.373034 709.769822 909.588054 709.769822 897.514651 C 709.769822 885.43248 699.974282 875.6475 687.899278 875.6475 C 675.824273 875.6475 666.037534 885.43248 666.037534 897.514651 Z M 687.899278 854.90264 C 711.433216 854.90264 730.505034 873.990366 730.505034 897.514651 C 730.505034 921.047704 711.433216 940.117894 687.899278 940.117894 C 664.374141 940.117894 645.302322 921.047704 645.302322 897.514651 C 645.302322 873.990366 664.374141 854.90264 687.899278 854.90264 Z M 687.899278 854.90264 " stroke="#231f20" stroke-width="2.888" stroke-opacity="1" stroke-miterlimit="2.613"/><path fill="#00a888" d="M 512.257812 436.082031 C 512.257812 430.699219 516.605469 426.34375 521.964844 426.34375 C 527.324219 426.34375 531.667969 430.699219 531.667969 436.082031 C 531.667969 441.460938 527.324219 445.820312 521.964844 445.820312 C 516.605469 445.820312 512.257812 441.460938 512.257812 436.082031 Z M 521.964844 455.0625 C 532.40625 455.0625 540.875 446.5625 540.875 436.082031 C 540.875 425.597656 532.40625 417.097656 521.964844 417.097656 C 511.519531 417.097656 503.054688 425.597656 503.054688 436.082031 C 503.054688 446.5625 511.519531 455.0625 521.964844 455.0625 " fill-opacity="1" fill-rule="evenodd"/><path stroke-linecap="butt" transform="matrix(0.44384, 0, 0, -0.445517, -24.805773, 835.936154)" fill="none" stroke-linejoin="miter" d="M 1210.037625 897.514651 C 1210.037625 909.588054 1219.833164 919.373034 1231.908169 919.373034 C 1243.991975 919.373034 1253.778714 909.588054 1253.778714 897.514651 C 1253.778714 885.43248 1243.991975 875.6475 1231.908169 875.6475 C 1219.833164 875.6475 1210.037625 885.43248 1210.037625 897.514651 Z M 1231.908169 854.90264 C 1255.442107 854.90264 1274.522727 873.990366 1274.522727 897.514651 C 1274.522727 921.047704 1255.442107 940.117894 1231.908169 940.117894 C 1208.383032 940.117894 1189.302412 921.047704 1189.302412 897.514651 C 1189.302412 873.990366 1208.383032 854.90264 1231.908169 854.90264 Z M 1231.908169 854.90264 " stroke="#231f20" stroke-width="2.888" stroke-opacity="1" stroke-miterlimit="2.613"/><path fill="#231f20" d="M 285.371094 383.375 C 285.371094 375.609375 291.640625 369.3125 299.375 369.3125 C 307.109375 369.3125 313.378906 375.609375 313.378906 383.375 C 313.378906 391.136719 307.109375 397.429688 299.375 397.429688 C 291.640625 397.429688 285.371094 391.136719 285.371094 383.375 Z M 299.375 410.765625 C 314.445312 410.765625 326.664062 398.5 326.664062 383.375 C 326.664062 368.246094 314.445312 355.984375 299.375 355.984375 C 284.304688 355.984375 272.089844 368.246094 272.089844 383.375 C 272.089844 398.5 284.304688 410.765625 299.375 410.765625 " fill-opacity="1" fill-rule="evenodd"/><path fill="#231f20" d="M 459.929688 380.429688 C 460.03125 381.394531 460.082031 382.375 460.082031 383.375 C 460.082031 398.5 447.867188 410.765625 432.796875 410.765625 C 417.726562 410.765625 405.507812 398.5 405.507812 383.375 C 405.507812 368.246094 417.726562 355.984375 432.796875 355.984375 C 444.828125 355.984375 455.046875 363.804688 458.671875 374.65625 L 443.824219 374.714844 C 441.261719 371.429688 437.273438 369.3125 432.796875 369.3125 C 425.058594 369.3125 418.792969 375.609375 418.792969 383.375 C 418.792969 391.136719 425.058594 397.429688 432.796875 397.429688 C 437.429688 397.429688 441.542969 395.082031 444.089844 391.597656 L 429.585938 391.597656 C 429.585938 391.015625 429.585938 380.324219 429.585938 380.324219 L 459.929688 380.429688 " fill-opacity="1" fill-rule="evenodd"/><path fill="#231f20" d="M 367.574219 391.171875 C 367.574219 401.921875 358.890625 410.632812 348.183594 410.632812 C 337.472656 410.632812 328.796875 401.921875 328.796875 391.171875 L 328.796875 356.675781 L 342.007812 356.675781 L 342.007812 391.171875 C 342.007812 394.554688 344.8125 397.296875 348.183594 397.296875 C 351.554688 397.296875 354.191406 394.554688 354.191406 391.171875 L 354.191406 356.675781 L 367.574219 356.675781 L 367.574219 391.171875 " fill-opacity="1" fill-rule="evenodd"/><path fill="#231f20" d="M 500.988281 391.171875 C 500.988281 401.921875 492.308594 410.632812 481.601562 410.632812 C 470.898438 410.632812 462.214844 401.921875 462.214844 391.171875 L 462.214844 356.675781 L 475.429688 356.675781 L 475.429688 391.171875 C 475.429688 394.554688 478.234375 397.296875 481.601562 397.296875 C 484.972656 397.296875 487.609375 394.554688 487.609375 391.171875 L 487.609375 356.675781 L 500.988281 356.675781 L 500.988281 391.171875 " fill-opacity="1" fill-rule="evenodd"/><path fill="#231f20" d="M 534.679688 356.679688 L 534.679688 368.933594 L 519.015625 368.933594 L 519.015625 377.246094 L 534.679688 377.246094 L 534.679688 389.5 L 519.011719 389.5 L 519.011719 397.738281 L 534.640625 397.738281 L 534.640625 410.078125 L 505.914062 410.078125 L 505.914062 356.679688 L 534.679688 356.679688 " fill-opacity="1" fill-rule="evenodd"/><path fill="#231f20" d="M 557.113281 389.25 C 555.066406 388.757812 555.40625 388.839844 553.632812 388.457031 C 551.859375 388.074219 547.957031 386.617188 547.957031 386.617188 C 542.628906 384.316406 538.886719 378.988281 538.886719 372.785156 C 538.886719 363.433594 546.476562 355.882812 555.796875 355.882812 C 565.113281 355.882812 572.671875 363.496094 572.671875 372.847656 L 560.300781 372.847656 L 560.300781 371.257812 C 560.300781 368.667969 558.371094 366.574219 555.796875 366.574219 C 553.21875 366.574219 551.125 368.667969 551.125 371.257812 C 551.125 372.484375 551.617188 373.617188 552.386719 374.453125 C 552.386719 374.453125 553.589844 375.871094 556.375 376.675781 C 558.519531 377.292969 560.300781 377.144531 563.636719 378.539062 L 563.640625 378.535156 C 569.289062 380.910156 573.324219 386.503906 573.324219 393.035156 C 573.324219 402.792969 565.511719 410.695312 555.796875 410.695312 C 546.078125 410.695312 538.203125 402.832031 538.203125 393.078125 L 550.425781 393.078125 C 550.3125 393.511719 550.40625 394.007812 550.40625 394.476562 C 550.40625 397.460938 552.816406 399.882812 555.796875 399.882812 C 558.769531 399.882812 561.179688 397.460938 561.179688 394.476562 C 561.179688 391.941406 559.457031 389.832031 557.113281 389.25 " fill-opacity="1" fill-rule="evenodd"/><path fill="#231f20" d="M 236.675781 356.675781 L 236.675781 410.074219 L 256.371094 410.121094 C 264.898438 410.121094 271.8125 403.183594 271.8125 394.625 C 271.8125 388.742188 268.589844 383.660156 263.773438 381.035156 C 267.300781 378.636719 269.65625 374.617188 269.65625 370.019531 C 269.65625 362.660156 263.710938 356.6875 256.371094 356.6875 Z M 249.914062 397.78125 L 249.914062 387.613281 L 254.917969 387.613281 L 254.917969 387.609375 C 257.691406 387.609375 259.941406 389.867188 259.941406 392.652344 C 259.941406 395.441406 257.691406 397.742188 254.917969 397.742188 Z M 254.917969 368.832031 C 257.097656 368.832031 258.867188 370.566406 258.867188 372.753906 C 258.867188 374.941406 257.097656 376.738281 254.917969 376.738281 L 249.914062 376.757812 L 249.914062 368.875 L 254.917969 368.832031 " fill-opacity="1" fill-rule="evenodd"/><path fill="#231f20" d="M 395.695312 410.121094 L 395.695312 390.582031 L 411.089844 356.679688 L 397.25 356.679688 L 389.054688 374.644531 L 380.777344 356.679688 L 366.929688 356.679688 L 382.410156 390.582031 L 382.410156 410.121094 L 395.695312 410.121094 " fill-opacity="1" fill-rule="evenodd"/></svg>