<svg xmlns="http://www.w3.org/2000/svg" xmlns:xlink="http://www.w3.org/1999/xlink" width="1080" zoomAndPan="magnify" viewBox="0 0 810 809.999993" height="1080" preserveAspectRatio="xMidYMid meet" version="1.0"><defs><clipPath id="b6626abcfe"><path d="M 0 264.128906 L 810 264.128906 L 810 546.128906 L 0 546.128906 Z M 0 264.128906 " clip-rule="nonzero"/></clipPath></defs><rect x="-81" width="972" fill="#ffffff" y="-80.999999" height="971.999992" fill-opacity="1"/><rect x="-81" width="972" fill="#ffffff" y="-80.999999" height="971.999992" fill-opacity="1"/><g clip-path="url(#b6626abcfe)"><path fill="#009900" d="M 0.0117188 264.128906 L 809.988281 264.128906 L 809.988281 546.128906 L 0.0117188 546.128906 Z M 0.0117188 264.128906 " fill-opacity="1" fill-rule="evenodd"/></g><path fill="#ffdd00" d="M 400.300781 454.832031 L 396.605469 474.554688 L 92.230469 474.554688 L 92.230469 471.453125 C 194.554688 460.554688 297.386719 455.007812 400.300781 454.832031 Z M 432.964844 454.792969 C 536.714844 454.792969 668.917969 466.019531 717.636719 471.1875 L 717.636719 474.535156 L 429.816406 474.535156 Z M 432.964844 454.792969 " fill-opacity="1" fill-rule="evenodd"/><path fill="#ffffff" d="M 462.441406 357.730469 C 481.816406 357.730469 485.832031 372.167969 485.832031 384.3125 C 485.832031 396.457031 478.136719 435.769531 447.636719 435.769531 C 432.261719 435.769531 426.898438 426.671875 426.574219 428.0625 C 424.71875 435.601562 418.441406 474.535156 418.441406 474.535156 L 396.605469 474.535156 L 418.214844 359.441406 L 440.734375 359.441406 C 440.304688 361.199219 440.03125 362.992188 439.921875 364.800781 C 439.921875 366.773438 443.066406 357.730469 462.441406 357.730469 Z M 620.957031 358.03125 C 650.890625 358.03125 657.164062 366.828125 655.761719 375.347656 C 655.003906 380.027344 648.351562 410.859375 647.800781 414.824219 C 647.25 418.792969 650.324219 417.382812 650.324219 417.382812 L 646.339844 432.421875 L 634.96875 432.421875 C 626.398438 432.421875 627.136719 428.117188 625.148438 428.117188 C 623.15625 428.117188 616.617188 436.878906 600.675781 436.878906 C 586.132812 436.878906 577.28125 426.972656 577.28125 414.824219 C 577.28125 402.679688 589.527344 387.398438 613.773438 387.398438 L 628.9375 387.398438 C 633.203125 387.398438 639.175781 371.285156 622.113281 371.285156 C 608.445312 371.285156 607.574219 380.910156 607.574219 380.910156 L 587.59375 380.910156 C 587.59375 380.910156 587.328125 358.03125 620.957031 358.03125 Z M 541.660156 356.09375 C 579.367188 356.09375 573.71875 387.378906 573.71875 387.378906 L 551.765625 387.378906 C 551.765625 387.378906 553.8125 371.566406 539.253906 371.566406 C 519.84375 371.566406 515.3125 396.328125 515.3125 403.753906 C 515.3125 411.179688 519.84375 418.792969 528.390625 418.792969 C 536.871094 419.183594 544.613281 414.023438 547.445312 406.085938 L 568.503906 406.085938 C 568.503906 416.519531 554.476562 435.449219 524.296875 435.449219 C 510.023438 435.449219 493.777344 428.0625 493.777344 404.355469 C 493.777344 380.648438 506.023438 356.09375 541.660156 356.09375 Z M 370.121094 356.582031 C 391.769531 356.582031 402.0625 366.246094 402.0625 384.898438 C 402.0625 406.667969 388.566406 435.449219 354.445312 435.449219 C 331.070312 435.449219 321.667969 422.234375 321.667969 403.847656 C 321.667969 385.460938 331.960938 356.582031 370.121094 356.582031 Z M 216.875 359.703125 C 216.875 359.703125 209.460938 398.527344 208.515625 403.28125 L 208.425781 403.722656 C 207.492188 408.445312 206.5 414.84375 216.097656 414.84375 C 225.992188 414.84375 230.710938 410.277344 233.574219 398.152344 C 236.4375 386.023438 240.722656 359.703125 240.722656 359.703125 L 262.277344 359.703125 L 248.625 432.421875 L 226.21875 432.421875 L 227.242188 427.816406 C 227.242188 426.40625 225.289062 434.265625 207.035156 434.265625 C 188.761719 434.265625 182.617188 424.867188 185.179688 412.890625 C 187.660156 401.648438 194.65625 359.703125 194.65625 359.703125 Z M 301.363281 359.722656 L 300.472656 363.953125 C 300.472656 365.925781 306.160156 359.96875 315.640625 359.96875 L 325.363281 359.96875 L 320.777344 376.398438 L 309.117188 376.398438 C 301.421875 376.398438 297.175781 380.648438 295.449219 389.390625 C 293.726562 398.132812 286.691406 432.421875 286.691406 432.421875 L 265.195312 432.421875 L 278.804688 359.722656 Z M 698.265625 359.722656 L 697.355469 363.953125 C 697.355469 365.925781 703.042969 359.96875 712.519531 359.96875 L 722.226562 359.988281 L 717.636719 376.417969 L 705.960938 376.417969 C 698.265625 376.417969 694 380.648438 692.273438 389.390625 C 690.550781 398.132812 683.628906 432.421875 683.628906 432.421875 L 662.132812 432.421875 L 675.742188 359.722656 Z M 188.761719 332.59375 L 185.386719 352.128906 L 133.273438 352.128906 L 129.578125 371.90625 L 175.984375 371.90625 L 172.324219 391.703125 L 125.027344 391.703125 L 120.441406 413.417969 L 172.289062 413.417969 L 168.800781 432.402344 L 92.230469 432.402344 L 113.632812 332.59375 Z M 626.910156 400.480469 C 626.910156 400.480469 619.214844 402.15625 607.839844 403.828125 C 598.019531 405.238281 594.761719 420.75 607.269531 420.75 C 613.847656 420.75 626.96875 415.125 626.910156 400.480469 Z M 366.671875 371.867188 C 348.414062 371.867188 343.296875 395.632812 343.296875 400.707031 C 343.316406 405.785156 343.03125 418.867188 357.289062 418.867188 C 371.542969 418.867188 379.769531 400.894531 379.769531 388.789062 C 379.769531 376.679688 373.796875 371.867188 366.671875 371.867188 Z M 452.546875 374.425781 C 436.335938 374.425781 432.28125 396.457031 432.28125 400.96875 C 432.28125 405.484375 432.847656 417.082031 443.65625 417.082031 C 454.460938 417.082031 464.714844 402.097656 464.792969 389.652344 C 464.792969 382.285156 464.46875 374.425781 452.546875 374.425781 Z M 452.546875 374.425781 " fill-opacity="1" fill-rule="evenodd"/></svg>