<svg xmlns="http://www.w3.org/2000/svg" xmlns:xlink="http://www.w3.org/1999/xlink" width="1080" zoomAndPan="magnify" viewBox="0 0 810 809.999993" height="1080" preserveAspectRatio="xMidYMid meet" version="1.0"><defs><clipPath id="ad5955e302"><path d="M 0 290.59375 L 810 290.59375 L 810 519.34375 L 0 519.34375 Z M 0 290.59375 " clip-rule="nonzero"/></clipPath></defs><rect x="-81" width="972" fill="#ffffff" y="-80.999999" height="971.999992" fill-opacity="1"/><rect x="-81" width="972" fill="#ffffff" y="-80.999999" height="971.999992" fill-opacity="1"/><path fill="#e40828" d="M 469.371094 343.757812 C 468.042969 341.675781 460.347656 329.105469 452.273438 315.824219 L 437.589844 291.675781 L 470.882812 291.242188 C 489.191406 291 504.527344 291.160156 504.960938 291.589844 C 505.664062 292.292969 484.65625 328.179688 475.371094 342.148438 L 471.785156 347.542969 Z M 469.371094 343.757812 " fill-opacity="1" fill-rule="nonzero"/><g clip-path="url(#ad5955e302)"><path fill="#103494" d="M 261.976562 517.039062 C 238.199219 508.179688 238.207031 476.804688 261.992188 468.703125 C 276.050781 463.914062 289.484375 466.304688 298.027344 475.113281 L 303.164062 480.414062 L 295.304688 482.722656 C 288.644531 484.679688 286.960938 484.695312 284.269531 482.832031 C 280.011719 479.886719 270.484375 480.046875 266.066406 483.140625 C 263.394531 485.007812 262.488281 487.257812 262.488281 491.996094 C 262.488281 500.9375 266.738281 504.789062 276.578125 504.757812 C 283.28125 504.734375 291.773438 502.066406 287.445312 501.34375 C 286.5625 501.195312 285.113281 500.90625 284.226562 500.699219 C 283.339844 500.492188 280.980469 500.242188 278.976562 500.140625 L 275.339844 499.953125 L 278.976562 494.339844 C 282.539062 488.84375 282.847656 488.722656 293.484375 488.703125 L 304.355469 488.683594 L 304.355469 511.40625 L 296.730469 514.777344 C 287.085938 519.042969 270.289062 520.136719 261.976562 517.039062 Z M 315.988281 493.109375 L 316.433594 466.949219 L 329.316406 466.441406 C 348.324219 465.691406 358.316406 467.296875 363.898438 471.992188 C 372.371094 479.121094 371.890625 492.777344 362.914062 499.835938 C 358.089844 503.628906 358.136719 504.925781 363.28125 509.734375 C 365.574219 511.878906 368.136719 514.90625 368.972656 516.453125 C 370.347656 519.003906 369.5 519.273438 360.042969 519.273438 L 349.589844 519.273438 L 343.882812 511.796875 C 339.621094 506.21875 338.171875 502.742188 338.171875 498.109375 C 338.171875 492.101562 338.351562 491.902344 343.75 491.902344 C 347.613281 491.902344 349.84375 490.949219 350.992188 488.800781 C 354.425781 482.386719 348.960938 478.136719 338.769531 479.300781 L 334.144531 479.828125 L 333.691406 499.550781 L 333.242188 519.273438 L 315.546875 519.273438 Z M 395.339844 517.304688 C 382.695312 512.824219 376.820312 504.863281 376.820312 492.222656 C 376.820312 476.367188 388.542969 466.9375 408.222656 466.964844 C 427.792969 466.992188 439.632812 476.996094 439.617188 493.488281 C 439.609375 503.765625 434.984375 510.53125 424.699219 515.320312 C 415.605469 519.550781 403.90625 520.34375 395.339844 517.304688 Z M 418.570312 500.539062 C 420.40625 498.207031 421.910156 494.683594 421.910156 492.707031 C 421.910156 490.734375 420.40625 487.207031 418.570312 484.875 C 414.113281 479.207031 402.792969 478.816406 397.816406 484.15625 C 393.519531 488.769531 393.617188 496.355469 398.035156 501.054688 C 403.21875 506.570312 414.039062 506.300781 418.570312 500.539062 Z M 464.289062 517.296875 C 461.46875 516.390625 457.121094 513.519531 454.625 510.917969 C 450.160156 506.261719 450.089844 505.894531 450.089844 486.570312 L 450.089844 466.949219 L 458.542969 466.460938 L 467 465.976562 L 467 482.265625 C 467 491.222656 467.75 499.957031 468.667969 501.667969 C 470.625 505.324219 480.089844 506 482.84375 502.675781 C 483.808594 501.519531 484.800781 493.007812 485.054688 483.761719 L 485.519531 466.949219 L 493.972656 466.460938 L 502.425781 465.976562 L 502.425781 485.324219 C 502.425781 504.640625 502.417969 504.679688 497.464844 510.320312 C 490.199219 518.59375 476.972656 521.371094 464.289062 517.296875 Z M 516.019531 517.1875 C 515.578125 516.042969 515.421875 504.269531 515.667969 491.027344 L 516.113281 466.949219 L 533.828125 466.980469 C 553.21875 467.011719 558.585938 468.632812 564.125 476.117188 C 570.109375 484.207031 566.550781 496.382812 556.796875 501.167969 C 554.53125 502.28125 549.34375 503.648438 545.265625 504.207031 L 537.855469 505.222656 L 537.855469 498.671875 C 537.855469 492.785156 538.289062 492.066406 542.121094 491.609375 C 552.6875 490.347656 550.878906 479.832031 540.09375 479.832031 L 533.828125 479.832031 L 533.375 499.550781 L 532.921875 519.273438 L 524.871094 519.273438 C 519.769531 519.273438 516.523438 518.511719 516.019531 517.191406 Z M 0 356.667969 L 0 290.664062 L 41.082031 290.664062 L 79.722656 326.15625 L 118.359375 361.652344 L 118.792969 326.15625 L 119.226562 290.664062 L 162.644531 290.664062 L 162.644531 422.675781 L 142.113281 422.636719 L 121.582031 422.59375 L 90.179688 394.421875 C 72.90625 378.925781 55.335938 363.300781 51.128906 359.699219 L 43.480469 353.148438 L 43.480469 422.675781 L 0 422.675781 Z M 185.671875 421.46875 C 186.042969 420.804688 199.25 398.890625 215.019531 372.769531 C 230.792969 346.648438 248.382812 317.488281 254.105469 307.96875 L 264.515625 290.660156 L 275.980469 290.679688 L 287.445312 290.695312 L 326.898438 355.355469 C 348.597656 390.917969 366.59375 420.613281 366.890625 421.34375 C 367.183594 422.078125 356.554688 422.675781 343.269531 422.675781 L 319.109375 422.675781 L 312.054688 411.261719 L 284.851562 411.738281 C 269.890625 411.996094 257.652344 411.976562 257.652344 411.691406 C 257.652344 411.40625 261.460938 404.722656 266.109375 396.835938 L 274.5625 382.503906 L 283.835938 382.46875 L 293.113281 382.429688 L 276.730469 349.796875 L 233.410156 422.679688 L 209.203125 422.679688 C 195.890625 422.679688 185.300781 422.136719 185.671875 421.472656 Z M 386.480469 357.839844 C 364.78125 322.304688 346.785156 292.65625 346.492188 291.949219 C 346.195312 291.242188 358.171875 290.664062 373.101562 290.664062 L 400.25 290.664062 L 426.378906 333.921875 C 440.746094 357.714844 452.507812 377.945312 452.507812 378.878906 C 452.507812 380.402344 429.480469 418.699219 426.96875 421.351562 C 426.398438 421.953125 408.179688 393.371094 386.480469 357.839844 Z M 481.792969 420.96875 C 482.105469 420.027344 499.738281 390.332031 520.976562 354.976562 L 559.59375 290.699219 L 571.382812 291.082031 L 583.167969 291.46875 L 609.277344 334.128906 C 623.632812 357.59375 641.699219 387.117188 649.417969 399.734375 L 663.457031 422.675781 L 614.046875 422.675781 L 610.976562 416.972656 L 607.902344 411.265625 L 580.929688 411.738281 C 566.09375 412 553.953125 411.578125 553.957031 410.800781 C 553.957031 410.023438 557.679688 403.324219 562.226562 395.910156 L 570.496094 382.429688 L 579.136719 382.429688 C 583.886719 382.429688 587.773438 382.050781 587.773438 381.589844 C 587.773438 379.546875 573.125 351.84375 572.058594 351.867188 C 571.402344 351.882812 561.445312 367.820312 549.929688 387.285156 L 528.996094 422.671875 L 505.109375 422.675781 C 488.980469 422.675781 481.410156 422.121094 481.792969 420.96875 Z M 684.394531 356.667969 L 684.394531 290.664062 L 727.828125 290.664062 L 728.679688 391.28125 L 769.339844 391.714844 C 791.703125 391.949219 810 392.546875 810 393.039062 C 810 393.53125 806.195312 400.382812 801.546875 408.265625 L 793.09375 422.597656 L 738.742188 422.636719 L 684.394531 422.671875 Z M 684.394531 356.667969 " fill-opacity="1" fill-rule="nonzero"/></g></svg>