<svg xmlns="http://www.w3.org/2000/svg" xmlns:xlink="http://www.w3.org/1999/xlink" width="1080" zoomAndPan="magnify" viewBox="0 0 810 809.999993" height="1080" preserveAspectRatio="xMidYMid meet" version="1.0"><rect x="-81" width="972" fill="#ffffff" y="-80.999999" height="971.999992" fill-opacity="1"/><rect x="-81" width="972" fill="#ffffff" y="-80.999999" height="971.999992" fill-opacity="1"/><path fill="#007dc5" d="M 314.476562 79.097656 C 314.617188 67.734375 309.40625 61.84375 301.332031 61.84375 C 291.75 61.84375 286.820312 68.003906 286.820312 80.878906 L 286.820312 90.601562 L 314.476562 91.011719 Z M 314.476562 79.097656 " fill-opacity="1" fill-rule="nonzero"/><path fill="#007dc5" d="M 611.4375 152.996094 L 611.847656 125.335938 L 621.570312 125.335938 C 634.441406 125.335938 640.601562 130.257812 640.601562 139.851562 C 640.601562 147.933594 634.710938 153.132812 623.347656 152.996094 Z M 611.4375 152.996094 " fill-opacity="1" fill-rule="nonzero"/><path fill="#007dc5" d="M 638.089844 91.4375 C 639.199219 93.300781 639.777344 95.566406 639.777344 98.214844 C 639.777344 107.808594 631.425781 111.910156 622.253906 111.910156 L 611.984375 111.910156 L 612.121094 86.039062 Z M 638.089844 91.4375 " fill-opacity="1" fill-rule="nonzero"/><path fill="#007dc5" d="M 248.152344 90.3125 L 273.394531 90.460938 L 273.394531 80.191406 C 273.394531 71.015625 269.292969 62.664062 259.703125 62.664062 C 257.429688 62.664062 255.441406 63.09375 253.746094 63.914062 Z M 248.152344 90.3125 " fill-opacity="1" fill-rule="nonzero"/><path fill="#ed1847" d="M 117.445312 706.75 L 564.65625 706.75 L 544.988281 797.808594 Z M 117.445312 706.75 " fill-opacity="1" fill-rule="nonzero"/><path fill="#007cc2" d="M 257.683594 45.9375 C 270.558594 45.9375 278.601562 53.21875 279.703125 62.523438 L 279.972656 62.523438 C 281.753906 51.027344 290.652344 44.316406 302.15625 44.316406 C 317.898438 44.316406 327.890625 56.371094 327.890625 74.304688 L 327.890625 108.816406 L 244.320312 107.949219 L 241.253906 123.40625 L 327.890625 157.839844 L 327.890625 174.265625 L 236.84375 208.097656 L 231.222656 190.429688 L 305.714844 166.191406 L 305.714844 165.914062 L 237.523438 140.828125 L 117.441406 706.75 L 564.652344 706.75 L 692.480469 103.054688 L 656.464844 95.355469 C 656.464844 108.230469 649.230469 117.113281 639.917969 118.210938 L 639.917969 118.484375 C 651.421875 120.261719 658.132812 129.164062 658.132812 140.667969 C 658.132812 156.414062 646.082031 166.417969 628.136719 166.417969 L 593.632812 166.417969 L 594.589844 82.210938 L 566.542969 76.292969 L 565.722656 166.417969 L 548.199219 166.417969 L 549.105469 72.675781 L 264.695312 12.191406 L 257.6875 45.9375 Z M 491.667969 86.714844 L 465.105469 86.714844 L 465.234375 71.648438 L 535.476562 71.648438 L 535.347656 86.714844 L 509.191406 86.714844 L 508.503906 166.417969 L 490.980469 166.417969 Z M 405.8125 147.652344 C 410.195312 150.664062 417.316406 154.09375 422.515625 154.09375 C 432.238281 154.09375 437.71875 147.929688 437.71875 140.398438 C 437.578125 121.503906 398.832031 129.574219 398.832031 97.257812 C 398.832031 81.78125 411.425781 69.738281 430.457031 69.738281 C 439.910156 69.738281 449.082031 73.019531 457.164062 77.671875 L 449.773438 90.273438 C 444.019531 87.125 438.671875 83.972656 431.828125 83.972656 C 423.886719 83.972656 416.355469 88.222656 416.355469 96.707031 C 416.355469 115.332031 456.0625 109.449219 456.0625 139.710938 C 456.0625 155.875 443.0625 168.335938 424.707031 168.335938 C 415.535156 168.335938 406.90625 165.726562 398.964844 161.074219 Z M 233.144531 237.925781 L 233.144531 220.390625 L 327.890625 221.222656 L 327.890625 238.746094 Z M 233.144531 358.683594 L 233.144531 340.738281 L 308.859375 317.742188 L 308.859375 317.460938 L 233.144531 291.171875 L 233.144531 273.230469 L 327.890625 259.265625 L 329.8125 277.070312 L 255.046875 284.191406 L 255.046875 284.460938 L 327.890625 308.558594 L 327.890625 326.632812 L 255.046875 348.410156 L 255.046875 348.691406 L 329.8125 358.542969 L 327.890625 375.390625 Z M 233.144531 358.683594 " fill-opacity="1" fill-rule="nonzero"/><path fill="#007cc2" d="M 314.476562 79.097656 C 314.617188 67.734375 309.40625 61.84375 301.332031 61.84375 C 291.75 61.84375 286.820312 68.003906 286.820312 80.878906 L 286.820312 90.601562 L 314.476562 91.011719 Z M 314.476562 79.097656 " fill-opacity="1" fill-rule="nonzero"/><path fill="#007cc2" d="M 611.4375 152.996094 L 611.847656 125.335938 L 621.570312 125.335938 C 634.441406 125.335938 640.601562 130.257812 640.601562 139.851562 C 640.601562 147.933594 634.710938 153.132812 623.347656 152.996094 Z M 611.4375 152.996094 " fill-opacity="1" fill-rule="nonzero"/><path fill="#007cc2" d="M 638.089844 91.4375 C 639.199219 93.300781 639.777344 95.566406 639.777344 98.214844 C 639.777344 107.808594 631.425781 111.910156 622.253906 111.910156 L 611.984375 111.910156 L 612.121094 86.039062 Z M 638.089844 91.4375 " fill-opacity="1" fill-rule="nonzero"/><path fill="#007cc2" d="M 248.152344 90.3125 L 273.394531 90.460938 L 273.394531 80.191406 C 273.394531 71.015625 269.292969 62.664062 259.703125 62.664062 C 257.429688 62.664062 255.441406 63.09375 253.746094 63.914062 Z M 248.152344 90.3125 " fill-opacity="1" fill-rule="nonzero"/><path fill="#ef3e42" d="M 117.445312 706.75 L 564.65625 706.75 L 544.988281 797.808594 Z M 117.445312 706.75 " fill-opacity="1" fill-rule="nonzero"/><path fill="#007cc2" d="M 257.683594 45.9375 C 270.558594 45.9375 278.601562 53.21875 279.703125 62.523438 L 279.972656 62.523438 C 281.753906 51.027344 290.652344 44.316406 302.15625 44.316406 C 317.898438 44.316406 327.890625 56.371094 327.890625 74.304688 L 327.890625 108.816406 L 244.320312 107.949219 L 241.253906 123.40625 L 327.890625 157.839844 L 327.890625 174.265625 L 236.84375 208.097656 L 231.222656 190.429688 L 305.714844 166.191406 L 305.714844 165.914062 L 237.523438 140.828125 L 117.441406 706.75 L 564.652344 706.75 L 692.480469 103.054688 L 656.464844 95.355469 C 656.464844 108.230469 649.230469 117.113281 639.917969 118.210938 L 639.917969 118.484375 C 651.421875 120.261719 658.132812 129.164062 658.132812 140.667969 C 658.132812 156.414062 646.082031 166.417969 628.136719 166.417969 L 593.632812 166.417969 L 594.589844 82.210938 L 566.542969 76.292969 L 565.722656 166.417969 L 548.199219 166.417969 L 549.105469 72.675781 L 264.695312 12.191406 L 257.6875 45.9375 Z M 491.667969 86.714844 L 465.105469 86.714844 L 465.234375 71.648438 L 535.476562 71.648438 L 535.347656 86.714844 L 509.191406 86.714844 L 508.503906 166.417969 L 490.980469 166.417969 Z M 405.8125 147.652344 C 410.195312 150.664062 417.316406 154.09375 422.515625 154.09375 C 432.238281 154.09375 437.71875 147.929688 437.71875 140.398438 C 437.578125 121.503906 398.832031 129.574219 398.832031 97.257812 C 398.832031 81.78125 411.425781 69.738281 430.457031 69.738281 C 439.910156 69.738281 449.082031 73.019531 457.164062 77.671875 L 449.773438 90.273438 C 444.019531 87.125 438.671875 83.972656 431.828125 83.972656 C 423.886719 83.972656 416.355469 88.222656 416.355469 96.707031 C 416.355469 115.332031 456.0625 109.449219 456.0625 139.710938 C 456.0625 155.875 443.0625 168.335938 424.707031 168.335938 C 415.535156 168.335938 406.90625 165.726562 398.964844 161.074219 Z M 233.144531 237.925781 L 233.144531 220.390625 L 327.890625 221.222656 L 327.890625 238.746094 Z M 233.144531 358.683594 L 233.144531 340.738281 L 308.859375 317.742188 L 308.859375 317.460938 L 233.144531 291.171875 L 233.144531 273.230469 L 327.890625 259.265625 L 329.8125 277.070312 L 255.046875 284.191406 L 255.046875 284.460938 L 327.890625 308.558594 L 327.890625 326.632812 L 255.046875 348.410156 L 255.046875 348.691406 L 329.8125 358.542969 L 327.890625 375.390625 Z M 233.144531 358.683594 " fill-opacity="1" fill-rule="nonzero"/></svg>