<svg xmlns="http://www.w3.org/2000/svg" xmlns:xlink="http://www.w3.org/1999/xlink" width="1080" zoomAndPan="magnify" viewBox="0 0 810 809.999993" height="1080" preserveAspectRatio="xMidYMid meet" version="1.0"><rect x="-81" width="972" fill="#ffffff" y="-80.999999" height="971.999992" fill-opacity="1"/><rect x="-81" width="972" fill="#ffffff" y="-80.999999" height="971.999992" fill-opacity="1"/><path fill="#4e6b7c" d="M 788.644531 487.226562 C 720.988281 482.210938 636.800781 478.046875 544.800781 478.046875 C 403.980469 478.046875 244.984375 487.652344 99.96875 517.6875 C 75.65625 487.003906 46.070312 462.910156 0.726562 443.875 L 0.0625 445.199219 C 40.171875 488.753906 65.792969 526.410156 83.957031 580.292969 C 287.253906 504.539062 542.476562 490.503906 735.175781 490.503906 C 753.617188 490.503906 771.191406 490.726562 788.191406 490.945312 L 788.644531 487.226562 " fill-opacity="1" fill-rule="nonzero"/><path fill="#82e600" d="M 577.0625 349.515625 C 578.167969 344.277344 579.050781 339.894531 579.050781 333.761719 C 579.050781 321.949219 571.585938 317.109375 563.683594 317.109375 C 550.746094 317.109375 544.007812 324.789062 540.945312 349.515625 Z M 320.546875 409.089844 C 316.601562 411.925781 310.683594 415.207031 304.121094 415.207031 C 291.625 415.207031 289.875 404.691406 289.875 392.214844 C 289.875 377.550781 293.832031 351.5 298.1875 341.203125 C 304.78125 325.433594 313.761719 321.066406 328.214844 321.066406 C 328.640625 321.066406 329.757812 321.066406 331.289062 321.289062 Z M 745.039062 373.152344 C 740.460938 415.632812 734.085938 424.402344 721.871094 424.402344 C 710.671875 424.402344 706.300781 416.28125 706.300781 398.554688 C 706.300781 390.90625 707.167969 380.183594 708.492188 369.019531 C 713.101562 326.523438 719.457031 317.773438 731.671875 317.773438 C 742.875 317.773438 747.246094 325.875 747.246094 343.601562 C 747.246094 351.265625 746.363281 361.988281 745.039062 373.152344 Z M 454.125 453.71875 L 393.265625 453.71875 L 420.863281 229.558594 L 481.777344 229.558594 Z M 577.945312 414.765625 C 590.160156 414.765625 606.617188 411.925781 619.554688 408.207031 L 612.105469 448.9375 C 596.742188 452.847656 575.105469 455.039062 555.796875 455.039062 C 494.273438 455.039062 477.171875 428.3125 477.171875 393.304688 C 477.171875 303.753906 515.71875 283.410156 568.730469 283.410156 C 610.355469 283.410156 636.167969 303.53125 636.167969 342.085938 C 636.167969 358.914062 632.726562 374.050781 630.3125 384.554688 L 538.738281 384.554688 C 538.738281 403.835938 545.035156 414.765625 577.945312 414.765625 Z M 338.5 284.71875 C 296.011719 284.71875 273.019531 292.808594 254.386719 312.726562 C 236.652344 331.582031 227.234375 364.855469 227.234375 400.101562 C 227.234375 430.753906 234.886719 456.128906 272.800781 456.128906 C 290.078125 456.128906 305.222656 449.597656 319.234375 441.464844 L 319.882812 441.464844 L 318.367188 453.71875 L 375.972656 453.71875 L 396.5625 285.824219 C 379.695312 285.144531 360.195312 284.71875 338.5 284.71875 Z M 810.148438 344.277344 C 810.148438 300.914062 782.054688 283.410156 734.957031 283.410156 C 678.054688 283.410156 643.394531 309.476562 643.394531 397.910156 C 643.394531 441.242188 671.476562 458.777344 718.589844 458.777344 C 775.488281 458.777344 810.148438 433.375 810.148438 344.277344 Z M 206.1875 229.558594 C 192.191406 282.085938 172.894531 334.644531 148.140625 387.40625 L 147.699219 387.40625 C 141.148438 344.5 137.851562 282.75 137.851562 229.558594 L 67.296875 229.558594 C 69.503906 313.59375 84.175781 387.832031 100.617188 453.71875 L 168.523438 453.71875 C 206.851562 384.554688 242.777344 310.121094 270.59375 229.558594 L 206.1875 229.558594 " fill-opacity="1" fill-rule="nonzero"/></svg>