<svg xmlns="http://www.w3.org/2000/svg" xmlns:xlink="http://www.w3.org/1999/xlink" width="1080" zoomAndPan="magnify" viewBox="0 0 810 809.999993" height="1080" preserveAspectRatio="xMidYMid meet" version="1.0"><defs><clipPath id="6b68eb968a"><path d="M 5 304.941406 L 805 304.941406 L 805 505.191406 L 5 505.191406 Z M 5 304.941406 " clip-rule="nonzero"/></clipPath></defs><rect x="-81" width="972" fill="#ffffff" y="-80.999999" height="971.999992" fill-opacity="1"/><rect x="-81" width="972" fill="#ffffff" y="-80.999999" height="971.999992" fill-opacity="1"/><g clip-path="url(#6b68eb968a)"><path fill="#00538d" d="M 71.242188 483.566406 L 5 357.761719 C 19.984375 357.761719 34.960938 357.761719 49.941406 357.761719 C 54.796875 357.761719 58.699219 359.597656 60.925781 363.671875 L 110.503906 465.953125 C 118.851562 438.109375 127.203125 410.273438 135.558594 382.429688 C 141.25 368.972656 152.4375 359.390625 167.890625 359.390625 L 220.761719 359.390625 L 220.761719 393.648438 C 210.386719 393.71875 200.019531 393.582031 189.648438 393.648438 C 184.15625 393.648438 177.6875 396.222656 176.140625 400.910156 L 142.058594 504.167969 L 100.660156 504.167969 C 86.988281 504.160156 77.34375 495.164062 71.242188 483.566406 Z M 277.945312 504.410156 C 271.507812 504.160156 259.40625 502.824219 251.015625 496.605469 C 242.621094 490.390625 238.335938 479.289062 238.453125 469.914062 L 238.453125 328.195312 L 285.222656 328.195312 L 285.425781 344.710938 C 285.546875 354.28125 289.839844 360.554688 297.792969 363.664062 C 302.566406 365.535156 308.988281 366.097656 315.6875 366.011719 L 315.175781 394.464844 L 285.425781 394.464844 L 285.425781 454.210938 C 287.871094 472.800781 300.382812 470.640625 315.429688 469.507812 L 315.429688 499.070312 C 301.859375 503.320312 291.703125 504.414062 277.945312 504.414062 Z M 322.445312 432.917969 C 322.148438 407.542969 328.449219 389.394531 341.117188 376.882812 C 354.484375 363.679688 375.332031 357.59375 403.984375 357.140625 C 438.84375 357.324219 472.011719 368.890625 478.8125 410.160156 C 480.351562 419.472656 480.648438 431.339844 479.027344 440.308594 L 378.589844 440.308594 C 374.355469 440.308594 372.792969 440.871094 372.257812 445.804688 C 371.503906 452.800781 373.40625 459.074219 377.121094 463.96875 C 382.222656 470.683594 390.726562 474.824219 400.488281 474.765625 C 407.09375 474.71875 415.710938 472.988281 419.828125 467.566406 C 425.707031 459.820312 426.011719 454.695312 437.742188 454.816406 L 476.988281 455.222656 C 474.214844 472.140625 465.109375 484.414062 452.988281 492.28125 C 438.363281 501.789062 419.339844 505.097656 401.746094 505.1875 C 373.839844 505.34375 352.808594 498.007812 338.71875 481.921875 C 328.433594 470.195312 322.683594 453.589844 322.445312 432.917969 Z M 515.054688 486.742188 C 498.339844 472.320312 492.847656 454.289062 492.847656 432.960938 C 492.847656 412.152344 496.320312 393.222656 511.609375 377.824219 C 527.199219 362.117188 549.644531 357.222656 573.800781 357.210938 C 591.328125 357.207031 611.910156 361.640625 625.90625 372.511719 C 635.40625 379.890625 641.863281 391.421875 644.804688 407.304688 L 606.863281 407.304688 C 598.074219 407.304688 593.300781 405.695312 589.449219 398.941406 C 585.089844 391.300781 578.003906 389.195312 570.765625 389.285156 C 558.585938 389.4375 551.480469 397.816406 547.769531 408.140625 C 545.378906 414.757812 544.394531 422.179688 544.355469 428.734375 C 544.300781 437.554688 545.5 449.042969 549.808594 458.050781 C 553.699219 466.164062 560.121094 472.257812 570.449219 472.582031 C 583.191406 472.976562 586.960938 467.9375 591.203125 460.75 C 594.558594 455.082031 599.148438 454.765625 606.410156 454.832031 L 644.359375 455.21875 C 640.832031 473.375 632.992188 485.050781 620.847656 492.703125 C 605.207031 502.5625 588.398438 505.355469 570.84375 505.179688 C 548.53125 504.964844 531.34375 500.816406 515.054688 486.742188 Z M 787.105469 503.332031 L 758.597656 503.332031 L 758.597656 411.988281 C 758.597656 395.132812 743.78125 390.042969 733.261719 389.84375 C 714.863281 389.484375 702.910156 396.828125 702.910156 414.851562 L 702.910156 503.335938 L 656.347656 503.335938 L 656.347656 333.925781 C 656.328125 319.320312 664.941406 304.941406 681.046875 304.941406 L 702.910156 304.941406 L 702.910156 369.988281 C 716.558594 359.585938 733.1875 355.976562 750.859375 357.097656 C 778.28125 358.847656 805 373.664062 805 407.636719 L 805 488.257812 C 805 499.171875 796.046875 503.332031 787.105469 503.332031 Z M 433.003906 414.847656 L 379.953125 414.847656 C 374.726562 414.847656 372.835938 412.773438 373.21875 407.949219 C 374.4375 392.609375 388.585938 385.234375 403.171875 385.667969 C 420.179688 386.179688 431.417969 394.972656 433.003906 414.847656 Z M 433.003906 414.847656 " fill-opacity="1" fill-rule="evenodd"/></g></svg>