<svg xmlns="http://www.w3.org/2000/svg" xmlns:xlink="http://www.w3.org/1999/xlink" width="1080" zoomAndPan="magnify" viewBox="0 0 810 809.999993" height="1080" preserveAspectRatio="xMidYMid meet" version="1.0"><rect x="-81" width="972" fill="#ffffff" y="-80.999999" height="971.999992" fill-opacity="1"/><rect x="-81" width="972" fill="#ffffff" y="-80.999999" height="971.999992" fill-opacity="1"/><path fill="#3a75c4" d="M 767.664062 265.878906 L 742.488281 308.929688 L 785.539062 283.757812 Z M 719.867188 332.28125 C 665.871094 278.285156 599.46875 247.640625 537.445312 242.894531 C 594.726562 257.488281 655.65625 292.148438 707.828125 344.320312 C 760 396.488281 794.660156 457.050781 809.253906 514.328125 C 804.511719 452.308594 773.867188 386.273438 719.867188 332.28125 Z M 252.496094 408.527344 L 229.875 408.527344 L 229.875 512.503906 L 297.738281 512.503906 L 297.738281 491.710938 L 252.496094 491.710938 Z M 334.953125 408.527344 L 312.332031 408.527344 L 312.332031 512.503906 L 380.195312 512.503906 L 380.195312 491.710938 L 334.585938 491.710938 L 334.585938 408.527344 Z M 72.992188 458.144531 C 78.464844 453.765625 81.382812 447.929688 81.382812 439.539062 C 81.382812 421.296875 68.976562 408.894531 48.183594 408.894531 L -1.4375 408.894531 L -1.4375 512.871094 L 47.816406 512.871094 C 71.53125 512.871094 86.125 501.558594 86.125 481.128906 C 86.492188 470.914062 81.746094 463.253906 72.992188 458.144531 Z M 21.183594 429.324219 L 47.085938 429.324219 C 54.382812 429.324219 59.128906 432.605469 59.128906 439.539062 C 59.128906 446.105469 54.382812 449.753906 47.085938 449.753906 L 21.183594 449.753906 Z M 50.371094 491.710938 L 44.898438 491.710938 C 41.25 491.710938 26.289062 491.710938 22.640625 491.710938 L 21.183594 491.710938 L 21.183594 470.183594 L 50.371094 470.183594 C 58.398438 470.183594 63.140625 473.832031 63.140625 480.765625 C 62.777344 488.0625 58.03125 491.710938 50.371094 491.710938 Z M 156.542969 406.703125 C 126.625 406.703125 102.542969 430.78125 102.542969 460.335938 C 102.542969 489.886719 126.625 513.964844 156.542969 513.964844 C 186.460938 513.964844 210.539062 489.886719 210.539062 460.335938 C 210.539062 430.78125 186.09375 406.703125 156.542969 406.703125 Z M 156.542969 492.4375 C 139.027344 492.4375 124.800781 478.210938 124.800781 460.699219 C 124.800781 443.1875 139.027344 428.960938 156.542969 428.960938 C 174.054688 428.960938 188.285156 443.1875 188.285156 460.699219 C 188.285156 478.210938 174.054688 492.4375 156.542969 492.4375 Z M 442.582031 406.703125 C 412.664062 406.703125 388.585938 430.78125 388.585938 460.335938 C 388.585938 489.886719 412.664062 513.964844 442.582031 513.964844 C 472.5 513.964844 496.582031 489.886719 496.582031 460.335938 C 496.582031 430.78125 472.5 406.703125 442.582031 406.703125 Z M 442.582031 492.4375 C 425.070312 492.4375 410.839844 478.210938 410.839844 460.699219 C 410.839844 443.1875 425.070312 428.960938 442.582031 428.960938 C 460.097656 428.960938 474.324219 443.1875 474.324219 460.699219 C 474.691406 478.210938 460.460938 492.4375 442.582031 492.4375 Z M 683.019531 379.34375 C 684.84375 376.421875 684.84375 373.140625 682.652344 370.953125 C 680.464844 368.398438 676.816406 368.03125 673.898438 369.492188 C 672.074219 370.585938 670.613281 372.046875 669.152344 373.871094 C 664.046875 380.070312 659.304688 386.273438 654.195312 392.839844 C 652.371094 395.03125 650.546875 397.582031 648.722656 399.773438 L 660.03125 399.773438 C 665.871094 394.664062 672.074219 389.558594 677.910156 384.085938 C 680.097656 382.992188 681.921875 381.53125 683.019531 379.34375 Z M 598.375 443.917969 C 598.375 421.664062 583.050781 408.527344 557.511719 408.527344 L 516.648438 408.527344 L 516.648438 512.503906 L 539.269531 512.503906 L 539.269531 479.304688 L 557.144531 479.304688 L 578.304688 512.503906 L 606.035156 512.503906 L 580.128906 473.46875 C 592.535156 466.535156 598.375 456.320312 598.375 443.917969 Z M 575.386719 444.28125 C 575.386719 452.671875 568.457031 458.511719 557.511719 458.511719 L 538.902344 458.511719 L 538.902344 429.6875 L 556.78125 429.6875 C 568.089844 429.324219 575.386719 434.429688 575.386719 444.28125 Z M 623.914062 512.503906 L 700.164062 512.503906 L 700.164062 491.710938 L 646.535156 491.710938 L 646.535156 470.914062 L 694.691406 470.914062 L 694.691406 450.117188 L 646.535156 450.117188 L 646.535156 429.324219 L 700.164062 429.324219 L 700.164062 408.527344 L 623.914062 408.527344 Z M 623.914062 512.503906 " fill-opacity="1" fill-rule="nonzero"/></svg>