<svg xmlns="http://www.w3.org/2000/svg" xmlns:xlink="http://www.w3.org/1999/xlink" width="1080" zoomAndPan="magnify" viewBox="0 0 810 809.999993" height="1080" preserveAspectRatio="xMidYMid meet" version="1.0"><defs><clipPath id="c0e210627f"><path d="M 382 273.140625 L 741 273.140625 L 741 537 L 382 537 Z M 382 273.140625 " clip-rule="nonzero"/></clipPath></defs><rect x="-81" width="972" fill="#ffffff" y="-80.999999" height="971.999992" fill-opacity="1"/><rect x="-81" width="972" fill="#ffffff" y="-80.999999" height="971.999992" fill-opacity="1"/><g clip-path="url(#c0e210627f)"><path fill="#ffed00" d="M 736.351562 401.632812 L 410.4375 275.035156 C 407.710938 273.980469 404.082031 273.394531 400.210938 273.394531 C 396.347656 273.394531 392.71875 273.972656 390 275.027344 L 382.136719 278.078125 C 382.136719 278.078125 693.992188 399.230469 697.101562 400.433594 C 699.453125 401.359375 700.917969 403.339844 700.917969 405.605469 C 700.921875 407.886719 699.453125 409.882812 697.097656 410.800781 L 383.492188 532.042969 L 391.660156 535.226562 C 394.390625 536.292969 398.03125 536.882812 401.910156 536.882812 C 405.765625 536.882812 409.382812 536.296875 412.089844 535.246094 L 736.355469 409.886719 C 738.820312 408.9375 740.234375 407.445312 740.242188 405.792969 C 740.25 404.128906 738.828125 402.613281 736.351562 401.632812 " fill-opacity="1" fill-rule="nonzero"/></g><path fill="#ffed00" d="M 806.109375 401.957031 L 482.234375 276.175781 C 479.503906 275.117188 475.871094 274.535156 472.003906 274.535156 C 468.140625 274.535156 464.515625 275.117188 461.789062 276.167969 L 453.929688 279.21875 C 453.929688 279.21875 763.75 399.558594 766.859375 400.761719 C 769.210938 401.683594 770.675781 403.664062 770.675781 405.929688 C 770.679688 408.210938 769.210938 410.207031 766.859375 411.128906 L 457.144531 530.898438 L 465.3125 534.089844 C 468.039062 535.152344 471.679688 535.738281 475.558594 535.738281 C 479.417969 535.738281 483.03125 535.15625 485.742188 534.109375 L 806.113281 410.214844 C 808.578125 409.261719 809.996094 407.769531 809.996094 406.117188 C 810.007812 404.453125 808.589844 402.9375 806.109375 401.957031 " fill-opacity="1" fill-rule="nonzero"/><path fill="#ffed00" d="M 666.527344 401.78125 L 345.636719 276.613281 C 342.753906 275.488281 338.910156 274.949219 335.105469 274.984375 L 335.105469 274.988281 C 331.273438 274.9375 327.394531 275.46875 324.480469 276.597656 L 3.726562 400.828125 C -1.214844 402.742188 -1.257812 406.621094 3.691406 408.527344 L 324.578125 533.703125 C 327.460938 534.828125 331.304688 535.363281 335.109375 535.328125 L 335.109375 535.324219 C 338.941406 535.375 342.820312 534.847656 345.734375 533.714844 L 666.492188 409.484375 C 671.433594 407.566406 671.46875 403.691406 666.527344 401.78125 " fill-opacity="1" fill-rule="nonzero"/><path fill="#000000" d="M 150.398438 403.433594 C 150.398438 388.621094 159.992188 380.210938 172.28125 380.210938 C 179.554688 380.210938 185.699219 382.71875 189.902344 388.683594 L 181.9375 395.714844 C 179.804688 392.324219 176.542969 390.566406 172.972656 390.566406 C 167.265625 390.566406 161.996094 393.957031 161.996094 403.433594 C 161.996094 412.851562 167.078125 416.371094 172.785156 416.371094 C 176.671875 416.371094 179.617188 414.167969 181.6875 410.277344 L 190.589844 415.988281 C 186.390625 423.460938 179.492188 426.789062 172.21875 426.789062 C 159.367188 426.789062 150.398438 417.8125 150.398438 403.433594 " fill-opacity="1" fill-rule="nonzero"/><path fill="#000000" d="M 193.53125 403.433594 C 193.53125 387.429688 204.566406 380.210938 216.355469 380.210938 C 228.148438 380.210938 239.183594 387.429688 239.183594 403.433594 C 239.183594 419.507812 228.148438 426.660156 216.355469 426.660156 C 204.566406 426.660156 193.53125 419.507812 193.53125 403.433594 M 227.578125 403.433594 C 227.578125 393.957031 222.066406 390.566406 216.355469 390.566406 C 210.714844 390.566406 205.132812 393.957031 205.132812 403.433594 C 205.132812 412.910156 210.714844 416.304688 216.355469 416.304688 C 222.066406 416.304688 227.578125 412.910156 227.578125 403.433594 " fill-opacity="1" fill-rule="nonzero"/><path fill="#000000" d="M 273.914062 415.363281 L 273.914062 425.78125 L 246.511719 425.78125 L 246.511719 381.214844 L 257.734375 381.214844 L 257.734375 415.363281 Z M 273.914062 415.363281 " fill-opacity="1" fill-rule="nonzero"/><path fill="#000000" d="M 311.84375 425.78125 L 308.957031 417.996094 L 296.292969 417.996094 L 299.242188 409.460938 L 305.761719 409.460938 L 300.054688 394.207031 L 288.519531 425.78125 L 276.789062 425.78125 L 294.976562 381.214844 L 305.886719 381.214844 L 323.757812 425.78125 Z M 311.84375 425.78125 " fill-opacity="1" fill-rule="nonzero"/><path fill="#000000" d="M 326.007812 419.882812 L 332.96875 411.660156 C 336.542969 415.113281 339.867188 416.367188 343.503906 416.367188 C 346.828125 416.367188 349.648438 415.046875 349.648438 412.660156 C 349.648438 410.277344 347.515625 409.082031 340.246094 407.578125 C 333.785156 406.195312 328.015625 404 328.015625 394.332031 C 328.015625 386.421875 334.597656 380.210938 345.386719 380.210938 C 352.71875 380.210938 357.675781 382.90625 361.1875 385.855469 L 354.664062 394.398438 C 352.21875 391.882812 349.398438 390.628906 345.386719 390.628906 C 341.683594 390.628906 339.429688 391.882812 339.429688 394.082031 C 339.429688 396.40625 341.496094 397.222656 346.828125 398.351562 C 353.726562 399.792969 360.933594 401.675781 360.933594 411.910156 C 360.933594 420.695312 354.226562 426.785156 343.253906 426.785156 C 334.664062 426.785156 329.523438 423.585938 326.007812 419.882812 " fill-opacity="1" fill-rule="nonzero"/><path fill="#000000" d="M 420.683594 425.78125 L 406.574219 425.78125 L 396.980469 410.210938 L 394.847656 410.210938 L 394.847656 425.78125 L 383.625 425.78125 L 383.625 381.214844 L 401.371094 381.214844 C 412.09375 381.214844 419.117188 386.363281 419.117188 395.648438 C 419.117188 402.558594 415.414062 406.886719 409.082031 408.894531 Z M 400.304688 401.175781 C 405.070312 401.175781 407.511719 399.792969 407.511719 395.839844 C 407.511719 392.390625 405.320312 391.132812 400.929688 391.132812 L 394.847656 391.132812 L 394.847656 401.175781 Z M 400.304688 401.175781 " fill-opacity="1" fill-rule="nonzero"/><path fill="#000000" d="M 456.605469 425.78125 L 453.722656 417.996094 L 441.054688 417.996094 L 444.003906 409.460938 L 450.523438 409.460938 L 444.820312 394.207031 L 433.277344 425.78125 L 421.554688 425.78125 L 439.738281 381.214844 L 450.648438 381.214844 L 468.519531 425.78125 Z M 456.605469 425.78125 " fill-opacity="1" fill-rule="nonzero"/><path fill="#000000" d="M 473.96875 381.214844 L 485.191406 381.214844 L 485.191406 425.78125 L 473.96875 425.78125 Z M 473.96875 381.214844 " fill-opacity="1" fill-rule="nonzero"/><path fill="#000000" d="M 521.558594 415.363281 L 521.558594 425.78125 L 494.15625 425.78125 L 494.15625 381.214844 L 505.382812 381.214844 L 505.382812 415.363281 Z M 521.558594 415.363281 " fill-opacity="1" fill-rule="nonzero"/></svg>