<svg xmlns="http://www.w3.org/2000/svg" xmlns:xlink="http://www.w3.org/1999/xlink" width="1080" zoomAndPan="magnify" viewBox="0 0 810 809.999993" height="1080" preserveAspectRatio="xMidYMid meet" version="1.0"><defs><clipPath id="acb5b7c2b7"><path d="M 562 435 L 650 435 L 650 517.339844 L 562 517.339844 Z M 562 435 " clip-rule="nonzero"/></clipPath><clipPath id="48f79c675a"><path d="M 729 335 L 809.671875 335 L 809.671875 419 L 729 419 Z M 729 335 " clip-rule="nonzero"/></clipPath><clipPath id="17edf8ba28"><path d="M 0.328125 292.339844 L 140 292.339844 L 140 517 L 0.328125 517 Z M 0.328125 292.339844 " clip-rule="nonzero"/></clipPath></defs><rect x="-81" width="972" fill="#ffffff" y="-80.999999" height="971.999992" fill-opacity="1"/><rect x="-81" width="972" fill="#ffffff" y="-80.999999" height="971.999992" fill-opacity="1"/><path fill="#24486d" d="M 247.582031 516.613281 L 230.136719 436.09375 L 210.179688 436.09375 L 156.542969 516.613281 L 177.191406 516.613281 L 216.113281 457.613281 L 221.804688 484.988281 L 206.28125 484.988281 L 195.753906 500.957031 L 225.355469 500.957031 L 228.625 516.613281 L 247.582031 516.613281 " fill-opacity="1" fill-rule="nonzero"/><path fill="#24486d" d="M 448.257812 516.613281 L 430.8125 436.09375 L 410.859375 436.09375 L 357.21875 516.613281 L 377.871094 516.613281 L 416.792969 457.613281 L 422.480469 484.988281 L 406.964844 484.988281 L 396.429688 500.957031 L 426.035156 500.957031 L 429.300781 516.613281 L 448.257812 516.613281 " fill-opacity="1" fill-rule="nonzero"/><path fill="#24486d" d="M 350.007812 436.09375 L 326.070312 516.589844 L 346.1875 516.589844 L 370.105469 436.09375 L 350.007812 436.09375 " fill-opacity="1" fill-rule="nonzero"/><path fill="#24486d" d="M 542.011719 436.09375 L 518.074219 516.589844 L 538.191406 516.589844 L 562.109375 436.09375 L 542.011719 436.09375 " fill-opacity="1" fill-rule="nonzero"/><path fill="#24486d" d="M 717.378906 488.992188 L 694.117188 436.09375 L 674.058594 436.09375 L 650.109375 516.589844 L 670.199219 516.589844 L 686.105469 463.40625 L 709.183594 516.589844 L 729.273438 516.589844 L 753.222656 436.09375 L 733.085938 436.09375 L 717.378906 488.992188 " fill-opacity="1" fill-rule="nonzero"/><path fill="#24486d" d="M 530.414062 436.09375 L 456.933594 436.09375 L 452.019531 452.703125 L 478.796875 452.703125 L 459.863281 516.570312 L 479.960938 516.570312 L 498.894531 452.703125 L 525.464844 452.703125 L 530.414062 436.09375 " fill-opacity="1" fill-rule="nonzero"/><path fill="#24486d" d="M 267.371094 436.09375 L 248.414062 436.09375 L 265.859375 516.613281 L 285.8125 516.613281 L 339.453125 436.09375 L 318.804688 436.09375 L 279.878906 495.097656 L 267.371094 436.09375 " fill-opacity="1" fill-rule="nonzero"/><g clip-path="url(#acb5b7c2b7)"><path fill="#24486d" d="M 628.894531 476.410156 C 625.613281 488.84375 614.535156 501.414062 599.433594 501.414062 C 583.441406 501.414062 579.097656 491.328125 583.003906 476.304688 C 586.894531 461.335938 599.621094 451.273438 612.492188 451.273438 C 627.804688 451.273438 633.3125 459.667969 628.894531 476.410156 M 611.957031 435.339844 C 588.351562 435.339844 569.933594 451.285156 563.464844 476.285156 C 557.082031 500.957031 572.480469 517.347656 599.144531 517.347656 C 626.71875 517.347656 643.964844 497.082031 648.5 476.457031 C 654.613281 448.617188 639.464844 435.339844 611.957031 435.339844 " fill-opacity="1" fill-rule="nonzero"/></g><path fill="#24486d" d="M 564.078125 418.757812 L 560.816406 403.132812 L 528.386719 403.132812 L 539.269531 386.605469 L 557.140625 386.605469 L 550.898438 356.5625 L 509.863281 418.757812 L 489.332031 418.757812 L 544.699219 335.652344 L 564.984375 335.652344 L 582.996094 418.757812 L 564.078125 418.757812 " fill-opacity="1" fill-rule="nonzero"/><path fill="#24486d" d="M 323.402344 418.757812 L 320.140625 403.132812 L 287.710938 403.132812 L 298.59375 386.605469 L 316.464844 386.605469 L 310.222656 356.5625 L 269.1875 418.757812 L 248.65625 418.757812 L 304.023438 335.652344 L 324.308594 335.652344 L 342.320312 418.757812 L 323.402344 418.757812 " fill-opacity="1" fill-rule="nonzero"/><g clip-path="url(#48f79c675a)"><path fill="#24486d" d="M 737.300781 418.757812 L 757.050781 352.144531 L 729.117188 352.144531 L 733.992188 335.660156 L 809.765625 335.660156 L 804.855469 352.144531 L 777.136719 352.144531 L 757.386719 418.757812 L 737.300781 418.757812 " fill-opacity="1" fill-rule="nonzero"/></g><path fill="#24486d" d="M 452.503906 420.074219 C 445.683594 420.074219 439.59375 418.644531 434.402344 415.820312 C 429.152344 412.96875 425.691406 408.878906 424.109375 403.660156 L 423.992188 403.269531 L 439.601562 395.140625 L 439.777344 395.5625 C 440.816406 398.050781 442.789062 400.261719 445.644531 402.128906 C 448.515625 404.003906 451.816406 404.960938 455.445312 404.960938 C 459.179688 404.960938 462.488281 404.109375 465.277344 402.421875 C 468.058594 400.75 469.703125 398.601562 470.277344 395.855469 C 470.785156 393.464844 470.03125 391.628906 467.976562 390.230469 C 465.796875 388.75 462.113281 387.027344 457.039062 385.121094 C 451.761719 383.105469 447.417969 381.179688 444.128906 379.378906 C 440.78125 377.550781 438.097656 374.863281 436.148438 371.40625 C 434.179688 367.914062 433.757812 363.417969 434.894531 358.03125 C 435.910156 353.191406 438.253906 348.90625 441.863281 345.300781 C 445.441406 341.722656 449.851562 338.96875 454.980469 337.113281 C 460.09375 335.273438 465.492188 334.335938 471.035156 334.335938 C 478.300781 334.335938 484.4375 335.679688 489.261719 338.335938 C 494.132812 341.027344 497.359375 345.03125 498.855469 350.25 L 498.96875 350.644531 L 483.355469 358.769531 L 483.183594 358.339844 C 482.21875 355.9375 480.398438 353.835938 477.789062 352.089844 C 475.164062 350.339844 472.039062 349.449219 468.492188 349.449219 C 464.949219 349.449219 461.832031 350.28125 459.226562 351.914062 C 456.632812 353.546875 455.105469 355.597656 454.558594 358.179688 C 454.183594 359.957031 454.511719 361.457031 455.570312 362.761719 C 456.664062 364.125 458.175781 365.265625 460.046875 366.15625 C 461.957031 367.074219 464.785156 368.253906 468.453125 369.671875 C 473.585938 371.507812 477.8125 373.335938 481.023438 375.089844 C 484.285156 376.878906 486.90625 379.457031 488.796875 382.746094 C 490.710938 386.078125 491.152344 390.277344 490.101562 395.246094 C 488.492188 402.875 484.214844 408.992188 477.378906 413.429688 C 470.585938 417.839844 462.21875 420.074219 452.503906 420.074219 " fill-opacity="1" fill-rule="nonzero"/><path fill="#24486d" d="M 377.707031 420.074219 C 370.886719 420.074219 364.792969 418.644531 359.601562 415.820312 C 354.351562 412.96875 350.886719 408.878906 349.3125 403.660156 L 349.1875 403.269531 L 364.800781 395.140625 L 364.976562 395.5625 C 366.015625 398.050781 367.992188 400.261719 370.839844 402.128906 C 373.714844 404.003906 377.007812 404.960938 380.644531 404.960938 C 384.378906 404.960938 387.6875 404.109375 390.476562 402.421875 C 393.261719 400.75 394.894531 398.601562 395.480469 395.855469 C 395.976562 393.464844 395.230469 391.628906 393.175781 390.230469 C 390.996094 388.75 387.316406 387.035156 382.242188 385.121094 C 376.957031 383.105469 372.613281 381.171875 369.332031 379.378906 C 365.984375 377.550781 363.296875 374.867188 361.347656 371.40625 C 359.378906 367.914062 358.953125 363.417969 360.09375 358.03125 C 361.113281 353.1875 363.457031 348.90625 367.066406 345.300781 C 370.644531 341.722656 375.054688 338.96875 380.179688 337.113281 C 385.292969 335.273438 390.695312 334.335938 396.226562 334.335938 C 403.5 334.335938 409.632812 335.679688 414.457031 338.335938 C 419.332031 341.019531 422.5625 345.03125 424.058594 350.25 L 424.167969 350.644531 L 408.554688 358.769531 L 408.382812 358.339844 C 407.417969 355.9375 405.601562 353.835938 402.988281 352.089844 C 400.363281 350.339844 397.238281 349.449219 393.695312 349.449219 C 390.148438 349.449219 387.027344 350.28125 384.425781 351.914062 C 381.828125 353.546875 380.304688 355.597656 379.757812 358.179688 C 379.386719 359.957031 379.714844 361.457031 380.769531 362.761719 C 381.867188 364.125 383.375 365.265625 385.246094 366.15625 C 387.15625 367.074219 389.984375 368.253906 393.65625 369.671875 C 398.789062 371.507812 403.007812 373.335938 406.222656 375.089844 C 409.488281 376.878906 412.105469 379.457031 413.996094 382.746094 C 415.914062 386.078125 416.351562 390.277344 415.300781 395.246094 C 413.695312 402.875 409.414062 408.992188 402.582031 413.429688 C 395.789062 417.839844 387.417969 420.074219 377.707031 420.074219 " fill-opacity="1" fill-rule="nonzero"/><path fill="#24486d" d="M 237.675781 377.203125 C 234.445312 389.609375 223.355469 402.132812 208.296875 402.132812 L 193.042969 402.132812 L 207.882812 352.203125 L 221.617188 352.203125 C 236.941406 352.203125 242.152344 359.996094 237.675781 377.203125 M 227.628906 335.640625 L 192.722656 335.640625 L 168.015625 418.769531 C 168.015625 418.769531 206.277344 418.769531 206.277344 418.769531 C 244.542969 418.769531 254.28125 388.96875 257.152344 377.207031 C 260.925781 361.734375 257.425781 351.738281 252.320312 345.539062 C 247.410156 339.578125 240.707031 335.640625 227.628906 335.640625 " fill-opacity="1" fill-rule="nonzero"/><path fill="#24486d" d="M 711.792969 335.652344 L 691.761719 335.652344 L 667.011719 418.761719 L 720.828125 418.761719 L 725.710938 402.238281 L 692.039062 402.238281 L 711.792969 335.652344 " fill-opacity="1" fill-rule="nonzero"/><path fill="#24486d" d="M 642.113281 386.707031 C 640.671875 392.132812 638.5625 395.96875 635.472656 398.773438 C 632.210938 401.742188 627.839844 403.242188 622.46875 403.242188 C 617.296875 403.242188 613.839844 401.808594 612.183594 398.980469 C 610.511719 396.117188 610.289062 392.152344 611.523438 387.175781 L 626.992188 335.621094 L 606.914062 335.621094 L 591.628906 386.457031 C 588.707031 397.449219 589.863281 405.824219 595.039062 411.363281 C 600.152344 416.824219 608.082031 419.597656 618.605469 419.597656 C 628.960938 419.597656 638.242188 416.867188 646.179688 411.480469 C 653.570312 406.480469 658.636719 398.675781 662.121094 386.929688 L 677.382812 335.621094 L 657.316406 335.621094 L 642.113281 386.707031 " fill-opacity="1" fill-rule="nonzero"/><g clip-path="url(#17edf8ba28)"><path fill="#24486d" d="M 139.195312 292.308594 C 73.25 400.273438 0.328125 456.183594 0.328125 456.183594 C 20.253906 469.351562 27.960938 486.023438 27.960938 486.023438 L 37.648438 478.460938 C 35.292969 474.042969 28.980469 464.238281 18.898438 456.175781 C 38.515625 438.742188 80.738281 397.71875 123.941406 335.648438 C 119.867188 370.328125 118.371094 417.046875 125.453125 454.085938 C 108.820312 460.398438 65.996094 483.488281 50.476562 516.613281 L 65.28125 516.613281 C 89.324219 474.679688 138.121094 461.589844 138.121094 461.589844 C 123.160156 374.390625 139.195312 292.308594 139.195312 292.308594 " fill-opacity="1" fill-rule="nonzero"/></g><path fill="#24486d" d="M 85.078125 417.949219 C 87.203125 415.933594 93.035156 415.160156 96.039062 417.964844 C 99.394531 421.089844 98.554688 424.6875 96.261719 427.289062 C 92.929688 431.085938 80.515625 439.90625 77.261719 441.914062 L 75.074219 441.914062 C 74.28125 440.863281 69.589844 433.472656 68.625 430.003906 C 67.59375 426.320312 67.777344 421.679688 71.878906 418.355469 C 76.015625 414.980469 80.6875 415.144531 85.078125 417.949219 " fill-opacity="1" fill-rule="evenodd"/><path fill="#24486d" d="M 105.4375 446.921875 C 108.964844 445.316406 111.902344 440.976562 110.335938 436.710938 C 108.820312 432.621094 104.105469 432.558594 100.851562 433.746094 C 94.824219 435.9375 82.296875 443.875 80.1875 445.425781 L 79.414062 447.476562 C 80.832031 449.574219 85.355469 454.976562 88.386719 457.316406 C 91.425781 459.65625 95.863281 461.039062 100.351562 458.527344 C 104.992188 455.941406 106.480469 451.082031 105.4375 446.921875 " fill-opacity="1" fill-rule="evenodd"/><path fill="#24486d" d="M 66.003906 474.640625 C 63.863281 476.640625 58.011719 477.414062 54.984375 474.625 C 51.609375 471.511719 52.457031 467.941406 54.761719 465.359375 C 58.109375 461.582031 70.585938 452.820312 73.859375 450.828125 L 76.058594 450.828125 C 76.855469 451.871094 81.578125 459.21875 82.550781 462.660156 C 83.582031 466.324219 83.40625 470.929688 79.277344 474.234375 C 75.113281 477.589844 70.421875 477.425781 66.003906 474.640625 " fill-opacity="1" fill-rule="evenodd"/><path fill="#24486d" d="M 45.742188 445.648438 C 42.21875 447.253906 39.269531 451.59375 40.847656 455.863281 C 42.363281 459.957031 47.074219 460.011719 50.335938 458.824219 C 56.355469 456.636719 68.878906 448.699219 70.992188 447.144531 L 71.765625 445.09375 C 70.347656 442.996094 65.828125 437.585938 62.792969 435.253906 C 59.753906 432.914062 55.320312 431.539062 50.835938 434.042969 C 46.1875 436.632812 44.699219 441.488281 45.742188 445.648438 " fill-opacity="1" fill-rule="evenodd"/></svg>