<svg xmlns="http://www.w3.org/2000/svg" xmlns:xlink="http://www.w3.org/1999/xlink" width="1080" zoomAndPan="magnify" viewBox="0 0 810 809.999993" height="1080" preserveAspectRatio="xMidYMid meet" version="1.0"><rect x="-81" width="972" fill="#ffffff" y="-80.999999" height="971.999992" fill-opacity="1"/><rect x="-81" width="972" fill="#ffffff" y="-80.999999" height="971.999992" fill-opacity="1"/><path fill="#95bb33" d="M 171.109375 254.207031 C 88.125 254.207031 20.796875 321.535156 20.796875 404.519531 C 20.796875 487.5 88.125 554.832031 171.109375 554.832031 C 254.089844 554.832031 321.421875 487.5 321.421875 404.519531 C 321.421875 321.535156 254.089844 254.207031 171.109375 254.207031 M 171.109375 529.601562 C 102.023438 529.601562 45.890625 473.601562 45.890625 404.382812 C 45.890625 335.164062 101.890625 279.167969 171.109375 279.167969 C 240.191406 279.167969 296.324219 335.164062 296.324219 404.382812 C 296.324219 473.601562 240.328125 529.601562 171.109375 529.601562 Z M 171.109375 529.601562 " fill-opacity="1" fill-rule="nonzero"/><path fill="#95bb33" d="M 231.558594 442.433594 C 222.652344 442.433594 204.976562 460.109375 171.378906 460.109375 C 141.421875 460.109375 132.921875 442.03125 132.921875 442.03125 C 132.921875 442.03125 161.527344 424.082031 175.964844 410.320312 C 190.402344 396.558594 208.078125 373.351562 208.078125 351.761719 C 208.078125 330.171875 191.617188 319.378906 177.71875 319.378906 C 163.957031 319.378906 145.066406 323.828125 123.476562 347.039062 C 102.023438 370.246094 98.109375 396.828125 98.109375 412.074219 C 98.109375 427.320312 101.617188 439.734375 101.617188 439.734375 C 101.617188 439.734375 79.761719 452.824219 50.886719 462.808594 C 22.007812 472.660156 0.824219 473.601562 0.824219 481.429688 C 0.824219 484.800781 2.578125 486.828125 6.761719 486.828125 C 15.53125 486.828125 49.402344 479.675781 66.535156 473.738281 C 83.671875 467.800781 108.636719 455.65625 108.636719 455.65625 C 119.566406 471.714844 140.75 487.90625 177.855469 487.90625 C 212.398438 487.90625 243.835938 465.640625 243.835938 455.117188 C 244.105469 449.585938 239.921875 442.433594 231.558594 442.433594 M 137.78125 371.59375 C 154.917969 345.417969 175.019531 339.75 182.171875 345.6875 C 189.1875 351.355469 179.070312 374.023438 162.203125 391.96875 C 145.335938 409.914062 125.773438 424.21875 125.773438 424.21875 C 125.773438 424.21875 120.507812 397.90625 137.78125 371.59375 Z M 137.78125 371.59375 " fill-opacity="1" fill-rule="nonzero"/><path fill="#231f20" d="M 661.3125 341.234375 L 678.988281 341.234375 L 678.988281 471.039062 L 661.3125 471.039062 Z M 661.3125 341.234375 " fill-opacity="1" fill-rule="nonzero"/><path fill="#231f20" d="M 661.3125 302.375 L 678.988281 302.375 L 678.988281 325.042969 L 661.3125 325.042969 Z M 661.3125 302.375 " fill-opacity="1" fill-rule="nonzero"/><path fill="#231f20" d="M 430.445312 337.054688 C 388.347656 337.054688 365.003906 371.324219 365.003906 404.652344 C 365.003906 437.980469 382.679688 474.953125 433.820312 474.953125 C 484.824219 474.953125 491.433594 437.171875 492.109375 433.257812 L 477.132812 433.257812 C 477.132812 433.257812 472.949219 460.917969 433.28125 460.917969 C 393.609375 460.917969 382.816406 427.863281 381.0625 412.34375 L 494.539062 412.34375 C 494.402344 412.074219 498.585938 337.054688 430.445312 337.054688 M 381.601562 397.636719 C 381.601562 397.636719 386.054688 351.355469 432.335938 351.355469 C 474.433594 351.355469 477.132812 397.636719 477.132812 397.636719 Z M 381.601562 397.636719 " fill-opacity="1" fill-rule="nonzero"/><path fill="#231f20" d="M 620.832031 341.234375 L 620.5625 361.609375 C 620.5625 361.609375 607.339844 338.132812 572.527344 338.132812 C 537.714844 338.132812 510.324219 362.148438 510.324219 403.84375 C 510.324219 445.539062 536.769531 469.015625 573.335938 469.015625 C 609.902344 469.015625 620.160156 451.609375 620.160156 451.609375 C 620.160156 451.609375 620.699219 457.007812 620.699219 466.046875 C 620.699219 475.085938 624.070312 515.835938 574.417969 515.835938 C 531.777344 515.835938 530.292969 484.261719 530.292969 484.261719 L 514.914062 484.261719 C 514.914062 484.261719 514.914062 531.082031 575.226562 531.082031 C 635.539062 531.082031 635.8125 484.53125 635.8125 455.117188 C 635.8125 425.703125 635.8125 341.101562 635.8125 341.101562 L 620.832031 341.101562 M 572.796875 454.984375 C 536.769531 454.984375 525.707031 425.566406 525.707031 403.304688 C 525.707031 381.039062 538.929688 352.570312 572.257812 352.570312 C 605.585938 352.570312 620.292969 379.015625 620.292969 405.464844 C 620.160156 427.996094 608.824219 454.984375 572.796875 454.984375 Z M 572.796875 454.984375 " fill-opacity="1" fill-rule="nonzero"/><path fill="#231f20" d="M 806.09375 379.285156 L 788.6875 379.285156 C 788.6875 379.285156 791.117188 351.355469 751.714844 351.355469 C 730.128906 351.355469 721.355469 362.824219 721.355469 372.675781 C 721.355469 382.523438 730.398438 393.722656 766.019531 399.121094 C 801.777344 404.519531 810.410156 420.710938 810.410156 436.632812 C 810.410156 452.554688 798.941406 474.414062 755.222656 474.414062 C 711.371094 474.414062 701.253906 449.449219 699.632812 429.074219 L 716.769531 429.074219 C 716.769531 429.074219 716.769531 461.730469 755.765625 461.730469 C 794.757812 461.730469 793.546875 437.441406 793.546875 437.441406 C 793.546875 437.441406 797.996094 418.820312 754.550781 411.671875 C 710.96875 404.519531 704.492188 390.082031 704.492188 374.429688 C 704.492188 358.777344 718.253906 337.457031 754.953125 337.457031 C 791.65625 337.59375 806.09375 360.667969 806.09375 379.285156 " fill-opacity="1" fill-rule="nonzero"/></svg>