<svg xmlns="http://www.w3.org/2000/svg" xmlns:xlink="http://www.w3.org/1999/xlink" width="1080" zoomAndPan="magnify" viewBox="0 0 810 809.999993" height="1080" preserveAspectRatio="xMidYMid meet" version="1.0"><defs><clipPath id="a044780a06"><path d="M 4.445312 592 L 119 592 L 119 729.992188 L 4.445312 729.992188 Z M 4.445312 592 " clip-rule="nonzero"/></clipPath><clipPath id="da480bee14"><path d="M 4.445312 80.257812 L 805.757812 80.257812 L 805.757812 554 L 4.445312 554 Z M 4.445312 80.257812 " clip-rule="nonzero"/></clipPath></defs><rect x="-81" width="972" fill="#ffffff" y="-80.999999" height="971.999992" fill-opacity="1"/><rect x="-81" width="972" fill="#ffffff" y="-80.999999" height="971.999992" fill-opacity="1"/><path fill="#c51f1b" d="M 156.660156 656.183594 L 156.730469 601.039062 C 191.289062 601.039062 203.996094 599.320312 210.007812 641.6875 L 213.65625 641.6875 L 213.65625 594.539062 L 119.546875 594.558594 L 119.546875 601.039062 L 135.828125 601.039062 L 135.828125 722.378906 L 117.875 722.378906 L 117.875 728.789062 L 214.863281 728.789062 L 214.863281 679.199219 L 210.007812 679.199219 C 205.179688 716.6875 195.65625 722.402344 169.015625 722.402344 L 156.660156 722.402344 L 156.660156 663.453125 L 163.816406 663.453125 C 175.777344 663.753906 182.582031 670.722656 185.019531 691.300781 L 189.410156 691.300781 L 189.386719 630.351562 C 189.316406 630.46875 185.042969 630.351562 185.042969 630.351562 C 185.042969 630.65625 184.207031 656.554688 163.304688 656.183594 Z M 156.660156 656.183594 " fill-opacity="1" fill-rule="nonzero"/><g clip-path="url(#a044780a06)"><path fill="#c51f1b" d="M 118.199219 658.613281 L 65.109375 658.613281 L 65.109375 664.628906 L 83.292969 664.628906 L 83.292969 708.269531 C 80.226562 719.328125 63.902344 723.972656 59.023438 723.972656 C 25.113281 723.972656 27.554688 674.359375 27.554688 661.074219 C 27.554688 648.902344 26.320312 598.128906 59.023438 598.128906 C 82.0625 598.128906 94.1875 621.078125 99.039062 641.679688 L 102.734375 641.679688 C 102.734375 633.199219 102.871094 592.785156 102.78125 592.878906 C 102.871094 592.578125 86.984375 604.304688 86.941406 604.121094 C 87.289062 604.027344 79.671875 593.25 59.023438 593.25 C 19.007812 593.25 4.328125 633.199219 4.445312 661.074219 C 4.628906 686.554688 16.382812 730.011719 59.023438 730.011719 C 72.449219 730.011719 81.875 723.183594 86.941406 715.425781 C 86.984375 715.261719 103.847656 728.734375 103.894531 728.804688 L 103.894531 664.628906 L 118.199219 664.628906 Z M 118.199219 658.613281 " fill-opacity="1" fill-rule="nonzero"/></g><path fill="#c51f1b" d="M 582.054688 680.359375 L 601.421875 622.335938 L 622.046875 680.359375 Z M 506.851562 657.179688 L 485.089844 657.179688 L 485.089844 600.96875 L 512.9375 600.96875 C 529.285156 603.453125 529.960938 622.335938 529.960938 628.355469 C 529.960938 642.894531 523.875 657.179688 506.851562 657.179688 M 738.613281 679.199219 C 733.761719 716.6875 724.261719 722.308594 697.621094 722.308594 L 695.996094 722.308594 L 695.996094 600.992188 L 712.949219 600.992188 L 712.949219 594.464844 L 657.1875 594.464844 L 657.1875 600.992188 L 674.164062 600.992188 L 674.164062 722.308594 L 660.695312 722.308594 L 611.15625 590.839844 L 603.839844 590.839844 C 604.023438 590.75 562.683594 710.136719 562.589844 710.484375 C 562.683594 710.136719 559.480469 720.726562 552.675781 722.027344 C 546.425781 722.332031 546.890625 719.054688 546.890625 717.917969 L 546.890625 694.921875 C 546.890625 688.882812 546.425781 675.179688 540.15625 668.886719 C 533.117188 661.824219 521.109375 661.289062 521.390625 661.011719 C 521.390625 661.011719 551.859375 654.714844 551.859375 625.773438 C 551.859375 605.476562 537.742188 595.394531 514.144531 594.488281 L 447.207031 594.488281 L 447.207031 601.015625 L 464.300781 601.015625 L 464.300781 722.332031 L 447.207031 722.332031 L 447.207031 728.789062 L 502.113281 728.789062 L 502.113281 722.332031 L 484.996094 722.332031 L 484.996094 664.007812 L 507.828125 664.007812 C 547.449219 667.28125 501.019531 728.835938 552.953125 728.789062 L 585.699219 728.789062 L 585.699219 722.308594 C 583.867188 722.308594 571.882812 722.65625 571.136719 714.316406 C 570.648438 708.253906 579.035156 686.5625 579.035156 686.5625 L 623.605469 686.5625 C 623.582031 686.46875 637.46875 722.332031 637.585938 722.332031 L 622.046875 722.332031 L 622.046875 728.789062 L 743.46875 728.789062 L 743.46875 679.199219 Z M 738.613281 679.199219 " fill-opacity="1" fill-rule="nonzero"/><path fill="#c51f1b" d="M 381.15625 600.972656 C 415.714844 600.972656 428.488281 599.320312 434.503906 641.710938 L 438.152344 641.710938 L 438.152344 594.515625 L 300.9375 594.515625 L 300.9375 600.972656 L 304.511719 600.972656 C 309.367188 600.972656 320.839844 601.320312 321.515625 611.445312 L 321.515625 688.839844 L 257.320312 594.515625 L 222.367188 594.515625 L 222.367188 600.972656 L 228.171875 600.972656 C 235.070312 600.972656 244.730469 601.296875 245.171875 611.445312 L 245.171875 710.625 C 245.171875 720.3125 230.679688 723.957031 224.617188 723.957031 L 224.546875 723.957031 L 224.546875 728.765625 L 271.859375 728.765625 L 271.859375 723.957031 C 265.796875 723.957031 251.210938 720.3125 251.210938 710.625 L 251.375 623.316406 C 276.78125 659.644531 324.742188 728.859375 325.183594 728.765625 L 327.597656 728.765625 L 327.597656 611.445312 C 328.25 601.320312 339.746094 600.972656 344.578125 600.972656 L 360.324219 600.972656 L 360.324219 722.402344 L 342.371094 722.402344 L 342.371094 728.765625 L 439.359375 728.765625 L 439.359375 679.199219 L 434.503906 679.199219 C 429.671875 716.6875 420.175781 722.402344 393.511719 722.402344 L 381.15625 722.402344 L 381.15625 663.453125 L 388.308594 663.453125 C 400.269531 663.730469 407.074219 670.722656 409.515625 691.300781 L 413.925781 691.300781 L 413.902344 630.351562 C 413.8125 630.46875 409.558594 630.351562 409.558594 630.351562 C 409.558594 630.65625 408.699219 656.578125 387.796875 656.183594 L 381.15625 656.183594 Z M 381.15625 600.972656 " fill-opacity="1" fill-rule="nonzero"/><path fill="#c51f1b" d="M 804.457031 600.992188 L 804.457031 594.441406 L 749.714844 594.441406 L 749.714844 600.992188 L 766.902344 600.992188 L 766.972656 722.261719 L 749.714844 722.261719 L 749.714844 728.789062 L 804.457031 728.789062 L 804.457031 722.261719 L 787.273438 722.261719 L 787.273438 600.992188 Z M 804.457031 600.992188 " fill-opacity="1" fill-rule="nonzero"/><g clip-path="url(#da480bee14)"><path fill="#c51f1b" d="M 609.367188 482.957031 C 610.992188 478.777344 614.152344 476.128906 618.515625 475.292969 L 662.832031 465.398438 L 658.835938 425.890625 L 658.695312 425.03125 C 657.605469 419.851562 654.308594 404.101562 633.730469 402.40625 C 554.554688 396.019531 536.207031 384.265625 516.953125 371.839844 C 516.90625 371.792969 516.882812 371.722656 516.882812 371.675781 L 516.769531 371.722656 L 515.511719 370.910156 C 494.960938 357.601562 474.519531 357.484375 472.523438 357.554688 C 450.089844 357.578125 421.730469 366.449219 419.40625 367.195312 C 412.554688 369.191406 406.144531 371.234375 399.96875 373.234375 C 375.164062 381.199219 353.75 388.121094 317.773438 387.03125 L 311.203125 386.84375 L 309.53125 393.183594 C 308.230469 398.085938 298.148438 437.851562 307.855469 463.402344 C 299.148438 470.277344 299.171875 478.195312 299.21875 479.289062 C 299.566406 488.023438 297.5 490.160156 296.824219 490.878906 C 292.667969 495.175781 278.871094 495.734375 267.261719 495.734375 L 262.894531 495.734375 L 260.386719 499.171875 C 253.230469 509.019531 237.765625 511.34375 227.871094 508.808594 C 223.503906 495.546875 223.386719 485.421875 227.589844 479.382812 C 232.539062 472.25 243.058594 471.484375 247.355469 471.484375 L 249.839844 471.484375 C 260.363281 471.484375 268.910156 462.867188 268.910156 452.296875 L 268.910156 381.085938 C 272.113281 376.160156 274.691406 370.445312 276.921875 364.035156 C 294.292969 361.25 307.601562 346.523438 307.601562 328.777344 C 307.601562 321.996094 305.605469 315.398438 301.980469 309.800781 C 318.054688 302.066406 331.78125 286.269531 331.78125 265.550781 C 331.78125 244.855469 321.351562 235.355469 311.480469 229.132812 C 314.265625 221.1875 318.867188 207.207031 321.976562 193.128906 L 335.890625 143.332031 C 342.113281 123.820312 358.347656 111.207031 377.300781 111.207031 L 622.140625 111.207031 C 611.78125 125.792969 597.058594 132.691406 576.664062 132.691406 L 428.511719 132.691406 L 420.753906 149.277344 L 553.554688 149.277344 C 543.105469 165.859375 527.847656 173.6875 506.152344 173.6875 L 409.863281 173.6875 L 402.152344 190.25 L 488.039062 190.25 C 477.632812 206.230469 462.535156 213.777344 441.238281 213.777344 L 388.75 213.777344 L 381.015625 230.363281 L 436.039062 230.363281 C 436.523438 231.035156 437.917969 233.546875 437.917969 240.28125 C 437.917969 250.917969 428.953125 259.582031 417.945312 259.582031 C 414.160156 259.582031 410.953125 258.722656 405.285156 256.402344 C 402.847656 255.378906 400.410156 254.355469 397.972656 253.335938 L 385.21875 264.761719 C 387.613281 265.785156 389.980469 266.804688 392.398438 267.828125 C 403.453125 272.613281 409.582031 275.121094 417.945312 275.121094 C 428.070312 275.121094 437.222656 270.917969 443.679688 264.226562 C 453.132812 264.832031 468.320312 266.085938 483.066406 267.292969 C 500.648438 268.757812 517.277344 270.105469 525.871094 270.570312 C 530.167969 270.800781 534.210938 270.988281 538.066406 271.171875 C 545.359375 271.542969 552.046875 271.871094 558.710938 272.359375 C 592.132812 326.640625 609.273438 333.769531 673.980469 341.503906 C 678.648438 349.867188 682.875 358.691406 686.867188 367.613281 L 686.867188 473.25 L 686.890625 473.875 C 687.242188 478.730469 687.242188 480.378906 686.589844 481.261719 C 684.335938 484.210938 674.351562 488.371094 670.867188 489.789062 L 616.3125 510.367188 C 609.089844 500.566406 606.488281 490.34375 609.367188 482.957031 M 597.566406 511.667969 L 489.710938 511.667969 L 535.929688 462.867188 C 545.265625 453.226562 548.238281 441.636719 544.3125 430.234375 C 542.058594 423.660156 535.976562 411.09375 529.613281 398.179688 C 547.960938 406.703125 575.78125 414.34375 632.359375 418.921875 C 639.1875 419.480469 641 421.800781 642.347656 428.003906 L 644.832031 452.4375 L 615.265625 459.035156 C 605.324219 460.984375 597.546875 467.511719 593.898438 476.964844 C 589.835938 487.371094 591.203125 499.636719 597.566406 511.667969 M 403.035156 511.667969 C 400.039062 499.914062 401.269531 490.554688 406.609375 484.421875 C 411.71875 478.570312 419.59375 476.78125 425.144531 477.59375 L 456.683594 483.445312 L 457.472656 483.5625 L 461.863281 483.5625 L 484.136719 459.570312 L 484.34375 459.335938 C 488.15625 454.898438 499.71875 441.476562 487.898438 424.355469 L 458.125 375.277344 C 463.070312 374.582031 468.019531 374.140625 472.570312 374.140625 L 472.78125 374.117188 C 472.941406 374.140625 487.875 373.929688 503.878906 383.222656 C 506.015625 387.867188 509.035156 394 512.402344 400.78125 C 518.648438 413.460938 526.429688 429.234375 528.589844 435.621094 C 529.285156 437.617188 531.375 443.703125 523.945312 451.414062 L 466.855469 511.667969 Z M 394.09375 473.527344 C 388.101562 480.402344 382.246094 492.410156 386.035156 511.667969 L 284.492188 511.667969 C 295.410156 510.597656 303.328125 508.019531 308.785156 502.328125 C 315.453125 495.429688 316.03125 485.976562 315.824219 479.21875 C 316.03125 478.636719 317.148438 476.339844 322.117188 474.085938 L 330.875 470.089844 L 325.601562 462.03125 C 316.9375 448.699219 320.722656 419.546875 324.09375 403.730469 L 324.859375 403.730469 C 359.300781 403.730469 381.574219 396.578125 405.054688 389.003906 C 411.1875 387.03125 417.503906 385.007812 424.167969 383.058594 L 424.378906 382.988281 C 424.515625 382.941406 431.390625 380.78125 440.730469 378.597656 L 473.847656 433.160156 L 474.125 433.601562 C 477.425781 438.316406 477.84375 441.429688 471.828125 448.417969 L 455.246094 466.328125 L 428.046875 461.265625 L 427.792969 461.242188 C 415.53125 459.335938 402.289062 464.167969 394.09375 473.527344 M 213.933594 469.929688 C 206.875 480.101562 206.039062 494.109375 211.332031 511.667969 L 194.171875 511.667969 L 194.171875 377.691406 C 200.324219 376.765625 206.945312 375 213.097656 372.1875 C 212.75 378.019531 211.960938 382.664062 210.867188 388.820312 C 210.589844 390.257812 210.335938 391.769531 210.078125 393.347656 L 208.429688 403.011719 L 218.253906 403.011719 C 232.933594 403.011719 243.894531 400.710938 252.304688 396.367188 L 252.304688 452.296875 C 252.304688 453.738281 251.1875 454.898438 249.839844 454.898438 L 247.355469 454.898438 C 232.769531 454.898438 220.601562 460.382812 213.933594 469.929688 M 177.5625 497.128906 L 99.386719 476.78125 L 21.1875 497.128906 L 21.1875 357.277344 L 99.386719 336.976562 L 177.5625 357.277344 Z M 31.222656 511.667969 L 99.386719 493.921875 L 167.53125 511.667969 Z M 58.488281 305.734375 C 61.761719 300.765625 69.21875 296.445312 78.578125 298.070312 L 85.640625 299.300781 L 87.867188 292.472656 C 88.472656 290.660156 89.261719 289.289062 90.375 288.269531 C 92.375 286.386719 95.347656 285.480469 99.109375 285.597656 C 109.121094 285.921875 121.636719 292.890625 131.8125 303.785156 C 135.503906 307.757812 138.777344 312.332031 141.679688 317 C 142.261719 317.976562 142.914062 319.019531 143.492188 319.949219 C 144.304688 321.25 145.003906 322.320312 145.140625 322.550781 C 145.511719 323.203125 150.53125 330.75 150.183594 331.238281 C 153.617188 326.40625 157.054688 321.574219 160.492188 316.769531 C 160.585938 316.628906 160.425781 316.1875 160.144531 315.558594 C 159.378906 313.910156 157.542969 311.03125 156.453125 309.335938 C 156.195312 308.917969 155.941406 308.523438 155.6875 308.105469 C 155.664062 308.058594 155.617188 308.035156 155.617188 307.988281 C 155.5 307.824219 155.035156 307.105469 154.457031 306.175781 C 153.292969 304.363281 151.667969 301.761719 150.949219 300.347656 L 172.570312 265.761719 C 177.980469 266.898438 182.558594 267.0625 184.765625 267.0625 L 185.296875 267.0625 C 215.792969 267.0625 247.355469 249.457031 247.355469 219.980469 L 247.355469 219.285156 C 246.984375 211.246094 245.472656 203.605469 244.265625 197.449219 C 243.476562 193.410156 242.734375 189.574219 242.734375 187.648438 C 242.734375 184.441406 247.261719 180.867188 253.765625 180.867188 L 263.636719 180.867188 L 259.175781 155.292969 C 273.042969 145.074219 281.566406 128.417969 281.148438 112.507812 C 296.105469 124.003906 306.648438 143.886719 308.601562 165.070312 C 309.15625 171.203125 307.949219 179.796875 305.953125 188.855469 L 304.882812 192.617188 L 305.070312 192.664062 C 301.539062 207.4375 296.316406 222.628906 293.550781 229.828125 L 290.996094 236.472656 L 297.195312 239.980469 C 308.34375 246.273438 315.195312 250.894531 315.195312 265.550781 C 315.195312 282.367188 300.054688 295.261719 285.421875 298 L 265.425781 301.738281 L 282.332031 313.027344 C 287.769531 316.628906 290.996094 322.550781 290.996094 328.777344 C 290.996094 339.34375 282.03125 347.9375 270.976562 347.9375 L 264.613281 347.9375 L 262.800781 353.792969 C 256.597656 374.023438 249.863281 383.894531 228.195312 386.007812 C 229.171875 379.875 229.890625 373.953125 229.890625 365.589844 C 229.890625 363.617188 229.726562 358.136719 229.636719 356.371094 L 228.660156 337.511719 L 215.421875 350.980469 C 210.914062 355.535156 202.949219 359.15625 194.171875 360.898438 L 194.171875 344.453125 L 99.386719 319.855469 L 65.664062 328.589844 C 58.140625 321.066406 56.609375 308.636719 58.488281 305.734375 M 160.867188 244.855469 C 161.097656 243.71875 162.027344 242.8125 163.023438 242.835938 L 177.285156 243.300781 C 194.703125 242.671875 212.425781 235.496094 214.421875 217.378906 C 214.421875 205.113281 205.714844 193.175781 193.402344 193.175781 C 186.832031 193.175781 179.445312 197.707031 171.128906 203.210938 C 165.71875 206.8125 161.445312 209.644531 158.195312 209.644531 C 156.011719 209.644531 154.222656 208.179688 154.222656 206.972656 C 154.222656 206.789062 154.269531 206.578125 154.339844 206.371094 L 163.464844 194.152344 L 155.59375 188.855469 C 153.898438 187.765625 151.296875 185.695312 150.996094 184.140625 C 150.855469 183.421875 151.898438 182.097656 152.25 181.703125 C 155.5 177.894531 159.261719 173.246094 163.023438 167.535156 C 165.371094 164.28125 166.71875 162.46875 170.621094 162.46875 C 174.476562 162.46875 177.609375 165.582031 177.609375 169.367188 C 177.609375 171.878906 180.398438 173.875 183.8125 173.875 C 187.226562 173.875 188.757812 171.4375 190.894531 169.367188 C 190.894531 169.367188 199 161.914062 194.703125 158.382812 C 189.78125 154.363281 170.085938 162.5625 175.566406 144.492188 L 176.960938 141.914062 C 179.050781 139.125 188.480469 132.160156 207.917969 132.160156 C 211.613281 132.160156 215.515625 132.414062 219.484375 132.902344 L 222.390625 133.273438 L 263.707031 107.792969 C 264.078125 108.675781 264.195312 109.28125 264.195312 109.28125 L 264.242188 109.535156 C 266.402344 122.054688 258.503906 136.921875 245.894531 144.167969 L 240.875 147.046875 L 244.128906 165.675781 C 233.511719 168.925781 226.105469 177.429688 226.105469 187.648438 C 226.105469 191.179688 226.941406 195.359375 227.960938 200.632812 C 229.125 206.507812 230.425781 213.128906 230.75 219.886719 C 230.75 239.257812 203.996094 252.105469 181.375 251.359375 L 180.792969 251.335938 C 179.839844 251.3125 165.441406 250.175781 161.910156 247.386719 C 161.214844 246.878906 160.679688 245.714844 160.867188 244.855469 M 195.074219 115.457031 C 197.699219 112.136719 201.949219 108.445312 207.015625 105.097656 C 210.960938 102.472656 216.140625 100.152344 221.179688 98.6875 C 229.195312 96.390625 238.390625 96.226562 247.914062 98.0625 L 218.601562 116.132812 C 214.957031 115.761719 211.378906 115.550781 207.917969 115.550781 C 202.972656 115.550781 198.398438 115.96875 194.195312 116.644531 C 194.519531 116.246094 194.796875 115.828125 195.074219 115.457031 M 641.535156 111.207031 L 752.015625 111.207031 C 741.65625 125.792969 726.933594 132.691406 706.519531 132.691406 L 624.972656 132.691406 C 631.476562 126.980469 637.003906 119.824219 641.535156 111.207031 M 635.984375 173.6875 L 554.4375 173.6875 C 561.664062 167.371094 567.65625 159.195312 572.4375 149.277344 L 683.410156 149.277344 C 672.957031 165.859375 657.699219 173.6875 635.984375 173.6875 M 571.089844 213.777344 L 489.546875 213.777344 C 496.515625 207.625 502.367188 199.773438 507.082031 190.25 L 617.890625 190.25 C 607.484375 206.230469 592.390625 213.777344 571.089844 213.777344 M 589.835938 276.003906 C 615.660156 280.277344 636.820312 291.890625 652.703125 310.566406 C 656.117188 314.5625 659.394531 318.835938 662.621094 323.410156 C 619.167969 317.71875 604.023438 311.402344 579.730469 274.496094 C 582.960938 274.914062 586.304688 275.421875 589.835938 276.003906 M 763.257812 454.875 C 764.835938 457.453125 766.207031 459.871094 767.53125 462.195312 C 769.132812 465.050781 770.734375 467.859375 772.59375 470.742188 C 760.003906 469.972656 750.484375 463.007812 741.679688 449.835938 C 749.785156 446.980469 759.632812 449 763.257812 454.875 M 659.929688 511.667969 L 676.859375 505.257812 L 677.113281 505.164062 C 701.175781 495.199219 704.589844 488.972656 703.476562 472.972656 L 703.476562 408.304688 C 721.777344 454.785156 739.078125 487.464844 774.566406 487.464844 C 779.398438 487.464844 784.554688 486.859375 790.105469 485.605469 L 803.945312 482.472656 L 794.402344 471.972656 C 788.339844 465.257812 785.367188 460.054688 781.976562 454.039062 C 780.582031 451.578125 779.144531 449 777.378906 446.191406 C 769.085938 432.71875 749.320312 428.140625 733.34375 435.320312 C 726.074219 420.894531 718.757812 402.105469 709.976562 378.925781 L 708.074219 374.488281 C 706.539062 371.050781 705.007812 367.542969 703.476562 364.058594 L 703.476562 363.476562 L 703.21875 363.476562 C 697.761719 351.238281 691.957031 338.949219 685.011719 327.429688 C 678.695312 316.976562 672.261719 307.941406 665.363281 299.835938 C 646.851562 278.09375 622.351562 264.578125 592.550781 259.652344 C 571.949219 256.261719 557.34375 255.542969 538.878906 254.636719 C 535.046875 254.449219 531.027344 254.242188 526.777344 254.007812 C 518.417969 253.542969 501.136719 252.148438 484.414062 250.757812 C 473.152344 249.851562 461.609375 248.898438 452.503906 248.226562 C 453.132812 245.667969 453.480469 243.023438 453.480469 240.28125 C 453.480469 236.585938 453.152344 233.289062 452.503906 230.363281 L 571.089844 230.363281 C 601.65625 230.363281 623.789062 216.820312 636.933594 190.25 C 667.335938 189.972656 689.308594 176.175781 702.3125 149.277344 L 706.519531 149.277344 C 738.171875 149.277344 760.792969 134.828125 773.753906 106.351562 L 779.121094 94.625 L 377.300781 94.625 C 350.894531 94.625 328.410156 111.859375 320.027344 138.5 L 319.75 139.429688 C 312.921875 120.382812 300.425781 104.214844 284.375 94.667969 C 262.105469 81.40625 236.765625 76.972656 216.558594 82.753906 C 209.894531 84.707031 203.25 87.703125 197.863281 91.277344 C 193.21875 94.320312 186.714844 99.246094 181.976562 105.285156 C 176.867188 111.859375 171.898438 119.824219 168.25 127.28125 C 165.929688 129.207031 164.140625 131.136719 162.910156 133.019531 L 158.101562 142.054688 L 157.824219 142.5625 C 152.085938 155.570312 145.09375 164.582031 139.613281 170.925781 C 134.226562 177.242188 133.949219 183.257812 134.667969 187.183594 C 135.457031 191.457031 137.757812 194.964844 140.21875 197.589844 L 140.078125 197.84375 C 138.476562 200.609375 137.640625 203.769531 137.640625 206.972656 C 137.640625 217.566406 146.859375 225.601562 158.195312 225.601562 C 166.460938 225.601562 173.199219 221.746094 180.328125 217.03125 C 183.230469 215.101562 190.894531 210.015625 193.402344 209.738281 C 196.585938 209.738281 199.488281 212.640625 199.488281 215.800781 C 199.488281 224.488281 188.292969 229.179688 180.257812 229.734375 L 163.953125 231.5 C 152.203125 232.617188 146.628906 238.839844 146.628906 244.390625 C 146.628906 249.988281 149.300781 253.125 151.179688 255.007812 L 152.386719 256.214844 L 156.523438 259.929688 L 139.21875 287.804688 C 126.886719 276.375 112.441406 269.429688 99.644531 269.035156 C 91.375 268.757812 84.222656 271.265625 78.949219 276.238281 C 77.441406 277.675781 76.09375 279.347656 74.957031 281.136719 L 74.652344 281.136719 C 60.972656 281.136719 49.964844 288.453125 44.578125 296.699219 C 38.722656 305.6875 40.835938 321.25 48.269531 333.121094 L 4.582031 344.453125 L 4.582031 553.289062 L 805.78125 553.289062 L 805.78125 511.667969 Z M 659.929688 511.667969 " fill-opacity="1" fill-rule="nonzero"/></g><path fill="#c51f1b" d="M 160.238281 378.753906 L 107.980469 365.1875 L 107.980469 382.304688 L 160.238281 395.894531 Z M 160.238281 378.753906 " fill-opacity="1" fill-rule="nonzero"/><path fill="#c51f1b" d="M 38.515625 395.878906 L 90.773438 382.3125 L 90.773438 365.171875 L 38.515625 378.734375 Z M 38.515625 395.878906 " fill-opacity="1" fill-rule="nonzero"/><path fill="#c51f1b" d="M 38.515625 430.292969 L 90.773438 416.75 L 90.773438 399.585938 L 38.515625 413.152344 Z M 38.515625 430.292969 " fill-opacity="1" fill-rule="nonzero"/><path fill="#c51f1b" d="M 160.238281 413.160156 L 107.980469 399.621094 L 107.980469 416.738281 L 160.238281 430.300781 Z M 160.238281 413.160156 " fill-opacity="1" fill-rule="nonzero"/><path fill="#c51f1b" d="M 160.238281 447.605469 L 107.980469 434.015625 L 107.980469 451.15625 L 160.238281 464.722656 Z M 160.238281 447.605469 " fill-opacity="1" fill-rule="nonzero"/><path fill="#c51f1b" d="M 38.515625 464.722656 L 90.773438 451.15625 L 90.773438 434.015625 L 38.515625 447.605469 Z M 38.515625 464.722656 " fill-opacity="1" fill-rule="nonzero"/></svg>